<?xml version="1.0" encoding="utf-8" standalone="no"?>
<!DOCTYPE svg PUBLIC "-//W3C//DTD SVG 1.1//EN"
  "http://www.w3.org/Graphics/SVG/1.1/DTD/svg11.dtd">
<svg xmlns:xlink="http://www.w3.org/1999/xlink" width="720pt" height="432pt" viewBox="0 0 720 432" xmlns="http://www.w3.org/2000/svg" version="1.1">
 <metadata>
  <rdf:RDF xmlns:dc="http://purl.org/dc/elements/1.1/" xmlns:cc="http://creativecommons.org/ns#" xmlns:rdf="http://www.w3.org/1999/02/22-rdf-syntax-ns#">
   <cc:Work>
    <dc:type rdf:resource="http://purl.org/dc/dcmitype/StillImage"/>
    <dc:date>2024-11-09T22:47:42.448955</dc:date>
    <dc:format>image/svg+xml</dc:format>
    <dc:creator>
     <cc:Agent>
      <dc:title>Matplotlib v3.9.2, https://matplotlib.org/</dc:title>
     </cc:Agent>
    </dc:creator>
   </cc:Work>
  </rdf:RDF>
 </metadata>
 <defs>
  <style type="text/css">*{stroke-linejoin: round; stroke-linecap: butt}</style>
 </defs>
 <g id="figure_1">
  <g id="patch_1">
   <path d="M 0 432 
L 720 432 
L 720 0 
L 0 0 
z
" style="fill: #ffffff"/>
  </g>
  <g id="axes_1">
   <g id="patch_2">
    <path d="M 90 384.48 
L 648 384.48 
L 648 51.84 
L 90 51.84 
z
" style="fill: #ffffff"/>
   </g>
   <g id="PathCollection_1">
    <defs>
     <path id="m5d8ff68c16" d="M 0 3 
C 0.795609 3 1.55874 2.683901 2.12132 2.12132 
C 2.683901 1.55874 3 0.795609 3 0 
C 3 -0.795609 2.683901 -1.55874 2.12132 -2.12132 
C 1.55874 -2.683901 0.795609 -3 0 -3 
C -0.795609 -3 -1.55874 -2.683901 -2.12132 -2.12132 
C -2.683901 -1.55874 -3 -0.795609 -3 0 
C -3 0.795609 -2.683901 1.55874 -2.12132 2.12132 
C -1.55874 2.683901 -0.795609 3 0 3 
z
" style="stroke: #000000"/>
    </defs>
    <g clip-path="url(#pb3964e2fe1)">
     <use xlink:href="#m5d8ff68c16" x="276.402597" y="318.96" style="stroke: #000000"/>
    </g>
   </g>
   <g id="PathCollection_2">
    <g clip-path="url(#pb3964e2fe1)">
     <use xlink:href="#m5d8ff68c16" x="300.558442" y="353.61" style="stroke: #000000"/>
    </g>
   </g>
   <g id="PathCollection_3">
    <g clip-path="url(#pb3964e2fe1)">
     <use xlink:href="#m5d8ff68c16" x="356.922078" y="303.21" style="stroke: #000000"/>
    </g>
   </g>
   <g id="PathCollection_4">
    <g clip-path="url(#pb3964e2fe1)">
     <use xlink:href="#m5d8ff68c16" x="381.077922" y="369.36" style="stroke: #000000"/>
    </g>
   </g>
   <g id="PathCollection_5">
    <g clip-path="url(#pb3964e2fe1)">
     <use xlink:href="#m5d8ff68c16" x="517.961039" y="366.21" style="stroke: #000000"/>
    </g>
   </g>
   <g id="PathCollection_6">
    <g clip-path="url(#pb3964e2fe1)">
     <use xlink:href="#m5d8ff68c16" x="461.597403" y="180.36" style="stroke: #000000"/>
    </g>
   </g>
   <g id="PathCollection_7">
    <g clip-path="url(#pb3964e2fe1)">
     <use xlink:href="#m5d8ff68c16" x="437.441558" y="334.71" style="stroke: #000000"/>
    </g>
   </g>
   <g id="PathCollection_8">
    <g clip-path="url(#pb3964e2fe1)">
     <use xlink:href="#m5d8ff68c16" x="622.636364" y="369.36" style="stroke: #000000"/>
    </g>
   </g>
   <g id="PathCollection_9">
    <g clip-path="url(#pb3964e2fe1)">
     <use xlink:href="#m5d8ff68c16" x="517.961039" y="66.96" style="stroke: #000000"/>
    </g>
   </g>
   <g id="PathCollection_10">
    <g clip-path="url(#pb3964e2fe1)">
     <use xlink:href="#m5d8ff68c16" x="220.038961" y="290.61" style="stroke: #000000"/>
    </g>
   </g>
   <g id="PathCollection_11">
    <g clip-path="url(#pb3964e2fe1)">
     <use xlink:href="#m5d8ff68c16" x="115.363636" y="334.71" style="stroke: #000000"/>
    </g>
   </g>
   <g id="PathCollection_12">
    <defs>
     <path id="m98c1f0d266" d="M 0 3 
C 0.795609 3 1.55874 2.683901 2.12132 2.12132 
C 2.683901 1.55874 3 0.795609 3 0 
C 3 -0.795609 2.683901 -1.55874 2.12132 -2.12132 
C 1.55874 -2.683901 0.795609 -3 0 -3 
C -0.795609 -3 -1.55874 -2.683901 -2.12132 -2.12132 
C -2.683901 -1.55874 -3 -0.795609 -3 0 
C -3 0.795609 -2.683901 1.55874 -2.12132 2.12132 
C -1.55874 2.683901 -0.795609 3 0 3 
z
" style="stroke: #ff0000"/>
    </defs>
    <g clip-path="url(#pb3964e2fe1)">
     <use xlink:href="#m98c1f0d266" x="207.961039" y="336.285" style="fill: #ff0000; stroke: #ff0000"/>
     <use xlink:href="#m98c1f0d266" x="248.220779" y="328.41" style="fill: #ff0000; stroke: #ff0000"/>
     <use xlink:href="#m98c1f0d266" x="288.480519" y="336.285" style="fill: #ff0000; stroke: #ff0000"/>
     <use xlink:href="#m98c1f0d266" x="328.74026" y="328.41" style="fill: #ff0000; stroke: #ff0000"/>
     <use xlink:href="#m98c1f0d266" x="369" y="336.285" style="fill: #ff0000; stroke: #ff0000"/>
     <use xlink:href="#m98c1f0d266" x="449.519481" y="367.785" style="fill: #ff0000; stroke: #ff0000"/>
     <use xlink:href="#m98c1f0d266" x="489.779221" y="273.285" style="fill: #ff0000; stroke: #ff0000"/>
     <use xlink:href="#m98c1f0d266" x="449.519481" y="257.535" style="fill: #ff0000; stroke: #ff0000"/>
     <use xlink:href="#m98c1f0d266" x="530.038961" y="352.035" style="fill: #ff0000; stroke: #ff0000"/>
     <use xlink:href="#m98c1f0d266" x="570.298701" y="218.16" style="fill: #ff0000; stroke: #ff0000"/>
     <use xlink:href="#m98c1f0d266" x="369" y="178.785" style="fill: #ff0000; stroke: #ff0000"/>
     <use xlink:href="#m98c1f0d266" x="167.701299" y="312.66" style="fill: #ff0000; stroke: #ff0000"/>
     <use xlink:href="#m98c1f0d266" x="207.961039" y="336.285" style="fill: #ff0000; stroke: #ff0000"/>
    </g>
   </g>
   <g id="PathCollection_13">
    <defs>
     <path id="mf45f32cf4e" d="M 0 -3 
L -0.673542 -0.927051 
L -2.85317 -0.927051 
L -1.089814 0.354102 
L -1.763356 2.427051 
L -0 1.145898 
L 1.763356 2.427051 
L 1.089814 0.354102 
L 2.85317 -0.927051 
L 0.673542 -0.927051 
z
" style="stroke: #000000"/>
    </defs>
    <g clip-path="url(#pb3964e2fe1)">
     <use xlink:href="#mf45f32cf4e" x="220.038961" y="337.86" style="stroke: #000000"/>
    </g>
   </g>
   <g id="matplotlib.axis_1">
    <g id="xtick_1">
     <g id="line2d_1">
      <defs>
       <path id="mb60566daa7" d="M 0 0 
L 0 3.5 
" style="stroke: #000000; stroke-width: 0.8"/>
      </defs>
      <g>
       <use xlink:href="#mb60566daa7" x="127.441558" y="384.48" style="stroke: #000000; stroke-width: 0.8"/>
      </g>
     </g>
     <g id="text_1">
      <!-- −2 -->
      <g transform="translate(120.070465 399.078438) scale(0.1 -0.1)">
       <defs>
        <path id="DejaVuSans-2212" d="M 678 2272 
L 4684 2272 
L 4684 1741 
L 678 1741 
L 678 2272 
z
" transform="scale(0.015625)"/>
        <path id="DejaVuSans-32" d="M 1228 531 
L 3431 531 
L 3431 0 
L 469 0 
L 469 531 
Q 828 903 1448 1529 
Q 2069 2156 2228 2338 
Q 2531 2678 2651 2914 
Q 2772 3150 2772 3378 
Q 2772 3750 2511 3984 
Q 2250 4219 1831 4219 
Q 1534 4219 1204 4116 
Q 875 4013 500 3803 
L 500 4441 
Q 881 4594 1212 4672 
Q 1544 4750 1819 4750 
Q 2544 4750 2975 4387 
Q 3406 4025 3406 3419 
Q 3406 3131 3298 2873 
Q 3191 2616 2906 2266 
Q 2828 2175 2409 1742 
Q 1991 1309 1228 531 
z
" transform="scale(0.015625)"/>
       </defs>
       <use xlink:href="#DejaVuSans-2212"/>
       <use xlink:href="#DejaVuSans-32" x="83.789062"/>
      </g>
     </g>
    </g>
    <g id="xtick_2">
     <g id="line2d_2">
      <g>
       <use xlink:href="#mb60566daa7" x="207.961039" y="384.48" style="stroke: #000000; stroke-width: 0.8"/>
      </g>
     </g>
     <g id="text_2">
      <!-- 0 -->
      <g transform="translate(204.779789 399.078438) scale(0.1 -0.1)">
       <defs>
        <path id="DejaVuSans-30" d="M 2034 4250 
Q 1547 4250 1301 3770 
Q 1056 3291 1056 2328 
Q 1056 1369 1301 889 
Q 1547 409 2034 409 
Q 2525 409 2770 889 
Q 3016 1369 3016 2328 
Q 3016 3291 2770 3770 
Q 2525 4250 2034 4250 
z
M 2034 4750 
Q 2819 4750 3233 4129 
Q 3647 3509 3647 2328 
Q 3647 1150 3233 529 
Q 2819 -91 2034 -91 
Q 1250 -91 836 529 
Q 422 1150 422 2328 
Q 422 3509 836 4129 
Q 1250 4750 2034 4750 
z
" transform="scale(0.015625)"/>
       </defs>
       <use xlink:href="#DejaVuSans-30"/>
      </g>
     </g>
    </g>
    <g id="xtick_3">
     <g id="line2d_3">
      <g>
       <use xlink:href="#mb60566daa7" x="288.480519" y="384.48" style="stroke: #000000; stroke-width: 0.8"/>
      </g>
     </g>
     <g id="text_3">
      <!-- 2 -->
      <g transform="translate(285.299269 399.078438) scale(0.1 -0.1)">
       <use xlink:href="#DejaVuSans-32"/>
      </g>
     </g>
    </g>
    <g id="xtick_4">
     <g id="line2d_4">
      <g>
       <use xlink:href="#mb60566daa7" x="369" y="384.48" style="stroke: #000000; stroke-width: 0.8"/>
      </g>
     </g>
     <g id="text_4">
      <!-- 4 -->
      <g transform="translate(365.81875 399.078438) scale(0.1 -0.1)">
       <defs>
        <path id="DejaVuSans-34" d="M 2419 4116 
L 825 1625 
L 2419 1625 
L 2419 4116 
z
M 2253 4666 
L 3047 4666 
L 3047 1625 
L 3713 1625 
L 3713 1100 
L 3047 1100 
L 3047 0 
L 2419 0 
L 2419 1100 
L 313 1100 
L 313 1709 
L 2253 4666 
z
" transform="scale(0.015625)"/>
       </defs>
       <use xlink:href="#DejaVuSans-34"/>
      </g>
     </g>
    </g>
    <g id="xtick_5">
     <g id="line2d_5">
      <g>
       <use xlink:href="#mb60566daa7" x="449.519481" y="384.48" style="stroke: #000000; stroke-width: 0.8"/>
      </g>
     </g>
     <g id="text_5">
      <!-- 6 -->
      <g transform="translate(446.338231 399.078438) scale(0.1 -0.1)">
       <defs>
        <path id="DejaVuSans-36" d="M 2113 2584 
Q 1688 2584 1439 2293 
Q 1191 2003 1191 1497 
Q 1191 994 1439 701 
Q 1688 409 2113 409 
Q 2538 409 2786 701 
Q 3034 994 3034 1497 
Q 3034 2003 2786 2293 
Q 2538 2584 2113 2584 
z
M 3366 4563 
L 3366 3988 
Q 3128 4100 2886 4159 
Q 2644 4219 2406 4219 
Q 1781 4219 1451 3797 
Q 1122 3375 1075 2522 
Q 1259 2794 1537 2939 
Q 1816 3084 2150 3084 
Q 2853 3084 3261 2657 
Q 3669 2231 3669 1497 
Q 3669 778 3244 343 
Q 2819 -91 2113 -91 
Q 1303 -91 875 529 
Q 447 1150 447 2328 
Q 447 3434 972 4092 
Q 1497 4750 2381 4750 
Q 2619 4750 2861 4703 
Q 3103 4656 3366 4563 
z
" transform="scale(0.015625)"/>
       </defs>
       <use xlink:href="#DejaVuSans-36"/>
      </g>
     </g>
    </g>
    <g id="xtick_6">
     <g id="line2d_6">
      <g>
       <use xlink:href="#mb60566daa7" x="530.038961" y="384.48" style="stroke: #000000; stroke-width: 0.8"/>
      </g>
     </g>
     <g id="text_6">
      <!-- 8 -->
      <g transform="translate(526.857711 399.078438) scale(0.1 -0.1)">
       <defs>
        <path id="DejaVuSans-38" d="M 2034 2216 
Q 1584 2216 1326 1975 
Q 1069 1734 1069 1313 
Q 1069 891 1326 650 
Q 1584 409 2034 409 
Q 2484 409 2743 651 
Q 3003 894 3003 1313 
Q 3003 1734 2745 1975 
Q 2488 2216 2034 2216 
z
M 1403 2484 
Q 997 2584 770 2862 
Q 544 3141 544 3541 
Q 544 4100 942 4425 
Q 1341 4750 2034 4750 
Q 2731 4750 3128 4425 
Q 3525 4100 3525 3541 
Q 3525 3141 3298 2862 
Q 3072 2584 2669 2484 
Q 3125 2378 3379 2068 
Q 3634 1759 3634 1313 
Q 3634 634 3220 271 
Q 2806 -91 2034 -91 
Q 1263 -91 848 271 
Q 434 634 434 1313 
Q 434 1759 690 2068 
Q 947 2378 1403 2484 
z
M 1172 3481 
Q 1172 3119 1398 2916 
Q 1625 2713 2034 2713 
Q 2441 2713 2670 2916 
Q 2900 3119 2900 3481 
Q 2900 3844 2670 4047 
Q 2441 4250 2034 4250 
Q 1625 4250 1398 4047 
Q 1172 3844 1172 3481 
z
" transform="scale(0.015625)"/>
       </defs>
       <use xlink:href="#DejaVuSans-38"/>
      </g>
     </g>
    </g>
    <g id="xtick_7">
     <g id="line2d_7">
      <g>
       <use xlink:href="#mb60566daa7" x="610.558442" y="384.48" style="stroke: #000000; stroke-width: 0.8"/>
      </g>
     </g>
     <g id="text_7">
      <!-- 10 -->
      <g transform="translate(604.195942 399.078438) scale(0.1 -0.1)">
       <defs>
        <path id="DejaVuSans-31" d="M 794 531 
L 1825 531 
L 1825 4091 
L 703 3866 
L 703 4441 
L 1819 4666 
L 2450 4666 
L 2450 531 
L 3481 531 
L 3481 0 
L 794 0 
L 794 531 
z
" transform="scale(0.015625)"/>
       </defs>
       <use xlink:href="#DejaVuSans-31"/>
       <use xlink:href="#DejaVuSans-30" x="63.623047"/>
      </g>
     </g>
    </g>
   </g>
   <g id="matplotlib.axis_2">
    <g id="ytick_1">
     <g id="line2d_8">
      <defs>
       <path id="m6d54828204" d="M 0 0 
L -3.5 0 
" style="stroke: #000000; stroke-width: 0.8"/>
      </defs>
      <g>
       <use xlink:href="#m6d54828204" x="90" y="375.66" style="stroke: #000000; stroke-width: 0.8"/>
      </g>
     </g>
     <g id="text_8">
      <!-- −5 -->
      <g transform="translate(68.257812 379.459219) scale(0.1 -0.1)">
       <defs>
        <path id="DejaVuSans-35" d="M 691 4666 
L 3169 4666 
L 3169 4134 
L 1269 4134 
L 1269 2991 
Q 1406 3038 1543 3061 
Q 1681 3084 1819 3084 
Q 2600 3084 3056 2656 
Q 3513 2228 3513 1497 
Q 3513 744 3044 326 
Q 2575 -91 1722 -91 
Q 1428 -91 1123 -41 
Q 819 9 494 109 
L 494 744 
Q 775 591 1075 516 
Q 1375 441 1709 441 
Q 2250 441 2565 725 
Q 2881 1009 2881 1497 
Q 2881 1984 2565 2268 
Q 2250 2553 1709 2553 
Q 1456 2553 1204 2497 
Q 953 2441 691 2322 
L 691 4666 
z
" transform="scale(0.015625)"/>
       </defs>
       <use xlink:href="#DejaVuSans-2212"/>
       <use xlink:href="#DejaVuSans-35" x="83.789062"/>
      </g>
     </g>
    </g>
    <g id="ytick_2">
     <g id="line2d_9">
      <g>
       <use xlink:href="#m6d54828204" x="90" y="336.285" style="stroke: #000000; stroke-width: 0.8"/>
      </g>
     </g>
     <g id="text_9">
      <!-- 0 -->
      <g transform="translate(76.6375 340.084219) scale(0.1 -0.1)">
       <use xlink:href="#DejaVuSans-30"/>
      </g>
     </g>
    </g>
    <g id="ytick_3">
     <g id="line2d_10">
      <g>
       <use xlink:href="#m6d54828204" x="90" y="296.91" style="stroke: #000000; stroke-width: 0.8"/>
      </g>
     </g>
     <g id="text_10">
      <!-- 5 -->
      <g transform="translate(76.6375 300.709219) scale(0.1 -0.1)">
       <use xlink:href="#DejaVuSans-35"/>
      </g>
     </g>
    </g>
    <g id="ytick_4">
     <g id="line2d_11">
      <g>
       <use xlink:href="#m6d54828204" x="90" y="257.535" style="stroke: #000000; stroke-width: 0.8"/>
      </g>
     </g>
     <g id="text_11">
      <!-- 10 -->
      <g transform="translate(70.275 261.334219) scale(0.1 -0.1)">
       <use xlink:href="#DejaVuSans-31"/>
       <use xlink:href="#DejaVuSans-30" x="63.623047"/>
      </g>
     </g>
    </g>
    <g id="ytick_5">
     <g id="line2d_12">
      <g>
       <use xlink:href="#m6d54828204" x="90" y="218.16" style="stroke: #000000; stroke-width: 0.8"/>
      </g>
     </g>
     <g id="text_12">
      <!-- 15 -->
      <g transform="translate(70.275 221.959219) scale(0.1 -0.1)">
       <use xlink:href="#DejaVuSans-31"/>
       <use xlink:href="#DejaVuSans-35" x="63.623047"/>
      </g>
     </g>
    </g>
    <g id="ytick_6">
     <g id="line2d_13">
      <g>
       <use xlink:href="#m6d54828204" x="90" y="178.785" style="stroke: #000000; stroke-width: 0.8"/>
      </g>
     </g>
     <g id="text_13">
      <!-- 20 -->
      <g transform="translate(70.275 182.584219) scale(0.1 -0.1)">
       <use xlink:href="#DejaVuSans-32"/>
       <use xlink:href="#DejaVuSans-30" x="63.623047"/>
      </g>
     </g>
    </g>
    <g id="ytick_7">
     <g id="line2d_14">
      <g>
       <use xlink:href="#m6d54828204" x="90" y="139.41" style="stroke: #000000; stroke-width: 0.8"/>
      </g>
     </g>
     <g id="text_14">
      <!-- 25 -->
      <g transform="translate(70.275 143.209219) scale(0.1 -0.1)">
       <use xlink:href="#DejaVuSans-32"/>
       <use xlink:href="#DejaVuSans-35" x="63.623047"/>
      </g>
     </g>
    </g>
    <g id="ytick_8">
     <g id="line2d_15">
      <g>
       <use xlink:href="#m6d54828204" x="90" y="100.035" style="stroke: #000000; stroke-width: 0.8"/>
      </g>
     </g>
     <g id="text_15">
      <!-- 30 -->
      <g transform="translate(70.275 103.834219) scale(0.1 -0.1)">
       <defs>
        <path id="DejaVuSans-33" d="M 2597 2516 
Q 3050 2419 3304 2112 
Q 3559 1806 3559 1356 
Q 3559 666 3084 287 
Q 2609 -91 1734 -91 
Q 1441 -91 1130 -33 
Q 819 25 488 141 
L 488 750 
Q 750 597 1062 519 
Q 1375 441 1716 441 
Q 2309 441 2620 675 
Q 2931 909 2931 1356 
Q 2931 1769 2642 2001 
Q 2353 2234 1838 2234 
L 1294 2234 
L 1294 2753 
L 1863 2753 
Q 2328 2753 2575 2939 
Q 2822 3125 2822 3475 
Q 2822 3834 2567 4026 
Q 2313 4219 1838 4219 
Q 1578 4219 1281 4162 
Q 984 4106 628 3988 
L 628 4550 
Q 988 4650 1302 4700 
Q 1616 4750 1894 4750 
Q 2613 4750 3031 4423 
Q 3450 4097 3450 3541 
Q 3450 3153 3228 2886 
Q 3006 2619 2597 2516 
z
" transform="scale(0.015625)"/>
       </defs>
       <use xlink:href="#DejaVuSans-33"/>
       <use xlink:href="#DejaVuSans-30" x="63.623047"/>
      </g>
     </g>
    </g>
    <g id="ytick_9">
     <g id="line2d_16">
      <g>
       <use xlink:href="#m6d54828204" x="90" y="60.66" style="stroke: #000000; stroke-width: 0.8"/>
      </g>
     </g>
     <g id="text_16">
      <!-- 35 -->
      <g transform="translate(70.275 64.459219) scale(0.1 -0.1)">
       <use xlink:href="#DejaVuSans-33"/>
       <use xlink:href="#DejaVuSans-35" x="63.623047"/>
      </g>
     </g>
    </g>
   </g>
   <g id="line2d_17">
    <path d="M 207.961039 336.285 
L 220.038961 337.86 
" clip-path="url(#pb3964e2fe1)" style="fill: none; stroke-dasharray: 3.7,1.6; stroke-dashoffset: 0; stroke: #000000"/>
   </g>
   <g id="line2d_18">
    <path d="M 220.038961 337.86 
L 248.220779 328.41 
" clip-path="url(#pb3964e2fe1)" style="fill: none; stroke-dasharray: 3.7,1.6; stroke-dashoffset: 0; stroke: #000000"/>
   </g>
   <g id="line2d_19">
    <path d="M 248.220779 328.41 
L 276.402597 318.96 
" clip-path="url(#pb3964e2fe1)" style="fill: none; stroke-dasharray: 3.7,1.6; stroke-dashoffset: 0; stroke: #000000"/>
   </g>
   <g id="line2d_20">
    <path d="M 276.402597 318.96 
L 288.480519 336.285 
" clip-path="url(#pb3964e2fe1)" style="fill: none; stroke-dasharray: 3.7,1.6; stroke-dashoffset: 0; stroke: #000000"/>
   </g>
   <g id="line2d_21">
    <path d="M 288.480519 336.285 
L 300.558442 353.61 
" clip-path="url(#pb3964e2fe1)" style="fill: none; stroke-dasharray: 3.7,1.6; stroke-dashoffset: 0; stroke: #000000"/>
   </g>
   <g id="line2d_22">
    <path d="M 300.558442 353.61 
L 328.74026 328.41 
" clip-path="url(#pb3964e2fe1)" style="fill: none; stroke-dasharray: 3.7,1.6; stroke-dashoffset: 0; stroke: #000000"/>
   </g>
   <g id="line2d_23">
    <path d="M 328.74026 328.41 
L 356.922078 303.21 
" clip-path="url(#pb3964e2fe1)" style="fill: none; stroke-dasharray: 3.7,1.6; stroke-dashoffset: 0; stroke: #000000"/>
   </g>
   <g id="line2d_24">
    <path d="M 356.922078 303.21 
L 369 336.285 
" clip-path="url(#pb3964e2fe1)" style="fill: none; stroke-dasharray: 3.7,1.6; stroke-dashoffset: 0; stroke: #000000"/>
   </g>
   <g id="line2d_25">
    <path d="M 369 336.285 
L 381.077922 369.36 
" clip-path="url(#pb3964e2fe1)" style="fill: none; stroke-dasharray: 3.7,1.6; stroke-dashoffset: 0; stroke: #000000"/>
   </g>
   <g id="line2d_26">
    <path d="M 381.077922 369.36 
L 449.519481 367.785 
" clip-path="url(#pb3964e2fe1)" style="fill: none; stroke-dasharray: 3.7,1.6; stroke-dashoffset: 0; stroke: #000000"/>
   </g>
   <g id="line2d_27">
    <path d="M 449.519481 367.785 
L 517.961039 366.21 
" clip-path="url(#pb3964e2fe1)" style="fill: none; stroke-dasharray: 3.7,1.6; stroke-dashoffset: 0; stroke: #000000"/>
   </g>
   <g id="line2d_28">
    <path d="M 517.961039 366.21 
L 489.779221 273.285 
" clip-path="url(#pb3964e2fe1)" style="fill: none; stroke-dasharray: 3.7,1.6; stroke-dashoffset: 0; stroke: #000000"/>
   </g>
   <g id="line2d_29">
    <path d="M 489.779221 273.285 
L 461.597403 180.36 
" clip-path="url(#pb3964e2fe1)" style="fill: none; stroke-dasharray: 3.7,1.6; stroke-dashoffset: 0; stroke: #000000"/>
   </g>
   <g id="line2d_30">
    <path d="M 461.597403 180.36 
L 449.519481 257.535 
" clip-path="url(#pb3964e2fe1)" style="fill: none; stroke-dasharray: 3.7,1.6; stroke-dashoffset: 0; stroke: #000000"/>
   </g>
   <g id="line2d_31">
    <path d="M 449.519481 257.535 
L 437.441558 334.71 
" clip-path="url(#pb3964e2fe1)" style="fill: none; stroke-dasharray: 3.7,1.6; stroke-dashoffset: 0; stroke: #000000"/>
   </g>
   <g id="line2d_32">
    <path d="M 437.441558 334.71 
L 530.038961 352.035 
" clip-path="url(#pb3964e2fe1)" style="fill: none; stroke-dasharray: 3.7,1.6; stroke-dashoffset: 0; stroke: #000000"/>
   </g>
   <g id="line2d_33">
    <path d="M 530.038961 352.035 
L 622.636364 369.36 
" clip-path="url(#pb3964e2fe1)" style="fill: none; stroke-dasharray: 3.7,1.6; stroke-dashoffset: 0; stroke: #000000"/>
   </g>
   <g id="line2d_34">
    <path d="M 622.636364 369.36 
L 570.298701 218.16 
" clip-path="url(#pb3964e2fe1)" style="fill: none; stroke-dasharray: 3.7,1.6; stroke-dashoffset: 0; stroke: #000000"/>
   </g>
   <g id="line2d_35">
    <path d="M 570.298701 218.16 
L 517.961039 66.96 
" clip-path="url(#pb3964e2fe1)" style="fill: none; stroke-dasharray: 3.7,1.6; stroke-dashoffset: 0; stroke: #000000"/>
   </g>
   <g id="line2d_36">
    <path d="M 517.961039 66.96 
L 369 178.785 
" clip-path="url(#pb3964e2fe1)" style="fill: none; stroke-dasharray: 3.7,1.6; stroke-dashoffset: 0; stroke: #000000"/>
   </g>
   <g id="line2d_37">
    <path d="M 369 178.785 
L 220.038961 290.61 
" clip-path="url(#pb3964e2fe1)" style="fill: none; stroke-dasharray: 3.7,1.6; stroke-dashoffset: 0; stroke: #000000"/>
   </g>
   <g id="line2d_38">
    <path d="M 220.038961 290.61 
L 167.701299 312.66 
" clip-path="url(#pb3964e2fe1)" style="fill: none; stroke-dasharray: 3.7,1.6; stroke-dashoffset: 0; stroke: #000000"/>
   </g>
   <g id="line2d_39">
    <path d="M 167.701299 312.66 
L 115.363636 334.71 
" clip-path="url(#pb3964e2fe1)" style="fill: none; stroke-dasharray: 3.7,1.6; stroke-dashoffset: 0; stroke: #000000"/>
   </g>
   <g id="line2d_40">
    <path d="M 115.363636 334.71 
L 207.961039 336.285 
" clip-path="url(#pb3964e2fe1)" style="fill: none; stroke-dasharray: 3.7,1.6; stroke-dashoffset: 0; stroke: #000000"/>
   </g>
   <g id="line2d_41">
    <path d="M 207.961039 336.285 
L 210.330533 336.481931 
L 213.130431 336.485551 
L 216.420543 336.26153 
L 220.264808 335.771053 
L 224.730852 334.971367 
L 229.891737 333.81576 
L 235.823138 332.254314 
L 242.606591 330.233334 
L 254.928583 326.485985 
L 258.539676 325.752729 
L 261.896094 325.294775 
L 265.018079 325.090144 
L 267.92419 325.119645 
L 270.632894 325.36694 
L 273.161807 325.818899 
L 275.527094 326.465703 
L 277.743429 327.300909 
L 279.824761 328.321973 
L 281.782489 329.529695 
L 283.626686 330.928869 
L 285.364877 332.527636 
L 287.001819 334.336938 
L 288.544258 336.375973 
L 289.908634 338.120636 
L 291.321501 339.571876 
L 292.783817 340.759057 
L 294.299261 341.705536 
L 295.87577 342.429341 
L 297.524279 342.941753 
L 299.258339 343.247156 
L 301.094111 343.343032 
L 303.04855 343.22005 
L 305.140076 342.862641 
L 307.387483 342.249528 
L 309.810193 341.354228 
L 312.428082 340.145521 
L 315.261287 338.58795 
L 318.329995 336.642381 
L 321.654827 334.266177 
L 325.257339 331.413043 
L 329.234957 327.971042 
L 332.429971 325.306084 
L 335.398068 323.113989 
L 338.155706 321.348099 
L 340.720056 319.964702 
L 343.108777 318.923858 
L 345.338708 318.190424 
L 347.427478 317.733781 
L 349.39221 317.528817 
L 351.250452 317.556259 
L 353.018485 317.803257 
L 354.712718 318.26388 
L 356.347159 318.939025 
L 357.933959 319.836324 
L 359.482973 320.969867 
L 361.001796 322.36008 
L 362.49425 324.031834 
L 363.962174 326.015328 
L 365.404385 328.344327 
L 366.817272 331.055849 
L 368.195908 334.191687 
L 370.958124 340.728553 
L 372.366522 343.186 
L 373.962693 345.524125 
L 375.751478 347.74967 
L 377.740546 349.868614 
L 379.93937 351.884853 
L 382.3597 353.800882 
L 385.014063 355.616779 
L 387.918588 357.332346 
L 391.089186 358.944607 
L 394.54361 360.449451 
L 398.301526 361.841594 
L 402.383515 363.114214 
L 406.81084 364.2591 
L 411.606412 365.267028 
L 416.79358 366.12753 
L 422.397214 366.829207 
L 428.443765 367.359686 
L 434.958348 367.70547 
L 441.968767 367.852383 
L 449.504287 367.785349 
L 454.11718 367.568304 
L 458.391272 367.147072 
L 462.356333 366.535483 
L 466.032343 365.746064 
L 469.439035 364.789517 
L 472.594414 363.67491 
L 475.515942 362.409208 
L 478.219218 360.997613 
L 480.719017 359.442961 
L 483.027192 357.746911 
L 485.155595 355.907944 
L 487.113112 353.923324 
L 488.907446 351.787609 
L 490.544155 349.493327 
L 492.026065 347.032014 
L 493.3541 344.393409 
L 494.52769 341.564248 
L 495.543267 338.531612 
L 496.395498 335.280915 
L 497.077229 331.795848 
L 497.579101 328.0612 
L 497.890536 324.057428 
L 497.998906 319.766227 
L 497.890143 315.169527 
L 497.548755 310.246317 
L 496.957845 304.975851 
L 496.099454 299.337968 
L 494.95411 293.309486 
L 493.501346 286.867874 
L 491.719499 279.989471 
L 489.582258 272.636977 
L 486.426312 262.658055 
L 483.527329 254.209069 
L 480.869567 247.128659 
L 478.437573 241.26343 
L 476.216838 236.469943 
L 474.193211 232.613485 
L 472.353503 229.569484 
L 470.683336 227.220459 
L 469.168925 225.460123 
L 467.795562 224.192078 
L 466.546289 223.330587 
L 465.402655 222.803597 
L 464.342513 222.55407 
L 463.341312 222.543838 
L 462.37282 222.756242 
L 461.412484 223.197309 
L 460.440505 223.89377 
L 459.442485 224.890108 
L 458.409596 226.245401 
L 457.33827 228.030091 
L 456.228313 230.325646 
L 455.083096 233.221735 
L 453.908199 236.816608 
L 452.710597 241.218342 
L 451.498975 246.543234 
L 450.283612 252.914618 
L 449.162803 259.967177 
L 448.574102 265.095019 
L 448.232296 270.005804 
L 448.126013 274.709406 
L 448.244884 279.218501 
L 448.579833 283.543336 
L 449.122876 287.693537 
L 449.867415 291.679621 
L 450.808198 295.511338 
L 451.941284 299.197686 
L 453.264019 302.746929 
L 454.775643 306.167934 
L 456.476236 309.467401 
L 458.367894 312.652563 
L 460.45338 315.728587 
L 462.737614 318.701092 
L 465.226035 321.573715 
L 467.926409 324.350446 
L 470.846893 327.033368 
L 473.995669 329.622863 
L 477.384557 332.120604 
L 481.025611 334.526444 
L 484.930762 336.838622 
L 489.113012 339.054763 
L 493.58647 341.171859 
L 498.366385 343.18625 
L 503.469184 345.093605 
L 508.910599 346.888299 
L 514.707264 348.564197 
L 520.878843 350.115112 
L 527.441962 351.533227 
L 533.584379 352.644909 
L 538.458644 353.295184 
L 542.993597 353.678848 
L 547.209644 353.815289 
L 551.127822 353.722464 
L 554.76941 353.416445 
L 558.152349 352.911586 
L 561.296318 352.219929 
L 564.21764 351.351779 
L 566.933855 350.314523 
L 569.459136 349.113799 
L 571.807165 347.752506 
L 573.990792 346.230409 
L 576.019595 344.545634 
L 577.90127 342.69412 
L 579.64343 340.667374 
L 581.248744 338.457658 
L 582.719771 336.052771 
L 584.056167 333.4393 
L 585.255596 330.601523 
L 586.31269 327.524523 
L 587.221432 324.188295 
L 587.972633 320.575649 
L 588.55631 316.664137 
L 588.960022 312.434955 
L 589.170393 307.863878 
L 589.172265 302.926776 
L 588.949234 297.602407 
L 588.483601 291.863686 
L 587.756362 285.68418 
L 586.747658 279.038629 
L 585.436139 271.897872 
L 583.79973 264.234071 
L 581.815351 256.018223 
L 579.458898 247.220132 
L 576.705208 237.808372 
L 573.528031 227.750251 
L 569.920934 217.075669 
L 567.229366 209.735404 
L 564.465581 202.83841 
L 561.635558 196.368413 
L 558.742192 190.303435 
L 555.789387 184.625799 
L 552.780745 179.318654 
L 549.719571 174.365953 
L 546.607182 169.750014 
L 543.446167 165.456744 
L 540.238848 161.472774 
L 536.983582 157.781429 
L 533.681888 154.371529 
L 530.333096 151.230798 
L 526.936116 148.348113 
L 523.489441 145.713472 
L 519.991166 143.317972 
L 516.43685 141.152554 
L 512.823663 139.210822 
L 509.146168 137.486441 
L 505.40064 135.975446 
L 501.582987 134.674885 
L 497.684004 133.581623 
L 493.700997 132.695944 
L 489.626158 132.017955 
L 485.451123 131.549286 
L 481.172072 131.293284 
L 476.777178 131.253951 
L 472.261799 131.436878 
L 467.618383 131.848526 
L 462.836218 132.496906 
L 457.909577 133.390565 
L 452.829648 134.539392 
L 447.587178 135.95448 
L 442.175409 137.647176 
L 436.587323 139.629538 
L 430.812576 141.915627 
L 424.840333 144.52084 
L 418.665581 147.458824 
L 412.280007 150.745161 
L 405.671713 154.398141 
L 398.834927 158.433482 
L 391.760384 162.869349 
L 384.438488 167.724821 
L 376.859296 173.019914 
L 369.016088 178.772924 
L 342.890535 198.244846 
L 319.255304 215.587301 
L 297.790203 231.066528 
L 278.355002 244.812819 
L 260.814278 256.951997 
L 245.037418 267.60542 
L 230.896358 276.891434 
L 218.270588 284.922011 
L 207.044362 291.804692 
L 197.104913 297.643612 
L 188.346459 302.537057 
L 180.664914 306.58046 
L 173.963336 309.863255 
L 168.149919 312.470101 
L 161.974767 315.216923 
L 157.944578 317.261158 
L 154.868972 319.060441 
L 152.593059 320.638412 
L 150.974385 322.019065 
L 149.886024 323.22631 
L 149.218288 324.284437 
L 148.880324 325.220703 
L 148.805459 326.065982 
L 148.957327 326.853905 
L 149.333355 327.615438 
L 149.963289 328.37522 
L 150.903161 329.14785 
L 152.229428 329.938706 
L 154.034649 330.745616 
L 156.424745 331.560653 
L 159.519774 332.372131 
L 163.452154 333.164862 
L 168.366666 333.920855 
L 174.420348 334.619684 
L 181.781384 335.238644 
L 190.633234 335.753225 
L 201.167758 336.136674 
L 207.961039 336.285 
L 207.961039 336.285 
" clip-path="url(#pb3964e2fe1)" style="fill: none; stroke: #0000ff; stroke-width: 1.5; stroke-linecap: square"/>
   </g>
   <g id="patch_3">
    <path d="M 90 384.48 
L 90 51.84 
" style="fill: none; stroke: #000000; stroke-width: 0.8; stroke-linejoin: miter; stroke-linecap: square"/>
   </g>
   <g id="patch_4">
    <path d="M 648 384.48 
L 648 51.84 
" style="fill: none; stroke: #000000; stroke-width: 0.8; stroke-linejoin: miter; stroke-linecap: square"/>
   </g>
   <g id="patch_5">
    <path d="M 90 384.48 
L 648 384.48 
" style="fill: none; stroke: #000000; stroke-width: 0.8; stroke-linejoin: miter; stroke-linecap: square"/>
   </g>
   <g id="patch_6">
    <path d="M 90 51.84 
L 648 51.84 
" style="fill: none; stroke: #000000; stroke-width: 0.8; stroke-linejoin: miter; stroke-linecap: square"/>
   </g>
   <g id="legend_1">
    <g id="patch_7">
     <path d="M 97 118.674375 
L 300.3 118.674375 
Q 302.3 118.674375 302.3 116.674375 
L 302.3 58.84 
Q 302.3 56.84 300.3 56.84 
L 97 56.84 
Q 95 56.84 95 58.84 
L 95 116.674375 
Q 95 118.674375 97 118.674375 
z
" style="fill: #ffffff; opacity: 0.8; stroke: #cccccc; stroke-linejoin: miter"/>
    </g>
    <g id="PathCollection_14">
     <g>
      <use xlink:href="#m5d8ff68c16" x="109" y="65.813437" style="stroke: #000000"/>
     </g>
    </g>
    <g id="text_17">
     <!-- Points de contrôle déduits -->
     <g transform="translate(127 68.438437) scale(0.1 -0.1)">
      <defs>
       <path id="DejaVuSans-50" d="M 1259 4147 
L 1259 2394 
L 2053 2394 
Q 2494 2394 2734 2622 
Q 2975 2850 2975 3272 
Q 2975 3691 2734 3919 
Q 2494 4147 2053 4147 
L 1259 4147 
z
M 628 4666 
L 2053 4666 
Q 2838 4666 3239 4311 
Q 3641 3956 3641 3272 
Q 3641 2581 3239 2228 
Q 2838 1875 2053 1875 
L 1259 1875 
L 1259 0 
L 628 0 
L 628 4666 
z
" transform="scale(0.015625)"/>
       <path id="DejaVuSans-6f" d="M 1959 3097 
Q 1497 3097 1228 2736 
Q 959 2375 959 1747 
Q 959 1119 1226 758 
Q 1494 397 1959 397 
Q 2419 397 2687 759 
Q 2956 1122 2956 1747 
Q 2956 2369 2687 2733 
Q 2419 3097 1959 3097 
z
M 1959 3584 
Q 2709 3584 3137 3096 
Q 3566 2609 3566 1747 
Q 3566 888 3137 398 
Q 2709 -91 1959 -91 
Q 1206 -91 779 398 
Q 353 888 353 1747 
Q 353 2609 779 3096 
Q 1206 3584 1959 3584 
z
" transform="scale(0.015625)"/>
       <path id="DejaVuSans-69" d="M 603 3500 
L 1178 3500 
L 1178 0 
L 603 0 
L 603 3500 
z
M 603 4863 
L 1178 4863 
L 1178 4134 
L 603 4134 
L 603 4863 
z
" transform="scale(0.015625)"/>
       <path id="DejaVuSans-6e" d="M 3513 2113 
L 3513 0 
L 2938 0 
L 2938 2094 
Q 2938 2591 2744 2837 
Q 2550 3084 2163 3084 
Q 1697 3084 1428 2787 
Q 1159 2491 1159 1978 
L 1159 0 
L 581 0 
L 581 3500 
L 1159 3500 
L 1159 2956 
Q 1366 3272 1645 3428 
Q 1925 3584 2291 3584 
Q 2894 3584 3203 3211 
Q 3513 2838 3513 2113 
z
" transform="scale(0.015625)"/>
       <path id="DejaVuSans-74" d="M 1172 4494 
L 1172 3500 
L 2356 3500 
L 2356 3053 
L 1172 3053 
L 1172 1153 
Q 1172 725 1289 603 
Q 1406 481 1766 481 
L 2356 481 
L 2356 0 
L 1766 0 
Q 1100 0 847 248 
Q 594 497 594 1153 
L 594 3053 
L 172 3053 
L 172 3500 
L 594 3500 
L 594 4494 
L 1172 4494 
z
" transform="scale(0.015625)"/>
       <path id="DejaVuSans-73" d="M 2834 3397 
L 2834 2853 
Q 2591 2978 2328 3040 
Q 2066 3103 1784 3103 
Q 1356 3103 1142 2972 
Q 928 2841 928 2578 
Q 928 2378 1081 2264 
Q 1234 2150 1697 2047 
L 1894 2003 
Q 2506 1872 2764 1633 
Q 3022 1394 3022 966 
Q 3022 478 2636 193 
Q 2250 -91 1575 -91 
Q 1294 -91 989 -36 
Q 684 19 347 128 
L 347 722 
Q 666 556 975 473 
Q 1284 391 1588 391 
Q 1994 391 2212 530 
Q 2431 669 2431 922 
Q 2431 1156 2273 1281 
Q 2116 1406 1581 1522 
L 1381 1569 
Q 847 1681 609 1914 
Q 372 2147 372 2553 
Q 372 3047 722 3315 
Q 1072 3584 1716 3584 
Q 2034 3584 2315 3537 
Q 2597 3491 2834 3397 
z
" transform="scale(0.015625)"/>
       <path id="DejaVuSans-20" transform="scale(0.015625)"/>
       <path id="DejaVuSans-64" d="M 2906 2969 
L 2906 4863 
L 3481 4863 
L 3481 0 
L 2906 0 
L 2906 525 
Q 2725 213 2448 61 
Q 2172 -91 1784 -91 
Q 1150 -91 751 415 
Q 353 922 353 1747 
Q 353 2572 751 3078 
Q 1150 3584 1784 3584 
Q 2172 3584 2448 3432 
Q 2725 3281 2906 2969 
z
M 947 1747 
Q 947 1113 1208 752 
Q 1469 391 1925 391 
Q 2381 391 2643 752 
Q 2906 1113 2906 1747 
Q 2906 2381 2643 2742 
Q 2381 3103 1925 3103 
Q 1469 3103 1208 2742 
Q 947 2381 947 1747 
z
" transform="scale(0.015625)"/>
       <path id="DejaVuSans-65" d="M 3597 1894 
L 3597 1613 
L 953 1613 
Q 991 1019 1311 708 
Q 1631 397 2203 397 
Q 2534 397 2845 478 
Q 3156 559 3463 722 
L 3463 178 
Q 3153 47 2828 -22 
Q 2503 -91 2169 -91 
Q 1331 -91 842 396 
Q 353 884 353 1716 
Q 353 2575 817 3079 
Q 1281 3584 2069 3584 
Q 2775 3584 3186 3129 
Q 3597 2675 3597 1894 
z
M 3022 2063 
Q 3016 2534 2758 2815 
Q 2500 3097 2075 3097 
Q 1594 3097 1305 2825 
Q 1016 2553 972 2059 
L 3022 2063 
z
" transform="scale(0.015625)"/>
       <path id="DejaVuSans-63" d="M 3122 3366 
L 3122 2828 
Q 2878 2963 2633 3030 
Q 2388 3097 2138 3097 
Q 1578 3097 1268 2742 
Q 959 2388 959 1747 
Q 959 1106 1268 751 
Q 1578 397 2138 397 
Q 2388 397 2633 464 
Q 2878 531 3122 666 
L 3122 134 
Q 2881 22 2623 -34 
Q 2366 -91 2075 -91 
Q 1284 -91 818 406 
Q 353 903 353 1747 
Q 353 2603 823 3093 
Q 1294 3584 2113 3584 
Q 2378 3584 2631 3529 
Q 2884 3475 3122 3366 
z
" transform="scale(0.015625)"/>
       <path id="DejaVuSans-72" d="M 2631 2963 
Q 2534 3019 2420 3045 
Q 2306 3072 2169 3072 
Q 1681 3072 1420 2755 
Q 1159 2438 1159 1844 
L 1159 0 
L 581 0 
L 581 3500 
L 1159 3500 
L 1159 2956 
Q 1341 3275 1631 3429 
Q 1922 3584 2338 3584 
Q 2397 3584 2469 3576 
Q 2541 3569 2628 3553 
L 2631 2963 
z
" transform="scale(0.015625)"/>
       <path id="DejaVuSans-f4" d="M 1959 3097 
Q 1497 3097 1228 2736 
Q 959 2375 959 1747 
Q 959 1119 1226 758 
Q 1494 397 1959 397 
Q 2419 397 2687 759 
Q 2956 1122 2956 1747 
Q 2956 2369 2687 2733 
Q 2419 3097 1959 3097 
z
M 1959 3584 
Q 2709 3584 3137 3096 
Q 3566 2609 3566 1747 
Q 3566 888 3137 398 
Q 2709 -91 1959 -91 
Q 1206 -91 779 398 
Q 353 888 353 1747 
Q 353 2609 779 3096 
Q 1206 3584 1959 3584 
z
M 1729 5119 
L 2191 5119 
L 2957 3944 
L 2523 3944 
L 1960 4709 
L 1398 3944 
L 963 3944 
L 1729 5119 
z
" transform="scale(0.015625)"/>
       <path id="DejaVuSans-6c" d="M 603 4863 
L 1178 4863 
L 1178 0 
L 603 0 
L 603 4863 
z
" transform="scale(0.015625)"/>
       <path id="DejaVuSans-e9" d="M 3597 1894 
L 3597 1613 
L 953 1613 
Q 991 1019 1311 708 
Q 1631 397 2203 397 
Q 2534 397 2845 478 
Q 3156 559 3463 722 
L 3463 178 
Q 3153 47 2828 -22 
Q 2503 -91 2169 -91 
Q 1331 -91 842 396 
Q 353 884 353 1716 
Q 353 2575 817 3079 
Q 1281 3584 2069 3584 
Q 2775 3584 3186 3129 
Q 3597 2675 3597 1894 
z
M 3022 2063 
Q 3016 2534 2758 2815 
Q 2500 3097 2075 3097 
Q 1594 3097 1305 2825 
Q 1016 2553 972 2059 
L 3022 2063 
z
M 2466 5119 
L 3088 5119 
L 2070 3944 
L 1591 3944 
L 2466 5119 
z
" transform="scale(0.015625)"/>
       <path id="DejaVuSans-75" d="M 544 1381 
L 544 3500 
L 1119 3500 
L 1119 1403 
Q 1119 906 1312 657 
Q 1506 409 1894 409 
Q 2359 409 2629 706 
Q 2900 1003 2900 1516 
L 2900 3500 
L 3475 3500 
L 3475 0 
L 2900 0 
L 2900 538 
Q 2691 219 2414 64 
Q 2138 -91 1772 -91 
Q 1169 -91 856 284 
Q 544 659 544 1381 
z
M 1991 3584 
L 1991 3584 
z
" transform="scale(0.015625)"/>
      </defs>
      <use xlink:href="#DejaVuSans-50"/>
      <use xlink:href="#DejaVuSans-6f" x="56.677734"/>
      <use xlink:href="#DejaVuSans-69" x="117.859375"/>
      <use xlink:href="#DejaVuSans-6e" x="145.642578"/>
      <use xlink:href="#DejaVuSans-74" x="209.021484"/>
      <use xlink:href="#DejaVuSans-73" x="248.230469"/>
      <use xlink:href="#DejaVuSans-20" x="300.330078"/>
      <use xlink:href="#DejaVuSans-64" x="332.117188"/>
      <use xlink:href="#DejaVuSans-65" x="395.59375"/>
      <use xlink:href="#DejaVuSans-20" x="457.117188"/>
      <use xlink:href="#DejaVuSans-63" x="488.904297"/>
      <use xlink:href="#DejaVuSans-6f" x="543.884766"/>
      <use xlink:href="#DejaVuSans-6e" x="605.066406"/>
      <use xlink:href="#DejaVuSans-74" x="668.445312"/>
      <use xlink:href="#DejaVuSans-72" x="707.654297"/>
      <use xlink:href="#DejaVuSans-f4" x="746.517578"/>
      <use xlink:href="#DejaVuSans-6c" x="807.699219"/>
      <use xlink:href="#DejaVuSans-65" x="835.482422"/>
      <use xlink:href="#DejaVuSans-20" x="897.005859"/>
      <use xlink:href="#DejaVuSans-64" x="928.792969"/>
      <use xlink:href="#DejaVuSans-e9" x="992.269531"/>
      <use xlink:href="#DejaVuSans-64" x="1053.792969"/>
      <use xlink:href="#DejaVuSans-75" x="1117.269531"/>
      <use xlink:href="#DejaVuSans-69" x="1180.648438"/>
      <use xlink:href="#DejaVuSans-74" x="1208.431641"/>
      <use xlink:href="#DejaVuSans-73" x="1247.640625"/>
     </g>
    </g>
    <g id="line2d_42">
     <path d="M 99 79.616562 
L 109 79.616562 
L 119 79.616562 
" style="fill: none; stroke: #0000ff; stroke-width: 1.5; stroke-linecap: square"/>
    </g>
    <g id="text_18">
     <!-- Spline quadratique -->
     <g transform="translate(127 83.116562) scale(0.1 -0.1)">
      <defs>
       <path id="DejaVuSans-53" d="M 3425 4513 
L 3425 3897 
Q 3066 4069 2747 4153 
Q 2428 4238 2131 4238 
Q 1616 4238 1336 4038 
Q 1056 3838 1056 3469 
Q 1056 3159 1242 3001 
Q 1428 2844 1947 2747 
L 2328 2669 
Q 3034 2534 3370 2195 
Q 3706 1856 3706 1288 
Q 3706 609 3251 259 
Q 2797 -91 1919 -91 
Q 1588 -91 1214 -16 
Q 841 59 441 206 
L 441 856 
Q 825 641 1194 531 
Q 1563 422 1919 422 
Q 2459 422 2753 634 
Q 3047 847 3047 1241 
Q 3047 1584 2836 1778 
Q 2625 1972 2144 2069 
L 1759 2144 
Q 1053 2284 737 2584 
Q 422 2884 422 3419 
Q 422 4038 858 4394 
Q 1294 4750 2059 4750 
Q 2388 4750 2728 4690 
Q 3069 4631 3425 4513 
z
" transform="scale(0.015625)"/>
       <path id="DejaVuSans-70" d="M 1159 525 
L 1159 -1331 
L 581 -1331 
L 581 3500 
L 1159 3500 
L 1159 2969 
Q 1341 3281 1617 3432 
Q 1894 3584 2278 3584 
Q 2916 3584 3314 3078 
Q 3713 2572 3713 1747 
Q 3713 922 3314 415 
Q 2916 -91 2278 -91 
Q 1894 -91 1617 61 
Q 1341 213 1159 525 
z
M 3116 1747 
Q 3116 2381 2855 2742 
Q 2594 3103 2138 3103 
Q 1681 3103 1420 2742 
Q 1159 2381 1159 1747 
Q 1159 1113 1420 752 
Q 1681 391 2138 391 
Q 2594 391 2855 752 
Q 3116 1113 3116 1747 
z
" transform="scale(0.015625)"/>
       <path id="DejaVuSans-71" d="M 947 1747 
Q 947 1113 1208 752 
Q 1469 391 1925 391 
Q 2381 391 2643 752 
Q 2906 1113 2906 1747 
Q 2906 2381 2643 2742 
Q 2381 3103 1925 3103 
Q 1469 3103 1208 2742 
Q 947 2381 947 1747 
z
M 2906 525 
Q 2725 213 2448 61 
Q 2172 -91 1784 -91 
Q 1150 -91 751 415 
Q 353 922 353 1747 
Q 353 2572 751 3078 
Q 1150 3584 1784 3584 
Q 2172 3584 2448 3432 
Q 2725 3281 2906 2969 
L 2906 3500 
L 3481 3500 
L 3481 -1331 
L 2906 -1331 
L 2906 525 
z
" transform="scale(0.015625)"/>
       <path id="DejaVuSans-61" d="M 2194 1759 
Q 1497 1759 1228 1600 
Q 959 1441 959 1056 
Q 959 750 1161 570 
Q 1363 391 1709 391 
Q 2188 391 2477 730 
Q 2766 1069 2766 1631 
L 2766 1759 
L 2194 1759 
z
M 3341 1997 
L 3341 0 
L 2766 0 
L 2766 531 
Q 2569 213 2275 61 
Q 1981 -91 1556 -91 
Q 1019 -91 701 211 
Q 384 513 384 1019 
Q 384 1609 779 1909 
Q 1175 2209 1959 2209 
L 2766 2209 
L 2766 2266 
Q 2766 2663 2505 2880 
Q 2244 3097 1772 3097 
Q 1472 3097 1187 3025 
Q 903 2953 641 2809 
L 641 3341 
Q 956 3463 1253 3523 
Q 1550 3584 1831 3584 
Q 2591 3584 2966 3190 
Q 3341 2797 3341 1997 
z
" transform="scale(0.015625)"/>
      </defs>
      <use xlink:href="#DejaVuSans-53"/>
      <use xlink:href="#DejaVuSans-70" x="63.476562"/>
      <use xlink:href="#DejaVuSans-6c" x="126.953125"/>
      <use xlink:href="#DejaVuSans-69" x="154.736328"/>
      <use xlink:href="#DejaVuSans-6e" x="182.519531"/>
      <use xlink:href="#DejaVuSans-65" x="245.898438"/>
      <use xlink:href="#DejaVuSans-20" x="307.421875"/>
      <use xlink:href="#DejaVuSans-71" x="339.208984"/>
      <use xlink:href="#DejaVuSans-75" x="402.685547"/>
      <use xlink:href="#DejaVuSans-61" x="466.064453"/>
      <use xlink:href="#DejaVuSans-64" x="527.34375"/>
      <use xlink:href="#DejaVuSans-72" x="590.820312"/>
      <use xlink:href="#DejaVuSans-61" x="631.933594"/>
      <use xlink:href="#DejaVuSans-74" x="693.212891"/>
      <use xlink:href="#DejaVuSans-69" x="732.421875"/>
      <use xlink:href="#DejaVuSans-71" x="760.205078"/>
      <use xlink:href="#DejaVuSans-75" x="823.681641"/>
      <use xlink:href="#DejaVuSans-65" x="887.060547"/>
     </g>
    </g>
    <g id="PathCollection_15">
     <g>
      <use xlink:href="#m98c1f0d266" x="109" y="95.169687" style="fill: #ff0000; stroke: #ff0000"/>
     </g>
    </g>
    <g id="text_19">
     <!-- Nœuds -->
     <g transform="translate(127 97.794687) scale(0.1 -0.1)">
      <defs>
       <path id="DejaVuSans-4e" d="M 628 4666 
L 1478 4666 
L 3547 763 
L 3547 4666 
L 4159 4666 
L 4159 0 
L 3309 0 
L 1241 3903 
L 1241 0 
L 628 0 
L 628 4666 
z
" transform="scale(0.015625)"/>
       <path id="DejaVuSans-153" d="M 5631 2063 
Q 5625 2538 5369 2817 
Q 5113 3097 4684 3097 
Q 4206 3097 3917 2825 
Q 3628 2553 3584 2059 
L 5631 2063 
z
M 6209 1894 
L 6209 1613 
L 3566 1613 
Q 3603 1019 3922 708 
Q 4241 397 4813 397 
Q 5144 397 5456 478 
Q 5769 559 6075 722 
L 6075 178 
Q 5763 47 5438 -22 
Q 5113 -91 4781 -91 
Q 4281 -91 3903 81 
Q 3525 253 3272 594 
Q 3050 250 2723 79 
Q 2397 -91 1959 -91 
Q 1206 -91 779 398 
Q 353 888 353 1747 
Q 353 2609 779 3096 
Q 1206 3584 1959 3584 
Q 2397 3584 2726 3411 
Q 3056 3238 3263 2900 
Q 3506 3234 3868 3409 
Q 4231 3584 4678 3584 
Q 5384 3584 5796 3129 
Q 6209 2675 6209 1894 
z
M 1959 3097 
Q 1497 3097 1228 2736 
Q 959 2375 959 1747 
Q 959 1119 1226 758 
Q 1494 397 1959 397 
Q 2419 397 2687 759 
Q 2956 1122 2956 1747 
Q 2956 2369 2687 2733 
Q 2419 3097 1959 3097 
z
" transform="scale(0.015625)"/>
      </defs>
      <use xlink:href="#DejaVuSans-4e"/>
      <use xlink:href="#DejaVuSans-153" x="74.804688"/>
      <use xlink:href="#DejaVuSans-75" x="177.099609"/>
      <use xlink:href="#DejaVuSans-64" x="240.478516"/>
      <use xlink:href="#DejaVuSans-73" x="303.955078"/>
     </g>
    </g>
    <g id="PathCollection_16">
     <g>
      <use xlink:href="#mf45f32cf4e" x="109" y="109.969687" style="stroke: #000000"/>
     </g>
    </g>
    <g id="text_20">
     <!-- Point de contrôle initial choisi ($Q_{0}$) -->
     <g transform="translate(127 112.594687) scale(0.1 -0.1)">
      <defs>
       <path id="DejaVuSans-68" d="M 3513 2113 
L 3513 0 
L 2938 0 
L 2938 2094 
Q 2938 2591 2744 2837 
Q 2550 3084 2163 3084 
Q 1697 3084 1428 2787 
Q 1159 2491 1159 1978 
L 1159 0 
L 581 0 
L 581 4863 
L 1159 4863 
L 1159 2956 
Q 1366 3272 1645 3428 
Q 1925 3584 2291 3584 
Q 2894 3584 3203 3211 
Q 3513 2838 3513 2113 
z
" transform="scale(0.015625)"/>
       <path id="DejaVuSans-28" d="M 1984 4856 
Q 1566 4138 1362 3434 
Q 1159 2731 1159 2009 
Q 1159 1288 1364 580 
Q 1569 -128 1984 -844 
L 1484 -844 
Q 1016 -109 783 600 
Q 550 1309 550 2009 
Q 550 2706 781 3412 
Q 1013 4119 1484 4856 
L 1984 4856 
z
" transform="scale(0.015625)"/>
       <path id="DejaVuSans-Oblique-51" d="M 2309 -84 
Q 2275 -88 2237 -89 
Q 2200 -91 2125 -91 
Q 1250 -91 756 411 
Q 263 913 263 1797 
Q 263 2319 452 2844 
Q 641 3369 978 3788 
Q 1369 4269 1858 4509 
Q 2347 4750 2938 4750 
Q 3794 4750 4287 4245 
Q 4781 3741 4781 2869 
Q 4781 1928 4265 1147 
Q 3750 366 2919 44 
L 3553 -825 
L 2847 -825 
L 2309 -84 
z
M 2919 4238 
Q 2400 4238 2003 3986 
Q 1606 3734 1313 3219 
Q 1125 2891 1026 2522 
Q 928 2153 928 1778 
Q 928 1128 1239 775 
Q 1550 422 2119 422 
Q 2631 422 3032 676 
Q 3434 931 3719 1434 
Q 3909 1772 4009 2142 
Q 4109 2513 4109 2881 
Q 4109 3528 3796 3883 
Q 3484 4238 2919 4238 
z
" transform="scale(0.015625)"/>
       <path id="DejaVuSans-29" d="M 513 4856 
L 1013 4856 
Q 1481 4119 1714 3412 
Q 1947 2706 1947 2009 
Q 1947 1309 1714 600 
Q 1481 -109 1013 -844 
L 513 -844 
Q 928 -128 1133 580 
Q 1338 1288 1338 2009 
Q 1338 2731 1133 3434 
Q 928 4138 513 4856 
z
" transform="scale(0.015625)"/>
      </defs>
      <use xlink:href="#DejaVuSans-50" transform="translate(0 0.015625)"/>
      <use xlink:href="#DejaVuSans-6f" transform="translate(60.302734 0.015625)"/>
      <use xlink:href="#DejaVuSans-69" transform="translate(121.484375 0.015625)"/>
      <use xlink:href="#DejaVuSans-6e" transform="translate(149.267578 0.015625)"/>
      <use xlink:href="#DejaVuSans-74" transform="translate(212.646484 0.015625)"/>
      <use xlink:href="#DejaVuSans-20" transform="translate(251.855469 0.015625)"/>
      <use xlink:href="#DejaVuSans-64" transform="translate(283.642578 0.015625)"/>
      <use xlink:href="#DejaVuSans-65" transform="translate(347.119141 0.015625)"/>
      <use xlink:href="#DejaVuSans-20" transform="translate(408.642578 0.015625)"/>
      <use xlink:href="#DejaVuSans-63" transform="translate(440.429688 0.015625)"/>
      <use xlink:href="#DejaVuSans-6f" transform="translate(495.410156 0.015625)"/>
      <use xlink:href="#DejaVuSans-6e" transform="translate(556.591797 0.015625)"/>
      <use xlink:href="#DejaVuSans-74" transform="translate(619.970703 0.015625)"/>
      <use xlink:href="#DejaVuSans-72" transform="translate(659.179688 0.015625)"/>
      <use xlink:href="#DejaVuSans-f4" transform="translate(700.292969 0.015625)"/>
      <use xlink:href="#DejaVuSans-6c" transform="translate(761.474609 0.015625)"/>
      <use xlink:href="#DejaVuSans-65" transform="translate(789.257812 0.015625)"/>
      <use xlink:href="#DejaVuSans-20" transform="translate(850.78125 0.015625)"/>
      <use xlink:href="#DejaVuSans-69" transform="translate(882.568359 0.015625)"/>
      <use xlink:href="#DejaVuSans-6e" transform="translate(910.351562 0.015625)"/>
      <use xlink:href="#DejaVuSans-69" transform="translate(973.730469 0.015625)"/>
      <use xlink:href="#DejaVuSans-74" transform="translate(1001.513672 0.015625)"/>
      <use xlink:href="#DejaVuSans-69" transform="translate(1040.722656 0.015625)"/>
      <use xlink:href="#DejaVuSans-61" transform="translate(1068.505859 0.015625)"/>
      <use xlink:href="#DejaVuSans-6c" transform="translate(1129.785156 0.015625)"/>
      <use xlink:href="#DejaVuSans-20" transform="translate(1157.568359 0.015625)"/>
      <use xlink:href="#DejaVuSans-63" transform="translate(1189.355469 0.015625)"/>
      <use xlink:href="#DejaVuSans-68" transform="translate(1244.335938 0.015625)"/>
      <use xlink:href="#DejaVuSans-6f" transform="translate(1307.714844 0.015625)"/>
      <use xlink:href="#DejaVuSans-69" transform="translate(1368.896484 0.015625)"/>
      <use xlink:href="#DejaVuSans-73" transform="translate(1396.679688 0.015625)"/>
      <use xlink:href="#DejaVuSans-69" transform="translate(1448.779297 0.015625)"/>
      <use xlink:href="#DejaVuSans-20" transform="translate(1476.5625 0.015625)"/>
      <use xlink:href="#DejaVuSans-28" transform="translate(1508.349609 0.015625)"/>
      <use xlink:href="#DejaVuSans-Oblique-51" transform="translate(1547.363281 0.015625)"/>
      <use xlink:href="#DejaVuSans-30" transform="translate(1626.074219 -16.390625) scale(0.7)"/>
      <use xlink:href="#DejaVuSans-29" transform="translate(1673.344727 0.015625)"/>
     </g>
    </g>
   </g>
  </g>
 </g>
 <defs>
  <clipPath id="pb3964e2fe1">
   <rect x="90" y="51.84" width="558" height="332.64"/>
  </clipPath>
 </defs>
</svg>
