<?xml version="1.0" encoding="utf-8" standalone="no"?>
<!DOCTYPE svg PUBLIC "-//W3C//DTD SVG 1.1//EN"
  "http://www.w3.org/Graphics/SVG/1.1/DTD/svg11.dtd">
<svg xmlns:xlink="http://www.w3.org/1999/xlink" width="864pt" height="432pt" viewBox="0 0 864 432" xmlns="http://www.w3.org/2000/svg" version="1.1">
 <metadata>
  <rdf:RDF xmlns:dc="http://purl.org/dc/elements/1.1/" xmlns:cc="http://creativecommons.org/ns#" xmlns:rdf="http://www.w3.org/1999/02/22-rdf-syntax-ns#">
   <cc:Work>
    <dc:type rdf:resource="http://purl.org/dc/dcmitype/StillImage"/>
    <dc:date>2024-11-02T15:52:54.370329</dc:date>
    <dc:format>image/svg+xml</dc:format>
    <dc:creator>
     <cc:Agent>
      <dc:title>Matplotlib v3.9.2, https://matplotlib.org/</dc:title>
     </cc:Agent>
    </dc:creator>
   </cc:Work>
  </rdf:RDF>
 </metadata>
 <defs>
  <style type="text/css">*{stroke-linejoin: round; stroke-linecap: butt}</style>
 </defs>
 <g id="figure_1">
  <g id="patch_1">
   <path d="M 0 432 
L 864 432 
L 864 0 
L 0 0 
z
" style="fill: #ffffff"/>
  </g>
  <g id="axes_1">
   <g id="patch_2">
    <path d="M 108 384.48 
L 777.6 384.48 
L 777.6 51.84 
L 108 51.84 
z
" style="fill: #ffffff"/>
   </g>
   <g id="matplotlib.axis_1">
    <g id="xtick_1">
     <g id="line2d_1">
      <path d="M 138.436364 384.48 
L 138.436364 51.84 
" clip-path="url(#p4b02c3bd2e)" style="fill: none; stroke: #b0b0b0; stroke-width: 0.8; stroke-linecap: square"/>
     </g>
     <g id="line2d_2">
      <defs>
       <path id="m8cb3c090a2" d="M 0 0 
L 0 3.5 
" style="stroke: #000000; stroke-width: 0.8"/>
      </defs>
      <g>
       <use xlink:href="#m8cb3c090a2" x="138.436364" y="384.48" style="stroke: #000000; stroke-width: 0.8"/>
      </g>
     </g>
     <g id="text_1">
      <!-- −1.00 -->
      <g transform="translate(123.113707 399.078438) scale(0.1 -0.1)">
       <defs>
        <path id="DejaVuSans-2212" d="M 678 2272 
L 4684 2272 
L 4684 1741 
L 678 1741 
L 678 2272 
z
" transform="scale(0.015625)"/>
        <path id="DejaVuSans-31" d="M 794 531 
L 1825 531 
L 1825 4091 
L 703 3866 
L 703 4441 
L 1819 4666 
L 2450 4666 
L 2450 531 
L 3481 531 
L 3481 0 
L 794 0 
L 794 531 
z
" transform="scale(0.015625)"/>
        <path id="DejaVuSans-2e" d="M 684 794 
L 1344 794 
L 1344 0 
L 684 0 
L 684 794 
z
" transform="scale(0.015625)"/>
        <path id="DejaVuSans-30" d="M 2034 4250 
Q 1547 4250 1301 3770 
Q 1056 3291 1056 2328 
Q 1056 1369 1301 889 
Q 1547 409 2034 409 
Q 2525 409 2770 889 
Q 3016 1369 3016 2328 
Q 3016 3291 2770 3770 
Q 2525 4250 2034 4250 
z
M 2034 4750 
Q 2819 4750 3233 4129 
Q 3647 3509 3647 2328 
Q 3647 1150 3233 529 
Q 2819 -91 2034 -91 
Q 1250 -91 836 529 
Q 422 1150 422 2328 
Q 422 3509 836 4129 
Q 1250 4750 2034 4750 
z
" transform="scale(0.015625)"/>
       </defs>
       <use xlink:href="#DejaVuSans-2212"/>
       <use xlink:href="#DejaVuSans-31" x="83.789062"/>
       <use xlink:href="#DejaVuSans-2e" x="147.412109"/>
       <use xlink:href="#DejaVuSans-30" x="179.199219"/>
       <use xlink:href="#DejaVuSans-30" x="242.822266"/>
      </g>
     </g>
    </g>
    <g id="xtick_2">
     <g id="line2d_3">
      <path d="M 214.527273 384.48 
L 214.527273 51.84 
" clip-path="url(#p4b02c3bd2e)" style="fill: none; stroke: #b0b0b0; stroke-width: 0.8; stroke-linecap: square"/>
     </g>
     <g id="line2d_4">
      <g>
       <use xlink:href="#m8cb3c090a2" x="214.527273" y="384.48" style="stroke: #000000; stroke-width: 0.8"/>
      </g>
     </g>
     <g id="text_2">
      <!-- −0.75 -->
      <g transform="translate(199.204616 399.078438) scale(0.1 -0.1)">
       <defs>
        <path id="DejaVuSans-37" d="M 525 4666 
L 3525 4666 
L 3525 4397 
L 1831 0 
L 1172 0 
L 2766 4134 
L 525 4134 
L 525 4666 
z
" transform="scale(0.015625)"/>
        <path id="DejaVuSans-35" d="M 691 4666 
L 3169 4666 
L 3169 4134 
L 1269 4134 
L 1269 2991 
Q 1406 3038 1543 3061 
Q 1681 3084 1819 3084 
Q 2600 3084 3056 2656 
Q 3513 2228 3513 1497 
Q 3513 744 3044 326 
Q 2575 -91 1722 -91 
Q 1428 -91 1123 -41 
Q 819 9 494 109 
L 494 744 
Q 775 591 1075 516 
Q 1375 441 1709 441 
Q 2250 441 2565 725 
Q 2881 1009 2881 1497 
Q 2881 1984 2565 2268 
Q 2250 2553 1709 2553 
Q 1456 2553 1204 2497 
Q 953 2441 691 2322 
L 691 4666 
z
" transform="scale(0.015625)"/>
       </defs>
       <use xlink:href="#DejaVuSans-2212"/>
       <use xlink:href="#DejaVuSans-30" x="83.789062"/>
       <use xlink:href="#DejaVuSans-2e" x="147.412109"/>
       <use xlink:href="#DejaVuSans-37" x="179.199219"/>
       <use xlink:href="#DejaVuSans-35" x="242.822266"/>
      </g>
     </g>
    </g>
    <g id="xtick_3">
     <g id="line2d_5">
      <path d="M 290.618182 384.48 
L 290.618182 51.84 
" clip-path="url(#p4b02c3bd2e)" style="fill: none; stroke: #b0b0b0; stroke-width: 0.8; stroke-linecap: square"/>
     </g>
     <g id="line2d_6">
      <g>
       <use xlink:href="#m8cb3c090a2" x="290.618182" y="384.48" style="stroke: #000000; stroke-width: 0.8"/>
      </g>
     </g>
     <g id="text_3">
      <!-- −0.50 -->
      <g transform="translate(275.295526 399.078438) scale(0.1 -0.1)">
       <use xlink:href="#DejaVuSans-2212"/>
       <use xlink:href="#DejaVuSans-30" x="83.789062"/>
       <use xlink:href="#DejaVuSans-2e" x="147.412109"/>
       <use xlink:href="#DejaVuSans-35" x="179.199219"/>
       <use xlink:href="#DejaVuSans-30" x="242.822266"/>
      </g>
     </g>
    </g>
    <g id="xtick_4">
     <g id="line2d_7">
      <path d="M 366.709091 384.48 
L 366.709091 51.84 
" clip-path="url(#p4b02c3bd2e)" style="fill: none; stroke: #b0b0b0; stroke-width: 0.8; stroke-linecap: square"/>
     </g>
     <g id="line2d_8">
      <g>
       <use xlink:href="#m8cb3c090a2" x="366.709091" y="384.48" style="stroke: #000000; stroke-width: 0.8"/>
      </g>
     </g>
     <g id="text_4">
      <!-- −0.25 -->
      <g transform="translate(351.386435 399.078438) scale(0.1 -0.1)">
       <defs>
        <path id="DejaVuSans-32" d="M 1228 531 
L 3431 531 
L 3431 0 
L 469 0 
L 469 531 
Q 828 903 1448 1529 
Q 2069 2156 2228 2338 
Q 2531 2678 2651 2914 
Q 2772 3150 2772 3378 
Q 2772 3750 2511 3984 
Q 2250 4219 1831 4219 
Q 1534 4219 1204 4116 
Q 875 4013 500 3803 
L 500 4441 
Q 881 4594 1212 4672 
Q 1544 4750 1819 4750 
Q 2544 4750 2975 4387 
Q 3406 4025 3406 3419 
Q 3406 3131 3298 2873 
Q 3191 2616 2906 2266 
Q 2828 2175 2409 1742 
Q 1991 1309 1228 531 
z
" transform="scale(0.015625)"/>
       </defs>
       <use xlink:href="#DejaVuSans-2212"/>
       <use xlink:href="#DejaVuSans-30" x="83.789062"/>
       <use xlink:href="#DejaVuSans-2e" x="147.412109"/>
       <use xlink:href="#DejaVuSans-32" x="179.199219"/>
       <use xlink:href="#DejaVuSans-35" x="242.822266"/>
      </g>
     </g>
    </g>
    <g id="xtick_5">
     <g id="line2d_9">
      <path d="M 442.8 384.48 
L 442.8 51.84 
" clip-path="url(#p4b02c3bd2e)" style="fill: none; stroke: #b0b0b0; stroke-width: 0.8; stroke-linecap: square"/>
     </g>
     <g id="line2d_10">
      <g>
       <use xlink:href="#m8cb3c090a2" x="442.8" y="384.48" style="stroke: #000000; stroke-width: 0.8"/>
      </g>
     </g>
     <g id="text_5">
      <!-- 0.00 -->
      <g transform="translate(431.667188 399.078438) scale(0.1 -0.1)">
       <use xlink:href="#DejaVuSans-30"/>
       <use xlink:href="#DejaVuSans-2e" x="63.623047"/>
       <use xlink:href="#DejaVuSans-30" x="95.410156"/>
       <use xlink:href="#DejaVuSans-30" x="159.033203"/>
      </g>
     </g>
    </g>
    <g id="xtick_6">
     <g id="line2d_11">
      <path d="M 518.890909 384.48 
L 518.890909 51.84 
" clip-path="url(#p4b02c3bd2e)" style="fill: none; stroke: #b0b0b0; stroke-width: 0.8; stroke-linecap: square"/>
     </g>
     <g id="line2d_12">
      <g>
       <use xlink:href="#m8cb3c090a2" x="518.890909" y="384.48" style="stroke: #000000; stroke-width: 0.8"/>
      </g>
     </g>
     <g id="text_6">
      <!-- 0.25 -->
      <g transform="translate(507.758097 399.078438) scale(0.1 -0.1)">
       <use xlink:href="#DejaVuSans-30"/>
       <use xlink:href="#DejaVuSans-2e" x="63.623047"/>
       <use xlink:href="#DejaVuSans-32" x="95.410156"/>
       <use xlink:href="#DejaVuSans-35" x="159.033203"/>
      </g>
     </g>
    </g>
    <g id="xtick_7">
     <g id="line2d_13">
      <path d="M 594.981818 384.48 
L 594.981818 51.84 
" clip-path="url(#p4b02c3bd2e)" style="fill: none; stroke: #b0b0b0; stroke-width: 0.8; stroke-linecap: square"/>
     </g>
     <g id="line2d_14">
      <g>
       <use xlink:href="#m8cb3c090a2" x="594.981818" y="384.48" style="stroke: #000000; stroke-width: 0.8"/>
      </g>
     </g>
     <g id="text_7">
      <!-- 0.50 -->
      <g transform="translate(583.849006 399.078438) scale(0.1 -0.1)">
       <use xlink:href="#DejaVuSans-30"/>
       <use xlink:href="#DejaVuSans-2e" x="63.623047"/>
       <use xlink:href="#DejaVuSans-35" x="95.410156"/>
       <use xlink:href="#DejaVuSans-30" x="159.033203"/>
      </g>
     </g>
    </g>
    <g id="xtick_8">
     <g id="line2d_15">
      <path d="M 671.072727 384.48 
L 671.072727 51.84 
" clip-path="url(#p4b02c3bd2e)" style="fill: none; stroke: #b0b0b0; stroke-width: 0.8; stroke-linecap: square"/>
     </g>
     <g id="line2d_16">
      <g>
       <use xlink:href="#m8cb3c090a2" x="671.072727" y="384.48" style="stroke: #000000; stroke-width: 0.8"/>
      </g>
     </g>
     <g id="text_8">
      <!-- 0.75 -->
      <g transform="translate(659.939915 399.078438) scale(0.1 -0.1)">
       <use xlink:href="#DejaVuSans-30"/>
       <use xlink:href="#DejaVuSans-2e" x="63.623047"/>
       <use xlink:href="#DejaVuSans-37" x="95.410156"/>
       <use xlink:href="#DejaVuSans-35" x="159.033203"/>
      </g>
     </g>
    </g>
    <g id="xtick_9">
     <g id="line2d_17">
      <path d="M 747.163636 384.48 
L 747.163636 51.84 
" clip-path="url(#p4b02c3bd2e)" style="fill: none; stroke: #b0b0b0; stroke-width: 0.8; stroke-linecap: square"/>
     </g>
     <g id="line2d_18">
      <g>
       <use xlink:href="#m8cb3c090a2" x="747.163636" y="384.48" style="stroke: #000000; stroke-width: 0.8"/>
      </g>
     </g>
     <g id="text_9">
      <!-- 1.00 -->
      <g transform="translate(736.030824 399.078438) scale(0.1 -0.1)">
       <use xlink:href="#DejaVuSans-31"/>
       <use xlink:href="#DejaVuSans-2e" x="63.623047"/>
       <use xlink:href="#DejaVuSans-30" x="95.410156"/>
       <use xlink:href="#DejaVuSans-30" x="159.033203"/>
      </g>
     </g>
    </g>
    <g id="text_10">
     <!-- x -->
     <g transform="translate(439.840625 412.756563) scale(0.1 -0.1)">
      <defs>
       <path id="DejaVuSans-78" d="M 3513 3500 
L 2247 1797 
L 3578 0 
L 2900 0 
L 1881 1375 
L 863 0 
L 184 0 
L 1544 1831 
L 300 3500 
L 978 3500 
L 1906 2253 
L 2834 3500 
L 3513 3500 
z
" transform="scale(0.015625)"/>
      </defs>
      <use xlink:href="#DejaVuSans-78"/>
     </g>
    </g>
   </g>
   <g id="matplotlib.axis_2">
    <g id="ytick_1">
     <g id="line2d_19">
      <path d="M 108 354.899681 
L 777.6 354.899681 
" clip-path="url(#p4b02c3bd2e)" style="fill: none; stroke: #b0b0b0; stroke-width: 0.8; stroke-linecap: square"/>
     </g>
     <g id="line2d_20">
      <defs>
       <path id="mebe9cb459e" d="M 0 0 
L -3.5 0 
" style="stroke: #000000; stroke-width: 0.8"/>
      </defs>
      <g>
       <use xlink:href="#mebe9cb459e" x="108" y="354.899681" style="stroke: #000000; stroke-width: 0.8"/>
      </g>
     </g>
     <g id="text_11">
      <!-- $\mathdefault{10^{-3}}$ -->
      <g transform="translate(77.5 358.698899) scale(0.1 -0.1)">
       <defs>
        <path id="DejaVuSans-33" d="M 2597 2516 
Q 3050 2419 3304 2112 
Q 3559 1806 3559 1356 
Q 3559 666 3084 287 
Q 2609 -91 1734 -91 
Q 1441 -91 1130 -33 
Q 819 25 488 141 
L 488 750 
Q 750 597 1062 519 
Q 1375 441 1716 441 
Q 2309 441 2620 675 
Q 2931 909 2931 1356 
Q 2931 1769 2642 2001 
Q 2353 2234 1838 2234 
L 1294 2234 
L 1294 2753 
L 1863 2753 
Q 2328 2753 2575 2939 
Q 2822 3125 2822 3475 
Q 2822 3834 2567 4026 
Q 2313 4219 1838 4219 
Q 1578 4219 1281 4162 
Q 984 4106 628 3988 
L 628 4550 
Q 988 4650 1302 4700 
Q 1616 4750 1894 4750 
Q 2613 4750 3031 4423 
Q 3450 4097 3450 3541 
Q 3450 3153 3228 2886 
Q 3006 2619 2597 2516 
z
" transform="scale(0.015625)"/>
       </defs>
       <use xlink:href="#DejaVuSans-31" transform="translate(0 0.765625)"/>
       <use xlink:href="#DejaVuSans-30" transform="translate(63.623047 0.765625)"/>
       <use xlink:href="#DejaVuSans-2212" transform="translate(128.203125 39.046875) scale(0.7)"/>
       <use xlink:href="#DejaVuSans-33" transform="translate(186.855469 39.046875) scale(0.7)"/>
      </g>
     </g>
    </g>
    <g id="ytick_2">
     <g id="line2d_21">
      <path d="M 108 310.815611 
L 777.6 310.815611 
" clip-path="url(#p4b02c3bd2e)" style="fill: none; stroke: #b0b0b0; stroke-width: 0.8; stroke-linecap: square"/>
     </g>
     <g id="line2d_22">
      <g>
       <use xlink:href="#mebe9cb459e" x="108" y="310.815611" style="stroke: #000000; stroke-width: 0.8"/>
      </g>
     </g>
     <g id="text_12">
      <!-- $\mathdefault{10^{-2}}$ -->
      <g transform="translate(77.5 314.61483) scale(0.1 -0.1)">
       <use xlink:href="#DejaVuSans-31" transform="translate(0 0.765625)"/>
       <use xlink:href="#DejaVuSans-30" transform="translate(63.623047 0.765625)"/>
       <use xlink:href="#DejaVuSans-2212" transform="translate(128.203125 39.046875) scale(0.7)"/>
       <use xlink:href="#DejaVuSans-32" transform="translate(186.855469 39.046875) scale(0.7)"/>
      </g>
     </g>
    </g>
    <g id="ytick_3">
     <g id="line2d_23">
      <path d="M 108 266.731541 
L 777.6 266.731541 
" clip-path="url(#p4b02c3bd2e)" style="fill: none; stroke: #b0b0b0; stroke-width: 0.8; stroke-linecap: square"/>
     </g>
     <g id="line2d_24">
      <g>
       <use xlink:href="#mebe9cb459e" x="108" y="266.731541" style="stroke: #000000; stroke-width: 0.8"/>
      </g>
     </g>
     <g id="text_13">
      <!-- $\mathdefault{10^{-1}}$ -->
      <g transform="translate(77.5 270.53076) scale(0.1 -0.1)">
       <use xlink:href="#DejaVuSans-31" transform="translate(0 0.684375)"/>
       <use xlink:href="#DejaVuSans-30" transform="translate(63.623047 0.684375)"/>
       <use xlink:href="#DejaVuSans-2212" transform="translate(128.203125 38.965625) scale(0.7)"/>
       <use xlink:href="#DejaVuSans-31" transform="translate(186.855469 38.965625) scale(0.7)"/>
      </g>
     </g>
    </g>
    <g id="ytick_4">
     <g id="line2d_25">
      <path d="M 108 222.647472 
L 777.6 222.647472 
" clip-path="url(#p4b02c3bd2e)" style="fill: none; stroke: #b0b0b0; stroke-width: 0.8; stroke-linecap: square"/>
     </g>
     <g id="line2d_26">
      <g>
       <use xlink:href="#mebe9cb459e" x="108" y="222.647472" style="stroke: #000000; stroke-width: 0.8"/>
      </g>
     </g>
     <g id="text_14">
      <!-- $\mathdefault{10^{0}}$ -->
      <g transform="translate(83.4 226.446691) scale(0.1 -0.1)">
       <use xlink:href="#DejaVuSans-31" transform="translate(0 0.765625)"/>
       <use xlink:href="#DejaVuSans-30" transform="translate(63.623047 0.765625)"/>
       <use xlink:href="#DejaVuSans-30" transform="translate(128.203125 39.046875) scale(0.7)"/>
      </g>
     </g>
    </g>
    <g id="ytick_5">
     <g id="line2d_27">
      <path d="M 108 178.563402 
L 777.6 178.563402 
" clip-path="url(#p4b02c3bd2e)" style="fill: none; stroke: #b0b0b0; stroke-width: 0.8; stroke-linecap: square"/>
     </g>
     <g id="line2d_28">
      <g>
       <use xlink:href="#mebe9cb459e" x="108" y="178.563402" style="stroke: #000000; stroke-width: 0.8"/>
      </g>
     </g>
     <g id="text_15">
      <!-- $\mathdefault{10^{1}}$ -->
      <g transform="translate(83.4 182.362621) scale(0.1 -0.1)">
       <use xlink:href="#DejaVuSans-31" transform="translate(0 0.684375)"/>
       <use xlink:href="#DejaVuSans-30" transform="translate(63.623047 0.684375)"/>
       <use xlink:href="#DejaVuSans-31" transform="translate(128.203125 38.965625) scale(0.7)"/>
      </g>
     </g>
    </g>
    <g id="ytick_6">
     <g id="line2d_29">
      <path d="M 108 134.479333 
L 777.6 134.479333 
" clip-path="url(#p4b02c3bd2e)" style="fill: none; stroke: #b0b0b0; stroke-width: 0.8; stroke-linecap: square"/>
     </g>
     <g id="line2d_30">
      <g>
       <use xlink:href="#mebe9cb459e" x="108" y="134.479333" style="stroke: #000000; stroke-width: 0.8"/>
      </g>
     </g>
     <g id="text_16">
      <!-- $\mathdefault{10^{2}}$ -->
      <g transform="translate(83.4 138.278551) scale(0.1 -0.1)">
       <use xlink:href="#DejaVuSans-31" transform="translate(0 0.765625)"/>
       <use xlink:href="#DejaVuSans-30" transform="translate(63.623047 0.765625)"/>
       <use xlink:href="#DejaVuSans-32" transform="translate(128.203125 39.046875) scale(0.7)"/>
      </g>
     </g>
    </g>
    <g id="ytick_7">
     <g id="line2d_31">
      <path d="M 108 90.395263 
L 777.6 90.395263 
" clip-path="url(#p4b02c3bd2e)" style="fill: none; stroke: #b0b0b0; stroke-width: 0.8; stroke-linecap: square"/>
     </g>
     <g id="line2d_32">
      <g>
       <use xlink:href="#mebe9cb459e" x="108" y="90.395263" style="stroke: #000000; stroke-width: 0.8"/>
      </g>
     </g>
     <g id="text_17">
      <!-- $\mathdefault{10^{3}}$ -->
      <g transform="translate(83.4 94.194482) scale(0.1 -0.1)">
       <use xlink:href="#DejaVuSans-31" transform="translate(0 0.765625)"/>
       <use xlink:href="#DejaVuSans-30" transform="translate(63.623047 0.765625)"/>
       <use xlink:href="#DejaVuSans-33" transform="translate(128.203125 39.046875) scale(0.7)"/>
      </g>
     </g>
    </g>
    <g id="ytick_8">
     <g id="line2d_33">
      <defs>
       <path id="me3cbc6088e" d="M 0 0 
L -2 0 
" style="stroke: #000000; stroke-width: 0.6"/>
      </defs>
      <g>
       <use xlink:href="#me3cbc6088e" x="108" y="377.950304" style="stroke: #000000; stroke-width: 0.6"/>
      </g>
     </g>
    </g>
    <g id="ytick_9">
     <g id="line2d_34">
      <g>
       <use xlink:href="#me3cbc6088e" x="108" y="372.442496" style="stroke: #000000; stroke-width: 0.6"/>
      </g>
     </g>
    </g>
    <g id="ytick_10">
     <g id="line2d_35">
      <g>
       <use xlink:href="#me3cbc6088e" x="108" y="368.170308" style="stroke: #000000; stroke-width: 0.6"/>
      </g>
     </g>
    </g>
    <g id="ytick_11">
     <g id="line2d_36">
      <g>
       <use xlink:href="#me3cbc6088e" x="108" y="364.679676" style="stroke: #000000; stroke-width: 0.6"/>
      </g>
     </g>
    </g>
    <g id="ytick_12">
     <g id="line2d_37">
      <g>
       <use xlink:href="#me3cbc6088e" x="108" y="361.728389" style="stroke: #000000; stroke-width: 0.6"/>
      </g>
     </g>
    </g>
    <g id="ytick_13">
     <g id="line2d_38">
      <g>
       <use xlink:href="#me3cbc6088e" x="108" y="359.171868" style="stroke: #000000; stroke-width: 0.6"/>
      </g>
     </g>
    </g>
    <g id="ytick_14">
     <g id="line2d_39">
      <g>
       <use xlink:href="#me3cbc6088e" x="108" y="356.916857" style="stroke: #000000; stroke-width: 0.6"/>
      </g>
     </g>
    </g>
    <g id="ytick_15">
     <g id="line2d_40">
      <g>
       <use xlink:href="#me3cbc6088e" x="108" y="341.629053" style="stroke: #000000; stroke-width: 0.6"/>
      </g>
     </g>
    </g>
    <g id="ytick_16">
     <g id="line2d_41">
      <g>
       <use xlink:href="#me3cbc6088e" x="108" y="333.866234" style="stroke: #000000; stroke-width: 0.6"/>
      </g>
     </g>
    </g>
    <g id="ytick_17">
     <g id="line2d_42">
      <g>
       <use xlink:href="#me3cbc6088e" x="108" y="328.358426" style="stroke: #000000; stroke-width: 0.6"/>
      </g>
     </g>
    </g>
    <g id="ytick_18">
     <g id="line2d_43">
      <g>
       <use xlink:href="#me3cbc6088e" x="108" y="324.086238" style="stroke: #000000; stroke-width: 0.6"/>
      </g>
     </g>
    </g>
    <g id="ytick_19">
     <g id="line2d_44">
      <g>
       <use xlink:href="#me3cbc6088e" x="108" y="320.595607" style="stroke: #000000; stroke-width: 0.6"/>
      </g>
     </g>
    </g>
    <g id="ytick_20">
     <g id="line2d_45">
      <g>
       <use xlink:href="#me3cbc6088e" x="108" y="317.64432" style="stroke: #000000; stroke-width: 0.6"/>
      </g>
     </g>
    </g>
    <g id="ytick_21">
     <g id="line2d_46">
      <g>
       <use xlink:href="#me3cbc6088e" x="108" y="315.087799" style="stroke: #000000; stroke-width: 0.6"/>
      </g>
     </g>
    </g>
    <g id="ytick_22">
     <g id="line2d_47">
      <g>
       <use xlink:href="#me3cbc6088e" x="108" y="312.832787" style="stroke: #000000; stroke-width: 0.6"/>
      </g>
     </g>
    </g>
    <g id="ytick_23">
     <g id="line2d_48">
      <g>
       <use xlink:href="#me3cbc6088e" x="108" y="297.544984" style="stroke: #000000; stroke-width: 0.6"/>
      </g>
     </g>
    </g>
    <g id="ytick_24">
     <g id="line2d_49">
      <g>
       <use xlink:href="#me3cbc6088e" x="108" y="289.782164" style="stroke: #000000; stroke-width: 0.6"/>
      </g>
     </g>
    </g>
    <g id="ytick_25">
     <g id="line2d_50">
      <g>
       <use xlink:href="#me3cbc6088e" x="108" y="284.274357" style="stroke: #000000; stroke-width: 0.6"/>
      </g>
     </g>
    </g>
    <g id="ytick_26">
     <g id="line2d_51">
      <g>
       <use xlink:href="#me3cbc6088e" x="108" y="280.002169" style="stroke: #000000; stroke-width: 0.6"/>
      </g>
     </g>
    </g>
    <g id="ytick_27">
     <g id="line2d_52">
      <g>
       <use xlink:href="#me3cbc6088e" x="108" y="276.511537" style="stroke: #000000; stroke-width: 0.6"/>
      </g>
     </g>
    </g>
    <g id="ytick_28">
     <g id="line2d_53">
      <g>
       <use xlink:href="#me3cbc6088e" x="108" y="273.56025" style="stroke: #000000; stroke-width: 0.6"/>
      </g>
     </g>
    </g>
    <g id="ytick_29">
     <g id="line2d_54">
      <g>
       <use xlink:href="#me3cbc6088e" x="108" y="271.003729" style="stroke: #000000; stroke-width: 0.6"/>
      </g>
     </g>
    </g>
    <g id="ytick_30">
     <g id="line2d_55">
      <g>
       <use xlink:href="#me3cbc6088e" x="108" y="268.748718" style="stroke: #000000; stroke-width: 0.6"/>
      </g>
     </g>
    </g>
    <g id="ytick_31">
     <g id="line2d_56">
      <g>
       <use xlink:href="#me3cbc6088e" x="108" y="253.460914" style="stroke: #000000; stroke-width: 0.6"/>
      </g>
     </g>
    </g>
    <g id="ytick_32">
     <g id="line2d_57">
      <g>
       <use xlink:href="#me3cbc6088e" x="108" y="245.698095" style="stroke: #000000; stroke-width: 0.6"/>
      </g>
     </g>
    </g>
    <g id="ytick_33">
     <g id="line2d_58">
      <g>
       <use xlink:href="#me3cbc6088e" x="108" y="240.190287" style="stroke: #000000; stroke-width: 0.6"/>
      </g>
     </g>
    </g>
    <g id="ytick_34">
     <g id="line2d_59">
      <g>
       <use xlink:href="#me3cbc6088e" x="108" y="235.918099" style="stroke: #000000; stroke-width: 0.6"/>
      </g>
     </g>
    </g>
    <g id="ytick_35">
     <g id="line2d_60">
      <g>
       <use xlink:href="#me3cbc6088e" x="108" y="232.427468" style="stroke: #000000; stroke-width: 0.6"/>
      </g>
     </g>
    </g>
    <g id="ytick_36">
     <g id="line2d_61">
      <g>
       <use xlink:href="#me3cbc6088e" x="108" y="229.476181" style="stroke: #000000; stroke-width: 0.6"/>
      </g>
     </g>
    </g>
    <g id="ytick_37">
     <g id="line2d_62">
      <g>
       <use xlink:href="#me3cbc6088e" x="108" y="226.91966" style="stroke: #000000; stroke-width: 0.6"/>
      </g>
     </g>
    </g>
    <g id="ytick_38">
     <g id="line2d_63">
      <g>
       <use xlink:href="#me3cbc6088e" x="108" y="224.664648" style="stroke: #000000; stroke-width: 0.6"/>
      </g>
     </g>
    </g>
    <g id="ytick_39">
     <g id="line2d_64">
      <g>
       <use xlink:href="#me3cbc6088e" x="108" y="209.376845" style="stroke: #000000; stroke-width: 0.6"/>
      </g>
     </g>
    </g>
    <g id="ytick_40">
     <g id="line2d_65">
      <g>
       <use xlink:href="#me3cbc6088e" x="108" y="201.614025" style="stroke: #000000; stroke-width: 0.6"/>
      </g>
     </g>
    </g>
    <g id="ytick_41">
     <g id="line2d_66">
      <g>
       <use xlink:href="#me3cbc6088e" x="108" y="196.106217" style="stroke: #000000; stroke-width: 0.6"/>
      </g>
     </g>
    </g>
    <g id="ytick_42">
     <g id="line2d_67">
      <g>
       <use xlink:href="#me3cbc6088e" x="108" y="191.83403" style="stroke: #000000; stroke-width: 0.6"/>
      </g>
     </g>
    </g>
    <g id="ytick_43">
     <g id="line2d_68">
      <g>
       <use xlink:href="#me3cbc6088e" x="108" y="188.343398" style="stroke: #000000; stroke-width: 0.6"/>
      </g>
     </g>
    </g>
    <g id="ytick_44">
     <g id="line2d_69">
      <g>
       <use xlink:href="#me3cbc6088e" x="108" y="185.392111" style="stroke: #000000; stroke-width: 0.6"/>
      </g>
     </g>
    </g>
    <g id="ytick_45">
     <g id="line2d_70">
      <g>
       <use xlink:href="#me3cbc6088e" x="108" y="182.83559" style="stroke: #000000; stroke-width: 0.6"/>
      </g>
     </g>
    </g>
    <g id="ytick_46">
     <g id="line2d_71">
      <g>
       <use xlink:href="#me3cbc6088e" x="108" y="180.580579" style="stroke: #000000; stroke-width: 0.6"/>
      </g>
     </g>
    </g>
    <g id="ytick_47">
     <g id="line2d_72">
      <g>
       <use xlink:href="#me3cbc6088e" x="108" y="165.292775" style="stroke: #000000; stroke-width: 0.6"/>
      </g>
     </g>
    </g>
    <g id="ytick_48">
     <g id="line2d_73">
      <g>
       <use xlink:href="#me3cbc6088e" x="108" y="157.529956" style="stroke: #000000; stroke-width: 0.6"/>
      </g>
     </g>
    </g>
    <g id="ytick_49">
     <g id="line2d_74">
      <g>
       <use xlink:href="#me3cbc6088e" x="108" y="152.022148" style="stroke: #000000; stroke-width: 0.6"/>
      </g>
     </g>
    </g>
    <g id="ytick_50">
     <g id="line2d_75">
      <g>
       <use xlink:href="#me3cbc6088e" x="108" y="147.74996" style="stroke: #000000; stroke-width: 0.6"/>
      </g>
     </g>
    </g>
    <g id="ytick_51">
     <g id="line2d_76">
      <g>
       <use xlink:href="#me3cbc6088e" x="108" y="144.259328" style="stroke: #000000; stroke-width: 0.6"/>
      </g>
     </g>
    </g>
    <g id="ytick_52">
     <g id="line2d_77">
      <g>
       <use xlink:href="#me3cbc6088e" x="108" y="141.308041" style="stroke: #000000; stroke-width: 0.6"/>
      </g>
     </g>
    </g>
    <g id="ytick_53">
     <g id="line2d_78">
      <g>
       <use xlink:href="#me3cbc6088e" x="108" y="138.75152" style="stroke: #000000; stroke-width: 0.6"/>
      </g>
     </g>
    </g>
    <g id="ytick_54">
     <g id="line2d_79">
      <g>
       <use xlink:href="#me3cbc6088e" x="108" y="136.496509" style="stroke: #000000; stroke-width: 0.6"/>
      </g>
     </g>
    </g>
    <g id="ytick_55">
     <g id="line2d_80">
      <g>
       <use xlink:href="#me3cbc6088e" x="108" y="121.208705" style="stroke: #000000; stroke-width: 0.6"/>
      </g>
     </g>
    </g>
    <g id="ytick_56">
     <g id="line2d_81">
      <g>
       <use xlink:href="#me3cbc6088e" x="108" y="113.445886" style="stroke: #000000; stroke-width: 0.6"/>
      </g>
     </g>
    </g>
    <g id="ytick_57">
     <g id="line2d_82">
      <g>
       <use xlink:href="#me3cbc6088e" x="108" y="107.938078" style="stroke: #000000; stroke-width: 0.6"/>
      </g>
     </g>
    </g>
    <g id="ytick_58">
     <g id="line2d_83">
      <g>
       <use xlink:href="#me3cbc6088e" x="108" y="103.66589" style="stroke: #000000; stroke-width: 0.6"/>
      </g>
     </g>
    </g>
    <g id="ytick_59">
     <g id="line2d_84">
      <g>
       <use xlink:href="#me3cbc6088e" x="108" y="100.175259" style="stroke: #000000; stroke-width: 0.6"/>
      </g>
     </g>
    </g>
    <g id="ytick_60">
     <g id="line2d_85">
      <g>
       <use xlink:href="#me3cbc6088e" x="108" y="97.223972" style="stroke: #000000; stroke-width: 0.6"/>
      </g>
     </g>
    </g>
    <g id="ytick_61">
     <g id="line2d_86">
      <g>
       <use xlink:href="#me3cbc6088e" x="108" y="94.667451" style="stroke: #000000; stroke-width: 0.6"/>
      </g>
     </g>
    </g>
    <g id="ytick_62">
     <g id="line2d_87">
      <g>
       <use xlink:href="#me3cbc6088e" x="108" y="92.41244" style="stroke: #000000; stroke-width: 0.6"/>
      </g>
     </g>
    </g>
    <g id="ytick_63">
     <g id="line2d_88">
      <g>
       <use xlink:href="#me3cbc6088e" x="108" y="77.124636" style="stroke: #000000; stroke-width: 0.6"/>
      </g>
     </g>
    </g>
    <g id="ytick_64">
     <g id="line2d_89">
      <g>
       <use xlink:href="#me3cbc6088e" x="108" y="69.361817" style="stroke: #000000; stroke-width: 0.6"/>
      </g>
     </g>
    </g>
    <g id="ytick_65">
     <g id="line2d_90">
      <g>
       <use xlink:href="#me3cbc6088e" x="108" y="63.854009" style="stroke: #000000; stroke-width: 0.6"/>
      </g>
     </g>
    </g>
    <g id="ytick_66">
     <g id="line2d_91">
      <g>
       <use xlink:href="#me3cbc6088e" x="108" y="59.581821" style="stroke: #000000; stroke-width: 0.6"/>
      </g>
     </g>
    </g>
    <g id="ytick_67">
     <g id="line2d_92">
      <g>
       <use xlink:href="#me3cbc6088e" x="108" y="56.091189" style="stroke: #000000; stroke-width: 0.6"/>
      </g>
     </g>
    </g>
    <g id="ytick_68">
     <g id="line2d_93">
      <g>
       <use xlink:href="#me3cbc6088e" x="108" y="53.139902" style="stroke: #000000; stroke-width: 0.6"/>
      </g>
     </g>
    </g>
    <g id="text_18">
     <!-- f(x) (échelle logarithmique) -->
     <g transform="translate(71.420312 286.725625) rotate(-90) scale(0.1 -0.1)">
      <defs>
       <path id="DejaVuSans-66" d="M 2375 4863 
L 2375 4384 
L 1825 4384 
Q 1516 4384 1395 4259 
Q 1275 4134 1275 3809 
L 1275 3500 
L 2222 3500 
L 2222 3053 
L 1275 3053 
L 1275 0 
L 697 0 
L 697 3053 
L 147 3053 
L 147 3500 
L 697 3500 
L 697 3744 
Q 697 4328 969 4595 
Q 1241 4863 1831 4863 
L 2375 4863 
z
" transform="scale(0.015625)"/>
       <path id="DejaVuSans-28" d="M 1984 4856 
Q 1566 4138 1362 3434 
Q 1159 2731 1159 2009 
Q 1159 1288 1364 580 
Q 1569 -128 1984 -844 
L 1484 -844 
Q 1016 -109 783 600 
Q 550 1309 550 2009 
Q 550 2706 781 3412 
Q 1013 4119 1484 4856 
L 1984 4856 
z
" transform="scale(0.015625)"/>
       <path id="DejaVuSans-29" d="M 513 4856 
L 1013 4856 
Q 1481 4119 1714 3412 
Q 1947 2706 1947 2009 
Q 1947 1309 1714 600 
Q 1481 -109 1013 -844 
L 513 -844 
Q 928 -128 1133 580 
Q 1338 1288 1338 2009 
Q 1338 2731 1133 3434 
Q 928 4138 513 4856 
z
" transform="scale(0.015625)"/>
       <path id="DejaVuSans-20" transform="scale(0.015625)"/>
       <path id="DejaVuSans-e9" d="M 3597 1894 
L 3597 1613 
L 953 1613 
Q 991 1019 1311 708 
Q 1631 397 2203 397 
Q 2534 397 2845 478 
Q 3156 559 3463 722 
L 3463 178 
Q 3153 47 2828 -22 
Q 2503 -91 2169 -91 
Q 1331 -91 842 396 
Q 353 884 353 1716 
Q 353 2575 817 3079 
Q 1281 3584 2069 3584 
Q 2775 3584 3186 3129 
Q 3597 2675 3597 1894 
z
M 3022 2063 
Q 3016 2534 2758 2815 
Q 2500 3097 2075 3097 
Q 1594 3097 1305 2825 
Q 1016 2553 972 2059 
L 3022 2063 
z
M 2466 5119 
L 3088 5119 
L 2070 3944 
L 1591 3944 
L 2466 5119 
z
" transform="scale(0.015625)"/>
       <path id="DejaVuSans-63" d="M 3122 3366 
L 3122 2828 
Q 2878 2963 2633 3030 
Q 2388 3097 2138 3097 
Q 1578 3097 1268 2742 
Q 959 2388 959 1747 
Q 959 1106 1268 751 
Q 1578 397 2138 397 
Q 2388 397 2633 464 
Q 2878 531 3122 666 
L 3122 134 
Q 2881 22 2623 -34 
Q 2366 -91 2075 -91 
Q 1284 -91 818 406 
Q 353 903 353 1747 
Q 353 2603 823 3093 
Q 1294 3584 2113 3584 
Q 2378 3584 2631 3529 
Q 2884 3475 3122 3366 
z
" transform="scale(0.015625)"/>
       <path id="DejaVuSans-68" d="M 3513 2113 
L 3513 0 
L 2938 0 
L 2938 2094 
Q 2938 2591 2744 2837 
Q 2550 3084 2163 3084 
Q 1697 3084 1428 2787 
Q 1159 2491 1159 1978 
L 1159 0 
L 581 0 
L 581 4863 
L 1159 4863 
L 1159 2956 
Q 1366 3272 1645 3428 
Q 1925 3584 2291 3584 
Q 2894 3584 3203 3211 
Q 3513 2838 3513 2113 
z
" transform="scale(0.015625)"/>
       <path id="DejaVuSans-65" d="M 3597 1894 
L 3597 1613 
L 953 1613 
Q 991 1019 1311 708 
Q 1631 397 2203 397 
Q 2534 397 2845 478 
Q 3156 559 3463 722 
L 3463 178 
Q 3153 47 2828 -22 
Q 2503 -91 2169 -91 
Q 1331 -91 842 396 
Q 353 884 353 1716 
Q 353 2575 817 3079 
Q 1281 3584 2069 3584 
Q 2775 3584 3186 3129 
Q 3597 2675 3597 1894 
z
M 3022 2063 
Q 3016 2534 2758 2815 
Q 2500 3097 2075 3097 
Q 1594 3097 1305 2825 
Q 1016 2553 972 2059 
L 3022 2063 
z
" transform="scale(0.015625)"/>
       <path id="DejaVuSans-6c" d="M 603 4863 
L 1178 4863 
L 1178 0 
L 603 0 
L 603 4863 
z
" transform="scale(0.015625)"/>
       <path id="DejaVuSans-6f" d="M 1959 3097 
Q 1497 3097 1228 2736 
Q 959 2375 959 1747 
Q 959 1119 1226 758 
Q 1494 397 1959 397 
Q 2419 397 2687 759 
Q 2956 1122 2956 1747 
Q 2956 2369 2687 2733 
Q 2419 3097 1959 3097 
z
M 1959 3584 
Q 2709 3584 3137 3096 
Q 3566 2609 3566 1747 
Q 3566 888 3137 398 
Q 2709 -91 1959 -91 
Q 1206 -91 779 398 
Q 353 888 353 1747 
Q 353 2609 779 3096 
Q 1206 3584 1959 3584 
z
" transform="scale(0.015625)"/>
       <path id="DejaVuSans-67" d="M 2906 1791 
Q 2906 2416 2648 2759 
Q 2391 3103 1925 3103 
Q 1463 3103 1205 2759 
Q 947 2416 947 1791 
Q 947 1169 1205 825 
Q 1463 481 1925 481 
Q 2391 481 2648 825 
Q 2906 1169 2906 1791 
z
M 3481 434 
Q 3481 -459 3084 -895 
Q 2688 -1331 1869 -1331 
Q 1566 -1331 1297 -1286 
Q 1028 -1241 775 -1147 
L 775 -588 
Q 1028 -725 1275 -790 
Q 1522 -856 1778 -856 
Q 2344 -856 2625 -561 
Q 2906 -266 2906 331 
L 2906 616 
Q 2728 306 2450 153 
Q 2172 0 1784 0 
Q 1141 0 747 490 
Q 353 981 353 1791 
Q 353 2603 747 3093 
Q 1141 3584 1784 3584 
Q 2172 3584 2450 3431 
Q 2728 3278 2906 2969 
L 2906 3500 
L 3481 3500 
L 3481 434 
z
" transform="scale(0.015625)"/>
       <path id="DejaVuSans-61" d="M 2194 1759 
Q 1497 1759 1228 1600 
Q 959 1441 959 1056 
Q 959 750 1161 570 
Q 1363 391 1709 391 
Q 2188 391 2477 730 
Q 2766 1069 2766 1631 
L 2766 1759 
L 2194 1759 
z
M 3341 1997 
L 3341 0 
L 2766 0 
L 2766 531 
Q 2569 213 2275 61 
Q 1981 -91 1556 -91 
Q 1019 -91 701 211 
Q 384 513 384 1019 
Q 384 1609 779 1909 
Q 1175 2209 1959 2209 
L 2766 2209 
L 2766 2266 
Q 2766 2663 2505 2880 
Q 2244 3097 1772 3097 
Q 1472 3097 1187 3025 
Q 903 2953 641 2809 
L 641 3341 
Q 956 3463 1253 3523 
Q 1550 3584 1831 3584 
Q 2591 3584 2966 3190 
Q 3341 2797 3341 1997 
z
" transform="scale(0.015625)"/>
       <path id="DejaVuSans-72" d="M 2631 2963 
Q 2534 3019 2420 3045 
Q 2306 3072 2169 3072 
Q 1681 3072 1420 2755 
Q 1159 2438 1159 1844 
L 1159 0 
L 581 0 
L 581 3500 
L 1159 3500 
L 1159 2956 
Q 1341 3275 1631 3429 
Q 1922 3584 2338 3584 
Q 2397 3584 2469 3576 
Q 2541 3569 2628 3553 
L 2631 2963 
z
" transform="scale(0.015625)"/>
       <path id="DejaVuSans-69" d="M 603 3500 
L 1178 3500 
L 1178 0 
L 603 0 
L 603 3500 
z
M 603 4863 
L 1178 4863 
L 1178 4134 
L 603 4134 
L 603 4863 
z
" transform="scale(0.015625)"/>
       <path id="DejaVuSans-74" d="M 1172 4494 
L 1172 3500 
L 2356 3500 
L 2356 3053 
L 1172 3053 
L 1172 1153 
Q 1172 725 1289 603 
Q 1406 481 1766 481 
L 2356 481 
L 2356 0 
L 1766 0 
Q 1100 0 847 248 
Q 594 497 594 1153 
L 594 3053 
L 172 3053 
L 172 3500 
L 594 3500 
L 594 4494 
L 1172 4494 
z
" transform="scale(0.015625)"/>
       <path id="DejaVuSans-6d" d="M 3328 2828 
Q 3544 3216 3844 3400 
Q 4144 3584 4550 3584 
Q 5097 3584 5394 3201 
Q 5691 2819 5691 2113 
L 5691 0 
L 5113 0 
L 5113 2094 
Q 5113 2597 4934 2840 
Q 4756 3084 4391 3084 
Q 3944 3084 3684 2787 
Q 3425 2491 3425 1978 
L 3425 0 
L 2847 0 
L 2847 2094 
Q 2847 2600 2669 2842 
Q 2491 3084 2119 3084 
Q 1678 3084 1418 2786 
Q 1159 2488 1159 1978 
L 1159 0 
L 581 0 
L 581 3500 
L 1159 3500 
L 1159 2956 
Q 1356 3278 1631 3431 
Q 1906 3584 2284 3584 
Q 2666 3584 2933 3390 
Q 3200 3197 3328 2828 
z
" transform="scale(0.015625)"/>
       <path id="DejaVuSans-71" d="M 947 1747 
Q 947 1113 1208 752 
Q 1469 391 1925 391 
Q 2381 391 2643 752 
Q 2906 1113 2906 1747 
Q 2906 2381 2643 2742 
Q 2381 3103 1925 3103 
Q 1469 3103 1208 2742 
Q 947 2381 947 1747 
z
M 2906 525 
Q 2725 213 2448 61 
Q 2172 -91 1784 -91 
Q 1150 -91 751 415 
Q 353 922 353 1747 
Q 353 2572 751 3078 
Q 1150 3584 1784 3584 
Q 2172 3584 2448 3432 
Q 2725 3281 2906 2969 
L 2906 3500 
L 3481 3500 
L 3481 -1331 
L 2906 -1331 
L 2906 525 
z
" transform="scale(0.015625)"/>
       <path id="DejaVuSans-75" d="M 544 1381 
L 544 3500 
L 1119 3500 
L 1119 1403 
Q 1119 906 1312 657 
Q 1506 409 1894 409 
Q 2359 409 2629 706 
Q 2900 1003 2900 1516 
L 2900 3500 
L 3475 3500 
L 3475 0 
L 2900 0 
L 2900 538 
Q 2691 219 2414 64 
Q 2138 -91 1772 -91 
Q 1169 -91 856 284 
Q 544 659 544 1381 
z
M 1991 3584 
L 1991 3584 
z
" transform="scale(0.015625)"/>
      </defs>
      <use xlink:href="#DejaVuSans-66"/>
      <use xlink:href="#DejaVuSans-28" x="35.205078"/>
      <use xlink:href="#DejaVuSans-78" x="74.21875"/>
      <use xlink:href="#DejaVuSans-29" x="133.398438"/>
      <use xlink:href="#DejaVuSans-20" x="172.412109"/>
      <use xlink:href="#DejaVuSans-28" x="204.199219"/>
      <use xlink:href="#DejaVuSans-e9" x="243.212891"/>
      <use xlink:href="#DejaVuSans-63" x="304.736328"/>
      <use xlink:href="#DejaVuSans-68" x="359.716797"/>
      <use xlink:href="#DejaVuSans-65" x="423.095703"/>
      <use xlink:href="#DejaVuSans-6c" x="484.619141"/>
      <use xlink:href="#DejaVuSans-6c" x="512.402344"/>
      <use xlink:href="#DejaVuSans-65" x="540.185547"/>
      <use xlink:href="#DejaVuSans-20" x="601.708984"/>
      <use xlink:href="#DejaVuSans-6c" x="633.496094"/>
      <use xlink:href="#DejaVuSans-6f" x="661.279297"/>
      <use xlink:href="#DejaVuSans-67" x="722.460938"/>
      <use xlink:href="#DejaVuSans-61" x="785.9375"/>
      <use xlink:href="#DejaVuSans-72" x="847.216797"/>
      <use xlink:href="#DejaVuSans-69" x="888.330078"/>
      <use xlink:href="#DejaVuSans-74" x="916.113281"/>
      <use xlink:href="#DejaVuSans-68" x="955.322266"/>
      <use xlink:href="#DejaVuSans-6d" x="1018.701172"/>
      <use xlink:href="#DejaVuSans-69" x="1116.113281"/>
      <use xlink:href="#DejaVuSans-71" x="1143.896484"/>
      <use xlink:href="#DejaVuSans-75" x="1207.373047"/>
      <use xlink:href="#DejaVuSans-65" x="1270.751953"/>
      <use xlink:href="#DejaVuSans-29" x="1332.275391"/>
     </g>
    </g>
   </g>
   <g id="line2d_94">
    <path d="M 138.436364 285.025255 
L 162.809828 281.96248 
L 185.355283 278.905301 
L 206.072727 275.877141 
L 225.571499 272.807146 
L 243.851597 269.707282 
L 260.913022 266.593335 
L 277.365111 263.361505 
L 292.598526 260.143087 
L 307.222604 256.82522 
L 321.237346 253.414898 
L 334.642752 249.925517 
L 348.048157 246.205566 
L 362.062899 242.078583 
L 379.124324 236.799371 
L 400.451106 230.204879 
L 408.981818 227.79741 
L 415.684521 226.112905 
L 421.777887 224.804607 
L 427.261916 223.855945 
L 432.136609 223.226142 
L 437.011302 222.819828 
L 441.885995 222.651788 
L 446.760688 222.728352 
L 451.635381 223.046622 
L 456.510074 223.594823 
L 461.384767 224.353707 
L 466.868796 225.428499 
L 472.962162 226.850854 
L 480.274201 228.799791 
L 489.414251 231.482446 
L 505.257002 236.416324 
L 525.365111 242.629584 
L 539.379853 246.726372 
L 552.785258 250.41485 
L 566.190663 253.873196 
L 580.205405 257.252968 
L 594.829484 260.541618 
L 610.062899 263.732594 
L 625.905651 266.823434 
L 642.967076 269.921214 
L 661.247174 273.005846 
L 680.745946 276.061622 
L 701.463391 279.0766 
L 723.399509 282.041972 
L 747.163636 285.025255 
L 747.163636 285.025255 
" clip-path="url(#p4b02c3bd2e)" style="fill: none; stroke: #000000; stroke-width: 1.5; stroke-linecap: square"/>
   </g>
   <g id="line2d_95">
    <path d="M 138.436364 285.025255 
L 140.264373 289.419813 
L 141.483047 292.870487 
L 142.70172 296.923647 
L 143.920393 301.867681 
L 145.139066 308.26767 
L 145.748403 312.373548 
L 146.35774 317.495233 
L 146.967076 324.348727 
L 147.576413 334.849275 
L 148.185749 358.974309 
L 148.186776 433 
M 226.789289 433 
L 226.790172 369.36 
L 227.399509 342.063863 
L 228.008845 331.160573 
L 228.618182 324.199173 
L 229.227518 319.061518 
L 230.446192 311.58902 
L 231.664865 306.14226 
L 232.883538 301.839857 
L 234.102211 298.274837 
L 235.320885 295.225405 
L 237.148894 291.337546 
L 238.976904 288.041725 
L 240.804914 285.176318 
L 243.24226 281.852806 
L 245.679607 278.957999 
L 248.116953 276.391243 
L 251.163636 273.54208 
L 254.210319 271.008312 
L 257.866339 268.296492 
L 261.522359 265.872272 
L 265.787715 263.336476 
L 270.053071 261.057933 
L 274.927764 258.712402 
L 280.411794 256.345997 
L 285.895823 254.219307 
L 291.989189 252.091798 
L 298.691892 249.993277 
L 306.003931 247.948589 
L 313.925307 245.978568 
L 322.45602 244.100936 
L 331.596069 242.331113 
L 341.345455 240.682935 
L 351.704177 239.169298 
L 362.672236 237.802746 
L 374.249631 236.596042 
L 385.827027 235.608965 
L 398.013759 234.788211 
L 410.809828 234.151408 
L 423.605897 233.733211 
L 437.011302 233.521281 
L 450.416708 233.536745 
L 463.822113 233.779904 
L 476.618182 234.228764 
L 489.414251 234.897674 
L 501.600983 235.750983 
L 513.787715 236.831157 
L 525.365111 238.086811 
L 536.33317 239.504989 
L 546.691892 241.073539 
L 556.441278 242.780536 
L 565.581327 244.613719 
L 574.112039 246.559888 
L 582.033415 248.604243 
L 589.345455 250.729619 
L 596.048157 252.915615 
L 602.141523 255.137573 
L 607.625553 257.365474 
L 612.500246 259.562793 
L 617.374939 262.006109 
L 621.640295 264.388637 
L 625.296314 266.652073 
L 628.952334 269.165269 
L 631.999017 271.493174 
L 635.0457 274.084246 
L 638.092383 277.006321 
L 640.52973 279.647699 
L 642.967076 282.638576 
L 644.795086 285.176318 
L 646.623096 288.041725 
L 648.451106 291.337546 
L 650.279115 295.225405 
L 651.497789 298.274837 
L 652.716462 301.839857 
L 653.935135 306.14226 
L 655.153808 311.58902 
L 655.763145 314.980154 
L 656.372482 319.061518 
L 656.981818 324.199173 
L 657.591155 331.160573 
L 658.200491 342.063863 
L 658.809828 369.36 
L 658.810711 433 
M 737.413224 433 
L 737.414251 358.974309 
L 738.023587 334.849275 
L 738.632924 324.348727 
L 739.24226 317.495233 
L 739.851597 312.373548 
L 741.07027 304.830626 
L 742.288943 299.258538 
L 743.507617 294.807655 
L 744.72629 291.082198 
L 746.5543 286.404363 
L 747.163636 285.025255 
L 747.163636 285.025255 
" clip-path="url(#p4b02c3bd2e)" style="fill: none; stroke: #0000ff; stroke-width: 1.5; stroke-linecap: square"/>
   </g>
   <g id="line2d_96">
    <path d="M 138.436364 285.025255 
L 139.0457 254.206846 
L 139.655037 243.423062 
L 140.264373 236.891109 
L 140.87371 232.276835 
L 141.483047 228.760497 
L 142.70172 223.654688 
L 143.920393 220.08065 
L 145.139066 217.438092 
L 146.35774 215.424912 
L 147.576413 213.867617 
L 148.795086 212.657429 
L 150.013759 211.721725 
L 151.232432 211.009695 
L 152.451106 210.484475 
L 154.279115 209.988547 
L 156.107125 209.785182 
L 157.935135 209.82782 
L 159.763145 210.083416 
L 161.591155 210.528175 
L 164.028501 211.386524 
L 166.465848 212.523839 
L 168.903194 213.924462 
L 171.340541 215.582215 
L 173.777887 217.499485 
L 176.215233 219.687374 
L 178.65258 222.166964 
L 181.089926 224.972037 
L 183.527273 228.154117 
L 185.964619 231.791688 
L 187.792629 234.890286 
L 189.620639 238.391689 
L 191.448649 242.416224 
L 193.276658 247.159652 
L 194.495332 250.883123 
L 195.714005 255.252557 
L 196.932678 260.578204 
L 198.151351 267.48028 
L 198.760688 271.927829 
L 199.370025 277.520234 
L 199.979361 285.138115 
L 200.588698 297.379225 
L 201.198034 335.639908 
L 201.199384 433 
M 251.162537 433 
L 251.163636 353.67489 
L 251.772973 314.645721 
L 252.38231 302.718928 
L 252.991646 295.467749 
L 253.600983 290.256059 
L 254.819656 282.873753 
L 256.038329 277.649935 
L 257.257002 273.632943 
L 258.475676 270.391321 
L 259.694349 267.692421 
L 260.913022 265.396315 
L 262.741032 262.516921 
L 264.569042 260.148513 
L 266.397052 258.168933 
L 268.225061 256.497259 
L 270.053071 255.077044 
L 272.490418 253.505252 
L 274.927764 252.238366 
L 277.365111 251.226172 
L 279.802457 250.431421 
L 282.84914 249.700827 
L 285.895823 249.222585 
L 288.942506 248.963 
L 292.598526 248.901604 
L 296.254545 249.074915 
L 300.519902 249.524837 
L 305.394595 250.295467 
L 311.487961 251.506828 
L 321.846683 253.599457 
L 326.112039 254.216967 
L 329.768059 254.521184 
L 332.814742 254.574716 
L 335.861425 254.421822 
L 338.908108 254.049879 
L 341.954791 253.457673 
L 345.001474 252.655268 
L 348.657494 251.44326 
L 352.313514 250.004346 
L 357.188206 247.826416 
L 364.500246 244.256638 
L 376.686978 238.292502 
L 383.389681 235.285165 
L 389.483047 232.80292 
L 394.967076 230.795424 
L 400.451106 229.010781 
L 405.935135 227.451162 
L 411.419165 226.115609 
L 416.903194 225.001596 
L 422.387224 224.106029 
L 427.871253 223.425871 
L 433.355283 222.958538 
L 438.839312 222.702128 
L 444.323342 222.655556 
L 449.807371 222.818623 
L 455.2914 223.192024 
L 460.77543 223.77731 
L 466.259459 224.576785 
L 471.743489 225.593321 
L 477.227518 226.830048 
L 482.711548 228.289842 
L 488.195577 229.974512 
L 493.679607 231.883517 
L 499.163636 234.011969 
L 505.257002 236.618983 
L 511.959705 239.73973 
L 522.318428 244.86375 
L 529.630467 248.392582 
L 534.50516 250.505924 
L 538.161179 251.875011 
L 541.817199 253.00038 
L 544.863882 253.720583 
L 547.910565 254.225281 
L 550.957248 254.508806 
L 554.003931 254.577007 
L 557.050614 254.446767 
L 560.706634 254.065711 
L 564.97199 253.383836 
L 571.065356 252.155589 
L 580.814742 250.187019 
L 585.689435 249.446213 
L 589.954791 249.031314 
L 593.610811 248.894507 
L 597.26683 248.998815 
L 600.313514 249.299769 
L 603.360197 249.825539 
L 606.40688 250.611405 
L 608.844226 251.457554 
L 611.281572 252.529512 
L 613.718919 253.867283 
L 616.156265 255.52529 
L 617.984275 257.02414 
L 619.812285 258.791205 
L 621.640295 260.889819 
L 623.468305 263.412214 
L 624.686978 265.396315 
L 625.905651 267.692421 
L 627.124324 270.391321 
L 628.342998 273.632943 
L 629.561671 277.649935 
L 630.780344 282.873753 
L 631.389681 286.194623 
L 631.999017 290.256059 
L 632.608354 295.467749 
L 633.21769 302.718928 
L 633.827027 314.645721 
L 634.436364 353.67489 
L 634.437463 433 
M 684.400616 433 
L 684.401966 335.639908 
L 685.011302 297.379225 
L 685.620639 285.138115 
L 686.229975 277.520234 
L 686.839312 271.927829 
L 688.057985 263.77094 
L 689.276658 257.767892 
L 690.495332 252.972028 
L 691.714005 248.953807 
L 693.542015 243.904546 
L 695.370025 239.667435 
L 697.198034 236.007797 
L 699.026044 232.785294 
L 701.463391 229.01695 
L 703.900737 225.729703 
L 706.338084 222.836061 
L 708.77543 220.278851 
L 711.212776 218.020449 
L 713.650123 216.036924 
L 716.087469 214.314845 
L 718.524816 212.849702 
L 720.962162 211.645489 
L 723.399509 210.715343 
L 725.227518 210.211615 
L 727.055528 209.890692 
L 728.883538 209.773921 
L 730.711548 209.890892 
L 732.539558 210.283039 
L 733.758231 210.725633 
L 734.976904 211.340317 
L 736.195577 212.15884 
L 737.414251 213.224309 
L 738.632924 214.597161 
L 739.851597 216.365681 
L 741.07027 218.666 
L 742.288943 221.724073 
L 742.89828 223.654688 
L 743.507617 225.957095 
L 744.116953 228.760497 
L 744.72629 232.276835 
L 745.335627 236.891109 
L 745.944963 243.423062 
L 746.5543 254.206846 
L 747.163636 285.025255 
L 747.163636 285.025255 
" clip-path="url(#p4b02c3bd2e)" style="fill: none; stroke: #008000; stroke-width: 1.5; stroke-linecap: square"/>
   </g>
   <g id="line2d_97">
    <path d="M 138.436364 285.025255 
L 138.438412 433 
M 168.900951 433 
L 168.903194 270.876971 
L 169.512531 229.043347 
L 170.121867 217.791893 
L 170.731204 211.379271 
L 171.340541 207.062145 
L 171.949877 203.927789 
L 172.559214 201.558541 
L 173.16855 199.728132 
L 173.777887 198.300187 
L 174.387224 197.186214 
L 174.99656 196.325595 
L 175.605897 195.675061 
L 176.215233 195.202714 
L 176.82457 194.884439 
L 177.433907 194.701625 
L 178.65258 194.687045 
L 179.871253 195.074418 
L 181.089926 195.809312 
L 182.3086 196.856842 
L 183.527273 198.195965 
L 184.745946 199.816434 
L 185.964619 201.717401 
L 187.183292 203.907253 
L 189.011302 207.777911 
L 190.229975 210.800868 
L 191.448649 214.245624 
L 192.667322 218.206639 
L 193.885995 222.836124 
L 195.104668 228.3969 
L 196.323342 235.396999 
L 196.932678 239.75267 
L 197.542015 245.02782 
L 198.151351 251.798548 
L 198.760688 261.474059 
L 199.370025 279.610232 
L 199.372147 433 
M 227.397788 433 
L 227.399509 308.76584 
L 228.008845 290.417176 
L 228.618182 281.557203 
L 229.227518 275.779012 
L 229.836855 271.556307 
L 230.446192 268.278751 
L 231.664865 263.463659 
L 232.883538 260.094181 
L 234.102211 257.644576 
L 235.320885 255.841905 
L 236.539558 254.525978 
L 237.758231 253.594593 
L 238.976904 252.978454 
L 240.195577 252.628303 
L 241.414251 252.507755 
L 242.632924 252.589019 
L 243.851597 252.850203 
L 245.679607 253.541208 
L 247.507617 254.548599 
L 249.335627 255.831173 
L 251.163636 257.350602 
L 253.600983 259.675819 
L 257.257002 263.571287 
L 261.522359 268.088477 
L 263.350369 269.749981 
L 265.178378 271.10147 
L 266.397052 271.786056 
L 267.615725 272.274649 
L 268.834398 272.556614 
L 270.053071 272.630564 
L 271.271744 272.504352 
L 272.490418 272.193953 
L 274.318428 271.432543 
L 276.146437 270.395741 
L 278.583784 268.741149 
L 287.114496 262.642709 
L 290.161179 260.82368 
L 293.207862 259.28332 
L 296.254545 258.017492 
L 299.301229 257.002811 
L 302.347912 256.20465 
L 306.003931 255.474302 
L 310.878624 254.757909 
L 323.674693 253.041956 
L 328.549386 252.086967 
L 333.424079 250.891951 
L 338.908108 249.305298 
L 346.829484 246.753391 
L 361.453563 242.026535 
L 373.640295 238.37087 
L 393.139066 232.515543 
L 407.153808 228.328029 
L 414.465848 226.39069 
L 420.559214 225.016437 
L 426.043243 224.016724 
L 430.917936 223.343931 
L 435.792629 222.891519 
L 440.667322 222.670159 
L 445.542015 222.684966 
L 450.416708 222.9356 
L 455.2914 223.416259 
L 460.166093 224.115566 
L 465.650123 225.142143 
L 471.134152 226.39069 
L 477.836855 228.157076 
L 486.367568 230.654965 
L 534.50516 245.343709 
L 548.519902 249.857556 
L 554.003931 251.367002 
L 558.878624 252.473472 
L 563.753317 253.34047 
L 569.846683 254.163997 
L 578.986732 255.371691 
L 582.642752 256.06745 
L 586.298771 257.002811 
L 589.345455 258.017492 
L 592.392138 259.28332 
L 595.438821 260.82368 
L 598.485504 262.642709 
L 601.532187 264.711479 
L 610.062899 270.766221 
L 611.890909 271.721508 
L 613.718919 272.37091 
L 614.937592 272.591651 
L 616.156265 272.619309 
L 617.374939 272.44177 
L 618.593612 272.055725 
L 619.812285 271.467259 
L 621.030958 270.691284 
L 622.858968 269.225718 
L 625.296314 266.858471 
L 634.436364 257.350602 
L 636.87371 255.37545 
L 638.70172 254.180294 
L 640.52973 253.273513 
L 642.35774 252.698312 
L 643.576413 252.524642 
L 644.795086 252.54123 
L 646.013759 252.772646 
L 647.232432 253.250564 
L 648.451106 254.017131 
L 649.669779 255.130467 
L 650.888452 256.674173 
L 652.107125 258.775084 
L 653.325799 261.639736 
L 653.935135 263.463659 
L 654.544472 265.639852 
L 655.153808 268.278751 
L 655.763145 271.556307 
L 656.372482 275.779012 
L 656.981818 281.557203 
L 657.591155 290.417176 
L 658.200491 308.76584 
L 658.202212 433 
M 686.227853 433 
L 686.229975 279.610232 
L 686.839312 261.474059 
L 687.448649 251.798548 
L 688.057985 245.02782 
L 689.276658 235.396999 
L 690.495332 228.3969 
L 691.714005 222.836124 
L 692.932678 218.206639 
L 694.151351 214.245624 
L 695.979361 209.241076 
L 697.807371 205.115886 
L 699.635381 201.717401 
L 700.854054 199.816434 
L 702.072727 198.195965 
L 703.2914 196.856842 
L 704.510074 195.809312 
L 705.728747 195.074418 
L 706.94742 194.687045 
L 708.166093 194.701625 
L 708.77543 194.884439 
L 709.384767 195.202714 
L 709.994103 195.675061 
L 710.60344 196.325595 
L 711.212776 197.186214 
L 711.822113 198.300187 
L 712.43145 199.728132 
L 713.040786 201.558541 
L 713.650123 203.927789 
L 714.259459 207.062145 
L 714.868796 211.379271 
L 715.478133 217.791893 
L 716.087469 229.043347 
L 716.696806 270.876971 
L 716.699049 433 
M 747.161588 433 
L 747.163636 285.025255 
L 747.163636 285.025255 
" clip-path="url(#p4b02c3bd2e)" style="fill: none; stroke: #ffa500; stroke-width: 1.5; stroke-linecap: square"/>
   </g>
   <g id="line2d_98">
    <path d="M 138.436364 285.025255 
L 138.438412 433 
M 153.665952 433 
L 153.669779 155.689959 
L 154.279115 87.115311 
L 154.888452 76.660609 
L 155.497789 71.64023 
L 156.107125 68.92025 
L 156.716462 67.507688 
L 157.325799 66.96 
L 157.935135 67.042901 
L 158.544472 67.619107 
L 159.153808 68.603174 
L 159.763145 69.940414 
L 160.981818 73.549828 
L 162.200491 78.324076 
L 163.419165 84.309683 
L 164.637838 91.74993 
L 165.856511 101.262737 
L 166.465848 107.23594 
L 167.075184 114.569331 
L 167.684521 124.328929 
L 168.293857 140.014989 
L 168.2979 433 
M 184.133888 433 
L 184.136609 236.154091 
L 184.745946 188.981311 
L 185.355283 178.384081 
L 185.964619 172.890781 
L 186.573956 169.619166 
L 187.183292 167.628477 
L 187.792629 166.493681 
L 188.401966 165.987904 
L 189.011302 165.977449 
L 189.620639 166.378746 
L 190.229975 167.13812 
L 190.839312 168.221405 
L 191.448649 169.608377 
L 192.667322 173.26633 
L 193.885995 178.157289 
L 195.104668 184.520602 
L 196.323342 192.963884 
L 196.932678 198.396379 
L 197.542015 205.17117 
L 198.151351 214.317401 
L 198.760688 229.146301 
L 198.763506 433 
M 214.601202 433 
L 214.60344 271.307625 
L 215.212776 256.628951 
L 215.822113 249.484137 
L 216.43145 245.117775 
L 217.040786 242.242666 
L 217.650123 240.320041 
L 218.259459 239.073232 
L 218.868796 238.34186 
L 219.478133 238.025329 
L 220.087469 238.057099 
L 220.696806 238.391624 
L 221.306143 238.997157 
L 221.915479 239.851544 
L 223.134152 242.2519 
L 224.352826 245.531786 
L 225.571499 249.695005 
L 226.790172 254.803952 
L 228.008845 260.988075 
L 229.227518 268.467655 
L 230.446192 277.596491 
L 231.664865 288.908396 
L 232.883538 302.946171 
L 234.102211 318.00445 
L 234.711548 322.497446 
L 235.320885 322.082334 
L 235.930221 317.510094 
L 237.758231 299.546681 
L 238.976904 290.444317 
L 240.195577 283.619881 
L 241.414251 278.466035 
L 242.632924 274.54884 
L 243.851597 271.575013 
L 245.07027 269.34116 
L 246.288943 267.700116 
L 247.507617 266.540373 
L 248.72629 265.773394 
L 249.944963 265.32561 
L 251.163636 265.133259 
L 252.38231 265.13911 
L 254.210319 265.405356 
L 260.913022 266.813607 
L 262.741032 266.875988 
L 264.569042 266.732192 
L 267.006388 266.26643 
L 270.053071 265.405283 
L 277.365111 263.227513 
L 281.630467 262.25469 
L 289.551843 260.777463 
L 296.254545 259.406473 
L 305.394595 257.256622 
L 327.940049 251.708066 
L 340.736118 248.259645 
L 354.75086 244.261875 
L 368.765602 240.029725 
L 406.544472 228.459923 
L 413.856511 226.549743 
L 419.949877 225.171412 
L 425.433907 224.145549 
L 430.3086 223.437127 
L 435.183292 222.94486 
L 440.057985 222.686273 
L 444.932678 222.670953 
L 449.807371 222.899478 
L 454.682064 223.363346 
L 459.556757 224.045935 
L 465.040786 225.046573 
L 471.134152 226.402115 
L 477.836855 228.125701 
L 486.367568 230.565869 
L 498.5543 234.310737 
L 527.19312 243.178808 
L 540.598526 247.067708 
L 554.613268 250.906862 
L 566.190663 253.867912 
L 586.908108 258.853511 
L 594.220147 260.426585 
L 608.844226 263.38675 
L 613.109582 264.637864 
L 618.593612 266.26643 
L 621.030958 266.732192 
L 622.858968 266.875988 
L 624.686978 266.813607 
L 626.514988 266.553875 
L 629.561671 265.837714 
L 631.999017 265.290513 
L 633.827027 265.114792 
L 635.0457 265.201207 
L 636.264373 265.513772 
L 637.483047 266.112666 
L 638.70172 267.066043 
L 639.920393 268.454165 
L 641.139066 270.375815 
L 642.35774 272.95835 
L 643.576413 276.373804 
L 644.795086 280.865248 
L 646.013759 286.789085 
L 647.232432 294.668533 
L 648.451106 305.128611 
L 649.669779 317.510094 
L 650.279115 322.082334 
L 650.888452 322.497446 
L 651.497789 318.00445 
L 654.544472 282.939384 
L 655.763145 272.797062 
L 656.981818 264.547585 
L 658.200491 257.750378 
L 659.419165 252.124939 
L 660.637838 247.500485 
L 661.856511 243.783032 
L 663.075184 240.939677 
L 663.684521 239.851544 
L 664.293857 238.997157 
L 664.903194 238.391624 
L 665.512531 238.057099 
L 666.121867 238.025329 
L 666.731204 238.34186 
L 667.340541 239.073232 
L 667.949877 240.320041 
L 668.559214 242.242666 
L 669.16855 245.117775 
L 669.777887 249.484137 
L 670.387224 256.628951 
L 670.99656 271.307625 
L 670.998798 433 
M 686.836494 433 
L 686.839312 229.146301 
L 687.448649 214.317401 
L 688.057985 205.17117 
L 688.667322 198.396379 
L 689.885995 188.418631 
L 691.104668 181.129325 
L 692.323342 175.548277 
L 693.542015 171.28983 
L 694.760688 168.221405 
L 695.370025 167.13812 
L 695.979361 166.378746 
L 696.588698 165.977449 
L 697.198034 165.987904 
L 697.807371 166.493681 
L 698.416708 167.628477 
L 699.026044 169.619166 
L 699.635381 172.890781 
L 700.244717 178.384081 
L 700.854054 188.981311 
L 701.463391 236.154091 
L 701.466112 433 
M 717.3021 433 
L 717.306143 140.014989 
L 717.915479 124.328929 
L 718.524816 114.569331 
L 719.134152 107.23594 
L 720.352826 96.182479 
L 721.571499 87.821994 
L 722.790172 81.155888 
L 724.008845 75.792261 
L 725.227518 71.596123 
L 726.446192 68.603174 
L 727.055528 67.619107 
L 727.664865 67.042901 
L 728.274201 66.96 
L 728.883538 67.507688 
L 729.492875 68.92025 
L 730.102211 71.64023 
L 730.711548 76.660609 
L 731.320885 87.115311 
L 731.930221 155.689959 
L 731.934048 433 
M 747.161588 433 
L 747.163636 285.025255 
L 747.163636 285.025255 
" clip-path="url(#p4b02c3bd2e)" style="fill: none; stroke: #800080; stroke-width: 1.5; stroke-linecap: square"/>
   </g>
   <g id="patch_3">
    <path d="M 108 384.48 
L 108 51.84 
" style="fill: none; stroke: #000000; stroke-width: 0.8; stroke-linejoin: miter; stroke-linecap: square"/>
   </g>
   <g id="patch_4">
    <path d="M 777.6 384.48 
L 777.6 51.84 
" style="fill: none; stroke: #000000; stroke-width: 0.8; stroke-linejoin: miter; stroke-linecap: square"/>
   </g>
   <g id="patch_5">
    <path d="M 108 384.48 
L 777.6 384.48 
" style="fill: none; stroke: #000000; stroke-width: 0.8; stroke-linejoin: miter; stroke-linecap: square"/>
   </g>
   <g id="patch_6">
    <path d="M 108 51.84 
L 777.6 51.84 
" style="fill: none; stroke: #000000; stroke-width: 0.8; stroke-linejoin: miter; stroke-linecap: square"/>
   </g>
   <g id="text_19">
    <!-- Approximation de f avec des nœuds uniformément répartis par l'interpolation de Lagrange -->
    <g transform="translate(169.81125 45.84) scale(0.12 -0.12)">
     <defs>
      <path id="DejaVuSans-41" d="M 2188 4044 
L 1331 1722 
L 3047 1722 
L 2188 4044 
z
M 1831 4666 
L 2547 4666 
L 4325 0 
L 3669 0 
L 3244 1197 
L 1141 1197 
L 716 0 
L 50 0 
L 1831 4666 
z
" transform="scale(0.015625)"/>
      <path id="DejaVuSans-70" d="M 1159 525 
L 1159 -1331 
L 581 -1331 
L 581 3500 
L 1159 3500 
L 1159 2969 
Q 1341 3281 1617 3432 
Q 1894 3584 2278 3584 
Q 2916 3584 3314 3078 
Q 3713 2572 3713 1747 
Q 3713 922 3314 415 
Q 2916 -91 2278 -91 
Q 1894 -91 1617 61 
Q 1341 213 1159 525 
z
M 3116 1747 
Q 3116 2381 2855 2742 
Q 2594 3103 2138 3103 
Q 1681 3103 1420 2742 
Q 1159 2381 1159 1747 
Q 1159 1113 1420 752 
Q 1681 391 2138 391 
Q 2594 391 2855 752 
Q 3116 1113 3116 1747 
z
" transform="scale(0.015625)"/>
      <path id="DejaVuSans-6e" d="M 3513 2113 
L 3513 0 
L 2938 0 
L 2938 2094 
Q 2938 2591 2744 2837 
Q 2550 3084 2163 3084 
Q 1697 3084 1428 2787 
Q 1159 2491 1159 1978 
L 1159 0 
L 581 0 
L 581 3500 
L 1159 3500 
L 1159 2956 
Q 1366 3272 1645 3428 
Q 1925 3584 2291 3584 
Q 2894 3584 3203 3211 
Q 3513 2838 3513 2113 
z
" transform="scale(0.015625)"/>
      <path id="DejaVuSans-64" d="M 2906 2969 
L 2906 4863 
L 3481 4863 
L 3481 0 
L 2906 0 
L 2906 525 
Q 2725 213 2448 61 
Q 2172 -91 1784 -91 
Q 1150 -91 751 415 
Q 353 922 353 1747 
Q 353 2572 751 3078 
Q 1150 3584 1784 3584 
Q 2172 3584 2448 3432 
Q 2725 3281 2906 2969 
z
M 947 1747 
Q 947 1113 1208 752 
Q 1469 391 1925 391 
Q 2381 391 2643 752 
Q 2906 1113 2906 1747 
Q 2906 2381 2643 2742 
Q 2381 3103 1925 3103 
Q 1469 3103 1208 2742 
Q 947 2381 947 1747 
z
" transform="scale(0.015625)"/>
      <path id="DejaVuSans-76" d="M 191 3500 
L 800 3500 
L 1894 563 
L 2988 3500 
L 3597 3500 
L 2284 0 
L 1503 0 
L 191 3500 
z
" transform="scale(0.015625)"/>
      <path id="DejaVuSans-73" d="M 2834 3397 
L 2834 2853 
Q 2591 2978 2328 3040 
Q 2066 3103 1784 3103 
Q 1356 3103 1142 2972 
Q 928 2841 928 2578 
Q 928 2378 1081 2264 
Q 1234 2150 1697 2047 
L 1894 2003 
Q 2506 1872 2764 1633 
Q 3022 1394 3022 966 
Q 3022 478 2636 193 
Q 2250 -91 1575 -91 
Q 1294 -91 989 -36 
Q 684 19 347 128 
L 347 722 
Q 666 556 975 473 
Q 1284 391 1588 391 
Q 1994 391 2212 530 
Q 2431 669 2431 922 
Q 2431 1156 2273 1281 
Q 2116 1406 1581 1522 
L 1381 1569 
Q 847 1681 609 1914 
Q 372 2147 372 2553 
Q 372 3047 722 3315 
Q 1072 3584 1716 3584 
Q 2034 3584 2315 3537 
Q 2597 3491 2834 3397 
z
" transform="scale(0.015625)"/>
      <path id="DejaVuSans-153" d="M 5631 2063 
Q 5625 2538 5369 2817 
Q 5113 3097 4684 3097 
Q 4206 3097 3917 2825 
Q 3628 2553 3584 2059 
L 5631 2063 
z
M 6209 1894 
L 6209 1613 
L 3566 1613 
Q 3603 1019 3922 708 
Q 4241 397 4813 397 
Q 5144 397 5456 478 
Q 5769 559 6075 722 
L 6075 178 
Q 5763 47 5438 -22 
Q 5113 -91 4781 -91 
Q 4281 -91 3903 81 
Q 3525 253 3272 594 
Q 3050 250 2723 79 
Q 2397 -91 1959 -91 
Q 1206 -91 779 398 
Q 353 888 353 1747 
Q 353 2609 779 3096 
Q 1206 3584 1959 3584 
Q 2397 3584 2726 3411 
Q 3056 3238 3263 2900 
Q 3506 3234 3868 3409 
Q 4231 3584 4678 3584 
Q 5384 3584 5796 3129 
Q 6209 2675 6209 1894 
z
M 1959 3097 
Q 1497 3097 1228 2736 
Q 959 2375 959 1747 
Q 959 1119 1226 758 
Q 1494 397 1959 397 
Q 2419 397 2687 759 
Q 2956 1122 2956 1747 
Q 2956 2369 2687 2733 
Q 2419 3097 1959 3097 
z
" transform="scale(0.015625)"/>
      <path id="DejaVuSans-27" d="M 1147 4666 
L 1147 2931 
L 616 2931 
L 616 4666 
L 1147 4666 
z
" transform="scale(0.015625)"/>
      <path id="DejaVuSans-4c" d="M 628 4666 
L 1259 4666 
L 1259 531 
L 3531 531 
L 3531 0 
L 628 0 
L 628 4666 
z
" transform="scale(0.015625)"/>
     </defs>
     <use xlink:href="#DejaVuSans-41"/>
     <use xlink:href="#DejaVuSans-70" x="68.408203"/>
     <use xlink:href="#DejaVuSans-70" x="131.884766"/>
     <use xlink:href="#DejaVuSans-72" x="195.361328"/>
     <use xlink:href="#DejaVuSans-6f" x="234.224609"/>
     <use xlink:href="#DejaVuSans-78" x="292.28125"/>
     <use xlink:href="#DejaVuSans-69" x="351.460938"/>
     <use xlink:href="#DejaVuSans-6d" x="379.244141"/>
     <use xlink:href="#DejaVuSans-61" x="476.65625"/>
     <use xlink:href="#DejaVuSans-74" x="537.935547"/>
     <use xlink:href="#DejaVuSans-69" x="577.144531"/>
     <use xlink:href="#DejaVuSans-6f" x="604.927734"/>
     <use xlink:href="#DejaVuSans-6e" x="666.109375"/>
     <use xlink:href="#DejaVuSans-20" x="729.488281"/>
     <use xlink:href="#DejaVuSans-64" x="761.275391"/>
     <use xlink:href="#DejaVuSans-65" x="824.751953"/>
     <use xlink:href="#DejaVuSans-20" x="886.275391"/>
     <use xlink:href="#DejaVuSans-66" x="918.0625"/>
     <use xlink:href="#DejaVuSans-20" x="953.267578"/>
     <use xlink:href="#DejaVuSans-61" x="985.054688"/>
     <use xlink:href="#DejaVuSans-76" x="1046.333984"/>
     <use xlink:href="#DejaVuSans-65" x="1105.513672"/>
     <use xlink:href="#DejaVuSans-63" x="1167.037109"/>
     <use xlink:href="#DejaVuSans-20" x="1222.017578"/>
     <use xlink:href="#DejaVuSans-64" x="1253.804688"/>
     <use xlink:href="#DejaVuSans-65" x="1317.28125"/>
     <use xlink:href="#DejaVuSans-73" x="1378.804688"/>
     <use xlink:href="#DejaVuSans-20" x="1430.904297"/>
     <use xlink:href="#DejaVuSans-6e" x="1462.691406"/>
     <use xlink:href="#DejaVuSans-153" x="1526.070312"/>
     <use xlink:href="#DejaVuSans-75" x="1628.365234"/>
     <use xlink:href="#DejaVuSans-64" x="1691.744141"/>
     <use xlink:href="#DejaVuSans-73" x="1755.220703"/>
     <use xlink:href="#DejaVuSans-20" x="1807.320312"/>
     <use xlink:href="#DejaVuSans-75" x="1839.107422"/>
     <use xlink:href="#DejaVuSans-6e" x="1902.486328"/>
     <use xlink:href="#DejaVuSans-69" x="1965.865234"/>
     <use xlink:href="#DejaVuSans-66" x="1993.648438"/>
     <use xlink:href="#DejaVuSans-6f" x="2028.853516"/>
     <use xlink:href="#DejaVuSans-72" x="2090.035156"/>
     <use xlink:href="#DejaVuSans-6d" x="2129.398438"/>
     <use xlink:href="#DejaVuSans-e9" x="2226.810547"/>
     <use xlink:href="#DejaVuSans-6d" x="2288.333984"/>
     <use xlink:href="#DejaVuSans-65" x="2385.746094"/>
     <use xlink:href="#DejaVuSans-6e" x="2447.269531"/>
     <use xlink:href="#DejaVuSans-74" x="2510.648438"/>
     <use xlink:href="#DejaVuSans-20" x="2549.857422"/>
     <use xlink:href="#DejaVuSans-72" x="2581.644531"/>
     <use xlink:href="#DejaVuSans-e9" x="2620.507812"/>
     <use xlink:href="#DejaVuSans-70" x="2682.03125"/>
     <use xlink:href="#DejaVuSans-61" x="2745.507812"/>
     <use xlink:href="#DejaVuSans-72" x="2806.787109"/>
     <use xlink:href="#DejaVuSans-74" x="2847.900391"/>
     <use xlink:href="#DejaVuSans-69" x="2887.109375"/>
     <use xlink:href="#DejaVuSans-73" x="2914.892578"/>
     <use xlink:href="#DejaVuSans-20" x="2966.992188"/>
     <use xlink:href="#DejaVuSans-70" x="2998.779297"/>
     <use xlink:href="#DejaVuSans-61" x="3062.255859"/>
     <use xlink:href="#DejaVuSans-72" x="3123.535156"/>
     <use xlink:href="#DejaVuSans-20" x="3164.648438"/>
     <use xlink:href="#DejaVuSans-6c" x="3196.435547"/>
     <use xlink:href="#DejaVuSans-27" x="3224.21875"/>
     <use xlink:href="#DejaVuSans-69" x="3251.708984"/>
     <use xlink:href="#DejaVuSans-6e" x="3279.492188"/>
     <use xlink:href="#DejaVuSans-74" x="3342.871094"/>
     <use xlink:href="#DejaVuSans-65" x="3382.080078"/>
     <use xlink:href="#DejaVuSans-72" x="3443.603516"/>
     <use xlink:href="#DejaVuSans-70" x="3484.716797"/>
     <use xlink:href="#DejaVuSans-6f" x="3548.193359"/>
     <use xlink:href="#DejaVuSans-6c" x="3609.375"/>
     <use xlink:href="#DejaVuSans-61" x="3637.158203"/>
     <use xlink:href="#DejaVuSans-74" x="3698.4375"/>
     <use xlink:href="#DejaVuSans-69" x="3737.646484"/>
     <use xlink:href="#DejaVuSans-6f" x="3765.429688"/>
     <use xlink:href="#DejaVuSans-6e" x="3826.611328"/>
     <use xlink:href="#DejaVuSans-20" x="3889.990234"/>
     <use xlink:href="#DejaVuSans-64" x="3921.777344"/>
     <use xlink:href="#DejaVuSans-65" x="3985.253906"/>
     <use xlink:href="#DejaVuSans-20" x="4046.777344"/>
     <use xlink:href="#DejaVuSans-4c" x="4078.564453"/>
     <use xlink:href="#DejaVuSans-61" x="4134.277344"/>
     <use xlink:href="#DejaVuSans-67" x="4195.556641"/>
     <use xlink:href="#DejaVuSans-72" x="4259.033203"/>
     <use xlink:href="#DejaVuSans-61" x="4300.146484"/>
     <use xlink:href="#DejaVuSans-6e" x="4361.425781"/>
     <use xlink:href="#DejaVuSans-67" x="4424.804688"/>
     <use xlink:href="#DejaVuSans-65" x="4488.28125"/>
    </g>
   </g>
   <g id="PathCollection_1">
    <defs>
     <path id="m9e01ec811a" d="M 0 2.5 
C 0.663008 2.5 1.29895 2.236584 1.767767 1.767767 
C 2.236584 1.29895 2.5 0.663008 2.5 0 
C 2.5 -0.663008 2.236584 -1.29895 1.767767 -1.767767 
C 1.29895 -2.236584 0.663008 -2.5 0 -2.5 
C -0.663008 -2.5 -1.29895 -2.236584 -1.767767 -1.767767 
C -2.236584 -1.29895 -2.5 -0.663008 -2.5 0 
C -2.5 0.663008 -2.236584 1.29895 -1.767767 1.767767 
C -1.29895 2.236584 -0.663008 2.5 0 2.5 
z
" style="stroke: #000000"/>
    </defs>
    <g clip-path="url(#p4b02c3bd2e)">
     <use xlink:href="#m9e01ec811a" x="138.436364" y="285.025255" style="stroke: #000000"/>
     <use xlink:href="#m9e01ec811a" x="260.181818" y="266.731541" style="stroke: #000000"/>
     <use xlink:href="#m9e01ec811a" x="381.927273" y="235.918099" style="stroke: #000000"/>
     <use xlink:href="#m9e01ec811a" x="503.672727" y="235.918099" style="stroke: #000000"/>
     <use xlink:href="#m9e01ec811a" x="625.418182" y="266.731541" style="stroke: #000000"/>
     <use xlink:href="#m9e01ec811a" x="747.163636" y="285.025255" style="stroke: #000000"/>
    </g>
   </g>
   <g id="PathCollection_2">
    <g clip-path="url(#p4b02c3bd2e)">
     <use xlink:href="#m9e01ec811a" x="138.436364" y="285.025255" style="stroke: #000000"/>
     <use xlink:href="#m9e01ec811a" x="199.309091" y="276.890668" style="stroke: #000000"/>
     <use xlink:href="#m9e01ec811a" x="260.181818" y="266.731541" style="stroke: #000000"/>
     <use xlink:href="#m9e01ec811a" x="321.054545" y="253.460914" style="stroke: #000000"/>
     <use xlink:href="#m9e01ec811a" x="381.927273" y="235.918099" style="stroke: #000000"/>
     <use xlink:href="#m9e01ec811a" x="442.8" y="222.647472" style="stroke: #000000"/>
     <use xlink:href="#m9e01ec811a" x="503.672727" y="235.918099" style="stroke: #000000"/>
     <use xlink:href="#m9e01ec811a" x="564.545455" y="253.460914" style="stroke: #000000"/>
     <use xlink:href="#m9e01ec811a" x="625.418182" y="266.731541" style="stroke: #000000"/>
     <use xlink:href="#m9e01ec811a" x="686.290909" y="276.890668" style="stroke: #000000"/>
     <use xlink:href="#m9e01ec811a" x="747.163636" y="285.025255" style="stroke: #000000"/>
    </g>
   </g>
   <g id="PathCollection_3">
    <g clip-path="url(#p4b02c3bd2e)">
     <use xlink:href="#m9e01ec811a" x="138.436364" y="285.025255" style="stroke: #000000"/>
     <use xlink:href="#m9e01ec811a" x="168.872727" y="281.162856" style="stroke: #000000"/>
     <use xlink:href="#m9e01ec811a" x="199.309091" y="276.890668" style="stroke: #000000"/>
     <use xlink:href="#m9e01ec811a" x="229.745455" y="272.119315" style="stroke: #000000"/>
     <use xlink:href="#m9e01ec811a" x="260.181818" y="266.731541" style="stroke: #000000"/>
     <use xlink:href="#m9e01ec811a" x="290.618182" y="260.574672" style="stroke: #000000"/>
     <use xlink:href="#m9e01ec811a" x="321.054545" y="253.460914" style="stroke: #000000"/>
     <use xlink:href="#m9e01ec811a" x="351.490909" y="245.213374" style="stroke: #000000"/>
     <use xlink:href="#m9e01ec811a" x="381.927273" y="235.918099" style="stroke: #000000"/>
     <use xlink:href="#m9e01ec811a" x="412.363636" y="226.91966" style="stroke: #000000"/>
     <use xlink:href="#m9e01ec811a" x="442.8" y="222.647472" style="stroke: #000000"/>
     <use xlink:href="#m9e01ec811a" x="473.236364" y="226.91966" style="stroke: #000000"/>
     <use xlink:href="#m9e01ec811a" x="503.672727" y="235.918099" style="stroke: #000000"/>
     <use xlink:href="#m9e01ec811a" x="534.109091" y="245.213374" style="stroke: #000000"/>
     <use xlink:href="#m9e01ec811a" x="564.545455" y="253.460914" style="stroke: #000000"/>
     <use xlink:href="#m9e01ec811a" x="594.981818" y="260.574672" style="stroke: #000000"/>
     <use xlink:href="#m9e01ec811a" x="625.418182" y="266.731541" style="stroke: #000000"/>
     <use xlink:href="#m9e01ec811a" x="655.854545" y="272.119315" style="stroke: #000000"/>
     <use xlink:href="#m9e01ec811a" x="686.290909" y="276.890668" style="stroke: #000000"/>
     <use xlink:href="#m9e01ec811a" x="716.727273" y="281.162856" style="stroke: #000000"/>
     <use xlink:href="#m9e01ec811a" x="747.163636" y="285.025255" style="stroke: #000000"/>
    </g>
   </g>
   <g id="PathCollection_4">
    <g clip-path="url(#p4b02c3bd2e)">
     <use xlink:href="#m9e01ec811a" x="138.436364" y="285.025255" style="stroke: #000000"/>
     <use xlink:href="#m9e01ec811a" x="153.654545" y="283.140574" style="stroke: #000000"/>
     <use xlink:href="#m9e01ec811a" x="168.872727" y="281.162856" style="stroke: #000000"/>
     <use xlink:href="#m9e01ec811a" x="184.090909" y="279.08301" style="stroke: #000000"/>
     <use xlink:href="#m9e01ec811a" x="199.309091" y="276.890668" style="stroke: #000000"/>
     <use xlink:href="#m9e01ec811a" x="214.527273" y="274.573968" style="stroke: #000000"/>
     <use xlink:href="#m9e01ec811a" x="229.745455" y="272.119315" style="stroke: #000000"/>
     <use xlink:href="#m9e01ec811a" x="244.963636" y="269.511119" style="stroke: #000000"/>
     <use xlink:href="#m9e01ec811a" x="260.181818" y="266.731541" style="stroke: #000000"/>
     <use xlink:href="#m9e01ec811a" x="275.4" y="263.760301" style="stroke: #000000"/>
     <use xlink:href="#m9e01ec811a" x="290.618182" y="260.574672" style="stroke: #000000"/>
     <use xlink:href="#m9e01ec811a" x="305.836364" y="257.149946" style="stroke: #000000"/>
     <use xlink:href="#m9e01ec811a" x="321.054545" y="253.460914" style="stroke: #000000"/>
     <use xlink:href="#m9e01ec811a" x="336.272727" y="249.485561" style="stroke: #000000"/>
     <use xlink:href="#m9e01ec811a" x="351.490909" y="245.213374" style="stroke: #000000"/>
     <use xlink:href="#m9e01ec811a" x="366.709091" y="240.663039" style="stroke: #000000"/>
     <use xlink:href="#m9e01ec811a" x="381.927273" y="235.918099" style="stroke: #000000"/>
     <use xlink:href="#m9e01ec811a" x="397.145455" y="231.191847" style="stroke: #000000"/>
     <use xlink:href="#m9e01ec811a" x="412.363636" y="226.91966" style="stroke: #000000"/>
     <use xlink:href="#m9e01ec811a" x="427.581818" y="223.808159" style="stroke: #000000"/>
     <use xlink:href="#m9e01ec811a" x="442.8" y="222.647472" style="stroke: #000000"/>
     <use xlink:href="#m9e01ec811a" x="458.018182" y="223.808159" style="stroke: #000000"/>
     <use xlink:href="#m9e01ec811a" x="473.236364" y="226.91966" style="stroke: #000000"/>
     <use xlink:href="#m9e01ec811a" x="488.454545" y="231.191847" style="stroke: #000000"/>
     <use xlink:href="#m9e01ec811a" x="503.672727" y="235.918099" style="stroke: #000000"/>
     <use xlink:href="#m9e01ec811a" x="518.890909" y="240.663039" style="stroke: #000000"/>
     <use xlink:href="#m9e01ec811a" x="534.109091" y="245.213374" style="stroke: #000000"/>
     <use xlink:href="#m9e01ec811a" x="549.327273" y="249.485561" style="stroke: #000000"/>
     <use xlink:href="#m9e01ec811a" x="564.545455" y="253.460914" style="stroke: #000000"/>
     <use xlink:href="#m9e01ec811a" x="579.763636" y="257.149946" style="stroke: #000000"/>
     <use xlink:href="#m9e01ec811a" x="594.981818" y="260.574672" style="stroke: #000000"/>
     <use xlink:href="#m9e01ec811a" x="610.2" y="263.760301" style="stroke: #000000"/>
     <use xlink:href="#m9e01ec811a" x="625.418182" y="266.731541" style="stroke: #000000"/>
     <use xlink:href="#m9e01ec811a" x="640.636364" y="269.511119" style="stroke: #000000"/>
     <use xlink:href="#m9e01ec811a" x="655.854545" y="272.119315" style="stroke: #000000"/>
     <use xlink:href="#m9e01ec811a" x="671.072727" y="274.573968" style="stroke: #000000"/>
     <use xlink:href="#m9e01ec811a" x="686.290909" y="276.890668" style="stroke: #000000"/>
     <use xlink:href="#m9e01ec811a" x="701.509091" y="279.08301" style="stroke: #000000"/>
     <use xlink:href="#m9e01ec811a" x="716.727273" y="281.162856" style="stroke: #000000"/>
     <use xlink:href="#m9e01ec811a" x="731.945455" y="283.140574" style="stroke: #000000"/>
     <use xlink:href="#m9e01ec811a" x="747.163636" y="285.025255" style="stroke: #000000"/>
    </g>
   </g>
   <g id="legend_1">
    <g id="patch_7">
     <path d="M 376.989844 379.48 
L 508.610156 379.48 
Q 510.610156 379.48 510.610156 377.48 
L 510.610156 305.089375 
Q 510.610156 303.089375 508.610156 303.089375 
L 376.989844 303.089375 
Q 374.989844 303.089375 374.989844 305.089375 
L 374.989844 377.48 
Q 374.989844 379.48 376.989844 379.48 
z
" style="fill: #ffffff; opacity: 0.8; stroke: #cccccc; stroke-linejoin: miter"/>
    </g>
    <g id="line2d_99">
     <path d="M 378.989844 311.187813 
L 388.989844 311.187813 
L 398.989844 311.187813 
" style="fill: none; stroke: #000000; stroke-width: 1.5; stroke-linecap: square"/>
    </g>
    <g id="text_20">
     <!-- f(x) = 1 / (1 + 25x²) -->
     <g transform="translate(406.989844 314.687813) scale(0.1 -0.1)">
      <defs>
       <path id="DejaVuSans-3d" d="M 678 2906 
L 4684 2906 
L 4684 2381 
L 678 2381 
L 678 2906 
z
M 678 1631 
L 4684 1631 
L 4684 1100 
L 678 1100 
L 678 1631 
z
" transform="scale(0.015625)"/>
       <path id="DejaVuSans-2f" d="M 1625 4666 
L 2156 4666 
L 531 -594 
L 0 -594 
L 1625 4666 
z
" transform="scale(0.015625)"/>
       <path id="DejaVuSans-2b" d="M 2944 4013 
L 2944 2272 
L 4684 2272 
L 4684 1741 
L 2944 1741 
L 2944 0 
L 2419 0 
L 2419 1741 
L 678 1741 
L 678 2272 
L 2419 2272 
L 2419 4013 
L 2944 4013 
z
" transform="scale(0.015625)"/>
       <path id="DejaVuSans-b2" d="M 838 2444 
L 2163 2444 
L 2163 2088 
L 294 2088 
L 294 2431 
Q 400 2528 597 2703 
Q 1672 3656 1672 3950 
Q 1672 4156 1509 4282 
Q 1347 4409 1081 4409 
Q 919 4409 728 4354 
Q 538 4300 313 4191 
L 313 4575 
Q 553 4663 761 4706 
Q 969 4750 1147 4750 
Q 1600 4750 1872 4544 
Q 2144 4338 2144 4000 
Q 2144 3566 1109 2678 
Q 934 2528 838 2444 
z
" transform="scale(0.015625)"/>
      </defs>
      <use xlink:href="#DejaVuSans-66"/>
      <use xlink:href="#DejaVuSans-28" x="35.205078"/>
      <use xlink:href="#DejaVuSans-78" x="74.21875"/>
      <use xlink:href="#DejaVuSans-29" x="133.398438"/>
      <use xlink:href="#DejaVuSans-20" x="172.412109"/>
      <use xlink:href="#DejaVuSans-3d" x="204.199219"/>
      <use xlink:href="#DejaVuSans-20" x="287.988281"/>
      <use xlink:href="#DejaVuSans-31" x="319.775391"/>
      <use xlink:href="#DejaVuSans-20" x="383.398438"/>
      <use xlink:href="#DejaVuSans-2f" x="415.185547"/>
      <use xlink:href="#DejaVuSans-20" x="448.876953"/>
      <use xlink:href="#DejaVuSans-28" x="480.664062"/>
      <use xlink:href="#DejaVuSans-31" x="519.677734"/>
      <use xlink:href="#DejaVuSans-20" x="583.300781"/>
      <use xlink:href="#DejaVuSans-2b" x="615.087891"/>
      <use xlink:href="#DejaVuSans-20" x="698.876953"/>
      <use xlink:href="#DejaVuSans-32" x="730.664062"/>
      <use xlink:href="#DejaVuSans-35" x="794.287109"/>
      <use xlink:href="#DejaVuSans-78" x="857.910156"/>
      <use xlink:href="#DejaVuSans-b2" x="917.089844"/>
      <use xlink:href="#DejaVuSans-29" x="957.177734"/>
     </g>
    </g>
    <g id="line2d_100">
     <path d="M 378.989844 325.865937 
L 388.989844 325.865937 
L 398.989844 325.865937 
" style="fill: none; stroke: #0000ff; stroke-width: 1.5; stroke-linecap: square"/>
    </g>
    <g id="text_21">
     <!-- N=5 -->
     <g transform="translate(406.989844 329.365937) scale(0.1 -0.1)">
      <defs>
       <path id="DejaVuSans-4e" d="M 628 4666 
L 1478 4666 
L 3547 763 
L 3547 4666 
L 4159 4666 
L 4159 0 
L 3309 0 
L 1241 3903 
L 1241 0 
L 628 0 
L 628 4666 
z
" transform="scale(0.015625)"/>
      </defs>
      <use xlink:href="#DejaVuSans-4e"/>
      <use xlink:href="#DejaVuSans-3d" x="74.804688"/>
      <use xlink:href="#DejaVuSans-35" x="158.59375"/>
     </g>
    </g>
    <g id="line2d_101">
     <path d="M 378.989844 340.544062 
L 388.989844 340.544062 
L 398.989844 340.544062 
" style="fill: none; stroke: #008000; stroke-width: 1.5; stroke-linecap: square"/>
    </g>
    <g id="text_22">
     <!-- N=10 -->
     <g transform="translate(406.989844 344.044062) scale(0.1 -0.1)">
      <use xlink:href="#DejaVuSans-4e"/>
      <use xlink:href="#DejaVuSans-3d" x="74.804688"/>
      <use xlink:href="#DejaVuSans-31" x="158.59375"/>
      <use xlink:href="#DejaVuSans-30" x="222.216797"/>
     </g>
    </g>
    <g id="line2d_102">
     <path d="M 378.989844 355.222188 
L 388.989844 355.222188 
L 398.989844 355.222188 
" style="fill: none; stroke: #ffa500; stroke-width: 1.5; stroke-linecap: square"/>
    </g>
    <g id="text_23">
     <!-- N=20 -->
     <g transform="translate(406.989844 358.722188) scale(0.1 -0.1)">
      <use xlink:href="#DejaVuSans-4e"/>
      <use xlink:href="#DejaVuSans-3d" x="74.804688"/>
      <use xlink:href="#DejaVuSans-32" x="158.59375"/>
      <use xlink:href="#DejaVuSans-30" x="222.216797"/>
     </g>
    </g>
    <g id="line2d_103">
     <path d="M 378.989844 369.900313 
L 388.989844 369.900313 
L 398.989844 369.900313 
" style="fill: none; stroke: #800080; stroke-width: 1.5; stroke-linecap: square"/>
    </g>
    <g id="text_24">
     <!-- N=40 -->
     <g transform="translate(406.989844 373.400313) scale(0.1 -0.1)">
      <defs>
       <path id="DejaVuSans-34" d="M 2419 4116 
L 825 1625 
L 2419 1625 
L 2419 4116 
z
M 2253 4666 
L 3047 4666 
L 3047 1625 
L 3713 1625 
L 3713 1100 
L 3047 1100 
L 3047 0 
L 2419 0 
L 2419 1100 
L 313 1100 
L 313 1709 
L 2253 4666 
z
" transform="scale(0.015625)"/>
      </defs>
      <use xlink:href="#DejaVuSans-4e"/>
      <use xlink:href="#DejaVuSans-3d" x="74.804688"/>
      <use xlink:href="#DejaVuSans-34" x="158.59375"/>
      <use xlink:href="#DejaVuSans-30" x="222.216797"/>
     </g>
    </g>
   </g>
  </g>
 </g>
 <defs>
  <clipPath id="p4b02c3bd2e">
   <rect x="108" y="51.84" width="669.6" height="332.64"/>
  </clipPath>
 </defs>
</svg>
