<?xml version="1.0" encoding="utf-8" standalone="no"?>
<!DOCTYPE svg PUBLIC "-//W3C//DTD SVG 1.1//EN"
  "http://www.w3.org/Graphics/SVG/1.1/DTD/svg11.dtd">
<svg xmlns:xlink="http://www.w3.org/1999/xlink" width="864pt" height="432pt" viewBox="0 0 864 432" xmlns="http://www.w3.org/2000/svg" version="1.1">
 <metadata>
  <rdf:RDF xmlns:dc="http://purl.org/dc/elements/1.1/" xmlns:cc="http://creativecommons.org/ns#" xmlns:rdf="http://www.w3.org/1999/02/22-rdf-syntax-ns#">
   <cc:Work>
    <dc:type rdf:resource="http://purl.org/dc/dcmitype/StillImage"/>
    <dc:date>2024-11-02T15:46:18.997457</dc:date>
    <dc:format>image/svg+xml</dc:format>
    <dc:creator>
     <cc:Agent>
      <dc:title>Matplotlib v3.9.2, https://matplotlib.org/</dc:title>
     </cc:Agent>
    </dc:creator>
   </cc:Work>
  </rdf:RDF>
 </metadata>
 <defs>
  <style type="text/css">*{stroke-linejoin: round; stroke-linecap: butt}</style>
 </defs>
 <g id="figure_1">
  <g id="patch_1">
   <path d="M 0 432 
L 864 432 
L 864 0 
L 0 0 
z
" style="fill: #ffffff"/>
  </g>
  <g id="axes_1">
   <g id="patch_2">
    <path d="M 108 384.48 
L 777.6 384.48 
L 777.6 51.84 
L 108 51.84 
z
" style="fill: #ffffff"/>
   </g>
   <g id="matplotlib.axis_1">
    <g id="xtick_1">
     <g id="line2d_1">
      <path d="M 138.436364 384.48 
L 138.436364 51.84 
" clip-path="url(#p8d1c986e62)" style="fill: none; stroke: #b0b0b0; stroke-width: 0.8; stroke-linecap: square"/>
     </g>
     <g id="line2d_2">
      <defs>
       <path id="m90d92390fd" d="M 0 0 
L 0 3.5 
" style="stroke: #000000; stroke-width: 0.8"/>
      </defs>
      <g>
       <use xlink:href="#m90d92390fd" x="138.436364" y="384.48" style="stroke: #000000; stroke-width: 0.8"/>
      </g>
     </g>
     <g id="text_1">
      <!-- −1.00 -->
      <g transform="translate(123.113707 399.078438) scale(0.1 -0.1)">
       <defs>
        <path id="DejaVuSans-2212" d="M 678 2272 
L 4684 2272 
L 4684 1741 
L 678 1741 
L 678 2272 
z
" transform="scale(0.015625)"/>
        <path id="DejaVuSans-31" d="M 794 531 
L 1825 531 
L 1825 4091 
L 703 3866 
L 703 4441 
L 1819 4666 
L 2450 4666 
L 2450 531 
L 3481 531 
L 3481 0 
L 794 0 
L 794 531 
z
" transform="scale(0.015625)"/>
        <path id="DejaVuSans-2e" d="M 684 794 
L 1344 794 
L 1344 0 
L 684 0 
L 684 794 
z
" transform="scale(0.015625)"/>
        <path id="DejaVuSans-30" d="M 2034 4250 
Q 1547 4250 1301 3770 
Q 1056 3291 1056 2328 
Q 1056 1369 1301 889 
Q 1547 409 2034 409 
Q 2525 409 2770 889 
Q 3016 1369 3016 2328 
Q 3016 3291 2770 3770 
Q 2525 4250 2034 4250 
z
M 2034 4750 
Q 2819 4750 3233 4129 
Q 3647 3509 3647 2328 
Q 3647 1150 3233 529 
Q 2819 -91 2034 -91 
Q 1250 -91 836 529 
Q 422 1150 422 2328 
Q 422 3509 836 4129 
Q 1250 4750 2034 4750 
z
" transform="scale(0.015625)"/>
       </defs>
       <use xlink:href="#DejaVuSans-2212"/>
       <use xlink:href="#DejaVuSans-31" x="83.789062"/>
       <use xlink:href="#DejaVuSans-2e" x="147.412109"/>
       <use xlink:href="#DejaVuSans-30" x="179.199219"/>
       <use xlink:href="#DejaVuSans-30" x="242.822266"/>
      </g>
     </g>
    </g>
    <g id="xtick_2">
     <g id="line2d_3">
      <path d="M 214.527273 384.48 
L 214.527273 51.84 
" clip-path="url(#p8d1c986e62)" style="fill: none; stroke: #b0b0b0; stroke-width: 0.8; stroke-linecap: square"/>
     </g>
     <g id="line2d_4">
      <g>
       <use xlink:href="#m90d92390fd" x="214.527273" y="384.48" style="stroke: #000000; stroke-width: 0.8"/>
      </g>
     </g>
     <g id="text_2">
      <!-- −0.75 -->
      <g transform="translate(199.204616 399.078438) scale(0.1 -0.1)">
       <defs>
        <path id="DejaVuSans-37" d="M 525 4666 
L 3525 4666 
L 3525 4397 
L 1831 0 
L 1172 0 
L 2766 4134 
L 525 4134 
L 525 4666 
z
" transform="scale(0.015625)"/>
        <path id="DejaVuSans-35" d="M 691 4666 
L 3169 4666 
L 3169 4134 
L 1269 4134 
L 1269 2991 
Q 1406 3038 1543 3061 
Q 1681 3084 1819 3084 
Q 2600 3084 3056 2656 
Q 3513 2228 3513 1497 
Q 3513 744 3044 326 
Q 2575 -91 1722 -91 
Q 1428 -91 1123 -41 
Q 819 9 494 109 
L 494 744 
Q 775 591 1075 516 
Q 1375 441 1709 441 
Q 2250 441 2565 725 
Q 2881 1009 2881 1497 
Q 2881 1984 2565 2268 
Q 2250 2553 1709 2553 
Q 1456 2553 1204 2497 
Q 953 2441 691 2322 
L 691 4666 
z
" transform="scale(0.015625)"/>
       </defs>
       <use xlink:href="#DejaVuSans-2212"/>
       <use xlink:href="#DejaVuSans-30" x="83.789062"/>
       <use xlink:href="#DejaVuSans-2e" x="147.412109"/>
       <use xlink:href="#DejaVuSans-37" x="179.199219"/>
       <use xlink:href="#DejaVuSans-35" x="242.822266"/>
      </g>
     </g>
    </g>
    <g id="xtick_3">
     <g id="line2d_5">
      <path d="M 290.618182 384.48 
L 290.618182 51.84 
" clip-path="url(#p8d1c986e62)" style="fill: none; stroke: #b0b0b0; stroke-width: 0.8; stroke-linecap: square"/>
     </g>
     <g id="line2d_6">
      <g>
       <use xlink:href="#m90d92390fd" x="290.618182" y="384.48" style="stroke: #000000; stroke-width: 0.8"/>
      </g>
     </g>
     <g id="text_3">
      <!-- −0.50 -->
      <g transform="translate(275.295526 399.078438) scale(0.1 -0.1)">
       <use xlink:href="#DejaVuSans-2212"/>
       <use xlink:href="#DejaVuSans-30" x="83.789062"/>
       <use xlink:href="#DejaVuSans-2e" x="147.412109"/>
       <use xlink:href="#DejaVuSans-35" x="179.199219"/>
       <use xlink:href="#DejaVuSans-30" x="242.822266"/>
      </g>
     </g>
    </g>
    <g id="xtick_4">
     <g id="line2d_7">
      <path d="M 366.709091 384.48 
L 366.709091 51.84 
" clip-path="url(#p8d1c986e62)" style="fill: none; stroke: #b0b0b0; stroke-width: 0.8; stroke-linecap: square"/>
     </g>
     <g id="line2d_8">
      <g>
       <use xlink:href="#m90d92390fd" x="366.709091" y="384.48" style="stroke: #000000; stroke-width: 0.8"/>
      </g>
     </g>
     <g id="text_4">
      <!-- −0.25 -->
      <g transform="translate(351.386435 399.078438) scale(0.1 -0.1)">
       <defs>
        <path id="DejaVuSans-32" d="M 1228 531 
L 3431 531 
L 3431 0 
L 469 0 
L 469 531 
Q 828 903 1448 1529 
Q 2069 2156 2228 2338 
Q 2531 2678 2651 2914 
Q 2772 3150 2772 3378 
Q 2772 3750 2511 3984 
Q 2250 4219 1831 4219 
Q 1534 4219 1204 4116 
Q 875 4013 500 3803 
L 500 4441 
Q 881 4594 1212 4672 
Q 1544 4750 1819 4750 
Q 2544 4750 2975 4387 
Q 3406 4025 3406 3419 
Q 3406 3131 3298 2873 
Q 3191 2616 2906 2266 
Q 2828 2175 2409 1742 
Q 1991 1309 1228 531 
z
" transform="scale(0.015625)"/>
       </defs>
       <use xlink:href="#DejaVuSans-2212"/>
       <use xlink:href="#DejaVuSans-30" x="83.789062"/>
       <use xlink:href="#DejaVuSans-2e" x="147.412109"/>
       <use xlink:href="#DejaVuSans-32" x="179.199219"/>
       <use xlink:href="#DejaVuSans-35" x="242.822266"/>
      </g>
     </g>
    </g>
    <g id="xtick_5">
     <g id="line2d_9">
      <path d="M 442.8 384.48 
L 442.8 51.84 
" clip-path="url(#p8d1c986e62)" style="fill: none; stroke: #b0b0b0; stroke-width: 0.8; stroke-linecap: square"/>
     </g>
     <g id="line2d_10">
      <g>
       <use xlink:href="#m90d92390fd" x="442.8" y="384.48" style="stroke: #000000; stroke-width: 0.8"/>
      </g>
     </g>
     <g id="text_5">
      <!-- 0.00 -->
      <g transform="translate(431.667188 399.078438) scale(0.1 -0.1)">
       <use xlink:href="#DejaVuSans-30"/>
       <use xlink:href="#DejaVuSans-2e" x="63.623047"/>
       <use xlink:href="#DejaVuSans-30" x="95.410156"/>
       <use xlink:href="#DejaVuSans-30" x="159.033203"/>
      </g>
     </g>
    </g>
    <g id="xtick_6">
     <g id="line2d_11">
      <path d="M 518.890909 384.48 
L 518.890909 51.84 
" clip-path="url(#p8d1c986e62)" style="fill: none; stroke: #b0b0b0; stroke-width: 0.8; stroke-linecap: square"/>
     </g>
     <g id="line2d_12">
      <g>
       <use xlink:href="#m90d92390fd" x="518.890909" y="384.48" style="stroke: #000000; stroke-width: 0.8"/>
      </g>
     </g>
     <g id="text_6">
      <!-- 0.25 -->
      <g transform="translate(507.758097 399.078438) scale(0.1 -0.1)">
       <use xlink:href="#DejaVuSans-30"/>
       <use xlink:href="#DejaVuSans-2e" x="63.623047"/>
       <use xlink:href="#DejaVuSans-32" x="95.410156"/>
       <use xlink:href="#DejaVuSans-35" x="159.033203"/>
      </g>
     </g>
    </g>
    <g id="xtick_7">
     <g id="line2d_13">
      <path d="M 594.981818 384.48 
L 594.981818 51.84 
" clip-path="url(#p8d1c986e62)" style="fill: none; stroke: #b0b0b0; stroke-width: 0.8; stroke-linecap: square"/>
     </g>
     <g id="line2d_14">
      <g>
       <use xlink:href="#m90d92390fd" x="594.981818" y="384.48" style="stroke: #000000; stroke-width: 0.8"/>
      </g>
     </g>
     <g id="text_7">
      <!-- 0.50 -->
      <g transform="translate(583.849006 399.078438) scale(0.1 -0.1)">
       <use xlink:href="#DejaVuSans-30"/>
       <use xlink:href="#DejaVuSans-2e" x="63.623047"/>
       <use xlink:href="#DejaVuSans-35" x="95.410156"/>
       <use xlink:href="#DejaVuSans-30" x="159.033203"/>
      </g>
     </g>
    </g>
    <g id="xtick_8">
     <g id="line2d_15">
      <path d="M 671.072727 384.48 
L 671.072727 51.84 
" clip-path="url(#p8d1c986e62)" style="fill: none; stroke: #b0b0b0; stroke-width: 0.8; stroke-linecap: square"/>
     </g>
     <g id="line2d_16">
      <g>
       <use xlink:href="#m90d92390fd" x="671.072727" y="384.48" style="stroke: #000000; stroke-width: 0.8"/>
      </g>
     </g>
     <g id="text_8">
      <!-- 0.75 -->
      <g transform="translate(659.939915 399.078438) scale(0.1 -0.1)">
       <use xlink:href="#DejaVuSans-30"/>
       <use xlink:href="#DejaVuSans-2e" x="63.623047"/>
       <use xlink:href="#DejaVuSans-37" x="95.410156"/>
       <use xlink:href="#DejaVuSans-35" x="159.033203"/>
      </g>
     </g>
    </g>
    <g id="xtick_9">
     <g id="line2d_17">
      <path d="M 747.163636 384.48 
L 747.163636 51.84 
" clip-path="url(#p8d1c986e62)" style="fill: none; stroke: #b0b0b0; stroke-width: 0.8; stroke-linecap: square"/>
     </g>
     <g id="line2d_18">
      <g>
       <use xlink:href="#m90d92390fd" x="747.163636" y="384.48" style="stroke: #000000; stroke-width: 0.8"/>
      </g>
     </g>
     <g id="text_9">
      <!-- 1.00 -->
      <g transform="translate(736.030824 399.078438) scale(0.1 -0.1)">
       <use xlink:href="#DejaVuSans-31"/>
       <use xlink:href="#DejaVuSans-2e" x="63.623047"/>
       <use xlink:href="#DejaVuSans-30" x="95.410156"/>
       <use xlink:href="#DejaVuSans-30" x="159.033203"/>
      </g>
     </g>
    </g>
    <g id="text_10">
     <!-- x -->
     <g transform="translate(439.840625 412.756563) scale(0.1 -0.1)">
      <defs>
       <path id="DejaVuSans-78" d="M 3513 3500 
L 2247 1797 
L 3578 0 
L 2900 0 
L 1881 1375 
L 863 0 
L 184 0 
L 1544 1831 
L 300 3500 
L 978 3500 
L 1906 2253 
L 2834 3500 
L 3513 3500 
z
" transform="scale(0.015625)"/>
      </defs>
      <use xlink:href="#DejaVuSans-78"/>
     </g>
    </g>
   </g>
   <g id="matplotlib.axis_2">
    <g id="ytick_1">
     <g id="line2d_19">
      <path d="M 108 293.870569 
L 777.6 293.870569 
" clip-path="url(#p8d1c986e62)" style="fill: none; stroke: #b0b0b0; stroke-width: 0.8; stroke-linecap: square"/>
     </g>
     <g id="line2d_20">
      <defs>
       <path id="mf252064bd9" d="M 0 0 
L -3.5 0 
" style="stroke: #000000; stroke-width: 0.8"/>
      </defs>
      <g>
       <use xlink:href="#mf252064bd9" x="108" y="293.870569" style="stroke: #000000; stroke-width: 0.8"/>
      </g>
     </g>
     <g id="text_11">
      <!-- $\mathdefault{10^{-2}}$ -->
      <g transform="translate(77.5 297.669787) scale(0.1 -0.1)">
       <use xlink:href="#DejaVuSans-31" transform="translate(0 0.765625)"/>
       <use xlink:href="#DejaVuSans-30" transform="translate(63.623047 0.765625)"/>
       <use xlink:href="#DejaVuSans-2212" transform="translate(128.203125 39.046875) scale(0.7)"/>
       <use xlink:href="#DejaVuSans-32" transform="translate(186.855469 39.046875) scale(0.7)"/>
      </g>
     </g>
    </g>
    <g id="ytick_2">
     <g id="line2d_21">
      <path d="M 108 180.415284 
L 777.6 180.415284 
" clip-path="url(#p8d1c986e62)" style="fill: none; stroke: #b0b0b0; stroke-width: 0.8; stroke-linecap: square"/>
     </g>
     <g id="line2d_22">
      <g>
       <use xlink:href="#mf252064bd9" x="108" y="180.415284" style="stroke: #000000; stroke-width: 0.8"/>
      </g>
     </g>
     <g id="text_12">
      <!-- $\mathdefault{10^{-1}}$ -->
      <g transform="translate(77.5 184.214503) scale(0.1 -0.1)">
       <use xlink:href="#DejaVuSans-31" transform="translate(0 0.684375)"/>
       <use xlink:href="#DejaVuSans-30" transform="translate(63.623047 0.684375)"/>
       <use xlink:href="#DejaVuSans-2212" transform="translate(128.203125 38.965625) scale(0.7)"/>
       <use xlink:href="#DejaVuSans-31" transform="translate(186.855469 38.965625) scale(0.7)"/>
      </g>
     </g>
    </g>
    <g id="ytick_3">
     <g id="line2d_23">
      <path d="M 108 66.96 
L 777.6 66.96 
" clip-path="url(#p8d1c986e62)" style="fill: none; stroke: #b0b0b0; stroke-width: 0.8; stroke-linecap: square"/>
     </g>
     <g id="line2d_24">
      <g>
       <use xlink:href="#mf252064bd9" x="108" y="66.96" style="stroke: #000000; stroke-width: 0.8"/>
      </g>
     </g>
     <g id="text_13">
      <!-- $\mathdefault{10^{0}}$ -->
      <g transform="translate(83.4 70.759219) scale(0.1 -0.1)">
       <use xlink:href="#DejaVuSans-31" transform="translate(0 0.765625)"/>
       <use xlink:href="#DejaVuSans-30" transform="translate(63.623047 0.765625)"/>
       <use xlink:href="#DejaVuSans-30" transform="translate(128.203125 39.046875) scale(0.7)"/>
      </g>
     </g>
    </g>
    <g id="ytick_4">
     <g id="line2d_25">
      <defs>
       <path id="m29a7ccb941" d="M 0 0 
L -2 0 
" style="stroke: #000000; stroke-width: 0.6"/>
      </defs>
      <g>
       <use xlink:href="#m29a7ccb941" x="108" y="373.172409" style="stroke: #000000; stroke-width: 0.6"/>
      </g>
     </g>
    </g>
    <g id="ytick_5">
     <g id="line2d_26">
      <g>
       <use xlink:href="#m29a7ccb941" x="108" y="353.193925" style="stroke: #000000; stroke-width: 0.6"/>
      </g>
     </g>
    </g>
    <g id="ytick_6">
     <g id="line2d_27">
      <g>
       <use xlink:href="#m29a7ccb941" x="108" y="339.018965" style="stroke: #000000; stroke-width: 0.6"/>
      </g>
     </g>
    </g>
    <g id="ytick_7">
     <g id="line2d_28">
      <g>
       <use xlink:href="#m29a7ccb941" x="108" y="328.024012" style="stroke: #000000; stroke-width: 0.6"/>
      </g>
     </g>
    </g>
    <g id="ytick_8">
     <g id="line2d_29">
      <g>
       <use xlink:href="#m29a7ccb941" x="108" y="319.040482" style="stroke: #000000; stroke-width: 0.6"/>
      </g>
     </g>
    </g>
    <g id="ytick_9">
     <g id="line2d_30">
      <g>
       <use xlink:href="#m29a7ccb941" x="108" y="311.445014" style="stroke: #000000; stroke-width: 0.6"/>
      </g>
     </g>
    </g>
    <g id="ytick_10">
     <g id="line2d_31">
      <g>
       <use xlink:href="#m29a7ccb941" x="108" y="304.865522" style="stroke: #000000; stroke-width: 0.6"/>
      </g>
     </g>
    </g>
    <g id="ytick_11">
     <g id="line2d_32">
      <g>
       <use xlink:href="#m29a7ccb941" x="108" y="299.061998" style="stroke: #000000; stroke-width: 0.6"/>
      </g>
     </g>
    </g>
    <g id="ytick_12">
     <g id="line2d_33">
      <g>
       <use xlink:href="#m29a7ccb941" x="108" y="259.717125" style="stroke: #000000; stroke-width: 0.6"/>
      </g>
     </g>
    </g>
    <g id="ytick_13">
     <g id="line2d_34">
      <g>
       <use xlink:href="#m29a7ccb941" x="108" y="239.738641" style="stroke: #000000; stroke-width: 0.6"/>
      </g>
     </g>
    </g>
    <g id="ytick_14">
     <g id="line2d_35">
      <g>
       <use xlink:href="#m29a7ccb941" x="108" y="225.563681" style="stroke: #000000; stroke-width: 0.6"/>
      </g>
     </g>
    </g>
    <g id="ytick_15">
     <g id="line2d_36">
      <g>
       <use xlink:href="#m29a7ccb941" x="108" y="214.568728" style="stroke: #000000; stroke-width: 0.6"/>
      </g>
     </g>
    </g>
    <g id="ytick_16">
     <g id="line2d_37">
      <g>
       <use xlink:href="#m29a7ccb941" x="108" y="205.585197" style="stroke: #000000; stroke-width: 0.6"/>
      </g>
     </g>
    </g>
    <g id="ytick_17">
     <g id="line2d_38">
      <g>
       <use xlink:href="#m29a7ccb941" x="108" y="197.98973" style="stroke: #000000; stroke-width: 0.6"/>
      </g>
     </g>
    </g>
    <g id="ytick_18">
     <g id="line2d_39">
      <g>
       <use xlink:href="#m29a7ccb941" x="108" y="191.410237" style="stroke: #000000; stroke-width: 0.6"/>
      </g>
     </g>
    </g>
    <g id="ytick_19">
     <g id="line2d_40">
      <g>
       <use xlink:href="#m29a7ccb941" x="108" y="185.606713" style="stroke: #000000; stroke-width: 0.6"/>
      </g>
     </g>
    </g>
    <g id="ytick_20">
     <g id="line2d_41">
      <g>
       <use xlink:href="#m29a7ccb941" x="108" y="146.261841" style="stroke: #000000; stroke-width: 0.6"/>
      </g>
     </g>
    </g>
    <g id="ytick_21">
     <g id="line2d_42">
      <g>
       <use xlink:href="#m29a7ccb941" x="108" y="126.283357" style="stroke: #000000; stroke-width: 0.6"/>
      </g>
     </g>
    </g>
    <g id="ytick_22">
     <g id="line2d_43">
      <g>
       <use xlink:href="#m29a7ccb941" x="108" y="112.108397" style="stroke: #000000; stroke-width: 0.6"/>
      </g>
     </g>
    </g>
    <g id="ytick_23">
     <g id="line2d_44">
      <g>
       <use xlink:href="#m29a7ccb941" x="108" y="101.113444" style="stroke: #000000; stroke-width: 0.6"/>
      </g>
     </g>
    </g>
    <g id="ytick_24">
     <g id="line2d_45">
      <g>
       <use xlink:href="#m29a7ccb941" x="108" y="92.129913" style="stroke: #000000; stroke-width: 0.6"/>
      </g>
     </g>
    </g>
    <g id="ytick_25">
     <g id="line2d_46">
      <g>
       <use xlink:href="#m29a7ccb941" x="108" y="84.534446" style="stroke: #000000; stroke-width: 0.6"/>
      </g>
     </g>
    </g>
    <g id="ytick_26">
     <g id="line2d_47">
      <g>
       <use xlink:href="#m29a7ccb941" x="108" y="77.954953" style="stroke: #000000; stroke-width: 0.6"/>
      </g>
     </g>
    </g>
    <g id="ytick_27">
     <g id="line2d_48">
      <g>
       <use xlink:href="#m29a7ccb941" x="108" y="72.151429" style="stroke: #000000; stroke-width: 0.6"/>
      </g>
     </g>
    </g>
    <g id="text_14">
     <!-- f(x) (échelle logarithmique) -->
     <g transform="translate(71.420312 286.725625) rotate(-90) scale(0.1 -0.1)">
      <defs>
       <path id="DejaVuSans-66" d="M 2375 4863 
L 2375 4384 
L 1825 4384 
Q 1516 4384 1395 4259 
Q 1275 4134 1275 3809 
L 1275 3500 
L 2222 3500 
L 2222 3053 
L 1275 3053 
L 1275 0 
L 697 0 
L 697 3053 
L 147 3053 
L 147 3500 
L 697 3500 
L 697 3744 
Q 697 4328 969 4595 
Q 1241 4863 1831 4863 
L 2375 4863 
z
" transform="scale(0.015625)"/>
       <path id="DejaVuSans-28" d="M 1984 4856 
Q 1566 4138 1362 3434 
Q 1159 2731 1159 2009 
Q 1159 1288 1364 580 
Q 1569 -128 1984 -844 
L 1484 -844 
Q 1016 -109 783 600 
Q 550 1309 550 2009 
Q 550 2706 781 3412 
Q 1013 4119 1484 4856 
L 1984 4856 
z
" transform="scale(0.015625)"/>
       <path id="DejaVuSans-29" d="M 513 4856 
L 1013 4856 
Q 1481 4119 1714 3412 
Q 1947 2706 1947 2009 
Q 1947 1309 1714 600 
Q 1481 -109 1013 -844 
L 513 -844 
Q 928 -128 1133 580 
Q 1338 1288 1338 2009 
Q 1338 2731 1133 3434 
Q 928 4138 513 4856 
z
" transform="scale(0.015625)"/>
       <path id="DejaVuSans-20" transform="scale(0.015625)"/>
       <path id="DejaVuSans-e9" d="M 3597 1894 
L 3597 1613 
L 953 1613 
Q 991 1019 1311 708 
Q 1631 397 2203 397 
Q 2534 397 2845 478 
Q 3156 559 3463 722 
L 3463 178 
Q 3153 47 2828 -22 
Q 2503 -91 2169 -91 
Q 1331 -91 842 396 
Q 353 884 353 1716 
Q 353 2575 817 3079 
Q 1281 3584 2069 3584 
Q 2775 3584 3186 3129 
Q 3597 2675 3597 1894 
z
M 3022 2063 
Q 3016 2534 2758 2815 
Q 2500 3097 2075 3097 
Q 1594 3097 1305 2825 
Q 1016 2553 972 2059 
L 3022 2063 
z
M 2466 5119 
L 3088 5119 
L 2070 3944 
L 1591 3944 
L 2466 5119 
z
" transform="scale(0.015625)"/>
       <path id="DejaVuSans-63" d="M 3122 3366 
L 3122 2828 
Q 2878 2963 2633 3030 
Q 2388 3097 2138 3097 
Q 1578 3097 1268 2742 
Q 959 2388 959 1747 
Q 959 1106 1268 751 
Q 1578 397 2138 397 
Q 2388 397 2633 464 
Q 2878 531 3122 666 
L 3122 134 
Q 2881 22 2623 -34 
Q 2366 -91 2075 -91 
Q 1284 -91 818 406 
Q 353 903 353 1747 
Q 353 2603 823 3093 
Q 1294 3584 2113 3584 
Q 2378 3584 2631 3529 
Q 2884 3475 3122 3366 
z
" transform="scale(0.015625)"/>
       <path id="DejaVuSans-68" d="M 3513 2113 
L 3513 0 
L 2938 0 
L 2938 2094 
Q 2938 2591 2744 2837 
Q 2550 3084 2163 3084 
Q 1697 3084 1428 2787 
Q 1159 2491 1159 1978 
L 1159 0 
L 581 0 
L 581 4863 
L 1159 4863 
L 1159 2956 
Q 1366 3272 1645 3428 
Q 1925 3584 2291 3584 
Q 2894 3584 3203 3211 
Q 3513 2838 3513 2113 
z
" transform="scale(0.015625)"/>
       <path id="DejaVuSans-65" d="M 3597 1894 
L 3597 1613 
L 953 1613 
Q 991 1019 1311 708 
Q 1631 397 2203 397 
Q 2534 397 2845 478 
Q 3156 559 3463 722 
L 3463 178 
Q 3153 47 2828 -22 
Q 2503 -91 2169 -91 
Q 1331 -91 842 396 
Q 353 884 353 1716 
Q 353 2575 817 3079 
Q 1281 3584 2069 3584 
Q 2775 3584 3186 3129 
Q 3597 2675 3597 1894 
z
M 3022 2063 
Q 3016 2534 2758 2815 
Q 2500 3097 2075 3097 
Q 1594 3097 1305 2825 
Q 1016 2553 972 2059 
L 3022 2063 
z
" transform="scale(0.015625)"/>
       <path id="DejaVuSans-6c" d="M 603 4863 
L 1178 4863 
L 1178 0 
L 603 0 
L 603 4863 
z
" transform="scale(0.015625)"/>
       <path id="DejaVuSans-6f" d="M 1959 3097 
Q 1497 3097 1228 2736 
Q 959 2375 959 1747 
Q 959 1119 1226 758 
Q 1494 397 1959 397 
Q 2419 397 2687 759 
Q 2956 1122 2956 1747 
Q 2956 2369 2687 2733 
Q 2419 3097 1959 3097 
z
M 1959 3584 
Q 2709 3584 3137 3096 
Q 3566 2609 3566 1747 
Q 3566 888 3137 398 
Q 2709 -91 1959 -91 
Q 1206 -91 779 398 
Q 353 888 353 1747 
Q 353 2609 779 3096 
Q 1206 3584 1959 3584 
z
" transform="scale(0.015625)"/>
       <path id="DejaVuSans-67" d="M 2906 1791 
Q 2906 2416 2648 2759 
Q 2391 3103 1925 3103 
Q 1463 3103 1205 2759 
Q 947 2416 947 1791 
Q 947 1169 1205 825 
Q 1463 481 1925 481 
Q 2391 481 2648 825 
Q 2906 1169 2906 1791 
z
M 3481 434 
Q 3481 -459 3084 -895 
Q 2688 -1331 1869 -1331 
Q 1566 -1331 1297 -1286 
Q 1028 -1241 775 -1147 
L 775 -588 
Q 1028 -725 1275 -790 
Q 1522 -856 1778 -856 
Q 2344 -856 2625 -561 
Q 2906 -266 2906 331 
L 2906 616 
Q 2728 306 2450 153 
Q 2172 0 1784 0 
Q 1141 0 747 490 
Q 353 981 353 1791 
Q 353 2603 747 3093 
Q 1141 3584 1784 3584 
Q 2172 3584 2450 3431 
Q 2728 3278 2906 2969 
L 2906 3500 
L 3481 3500 
L 3481 434 
z
" transform="scale(0.015625)"/>
       <path id="DejaVuSans-61" d="M 2194 1759 
Q 1497 1759 1228 1600 
Q 959 1441 959 1056 
Q 959 750 1161 570 
Q 1363 391 1709 391 
Q 2188 391 2477 730 
Q 2766 1069 2766 1631 
L 2766 1759 
L 2194 1759 
z
M 3341 1997 
L 3341 0 
L 2766 0 
L 2766 531 
Q 2569 213 2275 61 
Q 1981 -91 1556 -91 
Q 1019 -91 701 211 
Q 384 513 384 1019 
Q 384 1609 779 1909 
Q 1175 2209 1959 2209 
L 2766 2209 
L 2766 2266 
Q 2766 2663 2505 2880 
Q 2244 3097 1772 3097 
Q 1472 3097 1187 3025 
Q 903 2953 641 2809 
L 641 3341 
Q 956 3463 1253 3523 
Q 1550 3584 1831 3584 
Q 2591 3584 2966 3190 
Q 3341 2797 3341 1997 
z
" transform="scale(0.015625)"/>
       <path id="DejaVuSans-72" d="M 2631 2963 
Q 2534 3019 2420 3045 
Q 2306 3072 2169 3072 
Q 1681 3072 1420 2755 
Q 1159 2438 1159 1844 
L 1159 0 
L 581 0 
L 581 3500 
L 1159 3500 
L 1159 2956 
Q 1341 3275 1631 3429 
Q 1922 3584 2338 3584 
Q 2397 3584 2469 3576 
Q 2541 3569 2628 3553 
L 2631 2963 
z
" transform="scale(0.015625)"/>
       <path id="DejaVuSans-69" d="M 603 3500 
L 1178 3500 
L 1178 0 
L 603 0 
L 603 3500 
z
M 603 4863 
L 1178 4863 
L 1178 4134 
L 603 4134 
L 603 4863 
z
" transform="scale(0.015625)"/>
       <path id="DejaVuSans-74" d="M 1172 4494 
L 1172 3500 
L 2356 3500 
L 2356 3053 
L 1172 3053 
L 1172 1153 
Q 1172 725 1289 603 
Q 1406 481 1766 481 
L 2356 481 
L 2356 0 
L 1766 0 
Q 1100 0 847 248 
Q 594 497 594 1153 
L 594 3053 
L 172 3053 
L 172 3500 
L 594 3500 
L 594 4494 
L 1172 4494 
z
" transform="scale(0.015625)"/>
       <path id="DejaVuSans-6d" d="M 3328 2828 
Q 3544 3216 3844 3400 
Q 4144 3584 4550 3584 
Q 5097 3584 5394 3201 
Q 5691 2819 5691 2113 
L 5691 0 
L 5113 0 
L 5113 2094 
Q 5113 2597 4934 2840 
Q 4756 3084 4391 3084 
Q 3944 3084 3684 2787 
Q 3425 2491 3425 1978 
L 3425 0 
L 2847 0 
L 2847 2094 
Q 2847 2600 2669 2842 
Q 2491 3084 2119 3084 
Q 1678 3084 1418 2786 
Q 1159 2488 1159 1978 
L 1159 0 
L 581 0 
L 581 3500 
L 1159 3500 
L 1159 2956 
Q 1356 3278 1631 3431 
Q 1906 3584 2284 3584 
Q 2666 3584 2933 3390 
Q 3200 3197 3328 2828 
z
" transform="scale(0.015625)"/>
       <path id="DejaVuSans-71" d="M 947 1747 
Q 947 1113 1208 752 
Q 1469 391 1925 391 
Q 2381 391 2643 752 
Q 2906 1113 2906 1747 
Q 2906 2381 2643 2742 
Q 2381 3103 1925 3103 
Q 1469 3103 1208 2742 
Q 947 2381 947 1747 
z
M 2906 525 
Q 2725 213 2448 61 
Q 2172 -91 1784 -91 
Q 1150 -91 751 415 
Q 353 922 353 1747 
Q 353 2572 751 3078 
Q 1150 3584 1784 3584 
Q 2172 3584 2448 3432 
Q 2725 3281 2906 2969 
L 2906 3500 
L 3481 3500 
L 3481 -1331 
L 2906 -1331 
L 2906 525 
z
" transform="scale(0.015625)"/>
       <path id="DejaVuSans-75" d="M 544 1381 
L 544 3500 
L 1119 3500 
L 1119 1403 
Q 1119 906 1312 657 
Q 1506 409 1894 409 
Q 2359 409 2629 706 
Q 2900 1003 2900 1516 
L 2900 3500 
L 3475 3500 
L 3475 0 
L 2900 0 
L 2900 538 
Q 2691 219 2414 64 
Q 2138 -91 1772 -91 
Q 1169 -91 856 284 
Q 544 659 544 1381 
z
M 1991 3584 
L 1991 3584 
z
" transform="scale(0.015625)"/>
      </defs>
      <use xlink:href="#DejaVuSans-66"/>
      <use xlink:href="#DejaVuSans-28" x="35.205078"/>
      <use xlink:href="#DejaVuSans-78" x="74.21875"/>
      <use xlink:href="#DejaVuSans-29" x="133.398438"/>
      <use xlink:href="#DejaVuSans-20" x="172.412109"/>
      <use xlink:href="#DejaVuSans-28" x="204.199219"/>
      <use xlink:href="#DejaVuSans-e9" x="243.212891"/>
      <use xlink:href="#DejaVuSans-63" x="304.736328"/>
      <use xlink:href="#DejaVuSans-68" x="359.716797"/>
      <use xlink:href="#DejaVuSans-65" x="423.095703"/>
      <use xlink:href="#DejaVuSans-6c" x="484.619141"/>
      <use xlink:href="#DejaVuSans-6c" x="512.402344"/>
      <use xlink:href="#DejaVuSans-65" x="540.185547"/>
      <use xlink:href="#DejaVuSans-20" x="601.708984"/>
      <use xlink:href="#DejaVuSans-6c" x="633.496094"/>
      <use xlink:href="#DejaVuSans-6f" x="661.279297"/>
      <use xlink:href="#DejaVuSans-67" x="722.460938"/>
      <use xlink:href="#DejaVuSans-61" x="785.9375"/>
      <use xlink:href="#DejaVuSans-72" x="847.216797"/>
      <use xlink:href="#DejaVuSans-69" x="888.330078"/>
      <use xlink:href="#DejaVuSans-74" x="916.113281"/>
      <use xlink:href="#DejaVuSans-68" x="955.322266"/>
      <use xlink:href="#DejaVuSans-6d" x="1018.701172"/>
      <use xlink:href="#DejaVuSans-69" x="1116.113281"/>
      <use xlink:href="#DejaVuSans-71" x="1143.896484"/>
      <use xlink:href="#DejaVuSans-75" x="1207.373047"/>
      <use xlink:href="#DejaVuSans-65" x="1270.751953"/>
      <use xlink:href="#DejaVuSans-29" x="1332.275391"/>
     </g>
    </g>
   </g>
   <g id="line2d_49">
    <path d="M 138.436364 227.496203 
L 153.669779 222.640794 
L 168.293857 217.754145 
L 182.3086 212.844486 
L 195.714005 207.921503 
L 208.510074 202.996491 
L 221.306143 197.830735 
L 233.492875 192.666738 
L 245.07027 187.520305 
L 256.038329 182.409557 
L 267.006388 177.050434 
L 277.365111 171.742118 
L 287.723833 166.174573 
L 297.473219 160.679746 
L 307.222604 154.920258 
L 316.362654 149.265219 
L 325.502703 143.349648 
L 334.642752 137.163102 
L 343.782801 130.69991 
L 352.92285 123.962745 
L 362.672236 116.49346 
L 373.640295 107.802562 
L 399.841769 86.873418 
L 405.935135 82.354937 
L 411.419165 78.572157 
L 415.684521 75.87868 
L 419.949877 73.455329 
L 423.605897 71.6304 
L 427.261916 70.07014 
L 430.3086 68.992349 
L 433.355283 68.132103 
L 436.401966 67.501338 
L 439.448649 67.109123 
L 442.495332 66.961234 
L 445.542015 67.059876 
L 448.588698 67.403577 
L 451.635381 67.987257 
L 454.682064 68.802477 
L 457.728747 69.837835 
L 460.77543 71.079467 
L 464.43145 72.819441 
L 468.087469 74.804158 
L 472.352826 77.387868 
L 477.227518 80.634688 
L 482.711548 84.579709 
L 489.414251 89.697793 
L 499.163636 97.46712 
L 521.709091 115.541216 
L 532.067813 123.50416 
L 541.207862 130.259195 
L 550.347912 136.740854 
L 559.487961 142.945736 
L 568.62801 148.879086 
L 577.768059 154.55111 
L 587.517445 160.327711 
L 597.26683 165.838573 
L 607.016216 171.100947 
L 617.374939 176.438751 
L 627.733661 181.534162 
L 638.70172 186.684924 
L 650.279115 191.870256 
L 661.856511 196.817681 
L 674.043243 201.789179 
L 686.839312 206.769619 
L 700.244717 211.745816 
L 714.259459 216.706392 
L 728.883538 221.641626 
L 744.116953 226.543289 
L 747.163636 227.496203 
L 747.163636 227.496203 
" clip-path="url(#p8d1c986e62)" style="fill: none; stroke: #000000; stroke-width: 1.5; stroke-linecap: square"/>
   </g>
   <g id="line2d_50">
    <path d="M 138.436364 205.714508 
L 154.279115 233.615399 
L 157.935135 239.4236 
L 160.981818 243.795797 
L 163.419165 246.887128 
L 165.247174 248.920656 
L 167.075184 250.677245 
L 168.903194 252.130496 
L 170.731204 253.258344 
L 172.559214 254.044419 
L 173.777887 254.373554 
L 174.99656 254.545351 
L 176.215233 254.560302 
L 177.433907 254.420392 
L 179.261916 253.928012 
L 181.089926 253.112196 
L 182.917936 251.995511 
L 184.745946 250.604717 
L 186.573956 248.969306 
L 189.011302 246.46151 
L 191.448649 243.646293 
L 194.495332 239.799258 
L 198.760688 234.010622 
L 207.900737 221.051945 
L 214.60344 211.744903 
L 220.087469 204.48642 
L 225.571499 197.618236 
L 230.446192 191.857363 
L 235.320885 186.4187 
L 240.195577 181.292003 
L 245.07027 176.462711 
L 249.944963 171.914312 
L 255.428993 167.111904 
L 260.913022 162.61966 
L 266.397052 158.415051 
L 271.881081 154.477168 
L 277.974447 150.39132 
L 284.067813 146.587361 
L 290.161179 143.04399 
L 296.254545 139.742191 
L 302.957248 136.369049 
L 309.659951 133.247723 
L 316.362654 130.360573 
L 323.674693 127.459796 
L 330.986732 124.801473 
L 338.298771 122.370094 
L 346.220147 119.976508 
L 354.141523 117.818363 
L 362.062899 115.882685 
L 370.593612 114.034096 
L 379.124324 112.418592 
L 387.655037 111.026065 
L 396.185749 109.848059 
L 405.325799 108.816065 
L 414.465848 108.015482 
L 423.605897 107.441087 
L 432.745946 107.089182 
L 441.885995 106.957524 
L 451.026044 107.045277 
L 460.166093 107.352999 
L 469.306143 107.882648 
L 478.446192 108.637625 
L 487.586241 109.622842 
L 496.72629 110.844823 
L 505.257002 112.206222 
L 513.787715 113.789294 
L 522.318428 115.603898 
L 530.239803 117.506386 
L 538.161179 119.629508 
L 546.082555 121.98595 
L 553.394595 124.380873 
L 560.706634 127.00035 
L 568.018673 129.85955 
L 574.721376 132.705851 
L 581.424079 135.783352 
L 588.126781 139.109295 
L 594.220147 142.364875 
L 600.313514 145.85848 
L 606.40688 149.608694 
L 612.500246 153.636343 
L 617.984275 157.517617 
L 623.468305 161.661208 
L 628.952334 166.08764 
L 634.436364 170.819103 
L 639.311057 175.299942 
L 644.185749 180.057424 
L 649.060442 185.108297 
L 653.935135 190.467787 
L 658.809828 196.14751 
L 663.684521 202.152044 
L 669.16855 209.284703 
L 675.261916 217.62323 
L 692.323342 241.374783 
L 695.370025 245.087898 
L 697.807371 247.75833 
L 700.244717 250.085253 
L 702.072727 251.560955 
L 703.900737 252.772148 
L 705.728747 253.690998 
L 707.556757 254.29338 
L 708.77543 254.509523 
L 709.994103 254.572343 
L 711.212776 254.479125 
L 712.43145 254.228625 
L 713.650123 253.82111 
L 715.478133 252.919691 
L 717.306143 251.68125 
L 719.134152 250.124191 
L 720.962162 248.272183 
L 722.790172 246.152749 
L 725.227518 242.962701 
L 727.664865 239.4236 
L 730.711548 234.617242 
L 734.976904 227.398456 
L 741.679607 215.502739 
L 747.163636 205.714508 
L 747.163636 205.714508 
" clip-path="url(#p8d1c986e62)" style="fill: none; stroke: #0000ff; stroke-width: 1.5; stroke-linecap: square"/>
   </g>
   <g id="line2d_51">
    <path d="M 139.045138 433 
L 139.0457 328.532364 
L 139.655037 275.735187 
L 140.264373 252.385537 
L 140.87371 237.71176 
L 141.483047 227.275183 
L 142.092383 219.363646 
L 142.70172 213.134054 
L 143.920393 203.990381 
L 145.139066 197.746257 
L 146.35774 193.418237 
L 147.576413 190.467203 
L 148.185749 189.400897 
L 148.795086 188.566878 
L 149.404423 187.94171 
L 150.013759 187.506039 
L 150.623096 187.243749 
L 151.232432 187.141316 
L 151.841769 187.187333 
L 152.451106 187.372128 
L 153.669779 188.12639 
L 154.888452 189.351898 
L 156.107125 191.010923 
L 157.325799 193.076706 
L 158.544472 195.531155 
L 159.763145 198.36331 
L 161.591155 203.310733 
L 163.419165 209.105253 
L 165.247174 215.780111 
L 167.075184 223.395761 
L 168.903194 232.043026 
L 170.731204 241.84863 
L 172.559214 252.982891 
L 174.387224 265.668196 
L 176.215233 280.181945 
L 178.043243 296.830649 
L 179.871253 315.812815 
L 183.527273 356.828012 
L 184.136609 362.234079 
L 184.745946 366.357727 
L 185.355283 368.818378 
L 185.964619 369.36 
L 186.573956 367.935505 
L 187.183292 364.723654 
L 187.792629 360.066919 
L 189.011302 348.017662 
L 192.667322 308.52636 
L 194.495332 291.543491 
L 196.323342 276.764303 
L 198.151351 263.888495 
L 199.979361 252.602688 
L 201.807371 242.64074 
L 203.635381 233.788785 
L 205.463391 225.877219 
L 207.2914 218.771285 
L 209.11941 212.363079 
L 211.556757 204.75571 
L 213.994103 198.071119 
L 216.43145 192.181611 
L 218.868796 186.986329 
L 221.306143 182.404432 
L 223.743489 178.37028 
L 226.180835 174.829956 
L 228.618182 171.738719 
L 231.055528 169.059104 
L 233.492875 166.75948 
L 235.930221 164.81294 
L 238.367568 163.196426 
L 240.804914 161.890037 
L 243.24226 160.876464 
L 245.679607 160.140518 
L 248.116953 159.668726 
L 250.5543 159.448983 
L 252.991646 159.470224 
L 255.428993 159.722116 
L 257.866339 160.194757 
L 260.303686 160.878359 
L 262.741032 161.762909 
L 265.787715 163.134938 
L 268.834398 164.781248 
L 271.881081 166.674829 
L 275.537101 169.226982 
L 279.802457 172.497988 
L 291.379853 181.622273 
L 294.426536 183.634706 
L 296.863882 184.974653 
L 298.691892 185.77999 
L 300.519902 186.385013 
L 302.347912 186.76544 
L 304.175921 186.900023 
L 306.003931 186.771622 
L 307.831941 186.36814 
L 309.659951 185.683202 
L 311.487961 184.716513 
L 313.315971 183.473828 
L 315.14398 181.966555 
L 316.97199 180.211022 
L 319.409337 177.519647 
L 321.846683 174.478882 
L 324.893366 170.278146 
L 328.549386 164.805128 
L 334.033415 156.090279 
L 345.610811 137.539632 
L 351.09484 129.255285 
L 355.969533 122.314814 
L 360.234889 116.601081 
L 364.500246 111.234042 
L 368.765602 106.215537 
L 373.030958 101.541938 
L 377.296314 97.20633 
L 381.561671 93.199977 
L 385.827027 89.513308 
L 390.092383 86.136554 
L 394.35774 83.060165 
L 398.623096 80.275074 
L 402.888452 77.772852 
L 407.153808 75.545809 
L 411.419165 73.587036 
L 415.684521 71.890431 
L 419.949877 70.450698 
L 424.215233 69.263347 
L 428.48059 68.324678 
L 432.745946 67.631772 
L 437.011302 67.182477 
L 441.276658 66.9754 
L 445.542015 67.0099 
L 449.807371 67.286084 
L 454.072727 67.804807 
L 458.338084 68.567678 
L 462.60344 69.577068 
L 466.868796 70.836116 
L 471.134152 72.348748 
L 475.399509 74.119682 
L 479.664865 76.154445 
L 483.930221 78.459371 
L 488.195577 81.041594 
L 492.460934 83.909024 
L 496.72629 87.070281 
L 500.991646 90.534592 
L 505.257002 94.311602 
L 509.522359 98.411073 
L 513.787715 102.842417 
L 518.053071 107.613965 
L 522.318428 112.731872 
L 526.583784 118.198463 
L 530.84914 124.009802 
L 535.723833 131.055208 
L 540.598526 138.487392 
L 546.691892 148.187534 
L 557.659951 165.742591 
L 561.315971 171.148763 
L 564.362654 175.268581 
L 566.8 178.227527 
L 569.237346 180.822601 
L 571.065356 182.497461 
L 572.893366 183.918128 
L 574.721376 185.069815 
L 576.549386 185.942932 
L 578.377396 186.533715 
L 580.205405 186.844502 
L 582.033415 186.883631 
L 583.861425 186.664972 
L 585.689435 186.207147 
L 587.517445 185.532537 
L 589.954791 184.339369 
L 592.392138 182.868731 
L 595.438821 180.737662 
L 599.704177 177.418498 
L 609.453563 169.677606 
L 613.109582 167.080463 
L 616.156265 165.141135 
L 619.202948 163.443054 
L 622.249631 162.014221 
L 624.686978 161.081058 
L 627.124324 160.346265 
L 629.561671 159.819963 
L 631.999017 159.511965 
L 634.436364 159.432115 
L 636.87371 159.590609 
L 639.311057 159.998299 
L 641.748403 160.667003 
L 644.185749 161.609819 
L 646.623096 162.841471 
L 649.060442 164.378698 
L 651.497789 166.240704 
L 653.935135 168.449698 
L 656.372482 171.031552 
L 658.809828 174.01662 
L 661.247174 177.440791 
L 663.684521 181.346827 
L 666.121867 185.786143 
L 668.559214 190.821164 
L 670.99656 196.52854 
L 672.82457 201.306774 
L 674.65258 206.56534 
L 676.48059 212.363079 
L 678.3086 218.771285 
L 680.136609 225.877219 
L 681.964619 233.788785 
L 683.792629 242.64074 
L 685.620639 252.602688 
L 687.448649 263.888495 
L 689.276658 276.764303 
L 691.104668 291.543491 
L 692.932678 308.52636 
L 694.760688 327.738391 
L 697.198034 354.370853 
L 698.416708 364.723654 
L 699.026044 367.935505 
L 699.635381 369.36 
L 700.244717 368.818378 
L 700.854054 366.357727 
L 701.463391 362.234079 
L 702.682064 350.544422 
L 707.556757 296.830649 
L 709.384767 280.181945 
L 711.212776 265.668196 
L 713.040786 252.982891 
L 714.868796 241.84863 
L 716.696806 232.043026 
L 718.524816 223.395761 
L 720.352826 215.780111 
L 722.180835 209.105253 
L 724.008845 203.310733 
L 725.836855 198.36331 
L 727.664865 194.256186 
L 728.883538 191.994282 
L 730.102211 190.129119 
L 731.320885 188.682888 
L 732.539558 187.687482 
L 733.148894 187.372128 
L 733.758231 187.187333 
L 734.367568 187.141316 
L 734.976904 187.243749 
L 735.586241 187.506039 
L 736.195577 187.94171 
L 736.804914 188.566878 
L 737.414251 189.400897 
L 738.023587 190.467203 
L 738.632924 191.794475 
L 739.24226 193.418237 
L 739.851597 195.383136 
L 740.460934 197.746257 
L 741.07027 200.582106 
L 741.679607 203.990381 
L 742.288943 208.108632 
L 742.89828 213.134054 
L 743.507617 219.363646 
L 744.116953 227.275183 
L 744.72629 237.71176 
L 745.335627 252.385537 
L 745.944963 275.735187 
L 746.5543 328.532364 
L 746.554862 433 
L 746.554862 433 
" clip-path="url(#p8d1c986e62)" style="fill: none; stroke: #008000; stroke-width: 1.5; stroke-linecap: square"/>
   </g>
   <g id="line2d_52">
    <path d="M 138.436364 220.431172 
L 139.0457 225.523921 
L 139.655037 229.473008 
L 140.264373 232.249534 
L 140.87371 233.909105 
L 141.483047 234.579393 
L 142.092383 234.434169 
L 142.70172 233.66384 
L 143.311057 232.451158 
L 144.52973 229.309275 
L 146.35774 224.345289 
L 147.576413 221.523619 
L 148.795086 219.301518 
L 150.013759 217.715278 
L 151.232432 216.739573 
L 151.841769 216.463766 
L 152.451106 216.318001 
L 153.669779 216.3787 
L 154.888452 216.841996 
L 156.107125 217.624021 
L 157.935135 219.205694 
L 162.200491 223.292434 
L 163.419165 224.200471 
L 164.637838 224.872349 
L 165.856511 225.264381 
L 167.075184 225.350507 
L 168.293857 225.123114 
L 169.512531 224.592154 
L 170.731204 223.782688 
L 171.949877 222.731313 
L 173.777887 220.798114 
L 176.215233 217.80516 
L 181.089926 211.652352 
L 183.527273 208.974654 
L 185.355283 207.258364 
L 187.183292 205.823699 
L 189.011302 204.681462 
L 190.839312 203.829845 
L 192.667322 203.256931 
L 194.495332 202.942547 
L 196.323342 202.859609 
L 198.151351 202.975115 
L 200.588698 203.371306 
L 204.244717 204.273423 
L 208.510074 205.336267 
L 210.94742 205.728567 
L 212.77543 205.843522 
L 214.60344 205.768327 
L 216.43145 205.480129 
L 218.259459 204.966635 
L 220.087469 204.226517 
L 221.915479 203.268925 
L 224.352826 201.686641 
L 226.790172 199.813827 
L 229.836855 197.181066 
L 242.023587 186.224939 
L 245.07027 183.920264 
L 248.116953 181.908491 
L 251.163636 180.205116 
L 254.210319 178.805599 
L 257.257002 177.688298 
L 260.303686 176.816937 
L 263.959705 176.02657 
L 268.834398 175.232868 
L 275.537101 174.141978 
L 279.19312 173.309517 
L 282.239803 172.391008 
L 285.286486 171.223398 
L 288.33317 169.783701 
L 291.379853 168.068525 
L 294.426536 166.093239 
L 298.082555 163.424427 
L 302.347912 159.995998 
L 309.050614 154.243114 
L 317.581327 146.960905 
L 322.45602 143.073739 
L 327.330713 139.469815 
L 332.205405 136.156581 
L 337.689435 132.731286 
L 345.001474 128.48464 
L 355.360197 122.479008 
L 360.844226 119.009464 
L 365.718919 115.644188 
L 370.593612 111.983805 
L 375.468305 108.041733 
L 381.561671 102.799652 
L 401.669779 85.1921 
L 406.544472 81.386296 
L 410.809828 78.340085 
L 414.465848 75.97224 
L 418.121867 73.850987 
L 421.777887 71.993393 
L 425.433907 70.413214 
L 428.48059 69.316215 
L 431.527273 68.42435 
L 434.573956 67.74142 
L 437.620639 67.270225 
L 440.667322 67.012639 
L 443.714005 66.96967 
L 446.760688 67.141482 
L 449.807371 67.527409 
L 452.854054 68.125927 
L 455.900737 68.934616 
L 458.94742 69.950086 
L 461.994103 71.167885 
L 465.650123 72.8883 
L 469.306143 74.87964 
L 472.962162 77.126545 
L 477.227518 80.045549 
L 481.492875 83.24983 
L 486.367568 87.203584 
L 492.460934 92.464978 
L 511.350369 109.05142 
L 516.225061 112.926535 
L 521.099754 116.512784 
L 525.974447 119.807067 
L 531.458477 123.212911 
L 538.770516 127.446001 
L 548.519902 133.098722 
L 554.003931 136.555679 
L 558.878624 139.904119 
L 563.753317 143.544815 
L 568.62801 147.46445 
L 575.330713 153.183232 
L 584.470762 161.002868 
L 588.736118 164.346306 
L 592.392138 166.912877 
L 595.438821 168.787064 
L 598.485504 170.392887 
L 601.532187 171.722239 
L 604.57887 172.786377 
L 607.625553 173.61585 
L 611.281572 174.369454 
L 617.374939 175.324029 
L 622.858968 176.264536 
L 626.514988 177.138833 
L 629.561671 178.103372 
L 632.608354 179.329975 
L 635.655037 180.849337 
L 638.70172 182.676577 
L 641.748403 184.808602 
L 644.795086 187.220975 
L 648.451106 190.414613 
L 659.419165 200.305239 
L 661.856511 202.112203 
L 664.293857 203.611324 
L 666.121867 204.498043 
L 667.949877 205.163139 
L 669.777887 205.600847 
L 671.605897 205.81614 
L 673.433907 205.824919 
L 675.871253 205.561856 
L 678.3086 205.064479 
L 686.839312 203.051262 
L 688.667322 202.877846 
L 690.495332 202.890701 
L 692.323342 203.124617 
L 694.151351 203.608748 
L 695.979361 204.365699 
L 697.807371 205.410318 
L 699.635381 206.748026 
L 701.463391 208.372544 
L 703.2914 210.262922 
L 705.728747 213.125948 
L 713.040786 222.1285 
L 714.868796 223.782688 
L 716.087469 224.592154 
L 717.306143 225.123114 
L 718.524816 225.350507 
L 719.743489 225.264381 
L 720.962162 224.872349 
L 722.180835 224.200471 
L 723.399509 223.292434 
L 725.227518 221.620063 
L 728.883538 218.107667 
L 730.102211 217.198517 
L 731.320885 216.565193 
L 732.539558 216.292919 
L 733.148894 216.318001 
L 733.758231 216.463766 
L 734.367568 216.739573 
L 734.976904 217.15414 
L 735.586241 217.715278 
L 736.804914 219.301518 
L 738.023587 221.523619 
L 739.24226 224.345289 
L 742.89828 233.66384 
L 743.507617 234.434169 
L 744.116953 234.579393 
L 744.72629 233.909105 
L 745.335627 232.249534 
L 745.944963 229.473008 
L 746.5543 225.523921 
L 747.163636 220.431172 
L 747.163636 220.431172 
" clip-path="url(#p8d1c986e62)" style="fill: none; stroke: #ffa500; stroke-width: 1.5; stroke-linecap: square"/>
   </g>
   <g id="line2d_53">
    <path d="M 138.436364 227.353613 
L 139.0457 227.428209 
L 140.264373 226.956025 
L 142.092383 226.211189 
L 144.52973 225.631282 
L 146.967076 224.93801 
L 155.497789 221.997001 
L 160.372482 220.562255 
L 164.637838 219.016085 
L 170.731204 216.792077 
L 185.355283 211.803055 
L 197.542015 207.156134 
L 207.900737 203.34662 
L 214.60344 200.588957 
L 231.055528 193.706851 
L 239.586241 190.083254 
L 246.89828 186.720297 
L 265.787715 177.633088 
L 274.927764 173.086594 
L 282.239803 169.209241 
L 291.379853 164.101409 
L 305.394595 155.998744 
L 314.534644 150.467796 
L 322.45602 145.397394 
L 330.986732 139.656009 
L 341.345455 132.403929 
L 351.704177 124.880892 
L 360.844226 117.952349 
L 370.593612 110.254305 
L 400.451106 86.420387 
L 406.544472 81.936269 
L 411.419165 78.585234 
L 415.684521 75.884956 
L 419.949877 73.454679 
L 423.605897 71.62566 
L 427.261916 70.063825 
L 430.3086 68.986526 
L 433.355283 68.127868 
L 436.401966 67.49906 
L 439.448649 67.108438 
L 442.495332 66.961228 
L 445.542015 67.059412 
L 448.588698 67.401667 
L 451.635381 67.983408 
L 454.682064 68.796906 
L 457.728747 69.831501 
L 460.77543 71.073914 
L 464.43145 72.817175 
L 468.087469 74.807309 
L 472.352826 77.398246 
L 477.227518 80.650809 
L 482.711548 84.594277 
L 489.414251 89.697336 
L 498.5543 96.950592 
L 525.974447 118.893481 
L 535.114496 125.782548 
L 544.863882 132.837567 
L 555.831941 140.491085 
L 564.362654 146.1952 
L 572.284029 151.223541 
L 580.814742 156.357931 
L 593.610811 163.754537 
L 604.57887 169.871028 
L 612.500246 174.019767 
L 621.640295 178.516557 
L 644.185749 189.264737 
L 651.497789 192.443494 
L 679.527273 204.054575 
L 686.839312 206.720528 
L 694.760688 209.649366 
L 706.338084 214.039693 
L 722.180835 219.477485 
L 726.446192 220.952626 
L 736.195577 224.017407 
L 739.24226 225.139105 
L 741.679607 225.766253 
L 743.507617 226.211189 
L 744.72629 226.669235 
L 746.5543 227.428209 
L 747.163636 227.353613 
L 747.163636 227.353613 
" clip-path="url(#p8d1c986e62)" style="fill: none; stroke: #800080; stroke-width: 1.5; stroke-linecap: square"/>
   </g>
   <g id="patch_3">
    <path d="M 108 384.48 
L 108 51.84 
" style="fill: none; stroke: #000000; stroke-width: 0.8; stroke-linejoin: miter; stroke-linecap: square"/>
   </g>
   <g id="patch_4">
    <path d="M 777.6 384.48 
L 777.6 51.84 
" style="fill: none; stroke: #000000; stroke-width: 0.8; stroke-linejoin: miter; stroke-linecap: square"/>
   </g>
   <g id="patch_5">
    <path d="M 108 384.48 
L 777.6 384.48 
" style="fill: none; stroke: #000000; stroke-width: 0.8; stroke-linejoin: miter; stroke-linecap: square"/>
   </g>
   <g id="patch_6">
    <path d="M 108 51.84 
L 777.6 51.84 
" style="fill: none; stroke: #000000; stroke-width: 0.8; stroke-linejoin: miter; stroke-linecap: square"/>
   </g>
   <g id="text_15">
    <!-- Approximation de f avec des nœuds de Tchebychev par l'interpolation de Lagrange -->
    <g transform="translate(192.931875 45.84) scale(0.12 -0.12)">
     <defs>
      <path id="DejaVuSans-41" d="M 2188 4044 
L 1331 1722 
L 3047 1722 
L 2188 4044 
z
M 1831 4666 
L 2547 4666 
L 4325 0 
L 3669 0 
L 3244 1197 
L 1141 1197 
L 716 0 
L 50 0 
L 1831 4666 
z
" transform="scale(0.015625)"/>
      <path id="DejaVuSans-70" d="M 1159 525 
L 1159 -1331 
L 581 -1331 
L 581 3500 
L 1159 3500 
L 1159 2969 
Q 1341 3281 1617 3432 
Q 1894 3584 2278 3584 
Q 2916 3584 3314 3078 
Q 3713 2572 3713 1747 
Q 3713 922 3314 415 
Q 2916 -91 2278 -91 
Q 1894 -91 1617 61 
Q 1341 213 1159 525 
z
M 3116 1747 
Q 3116 2381 2855 2742 
Q 2594 3103 2138 3103 
Q 1681 3103 1420 2742 
Q 1159 2381 1159 1747 
Q 1159 1113 1420 752 
Q 1681 391 2138 391 
Q 2594 391 2855 752 
Q 3116 1113 3116 1747 
z
" transform="scale(0.015625)"/>
      <path id="DejaVuSans-6e" d="M 3513 2113 
L 3513 0 
L 2938 0 
L 2938 2094 
Q 2938 2591 2744 2837 
Q 2550 3084 2163 3084 
Q 1697 3084 1428 2787 
Q 1159 2491 1159 1978 
L 1159 0 
L 581 0 
L 581 3500 
L 1159 3500 
L 1159 2956 
Q 1366 3272 1645 3428 
Q 1925 3584 2291 3584 
Q 2894 3584 3203 3211 
Q 3513 2838 3513 2113 
z
" transform="scale(0.015625)"/>
      <path id="DejaVuSans-64" d="M 2906 2969 
L 2906 4863 
L 3481 4863 
L 3481 0 
L 2906 0 
L 2906 525 
Q 2725 213 2448 61 
Q 2172 -91 1784 -91 
Q 1150 -91 751 415 
Q 353 922 353 1747 
Q 353 2572 751 3078 
Q 1150 3584 1784 3584 
Q 2172 3584 2448 3432 
Q 2725 3281 2906 2969 
z
M 947 1747 
Q 947 1113 1208 752 
Q 1469 391 1925 391 
Q 2381 391 2643 752 
Q 2906 1113 2906 1747 
Q 2906 2381 2643 2742 
Q 2381 3103 1925 3103 
Q 1469 3103 1208 2742 
Q 947 2381 947 1747 
z
" transform="scale(0.015625)"/>
      <path id="DejaVuSans-76" d="M 191 3500 
L 800 3500 
L 1894 563 
L 2988 3500 
L 3597 3500 
L 2284 0 
L 1503 0 
L 191 3500 
z
" transform="scale(0.015625)"/>
      <path id="DejaVuSans-73" d="M 2834 3397 
L 2834 2853 
Q 2591 2978 2328 3040 
Q 2066 3103 1784 3103 
Q 1356 3103 1142 2972 
Q 928 2841 928 2578 
Q 928 2378 1081 2264 
Q 1234 2150 1697 2047 
L 1894 2003 
Q 2506 1872 2764 1633 
Q 3022 1394 3022 966 
Q 3022 478 2636 193 
Q 2250 -91 1575 -91 
Q 1294 -91 989 -36 
Q 684 19 347 128 
L 347 722 
Q 666 556 975 473 
Q 1284 391 1588 391 
Q 1994 391 2212 530 
Q 2431 669 2431 922 
Q 2431 1156 2273 1281 
Q 2116 1406 1581 1522 
L 1381 1569 
Q 847 1681 609 1914 
Q 372 2147 372 2553 
Q 372 3047 722 3315 
Q 1072 3584 1716 3584 
Q 2034 3584 2315 3537 
Q 2597 3491 2834 3397 
z
" transform="scale(0.015625)"/>
      <path id="DejaVuSans-153" d="M 5631 2063 
Q 5625 2538 5369 2817 
Q 5113 3097 4684 3097 
Q 4206 3097 3917 2825 
Q 3628 2553 3584 2059 
L 5631 2063 
z
M 6209 1894 
L 6209 1613 
L 3566 1613 
Q 3603 1019 3922 708 
Q 4241 397 4813 397 
Q 5144 397 5456 478 
Q 5769 559 6075 722 
L 6075 178 
Q 5763 47 5438 -22 
Q 5113 -91 4781 -91 
Q 4281 -91 3903 81 
Q 3525 253 3272 594 
Q 3050 250 2723 79 
Q 2397 -91 1959 -91 
Q 1206 -91 779 398 
Q 353 888 353 1747 
Q 353 2609 779 3096 
Q 1206 3584 1959 3584 
Q 2397 3584 2726 3411 
Q 3056 3238 3263 2900 
Q 3506 3234 3868 3409 
Q 4231 3584 4678 3584 
Q 5384 3584 5796 3129 
Q 6209 2675 6209 1894 
z
M 1959 3097 
Q 1497 3097 1228 2736 
Q 959 2375 959 1747 
Q 959 1119 1226 758 
Q 1494 397 1959 397 
Q 2419 397 2687 759 
Q 2956 1122 2956 1747 
Q 2956 2369 2687 2733 
Q 2419 3097 1959 3097 
z
" transform="scale(0.015625)"/>
      <path id="DejaVuSans-54" d="M -19 4666 
L 3928 4666 
L 3928 4134 
L 2272 4134 
L 2272 0 
L 1638 0 
L 1638 4134 
L -19 4134 
L -19 4666 
z
" transform="scale(0.015625)"/>
      <path id="DejaVuSans-62" d="M 3116 1747 
Q 3116 2381 2855 2742 
Q 2594 3103 2138 3103 
Q 1681 3103 1420 2742 
Q 1159 2381 1159 1747 
Q 1159 1113 1420 752 
Q 1681 391 2138 391 
Q 2594 391 2855 752 
Q 3116 1113 3116 1747 
z
M 1159 2969 
Q 1341 3281 1617 3432 
Q 1894 3584 2278 3584 
Q 2916 3584 3314 3078 
Q 3713 2572 3713 1747 
Q 3713 922 3314 415 
Q 2916 -91 2278 -91 
Q 1894 -91 1617 61 
Q 1341 213 1159 525 
L 1159 0 
L 581 0 
L 581 4863 
L 1159 4863 
L 1159 2969 
z
" transform="scale(0.015625)"/>
      <path id="DejaVuSans-79" d="M 2059 -325 
Q 1816 -950 1584 -1140 
Q 1353 -1331 966 -1331 
L 506 -1331 
L 506 -850 
L 844 -850 
Q 1081 -850 1212 -737 
Q 1344 -625 1503 -206 
L 1606 56 
L 191 3500 
L 800 3500 
L 1894 763 
L 2988 3500 
L 3597 3500 
L 2059 -325 
z
" transform="scale(0.015625)"/>
      <path id="DejaVuSans-27" d="M 1147 4666 
L 1147 2931 
L 616 2931 
L 616 4666 
L 1147 4666 
z
" transform="scale(0.015625)"/>
      <path id="DejaVuSans-4c" d="M 628 4666 
L 1259 4666 
L 1259 531 
L 3531 531 
L 3531 0 
L 628 0 
L 628 4666 
z
" transform="scale(0.015625)"/>
     </defs>
     <use xlink:href="#DejaVuSans-41"/>
     <use xlink:href="#DejaVuSans-70" x="68.408203"/>
     <use xlink:href="#DejaVuSans-70" x="131.884766"/>
     <use xlink:href="#DejaVuSans-72" x="195.361328"/>
     <use xlink:href="#DejaVuSans-6f" x="234.224609"/>
     <use xlink:href="#DejaVuSans-78" x="292.28125"/>
     <use xlink:href="#DejaVuSans-69" x="351.460938"/>
     <use xlink:href="#DejaVuSans-6d" x="379.244141"/>
     <use xlink:href="#DejaVuSans-61" x="476.65625"/>
     <use xlink:href="#DejaVuSans-74" x="537.935547"/>
     <use xlink:href="#DejaVuSans-69" x="577.144531"/>
     <use xlink:href="#DejaVuSans-6f" x="604.927734"/>
     <use xlink:href="#DejaVuSans-6e" x="666.109375"/>
     <use xlink:href="#DejaVuSans-20" x="729.488281"/>
     <use xlink:href="#DejaVuSans-64" x="761.275391"/>
     <use xlink:href="#DejaVuSans-65" x="824.751953"/>
     <use xlink:href="#DejaVuSans-20" x="886.275391"/>
     <use xlink:href="#DejaVuSans-66" x="918.0625"/>
     <use xlink:href="#DejaVuSans-20" x="953.267578"/>
     <use xlink:href="#DejaVuSans-61" x="985.054688"/>
     <use xlink:href="#DejaVuSans-76" x="1046.333984"/>
     <use xlink:href="#DejaVuSans-65" x="1105.513672"/>
     <use xlink:href="#DejaVuSans-63" x="1167.037109"/>
     <use xlink:href="#DejaVuSans-20" x="1222.017578"/>
     <use xlink:href="#DejaVuSans-64" x="1253.804688"/>
     <use xlink:href="#DejaVuSans-65" x="1317.28125"/>
     <use xlink:href="#DejaVuSans-73" x="1378.804688"/>
     <use xlink:href="#DejaVuSans-20" x="1430.904297"/>
     <use xlink:href="#DejaVuSans-6e" x="1462.691406"/>
     <use xlink:href="#DejaVuSans-153" x="1526.070312"/>
     <use xlink:href="#DejaVuSans-75" x="1628.365234"/>
     <use xlink:href="#DejaVuSans-64" x="1691.744141"/>
     <use xlink:href="#DejaVuSans-73" x="1755.220703"/>
     <use xlink:href="#DejaVuSans-20" x="1807.320312"/>
     <use xlink:href="#DejaVuSans-64" x="1839.107422"/>
     <use xlink:href="#DejaVuSans-65" x="1902.583984"/>
     <use xlink:href="#DejaVuSans-20" x="1964.107422"/>
     <use xlink:href="#DejaVuSans-54" x="1995.894531"/>
     <use xlink:href="#DejaVuSans-63" x="2039.978516"/>
     <use xlink:href="#DejaVuSans-68" x="2094.958984"/>
     <use xlink:href="#DejaVuSans-65" x="2158.337891"/>
     <use xlink:href="#DejaVuSans-62" x="2219.861328"/>
     <use xlink:href="#DejaVuSans-79" x="2283.337891"/>
     <use xlink:href="#DejaVuSans-63" x="2342.517578"/>
     <use xlink:href="#DejaVuSans-68" x="2397.498047"/>
     <use xlink:href="#DejaVuSans-65" x="2460.876953"/>
     <use xlink:href="#DejaVuSans-76" x="2522.400391"/>
     <use xlink:href="#DejaVuSans-20" x="2581.580078"/>
     <use xlink:href="#DejaVuSans-70" x="2613.367188"/>
     <use xlink:href="#DejaVuSans-61" x="2676.84375"/>
     <use xlink:href="#DejaVuSans-72" x="2738.123047"/>
     <use xlink:href="#DejaVuSans-20" x="2779.236328"/>
     <use xlink:href="#DejaVuSans-6c" x="2811.023438"/>
     <use xlink:href="#DejaVuSans-27" x="2838.806641"/>
     <use xlink:href="#DejaVuSans-69" x="2866.296875"/>
     <use xlink:href="#DejaVuSans-6e" x="2894.080078"/>
     <use xlink:href="#DejaVuSans-74" x="2957.458984"/>
     <use xlink:href="#DejaVuSans-65" x="2996.667969"/>
     <use xlink:href="#DejaVuSans-72" x="3058.191406"/>
     <use xlink:href="#DejaVuSans-70" x="3099.304688"/>
     <use xlink:href="#DejaVuSans-6f" x="3162.78125"/>
     <use xlink:href="#DejaVuSans-6c" x="3223.962891"/>
     <use xlink:href="#DejaVuSans-61" x="3251.746094"/>
     <use xlink:href="#DejaVuSans-74" x="3313.025391"/>
     <use xlink:href="#DejaVuSans-69" x="3352.234375"/>
     <use xlink:href="#DejaVuSans-6f" x="3380.017578"/>
     <use xlink:href="#DejaVuSans-6e" x="3441.199219"/>
     <use xlink:href="#DejaVuSans-20" x="3504.578125"/>
     <use xlink:href="#DejaVuSans-64" x="3536.365234"/>
     <use xlink:href="#DejaVuSans-65" x="3599.841797"/>
     <use xlink:href="#DejaVuSans-20" x="3661.365234"/>
     <use xlink:href="#DejaVuSans-4c" x="3693.152344"/>
     <use xlink:href="#DejaVuSans-61" x="3748.865234"/>
     <use xlink:href="#DejaVuSans-67" x="3810.144531"/>
     <use xlink:href="#DejaVuSans-72" x="3873.621094"/>
     <use xlink:href="#DejaVuSans-61" x="3914.734375"/>
     <use xlink:href="#DejaVuSans-6e" x="3976.013672"/>
     <use xlink:href="#DejaVuSans-67" x="4039.392578"/>
     <use xlink:href="#DejaVuSans-65" x="4102.869141"/>
    </g>
   </g>
   <g id="PathCollection_1">
    <defs>
     <path id="m16102fbe59" d="M 0 2.5 
C 0.663008 2.5 1.29895 2.236584 1.767767 1.767767 
C 2.236584 1.29895 2.5 0.663008 2.5 0 
C 2.5 -0.663008 2.236584 -1.29895 1.767767 -1.767767 
C 1.29895 -2.236584 0.663008 -2.5 0 -2.5 
C -0.663008 -2.5 -1.29895 -2.236584 -1.767767 -1.767767 
C -2.236584 -1.29895 -2.5 -0.663008 -2.5 0 
C -2.5 0.663008 -2.236584 1.29895 -1.767767 1.767767 
C -1.29895 2.236584 -0.663008 2.5 0 2.5 
z
" style="stroke: #000000"/>
    </defs>
    <g clip-path="url(#p8d1c986e62)">
     <use xlink:href="#m16102fbe59" x="736.792697" y="224.215663" style="stroke: #000000"/>
     <use xlink:href="#m16102fbe59" x="658.017591" y="195.202339" style="stroke: #000000"/>
     <use xlink:href="#m16102fbe59" x="521.575106" y="115.436292" style="stroke: #000000"/>
     <use xlink:href="#m16102fbe59" x="364.024894" y="115.436292" style="stroke: #000000"/>
     <use xlink:href="#m16102fbe59" x="227.582409" y="195.202339" style="stroke: #000000"/>
     <use xlink:href="#m16102fbe59" x="148.807303" y="224.215663" style="stroke: #000000"/>
    </g>
   </g>
   <g id="PathCollection_2">
    <g clip-path="url(#p8d1c986e62)">
     <use xlink:href="#m16102fbe59" x="744.065653" y="226.527168" style="stroke: #000000"/>
     <use xlink:href="#m16102fbe59" x="719.658902" y="218.556073" style="stroke: #000000"/>
     <use xlink:href="#m16102fbe59" x="672.822689" y="201.301619" style="stroke: #000000"/>
     <use xlink:href="#m16102fbe59" x="607.351405" y="171.277657" style="stroke: #000000"/>
     <use xlink:href="#m16102fbe59" x="528.549145" y="120.833898" style="stroke: #000000"/>
     <use xlink:href="#m16102fbe59" x="442.8" y="66.96" style="stroke: #000000"/>
     <use xlink:href="#m16102fbe59" x="357.050855" y="120.833898" style="stroke: #000000"/>
     <use xlink:href="#m16102fbe59" x="278.248595" y="171.277657" style="stroke: #000000"/>
     <use xlink:href="#m16102fbe59" x="212.777311" y="201.301619" style="stroke: #000000"/>
     <use xlink:href="#m16102fbe59" x="165.941098" y="218.556073" style="stroke: #000000"/>
     <use xlink:href="#m16102fbe59" x="141.534347" y="226.527168" style="stroke: #000000"/>
    </g>
   </g>
   <g id="PathCollection_3">
    <g clip-path="url(#p8d1c986e62)">
     <use xlink:href="#m16102fbe59" x="746.312574" y="227.230905" style="stroke: #000000"/>
     <use xlink:href="#m16102fbe59" x="739.532605" y="225.092576" style="stroke: #000000"/>
     <use xlink:href="#m16102fbe59" x="726.124119" y="220.728243" style="stroke: #000000"/>
     <use xlink:href="#m16102fbe59" x="706.386641" y="213.948934" style="stroke: #000000"/>
     <use xlink:href="#m16102fbe59" x="680.761073" y="204.433169" style="stroke: #000000"/>
     <use xlink:href="#m16102fbe59" x="649.819848" y="191.66922" style="stroke: #000000"/>
     <use xlink:href="#m16102fbe59" x="614.254141" y="174.856981" style="stroke: #000000"/>
     <use xlink:href="#m16102fbe59" x="574.858433" y="152.773095" style="stroke: #000000"/>
     <use xlink:href="#m16102fbe59" x="532.512757" y="123.839136" style="stroke: #000000"/>
     <use xlink:href="#m16102fbe59" x="488.163046" y="88.723596" style="stroke: #000000"/>
     <use xlink:href="#m16102fbe59" x="442.8" y="66.96" style="stroke: #000000"/>
     <use xlink:href="#m16102fbe59" x="397.436954" y="88.723596" style="stroke: #000000"/>
     <use xlink:href="#m16102fbe59" x="353.087243" y="123.839136" style="stroke: #000000"/>
     <use xlink:href="#m16102fbe59" x="310.741567" y="152.773095" style="stroke: #000000"/>
     <use xlink:href="#m16102fbe59" x="271.345859" y="174.856981" style="stroke: #000000"/>
     <use xlink:href="#m16102fbe59" x="235.780152" y="191.66922" style="stroke: #000000"/>
     <use xlink:href="#m16102fbe59" x="204.838927" y="204.433169" style="stroke: #000000"/>
     <use xlink:href="#m16102fbe59" x="179.213359" y="213.948934" style="stroke: #000000"/>
     <use xlink:href="#m16102fbe59" x="159.475881" y="220.728243" style="stroke: #000000"/>
     <use xlink:href="#m16102fbe59" x="146.067395" y="225.092576" style="stroke: #000000"/>
     <use xlink:href="#m16102fbe59" x="139.287426" y="227.230905" style="stroke: #000000"/>
    </g>
   </g>
   <g id="PathCollection_4">
    <g clip-path="url(#p8d1c986e62)">
     <use xlink:href="#m16102fbe59" x="746.940289" y="227.426646" style="stroke: #000000"/>
     <use xlink:href="#m16102fbe59" x="745.155472" y="226.869102" style="stroke: #000000"/>
     <use xlink:href="#m16102fbe59" x="741.596314" y="225.748169" style="stroke: #000000"/>
     <use xlink:href="#m16102fbe59" x="736.2837" y="224.051932" style="stroke: #000000"/>
     <use xlink:href="#m16102fbe59" x="729.248807" y="221.761929" style="stroke: #000000"/>
     <use xlink:href="#m16102fbe59" x="720.532919" y="218.852403" style="stroke: #000000"/>
     <use xlink:href="#m16102fbe59" x="710.187183" y="215.289212" style="stroke: #000000"/>
     <use xlink:href="#m16102fbe59" x="698.272313" y="211.028326" style="stroke: #000000"/>
     <use xlink:href="#m16102fbe59" x="684.85823" y="206.013783" style="stroke: #000000"/>
     <use xlink:href="#m16102fbe59" x="670.023653" y="200.17498" style="stroke: #000000"/>
     <use xlink:href="#m16102fbe59" x="653.855638" y="193.423107" style="stroke: #000000"/>
     <use xlink:href="#m16102fbe59" x="636.449063" y="185.646608" style="stroke: #000000"/>
     <use xlink:href="#m16102fbe59" x="617.906079" y="176.705755" style="stroke: #000000"/>
     <use xlink:href="#m16102fbe59" x="598.335504" y="166.427222" style="stroke: #000000"/>
     <use xlink:href="#m16102fbe59" x="577.852183" y="154.60214" style="stroke: #000000"/>
     <use xlink:href="#m16102fbe59" x="556.576323" y="140.998969" style="stroke: #000000"/>
     <use xlink:href="#m16102fbe59" x="534.632779" y="125.426728" style="stroke: #000000"/>
     <use xlink:href="#m16102fbe59" x="512.150323" y="107.95558" style="stroke: #000000"/>
     <use xlink:href="#m16102fbe59" x="489.260891" y="89.578002" style="stroke: #000000"/>
     <use xlink:href="#m16102fbe59" x="466.098809" y="73.696073" style="stroke: #000000"/>
     <use xlink:href="#m16102fbe59" x="442.8" y="66.96" style="stroke: #000000"/>
     <use xlink:href="#m16102fbe59" x="419.501191" y="73.696073" style="stroke: #000000"/>
     <use xlink:href="#m16102fbe59" x="396.339109" y="89.578002" style="stroke: #000000"/>
     <use xlink:href="#m16102fbe59" x="373.449677" y="107.95558" style="stroke: #000000"/>
     <use xlink:href="#m16102fbe59" x="350.967221" y="125.426728" style="stroke: #000000"/>
     <use xlink:href="#m16102fbe59" x="329.023677" y="140.998969" style="stroke: #000000"/>
     <use xlink:href="#m16102fbe59" x="307.747817" y="154.60214" style="stroke: #000000"/>
     <use xlink:href="#m16102fbe59" x="287.264496" y="166.427222" style="stroke: #000000"/>
     <use xlink:href="#m16102fbe59" x="267.693921" y="176.705755" style="stroke: #000000"/>
     <use xlink:href="#m16102fbe59" x="249.150937" y="185.646608" style="stroke: #000000"/>
     <use xlink:href="#m16102fbe59" x="231.744362" y="193.423107" style="stroke: #000000"/>
     <use xlink:href="#m16102fbe59" x="215.576347" y="200.17498" style="stroke: #000000"/>
     <use xlink:href="#m16102fbe59" x="200.74177" y="206.013783" style="stroke: #000000"/>
     <use xlink:href="#m16102fbe59" x="187.327687" y="211.028326" style="stroke: #000000"/>
     <use xlink:href="#m16102fbe59" x="175.412817" y="215.289212" style="stroke: #000000"/>
     <use xlink:href="#m16102fbe59" x="165.067081" y="218.852403" style="stroke: #000000"/>
     <use xlink:href="#m16102fbe59" x="156.351193" y="221.761929" style="stroke: #000000"/>
     <use xlink:href="#m16102fbe59" x="149.3163" y="224.051932" style="stroke: #000000"/>
     <use xlink:href="#m16102fbe59" x="144.003686" y="225.748169" style="stroke: #000000"/>
     <use xlink:href="#m16102fbe59" x="140.444528" y="226.869102" style="stroke: #000000"/>
     <use xlink:href="#m16102fbe59" x="138.659711" y="227.426646" style="stroke: #000000"/>
    </g>
   </g>
   <g id="legend_1">
    <g id="patch_7">
     <path d="M 638.979687 133.230625 
L 770.6 133.230625 
Q 772.6 133.230625 772.6 131.230625 
L 772.6 58.84 
Q 772.6 56.84 770.6 56.84 
L 638.979687 56.84 
Q 636.979687 56.84 636.979687 58.84 
L 636.979687 131.230625 
Q 636.979687 133.230625 638.979687 133.230625 
z
" style="fill: #ffffff; opacity: 0.8; stroke: #cccccc; stroke-linejoin: miter"/>
    </g>
    <g id="line2d_54">
     <path d="M 640.979687 64.938437 
L 650.979687 64.938437 
L 660.979687 64.938437 
" style="fill: none; stroke: #000000; stroke-width: 1.5; stroke-linecap: square"/>
    </g>
    <g id="text_16">
     <!-- f(x) = 1 / (1 + 25x²) -->
     <g transform="translate(668.979687 68.438437) scale(0.1 -0.1)">
      <defs>
       <path id="DejaVuSans-3d" d="M 678 2906 
L 4684 2906 
L 4684 2381 
L 678 2381 
L 678 2906 
z
M 678 1631 
L 4684 1631 
L 4684 1100 
L 678 1100 
L 678 1631 
z
" transform="scale(0.015625)"/>
       <path id="DejaVuSans-2f" d="M 1625 4666 
L 2156 4666 
L 531 -594 
L 0 -594 
L 1625 4666 
z
" transform="scale(0.015625)"/>
       <path id="DejaVuSans-2b" d="M 2944 4013 
L 2944 2272 
L 4684 2272 
L 4684 1741 
L 2944 1741 
L 2944 0 
L 2419 0 
L 2419 1741 
L 678 1741 
L 678 2272 
L 2419 2272 
L 2419 4013 
L 2944 4013 
z
" transform="scale(0.015625)"/>
       <path id="DejaVuSans-b2" d="M 838 2444 
L 2163 2444 
L 2163 2088 
L 294 2088 
L 294 2431 
Q 400 2528 597 2703 
Q 1672 3656 1672 3950 
Q 1672 4156 1509 4282 
Q 1347 4409 1081 4409 
Q 919 4409 728 4354 
Q 538 4300 313 4191 
L 313 4575 
Q 553 4663 761 4706 
Q 969 4750 1147 4750 
Q 1600 4750 1872 4544 
Q 2144 4338 2144 4000 
Q 2144 3566 1109 2678 
Q 934 2528 838 2444 
z
" transform="scale(0.015625)"/>
      </defs>
      <use xlink:href="#DejaVuSans-66"/>
      <use xlink:href="#DejaVuSans-28" x="35.205078"/>
      <use xlink:href="#DejaVuSans-78" x="74.21875"/>
      <use xlink:href="#DejaVuSans-29" x="133.398438"/>
      <use xlink:href="#DejaVuSans-20" x="172.412109"/>
      <use xlink:href="#DejaVuSans-3d" x="204.199219"/>
      <use xlink:href="#DejaVuSans-20" x="287.988281"/>
      <use xlink:href="#DejaVuSans-31" x="319.775391"/>
      <use xlink:href="#DejaVuSans-20" x="383.398438"/>
      <use xlink:href="#DejaVuSans-2f" x="415.185547"/>
      <use xlink:href="#DejaVuSans-20" x="448.876953"/>
      <use xlink:href="#DejaVuSans-28" x="480.664062"/>
      <use xlink:href="#DejaVuSans-31" x="519.677734"/>
      <use xlink:href="#DejaVuSans-20" x="583.300781"/>
      <use xlink:href="#DejaVuSans-2b" x="615.087891"/>
      <use xlink:href="#DejaVuSans-20" x="698.876953"/>
      <use xlink:href="#DejaVuSans-32" x="730.664062"/>
      <use xlink:href="#DejaVuSans-35" x="794.287109"/>
      <use xlink:href="#DejaVuSans-78" x="857.910156"/>
      <use xlink:href="#DejaVuSans-b2" x="917.089844"/>
      <use xlink:href="#DejaVuSans-29" x="957.177734"/>
     </g>
    </g>
    <g id="line2d_55">
     <path d="M 640.979687 79.616562 
L 650.979687 79.616562 
L 660.979687 79.616562 
" style="fill: none; stroke: #0000ff; stroke-width: 1.5; stroke-linecap: square"/>
    </g>
    <g id="text_17">
     <!-- N=5 -->
     <g transform="translate(668.979687 83.116562) scale(0.1 -0.1)">
      <defs>
       <path id="DejaVuSans-4e" d="M 628 4666 
L 1478 4666 
L 3547 763 
L 3547 4666 
L 4159 4666 
L 4159 0 
L 3309 0 
L 1241 3903 
L 1241 0 
L 628 0 
L 628 4666 
z
" transform="scale(0.015625)"/>
      </defs>
      <use xlink:href="#DejaVuSans-4e"/>
      <use xlink:href="#DejaVuSans-3d" x="74.804688"/>
      <use xlink:href="#DejaVuSans-35" x="158.59375"/>
     </g>
    </g>
    <g id="line2d_56">
     <path d="M 640.979687 94.294687 
L 650.979687 94.294687 
L 660.979687 94.294687 
" style="fill: none; stroke: #008000; stroke-width: 1.5; stroke-linecap: square"/>
    </g>
    <g id="text_18">
     <!-- N=10 -->
     <g transform="translate(668.979687 97.794687) scale(0.1 -0.1)">
      <use xlink:href="#DejaVuSans-4e"/>
      <use xlink:href="#DejaVuSans-3d" x="74.804688"/>
      <use xlink:href="#DejaVuSans-31" x="158.59375"/>
      <use xlink:href="#DejaVuSans-30" x="222.216797"/>
     </g>
    </g>
    <g id="line2d_57">
     <path d="M 640.979687 108.972812 
L 650.979687 108.972812 
L 660.979687 108.972812 
" style="fill: none; stroke: #ffa500; stroke-width: 1.5; stroke-linecap: square"/>
    </g>
    <g id="text_19">
     <!-- N=20 -->
     <g transform="translate(668.979687 112.472812) scale(0.1 -0.1)">
      <use xlink:href="#DejaVuSans-4e"/>
      <use xlink:href="#DejaVuSans-3d" x="74.804688"/>
      <use xlink:href="#DejaVuSans-32" x="158.59375"/>
      <use xlink:href="#DejaVuSans-30" x="222.216797"/>
     </g>
    </g>
    <g id="line2d_58">
     <path d="M 640.979687 123.650937 
L 650.979687 123.650937 
L 660.979687 123.650937 
" style="fill: none; stroke: #800080; stroke-width: 1.5; stroke-linecap: square"/>
    </g>
    <g id="text_20">
     <!-- N=40 -->
     <g transform="translate(668.979687 127.150937) scale(0.1 -0.1)">
      <defs>
       <path id="DejaVuSans-34" d="M 2419 4116 
L 825 1625 
L 2419 1625 
L 2419 4116 
z
M 2253 4666 
L 3047 4666 
L 3047 1625 
L 3713 1625 
L 3713 1100 
L 3047 1100 
L 3047 0 
L 2419 0 
L 2419 1100 
L 313 1100 
L 313 1709 
L 2253 4666 
z
" transform="scale(0.015625)"/>
      </defs>
      <use xlink:href="#DejaVuSans-4e"/>
      <use xlink:href="#DejaVuSans-3d" x="74.804688"/>
      <use xlink:href="#DejaVuSans-34" x="158.59375"/>
      <use xlink:href="#DejaVuSans-30" x="222.216797"/>
     </g>
    </g>
   </g>
  </g>
 </g>
 <defs>
  <clipPath id="p8d1c986e62">
   <rect x="108" y="51.84" width="669.6" height="332.64"/>
  </clipPath>
 </defs>
</svg>
