<?xml version="1.0" encoding="utf-8" standalone="no"?>
<!DOCTYPE svg PUBLIC "-//W3C//DTD SVG 1.1//EN"
  "http://www.w3.org/Graphics/SVG/1.1/DTD/svg11.dtd">
<svg xmlns:xlink="http://www.w3.org/1999/xlink" width="864pt" height="432pt" viewBox="0 0 864 432" xmlns="http://www.w3.org/2000/svg" version="1.1">
 <metadata>
  <rdf:RDF xmlns:dc="http://purl.org/dc/elements/1.1/" xmlns:cc="http://creativecommons.org/ns#" xmlns:rdf="http://www.w3.org/1999/02/22-rdf-syntax-ns#">
   <cc:Work>
    <dc:type rdf:resource="http://purl.org/dc/dcmitype/StillImage"/>
    <dc:date>2024-11-02T16:53:46.859852</dc:date>
    <dc:format>image/svg+xml</dc:format>
    <dc:creator>
     <cc:Agent>
      <dc:title>Matplotlib v3.9.2, https://matplotlib.org/</dc:title>
     </cc:Agent>
    </dc:creator>
   </cc:Work>
  </rdf:RDF>
 </metadata>
 <defs>
  <style type="text/css">*{stroke-linejoin: round; stroke-linecap: butt}</style>
 </defs>
 <g id="figure_1">
  <g id="patch_1">
   <path d="M 0 432 
L 864 432 
L 864 0 
L 0 0 
z
" style="fill: #ffffff"/>
  </g>
  <g id="axes_1">
   <g id="patch_2">
    <path d="M 108 384.48 
L 777.6 384.48 
L 777.6 51.84 
L 108 51.84 
z
" style="fill: #ffffff"/>
   </g>
   <g id="matplotlib.axis_1">
    <g id="xtick_1">
     <g id="line2d_1">
      <path d="M 138.436364 384.48 
L 138.436364 51.84 
" clip-path="url(#pd1f1fd0e98)" style="fill: none; stroke: #b0b0b0; stroke-width: 0.8; stroke-linecap: square"/>
     </g>
     <g id="line2d_2">
      <defs>
       <path id="m6b61137019" d="M 0 0 
L 0 3.5 
" style="stroke: #000000; stroke-width: 0.8"/>
      </defs>
      <g>
       <use xlink:href="#m6b61137019" x="138.436364" y="384.48" style="stroke: #000000; stroke-width: 0.8"/>
      </g>
     </g>
     <g id="text_1">
      <!-- −1.00 -->
      <g transform="translate(123.113707 399.078438) scale(0.1 -0.1)">
       <defs>
        <path id="DejaVuSans-2212" d="M 678 2272 
L 4684 2272 
L 4684 1741 
L 678 1741 
L 678 2272 
z
" transform="scale(0.015625)"/>
        <path id="DejaVuSans-31" d="M 794 531 
L 1825 531 
L 1825 4091 
L 703 3866 
L 703 4441 
L 1819 4666 
L 2450 4666 
L 2450 531 
L 3481 531 
L 3481 0 
L 794 0 
L 794 531 
z
" transform="scale(0.015625)"/>
        <path id="DejaVuSans-2e" d="M 684 794 
L 1344 794 
L 1344 0 
L 684 0 
L 684 794 
z
" transform="scale(0.015625)"/>
        <path id="DejaVuSans-30" d="M 2034 4250 
Q 1547 4250 1301 3770 
Q 1056 3291 1056 2328 
Q 1056 1369 1301 889 
Q 1547 409 2034 409 
Q 2525 409 2770 889 
Q 3016 1369 3016 2328 
Q 3016 3291 2770 3770 
Q 2525 4250 2034 4250 
z
M 2034 4750 
Q 2819 4750 3233 4129 
Q 3647 3509 3647 2328 
Q 3647 1150 3233 529 
Q 2819 -91 2034 -91 
Q 1250 -91 836 529 
Q 422 1150 422 2328 
Q 422 3509 836 4129 
Q 1250 4750 2034 4750 
z
" transform="scale(0.015625)"/>
       </defs>
       <use xlink:href="#DejaVuSans-2212"/>
       <use xlink:href="#DejaVuSans-31" x="83.789062"/>
       <use xlink:href="#DejaVuSans-2e" x="147.412109"/>
       <use xlink:href="#DejaVuSans-30" x="179.199219"/>
       <use xlink:href="#DejaVuSans-30" x="242.822266"/>
      </g>
     </g>
    </g>
    <g id="xtick_2">
     <g id="line2d_3">
      <path d="M 214.527273 384.48 
L 214.527273 51.84 
" clip-path="url(#pd1f1fd0e98)" style="fill: none; stroke: #b0b0b0; stroke-width: 0.8; stroke-linecap: square"/>
     </g>
     <g id="line2d_4">
      <g>
       <use xlink:href="#m6b61137019" x="214.527273" y="384.48" style="stroke: #000000; stroke-width: 0.8"/>
      </g>
     </g>
     <g id="text_2">
      <!-- −0.75 -->
      <g transform="translate(199.204616 399.078438) scale(0.1 -0.1)">
       <defs>
        <path id="DejaVuSans-37" d="M 525 4666 
L 3525 4666 
L 3525 4397 
L 1831 0 
L 1172 0 
L 2766 4134 
L 525 4134 
L 525 4666 
z
" transform="scale(0.015625)"/>
        <path id="DejaVuSans-35" d="M 691 4666 
L 3169 4666 
L 3169 4134 
L 1269 4134 
L 1269 2991 
Q 1406 3038 1543 3061 
Q 1681 3084 1819 3084 
Q 2600 3084 3056 2656 
Q 3513 2228 3513 1497 
Q 3513 744 3044 326 
Q 2575 -91 1722 -91 
Q 1428 -91 1123 -41 
Q 819 9 494 109 
L 494 744 
Q 775 591 1075 516 
Q 1375 441 1709 441 
Q 2250 441 2565 725 
Q 2881 1009 2881 1497 
Q 2881 1984 2565 2268 
Q 2250 2553 1709 2553 
Q 1456 2553 1204 2497 
Q 953 2441 691 2322 
L 691 4666 
z
" transform="scale(0.015625)"/>
       </defs>
       <use xlink:href="#DejaVuSans-2212"/>
       <use xlink:href="#DejaVuSans-30" x="83.789062"/>
       <use xlink:href="#DejaVuSans-2e" x="147.412109"/>
       <use xlink:href="#DejaVuSans-37" x="179.199219"/>
       <use xlink:href="#DejaVuSans-35" x="242.822266"/>
      </g>
     </g>
    </g>
    <g id="xtick_3">
     <g id="line2d_5">
      <path d="M 290.618182 384.48 
L 290.618182 51.84 
" clip-path="url(#pd1f1fd0e98)" style="fill: none; stroke: #b0b0b0; stroke-width: 0.8; stroke-linecap: square"/>
     </g>
     <g id="line2d_6">
      <g>
       <use xlink:href="#m6b61137019" x="290.618182" y="384.48" style="stroke: #000000; stroke-width: 0.8"/>
      </g>
     </g>
     <g id="text_3">
      <!-- −0.50 -->
      <g transform="translate(275.295526 399.078438) scale(0.1 -0.1)">
       <use xlink:href="#DejaVuSans-2212"/>
       <use xlink:href="#DejaVuSans-30" x="83.789062"/>
       <use xlink:href="#DejaVuSans-2e" x="147.412109"/>
       <use xlink:href="#DejaVuSans-35" x="179.199219"/>
       <use xlink:href="#DejaVuSans-30" x="242.822266"/>
      </g>
     </g>
    </g>
    <g id="xtick_4">
     <g id="line2d_7">
      <path d="M 366.709091 384.48 
L 366.709091 51.84 
" clip-path="url(#pd1f1fd0e98)" style="fill: none; stroke: #b0b0b0; stroke-width: 0.8; stroke-linecap: square"/>
     </g>
     <g id="line2d_8">
      <g>
       <use xlink:href="#m6b61137019" x="366.709091" y="384.48" style="stroke: #000000; stroke-width: 0.8"/>
      </g>
     </g>
     <g id="text_4">
      <!-- −0.25 -->
      <g transform="translate(351.386435 399.078438) scale(0.1 -0.1)">
       <defs>
        <path id="DejaVuSans-32" d="M 1228 531 
L 3431 531 
L 3431 0 
L 469 0 
L 469 531 
Q 828 903 1448 1529 
Q 2069 2156 2228 2338 
Q 2531 2678 2651 2914 
Q 2772 3150 2772 3378 
Q 2772 3750 2511 3984 
Q 2250 4219 1831 4219 
Q 1534 4219 1204 4116 
Q 875 4013 500 3803 
L 500 4441 
Q 881 4594 1212 4672 
Q 1544 4750 1819 4750 
Q 2544 4750 2975 4387 
Q 3406 4025 3406 3419 
Q 3406 3131 3298 2873 
Q 3191 2616 2906 2266 
Q 2828 2175 2409 1742 
Q 1991 1309 1228 531 
z
" transform="scale(0.015625)"/>
       </defs>
       <use xlink:href="#DejaVuSans-2212"/>
       <use xlink:href="#DejaVuSans-30" x="83.789062"/>
       <use xlink:href="#DejaVuSans-2e" x="147.412109"/>
       <use xlink:href="#DejaVuSans-32" x="179.199219"/>
       <use xlink:href="#DejaVuSans-35" x="242.822266"/>
      </g>
     </g>
    </g>
    <g id="xtick_5">
     <g id="line2d_9">
      <path d="M 442.8 384.48 
L 442.8 51.84 
" clip-path="url(#pd1f1fd0e98)" style="fill: none; stroke: #b0b0b0; stroke-width: 0.8; stroke-linecap: square"/>
     </g>
     <g id="line2d_10">
      <g>
       <use xlink:href="#m6b61137019" x="442.8" y="384.48" style="stroke: #000000; stroke-width: 0.8"/>
      </g>
     </g>
     <g id="text_5">
      <!-- 0.00 -->
      <g transform="translate(431.667188 399.078438) scale(0.1 -0.1)">
       <use xlink:href="#DejaVuSans-30"/>
       <use xlink:href="#DejaVuSans-2e" x="63.623047"/>
       <use xlink:href="#DejaVuSans-30" x="95.410156"/>
       <use xlink:href="#DejaVuSans-30" x="159.033203"/>
      </g>
     </g>
    </g>
    <g id="xtick_6">
     <g id="line2d_11">
      <path d="M 518.890909 384.48 
L 518.890909 51.84 
" clip-path="url(#pd1f1fd0e98)" style="fill: none; stroke: #b0b0b0; stroke-width: 0.8; stroke-linecap: square"/>
     </g>
     <g id="line2d_12">
      <g>
       <use xlink:href="#m6b61137019" x="518.890909" y="384.48" style="stroke: #000000; stroke-width: 0.8"/>
      </g>
     </g>
     <g id="text_6">
      <!-- 0.25 -->
      <g transform="translate(507.758097 399.078438) scale(0.1 -0.1)">
       <use xlink:href="#DejaVuSans-30"/>
       <use xlink:href="#DejaVuSans-2e" x="63.623047"/>
       <use xlink:href="#DejaVuSans-32" x="95.410156"/>
       <use xlink:href="#DejaVuSans-35" x="159.033203"/>
      </g>
     </g>
    </g>
    <g id="xtick_7">
     <g id="line2d_13">
      <path d="M 594.981818 384.48 
L 594.981818 51.84 
" clip-path="url(#pd1f1fd0e98)" style="fill: none; stroke: #b0b0b0; stroke-width: 0.8; stroke-linecap: square"/>
     </g>
     <g id="line2d_14">
      <g>
       <use xlink:href="#m6b61137019" x="594.981818" y="384.48" style="stroke: #000000; stroke-width: 0.8"/>
      </g>
     </g>
     <g id="text_7">
      <!-- 0.50 -->
      <g transform="translate(583.849006 399.078438) scale(0.1 -0.1)">
       <use xlink:href="#DejaVuSans-30"/>
       <use xlink:href="#DejaVuSans-2e" x="63.623047"/>
       <use xlink:href="#DejaVuSans-35" x="95.410156"/>
       <use xlink:href="#DejaVuSans-30" x="159.033203"/>
      </g>
     </g>
    </g>
    <g id="xtick_8">
     <g id="line2d_15">
      <path d="M 671.072727 384.48 
L 671.072727 51.84 
" clip-path="url(#pd1f1fd0e98)" style="fill: none; stroke: #b0b0b0; stroke-width: 0.8; stroke-linecap: square"/>
     </g>
     <g id="line2d_16">
      <g>
       <use xlink:href="#m6b61137019" x="671.072727" y="384.48" style="stroke: #000000; stroke-width: 0.8"/>
      </g>
     </g>
     <g id="text_8">
      <!-- 0.75 -->
      <g transform="translate(659.939915 399.078438) scale(0.1 -0.1)">
       <use xlink:href="#DejaVuSans-30"/>
       <use xlink:href="#DejaVuSans-2e" x="63.623047"/>
       <use xlink:href="#DejaVuSans-37" x="95.410156"/>
       <use xlink:href="#DejaVuSans-35" x="159.033203"/>
      </g>
     </g>
    </g>
    <g id="xtick_9">
     <g id="line2d_17">
      <path d="M 747.163636 384.48 
L 747.163636 51.84 
" clip-path="url(#pd1f1fd0e98)" style="fill: none; stroke: #b0b0b0; stroke-width: 0.8; stroke-linecap: square"/>
     </g>
     <g id="line2d_18">
      <g>
       <use xlink:href="#m6b61137019" x="747.163636" y="384.48" style="stroke: #000000; stroke-width: 0.8"/>
      </g>
     </g>
     <g id="text_9">
      <!-- 1.00 -->
      <g transform="translate(736.030824 399.078438) scale(0.1 -0.1)">
       <use xlink:href="#DejaVuSans-31"/>
       <use xlink:href="#DejaVuSans-2e" x="63.623047"/>
       <use xlink:href="#DejaVuSans-30" x="95.410156"/>
       <use xlink:href="#DejaVuSans-30" x="159.033203"/>
      </g>
     </g>
    </g>
    <g id="text_10">
     <!-- x -->
     <g transform="translate(439.840625 412.756563) scale(0.1 -0.1)">
      <defs>
       <path id="DejaVuSans-78" d="M 3513 3500 
L 2247 1797 
L 3578 0 
L 2900 0 
L 1881 1375 
L 863 0 
L 184 0 
L 1544 1831 
L 300 3500 
L 978 3500 
L 1906 2253 
L 2834 3500 
L 3513 3500 
z
" transform="scale(0.015625)"/>
      </defs>
      <use xlink:href="#DejaVuSans-78"/>
     </g>
    </g>
   </g>
   <g id="matplotlib.axis_2">
    <g id="ytick_1">
     <g id="line2d_19">
      <path d="M 108 367.757686 
L 777.6 367.757686 
" clip-path="url(#pd1f1fd0e98)" style="fill: none; stroke: #b0b0b0; stroke-width: 0.8; stroke-linecap: square"/>
     </g>
     <g id="line2d_20">
      <defs>
       <path id="m9fec2bd9ae" d="M 0 0 
L -3.5 0 
" style="stroke: #000000; stroke-width: 0.8"/>
      </defs>
      <g>
       <use xlink:href="#m9fec2bd9ae" x="108" y="367.757686" style="stroke: #000000; stroke-width: 0.8"/>
      </g>
     </g>
     <g id="text_11">
      <!-- 0.0 -->
      <g transform="translate(85.096875 371.556905) scale(0.1 -0.1)">
       <use xlink:href="#DejaVuSans-30"/>
       <use xlink:href="#DejaVuSans-2e" x="63.623047"/>
       <use xlink:href="#DejaVuSans-30" x="95.410156"/>
      </g>
     </g>
    </g>
    <g id="ytick_2">
     <g id="line2d_21">
      <path d="M 108 307.598149 
L 777.6 307.598149 
" clip-path="url(#pd1f1fd0e98)" style="fill: none; stroke: #b0b0b0; stroke-width: 0.8; stroke-linecap: square"/>
     </g>
     <g id="line2d_22">
      <g>
       <use xlink:href="#m9fec2bd9ae" x="108" y="307.598149" style="stroke: #000000; stroke-width: 0.8"/>
      </g>
     </g>
     <g id="text_12">
      <!-- 0.2 -->
      <g transform="translate(85.096875 311.397368) scale(0.1 -0.1)">
       <use xlink:href="#DejaVuSans-30"/>
       <use xlink:href="#DejaVuSans-2e" x="63.623047"/>
       <use xlink:href="#DejaVuSans-32" x="95.410156"/>
      </g>
     </g>
    </g>
    <g id="ytick_3">
     <g id="line2d_23">
      <path d="M 108 247.438612 
L 777.6 247.438612 
" clip-path="url(#pd1f1fd0e98)" style="fill: none; stroke: #b0b0b0; stroke-width: 0.8; stroke-linecap: square"/>
     </g>
     <g id="line2d_24">
      <g>
       <use xlink:href="#m9fec2bd9ae" x="108" y="247.438612" style="stroke: #000000; stroke-width: 0.8"/>
      </g>
     </g>
     <g id="text_13">
      <!-- 0.4 -->
      <g transform="translate(85.096875 251.23783) scale(0.1 -0.1)">
       <defs>
        <path id="DejaVuSans-34" d="M 2419 4116 
L 825 1625 
L 2419 1625 
L 2419 4116 
z
M 2253 4666 
L 3047 4666 
L 3047 1625 
L 3713 1625 
L 3713 1100 
L 3047 1100 
L 3047 0 
L 2419 0 
L 2419 1100 
L 313 1100 
L 313 1709 
L 2253 4666 
z
" transform="scale(0.015625)"/>
       </defs>
       <use xlink:href="#DejaVuSans-30"/>
       <use xlink:href="#DejaVuSans-2e" x="63.623047"/>
       <use xlink:href="#DejaVuSans-34" x="95.410156"/>
      </g>
     </g>
    </g>
    <g id="ytick_4">
     <g id="line2d_25">
      <path d="M 108 187.279074 
L 777.6 187.279074 
" clip-path="url(#pd1f1fd0e98)" style="fill: none; stroke: #b0b0b0; stroke-width: 0.8; stroke-linecap: square"/>
     </g>
     <g id="line2d_26">
      <g>
       <use xlink:href="#m9fec2bd9ae" x="108" y="187.279074" style="stroke: #000000; stroke-width: 0.8"/>
      </g>
     </g>
     <g id="text_14">
      <!-- 0.6 -->
      <g transform="translate(85.096875 191.078293) scale(0.1 -0.1)">
       <defs>
        <path id="DejaVuSans-36" d="M 2113 2584 
Q 1688 2584 1439 2293 
Q 1191 2003 1191 1497 
Q 1191 994 1439 701 
Q 1688 409 2113 409 
Q 2538 409 2786 701 
Q 3034 994 3034 1497 
Q 3034 2003 2786 2293 
Q 2538 2584 2113 2584 
z
M 3366 4563 
L 3366 3988 
Q 3128 4100 2886 4159 
Q 2644 4219 2406 4219 
Q 1781 4219 1451 3797 
Q 1122 3375 1075 2522 
Q 1259 2794 1537 2939 
Q 1816 3084 2150 3084 
Q 2853 3084 3261 2657 
Q 3669 2231 3669 1497 
Q 3669 778 3244 343 
Q 2819 -91 2113 -91 
Q 1303 -91 875 529 
Q 447 1150 447 2328 
Q 447 3434 972 4092 
Q 1497 4750 2381 4750 
Q 2619 4750 2861 4703 
Q 3103 4656 3366 4563 
z
" transform="scale(0.015625)"/>
       </defs>
       <use xlink:href="#DejaVuSans-30"/>
       <use xlink:href="#DejaVuSans-2e" x="63.623047"/>
       <use xlink:href="#DejaVuSans-36" x="95.410156"/>
      </g>
     </g>
    </g>
    <g id="ytick_5">
     <g id="line2d_27">
      <path d="M 108 127.119537 
L 777.6 127.119537 
" clip-path="url(#pd1f1fd0e98)" style="fill: none; stroke: #b0b0b0; stroke-width: 0.8; stroke-linecap: square"/>
     </g>
     <g id="line2d_28">
      <g>
       <use xlink:href="#m9fec2bd9ae" x="108" y="127.119537" style="stroke: #000000; stroke-width: 0.8"/>
      </g>
     </g>
     <g id="text_15">
      <!-- 0.8 -->
      <g transform="translate(85.096875 130.918756) scale(0.1 -0.1)">
       <defs>
        <path id="DejaVuSans-38" d="M 2034 2216 
Q 1584 2216 1326 1975 
Q 1069 1734 1069 1313 
Q 1069 891 1326 650 
Q 1584 409 2034 409 
Q 2484 409 2743 651 
Q 3003 894 3003 1313 
Q 3003 1734 2745 1975 
Q 2488 2216 2034 2216 
z
M 1403 2484 
Q 997 2584 770 2862 
Q 544 3141 544 3541 
Q 544 4100 942 4425 
Q 1341 4750 2034 4750 
Q 2731 4750 3128 4425 
Q 3525 4100 3525 3541 
Q 3525 3141 3298 2862 
Q 3072 2584 2669 2484 
Q 3125 2378 3379 2068 
Q 3634 1759 3634 1313 
Q 3634 634 3220 271 
Q 2806 -91 2034 -91 
Q 1263 -91 848 271 
Q 434 634 434 1313 
Q 434 1759 690 2068 
Q 947 2378 1403 2484 
z
M 1172 3481 
Q 1172 3119 1398 2916 
Q 1625 2713 2034 2713 
Q 2441 2713 2670 2916 
Q 2900 3119 2900 3481 
Q 2900 3844 2670 4047 
Q 2441 4250 2034 4250 
Q 1625 4250 1398 4047 
Q 1172 3844 1172 3481 
z
" transform="scale(0.015625)"/>
       </defs>
       <use xlink:href="#DejaVuSans-30"/>
       <use xlink:href="#DejaVuSans-2e" x="63.623047"/>
       <use xlink:href="#DejaVuSans-38" x="95.410156"/>
      </g>
     </g>
    </g>
    <g id="ytick_6">
     <g id="line2d_29">
      <path d="M 108 66.96 
L 777.6 66.96 
" clip-path="url(#pd1f1fd0e98)" style="fill: none; stroke: #b0b0b0; stroke-width: 0.8; stroke-linecap: square"/>
     </g>
     <g id="line2d_30">
      <g>
       <use xlink:href="#m9fec2bd9ae" x="108" y="66.96" style="stroke: #000000; stroke-width: 0.8"/>
      </g>
     </g>
     <g id="text_16">
      <!-- 1.0 -->
      <g transform="translate(85.096875 70.759219) scale(0.1 -0.1)">
       <use xlink:href="#DejaVuSans-31"/>
       <use xlink:href="#DejaVuSans-2e" x="63.623047"/>
       <use xlink:href="#DejaVuSans-30" x="95.410156"/>
      </g>
     </g>
    </g>
    <g id="text_17">
     <!-- f(x) -->
     <g transform="translate(79.017187 226.781094) rotate(-90) scale(0.1 -0.1)">
      <defs>
       <path id="DejaVuSans-66" d="M 2375 4863 
L 2375 4384 
L 1825 4384 
Q 1516 4384 1395 4259 
Q 1275 4134 1275 3809 
L 1275 3500 
L 2222 3500 
L 2222 3053 
L 1275 3053 
L 1275 0 
L 697 0 
L 697 3053 
L 147 3053 
L 147 3500 
L 697 3500 
L 697 3744 
Q 697 4328 969 4595 
Q 1241 4863 1831 4863 
L 2375 4863 
z
" transform="scale(0.015625)"/>
       <path id="DejaVuSans-28" d="M 1984 4856 
Q 1566 4138 1362 3434 
Q 1159 2731 1159 2009 
Q 1159 1288 1364 580 
Q 1569 -128 1984 -844 
L 1484 -844 
Q 1016 -109 783 600 
Q 550 1309 550 2009 
Q 550 2706 781 3412 
Q 1013 4119 1484 4856 
L 1984 4856 
z
" transform="scale(0.015625)"/>
       <path id="DejaVuSans-29" d="M 513 4856 
L 1013 4856 
Q 1481 4119 1714 3412 
Q 1947 2706 1947 2009 
Q 1947 1309 1714 600 
Q 1481 -109 1013 -844 
L 513 -844 
Q 928 -128 1133 580 
Q 1338 1288 1338 2009 
Q 1338 2731 1133 3434 
Q 928 4138 513 4856 
z
" transform="scale(0.015625)"/>
      </defs>
      <use xlink:href="#DejaVuSans-66"/>
      <use xlink:href="#DejaVuSans-28" x="35.205078"/>
      <use xlink:href="#DejaVuSans-78" x="74.21875"/>
      <use xlink:href="#DejaVuSans-29" x="133.398438"/>
     </g>
    </g>
   </g>
   <g id="line2d_31">
    <path d="M 138.436364 356.188544 
L 156.107125 354.781846 
L 171.949877 353.29459 
L 185.964619 351.75935 
L 198.760688 350.138486 
L 210.338084 348.455215 
L 221.306143 346.633795 
L 231.055528 344.795702 
L 240.195577 342.852617 
L 248.72629 340.815458 
L 256.647666 338.699934 
L 263.959705 336.527002 
L 271.271744 334.111778 
L 277.974447 331.654805 
L 284.067813 329.191989 
L 290.161179 326.482378 
L 295.645209 323.806521 
L 301.129238 320.87856 
L 306.003931 318.040048 
L 310.878624 314.954791 
L 315.753317 311.596096 
L 320.018673 308.409529 
L 324.284029 304.968571 
L 328.549386 301.248766 
L 332.814742 297.22325 
L 337.080098 292.86261 
L 340.736118 288.833945 
L 344.392138 284.513765 
L 348.048157 279.878849 
L 351.704177 274.904615 
L 355.360197 269.565275 
L 359.016216 263.834093 
L 362.672236 257.68379 
L 366.328256 251.087123 
L 369.984275 244.017713 
L 373.640295 236.451161 
L 377.296314 228.366542 
L 380.952334 219.748346 
L 384.608354 210.58894 
L 388.264373 200.89162 
L 392.52973 188.923097 
L 396.795086 176.30908 
L 402.279115 159.320683 
L 418.731204 107.628026 
L 421.777887 99.011577 
L 424.82457 91.085614 
L 427.261916 85.359709 
L 429.699263 80.275483 
L 431.527273 76.933398 
L 433.355283 74.03092 
L 435.183292 71.596783 
L 437.011302 69.655759 
L 438.229975 68.645874 
L 439.448649 67.86898 
L 440.667322 67.328763 
L 441.885995 67.0278 
L 443.104668 66.967535 
L 444.323342 67.148257 
L 445.542015 67.569099 
L 446.760688 68.228048 
L 447.979361 69.121965 
L 449.198034 70.246629 
L 450.416708 71.596783 
L 452.244717 74.03092 
L 454.072727 76.933398 
L 455.900737 80.275483 
L 457.728747 84.025158 
L 460.166093 89.598717 
L 462.60344 95.748517 
L 465.650123 104.109753 
L 469.306143 114.902382 
L 474.180835 130.115022 
L 488.195577 174.459962 
L 493.07027 188.923097 
L 497.335627 200.89162 
L 501.600983 212.153111 
L 505.257002 221.222207 
L 508.913022 229.750697 
L 512.569042 237.74772 
L 516.225061 245.229847 
L 519.881081 252.218702 
L 523.537101 258.739108 
L 527.19312 264.817656 
L 530.84914 270.481645 
L 534.50516 275.758299 
L 538.161179 280.674219 
L 541.817199 285.255007 
L 545.473219 289.525027 
L 549.738575 294.144523 
L 554.003931 298.406259 
L 558.269287 302.341541 
L 562.534644 305.979042 
L 566.8 309.344923 
L 571.674693 312.889473 
L 576.549386 316.142306 
L 581.424079 319.132066 
L 586.908108 322.212837 
L 592.392138 325.025262 
L 597.876167 327.597773 
L 603.969533 330.205095 
L 610.062899 332.577154 
L 616.765602 334.945844 
L 624.077641 337.276643 
L 631.389681 339.375758 
L 639.311057 341.421495 
L 647.841769 343.39352 
L 656.981818 345.276497 
L 666.731204 347.059663 
L 677.699263 348.82863 
L 689.276658 350.465293 
L 702.072727 352.043087 
L 716.087469 353.539281 
L 731.320885 354.938765 
L 747.163636 356.188544 
L 747.163636 356.188544 
" clip-path="url(#pd1f1fd0e98)" style="fill: none; stroke: #000000; stroke-width: 1.5; stroke-linecap: square"/>
   </g>
   <g id="line2d_32">
    <path d="M 138.436364 349.757127 
L 142.092383 351.986208 
L 145.748403 353.948652 
L 149.404423 355.653201 
L 153.060442 357.108493 
L 156.716462 358.323056 
L 160.372482 359.305311 
L 164.028501 360.063575 
L 167.684521 360.606054 
L 171.340541 360.940851 
L 174.99656 361.075959 
L 179.261916 360.991717 
L 183.527273 360.658749 
L 187.792629 360.089196 
L 192.057985 359.295004 
L 196.323342 358.287919 
L 201.198034 356.891083 
L 206.072727 355.248181 
L 210.94742 353.375795 
L 216.43145 351.01527 
L 221.915479 348.407475 
L 228.008845 345.246751 
L 234.102211 341.837499 
L 240.804914 337.834473 
L 248.116953 333.207581 
L 256.647666 327.526856 
L 266.397052 320.748195 
L 279.19312 311.548775 
L 314.534644 285.964841 
L 324.893366 278.821985 
L 334.033415 272.779847 
L 342.564128 267.408728 
L 350.485504 262.68801 
L 357.797543 258.583918 
L 365.109582 254.744542 
L 371.812285 251.473949 
L 378.514988 248.455205 
L 384.608354 245.939722 
L 390.70172 243.650762 
L 396.795086 241.595793 
L 402.888452 239.781459 
L 408.981818 238.213578 
L 415.075184 236.897141 
L 420.559214 235.930793 
L 426.043243 235.173969 
L 431.527273 234.628592 
L 437.011302 234.296047 
L 442.495332 234.177175 
L 447.979361 234.272277 
L 453.463391 234.581112 
L 458.94742 235.1029 
L 464.43145 235.836315 
L 469.915479 236.779494 
L 475.399509 237.930029 
L 481.492875 239.447995 
L 487.586241 241.213478 
L 493.679607 243.220824 
L 499.772973 245.463557 
L 505.866339 247.934373 
L 512.569042 250.90598 
L 519.271744 254.131744 
L 525.974447 257.598484 
L 533.286486 261.638275 
L 540.598526 265.927381 
L 548.519902 270.829666 
L 557.050614 276.372548 
L 566.8 282.990422 
L 577.768059 290.717157 
L 593.001474 301.756095 
L 617.984275 319.884144 
L 628.342998 327.111196 
L 636.87371 332.81117 
L 644.795086 337.834473 
L 651.497789 341.837499 
L 658.200491 345.574488 
L 664.293857 348.70875 
L 669.777887 351.29017 
L 675.261916 353.621834 
L 680.136609 355.46643 
L 685.011302 357.079488 
L 689.885995 358.444382 
L 694.151351 359.421766 
L 698.416708 360.184591 
L 702.682064 360.721081 
L 706.94742 361.019266 
L 711.212776 361.066972 
L 714.868796 360.899133 
L 718.524816 360.530281 
L 722.180835 359.952403 
L 725.836855 359.15738 
L 729.492875 358.136987 
L 733.148894 356.882891 
L 736.804914 355.386651 
L 740.460934 353.639722 
L 744.116953 351.633448 
L 747.163636 349.757127 
L 747.163636 349.757127 
" clip-path="url(#pd1f1fd0e98)" style="fill: none; stroke: #0000ff; stroke-width: 1.5; stroke-linecap: square"/>
   </g>
   <g id="line2d_33">
    <path d="M 138.436364 369.36 
L 139.655037 363.411377 
L 140.87371 358.354809 
L 142.092383 354.112424 
L 143.311057 350.610847 
L 144.52973 347.78101 
L 145.748403 345.557983 
L 146.967076 343.880794 
L 148.185749 342.692271 
L 149.404423 341.938875 
L 150.623096 341.570544 
L 151.841769 341.540544 
L 153.060442 341.805317 
L 154.279115 342.324342 
L 155.497789 343.059997 
L 157.325799 344.494128 
L 159.153808 346.231185 
L 161.591155 348.8572 
L 170.731204 359.112025 
L 173.16855 361.404072 
L 175.605897 363.356937 
L 177.433907 364.570969 
L 179.261916 365.555246 
L 181.089926 366.301444 
L 182.917936 366.805441 
L 184.745946 367.066859 
L 186.573956 367.088629 
L 188.401966 366.876592 
L 190.229975 366.439113 
L 192.057985 365.786733 
L 193.885995 364.931839 
L 196.323342 363.501213 
L 198.760688 361.771818 
L 201.198034 359.782892 
L 204.244717 356.994544 
L 207.900737 353.314187 
L 213.384767 347.40499 
L 221.306143 338.868051 
L 225.571499 334.637866 
L 229.227518 331.367596 
L 232.274201 328.951065 
L 235.320885 326.85186 
L 237.758231 325.418454 
L 240.195577 324.21394 
L 242.632924 323.244214 
L 245.07027 322.511891 
L 247.507617 322.016412 
L 249.944963 321.754171 
L 252.38231 321.718667 
L 254.819656 321.900665 
L 257.257002 322.288383 
L 259.694349 322.867675 
L 262.741032 323.836165 
L 265.787715 325.042309 
L 269.443735 326.746575 
L 273.709091 328.992619 
L 288.942506 337.311624 
L 292.598526 338.903692 
L 295.645209 339.980552 
L 298.082555 340.645109 
L 300.519902 341.110152 
L 302.957248 341.354309 
L 305.394595 341.357495 
L 307.831941 341.101025 
L 310.269287 340.567732 
L 312.706634 339.742064 
L 315.14398 338.610172 
L 317.581327 337.159984 
L 320.018673 335.381274 
L 322.45602 333.265711 
L 324.893366 330.8069 
L 327.330713 328.000414 
L 329.768059 324.843812 
L 332.205405 321.336645 
L 334.642752 317.480454 
L 337.689435 312.174943 
L 340.736118 306.340871 
L 343.782801 299.994044 
L 346.829484 293.15479 
L 350.485504 284.332711 
L 354.141523 274.887731 
L 358.40688 263.159695 
L 362.672236 250.768973 
L 367.546929 235.947611 
L 374.249631 214.759278 
L 392.52973 156.377177 
L 397.404423 141.731539 
L 401.669779 129.570434 
L 405.325799 119.741989 
L 408.981818 110.549859 
L 412.028501 103.431566 
L 415.075184 96.850329 
L 418.121867 90.84469 
L 420.559214 86.478414 
L 422.99656 82.519583 
L 425.433907 78.983117 
L 427.871253 75.882361 
L 430.3086 73.229027 
L 432.136609 71.538747 
L 433.964619 70.109415 
L 435.792629 68.944077 
L 437.620639 68.045213 
L 439.448649 67.41474 
L 441.276658 67.053999 
L 443.104668 66.96376 
L 444.932678 67.144216 
L 446.760688 67.594982 
L 448.588698 68.315096 
L 450.416708 69.303026 
L 452.244717 70.556665 
L 454.072727 72.073345 
L 455.900737 73.849837 
L 457.728747 75.882361 
L 460.166093 78.983117 
L 462.60344 82.519583 
L 465.040786 86.478414 
L 467.478133 90.84469 
L 469.915479 95.601977 
L 472.962162 102.071075 
L 476.008845 109.08519 
L 479.055528 116.60333 
L 482.711548 126.228552 
L 486.976904 138.187846 
L 491.24226 150.804064 
L 496.72629 167.761569 
L 504.647666 193.125588 
L 516.225061 230.244572 
L 521.709091 247.123189 
L 526.583784 261.427552 
L 530.84914 273.257001 
L 534.50516 282.800321 
L 538.161179 291.729945 
L 541.207862 298.66486 
L 544.254545 305.111939 
L 547.301229 311.049974 
L 550.347912 316.46224 
L 552.785258 320.405214 
L 555.222604 323.99986 
L 557.659951 327.244139 
L 560.097297 330.138002 
L 562.534644 332.683394 
L 564.97199 334.884246 
L 567.409337 336.746464 
L 569.846683 338.277896 
L 572.284029 339.488302 
L 574.721376 340.389296 
L 577.158722 340.99429 
L 579.596069 341.318417 
L 582.033415 341.378452 
L 584.470762 341.192706 
L 586.908108 340.78093 
L 589.345455 340.164183 
L 592.392138 339.138999 
L 595.438821 337.874077 
L 599.09484 336.107089 
L 603.969533 333.46915 
L 615.546929 327.053015 
L 619.202948 325.308586 
L 622.249631 324.059612 
L 625.296314 323.040565 
L 628.342998 322.288383 
L 630.780344 321.900665 
L 633.21769 321.718667 
L 635.655037 321.754171 
L 638.092383 322.016412 
L 640.52973 322.511891 
L 642.967076 323.244214 
L 645.404423 324.21394 
L 647.841769 325.418454 
L 650.279115 326.85186 
L 652.716462 328.504898 
L 655.763145 330.860414 
L 658.809828 333.506737 
L 662.465848 337.0084 
L 666.731204 341.433375 
L 681.355283 356.994544 
L 684.401966 359.782892 
L 686.839312 361.771818 
L 689.276658 363.501213 
L 691.714005 364.931839 
L 693.542015 365.786733 
L 695.370025 366.439113 
L 697.198034 366.876592 
L 699.026044 367.088629 
L 700.854054 367.066859 
L 702.682064 366.805441 
L 704.510074 366.301444 
L 706.338084 365.555246 
L 708.166093 364.570969 
L 709.994103 363.356937 
L 712.43145 361.404072 
L 714.868796 359.112025 
L 717.915479 355.870058 
L 727.664865 345.04439 
L 729.492875 343.498063 
L 730.711548 342.667333 
L 731.930221 342.035466 
L 733.148894 341.638686 
L 734.367568 341.516048 
L 735.586241 341.709574 
L 736.804914 342.264391 
L 738.023587 343.228879 
L 739.24226 344.654819 
L 740.460934 346.597547 
L 741.679607 349.116114 
L 742.89828 352.27345 
L 744.116953 356.136533 
L 745.335627 360.776561 
L 746.5543 366.269134 
L 747.163636 369.36 
L 747.163636 369.36 
" clip-path="url(#pd1f1fd0e98)" style="fill: none; stroke: #008000; stroke-width: 1.5; stroke-linecap: square"/>
   </g>
   <g id="line2d_34">
    <path d="M 138.436364 354.404877 
L 139.0457 355.716066 
L 139.655037 356.643504 
L 140.264373 357.252468 
L 140.87371 357.600403 
L 141.483047 357.737643 
L 142.092383 357.708067 
L 143.311057 357.295367 
L 145.139066 356.215723 
L 147.576413 354.697668 
L 149.404423 353.851264 
L 150.623096 353.486615 
L 151.841769 353.285253 
L 153.669779 353.260246 
L 155.497789 353.499462 
L 157.935135 354.068612 
L 162.809828 355.280373 
L 165.247174 355.613351 
L 167.075184 355.673611 
L 168.903194 355.561215 
L 171.340541 355.156184 
L 173.777887 354.503947 
L 176.82457 353.447956 
L 185.355283 350.312389 
L 188.401966 349.505167 
L 191.448649 348.97117 
L 194.495332 348.71544 
L 197.542015 348.705494 
L 201.198034 348.930853 
L 212.166093 349.797417 
L 215.212776 349.750642 
L 218.259459 349.481828 
L 221.306143 348.972152 
L 224.352826 348.223838 
L 227.399509 347.258134 
L 231.055528 345.865154 
L 235.930221 343.75258 
L 245.07027 339.743278 
L 249.335627 338.147144 
L 252.991646 337.008017 
L 256.647666 336.096584 
L 260.303686 335.399029 
L 264.569042 334.801521 
L 279.19312 333.011667 
L 282.84914 332.204827 
L 285.895823 331.312951 
L 288.942506 330.190117 
L 291.989189 328.816871 
L 295.035872 327.183984 
L 298.082555 325.292535 
L 301.129238 323.153419 
L 304.785258 320.287849 
L 308.441278 317.142096 
L 313.315971 312.613467 
L 320.018673 306.017891 
L 334.642752 291.532606 
L 347.438821 279.000936 
L 351.704177 274.477133 
L 355.360197 270.275009 
L 358.40688 266.462359 
L 361.453563 262.299908 
L 364.500246 257.72695 
L 367.546929 252.687718 
L 370.593612 247.133987 
L 373.640295 241.027536 
L 376.686978 234.342374 
L 379.733661 227.066662 
L 382.780344 219.204248 
L 385.827027 210.77577 
L 389.483047 199.9692 
L 393.748403 186.535746 
L 398.623096 170.36569 
L 413.856511 119.153615 
L 417.512531 107.993914 
L 420.559214 99.397209 
L 422.99656 93.076174 
L 425.433907 87.319138 
L 427.871253 82.185232 
L 429.699263 78.776125 
L 431.527273 75.767909 
L 433.355283 73.178521 
L 435.183292 71.023496 
L 437.011302 69.315829 
L 438.229975 68.431134 
L 439.448649 67.752305 
L 440.667322 67.281177 
L 441.885995 67.019025 
L 443.104668 66.966559 
L 444.323342 67.123921 
L 445.542015 67.490686 
L 446.760688 68.065859 
L 447.979361 68.847885 
L 449.198034 69.834651 
L 451.026044 71.692719 
L 452.854054 73.994104 
L 454.682064 76.724949 
L 456.510074 79.868902 
L 458.338084 83.407261 
L 460.77543 88.702198 
L 463.212776 94.60598 
L 465.650123 101.058196 
L 468.696806 109.795431 
L 472.352826 121.087535 
L 476.618182 135.068842 
L 483.930221 159.990989 
L 490.632924 182.561632 
L 494.89828 196.214328 
L 498.5543 207.253813 
L 502.210319 217.562873 
L 505.257002 225.540702 
L 508.303686 232.934587 
L 511.350369 239.737394 
L 514.397052 245.957936 
L 517.443735 251.619514 
L 520.490418 256.758073 
L 523.537101 261.420029 
L 526.583784 265.659845 
L 529.630467 269.537452 
L 533.286486 273.800839 
L 537.551843 278.373921 
L 543.035872 283.864054 
L 565.581327 306.017891 
L 572.893366 313.195992 
L 577.768059 317.683467 
L 581.424079 320.786347 
L 585.080098 323.600226 
L 588.126781 325.691121 
L 591.173464 327.531427 
L 594.220147 329.112145 
L 597.26683 330.434239 
L 600.313514 331.509006 
L 603.360197 332.357885 
L 607.016216 333.122305 
L 611.281572 333.751125 
L 618.593612 334.52954 
L 624.077641 335.207867 
L 628.342998 335.966241 
L 631.999017 336.840331 
L 635.655037 337.94173 
L 639.311057 339.260897 
L 644.185749 341.289656 
L 656.981818 346.818817 
L 660.637838 348.047108 
L 663.684521 348.841156 
L 666.731204 349.399385 
L 669.777887 349.715556 
L 672.82457 349.804197 
L 676.48059 349.662313 
L 681.964619 349.161486 
L 686.839312 348.757408 
L 689.885995 348.684852 
L 692.932678 348.836551 
L 695.370025 349.150736 
L 698.416708 349.796973 
L 701.463391 350.702442 
L 705.11941 352.034625 
L 711.212776 354.310076 
L 713.650123 355.013882 
L 716.087469 355.486188 
L 717.915479 355.655268 
L 719.743489 355.652471 
L 722.180835 355.388251 
L 724.618182 354.877616 
L 730.711548 353.395921 
L 732.539558 353.234985 
L 734.367568 353.366037 
L 735.586241 353.648217 
L 736.804914 354.095208 
L 738.632924 355.048537 
L 742.288943 357.295367 
L 743.507617 357.708067 
L 744.116953 357.737643 
L 744.72629 357.600403 
L 745.335627 357.252468 
L 745.944963 356.643504 
L 746.5543 355.716066 
L 747.163636 354.404877 
L 747.163636 354.404877 
" clip-path="url(#pd1f1fd0e98)" style="fill: none; stroke: #ffa500; stroke-width: 1.5; stroke-linecap: square"/>
   </g>
   <g id="line2d_35">
    <path d="M 138.436364 356.155016 
L 139.655037 356.128011 
L 143.311057 355.807428 
L 148.185749 355.461278 
L 156.716462 354.734032 
L 163.419165 354.143914 
L 189.620639 351.298274 
L 210.94742 348.394998 
L 220.696806 346.703524 
L 235.320885 343.946495 
L 242.632924 342.338394 
L 249.944963 340.497921 
L 259.085012 337.949002 
L 267.615725 335.351062 
L 274.318428 333.074872 
L 279.802457 330.992979 
L 285.286486 328.688686 
L 291.379853 325.871991 
L 297.473219 322.797829 
L 302.957248 319.799233 
L 308.441278 316.536675 
L 313.315971 313.361076 
L 317.581327 310.328274 
L 321.846683 307.028011 
L 326.112039 303.439421 
L 330.377396 299.548387 
L 334.642752 295.343126 
L 338.908108 290.808072 
L 343.173464 285.918279 
L 346.829484 281.416673 
L 350.485504 276.596514 
L 354.141523 271.422478 
L 357.797543 265.857387 
L 361.453563 259.865389 
L 365.109582 253.414791 
L 368.765602 246.479982 
L 372.421622 239.042198 
L 376.077641 231.089232 
L 379.733661 222.614594 
L 383.389681 213.616871 
L 387.655037 202.464223 
L 391.920393 190.625629 
L 396.185749 178.145352 
L 401.060442 163.205099 
L 408.372482 139.931792 
L 415.684521 116.794784 
L 419.340541 105.859128 
L 422.387224 97.345569 
L 424.82457 91.054433 
L 427.261916 85.323518 
L 429.699263 80.240298 
L 431.527273 76.902224 
L 433.355283 74.005672 
L 435.183292 71.578412 
L 437.011302 69.644205 
L 438.229975 68.638358 
L 439.448649 67.864805 
L 440.667322 67.327034 
L 441.885995 67.027478 
L 443.104668 66.967499 
L 444.323342 67.147369 
L 445.542015 67.56627 
L 446.760688 68.222302 
L 447.979361 69.112503 
L 449.198034 70.232871 
L 450.416708 71.578412 
L 452.244717 74.005672 
L 454.072727 76.902224 
L 455.900737 80.240298 
L 457.728747 83.988685 
L 460.166093 89.565691 
L 462.60344 95.725195 
L 465.650123 104.106278 
L 469.306143 114.929188 
L 474.180835 130.178083 
L 487.586241 172.618977 
L 492.460934 187.122556 
L 496.72629 199.150385 
L 500.991646 210.501904 
L 505.257002 221.151263 
L 508.913022 229.713119 
L 512.569042 237.752721 
L 516.225061 245.275687 
L 519.881081 252.293207 
L 523.537101 258.822911 
L 527.19312 264.889287 
L 530.84914 270.523121 
L 534.50516 275.759747 
L 538.161179 280.636344 
L 542.426536 285.918279 
L 546.691892 290.808072 
L 550.957248 295.343126 
L 555.222604 299.548387 
L 559.487961 303.439421 
L 563.753317 307.028011 
L 568.018673 310.328274 
L 572.284029 313.361076 
L 577.158722 316.536675 
L 582.033415 319.450845 
L 587.517445 322.476059 
L 593.610811 325.576084 
L 599.704177 328.418914 
L 605.188206 330.748045 
L 610.672236 332.854112 
L 616.765602 334.955977 
L 624.077641 337.23166 
L 633.21769 339.840885 
L 641.139066 341.899067 
L 648.451106 343.56597 
L 656.981818 345.251045 
L 672.215233 347.991734 
L 680.136609 349.227564 
L 691.104668 350.664722 
L 707.556757 352.680389 
L 730.102211 354.822539 
L 737.414251 355.461278 
L 742.288943 355.807428 
L 745.335627 356.061014 
L 747.163636 356.155016 
L 747.163636 356.155016 
" clip-path="url(#pd1f1fd0e98)" style="fill: none; stroke: #800080; stroke-width: 1.5; stroke-linecap: square"/>
   </g>
   <g id="patch_3">
    <path d="M 108 384.48 
L 108 51.84 
" style="fill: none; stroke: #000000; stroke-width: 0.8; stroke-linejoin: miter; stroke-linecap: square"/>
   </g>
   <g id="patch_4">
    <path d="M 777.6 384.48 
L 777.6 51.84 
" style="fill: none; stroke: #000000; stroke-width: 0.8; stroke-linejoin: miter; stroke-linecap: square"/>
   </g>
   <g id="patch_5">
    <path d="M 108 384.48 
L 777.6 384.48 
" style="fill: none; stroke: #000000; stroke-width: 0.8; stroke-linejoin: miter; stroke-linecap: square"/>
   </g>
   <g id="patch_6">
    <path d="M 108 51.84 
L 777.6 51.84 
" style="fill: none; stroke: #000000; stroke-width: 0.8; stroke-linejoin: miter; stroke-linecap: square"/>
   </g>
   <g id="text_18">
    <!-- Approximation de f avec des nœuds de Tchebychev par l'interpolation de Lagrange -->
    <g transform="translate(192.931875 45.84) scale(0.12 -0.12)">
     <defs>
      <path id="DejaVuSans-41" d="M 2188 4044 
L 1331 1722 
L 3047 1722 
L 2188 4044 
z
M 1831 4666 
L 2547 4666 
L 4325 0 
L 3669 0 
L 3244 1197 
L 1141 1197 
L 716 0 
L 50 0 
L 1831 4666 
z
" transform="scale(0.015625)"/>
      <path id="DejaVuSans-70" d="M 1159 525 
L 1159 -1331 
L 581 -1331 
L 581 3500 
L 1159 3500 
L 1159 2969 
Q 1341 3281 1617 3432 
Q 1894 3584 2278 3584 
Q 2916 3584 3314 3078 
Q 3713 2572 3713 1747 
Q 3713 922 3314 415 
Q 2916 -91 2278 -91 
Q 1894 -91 1617 61 
Q 1341 213 1159 525 
z
M 3116 1747 
Q 3116 2381 2855 2742 
Q 2594 3103 2138 3103 
Q 1681 3103 1420 2742 
Q 1159 2381 1159 1747 
Q 1159 1113 1420 752 
Q 1681 391 2138 391 
Q 2594 391 2855 752 
Q 3116 1113 3116 1747 
z
" transform="scale(0.015625)"/>
      <path id="DejaVuSans-72" d="M 2631 2963 
Q 2534 3019 2420 3045 
Q 2306 3072 2169 3072 
Q 1681 3072 1420 2755 
Q 1159 2438 1159 1844 
L 1159 0 
L 581 0 
L 581 3500 
L 1159 3500 
L 1159 2956 
Q 1341 3275 1631 3429 
Q 1922 3584 2338 3584 
Q 2397 3584 2469 3576 
Q 2541 3569 2628 3553 
L 2631 2963 
z
" transform="scale(0.015625)"/>
      <path id="DejaVuSans-6f" d="M 1959 3097 
Q 1497 3097 1228 2736 
Q 959 2375 959 1747 
Q 959 1119 1226 758 
Q 1494 397 1959 397 
Q 2419 397 2687 759 
Q 2956 1122 2956 1747 
Q 2956 2369 2687 2733 
Q 2419 3097 1959 3097 
z
M 1959 3584 
Q 2709 3584 3137 3096 
Q 3566 2609 3566 1747 
Q 3566 888 3137 398 
Q 2709 -91 1959 -91 
Q 1206 -91 779 398 
Q 353 888 353 1747 
Q 353 2609 779 3096 
Q 1206 3584 1959 3584 
z
" transform="scale(0.015625)"/>
      <path id="DejaVuSans-69" d="M 603 3500 
L 1178 3500 
L 1178 0 
L 603 0 
L 603 3500 
z
M 603 4863 
L 1178 4863 
L 1178 4134 
L 603 4134 
L 603 4863 
z
" transform="scale(0.015625)"/>
      <path id="DejaVuSans-6d" d="M 3328 2828 
Q 3544 3216 3844 3400 
Q 4144 3584 4550 3584 
Q 5097 3584 5394 3201 
Q 5691 2819 5691 2113 
L 5691 0 
L 5113 0 
L 5113 2094 
Q 5113 2597 4934 2840 
Q 4756 3084 4391 3084 
Q 3944 3084 3684 2787 
Q 3425 2491 3425 1978 
L 3425 0 
L 2847 0 
L 2847 2094 
Q 2847 2600 2669 2842 
Q 2491 3084 2119 3084 
Q 1678 3084 1418 2786 
Q 1159 2488 1159 1978 
L 1159 0 
L 581 0 
L 581 3500 
L 1159 3500 
L 1159 2956 
Q 1356 3278 1631 3431 
Q 1906 3584 2284 3584 
Q 2666 3584 2933 3390 
Q 3200 3197 3328 2828 
z
" transform="scale(0.015625)"/>
      <path id="DejaVuSans-61" d="M 2194 1759 
Q 1497 1759 1228 1600 
Q 959 1441 959 1056 
Q 959 750 1161 570 
Q 1363 391 1709 391 
Q 2188 391 2477 730 
Q 2766 1069 2766 1631 
L 2766 1759 
L 2194 1759 
z
M 3341 1997 
L 3341 0 
L 2766 0 
L 2766 531 
Q 2569 213 2275 61 
Q 1981 -91 1556 -91 
Q 1019 -91 701 211 
Q 384 513 384 1019 
Q 384 1609 779 1909 
Q 1175 2209 1959 2209 
L 2766 2209 
L 2766 2266 
Q 2766 2663 2505 2880 
Q 2244 3097 1772 3097 
Q 1472 3097 1187 3025 
Q 903 2953 641 2809 
L 641 3341 
Q 956 3463 1253 3523 
Q 1550 3584 1831 3584 
Q 2591 3584 2966 3190 
Q 3341 2797 3341 1997 
z
" transform="scale(0.015625)"/>
      <path id="DejaVuSans-74" d="M 1172 4494 
L 1172 3500 
L 2356 3500 
L 2356 3053 
L 1172 3053 
L 1172 1153 
Q 1172 725 1289 603 
Q 1406 481 1766 481 
L 2356 481 
L 2356 0 
L 1766 0 
Q 1100 0 847 248 
Q 594 497 594 1153 
L 594 3053 
L 172 3053 
L 172 3500 
L 594 3500 
L 594 4494 
L 1172 4494 
z
" transform="scale(0.015625)"/>
      <path id="DejaVuSans-6e" d="M 3513 2113 
L 3513 0 
L 2938 0 
L 2938 2094 
Q 2938 2591 2744 2837 
Q 2550 3084 2163 3084 
Q 1697 3084 1428 2787 
Q 1159 2491 1159 1978 
L 1159 0 
L 581 0 
L 581 3500 
L 1159 3500 
L 1159 2956 
Q 1366 3272 1645 3428 
Q 1925 3584 2291 3584 
Q 2894 3584 3203 3211 
Q 3513 2838 3513 2113 
z
" transform="scale(0.015625)"/>
      <path id="DejaVuSans-20" transform="scale(0.015625)"/>
      <path id="DejaVuSans-64" d="M 2906 2969 
L 2906 4863 
L 3481 4863 
L 3481 0 
L 2906 0 
L 2906 525 
Q 2725 213 2448 61 
Q 2172 -91 1784 -91 
Q 1150 -91 751 415 
Q 353 922 353 1747 
Q 353 2572 751 3078 
Q 1150 3584 1784 3584 
Q 2172 3584 2448 3432 
Q 2725 3281 2906 2969 
z
M 947 1747 
Q 947 1113 1208 752 
Q 1469 391 1925 391 
Q 2381 391 2643 752 
Q 2906 1113 2906 1747 
Q 2906 2381 2643 2742 
Q 2381 3103 1925 3103 
Q 1469 3103 1208 2742 
Q 947 2381 947 1747 
z
" transform="scale(0.015625)"/>
      <path id="DejaVuSans-65" d="M 3597 1894 
L 3597 1613 
L 953 1613 
Q 991 1019 1311 708 
Q 1631 397 2203 397 
Q 2534 397 2845 478 
Q 3156 559 3463 722 
L 3463 178 
Q 3153 47 2828 -22 
Q 2503 -91 2169 -91 
Q 1331 -91 842 396 
Q 353 884 353 1716 
Q 353 2575 817 3079 
Q 1281 3584 2069 3584 
Q 2775 3584 3186 3129 
Q 3597 2675 3597 1894 
z
M 3022 2063 
Q 3016 2534 2758 2815 
Q 2500 3097 2075 3097 
Q 1594 3097 1305 2825 
Q 1016 2553 972 2059 
L 3022 2063 
z
" transform="scale(0.015625)"/>
      <path id="DejaVuSans-76" d="M 191 3500 
L 800 3500 
L 1894 563 
L 2988 3500 
L 3597 3500 
L 2284 0 
L 1503 0 
L 191 3500 
z
" transform="scale(0.015625)"/>
      <path id="DejaVuSans-63" d="M 3122 3366 
L 3122 2828 
Q 2878 2963 2633 3030 
Q 2388 3097 2138 3097 
Q 1578 3097 1268 2742 
Q 959 2388 959 1747 
Q 959 1106 1268 751 
Q 1578 397 2138 397 
Q 2388 397 2633 464 
Q 2878 531 3122 666 
L 3122 134 
Q 2881 22 2623 -34 
Q 2366 -91 2075 -91 
Q 1284 -91 818 406 
Q 353 903 353 1747 
Q 353 2603 823 3093 
Q 1294 3584 2113 3584 
Q 2378 3584 2631 3529 
Q 2884 3475 3122 3366 
z
" transform="scale(0.015625)"/>
      <path id="DejaVuSans-73" d="M 2834 3397 
L 2834 2853 
Q 2591 2978 2328 3040 
Q 2066 3103 1784 3103 
Q 1356 3103 1142 2972 
Q 928 2841 928 2578 
Q 928 2378 1081 2264 
Q 1234 2150 1697 2047 
L 1894 2003 
Q 2506 1872 2764 1633 
Q 3022 1394 3022 966 
Q 3022 478 2636 193 
Q 2250 -91 1575 -91 
Q 1294 -91 989 -36 
Q 684 19 347 128 
L 347 722 
Q 666 556 975 473 
Q 1284 391 1588 391 
Q 1994 391 2212 530 
Q 2431 669 2431 922 
Q 2431 1156 2273 1281 
Q 2116 1406 1581 1522 
L 1381 1569 
Q 847 1681 609 1914 
Q 372 2147 372 2553 
Q 372 3047 722 3315 
Q 1072 3584 1716 3584 
Q 2034 3584 2315 3537 
Q 2597 3491 2834 3397 
z
" transform="scale(0.015625)"/>
      <path id="DejaVuSans-153" d="M 5631 2063 
Q 5625 2538 5369 2817 
Q 5113 3097 4684 3097 
Q 4206 3097 3917 2825 
Q 3628 2553 3584 2059 
L 5631 2063 
z
M 6209 1894 
L 6209 1613 
L 3566 1613 
Q 3603 1019 3922 708 
Q 4241 397 4813 397 
Q 5144 397 5456 478 
Q 5769 559 6075 722 
L 6075 178 
Q 5763 47 5438 -22 
Q 5113 -91 4781 -91 
Q 4281 -91 3903 81 
Q 3525 253 3272 594 
Q 3050 250 2723 79 
Q 2397 -91 1959 -91 
Q 1206 -91 779 398 
Q 353 888 353 1747 
Q 353 2609 779 3096 
Q 1206 3584 1959 3584 
Q 2397 3584 2726 3411 
Q 3056 3238 3263 2900 
Q 3506 3234 3868 3409 
Q 4231 3584 4678 3584 
Q 5384 3584 5796 3129 
Q 6209 2675 6209 1894 
z
M 1959 3097 
Q 1497 3097 1228 2736 
Q 959 2375 959 1747 
Q 959 1119 1226 758 
Q 1494 397 1959 397 
Q 2419 397 2687 759 
Q 2956 1122 2956 1747 
Q 2956 2369 2687 2733 
Q 2419 3097 1959 3097 
z
" transform="scale(0.015625)"/>
      <path id="DejaVuSans-75" d="M 544 1381 
L 544 3500 
L 1119 3500 
L 1119 1403 
Q 1119 906 1312 657 
Q 1506 409 1894 409 
Q 2359 409 2629 706 
Q 2900 1003 2900 1516 
L 2900 3500 
L 3475 3500 
L 3475 0 
L 2900 0 
L 2900 538 
Q 2691 219 2414 64 
Q 2138 -91 1772 -91 
Q 1169 -91 856 284 
Q 544 659 544 1381 
z
M 1991 3584 
L 1991 3584 
z
" transform="scale(0.015625)"/>
      <path id="DejaVuSans-54" d="M -19 4666 
L 3928 4666 
L 3928 4134 
L 2272 4134 
L 2272 0 
L 1638 0 
L 1638 4134 
L -19 4134 
L -19 4666 
z
" transform="scale(0.015625)"/>
      <path id="DejaVuSans-68" d="M 3513 2113 
L 3513 0 
L 2938 0 
L 2938 2094 
Q 2938 2591 2744 2837 
Q 2550 3084 2163 3084 
Q 1697 3084 1428 2787 
Q 1159 2491 1159 1978 
L 1159 0 
L 581 0 
L 581 4863 
L 1159 4863 
L 1159 2956 
Q 1366 3272 1645 3428 
Q 1925 3584 2291 3584 
Q 2894 3584 3203 3211 
Q 3513 2838 3513 2113 
z
" transform="scale(0.015625)"/>
      <path id="DejaVuSans-62" d="M 3116 1747 
Q 3116 2381 2855 2742 
Q 2594 3103 2138 3103 
Q 1681 3103 1420 2742 
Q 1159 2381 1159 1747 
Q 1159 1113 1420 752 
Q 1681 391 2138 391 
Q 2594 391 2855 752 
Q 3116 1113 3116 1747 
z
M 1159 2969 
Q 1341 3281 1617 3432 
Q 1894 3584 2278 3584 
Q 2916 3584 3314 3078 
Q 3713 2572 3713 1747 
Q 3713 922 3314 415 
Q 2916 -91 2278 -91 
Q 1894 -91 1617 61 
Q 1341 213 1159 525 
L 1159 0 
L 581 0 
L 581 4863 
L 1159 4863 
L 1159 2969 
z
" transform="scale(0.015625)"/>
      <path id="DejaVuSans-79" d="M 2059 -325 
Q 1816 -950 1584 -1140 
Q 1353 -1331 966 -1331 
L 506 -1331 
L 506 -850 
L 844 -850 
Q 1081 -850 1212 -737 
Q 1344 -625 1503 -206 
L 1606 56 
L 191 3500 
L 800 3500 
L 1894 763 
L 2988 3500 
L 3597 3500 
L 2059 -325 
z
" transform="scale(0.015625)"/>
      <path id="DejaVuSans-6c" d="M 603 4863 
L 1178 4863 
L 1178 0 
L 603 0 
L 603 4863 
z
" transform="scale(0.015625)"/>
      <path id="DejaVuSans-27" d="M 1147 4666 
L 1147 2931 
L 616 2931 
L 616 4666 
L 1147 4666 
z
" transform="scale(0.015625)"/>
      <path id="DejaVuSans-4c" d="M 628 4666 
L 1259 4666 
L 1259 531 
L 3531 531 
L 3531 0 
L 628 0 
L 628 4666 
z
" transform="scale(0.015625)"/>
      <path id="DejaVuSans-67" d="M 2906 1791 
Q 2906 2416 2648 2759 
Q 2391 3103 1925 3103 
Q 1463 3103 1205 2759 
Q 947 2416 947 1791 
Q 947 1169 1205 825 
Q 1463 481 1925 481 
Q 2391 481 2648 825 
Q 2906 1169 2906 1791 
z
M 3481 434 
Q 3481 -459 3084 -895 
Q 2688 -1331 1869 -1331 
Q 1566 -1331 1297 -1286 
Q 1028 -1241 775 -1147 
L 775 -588 
Q 1028 -725 1275 -790 
Q 1522 -856 1778 -856 
Q 2344 -856 2625 -561 
Q 2906 -266 2906 331 
L 2906 616 
Q 2728 306 2450 153 
Q 2172 0 1784 0 
Q 1141 0 747 490 
Q 353 981 353 1791 
Q 353 2603 747 3093 
Q 1141 3584 1784 3584 
Q 2172 3584 2450 3431 
Q 2728 3278 2906 2969 
L 2906 3500 
L 3481 3500 
L 3481 434 
z
" transform="scale(0.015625)"/>
     </defs>
     <use xlink:href="#DejaVuSans-41"/>
     <use xlink:href="#DejaVuSans-70" x="68.408203"/>
     <use xlink:href="#DejaVuSans-70" x="131.884766"/>
     <use xlink:href="#DejaVuSans-72" x="195.361328"/>
     <use xlink:href="#DejaVuSans-6f" x="234.224609"/>
     <use xlink:href="#DejaVuSans-78" x="292.28125"/>
     <use xlink:href="#DejaVuSans-69" x="351.460938"/>
     <use xlink:href="#DejaVuSans-6d" x="379.244141"/>
     <use xlink:href="#DejaVuSans-61" x="476.65625"/>
     <use xlink:href="#DejaVuSans-74" x="537.935547"/>
     <use xlink:href="#DejaVuSans-69" x="577.144531"/>
     <use xlink:href="#DejaVuSans-6f" x="604.927734"/>
     <use xlink:href="#DejaVuSans-6e" x="666.109375"/>
     <use xlink:href="#DejaVuSans-20" x="729.488281"/>
     <use xlink:href="#DejaVuSans-64" x="761.275391"/>
     <use xlink:href="#DejaVuSans-65" x="824.751953"/>
     <use xlink:href="#DejaVuSans-20" x="886.275391"/>
     <use xlink:href="#DejaVuSans-66" x="918.0625"/>
     <use xlink:href="#DejaVuSans-20" x="953.267578"/>
     <use xlink:href="#DejaVuSans-61" x="985.054688"/>
     <use xlink:href="#DejaVuSans-76" x="1046.333984"/>
     <use xlink:href="#DejaVuSans-65" x="1105.513672"/>
     <use xlink:href="#DejaVuSans-63" x="1167.037109"/>
     <use xlink:href="#DejaVuSans-20" x="1222.017578"/>
     <use xlink:href="#DejaVuSans-64" x="1253.804688"/>
     <use xlink:href="#DejaVuSans-65" x="1317.28125"/>
     <use xlink:href="#DejaVuSans-73" x="1378.804688"/>
     <use xlink:href="#DejaVuSans-20" x="1430.904297"/>
     <use xlink:href="#DejaVuSans-6e" x="1462.691406"/>
     <use xlink:href="#DejaVuSans-153" x="1526.070312"/>
     <use xlink:href="#DejaVuSans-75" x="1628.365234"/>
     <use xlink:href="#DejaVuSans-64" x="1691.744141"/>
     <use xlink:href="#DejaVuSans-73" x="1755.220703"/>
     <use xlink:href="#DejaVuSans-20" x="1807.320312"/>
     <use xlink:href="#DejaVuSans-64" x="1839.107422"/>
     <use xlink:href="#DejaVuSans-65" x="1902.583984"/>
     <use xlink:href="#DejaVuSans-20" x="1964.107422"/>
     <use xlink:href="#DejaVuSans-54" x="1995.894531"/>
     <use xlink:href="#DejaVuSans-63" x="2039.978516"/>
     <use xlink:href="#DejaVuSans-68" x="2094.958984"/>
     <use xlink:href="#DejaVuSans-65" x="2158.337891"/>
     <use xlink:href="#DejaVuSans-62" x="2219.861328"/>
     <use xlink:href="#DejaVuSans-79" x="2283.337891"/>
     <use xlink:href="#DejaVuSans-63" x="2342.517578"/>
     <use xlink:href="#DejaVuSans-68" x="2397.498047"/>
     <use xlink:href="#DejaVuSans-65" x="2460.876953"/>
     <use xlink:href="#DejaVuSans-76" x="2522.400391"/>
     <use xlink:href="#DejaVuSans-20" x="2581.580078"/>
     <use xlink:href="#DejaVuSans-70" x="2613.367188"/>
     <use xlink:href="#DejaVuSans-61" x="2676.84375"/>
     <use xlink:href="#DejaVuSans-72" x="2738.123047"/>
     <use xlink:href="#DejaVuSans-20" x="2779.236328"/>
     <use xlink:href="#DejaVuSans-6c" x="2811.023438"/>
     <use xlink:href="#DejaVuSans-27" x="2838.806641"/>
     <use xlink:href="#DejaVuSans-69" x="2866.296875"/>
     <use xlink:href="#DejaVuSans-6e" x="2894.080078"/>
     <use xlink:href="#DejaVuSans-74" x="2957.458984"/>
     <use xlink:href="#DejaVuSans-65" x="2996.667969"/>
     <use xlink:href="#DejaVuSans-72" x="3058.191406"/>
     <use xlink:href="#DejaVuSans-70" x="3099.304688"/>
     <use xlink:href="#DejaVuSans-6f" x="3162.78125"/>
     <use xlink:href="#DejaVuSans-6c" x="3223.962891"/>
     <use xlink:href="#DejaVuSans-61" x="3251.746094"/>
     <use xlink:href="#DejaVuSans-74" x="3313.025391"/>
     <use xlink:href="#DejaVuSans-69" x="3352.234375"/>
     <use xlink:href="#DejaVuSans-6f" x="3380.017578"/>
     <use xlink:href="#DejaVuSans-6e" x="3441.199219"/>
     <use xlink:href="#DejaVuSans-20" x="3504.578125"/>
     <use xlink:href="#DejaVuSans-64" x="3536.365234"/>
     <use xlink:href="#DejaVuSans-65" x="3599.841797"/>
     <use xlink:href="#DejaVuSans-20" x="3661.365234"/>
     <use xlink:href="#DejaVuSans-4c" x="3693.152344"/>
     <use xlink:href="#DejaVuSans-61" x="3748.865234"/>
     <use xlink:href="#DejaVuSans-67" x="3810.144531"/>
     <use xlink:href="#DejaVuSans-72" x="3873.621094"/>
     <use xlink:href="#DejaVuSans-61" x="3914.734375"/>
     <use xlink:href="#DejaVuSans-6e" x="3976.013672"/>
     <use xlink:href="#DejaVuSans-67" x="4039.392578"/>
     <use xlink:href="#DejaVuSans-65" x="4102.869141"/>
    </g>
   </g>
   <g id="PathCollection_1">
    <defs>
     <path id="ma683b6b89f" d="M 0 2.5 
C 0.663008 2.5 1.29895 2.236584 1.767767 1.767767 
C 2.236584 1.29895 2.5 0.663008 2.5 0 
C 2.5 -0.663008 2.236584 -1.29895 1.767767 -1.767767 
C 1.29895 -2.236584 0.663008 -2.5 0 -2.5 
C -0.663008 -2.5 -1.29895 -2.236584 -1.767767 -1.767767 
C -2.236584 -1.29895 -2.5 -0.663008 -2.5 0 
C -2.5 0.663008 -2.236584 1.29895 -1.767767 1.767767 
C -1.29895 2.236584 -0.663008 2.5 0 2.5 
z
" style="stroke: #000000"/>
    </defs>
    <g clip-path="url(#pd1f1fd0e98)">
     <use xlink:href="#ma683b6b89f" x="736.792697" y="355.392064" style="stroke: #000000"/>
     <use xlink:href="#ma683b6b89f" x="658.017591" y="345.476376" style="stroke: #000000"/>
     <use xlink:href="#ma683b6b89f" x="521.575106" y="255.296603" style="stroke: #000000"/>
     <use xlink:href="#ma683b6b89f" x="364.024894" y="255.296603" style="stroke: #000000"/>
     <use xlink:href="#ma683b6b89f" x="227.582409" y="345.476376" style="stroke: #000000"/>
     <use xlink:href="#ma683b6b89f" x="148.807303" y="355.392064" style="stroke: #000000"/>
    </g>
   </g>
   <g id="PathCollection_2">
    <g clip-path="url(#pd1f1fd0e98)">
     <use xlink:href="#ma683b6b89f" x="744.065653" y="355.958766" style="stroke: #000000"/>
     <use xlink:href="#ma683b6b89f" x="719.658902" y="353.886939" style="stroke: #000000"/>
     <use xlink:href="#ma683b6b89f" x="672.822689" y="348.070602" style="stroke: #000000"/>
     <use xlink:href="#ma683b6b89f" x="607.351405" y="331.548901" style="stroke: #000000"/>
     <use xlink:href="#ma683b6b89f" x="528.549145" y="266.965347" style="stroke: #000000"/>
     <use xlink:href="#ma683b6b89f" x="442.8" y="66.96" style="stroke: #000000"/>
     <use xlink:href="#ma683b6b89f" x="357.050855" y="266.965347" style="stroke: #000000"/>
     <use xlink:href="#ma683b6b89f" x="278.248595" y="331.548901" style="stroke: #000000"/>
     <use xlink:href="#ma683b6b89f" x="212.777311" y="348.070602" style="stroke: #000000"/>
     <use xlink:href="#ma683b6b89f" x="165.941098" y="353.886939" style="stroke: #000000"/>
     <use xlink:href="#ma683b6b89f" x="141.534347" y="355.958766" style="stroke: #000000"/>
    </g>
   </g>
   <g id="PathCollection_3">
    <g clip-path="url(#pd1f1fd0e98)">
     <use xlink:href="#ma683b6b89f" x="746.312574" y="356.126085" style="stroke: #000000"/>
     <use xlink:href="#ma683b6b89f" x="739.532605" y="355.610188" style="stroke: #000000"/>
     <use xlink:href="#ma683b6b89f" x="726.124119" y="354.48514" style="stroke: #000000"/>
     <use xlink:href="#ma683b6b89f" x="706.386641" y="352.527423" style="stroke: #000000"/>
     <use xlink:href="#ma683b6b89f" x="680.761073" y="349.282885" style="stroke: #000000"/>
     <use xlink:href="#ma683b6b89f" x="649.819848" y="343.82002" style="stroke: #000000"/>
     <use xlink:href="#ma683b6b89f" x="614.254141" y="334.085941" style="stroke: #000000"/>
     <use xlink:href="#ma683b6b89f" x="574.858433" y="315.04514" style="stroke: #000000"/>
     <use xlink:href="#ma683b6b89f" x="532.512757" y="272.929113" style="stroke: #000000"/>
     <use xlink:href="#ma683b6b89f" x="488.163046" y="174.360937" style="stroke: #000000"/>
     <use xlink:href="#ma683b6b89f" x="442.8" y="66.96" style="stroke: #000000"/>
     <use xlink:href="#ma683b6b89f" x="397.436954" y="174.360937" style="stroke: #000000"/>
     <use xlink:href="#ma683b6b89f" x="353.087243" y="272.929113" style="stroke: #000000"/>
     <use xlink:href="#ma683b6b89f" x="310.741567" y="315.04514" style="stroke: #000000"/>
     <use xlink:href="#ma683b6b89f" x="271.345859" y="334.085941" style="stroke: #000000"/>
     <use xlink:href="#ma683b6b89f" x="235.780152" y="343.82002" style="stroke: #000000"/>
     <use xlink:href="#ma683b6b89f" x="204.838927" y="349.282885" style="stroke: #000000"/>
     <use xlink:href="#ma683b6b89f" x="179.213359" y="352.527423" style="stroke: #000000"/>
     <use xlink:href="#ma683b6b89f" x="159.475881" y="354.48514" style="stroke: #000000"/>
     <use xlink:href="#ma683b6b89f" x="146.067395" y="355.610188" style="stroke: #000000"/>
     <use xlink:href="#ma683b6b89f" x="139.287426" y="356.126085" style="stroke: #000000"/>
    </g>
   </g>
   <g id="PathCollection_4">
    <g clip-path="url(#pd1f1fd0e98)">
     <use xlink:href="#ma683b6b89f" x="746.940289" y="356.172201" style="stroke: #000000"/>
     <use xlink:href="#ma683b6b89f" x="745.155472" y="356.040362" style="stroke: #000000"/>
     <use xlink:href="#ma683b6b89f" x="741.596314" y="355.770744" style="stroke: #000000"/>
     <use xlink:href="#ma683b6b89f" x="736.2837" y="355.350905" style="stroke: #000000"/>
     <use xlink:href="#ma683b6b89f" x="729.248807" y="354.760681" style="stroke: #000000"/>
     <use xlink:href="#ma683b6b89f" x="720.532919" y="353.970108" style="stroke: #000000"/>
     <use xlink:href="#ma683b6b89f" x="710.187183" y="352.936119" style="stroke: #000000"/>
     <use xlink:href="#ma683b6b89f" x="698.272313" y="351.597373" style="stroke: #000000"/>
     <use xlink:href="#ma683b6b89f" x="684.85823" y="349.866128" style="stroke: #000000"/>
     <use xlink:href="#ma683b6b89f" x="670.023653" y="347.615266" style="stroke: #000000"/>
     <use xlink:href="#ma683b6b89f" x="653.855638" y="344.657102" style="stroke: #000000"/>
     <use xlink:href="#ma683b6b89f" x="636.449063" y="340.707805" style="stroke: #000000"/>
     <use xlink:href="#ma683b6b89f" x="617.906079" y="335.325931" style="stroke: #000000"/>
     <use xlink:href="#ma683b6b89f" x="598.335504" y="327.803167" style="stroke: #000000"/>
     <use xlink:href="#ma683b6b89f" x="577.852183" y="316.96599" style="stroke: #000000"/>
     <use xlink:href="#ma683b6b89f" x="556.576323" y="300.816767" style="stroke: #000000"/>
     <use xlink:href="#ma683b6b89f" x="534.632779" y="275.935821" style="stroke: #000000"/>
     <use xlink:href="#ma683b6b89f" x="512.150323" y="236.858305" style="stroke: #000000"/>
     <use xlink:href="#ma683b6b89f" x="489.260891" y="177.685576" style="stroke: #000000"/>
     <use xlink:href="#ma683b6b89f" x="466.098809" y="105.394776" style="stroke: #000000"/>
     <use xlink:href="#ma683b6b89f" x="442.8" y="66.96" style="stroke: #000000"/>
     <use xlink:href="#ma683b6b89f" x="419.501191" y="105.394776" style="stroke: #000000"/>
     <use xlink:href="#ma683b6b89f" x="396.339109" y="177.685576" style="stroke: #000000"/>
     <use xlink:href="#ma683b6b89f" x="373.449677" y="236.858305" style="stroke: #000000"/>
     <use xlink:href="#ma683b6b89f" x="350.967221" y="275.935821" style="stroke: #000000"/>
     <use xlink:href="#ma683b6b89f" x="329.023677" y="300.816767" style="stroke: #000000"/>
     <use xlink:href="#ma683b6b89f" x="307.747817" y="316.96599" style="stroke: #000000"/>
     <use xlink:href="#ma683b6b89f" x="287.264496" y="327.803167" style="stroke: #000000"/>
     <use xlink:href="#ma683b6b89f" x="267.693921" y="335.325931" style="stroke: #000000"/>
     <use xlink:href="#ma683b6b89f" x="249.150937" y="340.707805" style="stroke: #000000"/>
     <use xlink:href="#ma683b6b89f" x="231.744362" y="344.657102" style="stroke: #000000"/>
     <use xlink:href="#ma683b6b89f" x="215.576347" y="347.615266" style="stroke: #000000"/>
     <use xlink:href="#ma683b6b89f" x="200.74177" y="349.866128" style="stroke: #000000"/>
     <use xlink:href="#ma683b6b89f" x="187.327687" y="351.597373" style="stroke: #000000"/>
     <use xlink:href="#ma683b6b89f" x="175.412817" y="352.936119" style="stroke: #000000"/>
     <use xlink:href="#ma683b6b89f" x="165.067081" y="353.970108" style="stroke: #000000"/>
     <use xlink:href="#ma683b6b89f" x="156.351193" y="354.760681" style="stroke: #000000"/>
     <use xlink:href="#ma683b6b89f" x="149.3163" y="355.350905" style="stroke: #000000"/>
     <use xlink:href="#ma683b6b89f" x="144.003686" y="355.770744" style="stroke: #000000"/>
     <use xlink:href="#ma683b6b89f" x="140.444528" y="356.040362" style="stroke: #000000"/>
     <use xlink:href="#ma683b6b89f" x="138.659711" y="356.172201" style="stroke: #000000"/>
    </g>
   </g>
   <g id="legend_1">
    <g id="patch_7">
     <path d="M 638.979687 133.230625 
L 770.6 133.230625 
Q 772.6 133.230625 772.6 131.230625 
L 772.6 58.84 
Q 772.6 56.84 770.6 56.84 
L 638.979687 56.84 
Q 636.979687 56.84 636.979687 58.84 
L 636.979687 131.230625 
Q 636.979687 133.230625 638.979687 133.230625 
z
" style="fill: #ffffff; opacity: 0.8; stroke: #cccccc; stroke-linejoin: miter"/>
    </g>
    <g id="line2d_36">
     <path d="M 640.979687 64.938437 
L 650.979687 64.938437 
L 660.979687 64.938437 
" style="fill: none; stroke: #000000; stroke-width: 1.5; stroke-linecap: square"/>
    </g>
    <g id="text_19">
     <!-- f(x) = 1 / (1 + 25x²) -->
     <g transform="translate(668.979687 68.438437) scale(0.1 -0.1)">
      <defs>
       <path id="DejaVuSans-3d" d="M 678 2906 
L 4684 2906 
L 4684 2381 
L 678 2381 
L 678 2906 
z
M 678 1631 
L 4684 1631 
L 4684 1100 
L 678 1100 
L 678 1631 
z
" transform="scale(0.015625)"/>
       <path id="DejaVuSans-2f" d="M 1625 4666 
L 2156 4666 
L 531 -594 
L 0 -594 
L 1625 4666 
z
" transform="scale(0.015625)"/>
       <path id="DejaVuSans-2b" d="M 2944 4013 
L 2944 2272 
L 4684 2272 
L 4684 1741 
L 2944 1741 
L 2944 0 
L 2419 0 
L 2419 1741 
L 678 1741 
L 678 2272 
L 2419 2272 
L 2419 4013 
L 2944 4013 
z
" transform="scale(0.015625)"/>
       <path id="DejaVuSans-b2" d="M 838 2444 
L 2163 2444 
L 2163 2088 
L 294 2088 
L 294 2431 
Q 400 2528 597 2703 
Q 1672 3656 1672 3950 
Q 1672 4156 1509 4282 
Q 1347 4409 1081 4409 
Q 919 4409 728 4354 
Q 538 4300 313 4191 
L 313 4575 
Q 553 4663 761 4706 
Q 969 4750 1147 4750 
Q 1600 4750 1872 4544 
Q 2144 4338 2144 4000 
Q 2144 3566 1109 2678 
Q 934 2528 838 2444 
z
" transform="scale(0.015625)"/>
      </defs>
      <use xlink:href="#DejaVuSans-66"/>
      <use xlink:href="#DejaVuSans-28" x="35.205078"/>
      <use xlink:href="#DejaVuSans-78" x="74.21875"/>
      <use xlink:href="#DejaVuSans-29" x="133.398438"/>
      <use xlink:href="#DejaVuSans-20" x="172.412109"/>
      <use xlink:href="#DejaVuSans-3d" x="204.199219"/>
      <use xlink:href="#DejaVuSans-20" x="287.988281"/>
      <use xlink:href="#DejaVuSans-31" x="319.775391"/>
      <use xlink:href="#DejaVuSans-20" x="383.398438"/>
      <use xlink:href="#DejaVuSans-2f" x="415.185547"/>
      <use xlink:href="#DejaVuSans-20" x="448.876953"/>
      <use xlink:href="#DejaVuSans-28" x="480.664062"/>
      <use xlink:href="#DejaVuSans-31" x="519.677734"/>
      <use xlink:href="#DejaVuSans-20" x="583.300781"/>
      <use xlink:href="#DejaVuSans-2b" x="615.087891"/>
      <use xlink:href="#DejaVuSans-20" x="698.876953"/>
      <use xlink:href="#DejaVuSans-32" x="730.664062"/>
      <use xlink:href="#DejaVuSans-35" x="794.287109"/>
      <use xlink:href="#DejaVuSans-78" x="857.910156"/>
      <use xlink:href="#DejaVuSans-b2" x="917.089844"/>
      <use xlink:href="#DejaVuSans-29" x="957.177734"/>
     </g>
    </g>
    <g id="line2d_37">
     <path d="M 640.979687 79.616562 
L 650.979687 79.616562 
L 660.979687 79.616562 
" style="fill: none; stroke: #0000ff; stroke-width: 1.5; stroke-linecap: square"/>
    </g>
    <g id="text_20">
     <!-- N=5 -->
     <g transform="translate(668.979687 83.116562) scale(0.1 -0.1)">
      <defs>
       <path id="DejaVuSans-4e" d="M 628 4666 
L 1478 4666 
L 3547 763 
L 3547 4666 
L 4159 4666 
L 4159 0 
L 3309 0 
L 1241 3903 
L 1241 0 
L 628 0 
L 628 4666 
z
" transform="scale(0.015625)"/>
      </defs>
      <use xlink:href="#DejaVuSans-4e"/>
      <use xlink:href="#DejaVuSans-3d" x="74.804688"/>
      <use xlink:href="#DejaVuSans-35" x="158.59375"/>
     </g>
    </g>
    <g id="line2d_38">
     <path d="M 640.979687 94.294687 
L 650.979687 94.294687 
L 660.979687 94.294687 
" style="fill: none; stroke: #008000; stroke-width: 1.5; stroke-linecap: square"/>
    </g>
    <g id="text_21">
     <!-- N=10 -->
     <g transform="translate(668.979687 97.794687) scale(0.1 -0.1)">
      <use xlink:href="#DejaVuSans-4e"/>
      <use xlink:href="#DejaVuSans-3d" x="74.804688"/>
      <use xlink:href="#DejaVuSans-31" x="158.59375"/>
      <use xlink:href="#DejaVuSans-30" x="222.216797"/>
     </g>
    </g>
    <g id="line2d_39">
     <path d="M 640.979687 108.972812 
L 650.979687 108.972812 
L 660.979687 108.972812 
" style="fill: none; stroke: #ffa500; stroke-width: 1.5; stroke-linecap: square"/>
    </g>
    <g id="text_22">
     <!-- N=20 -->
     <g transform="translate(668.979687 112.472812) scale(0.1 -0.1)">
      <use xlink:href="#DejaVuSans-4e"/>
      <use xlink:href="#DejaVuSans-3d" x="74.804688"/>
      <use xlink:href="#DejaVuSans-32" x="158.59375"/>
      <use xlink:href="#DejaVuSans-30" x="222.216797"/>
     </g>
    </g>
    <g id="line2d_40">
     <path d="M 640.979687 123.650937 
L 650.979687 123.650937 
L 660.979687 123.650937 
" style="fill: none; stroke: #800080; stroke-width: 1.5; stroke-linecap: square"/>
    </g>
    <g id="text_23">
     <!-- N=40 -->
     <g transform="translate(668.979687 127.150937) scale(0.1 -0.1)">
      <use xlink:href="#DejaVuSans-4e"/>
      <use xlink:href="#DejaVuSans-3d" x="74.804688"/>
      <use xlink:href="#DejaVuSans-34" x="158.59375"/>
      <use xlink:href="#DejaVuSans-30" x="222.216797"/>
     </g>
    </g>
   </g>
  </g>
 </g>
 <defs>
  <clipPath id="pd1f1fd0e98">
   <rect x="108" y="51.84" width="669.6" height="332.64"/>
  </clipPath>
 </defs>
</svg>
