<?xml version="1.0" encoding="utf-8" standalone="no"?>
<!DOCTYPE svg PUBLIC "-//W3C//DTD SVG 1.1//EN"
  "http://www.w3.org/Graphics/SVG/1.1/DTD/svg11.dtd">
<svg xmlns:xlink="http://www.w3.org/1999/xlink" width="720pt" height="432pt" viewBox="0 0 720 432" xmlns="http://www.w3.org/2000/svg" version="1.1">
 <metadata>
  <rdf:RDF xmlns:dc="http://purl.org/dc/elements/1.1/" xmlns:cc="http://creativecommons.org/ns#" xmlns:rdf="http://www.w3.org/1999/02/22-rdf-syntax-ns#">
   <cc:Work>
    <dc:type rdf:resource="http://purl.org/dc/dcmitype/StillImage"/>
    <dc:date>2024-11-02T15:47:05.358665</dc:date>
    <dc:format>image/svg+xml</dc:format>
    <dc:creator>
     <cc:Agent>
      <dc:title>Matplotlib v3.9.2, https://matplotlib.org/</dc:title>
     </cc:Agent>
    </dc:creator>
   </cc:Work>
  </rdf:RDF>
 </metadata>
 <defs>
  <style type="text/css">*{stroke-linejoin: round; stroke-linecap: butt}</style>
 </defs>
 <g id="figure_1">
  <g id="patch_1">
   <path d="M 0 432 
L 720 432 
L 720 0 
L 0 0 
z
" style="fill: #ffffff"/>
  </g>
  <g id="axes_1">
   <g id="patch_2">
    <path d="M 90 384.48 
L 648 384.48 
L 648 51.84 
L 90 51.84 
z
" style="fill: #ffffff"/>
   </g>
   <g id="matplotlib.axis_1">
    <g id="xtick_1">
     <g id="line2d_1">
      <path d="M 115.363636 384.48 
L 115.363636 51.84 
" clip-path="url(#p4d8e66af57)" style="fill: none; stroke: #b0b0b0; stroke-width: 0.8; stroke-linecap: square"/>
     </g>
     <g id="line2d_2">
      <defs>
       <path id="m4c1bd4410b" d="M 0 0 
L 0 3.5 
" style="stroke: #000000; stroke-width: 0.8"/>
      </defs>
      <g>
       <use xlink:href="#m4c1bd4410b" x="115.363636" y="384.48" style="stroke: #000000; stroke-width: 0.8"/>
      </g>
     </g>
     <g id="text_1">
      <!-- −1.00 -->
      <g transform="translate(100.04098 399.078438) scale(0.1 -0.1)">
       <defs>
        <path id="DejaVuSans-2212" d="M 678 2272 
L 4684 2272 
L 4684 1741 
L 678 1741 
L 678 2272 
z
" transform="scale(0.015625)"/>
        <path id="DejaVuSans-31" d="M 794 531 
L 1825 531 
L 1825 4091 
L 703 3866 
L 703 4441 
L 1819 4666 
L 2450 4666 
L 2450 531 
L 3481 531 
L 3481 0 
L 794 0 
L 794 531 
z
" transform="scale(0.015625)"/>
        <path id="DejaVuSans-2e" d="M 684 794 
L 1344 794 
L 1344 0 
L 684 0 
L 684 794 
z
" transform="scale(0.015625)"/>
        <path id="DejaVuSans-30" d="M 2034 4250 
Q 1547 4250 1301 3770 
Q 1056 3291 1056 2328 
Q 1056 1369 1301 889 
Q 1547 409 2034 409 
Q 2525 409 2770 889 
Q 3016 1369 3016 2328 
Q 3016 3291 2770 3770 
Q 2525 4250 2034 4250 
z
M 2034 4750 
Q 2819 4750 3233 4129 
Q 3647 3509 3647 2328 
Q 3647 1150 3233 529 
Q 2819 -91 2034 -91 
Q 1250 -91 836 529 
Q 422 1150 422 2328 
Q 422 3509 836 4129 
Q 1250 4750 2034 4750 
z
" transform="scale(0.015625)"/>
       </defs>
       <use xlink:href="#DejaVuSans-2212"/>
       <use xlink:href="#DejaVuSans-31" x="83.789062"/>
       <use xlink:href="#DejaVuSans-2e" x="147.412109"/>
       <use xlink:href="#DejaVuSans-30" x="179.199219"/>
       <use xlink:href="#DejaVuSans-30" x="242.822266"/>
      </g>
     </g>
    </g>
    <g id="xtick_2">
     <g id="line2d_3">
      <path d="M 178.772727 384.48 
L 178.772727 51.84 
" clip-path="url(#p4d8e66af57)" style="fill: none; stroke: #b0b0b0; stroke-width: 0.8; stroke-linecap: square"/>
     </g>
     <g id="line2d_4">
      <g>
       <use xlink:href="#m4c1bd4410b" x="178.772727" y="384.48" style="stroke: #000000; stroke-width: 0.8"/>
      </g>
     </g>
     <g id="text_2">
      <!-- −0.75 -->
      <g transform="translate(163.450071 399.078438) scale(0.1 -0.1)">
       <defs>
        <path id="DejaVuSans-37" d="M 525 4666 
L 3525 4666 
L 3525 4397 
L 1831 0 
L 1172 0 
L 2766 4134 
L 525 4134 
L 525 4666 
z
" transform="scale(0.015625)"/>
        <path id="DejaVuSans-35" d="M 691 4666 
L 3169 4666 
L 3169 4134 
L 1269 4134 
L 1269 2991 
Q 1406 3038 1543 3061 
Q 1681 3084 1819 3084 
Q 2600 3084 3056 2656 
Q 3513 2228 3513 1497 
Q 3513 744 3044 326 
Q 2575 -91 1722 -91 
Q 1428 -91 1123 -41 
Q 819 9 494 109 
L 494 744 
Q 775 591 1075 516 
Q 1375 441 1709 441 
Q 2250 441 2565 725 
Q 2881 1009 2881 1497 
Q 2881 1984 2565 2268 
Q 2250 2553 1709 2553 
Q 1456 2553 1204 2497 
Q 953 2441 691 2322 
L 691 4666 
z
" transform="scale(0.015625)"/>
       </defs>
       <use xlink:href="#DejaVuSans-2212"/>
       <use xlink:href="#DejaVuSans-30" x="83.789062"/>
       <use xlink:href="#DejaVuSans-2e" x="147.412109"/>
       <use xlink:href="#DejaVuSans-37" x="179.199219"/>
       <use xlink:href="#DejaVuSans-35" x="242.822266"/>
      </g>
     </g>
    </g>
    <g id="xtick_3">
     <g id="line2d_5">
      <path d="M 242.181818 384.48 
L 242.181818 51.84 
" clip-path="url(#p4d8e66af57)" style="fill: none; stroke: #b0b0b0; stroke-width: 0.8; stroke-linecap: square"/>
     </g>
     <g id="line2d_6">
      <g>
       <use xlink:href="#m4c1bd4410b" x="242.181818" y="384.48" style="stroke: #000000; stroke-width: 0.8"/>
      </g>
     </g>
     <g id="text_3">
      <!-- −0.50 -->
      <g transform="translate(226.859162 399.078438) scale(0.1 -0.1)">
       <use xlink:href="#DejaVuSans-2212"/>
       <use xlink:href="#DejaVuSans-30" x="83.789062"/>
       <use xlink:href="#DejaVuSans-2e" x="147.412109"/>
       <use xlink:href="#DejaVuSans-35" x="179.199219"/>
       <use xlink:href="#DejaVuSans-30" x="242.822266"/>
      </g>
     </g>
    </g>
    <g id="xtick_4">
     <g id="line2d_7">
      <path d="M 305.590909 384.48 
L 305.590909 51.84 
" clip-path="url(#p4d8e66af57)" style="fill: none; stroke: #b0b0b0; stroke-width: 0.8; stroke-linecap: square"/>
     </g>
     <g id="line2d_8">
      <g>
       <use xlink:href="#m4c1bd4410b" x="305.590909" y="384.48" style="stroke: #000000; stroke-width: 0.8"/>
      </g>
     </g>
     <g id="text_4">
      <!-- −0.25 -->
      <g transform="translate(290.268253 399.078438) scale(0.1 -0.1)">
       <defs>
        <path id="DejaVuSans-32" d="M 1228 531 
L 3431 531 
L 3431 0 
L 469 0 
L 469 531 
Q 828 903 1448 1529 
Q 2069 2156 2228 2338 
Q 2531 2678 2651 2914 
Q 2772 3150 2772 3378 
Q 2772 3750 2511 3984 
Q 2250 4219 1831 4219 
Q 1534 4219 1204 4116 
Q 875 4013 500 3803 
L 500 4441 
Q 881 4594 1212 4672 
Q 1544 4750 1819 4750 
Q 2544 4750 2975 4387 
Q 3406 4025 3406 3419 
Q 3406 3131 3298 2873 
Q 3191 2616 2906 2266 
Q 2828 2175 2409 1742 
Q 1991 1309 1228 531 
z
" transform="scale(0.015625)"/>
       </defs>
       <use xlink:href="#DejaVuSans-2212"/>
       <use xlink:href="#DejaVuSans-30" x="83.789062"/>
       <use xlink:href="#DejaVuSans-2e" x="147.412109"/>
       <use xlink:href="#DejaVuSans-32" x="179.199219"/>
       <use xlink:href="#DejaVuSans-35" x="242.822266"/>
      </g>
     </g>
    </g>
    <g id="xtick_5">
     <g id="line2d_9">
      <path d="M 369 384.48 
L 369 51.84 
" clip-path="url(#p4d8e66af57)" style="fill: none; stroke: #b0b0b0; stroke-width: 0.8; stroke-linecap: square"/>
     </g>
     <g id="line2d_10">
      <g>
       <use xlink:href="#m4c1bd4410b" x="369" y="384.48" style="stroke: #000000; stroke-width: 0.8"/>
      </g>
     </g>
     <g id="text_5">
      <!-- 0.00 -->
      <g transform="translate(357.867188 399.078438) scale(0.1 -0.1)">
       <use xlink:href="#DejaVuSans-30"/>
       <use xlink:href="#DejaVuSans-2e" x="63.623047"/>
       <use xlink:href="#DejaVuSans-30" x="95.410156"/>
       <use xlink:href="#DejaVuSans-30" x="159.033203"/>
      </g>
     </g>
    </g>
    <g id="xtick_6">
     <g id="line2d_11">
      <path d="M 432.409091 384.48 
L 432.409091 51.84 
" clip-path="url(#p4d8e66af57)" style="fill: none; stroke: #b0b0b0; stroke-width: 0.8; stroke-linecap: square"/>
     </g>
     <g id="line2d_12">
      <g>
       <use xlink:href="#m4c1bd4410b" x="432.409091" y="384.48" style="stroke: #000000; stroke-width: 0.8"/>
      </g>
     </g>
     <g id="text_6">
      <!-- 0.25 -->
      <g transform="translate(421.276278 399.078438) scale(0.1 -0.1)">
       <use xlink:href="#DejaVuSans-30"/>
       <use xlink:href="#DejaVuSans-2e" x="63.623047"/>
       <use xlink:href="#DejaVuSans-32" x="95.410156"/>
       <use xlink:href="#DejaVuSans-35" x="159.033203"/>
      </g>
     </g>
    </g>
    <g id="xtick_7">
     <g id="line2d_13">
      <path d="M 495.818182 384.48 
L 495.818182 51.84 
" clip-path="url(#p4d8e66af57)" style="fill: none; stroke: #b0b0b0; stroke-width: 0.8; stroke-linecap: square"/>
     </g>
     <g id="line2d_14">
      <g>
       <use xlink:href="#m4c1bd4410b" x="495.818182" y="384.48" style="stroke: #000000; stroke-width: 0.8"/>
      </g>
     </g>
     <g id="text_7">
      <!-- 0.50 -->
      <g transform="translate(484.685369 399.078438) scale(0.1 -0.1)">
       <use xlink:href="#DejaVuSans-30"/>
       <use xlink:href="#DejaVuSans-2e" x="63.623047"/>
       <use xlink:href="#DejaVuSans-35" x="95.410156"/>
       <use xlink:href="#DejaVuSans-30" x="159.033203"/>
      </g>
     </g>
    </g>
    <g id="xtick_8">
     <g id="line2d_15">
      <path d="M 559.227273 384.48 
L 559.227273 51.84 
" clip-path="url(#p4d8e66af57)" style="fill: none; stroke: #b0b0b0; stroke-width: 0.8; stroke-linecap: square"/>
     </g>
     <g id="line2d_16">
      <g>
       <use xlink:href="#m4c1bd4410b" x="559.227273" y="384.48" style="stroke: #000000; stroke-width: 0.8"/>
      </g>
     </g>
     <g id="text_8">
      <!-- 0.75 -->
      <g transform="translate(548.09446 399.078438) scale(0.1 -0.1)">
       <use xlink:href="#DejaVuSans-30"/>
       <use xlink:href="#DejaVuSans-2e" x="63.623047"/>
       <use xlink:href="#DejaVuSans-37" x="95.410156"/>
       <use xlink:href="#DejaVuSans-35" x="159.033203"/>
      </g>
     </g>
    </g>
    <g id="xtick_9">
     <g id="line2d_17">
      <path d="M 622.636364 384.48 
L 622.636364 51.84 
" clip-path="url(#p4d8e66af57)" style="fill: none; stroke: #b0b0b0; stroke-width: 0.8; stroke-linecap: square"/>
     </g>
     <g id="line2d_18">
      <g>
       <use xlink:href="#m4c1bd4410b" x="622.636364" y="384.48" style="stroke: #000000; stroke-width: 0.8"/>
      </g>
     </g>
     <g id="text_9">
      <!-- 1.00 -->
      <g transform="translate(611.503551 399.078438) scale(0.1 -0.1)">
       <use xlink:href="#DejaVuSans-31"/>
       <use xlink:href="#DejaVuSans-2e" x="63.623047"/>
       <use xlink:href="#DejaVuSans-30" x="95.410156"/>
       <use xlink:href="#DejaVuSans-30" x="159.033203"/>
      </g>
     </g>
    </g>
    <g id="text_10">
     <!-- x -->
     <g transform="translate(366.040625 412.756563) scale(0.1 -0.1)">
      <defs>
       <path id="DejaVuSans-78" d="M 3513 3500 
L 2247 1797 
L 3578 0 
L 2900 0 
L 1881 1375 
L 863 0 
L 184 0 
L 1544 1831 
L 300 3500 
L 978 3500 
L 1906 2253 
L 2834 3500 
L 3513 3500 
z
" transform="scale(0.015625)"/>
      </defs>
      <use xlink:href="#DejaVuSans-78"/>
     </g>
    </g>
   </g>
   <g id="matplotlib.axis_2">
    <g id="ytick_1">
     <g id="line2d_19">
      <path d="M 90 328.841323 
L 648 328.841323 
" clip-path="url(#p4d8e66af57)" style="fill: none; stroke: #b0b0b0; stroke-width: 0.8; stroke-linecap: square"/>
     </g>
     <g id="line2d_20">
      <defs>
       <path id="m7b8e8e2b52" d="M 0 0 
L -3.5 0 
" style="stroke: #000000; stroke-width: 0.8"/>
      </defs>
      <g>
       <use xlink:href="#m7b8e8e2b52" x="90" y="328.841323" style="stroke: #000000; stroke-width: 0.8"/>
      </g>
     </g>
     <g id="text_11">
      <!-- $\mathdefault{10^{-10}}$ -->
      <g transform="translate(55.1 332.640542) scale(0.1 -0.1)">
       <use xlink:href="#DejaVuSans-31" transform="translate(0 0.765625)"/>
       <use xlink:href="#DejaVuSans-30" transform="translate(63.623047 0.765625)"/>
       <use xlink:href="#DejaVuSans-2212" transform="translate(128.203125 39.046875) scale(0.7)"/>
       <use xlink:href="#DejaVuSans-31" transform="translate(186.855469 39.046875) scale(0.7)"/>
       <use xlink:href="#DejaVuSans-30" transform="translate(231.391602 39.046875) scale(0.7)"/>
      </g>
     </g>
    </g>
    <g id="ytick_2">
     <g id="line2d_21">
      <path d="M 90 267.531906 
L 648 267.531906 
" clip-path="url(#p4d8e66af57)" style="fill: none; stroke: #b0b0b0; stroke-width: 0.8; stroke-linecap: square"/>
     </g>
     <g id="line2d_22">
      <g>
       <use xlink:href="#m7b8e8e2b52" x="90" y="267.531906" style="stroke: #000000; stroke-width: 0.8"/>
      </g>
     </g>
     <g id="text_12">
      <!-- $\mathdefault{10^{-8}}$ -->
      <g transform="translate(59.5 271.331125) scale(0.1 -0.1)">
       <defs>
        <path id="DejaVuSans-38" d="M 2034 2216 
Q 1584 2216 1326 1975 
Q 1069 1734 1069 1313 
Q 1069 891 1326 650 
Q 1584 409 2034 409 
Q 2484 409 2743 651 
Q 3003 894 3003 1313 
Q 3003 1734 2745 1975 
Q 2488 2216 2034 2216 
z
M 1403 2484 
Q 997 2584 770 2862 
Q 544 3141 544 3541 
Q 544 4100 942 4425 
Q 1341 4750 2034 4750 
Q 2731 4750 3128 4425 
Q 3525 4100 3525 3541 
Q 3525 3141 3298 2862 
Q 3072 2584 2669 2484 
Q 3125 2378 3379 2068 
Q 3634 1759 3634 1313 
Q 3634 634 3220 271 
Q 2806 -91 2034 -91 
Q 1263 -91 848 271 
Q 434 634 434 1313 
Q 434 1759 690 2068 
Q 947 2378 1403 2484 
z
M 1172 3481 
Q 1172 3119 1398 2916 
Q 1625 2713 2034 2713 
Q 2441 2713 2670 2916 
Q 2900 3119 2900 3481 
Q 2900 3844 2670 4047 
Q 2441 4250 2034 4250 
Q 1625 4250 1398 4047 
Q 1172 3844 1172 3481 
z
" transform="scale(0.015625)"/>
       </defs>
       <use xlink:href="#DejaVuSans-31" transform="translate(0 0.765625)"/>
       <use xlink:href="#DejaVuSans-30" transform="translate(63.623047 0.765625)"/>
       <use xlink:href="#DejaVuSans-2212" transform="translate(128.203125 39.046875) scale(0.7)"/>
       <use xlink:href="#DejaVuSans-38" transform="translate(186.855469 39.046875) scale(0.7)"/>
      </g>
     </g>
    </g>
    <g id="ytick_3">
     <g id="line2d_23">
      <path d="M 90 206.222489 
L 648 206.222489 
" clip-path="url(#p4d8e66af57)" style="fill: none; stroke: #b0b0b0; stroke-width: 0.8; stroke-linecap: square"/>
     </g>
     <g id="line2d_24">
      <g>
       <use xlink:href="#m7b8e8e2b52" x="90" y="206.222489" style="stroke: #000000; stroke-width: 0.8"/>
      </g>
     </g>
     <g id="text_13">
      <!-- $\mathdefault{10^{-6}}$ -->
      <g transform="translate(59.5 210.021708) scale(0.1 -0.1)">
       <defs>
        <path id="DejaVuSans-36" d="M 2113 2584 
Q 1688 2584 1439 2293 
Q 1191 2003 1191 1497 
Q 1191 994 1439 701 
Q 1688 409 2113 409 
Q 2538 409 2786 701 
Q 3034 994 3034 1497 
Q 3034 2003 2786 2293 
Q 2538 2584 2113 2584 
z
M 3366 4563 
L 3366 3988 
Q 3128 4100 2886 4159 
Q 2644 4219 2406 4219 
Q 1781 4219 1451 3797 
Q 1122 3375 1075 2522 
Q 1259 2794 1537 2939 
Q 1816 3084 2150 3084 
Q 2853 3084 3261 2657 
Q 3669 2231 3669 1497 
Q 3669 778 3244 343 
Q 2819 -91 2113 -91 
Q 1303 -91 875 529 
Q 447 1150 447 2328 
Q 447 3434 972 4092 
Q 1497 4750 2381 4750 
Q 2619 4750 2861 4703 
Q 3103 4656 3366 4563 
z
" transform="scale(0.015625)"/>
       </defs>
       <use xlink:href="#DejaVuSans-31" transform="translate(0 0.765625)"/>
       <use xlink:href="#DejaVuSans-30" transform="translate(63.623047 0.765625)"/>
       <use xlink:href="#DejaVuSans-2212" transform="translate(128.203125 39.046875) scale(0.7)"/>
       <use xlink:href="#DejaVuSans-36" transform="translate(186.855469 39.046875) scale(0.7)"/>
      </g>
     </g>
    </g>
    <g id="ytick_4">
     <g id="line2d_25">
      <path d="M 90 144.913072 
L 648 144.913072 
" clip-path="url(#p4d8e66af57)" style="fill: none; stroke: #b0b0b0; stroke-width: 0.8; stroke-linecap: square"/>
     </g>
     <g id="line2d_26">
      <g>
       <use xlink:href="#m7b8e8e2b52" x="90" y="144.913072" style="stroke: #000000; stroke-width: 0.8"/>
      </g>
     </g>
     <g id="text_14">
      <!-- $\mathdefault{10^{-4}}$ -->
      <g transform="translate(59.5 148.712291) scale(0.1 -0.1)">
       <defs>
        <path id="DejaVuSans-34" d="M 2419 4116 
L 825 1625 
L 2419 1625 
L 2419 4116 
z
M 2253 4666 
L 3047 4666 
L 3047 1625 
L 3713 1625 
L 3713 1100 
L 3047 1100 
L 3047 0 
L 2419 0 
L 2419 1100 
L 313 1100 
L 313 1709 
L 2253 4666 
z
" transform="scale(0.015625)"/>
       </defs>
       <use xlink:href="#DejaVuSans-31" transform="translate(0 0.684375)"/>
       <use xlink:href="#DejaVuSans-30" transform="translate(63.623047 0.684375)"/>
       <use xlink:href="#DejaVuSans-2212" transform="translate(128.203125 38.965625) scale(0.7)"/>
       <use xlink:href="#DejaVuSans-34" transform="translate(186.855469 38.965625) scale(0.7)"/>
      </g>
     </g>
    </g>
    <g id="ytick_5">
     <g id="line2d_27">
      <path d="M 90 83.603655 
L 648 83.603655 
" clip-path="url(#p4d8e66af57)" style="fill: none; stroke: #b0b0b0; stroke-width: 0.8; stroke-linecap: square"/>
     </g>
     <g id="line2d_28">
      <g>
       <use xlink:href="#m7b8e8e2b52" x="90" y="83.603655" style="stroke: #000000; stroke-width: 0.8"/>
      </g>
     </g>
     <g id="text_15">
      <!-- $\mathdefault{10^{-2}}$ -->
      <g transform="translate(59.5 87.402873) scale(0.1 -0.1)">
       <use xlink:href="#DejaVuSans-31" transform="translate(0 0.765625)"/>
       <use xlink:href="#DejaVuSans-30" transform="translate(63.623047 0.765625)"/>
       <use xlink:href="#DejaVuSans-2212" transform="translate(128.203125 39.046875) scale(0.7)"/>
       <use xlink:href="#DejaVuSans-32" transform="translate(186.855469 39.046875) scale(0.7)"/>
      </g>
     </g>
    </g>
    <g id="text_16">
     <!-- |f(x) - p(x)| (échelle logarithmique) -->
     <g transform="translate(48.742187 305.111562) rotate(-90) scale(0.1 -0.1)">
      <defs>
       <path id="DejaVuSans-7c" d="M 1344 4891 
L 1344 -1509 
L 813 -1509 
L 813 4891 
L 1344 4891 
z
" transform="scale(0.015625)"/>
       <path id="DejaVuSans-66" d="M 2375 4863 
L 2375 4384 
L 1825 4384 
Q 1516 4384 1395 4259 
Q 1275 4134 1275 3809 
L 1275 3500 
L 2222 3500 
L 2222 3053 
L 1275 3053 
L 1275 0 
L 697 0 
L 697 3053 
L 147 3053 
L 147 3500 
L 697 3500 
L 697 3744 
Q 697 4328 969 4595 
Q 1241 4863 1831 4863 
L 2375 4863 
z
" transform="scale(0.015625)"/>
       <path id="DejaVuSans-28" d="M 1984 4856 
Q 1566 4138 1362 3434 
Q 1159 2731 1159 2009 
Q 1159 1288 1364 580 
Q 1569 -128 1984 -844 
L 1484 -844 
Q 1016 -109 783 600 
Q 550 1309 550 2009 
Q 550 2706 781 3412 
Q 1013 4119 1484 4856 
L 1984 4856 
z
" transform="scale(0.015625)"/>
       <path id="DejaVuSans-29" d="M 513 4856 
L 1013 4856 
Q 1481 4119 1714 3412 
Q 1947 2706 1947 2009 
Q 1947 1309 1714 600 
Q 1481 -109 1013 -844 
L 513 -844 
Q 928 -128 1133 580 
Q 1338 1288 1338 2009 
Q 1338 2731 1133 3434 
Q 928 4138 513 4856 
z
" transform="scale(0.015625)"/>
       <path id="DejaVuSans-20" transform="scale(0.015625)"/>
       <path id="DejaVuSans-2d" d="M 313 2009 
L 1997 2009 
L 1997 1497 
L 313 1497 
L 313 2009 
z
" transform="scale(0.015625)"/>
       <path id="DejaVuSans-70" d="M 1159 525 
L 1159 -1331 
L 581 -1331 
L 581 3500 
L 1159 3500 
L 1159 2969 
Q 1341 3281 1617 3432 
Q 1894 3584 2278 3584 
Q 2916 3584 3314 3078 
Q 3713 2572 3713 1747 
Q 3713 922 3314 415 
Q 2916 -91 2278 -91 
Q 1894 -91 1617 61 
Q 1341 213 1159 525 
z
M 3116 1747 
Q 3116 2381 2855 2742 
Q 2594 3103 2138 3103 
Q 1681 3103 1420 2742 
Q 1159 2381 1159 1747 
Q 1159 1113 1420 752 
Q 1681 391 2138 391 
Q 2594 391 2855 752 
Q 3116 1113 3116 1747 
z
" transform="scale(0.015625)"/>
       <path id="DejaVuSans-e9" d="M 3597 1894 
L 3597 1613 
L 953 1613 
Q 991 1019 1311 708 
Q 1631 397 2203 397 
Q 2534 397 2845 478 
Q 3156 559 3463 722 
L 3463 178 
Q 3153 47 2828 -22 
Q 2503 -91 2169 -91 
Q 1331 -91 842 396 
Q 353 884 353 1716 
Q 353 2575 817 3079 
Q 1281 3584 2069 3584 
Q 2775 3584 3186 3129 
Q 3597 2675 3597 1894 
z
M 3022 2063 
Q 3016 2534 2758 2815 
Q 2500 3097 2075 3097 
Q 1594 3097 1305 2825 
Q 1016 2553 972 2059 
L 3022 2063 
z
M 2466 5119 
L 3088 5119 
L 2070 3944 
L 1591 3944 
L 2466 5119 
z
" transform="scale(0.015625)"/>
       <path id="DejaVuSans-63" d="M 3122 3366 
L 3122 2828 
Q 2878 2963 2633 3030 
Q 2388 3097 2138 3097 
Q 1578 3097 1268 2742 
Q 959 2388 959 1747 
Q 959 1106 1268 751 
Q 1578 397 2138 397 
Q 2388 397 2633 464 
Q 2878 531 3122 666 
L 3122 134 
Q 2881 22 2623 -34 
Q 2366 -91 2075 -91 
Q 1284 -91 818 406 
Q 353 903 353 1747 
Q 353 2603 823 3093 
Q 1294 3584 2113 3584 
Q 2378 3584 2631 3529 
Q 2884 3475 3122 3366 
z
" transform="scale(0.015625)"/>
       <path id="DejaVuSans-68" d="M 3513 2113 
L 3513 0 
L 2938 0 
L 2938 2094 
Q 2938 2591 2744 2837 
Q 2550 3084 2163 3084 
Q 1697 3084 1428 2787 
Q 1159 2491 1159 1978 
L 1159 0 
L 581 0 
L 581 4863 
L 1159 4863 
L 1159 2956 
Q 1366 3272 1645 3428 
Q 1925 3584 2291 3584 
Q 2894 3584 3203 3211 
Q 3513 2838 3513 2113 
z
" transform="scale(0.015625)"/>
       <path id="DejaVuSans-65" d="M 3597 1894 
L 3597 1613 
L 953 1613 
Q 991 1019 1311 708 
Q 1631 397 2203 397 
Q 2534 397 2845 478 
Q 3156 559 3463 722 
L 3463 178 
Q 3153 47 2828 -22 
Q 2503 -91 2169 -91 
Q 1331 -91 842 396 
Q 353 884 353 1716 
Q 353 2575 817 3079 
Q 1281 3584 2069 3584 
Q 2775 3584 3186 3129 
Q 3597 2675 3597 1894 
z
M 3022 2063 
Q 3016 2534 2758 2815 
Q 2500 3097 2075 3097 
Q 1594 3097 1305 2825 
Q 1016 2553 972 2059 
L 3022 2063 
z
" transform="scale(0.015625)"/>
       <path id="DejaVuSans-6c" d="M 603 4863 
L 1178 4863 
L 1178 0 
L 603 0 
L 603 4863 
z
" transform="scale(0.015625)"/>
       <path id="DejaVuSans-6f" d="M 1959 3097 
Q 1497 3097 1228 2736 
Q 959 2375 959 1747 
Q 959 1119 1226 758 
Q 1494 397 1959 397 
Q 2419 397 2687 759 
Q 2956 1122 2956 1747 
Q 2956 2369 2687 2733 
Q 2419 3097 1959 3097 
z
M 1959 3584 
Q 2709 3584 3137 3096 
Q 3566 2609 3566 1747 
Q 3566 888 3137 398 
Q 2709 -91 1959 -91 
Q 1206 -91 779 398 
Q 353 888 353 1747 
Q 353 2609 779 3096 
Q 1206 3584 1959 3584 
z
" transform="scale(0.015625)"/>
       <path id="DejaVuSans-67" d="M 2906 1791 
Q 2906 2416 2648 2759 
Q 2391 3103 1925 3103 
Q 1463 3103 1205 2759 
Q 947 2416 947 1791 
Q 947 1169 1205 825 
Q 1463 481 1925 481 
Q 2391 481 2648 825 
Q 2906 1169 2906 1791 
z
M 3481 434 
Q 3481 -459 3084 -895 
Q 2688 -1331 1869 -1331 
Q 1566 -1331 1297 -1286 
Q 1028 -1241 775 -1147 
L 775 -588 
Q 1028 -725 1275 -790 
Q 1522 -856 1778 -856 
Q 2344 -856 2625 -561 
Q 2906 -266 2906 331 
L 2906 616 
Q 2728 306 2450 153 
Q 2172 0 1784 0 
Q 1141 0 747 490 
Q 353 981 353 1791 
Q 353 2603 747 3093 
Q 1141 3584 1784 3584 
Q 2172 3584 2450 3431 
Q 2728 3278 2906 2969 
L 2906 3500 
L 3481 3500 
L 3481 434 
z
" transform="scale(0.015625)"/>
       <path id="DejaVuSans-61" d="M 2194 1759 
Q 1497 1759 1228 1600 
Q 959 1441 959 1056 
Q 959 750 1161 570 
Q 1363 391 1709 391 
Q 2188 391 2477 730 
Q 2766 1069 2766 1631 
L 2766 1759 
L 2194 1759 
z
M 3341 1997 
L 3341 0 
L 2766 0 
L 2766 531 
Q 2569 213 2275 61 
Q 1981 -91 1556 -91 
Q 1019 -91 701 211 
Q 384 513 384 1019 
Q 384 1609 779 1909 
Q 1175 2209 1959 2209 
L 2766 2209 
L 2766 2266 
Q 2766 2663 2505 2880 
Q 2244 3097 1772 3097 
Q 1472 3097 1187 3025 
Q 903 2953 641 2809 
L 641 3341 
Q 956 3463 1253 3523 
Q 1550 3584 1831 3584 
Q 2591 3584 2966 3190 
Q 3341 2797 3341 1997 
z
" transform="scale(0.015625)"/>
       <path id="DejaVuSans-72" d="M 2631 2963 
Q 2534 3019 2420 3045 
Q 2306 3072 2169 3072 
Q 1681 3072 1420 2755 
Q 1159 2438 1159 1844 
L 1159 0 
L 581 0 
L 581 3500 
L 1159 3500 
L 1159 2956 
Q 1341 3275 1631 3429 
Q 1922 3584 2338 3584 
Q 2397 3584 2469 3576 
Q 2541 3569 2628 3553 
L 2631 2963 
z
" transform="scale(0.015625)"/>
       <path id="DejaVuSans-69" d="M 603 3500 
L 1178 3500 
L 1178 0 
L 603 0 
L 603 3500 
z
M 603 4863 
L 1178 4863 
L 1178 4134 
L 603 4134 
L 603 4863 
z
" transform="scale(0.015625)"/>
       <path id="DejaVuSans-74" d="M 1172 4494 
L 1172 3500 
L 2356 3500 
L 2356 3053 
L 1172 3053 
L 1172 1153 
Q 1172 725 1289 603 
Q 1406 481 1766 481 
L 2356 481 
L 2356 0 
L 1766 0 
Q 1100 0 847 248 
Q 594 497 594 1153 
L 594 3053 
L 172 3053 
L 172 3500 
L 594 3500 
L 594 4494 
L 1172 4494 
z
" transform="scale(0.015625)"/>
       <path id="DejaVuSans-6d" d="M 3328 2828 
Q 3544 3216 3844 3400 
Q 4144 3584 4550 3584 
Q 5097 3584 5394 3201 
Q 5691 2819 5691 2113 
L 5691 0 
L 5113 0 
L 5113 2094 
Q 5113 2597 4934 2840 
Q 4756 3084 4391 3084 
Q 3944 3084 3684 2787 
Q 3425 2491 3425 1978 
L 3425 0 
L 2847 0 
L 2847 2094 
Q 2847 2600 2669 2842 
Q 2491 3084 2119 3084 
Q 1678 3084 1418 2786 
Q 1159 2488 1159 1978 
L 1159 0 
L 581 0 
L 581 3500 
L 1159 3500 
L 1159 2956 
Q 1356 3278 1631 3431 
Q 1906 3584 2284 3584 
Q 2666 3584 2933 3390 
Q 3200 3197 3328 2828 
z
" transform="scale(0.015625)"/>
       <path id="DejaVuSans-71" d="M 947 1747 
Q 947 1113 1208 752 
Q 1469 391 1925 391 
Q 2381 391 2643 752 
Q 2906 1113 2906 1747 
Q 2906 2381 2643 2742 
Q 2381 3103 1925 3103 
Q 1469 3103 1208 2742 
Q 947 2381 947 1747 
z
M 2906 525 
Q 2725 213 2448 61 
Q 2172 -91 1784 -91 
Q 1150 -91 751 415 
Q 353 922 353 1747 
Q 353 2572 751 3078 
Q 1150 3584 1784 3584 
Q 2172 3584 2448 3432 
Q 2725 3281 2906 2969 
L 2906 3500 
L 3481 3500 
L 3481 -1331 
L 2906 -1331 
L 2906 525 
z
" transform="scale(0.015625)"/>
       <path id="DejaVuSans-75" d="M 544 1381 
L 544 3500 
L 1119 3500 
L 1119 1403 
Q 1119 906 1312 657 
Q 1506 409 1894 409 
Q 2359 409 2629 706 
Q 2900 1003 2900 1516 
L 2900 3500 
L 3475 3500 
L 3475 0 
L 2900 0 
L 2900 538 
Q 2691 219 2414 64 
Q 2138 -91 1772 -91 
Q 1169 -91 856 284 
Q 544 659 544 1381 
z
M 1991 3584 
L 1991 3584 
z
" transform="scale(0.015625)"/>
      </defs>
      <use xlink:href="#DejaVuSans-7c"/>
      <use xlink:href="#DejaVuSans-66" x="33.691406"/>
      <use xlink:href="#DejaVuSans-28" x="68.896484"/>
      <use xlink:href="#DejaVuSans-78" x="107.910156"/>
      <use xlink:href="#DejaVuSans-29" x="167.089844"/>
      <use xlink:href="#DejaVuSans-20" x="206.103516"/>
      <use xlink:href="#DejaVuSans-2d" x="237.890625"/>
      <use xlink:href="#DejaVuSans-20" x="273.974609"/>
      <use xlink:href="#DejaVuSans-70" x="305.761719"/>
      <use xlink:href="#DejaVuSans-28" x="369.238281"/>
      <use xlink:href="#DejaVuSans-78" x="408.251953"/>
      <use xlink:href="#DejaVuSans-29" x="467.431641"/>
      <use xlink:href="#DejaVuSans-7c" x="506.445312"/>
      <use xlink:href="#DejaVuSans-20" x="540.136719"/>
      <use xlink:href="#DejaVuSans-28" x="571.923828"/>
      <use xlink:href="#DejaVuSans-e9" x="610.9375"/>
      <use xlink:href="#DejaVuSans-63" x="672.460938"/>
      <use xlink:href="#DejaVuSans-68" x="727.441406"/>
      <use xlink:href="#DejaVuSans-65" x="790.820312"/>
      <use xlink:href="#DejaVuSans-6c" x="852.34375"/>
      <use xlink:href="#DejaVuSans-6c" x="880.126953"/>
      <use xlink:href="#DejaVuSans-65" x="907.910156"/>
      <use xlink:href="#DejaVuSans-20" x="969.433594"/>
      <use xlink:href="#DejaVuSans-6c" x="1001.220703"/>
      <use xlink:href="#DejaVuSans-6f" x="1029.003906"/>
      <use xlink:href="#DejaVuSans-67" x="1090.185547"/>
      <use xlink:href="#DejaVuSans-61" x="1153.662109"/>
      <use xlink:href="#DejaVuSans-72" x="1214.941406"/>
      <use xlink:href="#DejaVuSans-69" x="1256.054688"/>
      <use xlink:href="#DejaVuSans-74" x="1283.837891"/>
      <use xlink:href="#DejaVuSans-68" x="1323.046875"/>
      <use xlink:href="#DejaVuSans-6d" x="1386.425781"/>
      <use xlink:href="#DejaVuSans-69" x="1483.837891"/>
      <use xlink:href="#DejaVuSans-71" x="1511.621094"/>
      <use xlink:href="#DejaVuSans-75" x="1575.097656"/>
      <use xlink:href="#DejaVuSans-65" x="1638.476562"/>
      <use xlink:href="#DejaVuSans-29" x="1700"/>
     </g>
    </g>
   </g>
   <g id="line2d_29">
    <path d="M 115.363636 87.321497 
L 129.07371 91.103004 
L 142.276003 94.973093 
L 154.462735 98.770711 
L 166.141687 102.640092 
L 177.312858 106.580512 
L 187.468468 110.393737 
L 197.116298 114.248586 
L 206.256347 118.138852 
L 214.888616 122.056878 
L 223.013104 125.993285 
L 230.629812 129.936658 
L 237.738739 133.873173 
L 244.339885 137.786148 
L 250.433251 141.655523 
L 256.018837 145.457237 
L 261.096642 149.162521 
L 266.174447 153.150111 
L 270.744472 157.029092 
L 274.806716 160.757595 
L 278.86896 164.81151 
L 282.423423 168.69256 
L 285.470106 172.333966 
L 288.51679 176.350774 
L 291.055692 180.074749 
L 293.086814 183.381765 
L 295.117936 187.081329 
L 297.149058 191.330156 
L 298.6724 195.040437 
L 300.195741 199.436786 
L 301.211302 202.951001 
L 302.226863 207.212876 
L 303.242424 212.75922 
L 303.750205 216.388314 
L 304.257985 221.074403 
L 304.765766 227.851295 
L 305.273546 240.967799 
L 305.781327 248.167555 
L 306.289107 231.272522 
L 306.796888 224.402401 
L 307.304668 220.133928 
L 307.812449 217.092468 
L 308.82801 212.918712 
L 309.843571 210.140135 
L 310.859132 208.159775 
L 311.874693 206.700786 
L 312.890254 205.612167 
L 313.905815 204.802647 
L 314.921376 204.213011 
L 316.444717 203.655724 
L 317.968059 203.413837 
L 319.4914 203.429954 
L 321.014742 203.666609 
L 322.538084 204.099098 
L 324.569206 204.95385 
L 326.600328 206.108971 
L 328.63145 207.560288 
L 330.662572 209.318205 
L 332.693694 211.409024 
L 334.724816 213.879606 
L 336.248157 216.026814 
L 337.771499 218.480748 
L 339.29484 221.317844 
L 340.818182 224.66032 
L 342.341523 228.720486 
L 343.357084 232.016912 
L 344.372645 236.045746 
L 345.388206 241.291926 
L 345.895987 244.698658 
L 346.403767 249.033674 
L 346.911548 255.096485 
L 347.419328 265.626519 
L 347.927109 291.927981 
L 348.434889 263.08324 
L 348.94267 255.035951 
L 349.45045 250.334178 
L 349.958231 247.083982 
L 350.973792 242.755136 
L 351.989353 239.987321 
L 353.004914 238.117135 
L 354.020475 236.848851 
L 355.036036 236.027775 
L 356.051597 235.565996 
L 357.067158 235.412345 
L 358.082719 235.538744 
L 359.09828 235.933835 
L 360.113841 236.60057 
L 361.129402 237.556649 
L 362.144963 238.837997 
L 363.160524 240.506909 
L 364.176085 242.669412 
L 365.191646 245.5145 
L 366.207207 249.416457 
L 366.714988 252.001482 
L 367.222768 255.278375 
L 367.730549 259.706404 
L 368.238329 266.472881 
L 368.74611 281.081805 
L 369.25389 281.081805 
L 369.761671 266.472881 
L 370.269451 259.706404 
L 370.777232 255.278375 
L 371.792793 249.416457 
L 372.808354 245.5145 
L 373.823915 242.669412 
L 374.839476 240.506909 
L 375.855037 238.837997 
L 376.870598 237.556649 
L 377.886159 236.60057 
L 378.90172 235.933835 
L 379.917281 235.538744 
L 380.932842 235.412345 
L 381.948403 235.565996 
L 382.963964 236.027775 
L 383.979525 236.848851 
L 384.995086 238.117135 
L 386.010647 239.987321 
L 387.026208 242.755136 
L 387.533989 244.653977 
L 388.041769 247.083982 
L 388.54955 250.334178 
L 389.05733 255.035951 
L 389.565111 263.08324 
L 390.072891 291.927981 
L 390.580672 265.626519 
L 391.088452 255.096485 
L 391.596233 249.033674 
L 392.611794 241.291926 
L 393.627355 236.045746 
L 394.642916 232.016912 
L 395.658477 228.720486 
L 397.181818 224.66032 
L 398.70516 221.317844 
L 400.228501 218.480748 
L 401.751843 216.026814 
L 403.782965 213.222783 
L 405.814087 210.852968 
L 407.845209 208.848845 
L 409.876331 207.169373 
L 411.907453 205.79251 
L 413.938575 204.71151 
L 415.969697 203.934309 
L 417.493038 203.564955 
L 419.01638 203.39854 
L 420.539722 203.463468 
L 422.063063 203.802824 
L 423.078624 204.213011 
L 424.094185 204.802647 
L 425.109746 205.612167 
L 426.125307 206.700786 
L 427.140868 208.159775 
L 428.156429 210.140135 
L 429.17199 212.918712 
L 429.679771 214.769169 
L 430.187551 217.092468 
L 430.695332 220.133928 
L 431.203112 224.402401 
L 431.710893 231.272522 
L 432.218673 248.167555 
L 432.726454 240.967799 
L 433.234234 227.851295 
L 433.742015 221.074403 
L 434.249795 216.388314 
L 435.265356 209.770709 
L 436.280917 204.964944 
L 437.296478 201.120194 
L 438.81982 196.414289 
L 440.343161 192.507048 
L 441.866503 189.123528 
L 443.897625 185.174619 
L 445.928747 181.686156 
L 448.467649 177.793224 
L 451.006552 174.288896 
L 454.053235 170.472207 
L 457.099918 166.985995 
L 460.654382 163.248431 
L 464.716626 159.324916 
L 468.77887 155.702059 
L 473.348894 151.921028 
L 478.426699 148.023533 
L 484.012285 144.043962 
L 489.597871 140.33573 
L 495.691237 136.553313 
L 502.292383 132.720959 
L 509.40131 128.859037 
L 517.018018 124.984599 
L 525.142506 121.111865 
L 533.774775 117.252645 
L 542.914824 113.416699 
L 552.562654 109.612049 
L 562.718264 105.845244 
L 573.381654 102.121579 
L 585.060606 98.283222 
L 597.247338 94.514171 
L 610.449631 90.671424 
L 622.636364 87.321497 
L 622.636364 87.321497 
" clip-path="url(#p4d8e66af57)" style="fill: none; stroke: #0000ff; stroke-width: 1.5; stroke-linecap: square"/>
   </g>
   <g id="line2d_30">
    <path d="M 115.363636 67.854101 
L 130.597052 71.282384 
L 144.814906 74.704011 
L 158.017199 78.101884 
L 170.711712 81.60014 
L 182.390663 85.049805 
L 193.054054 88.423658 
L 203.209664 91.867629 
L 212.349713 95.190748 
L 220.981982 98.555772 
L 229.10647 101.957725 
L 236.723178 105.3902 
L 243.832105 108.845007 
L 250.433251 112.311732 
L 256.526618 115.777154 
L 262.112203 119.224473 
L 267.190008 122.632289 
L 271.760033 125.973264 
L 275.822277 129.212418 
L 279.37674 132.305093 
L 282.931204 135.701626 
L 285.977887 138.921754 
L 288.51679 141.886449 
L 291.055692 145.185665 
L 293.086814 148.142698 
L 295.117936 151.482705 
L 296.641278 154.329212 
L 298.164619 157.584123 
L 299.687961 161.429228 
L 300.703522 164.478911 
L 301.719083 168.124888 
L 302.734644 172.728835 
L 303.750205 179.141486 
L 304.257985 183.723891 
L 304.765766 190.396276 
L 305.273546 203.407441 
L 305.781327 210.501008 
L 306.289107 193.498926 
L 306.796888 186.52088 
L 307.304668 182.143591 
L 307.812449 178.992412 
L 308.82801 174.596444 
L 309.843571 171.591852 
L 310.859132 169.381542 
L 311.874693 167.688531 
L 312.890254 166.361671 
L 313.905815 165.309538 
L 315.429156 164.121914 
L 316.952498 163.294555 
L 318.475839 162.749164 
L 319.999181 162.435389 
L 321.522523 162.319845 
L 323.045864 162.380257 
L 325.076986 162.71039 
L 327.108108 163.309911 
L 329.13923 164.175484 
L 331.170352 165.317975 
L 333.201474 166.764403 
L 335.232596 168.563571 
L 336.755938 170.192331 
L 338.279279 172.119942 
L 339.802621 174.432117 
L 341.325962 177.270654 
L 342.341523 179.574315 
L 343.357084 182.353922 
L 344.372645 185.845029 
L 345.388206 190.530813 
L 345.895987 193.648233 
L 346.403767 197.687504 
L 346.911548 203.447841 
L 347.419328 213.668362 
L 347.927109 239.652935 
L 348.434889 210.483571 
L 348.94267 202.103537 
L 349.45045 197.060481 
L 349.958231 193.460015 
L 350.973792 188.401683 
L 351.989353 184.862049 
L 353.004914 182.172497 
L 354.020475 180.031061 
L 355.036036 178.275489 
L 356.559378 176.162921 
L 358.082719 174.51002 
L 359.606061 173.203206 
L 361.129402 172.171966 
L 362.652744 171.370317 
L 364.176085 170.76748 
L 366.207207 170.238372 
L 368.238329 169.997255 
L 370.269451 170.031482 
L 372.300573 170.342816 
L 374.331695 170.947781 
L 375.855037 171.614169 
L 377.378378 172.48831 
L 378.90172 173.605337 
L 380.425061 175.018065 
L 381.948403 176.808599 
L 382.963964 178.275489 
L 383.979525 180.031061 
L 384.995086 182.172497 
L 386.010647 184.862049 
L 387.026208 188.401683 
L 387.533989 190.670267 
L 388.041769 193.460015 
L 388.54955 197.060481 
L 389.05733 202.103537 
L 389.565111 210.483571 
L 390.072891 239.652935 
L 390.580672 213.668362 
L 391.088452 203.447841 
L 391.596233 197.687504 
L 392.104013 193.648233 
L 393.119574 187.99004 
L 394.135135 183.989071 
L 395.150696 180.893286 
L 396.166257 178.37286 
L 397.689599 175.310362 
L 399.21294 172.842446 
L 400.736282 170.798225 
L 402.259623 169.077146 
L 404.290745 167.178607 
L 406.321867 165.649617 
L 408.352989 164.434394 
L 410.384111 163.501184 
L 412.415233 162.835386 
L 414.446355 162.436811 
L 416.477477 162.319845 
L 418.000819 162.435389 
L 419.524161 162.749164 
L 421.047502 163.294555 
L 422.570844 164.121914 
L 423.586405 164.867103 
L 424.601966 165.805528 
L 425.617527 166.98602 
L 426.633088 168.481709 
L 427.648649 170.408921 
L 428.66421 172.969092 
L 429.679771 176.558474 
L 430.187551 178.992412 
L 430.695332 182.143591 
L 431.203112 186.52088 
L 431.710893 193.498926 
L 432.218673 210.501008 
L 432.726454 203.407441 
L 433.234234 190.396276 
L 433.742015 183.723891 
L 434.249795 179.141486 
L 435.265356 172.728835 
L 436.280917 168.124888 
L 437.296478 164.478911 
L 438.81982 160.065653 
L 440.343161 156.444698 
L 441.866503 153.34137 
L 443.897625 149.757002 
L 445.928747 146.623246 
L 448.467649 143.160641 
L 451.006552 140.072979 
L 454.053235 136.739423 
L 457.099918 133.719157 
L 460.654382 130.505023 
L 464.716626 127.155113 
L 468.77887 124.081696 
L 473.348894 120.892281 
L 478.426699 117.622011 
L 484.012285 114.299047 
L 490.105651 110.945898 
L 496.706798 107.58055 
L 503.815725 104.217376 
L 511.432432 100.867853 
L 519.556921 97.541132 
L 528.189189 94.244472 
L 537.837019 90.808703 
L 547.992629 87.435942 
L 558.65602 84.126612 
L 570.334971 80.738073 
L 583.029484 77.297262 
L 596.231777 73.951199 
L 610.449631 70.578114 
L 622.636364 67.854101 
L 622.636364 67.854101 
" clip-path="url(#p4d8e66af57)" style="fill: none; stroke-dasharray: 5.55,2.4; stroke-dashoffset: 0; stroke: #0000ff; stroke-width: 1.5"/>
   </g>
   <g id="line2d_31">
    <path d="M 115.363636 86.585631 
L 129.581491 90.419999 
L 143.291564 94.347035 
L 155.986077 98.209459 
L 168.172809 102.148125 
L 179.851761 106.162039 
L 190.515152 110.057973 
L 200.670762 114.000053 
L 210.318591 117.981567 
L 219.45864 121.994147 
L 228.090909 126.027483 
L 236.215397 130.068995 
L 243.832105 134.103487 
L 250.941032 138.112773 
L 257.542179 142.075299 
L 264.143325 146.301021 
L 270.236691 150.468976 
L 275.822277 154.548277 
L 281.407862 158.912489 
L 286.485667 163.165571 
L 291.055692 167.262812 
L 295.625717 171.656862 
L 299.687961 175.853271 
L 303.750205 180.371734 
L 307.304668 184.637683 
L 310.859132 189.252399 
L 313.905815 193.541659 
L 316.952498 198.207192 
L 319.4914 202.448258 
L 322.030303 207.091496 
L 324.569206 212.251959 
L 326.600328 216.873364 
L 328.63145 222.098335 
L 330.154791 226.571422 
L 331.678133 231.742699 
L 332.693694 235.762362 
L 333.709255 240.487145 
L 334.724816 246.367925 
L 335.232596 250.038902 
L 335.740377 254.553961 
L 336.248157 260.582398 
L 336.755938 270.191354 
L 337.263718 308.702139 
L 337.771499 273.454981 
L 338.279279 264.610433 
L 338.78706 259.904985 
L 339.29484 256.854984 
L 339.802621 254.708923 
L 340.310401 253.137492 
L 340.818182 251.966957 
L 341.325962 251.094589 
L 341.833743 250.454766 
L 342.341523 250.003184 
L 342.849304 249.708685 
L 343.357084 249.54868 
L 344.372645 249.569333 
L 345.388206 249.97472 
L 346.403767 250.713287 
L 347.419328 251.757723 
L 348.434889 253.098163 
L 349.45045 254.739541 
L 350.466011 256.701857 
L 351.481572 259.023437 
L 352.497133 261.768657 
L 353.512695 265.044281 
L 354.528256 269.035888 
L 355.543817 274.100946 
L 356.559378 281.071205 
L 357.067158 285.942136 
L 357.574939 292.838573 
L 358.5905 316.825193 
L 359.09828 298.559403 
L 359.606061 291.911079 
L 360.113841 288.075374 
L 360.621622 285.573164 
L 361.129402 283.873777 
L 361.637183 282.728537 
L 362.144963 282.003862 
L 362.652744 281.62295 
L 363.160524 281.541311 
L 363.668305 281.735455 
L 364.176085 282.197709 
L 364.683866 282.934564 
L 365.191646 283.96781 
L 365.699427 285.338953 
L 366.207207 287.119058 
L 366.714988 289.429844 
L 367.222768 292.49272 
L 367.730549 296.763249 
L 368.238329 303.426119 
L 368.74611 317.983649 
L 369.25389 317.983649 
L 369.761671 303.426119 
L 370.269451 296.763249 
L 370.777232 292.49272 
L 371.285012 289.429844 
L 371.792793 287.119058 
L 372.300573 285.338953 
L 372.808354 283.96781 
L 373.316134 282.934564 
L 373.823915 282.197709 
L 374.331695 281.735455 
L 374.839476 281.541311 
L 375.347256 281.62295 
L 375.855037 282.003862 
L 376.362817 282.728537 
L 376.870598 283.873777 
L 377.378378 285.573164 
L 377.886159 288.075374 
L 378.393939 291.911079 
L 378.90172 298.559403 
L 379.4095 316.825193 
L 380.425061 292.838573 
L 380.932842 285.942136 
L 381.948403 277.256925 
L 382.963964 271.399946 
L 383.979525 266.934086 
L 384.995086 263.331076 
L 386.010647 260.337696 
L 387.533989 256.701857 
L 389.05733 253.880359 
L 390.072891 252.390971 
L 391.088452 251.19825 
L 392.104013 250.304526 
L 393.119574 249.727844 
L 394.135135 249.506428 
L 394.642916 249.54868 
L 395.150696 249.708685 
L 395.658477 250.003184 
L 396.166257 250.454766 
L 396.674038 251.094589 
L 397.181818 251.966957 
L 397.689599 253.137492 
L 398.197379 254.708923 
L 398.70516 256.854984 
L 399.21294 259.904985 
L 399.720721 264.610433 
L 400.228501 273.454981 
L 400.736282 308.702139 
L 401.244062 270.191354 
L 401.751843 260.582398 
L 402.259623 254.553961 
L 403.275184 246.367925 
L 404.290745 240.487145 
L 405.306306 235.762362 
L 406.829648 229.922541 
L 408.352989 225.015611 
L 410.384111 219.397091 
L 412.415233 214.498824 
L 414.446355 210.116001 
L 416.985258 205.179684 
L 419.524161 200.70853 
L 422.570844 195.822405 
L 425.617527 191.35457 
L 429.17199 186.568889 
L 432.726454 182.161191 
L 436.788698 177.507019 
L 440.850942 173.196017 
L 445.420966 168.692239 
L 449.990991 164.501018 
L 455.068796 160.157935 
L 460.146601 156.100117 
L 465.732187 151.921868 
L 471.825553 147.66001 
L 477.918919 143.667477 
L 484.520066 139.607836 
L 491.628993 135.506731 
L 499.2457 131.385866 
L 506.862408 127.51348 
L 514.986896 123.624508 
L 523.619165 119.734242 
L 532.759214 115.855512 
L 542.407043 111.998994 
L 552.562654 108.173488 
L 563.733825 104.211243 
L 575.412776 100.313067 
L 587.599509 96.481464 
L 600.801802 92.572092 
L 614.511876 88.748643 
L 622.636364 86.585631 
L 622.636364 86.585631 
" clip-path="url(#p4d8e66af57)" style="fill: none; stroke: #008000; stroke-width: 1.5; stroke-linecap: square"/>
   </g>
   <g id="line2d_32">
    <path d="M 115.363636 67.134908 
L 131.104832 70.578975 
L 145.830467 74.018182 
L 160.048321 77.566593 
L 173.250614 81.090859 
L 185.437346 84.568529 
L 197.116298 88.133118 
L 207.779689 91.614895 
L 217.935299 95.162331 
L 227.583129 98.772882 
L 236.215397 102.2319 
L 244.339885 105.714333 
L 251.956593 109.20897 
L 259.06552 112.701917 
L 265.666667 116.17614 
L 272.267813 119.908143 
L 278.361179 123.61988 
L 283.946765 127.286132 
L 289.02457 130.876126 
L 293.594595 134.352798 
L 298.164619 138.104098 
L 302.226863 141.71198 
L 306.289107 145.628889 
L 309.843571 149.362642 
L 313.398034 153.447955 
L 316.444717 157.296638 
L 318.98362 160.809497 
L 321.522523 164.672289 
L 324.061425 168.986905 
L 326.092547 172.869938 
L 328.123669 177.27965 
L 329.647011 181.066832 
L 331.170352 185.448753 
L 332.693694 190.741937 
L 333.709255 195.089374 
L 334.724816 200.581769 
L 335.232596 204.054209 
L 335.740377 208.367716 
L 336.248157 214.191496 
L 336.755938 223.592593 
L 337.263718 261.892213 
L 337.771499 226.430479 
L 338.279279 217.367834 
L 338.78706 212.440646 
L 339.29484 209.165143 
L 339.802621 206.789686 
L 340.818182 203.576696 
L 341.833743 201.57617 
L 342.849304 200.323126 
L 343.864865 199.593802 
L 344.880426 199.266391 
L 345.895987 199.270611 
L 346.911548 199.566115 
L 347.927109 200.132434 
L 348.94267 200.964455 
L 349.958231 202.07122 
L 350.973792 203.477515 
L 351.989353 205.228933 
L 353.004914 207.402948 
L 354.020475 210.132805 
L 355.036036 213.664169 
L 356.051597 218.516037 
L 356.559378 221.797783 
L 357.067158 226.113979 
L 357.574939 232.43155 
L 358.5905 255.17895 
L 359.09828 236.247414 
L 359.606061 228.898284 
L 360.113841 224.322814 
L 360.621622 221.037293 
L 361.637183 216.472527 
L 362.652744 213.391068 
L 363.668305 211.182435 
L 364.683866 209.568397 
L 365.699427 208.401381 
L 366.714988 207.596717 
L 367.730549 207.104835 
L 368.74611 206.898521 
L 369.761671 206.967002 
L 370.777232 207.313811 
L 371.792793 207.957481 
L 372.808354 208.935346 
L 373.823915 210.312285 
L 374.839476 212.199386 
L 375.855037 214.796542 
L 376.870598 218.505602 
L 377.378378 221.037293 
L 377.886159 224.322814 
L 378.393939 228.898284 
L 378.90172 236.247414 
L 379.4095 255.17895 
L 380.425061 232.43155 
L 380.932842 226.113979 
L 381.440622 221.797783 
L 382.456183 215.8721 
L 383.471744 211.775561 
L 384.487305 208.686737 
L 385.502867 206.256518 
L 386.518428 204.30618 
L 387.533989 202.734655 
L 388.54955 201.482353 
L 389.565111 200.515003 
L 390.580672 199.816075 
L 391.596233 199.383626 
L 392.611794 199.230116 
L 393.627355 199.385125 
L 394.642916 199.9022 
L 395.658477 200.873524 
L 396.674038 202.462403 
L 397.181818 203.576696 
L 397.689599 204.98483 
L 398.197379 206.789686 
L 398.70516 209.165143 
L 399.21294 212.440646 
L 399.720721 217.367834 
L 400.228501 226.430479 
L 400.736282 261.892213 
L 401.244062 223.592593 
L 401.751843 214.191496 
L 402.259623 208.367716 
L 403.275184 200.581769 
L 404.290745 195.089374 
L 405.306306 190.741937 
L 406.829648 185.448753 
L 408.352989 181.066832 
L 409.876331 177.27965 
L 411.907453 172.869938 
L 413.938575 168.986905 
L 416.477477 164.672289 
L 419.01638 160.809497 
L 422.063063 156.629611 
L 425.109746 152.839783 
L 428.66421 148.809429 
L 432.218673 145.120267 
L 436.280917 141.245264 
L 440.343161 137.672199 
L 444.913186 133.953776 
L 449.990991 130.136544 
L 455.068796 126.598844 
L 460.654382 122.981647 
L 466.747748 119.315571 
L 473.348894 115.62583 
L 479.950041 112.187981 
L 487.058968 108.72898 
L 494.675676 105.265898 
L 502.800164 101.812714 
L 511.432432 98.380754 
L 520.572482 94.97909 
L 530.728092 91.443716 
L 541.391482 87.972976 
L 552.562654 84.568529 
L 564.749386 81.090859 
L 577.443898 77.697858 
L 591.153972 74.263856 
L 605.879607 70.809089 
L 621.620803 67.350449 
L 622.636364 67.134908 
L 622.636364 67.134908 
" clip-path="url(#p4d8e66af57)" style="fill: none; stroke-dasharray: 5.55,2.4; stroke-dashoffset: 0; stroke: #008000; stroke-width: 1.5"/>
   </g>
   <g id="line2d_33">
    <path d="M 115.363636 86.406555 
L 130.089271 90.359734 
L 143.799345 94.27061 
L 156.493857 98.114586 
L 168.68059 102.031467 
L 180.359541 106.019663 
L 191.022932 109.886765 
L 201.178542 113.795252 
L 210.826372 117.737702 
L 219.966421 121.704967 
L 228.59869 125.685892 
L 236.723178 129.667018 
L 244.339885 133.632265 
L 251.956593 137.852579 
L 259.06552 142.052558 
L 265.666667 146.209076 
L 271.760033 150.29486 
L 277.853399 154.652623 
L 283.438984 158.919511 
L 288.51679 163.056312 
L 293.594595 167.473526 
L 298.164619 171.722955 
L 302.734644 176.270403 
L 306.796888 180.599878 
L 310.859132 185.241484 
L 314.921376 190.2456 
L 318.475839 194.971654 
L 322.030303 200.07933 
L 325.076986 204.814619 
L 328.123669 209.940766 
L 331.170352 215.534475 
L 333.709255 220.627144 
L 336.248157 226.198768 
L 338.78706 232.364686 
L 340.818182 237.837035 
L 342.849304 243.927699 
L 344.880426 250.840766 
L 346.403767 256.76863 
L 347.927109 263.618581 
L 348.94267 268.935464 
L 349.958231 275.181727 
L 350.973792 282.996336 
L 351.481572 287.95389 
L 351.989353 294.253048 
L 352.497133 303.440001 
L 353.004914 325.184573 
L 354.020475 304.368135 
L 354.528256 299.997218 
L 355.036036 297.63116 
L 355.543817 296.340765 
L 356.051597 295.746359 
L 356.559378 295.658913 
L 357.067158 295.974316 
L 357.574939 296.633112 
L 358.082719 297.602785 
L 359.09828 300.434523 
L 360.113841 304.541035 
L 361.129402 310.302289 
L 361.637183 314.090783 
L 362.144963 318.837403 
L 362.652744 325.198828 
L 363.160524 335.163158 
L 363.668305 369.36 
L 364.176085 340.837032 
L 364.683866 332.836319 
L 365.191646 329.377594 
L 365.699427 327.909447 
L 366.207207 327.740419 
L 366.714988 328.66657 
L 367.222768 330.743325 
L 367.730549 334.333305 
L 368.238329 340.567218 
L 368.74611 354.917115 
L 369.25389 354.917115 
L 369.761671 340.567218 
L 370.269451 334.333305 
L 370.777232 330.743325 
L 371.285012 328.66657 
L 371.792793 327.740419 
L 372.300573 327.909447 
L 372.808354 329.377594 
L 373.316134 332.836319 
L 373.823915 340.837032 
L 374.331695 369.36 
L 374.839476 335.163158 
L 375.347256 325.198828 
L 375.855037 318.837403 
L 376.870598 310.302289 
L 377.886159 304.541035 
L 378.90172 300.434523 
L 379.917281 297.602785 
L 380.425061 296.633112 
L 380.932842 295.974316 
L 381.440622 295.658913 
L 381.948403 295.746359 
L 382.456183 296.340765 
L 382.963964 297.63116 
L 383.471744 299.997218 
L 383.979525 304.368135 
L 384.995086 325.184573 
L 385.502867 303.440001 
L 386.010647 294.253048 
L 387.026208 282.996336 
L 388.041769 275.181727 
L 389.05733 268.935464 
L 390.580672 261.208664 
L 392.104013 254.706593 
L 393.627355 249.019791 
L 395.658477 242.337636 
L 397.689599 236.417001 
L 400.228501 229.817708 
L 402.767404 223.906186 
L 405.306306 218.537801 
L 408.352989 212.673449 
L 411.399672 207.324555 
L 414.446355 202.402119 
L 418.000819 197.110204 
L 421.555283 192.228167 
L 425.109746 187.694594 
L 429.17199 182.878789 
L 433.234234 178.398845 
L 437.804259 173.704739 
L 442.374283 169.327934 
L 447.452088 164.787415 
L 452.529894 160.5429 
L 458.115479 156.172188 
L 463.701065 152.075472 
L 469.794431 147.880635 
L 476.395577 143.620195 
L 482.996724 139.619753 
L 490.105651 135.568025 
L 497.722359 131.487698 
L 505.846847 127.397995 
L 514.479115 123.315022 
L 523.619165 119.252133 
L 533.266994 115.220279 
L 543.422604 111.228345 
L 554.085995 107.283445 
L 565.257166 103.391198 
L 576.936118 99.555962 
L 589.630631 95.628407 
L 602.832924 91.780858 
L 616.542998 88.013158 
L 622.636364 86.406555 
L 622.636364 86.406555 
" clip-path="url(#p4d8e66af57)" style="fill: none; stroke: #ffa500; stroke-width: 1.5; stroke-linecap: square"/>
   </g>
   <g id="line2d_34">
    <path d="M 115.363636 66.96 
L 131.612613 70.493979 
L 146.846028 74.035236 
L 161.063882 77.568063 
L 174.266175 81.073416 
L 186.960688 84.677471 
L 198.63964 88.224507 
L 209.810811 91.855008 
L 219.966421 95.386391 
L 229.614251 98.974638 
L 238.7543 102.614526 
L 247.386568 106.299027 
L 255.511057 110.01893 
L 263.127764 113.76238 
L 270.236691 117.51438 
L 276.837838 121.256227 
L 282.931204 124.964933 
L 288.51679 128.612643 
L 294.102375 132.53523 
L 299.18018 136.37829 
L 303.750205 140.099679 
L 308.320229 144.111402 
L 312.382473 147.962254 
L 316.444717 152.128954 
L 319.999181 156.080466 
L 323.553645 160.371495 
L 326.600328 164.371423 
L 329.647011 168.728798 
L 332.693694 173.521504 
L 335.232596 177.925621 
L 337.771499 182.797334 
L 339.802621 187.11785 
L 341.833743 191.920147 
L 343.864865 197.355746 
L 345.388206 201.993286 
L 346.911548 207.303276 
L 348.434889 213.604985 
L 349.45045 218.661693 
L 350.466011 224.863654 
L 351.481572 233.24076 
L 351.989353 239.148413 
L 352.497133 247.931989 
L 353.004914 269.260573 
L 354.020475 247.570982 
L 354.528256 242.741018 
L 355.036036 239.89951 
L 355.543817 238.116047 
L 356.051597 237.009598 
L 356.559378 236.389618 
L 357.067158 236.150286 
L 357.574939 236.230217 
L 358.082719 236.594696 
L 358.5905 237.227368 
L 359.09828 238.126661 
L 359.606061 239.305292 
L 360.113841 240.792602 
L 360.621622 242.640782 
L 361.129402 244.938242 
L 361.637183 247.8389 
L 362.144963 251.634211 
L 362.652744 256.971073 
L 363.160524 265.82536 
L 363.668305 298.811107 
L 364.176085 268.955736 
L 364.683866 259.47428 
L 365.191646 254.349257 
L 365.699427 250.976002 
L 366.207207 248.582969 
L 366.714988 246.83757 
L 367.222768 245.568544 
L 367.730549 244.679019 
L 368.238329 244.112228 
L 368.74611 243.836115 
L 369.25389 243.836115 
L 369.761671 244.112228 
L 370.269451 244.679019 
L 370.777232 245.568544 
L 371.285012 246.83757 
L 371.792793 248.582969 
L 372.300573 250.976002 
L 372.808354 254.349257 
L 373.316134 259.47428 
L 373.823915 268.955736 
L 374.331695 298.811107 
L 374.839476 265.82536 
L 375.347256 256.971073 
L 375.855037 251.634211 
L 376.362817 247.8389 
L 377.378378 242.640782 
L 378.393939 239.305292 
L 379.4095 237.227368 
L 379.917281 236.594696 
L 380.425061 236.230217 
L 380.932842 236.150286 
L 381.440622 236.389618 
L 381.948403 237.009598 
L 382.456183 238.116047 
L 382.963964 239.89951 
L 383.471744 242.741018 
L 383.979525 247.570982 
L 384.995086 269.260573 
L 385.502867 247.931989 
L 386.010647 239.148413 
L 386.518428 233.24076 
L 387.533989 224.863654 
L 388.54955 218.661693 
L 389.565111 213.604985 
L 391.088452 207.303276 
L 392.611794 201.993286 
L 394.135135 197.355746 
L 396.166257 191.920147 
L 398.197379 187.11785 
L 400.736282 181.780052 
L 403.275184 177.010738 
L 405.814087 172.688347 
L 408.86077 167.974754 
L 411.907453 163.68171 
L 414.954136 159.735314 
L 418.5086 155.496548 
L 422.063063 151.58896 
L 426.125307 147.464682 
L 430.187551 143.649837 
L 434.757576 139.672673 
L 439.3276 135.980889 
L 444.405405 132.166142 
L 449.990991 128.270284 
L 455.576577 124.645625 
L 461.669943 120.958714 
L 468.271089 117.237306 
L 475.380016 113.504358 
L 482.488943 110.01893 
L 490.105651 106.523988 
L 498.230139 103.034884 
L 506.862408 99.564142 
L 516.002457 96.121849 
L 526.158067 92.542691 
L 536.821458 89.028048 
L 547.992629 85.58015 
L 560.179361 82.058116 
L 572.873874 78.622184 
L 586.583948 75.145357 
L 601.309582 71.648361 
L 617.050778 68.148479 
L 622.636364 66.96 
L 622.636364 66.96 
" clip-path="url(#p4d8e66af57)" style="fill: none; stroke-dasharray: 5.55,2.4; stroke-dashoffset: 0; stroke: #ffa500; stroke-width: 1.5"/>
   </g>
   <g id="patch_3">
    <path d="M 90 384.48 
L 90 51.84 
" style="fill: none; stroke: #000000; stroke-width: 0.8; stroke-linejoin: miter; stroke-linecap: square"/>
   </g>
   <g id="patch_4">
    <path d="M 648 384.48 
L 648 51.84 
" style="fill: none; stroke: #000000; stroke-width: 0.8; stroke-linejoin: miter; stroke-linecap: square"/>
   </g>
   <g id="patch_5">
    <path d="M 90 384.48 
L 648 384.48 
" style="fill: none; stroke: #000000; stroke-width: 0.8; stroke-linejoin: miter; stroke-linecap: square"/>
   </g>
   <g id="patch_6">
    <path d="M 90 51.84 
L 648 51.84 
" style="fill: none; stroke: #000000; stroke-width: 0.8; stroke-linejoin: miter; stroke-linecap: square"/>
   </g>
   <g id="text_17">
    <!-- Comparaison des erreurs d'approximation et des bornes théoriques de Lagrange pour n=3 -->
    <g transform="translate(96.137812 45.84) scale(0.12 -0.12)">
     <defs>
      <path id="DejaVuSans-43" d="M 4122 4306 
L 4122 3641 
Q 3803 3938 3442 4084 
Q 3081 4231 2675 4231 
Q 1875 4231 1450 3742 
Q 1025 3253 1025 2328 
Q 1025 1406 1450 917 
Q 1875 428 2675 428 
Q 3081 428 3442 575 
Q 3803 722 4122 1019 
L 4122 359 
Q 3791 134 3420 21 
Q 3050 -91 2638 -91 
Q 1578 -91 968 557 
Q 359 1206 359 2328 
Q 359 3453 968 4101 
Q 1578 4750 2638 4750 
Q 3056 4750 3426 4639 
Q 3797 4528 4122 4306 
z
" transform="scale(0.015625)"/>
      <path id="DejaVuSans-73" d="M 2834 3397 
L 2834 2853 
Q 2591 2978 2328 3040 
Q 2066 3103 1784 3103 
Q 1356 3103 1142 2972 
Q 928 2841 928 2578 
Q 928 2378 1081 2264 
Q 1234 2150 1697 2047 
L 1894 2003 
Q 2506 1872 2764 1633 
Q 3022 1394 3022 966 
Q 3022 478 2636 193 
Q 2250 -91 1575 -91 
Q 1294 -91 989 -36 
Q 684 19 347 128 
L 347 722 
Q 666 556 975 473 
Q 1284 391 1588 391 
Q 1994 391 2212 530 
Q 2431 669 2431 922 
Q 2431 1156 2273 1281 
Q 2116 1406 1581 1522 
L 1381 1569 
Q 847 1681 609 1914 
Q 372 2147 372 2553 
Q 372 3047 722 3315 
Q 1072 3584 1716 3584 
Q 2034 3584 2315 3537 
Q 2597 3491 2834 3397 
z
" transform="scale(0.015625)"/>
      <path id="DejaVuSans-6e" d="M 3513 2113 
L 3513 0 
L 2938 0 
L 2938 2094 
Q 2938 2591 2744 2837 
Q 2550 3084 2163 3084 
Q 1697 3084 1428 2787 
Q 1159 2491 1159 1978 
L 1159 0 
L 581 0 
L 581 3500 
L 1159 3500 
L 1159 2956 
Q 1366 3272 1645 3428 
Q 1925 3584 2291 3584 
Q 2894 3584 3203 3211 
Q 3513 2838 3513 2113 
z
" transform="scale(0.015625)"/>
      <path id="DejaVuSans-64" d="M 2906 2969 
L 2906 4863 
L 3481 4863 
L 3481 0 
L 2906 0 
L 2906 525 
Q 2725 213 2448 61 
Q 2172 -91 1784 -91 
Q 1150 -91 751 415 
Q 353 922 353 1747 
Q 353 2572 751 3078 
Q 1150 3584 1784 3584 
Q 2172 3584 2448 3432 
Q 2725 3281 2906 2969 
z
M 947 1747 
Q 947 1113 1208 752 
Q 1469 391 1925 391 
Q 2381 391 2643 752 
Q 2906 1113 2906 1747 
Q 2906 2381 2643 2742 
Q 2381 3103 1925 3103 
Q 1469 3103 1208 2742 
Q 947 2381 947 1747 
z
" transform="scale(0.015625)"/>
      <path id="DejaVuSans-27" d="M 1147 4666 
L 1147 2931 
L 616 2931 
L 616 4666 
L 1147 4666 
z
" transform="scale(0.015625)"/>
      <path id="DejaVuSans-62" d="M 3116 1747 
Q 3116 2381 2855 2742 
Q 2594 3103 2138 3103 
Q 1681 3103 1420 2742 
Q 1159 2381 1159 1747 
Q 1159 1113 1420 752 
Q 1681 391 2138 391 
Q 2594 391 2855 752 
Q 3116 1113 3116 1747 
z
M 1159 2969 
Q 1341 3281 1617 3432 
Q 1894 3584 2278 3584 
Q 2916 3584 3314 3078 
Q 3713 2572 3713 1747 
Q 3713 922 3314 415 
Q 2916 -91 2278 -91 
Q 1894 -91 1617 61 
Q 1341 213 1159 525 
L 1159 0 
L 581 0 
L 581 4863 
L 1159 4863 
L 1159 2969 
z
" transform="scale(0.015625)"/>
      <path id="DejaVuSans-4c" d="M 628 4666 
L 1259 4666 
L 1259 531 
L 3531 531 
L 3531 0 
L 628 0 
L 628 4666 
z
" transform="scale(0.015625)"/>
      <path id="DejaVuSans-3d" d="M 678 2906 
L 4684 2906 
L 4684 2381 
L 678 2381 
L 678 2906 
z
M 678 1631 
L 4684 1631 
L 4684 1100 
L 678 1100 
L 678 1631 
z
" transform="scale(0.015625)"/>
      <path id="DejaVuSans-33" d="M 2597 2516 
Q 3050 2419 3304 2112 
Q 3559 1806 3559 1356 
Q 3559 666 3084 287 
Q 2609 -91 1734 -91 
Q 1441 -91 1130 -33 
Q 819 25 488 141 
L 488 750 
Q 750 597 1062 519 
Q 1375 441 1716 441 
Q 2309 441 2620 675 
Q 2931 909 2931 1356 
Q 2931 1769 2642 2001 
Q 2353 2234 1838 2234 
L 1294 2234 
L 1294 2753 
L 1863 2753 
Q 2328 2753 2575 2939 
Q 2822 3125 2822 3475 
Q 2822 3834 2567 4026 
Q 2313 4219 1838 4219 
Q 1578 4219 1281 4162 
Q 984 4106 628 3988 
L 628 4550 
Q 988 4650 1302 4700 
Q 1616 4750 1894 4750 
Q 2613 4750 3031 4423 
Q 3450 4097 3450 3541 
Q 3450 3153 3228 2886 
Q 3006 2619 2597 2516 
z
" transform="scale(0.015625)"/>
     </defs>
     <use xlink:href="#DejaVuSans-43"/>
     <use xlink:href="#DejaVuSans-6f" x="69.824219"/>
     <use xlink:href="#DejaVuSans-6d" x="131.005859"/>
     <use xlink:href="#DejaVuSans-70" x="228.417969"/>
     <use xlink:href="#DejaVuSans-61" x="291.894531"/>
     <use xlink:href="#DejaVuSans-72" x="353.173828"/>
     <use xlink:href="#DejaVuSans-61" x="394.287109"/>
     <use xlink:href="#DejaVuSans-69" x="455.566406"/>
     <use xlink:href="#DejaVuSans-73" x="483.349609"/>
     <use xlink:href="#DejaVuSans-6f" x="535.449219"/>
     <use xlink:href="#DejaVuSans-6e" x="596.630859"/>
     <use xlink:href="#DejaVuSans-20" x="660.009766"/>
     <use xlink:href="#DejaVuSans-64" x="691.796875"/>
     <use xlink:href="#DejaVuSans-65" x="755.273438"/>
     <use xlink:href="#DejaVuSans-73" x="816.796875"/>
     <use xlink:href="#DejaVuSans-20" x="868.896484"/>
     <use xlink:href="#DejaVuSans-65" x="900.683594"/>
     <use xlink:href="#DejaVuSans-72" x="962.207031"/>
     <use xlink:href="#DejaVuSans-72" x="1001.570312"/>
     <use xlink:href="#DejaVuSans-65" x="1040.433594"/>
     <use xlink:href="#DejaVuSans-75" x="1101.957031"/>
     <use xlink:href="#DejaVuSans-72" x="1165.335938"/>
     <use xlink:href="#DejaVuSans-73" x="1206.449219"/>
     <use xlink:href="#DejaVuSans-20" x="1258.548828"/>
     <use xlink:href="#DejaVuSans-64" x="1290.335938"/>
     <use xlink:href="#DejaVuSans-27" x="1353.8125"/>
     <use xlink:href="#DejaVuSans-61" x="1381.302734"/>
     <use xlink:href="#DejaVuSans-70" x="1442.582031"/>
     <use xlink:href="#DejaVuSans-70" x="1506.058594"/>
     <use xlink:href="#DejaVuSans-72" x="1569.535156"/>
     <use xlink:href="#DejaVuSans-6f" x="1608.398438"/>
     <use xlink:href="#DejaVuSans-78" x="1666.455078"/>
     <use xlink:href="#DejaVuSans-69" x="1725.634766"/>
     <use xlink:href="#DejaVuSans-6d" x="1753.417969"/>
     <use xlink:href="#DejaVuSans-61" x="1850.830078"/>
     <use xlink:href="#DejaVuSans-74" x="1912.109375"/>
     <use xlink:href="#DejaVuSans-69" x="1951.318359"/>
     <use xlink:href="#DejaVuSans-6f" x="1979.101562"/>
     <use xlink:href="#DejaVuSans-6e" x="2040.283203"/>
     <use xlink:href="#DejaVuSans-20" x="2103.662109"/>
     <use xlink:href="#DejaVuSans-65" x="2135.449219"/>
     <use xlink:href="#DejaVuSans-74" x="2196.972656"/>
     <use xlink:href="#DejaVuSans-20" x="2236.181641"/>
     <use xlink:href="#DejaVuSans-64" x="2267.96875"/>
     <use xlink:href="#DejaVuSans-65" x="2331.445312"/>
     <use xlink:href="#DejaVuSans-73" x="2392.96875"/>
     <use xlink:href="#DejaVuSans-20" x="2445.068359"/>
     <use xlink:href="#DejaVuSans-62" x="2476.855469"/>
     <use xlink:href="#DejaVuSans-6f" x="2540.332031"/>
     <use xlink:href="#DejaVuSans-72" x="2601.513672"/>
     <use xlink:href="#DejaVuSans-6e" x="2640.876953"/>
     <use xlink:href="#DejaVuSans-65" x="2704.255859"/>
     <use xlink:href="#DejaVuSans-73" x="2765.779297"/>
     <use xlink:href="#DejaVuSans-20" x="2817.878906"/>
     <use xlink:href="#DejaVuSans-74" x="2849.666016"/>
     <use xlink:href="#DejaVuSans-68" x="2888.875"/>
     <use xlink:href="#DejaVuSans-e9" x="2952.253906"/>
     <use xlink:href="#DejaVuSans-6f" x="3013.777344"/>
     <use xlink:href="#DejaVuSans-72" x="3074.958984"/>
     <use xlink:href="#DejaVuSans-69" x="3116.072266"/>
     <use xlink:href="#DejaVuSans-71" x="3143.855469"/>
     <use xlink:href="#DejaVuSans-75" x="3207.332031"/>
     <use xlink:href="#DejaVuSans-65" x="3270.710938"/>
     <use xlink:href="#DejaVuSans-73" x="3332.234375"/>
     <use xlink:href="#DejaVuSans-20" x="3384.333984"/>
     <use xlink:href="#DejaVuSans-64" x="3416.121094"/>
     <use xlink:href="#DejaVuSans-65" x="3479.597656"/>
     <use xlink:href="#DejaVuSans-20" x="3541.121094"/>
     <use xlink:href="#DejaVuSans-4c" x="3572.908203"/>
     <use xlink:href="#DejaVuSans-61" x="3628.621094"/>
     <use xlink:href="#DejaVuSans-67" x="3689.900391"/>
     <use xlink:href="#DejaVuSans-72" x="3753.376953"/>
     <use xlink:href="#DejaVuSans-61" x="3794.490234"/>
     <use xlink:href="#DejaVuSans-6e" x="3855.769531"/>
     <use xlink:href="#DejaVuSans-67" x="3919.148438"/>
     <use xlink:href="#DejaVuSans-65" x="3982.625"/>
     <use xlink:href="#DejaVuSans-20" x="4044.148438"/>
     <use xlink:href="#DejaVuSans-70" x="4075.935547"/>
     <use xlink:href="#DejaVuSans-6f" x="4139.412109"/>
     <use xlink:href="#DejaVuSans-75" x="4200.59375"/>
     <use xlink:href="#DejaVuSans-72" x="4263.972656"/>
     <use xlink:href="#DejaVuSans-20" x="4305.085938"/>
     <use xlink:href="#DejaVuSans-6e" x="4336.873047"/>
     <use xlink:href="#DejaVuSans-3d" x="4400.251953"/>
     <use xlink:href="#DejaVuSans-33" x="4484.041016"/>
    </g>
   </g>
   <g id="legend_1">
    <g id="patch_7">
     <path d="M 97 379.48 
L 297.901563 379.48 
Q 299.901563 379.48 299.901563 377.48 
L 299.901563 290.41125 
Q 299.901563 288.41125 297.901563 288.41125 
L 97 288.41125 
Q 95 288.41125 95 290.41125 
L 95 377.48 
Q 95 379.48 97 379.48 
z
" style="fill: #ffffff; opacity: 0.8; stroke: #cccccc; stroke-linejoin: miter"/>
    </g>
    <g id="line2d_35">
     <path d="M 99 296.509688 
L 109 296.509688 
L 119 296.509688 
" style="fill: none; stroke: #0000ff; stroke-width: 1.5; stroke-linecap: square"/>
    </g>
    <g id="text_18">
     <!-- Erreur d'approximation, t=0.25 -->
     <g transform="translate(127 300.009688) scale(0.1 -0.1)">
      <defs>
       <path id="DejaVuSans-45" d="M 628 4666 
L 3578 4666 
L 3578 4134 
L 1259 4134 
L 1259 2753 
L 3481 2753 
L 3481 2222 
L 1259 2222 
L 1259 531 
L 3634 531 
L 3634 0 
L 628 0 
L 628 4666 
z
" transform="scale(0.015625)"/>
       <path id="DejaVuSans-2c" d="M 750 794 
L 1409 794 
L 1409 256 
L 897 -744 
L 494 -744 
L 750 256 
L 750 794 
z
" transform="scale(0.015625)"/>
      </defs>
      <use xlink:href="#DejaVuSans-45"/>
      <use xlink:href="#DejaVuSans-72" x="63.183594"/>
      <use xlink:href="#DejaVuSans-72" x="102.546875"/>
      <use xlink:href="#DejaVuSans-65" x="141.410156"/>
      <use xlink:href="#DejaVuSans-75" x="202.933594"/>
      <use xlink:href="#DejaVuSans-72" x="266.3125"/>
      <use xlink:href="#DejaVuSans-20" x="307.425781"/>
      <use xlink:href="#DejaVuSans-64" x="339.212891"/>
      <use xlink:href="#DejaVuSans-27" x="402.689453"/>
      <use xlink:href="#DejaVuSans-61" x="430.179688"/>
      <use xlink:href="#DejaVuSans-70" x="491.458984"/>
      <use xlink:href="#DejaVuSans-70" x="554.935547"/>
      <use xlink:href="#DejaVuSans-72" x="618.412109"/>
      <use xlink:href="#DejaVuSans-6f" x="657.275391"/>
      <use xlink:href="#DejaVuSans-78" x="715.332031"/>
      <use xlink:href="#DejaVuSans-69" x="774.511719"/>
      <use xlink:href="#DejaVuSans-6d" x="802.294922"/>
      <use xlink:href="#DejaVuSans-61" x="899.707031"/>
      <use xlink:href="#DejaVuSans-74" x="960.986328"/>
      <use xlink:href="#DejaVuSans-69" x="1000.195312"/>
      <use xlink:href="#DejaVuSans-6f" x="1027.978516"/>
      <use xlink:href="#DejaVuSans-6e" x="1089.160156"/>
      <use xlink:href="#DejaVuSans-2c" x="1152.539062"/>
      <use xlink:href="#DejaVuSans-20" x="1184.326172"/>
      <use xlink:href="#DejaVuSans-74" x="1216.113281"/>
      <use xlink:href="#DejaVuSans-3d" x="1255.322266"/>
      <use xlink:href="#DejaVuSans-30" x="1339.111328"/>
      <use xlink:href="#DejaVuSans-2e" x="1402.734375"/>
      <use xlink:href="#DejaVuSans-32" x="1434.521484"/>
      <use xlink:href="#DejaVuSans-35" x="1498.144531"/>
     </g>
    </g>
    <g id="line2d_36">
     <path d="M 99 311.187813 
L 109 311.187813 
L 119 311.187813 
" style="fill: none; stroke-dasharray: 5.55,2.4; stroke-dashoffset: 0; stroke: #0000ff; stroke-width: 1.5"/>
    </g>
    <g id="text_19">
     <!-- Reste de Lagrange, t=0.25 -->
     <g transform="translate(127 314.687813) scale(0.1 -0.1)">
      <defs>
       <path id="DejaVuSans-52" d="M 2841 2188 
Q 3044 2119 3236 1894 
Q 3428 1669 3622 1275 
L 4263 0 
L 3584 0 
L 2988 1197 
Q 2756 1666 2539 1819 
Q 2322 1972 1947 1972 
L 1259 1972 
L 1259 0 
L 628 0 
L 628 4666 
L 2053 4666 
Q 2853 4666 3247 4331 
Q 3641 3997 3641 3322 
Q 3641 2881 3436 2590 
Q 3231 2300 2841 2188 
z
M 1259 4147 
L 1259 2491 
L 2053 2491 
Q 2509 2491 2742 2702 
Q 2975 2913 2975 3322 
Q 2975 3731 2742 3939 
Q 2509 4147 2053 4147 
L 1259 4147 
z
" transform="scale(0.015625)"/>
      </defs>
      <use xlink:href="#DejaVuSans-52"/>
      <use xlink:href="#DejaVuSans-65" x="64.982422"/>
      <use xlink:href="#DejaVuSans-73" x="126.505859"/>
      <use xlink:href="#DejaVuSans-74" x="178.605469"/>
      <use xlink:href="#DejaVuSans-65" x="217.814453"/>
      <use xlink:href="#DejaVuSans-20" x="279.337891"/>
      <use xlink:href="#DejaVuSans-64" x="311.125"/>
      <use xlink:href="#DejaVuSans-65" x="374.601562"/>
      <use xlink:href="#DejaVuSans-20" x="436.125"/>
      <use xlink:href="#DejaVuSans-4c" x="467.912109"/>
      <use xlink:href="#DejaVuSans-61" x="523.625"/>
      <use xlink:href="#DejaVuSans-67" x="584.904297"/>
      <use xlink:href="#DejaVuSans-72" x="648.380859"/>
      <use xlink:href="#DejaVuSans-61" x="689.494141"/>
      <use xlink:href="#DejaVuSans-6e" x="750.773438"/>
      <use xlink:href="#DejaVuSans-67" x="814.152344"/>
      <use xlink:href="#DejaVuSans-65" x="877.628906"/>
      <use xlink:href="#DejaVuSans-2c" x="939.152344"/>
      <use xlink:href="#DejaVuSans-20" x="970.939453"/>
      <use xlink:href="#DejaVuSans-74" x="1002.726562"/>
      <use xlink:href="#DejaVuSans-3d" x="1041.935547"/>
      <use xlink:href="#DejaVuSans-30" x="1125.724609"/>
      <use xlink:href="#DejaVuSans-2e" x="1189.347656"/>
      <use xlink:href="#DejaVuSans-32" x="1221.134766"/>
      <use xlink:href="#DejaVuSans-35" x="1284.757812"/>
     </g>
    </g>
    <g id="line2d_37">
     <path d="M 99 325.865938 
L 109 325.865938 
L 119 325.865938 
" style="fill: none; stroke: #008000; stroke-width: 1.5; stroke-linecap: square"/>
    </g>
    <g id="text_20">
     <!-- Erreur d'approximation, t=0.125 -->
     <g transform="translate(127 329.365938) scale(0.1 -0.1)">
      <use xlink:href="#DejaVuSans-45"/>
      <use xlink:href="#DejaVuSans-72" x="63.183594"/>
      <use xlink:href="#DejaVuSans-72" x="102.546875"/>
      <use xlink:href="#DejaVuSans-65" x="141.410156"/>
      <use xlink:href="#DejaVuSans-75" x="202.933594"/>
      <use xlink:href="#DejaVuSans-72" x="266.3125"/>
      <use xlink:href="#DejaVuSans-20" x="307.425781"/>
      <use xlink:href="#DejaVuSans-64" x="339.212891"/>
      <use xlink:href="#DejaVuSans-27" x="402.689453"/>
      <use xlink:href="#DejaVuSans-61" x="430.179688"/>
      <use xlink:href="#DejaVuSans-70" x="491.458984"/>
      <use xlink:href="#DejaVuSans-70" x="554.935547"/>
      <use xlink:href="#DejaVuSans-72" x="618.412109"/>
      <use xlink:href="#DejaVuSans-6f" x="657.275391"/>
      <use xlink:href="#DejaVuSans-78" x="715.332031"/>
      <use xlink:href="#DejaVuSans-69" x="774.511719"/>
      <use xlink:href="#DejaVuSans-6d" x="802.294922"/>
      <use xlink:href="#DejaVuSans-61" x="899.707031"/>
      <use xlink:href="#DejaVuSans-74" x="960.986328"/>
      <use xlink:href="#DejaVuSans-69" x="1000.195312"/>
      <use xlink:href="#DejaVuSans-6f" x="1027.978516"/>
      <use xlink:href="#DejaVuSans-6e" x="1089.160156"/>
      <use xlink:href="#DejaVuSans-2c" x="1152.539062"/>
      <use xlink:href="#DejaVuSans-20" x="1184.326172"/>
      <use xlink:href="#DejaVuSans-74" x="1216.113281"/>
      <use xlink:href="#DejaVuSans-3d" x="1255.322266"/>
      <use xlink:href="#DejaVuSans-30" x="1339.111328"/>
      <use xlink:href="#DejaVuSans-2e" x="1402.734375"/>
      <use xlink:href="#DejaVuSans-31" x="1434.521484"/>
      <use xlink:href="#DejaVuSans-32" x="1498.144531"/>
      <use xlink:href="#DejaVuSans-35" x="1561.767578"/>
     </g>
    </g>
    <g id="line2d_38">
     <path d="M 99 340.544062 
L 109 340.544062 
L 119 340.544062 
" style="fill: none; stroke-dasharray: 5.55,2.4; stroke-dashoffset: 0; stroke: #008000; stroke-width: 1.5"/>
    </g>
    <g id="text_21">
     <!-- Reste de Lagrange, t=0.125 -->
     <g transform="translate(127 344.044062) scale(0.1 -0.1)">
      <use xlink:href="#DejaVuSans-52"/>
      <use xlink:href="#DejaVuSans-65" x="64.982422"/>
      <use xlink:href="#DejaVuSans-73" x="126.505859"/>
      <use xlink:href="#DejaVuSans-74" x="178.605469"/>
      <use xlink:href="#DejaVuSans-65" x="217.814453"/>
      <use xlink:href="#DejaVuSans-20" x="279.337891"/>
      <use xlink:href="#DejaVuSans-64" x="311.125"/>
      <use xlink:href="#DejaVuSans-65" x="374.601562"/>
      <use xlink:href="#DejaVuSans-20" x="436.125"/>
      <use xlink:href="#DejaVuSans-4c" x="467.912109"/>
      <use xlink:href="#DejaVuSans-61" x="523.625"/>
      <use xlink:href="#DejaVuSans-67" x="584.904297"/>
      <use xlink:href="#DejaVuSans-72" x="648.380859"/>
      <use xlink:href="#DejaVuSans-61" x="689.494141"/>
      <use xlink:href="#DejaVuSans-6e" x="750.773438"/>
      <use xlink:href="#DejaVuSans-67" x="814.152344"/>
      <use xlink:href="#DejaVuSans-65" x="877.628906"/>
      <use xlink:href="#DejaVuSans-2c" x="939.152344"/>
      <use xlink:href="#DejaVuSans-20" x="970.939453"/>
      <use xlink:href="#DejaVuSans-74" x="1002.726562"/>
      <use xlink:href="#DejaVuSans-3d" x="1041.935547"/>
      <use xlink:href="#DejaVuSans-30" x="1125.724609"/>
      <use xlink:href="#DejaVuSans-2e" x="1189.347656"/>
      <use xlink:href="#DejaVuSans-31" x="1221.134766"/>
      <use xlink:href="#DejaVuSans-32" x="1284.757812"/>
      <use xlink:href="#DejaVuSans-35" x="1348.380859"/>
     </g>
    </g>
    <g id="line2d_39">
     <path d="M 99 355.222188 
L 109 355.222188 
L 119 355.222188 
" style="fill: none; stroke: #ffa500; stroke-width: 1.5; stroke-linecap: square"/>
    </g>
    <g id="text_22">
     <!-- Erreur d'approximation, t=0.0625 -->
     <g transform="translate(127 358.722188) scale(0.1 -0.1)">
      <use xlink:href="#DejaVuSans-45"/>
      <use xlink:href="#DejaVuSans-72" x="63.183594"/>
      <use xlink:href="#DejaVuSans-72" x="102.546875"/>
      <use xlink:href="#DejaVuSans-65" x="141.410156"/>
      <use xlink:href="#DejaVuSans-75" x="202.933594"/>
      <use xlink:href="#DejaVuSans-72" x="266.3125"/>
      <use xlink:href="#DejaVuSans-20" x="307.425781"/>
      <use xlink:href="#DejaVuSans-64" x="339.212891"/>
      <use xlink:href="#DejaVuSans-27" x="402.689453"/>
      <use xlink:href="#DejaVuSans-61" x="430.179688"/>
      <use xlink:href="#DejaVuSans-70" x="491.458984"/>
      <use xlink:href="#DejaVuSans-70" x="554.935547"/>
      <use xlink:href="#DejaVuSans-72" x="618.412109"/>
      <use xlink:href="#DejaVuSans-6f" x="657.275391"/>
      <use xlink:href="#DejaVuSans-78" x="715.332031"/>
      <use xlink:href="#DejaVuSans-69" x="774.511719"/>
      <use xlink:href="#DejaVuSans-6d" x="802.294922"/>
      <use xlink:href="#DejaVuSans-61" x="899.707031"/>
      <use xlink:href="#DejaVuSans-74" x="960.986328"/>
      <use xlink:href="#DejaVuSans-69" x="1000.195312"/>
      <use xlink:href="#DejaVuSans-6f" x="1027.978516"/>
      <use xlink:href="#DejaVuSans-6e" x="1089.160156"/>
      <use xlink:href="#DejaVuSans-2c" x="1152.539062"/>
      <use xlink:href="#DejaVuSans-20" x="1184.326172"/>
      <use xlink:href="#DejaVuSans-74" x="1216.113281"/>
      <use xlink:href="#DejaVuSans-3d" x="1255.322266"/>
      <use xlink:href="#DejaVuSans-30" x="1339.111328"/>
      <use xlink:href="#DejaVuSans-2e" x="1402.734375"/>
      <use xlink:href="#DejaVuSans-30" x="1434.521484"/>
      <use xlink:href="#DejaVuSans-36" x="1498.144531"/>
      <use xlink:href="#DejaVuSans-32" x="1561.767578"/>
      <use xlink:href="#DejaVuSans-35" x="1625.390625"/>
     </g>
    </g>
    <g id="line2d_40">
     <path d="M 99 369.900313 
L 109 369.900313 
L 119 369.900313 
" style="fill: none; stroke-dasharray: 5.55,2.4; stroke-dashoffset: 0; stroke: #ffa500; stroke-width: 1.5"/>
    </g>
    <g id="text_23">
     <!-- Reste de Lagrange, t=0.0625 -->
     <g transform="translate(127 373.400313) scale(0.1 -0.1)">
      <use xlink:href="#DejaVuSans-52"/>
      <use xlink:href="#DejaVuSans-65" x="64.982422"/>
      <use xlink:href="#DejaVuSans-73" x="126.505859"/>
      <use xlink:href="#DejaVuSans-74" x="178.605469"/>
      <use xlink:href="#DejaVuSans-65" x="217.814453"/>
      <use xlink:href="#DejaVuSans-20" x="279.337891"/>
      <use xlink:href="#DejaVuSans-64" x="311.125"/>
      <use xlink:href="#DejaVuSans-65" x="374.601562"/>
      <use xlink:href="#DejaVuSans-20" x="436.125"/>
      <use xlink:href="#DejaVuSans-4c" x="467.912109"/>
      <use xlink:href="#DejaVuSans-61" x="523.625"/>
      <use xlink:href="#DejaVuSans-67" x="584.904297"/>
      <use xlink:href="#DejaVuSans-72" x="648.380859"/>
      <use xlink:href="#DejaVuSans-61" x="689.494141"/>
      <use xlink:href="#DejaVuSans-6e" x="750.773438"/>
      <use xlink:href="#DejaVuSans-67" x="814.152344"/>
      <use xlink:href="#DejaVuSans-65" x="877.628906"/>
      <use xlink:href="#DejaVuSans-2c" x="939.152344"/>
      <use xlink:href="#DejaVuSans-20" x="970.939453"/>
      <use xlink:href="#DejaVuSans-74" x="1002.726562"/>
      <use xlink:href="#DejaVuSans-3d" x="1041.935547"/>
      <use xlink:href="#DejaVuSans-30" x="1125.724609"/>
      <use xlink:href="#DejaVuSans-2e" x="1189.347656"/>
      <use xlink:href="#DejaVuSans-30" x="1221.134766"/>
      <use xlink:href="#DejaVuSans-36" x="1284.757812"/>
      <use xlink:href="#DejaVuSans-32" x="1348.380859"/>
      <use xlink:href="#DejaVuSans-35" x="1412.003906"/>
     </g>
    </g>
   </g>
  </g>
 </g>
 <defs>
  <clipPath id="p4d8e66af57">
   <rect x="90" y="51.84" width="558" height="332.64"/>
  </clipPath>
 </defs>
</svg>
