<?xml version="1.0" encoding="utf-8" standalone="no"?>
<!DOCTYPE svg PUBLIC "-//W3C//DTD SVG 1.1//EN"
  "http://www.w3.org/Graphics/SVG/1.1/DTD/svg11.dtd">
<svg xmlns:xlink="http://www.w3.org/1999/xlink" width="720pt" height="432pt" viewBox="0 0 720 432" xmlns="http://www.w3.org/2000/svg" version="1.1">
 <metadata>
  <rdf:RDF xmlns:dc="http://purl.org/dc/elements/1.1/" xmlns:cc="http://creativecommons.org/ns#" xmlns:rdf="http://www.w3.org/1999/02/22-rdf-syntax-ns#">
   <cc:Work>
    <dc:type rdf:resource="http://purl.org/dc/dcmitype/StillImage"/>
    <dc:date>2024-11-02T15:47:06.477676</dc:date>
    <dc:format>image/svg+xml</dc:format>
    <dc:creator>
     <cc:Agent>
      <dc:title>Matplotlib v3.9.2, https://matplotlib.org/</dc:title>
     </cc:Agent>
    </dc:creator>
   </cc:Work>
  </rdf:RDF>
 </metadata>
 <defs>
  <style type="text/css">*{stroke-linejoin: round; stroke-linecap: butt}</style>
 </defs>
 <g id="figure_1">
  <g id="patch_1">
   <path d="M 0 432 
L 720 432 
L 720 0 
L 0 0 
z
" style="fill: #ffffff"/>
  </g>
  <g id="axes_1">
   <g id="patch_2">
    <path d="M 90 384.48 
L 648 384.48 
L 648 51.84 
L 90 51.84 
z
" style="fill: #ffffff"/>
   </g>
   <g id="matplotlib.axis_1">
    <g id="xtick_1">
     <g id="line2d_1">
      <path d="M 115.363636 384.48 
L 115.363636 51.84 
" clip-path="url(#pf1b4f842cf)" style="fill: none; stroke: #b0b0b0; stroke-width: 0.8; stroke-linecap: square"/>
     </g>
     <g id="line2d_2">
      <defs>
       <path id="md00fce5ab8" d="M 0 0 
L 0 3.5 
" style="stroke: #000000; stroke-width: 0.8"/>
      </defs>
      <g>
       <use xlink:href="#md00fce5ab8" x="115.363636" y="384.48" style="stroke: #000000; stroke-width: 0.8"/>
      </g>
     </g>
     <g id="text_1">
      <!-- −1.00 -->
      <g transform="translate(100.04098 399.078438) scale(0.1 -0.1)">
       <defs>
        <path id="DejaVuSans-2212" d="M 678 2272 
L 4684 2272 
L 4684 1741 
L 678 1741 
L 678 2272 
z
" transform="scale(0.015625)"/>
        <path id="DejaVuSans-31" d="M 794 531 
L 1825 531 
L 1825 4091 
L 703 3866 
L 703 4441 
L 1819 4666 
L 2450 4666 
L 2450 531 
L 3481 531 
L 3481 0 
L 794 0 
L 794 531 
z
" transform="scale(0.015625)"/>
        <path id="DejaVuSans-2e" d="M 684 794 
L 1344 794 
L 1344 0 
L 684 0 
L 684 794 
z
" transform="scale(0.015625)"/>
        <path id="DejaVuSans-30" d="M 2034 4250 
Q 1547 4250 1301 3770 
Q 1056 3291 1056 2328 
Q 1056 1369 1301 889 
Q 1547 409 2034 409 
Q 2525 409 2770 889 
Q 3016 1369 3016 2328 
Q 3016 3291 2770 3770 
Q 2525 4250 2034 4250 
z
M 2034 4750 
Q 2819 4750 3233 4129 
Q 3647 3509 3647 2328 
Q 3647 1150 3233 529 
Q 2819 -91 2034 -91 
Q 1250 -91 836 529 
Q 422 1150 422 2328 
Q 422 3509 836 4129 
Q 1250 4750 2034 4750 
z
" transform="scale(0.015625)"/>
       </defs>
       <use xlink:href="#DejaVuSans-2212"/>
       <use xlink:href="#DejaVuSans-31" x="83.789062"/>
       <use xlink:href="#DejaVuSans-2e" x="147.412109"/>
       <use xlink:href="#DejaVuSans-30" x="179.199219"/>
       <use xlink:href="#DejaVuSans-30" x="242.822266"/>
      </g>
     </g>
    </g>
    <g id="xtick_2">
     <g id="line2d_3">
      <path d="M 178.772727 384.48 
L 178.772727 51.84 
" clip-path="url(#pf1b4f842cf)" style="fill: none; stroke: #b0b0b0; stroke-width: 0.8; stroke-linecap: square"/>
     </g>
     <g id="line2d_4">
      <g>
       <use xlink:href="#md00fce5ab8" x="178.772727" y="384.48" style="stroke: #000000; stroke-width: 0.8"/>
      </g>
     </g>
     <g id="text_2">
      <!-- −0.75 -->
      <g transform="translate(163.450071 399.078438) scale(0.1 -0.1)">
       <defs>
        <path id="DejaVuSans-37" d="M 525 4666 
L 3525 4666 
L 3525 4397 
L 1831 0 
L 1172 0 
L 2766 4134 
L 525 4134 
L 525 4666 
z
" transform="scale(0.015625)"/>
        <path id="DejaVuSans-35" d="M 691 4666 
L 3169 4666 
L 3169 4134 
L 1269 4134 
L 1269 2991 
Q 1406 3038 1543 3061 
Q 1681 3084 1819 3084 
Q 2600 3084 3056 2656 
Q 3513 2228 3513 1497 
Q 3513 744 3044 326 
Q 2575 -91 1722 -91 
Q 1428 -91 1123 -41 
Q 819 9 494 109 
L 494 744 
Q 775 591 1075 516 
Q 1375 441 1709 441 
Q 2250 441 2565 725 
Q 2881 1009 2881 1497 
Q 2881 1984 2565 2268 
Q 2250 2553 1709 2553 
Q 1456 2553 1204 2497 
Q 953 2441 691 2322 
L 691 4666 
z
" transform="scale(0.015625)"/>
       </defs>
       <use xlink:href="#DejaVuSans-2212"/>
       <use xlink:href="#DejaVuSans-30" x="83.789062"/>
       <use xlink:href="#DejaVuSans-2e" x="147.412109"/>
       <use xlink:href="#DejaVuSans-37" x="179.199219"/>
       <use xlink:href="#DejaVuSans-35" x="242.822266"/>
      </g>
     </g>
    </g>
    <g id="xtick_3">
     <g id="line2d_5">
      <path d="M 242.181818 384.48 
L 242.181818 51.84 
" clip-path="url(#pf1b4f842cf)" style="fill: none; stroke: #b0b0b0; stroke-width: 0.8; stroke-linecap: square"/>
     </g>
     <g id="line2d_6">
      <g>
       <use xlink:href="#md00fce5ab8" x="242.181818" y="384.48" style="stroke: #000000; stroke-width: 0.8"/>
      </g>
     </g>
     <g id="text_3">
      <!-- −0.50 -->
      <g transform="translate(226.859162 399.078438) scale(0.1 -0.1)">
       <use xlink:href="#DejaVuSans-2212"/>
       <use xlink:href="#DejaVuSans-30" x="83.789062"/>
       <use xlink:href="#DejaVuSans-2e" x="147.412109"/>
       <use xlink:href="#DejaVuSans-35" x="179.199219"/>
       <use xlink:href="#DejaVuSans-30" x="242.822266"/>
      </g>
     </g>
    </g>
    <g id="xtick_4">
     <g id="line2d_7">
      <path d="M 305.590909 384.48 
L 305.590909 51.84 
" clip-path="url(#pf1b4f842cf)" style="fill: none; stroke: #b0b0b0; stroke-width: 0.8; stroke-linecap: square"/>
     </g>
     <g id="line2d_8">
      <g>
       <use xlink:href="#md00fce5ab8" x="305.590909" y="384.48" style="stroke: #000000; stroke-width: 0.8"/>
      </g>
     </g>
     <g id="text_4">
      <!-- −0.25 -->
      <g transform="translate(290.268253 399.078438) scale(0.1 -0.1)">
       <defs>
        <path id="DejaVuSans-32" d="M 1228 531 
L 3431 531 
L 3431 0 
L 469 0 
L 469 531 
Q 828 903 1448 1529 
Q 2069 2156 2228 2338 
Q 2531 2678 2651 2914 
Q 2772 3150 2772 3378 
Q 2772 3750 2511 3984 
Q 2250 4219 1831 4219 
Q 1534 4219 1204 4116 
Q 875 4013 500 3803 
L 500 4441 
Q 881 4594 1212 4672 
Q 1544 4750 1819 4750 
Q 2544 4750 2975 4387 
Q 3406 4025 3406 3419 
Q 3406 3131 3298 2873 
Q 3191 2616 2906 2266 
Q 2828 2175 2409 1742 
Q 1991 1309 1228 531 
z
" transform="scale(0.015625)"/>
       </defs>
       <use xlink:href="#DejaVuSans-2212"/>
       <use xlink:href="#DejaVuSans-30" x="83.789062"/>
       <use xlink:href="#DejaVuSans-2e" x="147.412109"/>
       <use xlink:href="#DejaVuSans-32" x="179.199219"/>
       <use xlink:href="#DejaVuSans-35" x="242.822266"/>
      </g>
     </g>
    </g>
    <g id="xtick_5">
     <g id="line2d_9">
      <path d="M 369 384.48 
L 369 51.84 
" clip-path="url(#pf1b4f842cf)" style="fill: none; stroke: #b0b0b0; stroke-width: 0.8; stroke-linecap: square"/>
     </g>
     <g id="line2d_10">
      <g>
       <use xlink:href="#md00fce5ab8" x="369" y="384.48" style="stroke: #000000; stroke-width: 0.8"/>
      </g>
     </g>
     <g id="text_5">
      <!-- 0.00 -->
      <g transform="translate(357.867188 399.078438) scale(0.1 -0.1)">
       <use xlink:href="#DejaVuSans-30"/>
       <use xlink:href="#DejaVuSans-2e" x="63.623047"/>
       <use xlink:href="#DejaVuSans-30" x="95.410156"/>
       <use xlink:href="#DejaVuSans-30" x="159.033203"/>
      </g>
     </g>
    </g>
    <g id="xtick_6">
     <g id="line2d_11">
      <path d="M 432.409091 384.48 
L 432.409091 51.84 
" clip-path="url(#pf1b4f842cf)" style="fill: none; stroke: #b0b0b0; stroke-width: 0.8; stroke-linecap: square"/>
     </g>
     <g id="line2d_12">
      <g>
       <use xlink:href="#md00fce5ab8" x="432.409091" y="384.48" style="stroke: #000000; stroke-width: 0.8"/>
      </g>
     </g>
     <g id="text_6">
      <!-- 0.25 -->
      <g transform="translate(421.276278 399.078438) scale(0.1 -0.1)">
       <use xlink:href="#DejaVuSans-30"/>
       <use xlink:href="#DejaVuSans-2e" x="63.623047"/>
       <use xlink:href="#DejaVuSans-32" x="95.410156"/>
       <use xlink:href="#DejaVuSans-35" x="159.033203"/>
      </g>
     </g>
    </g>
    <g id="xtick_7">
     <g id="line2d_13">
      <path d="M 495.818182 384.48 
L 495.818182 51.84 
" clip-path="url(#pf1b4f842cf)" style="fill: none; stroke: #b0b0b0; stroke-width: 0.8; stroke-linecap: square"/>
     </g>
     <g id="line2d_14">
      <g>
       <use xlink:href="#md00fce5ab8" x="495.818182" y="384.48" style="stroke: #000000; stroke-width: 0.8"/>
      </g>
     </g>
     <g id="text_7">
      <!-- 0.50 -->
      <g transform="translate(484.685369 399.078438) scale(0.1 -0.1)">
       <use xlink:href="#DejaVuSans-30"/>
       <use xlink:href="#DejaVuSans-2e" x="63.623047"/>
       <use xlink:href="#DejaVuSans-35" x="95.410156"/>
       <use xlink:href="#DejaVuSans-30" x="159.033203"/>
      </g>
     </g>
    </g>
    <g id="xtick_8">
     <g id="line2d_15">
      <path d="M 559.227273 384.48 
L 559.227273 51.84 
" clip-path="url(#pf1b4f842cf)" style="fill: none; stroke: #b0b0b0; stroke-width: 0.8; stroke-linecap: square"/>
     </g>
     <g id="line2d_16">
      <g>
       <use xlink:href="#md00fce5ab8" x="559.227273" y="384.48" style="stroke: #000000; stroke-width: 0.8"/>
      </g>
     </g>
     <g id="text_8">
      <!-- 0.75 -->
      <g transform="translate(548.09446 399.078438) scale(0.1 -0.1)">
       <use xlink:href="#DejaVuSans-30"/>
       <use xlink:href="#DejaVuSans-2e" x="63.623047"/>
       <use xlink:href="#DejaVuSans-37" x="95.410156"/>
       <use xlink:href="#DejaVuSans-35" x="159.033203"/>
      </g>
     </g>
    </g>
    <g id="xtick_9">
     <g id="line2d_17">
      <path d="M 622.636364 384.48 
L 622.636364 51.84 
" clip-path="url(#pf1b4f842cf)" style="fill: none; stroke: #b0b0b0; stroke-width: 0.8; stroke-linecap: square"/>
     </g>
     <g id="line2d_18">
      <g>
       <use xlink:href="#md00fce5ab8" x="622.636364" y="384.48" style="stroke: #000000; stroke-width: 0.8"/>
      </g>
     </g>
     <g id="text_9">
      <!-- 1.00 -->
      <g transform="translate(611.503551 399.078438) scale(0.1 -0.1)">
       <use xlink:href="#DejaVuSans-31"/>
       <use xlink:href="#DejaVuSans-2e" x="63.623047"/>
       <use xlink:href="#DejaVuSans-30" x="95.410156"/>
       <use xlink:href="#DejaVuSans-30" x="159.033203"/>
      </g>
     </g>
    </g>
    <g id="text_10">
     <!-- x -->
     <g transform="translate(366.040625 412.756563) scale(0.1 -0.1)">
      <defs>
       <path id="DejaVuSans-78" d="M 3513 3500 
L 2247 1797 
L 3578 0 
L 2900 0 
L 1881 1375 
L 863 0 
L 184 0 
L 1544 1831 
L 300 3500 
L 978 3500 
L 1906 2253 
L 2834 3500 
L 3513 3500 
z
" transform="scale(0.015625)"/>
      </defs>
      <use xlink:href="#DejaVuSans-78"/>
     </g>
    </g>
   </g>
   <g id="matplotlib.axis_2">
    <g id="ytick_1">
     <g id="line2d_19">
      <path d="M 90 335.940193 
L 648 335.940193 
" clip-path="url(#pf1b4f842cf)" style="fill: none; stroke: #b0b0b0; stroke-width: 0.8; stroke-linecap: square"/>
     </g>
     <g id="line2d_20">
      <defs>
       <path id="m96a80ae3c0" d="M 0 0 
L -3.5 0 
" style="stroke: #000000; stroke-width: 0.8"/>
      </defs>
      <g>
       <use xlink:href="#m96a80ae3c0" x="90" y="335.940193" style="stroke: #000000; stroke-width: 0.8"/>
      </g>
     </g>
     <g id="text_11">
      <!-- $\mathdefault{10^{-10}}$ -->
      <g transform="translate(55.1 339.739411) scale(0.1 -0.1)">
       <use xlink:href="#DejaVuSans-31" transform="translate(0 0.765625)"/>
       <use xlink:href="#DejaVuSans-30" transform="translate(63.623047 0.765625)"/>
       <use xlink:href="#DejaVuSans-2212" transform="translate(128.203125 39.046875) scale(0.7)"/>
       <use xlink:href="#DejaVuSans-31" transform="translate(186.855469 39.046875) scale(0.7)"/>
       <use xlink:href="#DejaVuSans-30" transform="translate(231.391602 39.046875) scale(0.7)"/>
      </g>
     </g>
    </g>
    <g id="ytick_2">
     <g id="line2d_21">
      <path d="M 90 268.004703 
L 648 268.004703 
" clip-path="url(#pf1b4f842cf)" style="fill: none; stroke: #b0b0b0; stroke-width: 0.8; stroke-linecap: square"/>
     </g>
     <g id="line2d_22">
      <g>
       <use xlink:href="#m96a80ae3c0" x="90" y="268.004703" style="stroke: #000000; stroke-width: 0.8"/>
      </g>
     </g>
     <g id="text_12">
      <!-- $\mathdefault{10^{-8}}$ -->
      <g transform="translate(59.5 271.803922) scale(0.1 -0.1)">
       <defs>
        <path id="DejaVuSans-38" d="M 2034 2216 
Q 1584 2216 1326 1975 
Q 1069 1734 1069 1313 
Q 1069 891 1326 650 
Q 1584 409 2034 409 
Q 2484 409 2743 651 
Q 3003 894 3003 1313 
Q 3003 1734 2745 1975 
Q 2488 2216 2034 2216 
z
M 1403 2484 
Q 997 2584 770 2862 
Q 544 3141 544 3541 
Q 544 4100 942 4425 
Q 1341 4750 2034 4750 
Q 2731 4750 3128 4425 
Q 3525 4100 3525 3541 
Q 3525 3141 3298 2862 
Q 3072 2584 2669 2484 
Q 3125 2378 3379 2068 
Q 3634 1759 3634 1313 
Q 3634 634 3220 271 
Q 2806 -91 2034 -91 
Q 1263 -91 848 271 
Q 434 634 434 1313 
Q 434 1759 690 2068 
Q 947 2378 1403 2484 
z
M 1172 3481 
Q 1172 3119 1398 2916 
Q 1625 2713 2034 2713 
Q 2441 2713 2670 2916 
Q 2900 3119 2900 3481 
Q 2900 3844 2670 4047 
Q 2441 4250 2034 4250 
Q 1625 4250 1398 4047 
Q 1172 3844 1172 3481 
z
" transform="scale(0.015625)"/>
       </defs>
       <use xlink:href="#DejaVuSans-31" transform="translate(0 0.765625)"/>
       <use xlink:href="#DejaVuSans-30" transform="translate(63.623047 0.765625)"/>
       <use xlink:href="#DejaVuSans-2212" transform="translate(128.203125 39.046875) scale(0.7)"/>
       <use xlink:href="#DejaVuSans-38" transform="translate(186.855469 39.046875) scale(0.7)"/>
      </g>
     </g>
    </g>
    <g id="ytick_3">
     <g id="line2d_23">
      <path d="M 90 200.069213 
L 648 200.069213 
" clip-path="url(#pf1b4f842cf)" style="fill: none; stroke: #b0b0b0; stroke-width: 0.8; stroke-linecap: square"/>
     </g>
     <g id="line2d_24">
      <g>
       <use xlink:href="#m96a80ae3c0" x="90" y="200.069213" style="stroke: #000000; stroke-width: 0.8"/>
      </g>
     </g>
     <g id="text_13">
      <!-- $\mathdefault{10^{-6}}$ -->
      <g transform="translate(59.5 203.868432) scale(0.1 -0.1)">
       <defs>
        <path id="DejaVuSans-36" d="M 2113 2584 
Q 1688 2584 1439 2293 
Q 1191 2003 1191 1497 
Q 1191 994 1439 701 
Q 1688 409 2113 409 
Q 2538 409 2786 701 
Q 3034 994 3034 1497 
Q 3034 2003 2786 2293 
Q 2538 2584 2113 2584 
z
M 3366 4563 
L 3366 3988 
Q 3128 4100 2886 4159 
Q 2644 4219 2406 4219 
Q 1781 4219 1451 3797 
Q 1122 3375 1075 2522 
Q 1259 2794 1537 2939 
Q 1816 3084 2150 3084 
Q 2853 3084 3261 2657 
Q 3669 2231 3669 1497 
Q 3669 778 3244 343 
Q 2819 -91 2113 -91 
Q 1303 -91 875 529 
Q 447 1150 447 2328 
Q 447 3434 972 4092 
Q 1497 4750 2381 4750 
Q 2619 4750 2861 4703 
Q 3103 4656 3366 4563 
z
" transform="scale(0.015625)"/>
       </defs>
       <use xlink:href="#DejaVuSans-31" transform="translate(0 0.765625)"/>
       <use xlink:href="#DejaVuSans-30" transform="translate(63.623047 0.765625)"/>
       <use xlink:href="#DejaVuSans-2212" transform="translate(128.203125 39.046875) scale(0.7)"/>
       <use xlink:href="#DejaVuSans-36" transform="translate(186.855469 39.046875) scale(0.7)"/>
      </g>
     </g>
    </g>
    <g id="ytick_4">
     <g id="line2d_25">
      <path d="M 90 132.133723 
L 648 132.133723 
" clip-path="url(#pf1b4f842cf)" style="fill: none; stroke: #b0b0b0; stroke-width: 0.8; stroke-linecap: square"/>
     </g>
     <g id="line2d_26">
      <g>
       <use xlink:href="#m96a80ae3c0" x="90" y="132.133723" style="stroke: #000000; stroke-width: 0.8"/>
      </g>
     </g>
     <g id="text_14">
      <!-- $\mathdefault{10^{-4}}$ -->
      <g transform="translate(59.5 135.932942) scale(0.1 -0.1)">
       <defs>
        <path id="DejaVuSans-34" d="M 2419 4116 
L 825 1625 
L 2419 1625 
L 2419 4116 
z
M 2253 4666 
L 3047 4666 
L 3047 1625 
L 3713 1625 
L 3713 1100 
L 3047 1100 
L 3047 0 
L 2419 0 
L 2419 1100 
L 313 1100 
L 313 1709 
L 2253 4666 
z
" transform="scale(0.015625)"/>
       </defs>
       <use xlink:href="#DejaVuSans-31" transform="translate(0 0.684375)"/>
       <use xlink:href="#DejaVuSans-30" transform="translate(63.623047 0.684375)"/>
       <use xlink:href="#DejaVuSans-2212" transform="translate(128.203125 38.965625) scale(0.7)"/>
       <use xlink:href="#DejaVuSans-34" transform="translate(186.855469 38.965625) scale(0.7)"/>
      </g>
     </g>
    </g>
    <g id="ytick_5">
     <g id="line2d_27">
      <path d="M 90 64.198233 
L 648 64.198233 
" clip-path="url(#pf1b4f842cf)" style="fill: none; stroke: #b0b0b0; stroke-width: 0.8; stroke-linecap: square"/>
     </g>
     <g id="line2d_28">
      <g>
       <use xlink:href="#m96a80ae3c0" x="90" y="64.198233" style="stroke: #000000; stroke-width: 0.8"/>
      </g>
     </g>
     <g id="text_15">
      <!-- $\mathdefault{10^{-2}}$ -->
      <g transform="translate(59.5 67.997452) scale(0.1 -0.1)">
       <use xlink:href="#DejaVuSans-31" transform="translate(0 0.765625)"/>
       <use xlink:href="#DejaVuSans-30" transform="translate(63.623047 0.765625)"/>
       <use xlink:href="#DejaVuSans-2212" transform="translate(128.203125 39.046875) scale(0.7)"/>
       <use xlink:href="#DejaVuSans-32" transform="translate(186.855469 39.046875) scale(0.7)"/>
      </g>
     </g>
    </g>
    <g id="text_16">
     <!-- |f(x) - p(x)| (échelle logarithmique) -->
     <g transform="translate(48.742187 305.111562) rotate(-90) scale(0.1 -0.1)">
      <defs>
       <path id="DejaVuSans-7c" d="M 1344 4891 
L 1344 -1509 
L 813 -1509 
L 813 4891 
L 1344 4891 
z
" transform="scale(0.015625)"/>
       <path id="DejaVuSans-66" d="M 2375 4863 
L 2375 4384 
L 1825 4384 
Q 1516 4384 1395 4259 
Q 1275 4134 1275 3809 
L 1275 3500 
L 2222 3500 
L 2222 3053 
L 1275 3053 
L 1275 0 
L 697 0 
L 697 3053 
L 147 3053 
L 147 3500 
L 697 3500 
L 697 3744 
Q 697 4328 969 4595 
Q 1241 4863 1831 4863 
L 2375 4863 
z
" transform="scale(0.015625)"/>
       <path id="DejaVuSans-28" d="M 1984 4856 
Q 1566 4138 1362 3434 
Q 1159 2731 1159 2009 
Q 1159 1288 1364 580 
Q 1569 -128 1984 -844 
L 1484 -844 
Q 1016 -109 783 600 
Q 550 1309 550 2009 
Q 550 2706 781 3412 
Q 1013 4119 1484 4856 
L 1984 4856 
z
" transform="scale(0.015625)"/>
       <path id="DejaVuSans-29" d="M 513 4856 
L 1013 4856 
Q 1481 4119 1714 3412 
Q 1947 2706 1947 2009 
Q 1947 1309 1714 600 
Q 1481 -109 1013 -844 
L 513 -844 
Q 928 -128 1133 580 
Q 1338 1288 1338 2009 
Q 1338 2731 1133 3434 
Q 928 4138 513 4856 
z
" transform="scale(0.015625)"/>
       <path id="DejaVuSans-20" transform="scale(0.015625)"/>
       <path id="DejaVuSans-2d" d="M 313 2009 
L 1997 2009 
L 1997 1497 
L 313 1497 
L 313 2009 
z
" transform="scale(0.015625)"/>
       <path id="DejaVuSans-70" d="M 1159 525 
L 1159 -1331 
L 581 -1331 
L 581 3500 
L 1159 3500 
L 1159 2969 
Q 1341 3281 1617 3432 
Q 1894 3584 2278 3584 
Q 2916 3584 3314 3078 
Q 3713 2572 3713 1747 
Q 3713 922 3314 415 
Q 2916 -91 2278 -91 
Q 1894 -91 1617 61 
Q 1341 213 1159 525 
z
M 3116 1747 
Q 3116 2381 2855 2742 
Q 2594 3103 2138 3103 
Q 1681 3103 1420 2742 
Q 1159 2381 1159 1747 
Q 1159 1113 1420 752 
Q 1681 391 2138 391 
Q 2594 391 2855 752 
Q 3116 1113 3116 1747 
z
" transform="scale(0.015625)"/>
       <path id="DejaVuSans-e9" d="M 3597 1894 
L 3597 1613 
L 953 1613 
Q 991 1019 1311 708 
Q 1631 397 2203 397 
Q 2534 397 2845 478 
Q 3156 559 3463 722 
L 3463 178 
Q 3153 47 2828 -22 
Q 2503 -91 2169 -91 
Q 1331 -91 842 396 
Q 353 884 353 1716 
Q 353 2575 817 3079 
Q 1281 3584 2069 3584 
Q 2775 3584 3186 3129 
Q 3597 2675 3597 1894 
z
M 3022 2063 
Q 3016 2534 2758 2815 
Q 2500 3097 2075 3097 
Q 1594 3097 1305 2825 
Q 1016 2553 972 2059 
L 3022 2063 
z
M 2466 5119 
L 3088 5119 
L 2070 3944 
L 1591 3944 
L 2466 5119 
z
" transform="scale(0.015625)"/>
       <path id="DejaVuSans-63" d="M 3122 3366 
L 3122 2828 
Q 2878 2963 2633 3030 
Q 2388 3097 2138 3097 
Q 1578 3097 1268 2742 
Q 959 2388 959 1747 
Q 959 1106 1268 751 
Q 1578 397 2138 397 
Q 2388 397 2633 464 
Q 2878 531 3122 666 
L 3122 134 
Q 2881 22 2623 -34 
Q 2366 -91 2075 -91 
Q 1284 -91 818 406 
Q 353 903 353 1747 
Q 353 2603 823 3093 
Q 1294 3584 2113 3584 
Q 2378 3584 2631 3529 
Q 2884 3475 3122 3366 
z
" transform="scale(0.015625)"/>
       <path id="DejaVuSans-68" d="M 3513 2113 
L 3513 0 
L 2938 0 
L 2938 2094 
Q 2938 2591 2744 2837 
Q 2550 3084 2163 3084 
Q 1697 3084 1428 2787 
Q 1159 2491 1159 1978 
L 1159 0 
L 581 0 
L 581 4863 
L 1159 4863 
L 1159 2956 
Q 1366 3272 1645 3428 
Q 1925 3584 2291 3584 
Q 2894 3584 3203 3211 
Q 3513 2838 3513 2113 
z
" transform="scale(0.015625)"/>
       <path id="DejaVuSans-65" d="M 3597 1894 
L 3597 1613 
L 953 1613 
Q 991 1019 1311 708 
Q 1631 397 2203 397 
Q 2534 397 2845 478 
Q 3156 559 3463 722 
L 3463 178 
Q 3153 47 2828 -22 
Q 2503 -91 2169 -91 
Q 1331 -91 842 396 
Q 353 884 353 1716 
Q 353 2575 817 3079 
Q 1281 3584 2069 3584 
Q 2775 3584 3186 3129 
Q 3597 2675 3597 1894 
z
M 3022 2063 
Q 3016 2534 2758 2815 
Q 2500 3097 2075 3097 
Q 1594 3097 1305 2825 
Q 1016 2553 972 2059 
L 3022 2063 
z
" transform="scale(0.015625)"/>
       <path id="DejaVuSans-6c" d="M 603 4863 
L 1178 4863 
L 1178 0 
L 603 0 
L 603 4863 
z
" transform="scale(0.015625)"/>
       <path id="DejaVuSans-6f" d="M 1959 3097 
Q 1497 3097 1228 2736 
Q 959 2375 959 1747 
Q 959 1119 1226 758 
Q 1494 397 1959 397 
Q 2419 397 2687 759 
Q 2956 1122 2956 1747 
Q 2956 2369 2687 2733 
Q 2419 3097 1959 3097 
z
M 1959 3584 
Q 2709 3584 3137 3096 
Q 3566 2609 3566 1747 
Q 3566 888 3137 398 
Q 2709 -91 1959 -91 
Q 1206 -91 779 398 
Q 353 888 353 1747 
Q 353 2609 779 3096 
Q 1206 3584 1959 3584 
z
" transform="scale(0.015625)"/>
       <path id="DejaVuSans-67" d="M 2906 1791 
Q 2906 2416 2648 2759 
Q 2391 3103 1925 3103 
Q 1463 3103 1205 2759 
Q 947 2416 947 1791 
Q 947 1169 1205 825 
Q 1463 481 1925 481 
Q 2391 481 2648 825 
Q 2906 1169 2906 1791 
z
M 3481 434 
Q 3481 -459 3084 -895 
Q 2688 -1331 1869 -1331 
Q 1566 -1331 1297 -1286 
Q 1028 -1241 775 -1147 
L 775 -588 
Q 1028 -725 1275 -790 
Q 1522 -856 1778 -856 
Q 2344 -856 2625 -561 
Q 2906 -266 2906 331 
L 2906 616 
Q 2728 306 2450 153 
Q 2172 0 1784 0 
Q 1141 0 747 490 
Q 353 981 353 1791 
Q 353 2603 747 3093 
Q 1141 3584 1784 3584 
Q 2172 3584 2450 3431 
Q 2728 3278 2906 2969 
L 2906 3500 
L 3481 3500 
L 3481 434 
z
" transform="scale(0.015625)"/>
       <path id="DejaVuSans-61" d="M 2194 1759 
Q 1497 1759 1228 1600 
Q 959 1441 959 1056 
Q 959 750 1161 570 
Q 1363 391 1709 391 
Q 2188 391 2477 730 
Q 2766 1069 2766 1631 
L 2766 1759 
L 2194 1759 
z
M 3341 1997 
L 3341 0 
L 2766 0 
L 2766 531 
Q 2569 213 2275 61 
Q 1981 -91 1556 -91 
Q 1019 -91 701 211 
Q 384 513 384 1019 
Q 384 1609 779 1909 
Q 1175 2209 1959 2209 
L 2766 2209 
L 2766 2266 
Q 2766 2663 2505 2880 
Q 2244 3097 1772 3097 
Q 1472 3097 1187 3025 
Q 903 2953 641 2809 
L 641 3341 
Q 956 3463 1253 3523 
Q 1550 3584 1831 3584 
Q 2591 3584 2966 3190 
Q 3341 2797 3341 1997 
z
" transform="scale(0.015625)"/>
       <path id="DejaVuSans-72" d="M 2631 2963 
Q 2534 3019 2420 3045 
Q 2306 3072 2169 3072 
Q 1681 3072 1420 2755 
Q 1159 2438 1159 1844 
L 1159 0 
L 581 0 
L 581 3500 
L 1159 3500 
L 1159 2956 
Q 1341 3275 1631 3429 
Q 1922 3584 2338 3584 
Q 2397 3584 2469 3576 
Q 2541 3569 2628 3553 
L 2631 2963 
z
" transform="scale(0.015625)"/>
       <path id="DejaVuSans-69" d="M 603 3500 
L 1178 3500 
L 1178 0 
L 603 0 
L 603 3500 
z
M 603 4863 
L 1178 4863 
L 1178 4134 
L 603 4134 
L 603 4863 
z
" transform="scale(0.015625)"/>
       <path id="DejaVuSans-74" d="M 1172 4494 
L 1172 3500 
L 2356 3500 
L 2356 3053 
L 1172 3053 
L 1172 1153 
Q 1172 725 1289 603 
Q 1406 481 1766 481 
L 2356 481 
L 2356 0 
L 1766 0 
Q 1100 0 847 248 
Q 594 497 594 1153 
L 594 3053 
L 172 3053 
L 172 3500 
L 594 3500 
L 594 4494 
L 1172 4494 
z
" transform="scale(0.015625)"/>
       <path id="DejaVuSans-6d" d="M 3328 2828 
Q 3544 3216 3844 3400 
Q 4144 3584 4550 3584 
Q 5097 3584 5394 3201 
Q 5691 2819 5691 2113 
L 5691 0 
L 5113 0 
L 5113 2094 
Q 5113 2597 4934 2840 
Q 4756 3084 4391 3084 
Q 3944 3084 3684 2787 
Q 3425 2491 3425 1978 
L 3425 0 
L 2847 0 
L 2847 2094 
Q 2847 2600 2669 2842 
Q 2491 3084 2119 3084 
Q 1678 3084 1418 2786 
Q 1159 2488 1159 1978 
L 1159 0 
L 581 0 
L 581 3500 
L 1159 3500 
L 1159 2956 
Q 1356 3278 1631 3431 
Q 1906 3584 2284 3584 
Q 2666 3584 2933 3390 
Q 3200 3197 3328 2828 
z
" transform="scale(0.015625)"/>
       <path id="DejaVuSans-71" d="M 947 1747 
Q 947 1113 1208 752 
Q 1469 391 1925 391 
Q 2381 391 2643 752 
Q 2906 1113 2906 1747 
Q 2906 2381 2643 2742 
Q 2381 3103 1925 3103 
Q 1469 3103 1208 2742 
Q 947 2381 947 1747 
z
M 2906 525 
Q 2725 213 2448 61 
Q 2172 -91 1784 -91 
Q 1150 -91 751 415 
Q 353 922 353 1747 
Q 353 2572 751 3078 
Q 1150 3584 1784 3584 
Q 2172 3584 2448 3432 
Q 2725 3281 2906 2969 
L 2906 3500 
L 3481 3500 
L 3481 -1331 
L 2906 -1331 
L 2906 525 
z
" transform="scale(0.015625)"/>
       <path id="DejaVuSans-75" d="M 544 1381 
L 544 3500 
L 1119 3500 
L 1119 1403 
Q 1119 906 1312 657 
Q 1506 409 1894 409 
Q 2359 409 2629 706 
Q 2900 1003 2900 1516 
L 2900 3500 
L 3475 3500 
L 3475 0 
L 2900 0 
L 2900 538 
Q 2691 219 2414 64 
Q 2138 -91 1772 -91 
Q 1169 -91 856 284 
Q 544 659 544 1381 
z
M 1991 3584 
L 1991 3584 
z
" transform="scale(0.015625)"/>
      </defs>
      <use xlink:href="#DejaVuSans-7c"/>
      <use xlink:href="#DejaVuSans-66" x="33.691406"/>
      <use xlink:href="#DejaVuSans-28" x="68.896484"/>
      <use xlink:href="#DejaVuSans-78" x="107.910156"/>
      <use xlink:href="#DejaVuSans-29" x="167.089844"/>
      <use xlink:href="#DejaVuSans-20" x="206.103516"/>
      <use xlink:href="#DejaVuSans-2d" x="237.890625"/>
      <use xlink:href="#DejaVuSans-20" x="273.974609"/>
      <use xlink:href="#DejaVuSans-70" x="305.761719"/>
      <use xlink:href="#DejaVuSans-28" x="369.238281"/>
      <use xlink:href="#DejaVuSans-78" x="408.251953"/>
      <use xlink:href="#DejaVuSans-29" x="467.431641"/>
      <use xlink:href="#DejaVuSans-7c" x="506.445312"/>
      <use xlink:href="#DejaVuSans-20" x="540.136719"/>
      <use xlink:href="#DejaVuSans-28" x="571.923828"/>
      <use xlink:href="#DejaVuSans-e9" x="610.9375"/>
      <use xlink:href="#DejaVuSans-63" x="672.460938"/>
      <use xlink:href="#DejaVuSans-68" x="727.441406"/>
      <use xlink:href="#DejaVuSans-65" x="790.820312"/>
      <use xlink:href="#DejaVuSans-6c" x="852.34375"/>
      <use xlink:href="#DejaVuSans-6c" x="880.126953"/>
      <use xlink:href="#DejaVuSans-65" x="907.910156"/>
      <use xlink:href="#DejaVuSans-20" x="969.433594"/>
      <use xlink:href="#DejaVuSans-6c" x="1001.220703"/>
      <use xlink:href="#DejaVuSans-6f" x="1029.003906"/>
      <use xlink:href="#DejaVuSans-67" x="1090.185547"/>
      <use xlink:href="#DejaVuSans-61" x="1153.662109"/>
      <use xlink:href="#DejaVuSans-72" x="1214.941406"/>
      <use xlink:href="#DejaVuSans-69" x="1256.054688"/>
      <use xlink:href="#DejaVuSans-74" x="1283.837891"/>
      <use xlink:href="#DejaVuSans-68" x="1323.046875"/>
      <use xlink:href="#DejaVuSans-6d" x="1386.425781"/>
      <use xlink:href="#DejaVuSans-69" x="1483.837891"/>
      <use xlink:href="#DejaVuSans-71" x="1511.621094"/>
      <use xlink:href="#DejaVuSans-75" x="1575.097656"/>
      <use xlink:href="#DejaVuSans-65" x="1638.476562"/>
      <use xlink:href="#DejaVuSans-29" x="1700"/>
     </g>
    </g>
   </g>
   <g id="line2d_29">
    <path d="M 115.363636 68.450484 
L 128.56593 72.495705 
L 141.260442 76.621174 
L 152.939394 80.64664 
L 164.110565 84.729803 
L 174.773956 88.867152 
L 184.929566 93.054204 
L 194.069615 97.055923 
L 202.701884 101.065639 
L 210.826372 105.07138 
L 218.443079 109.058945 
L 226.059787 113.303267 
L 233.168714 117.530788 
L 239.769861 121.722274 
L 245.863227 125.854765 
L 251.448812 129.900985 
L 256.526618 133.828726 
L 261.604423 138.034736 
L 266.174447 142.100856 
L 270.744472 146.485245 
L 274.806716 150.705351 
L 278.361179 154.702101 
L 281.915643 159.049301 
L 284.962326 163.123696 
L 288.009009 167.60955 
L 290.547912 171.755897 
L 292.579034 175.423501 
L 294.610156 179.504268 
L 296.641278 184.1517 
L 298.164619 188.164301 
L 299.687961 192.845448 
L 300.703522 196.513737 
L 301.719083 200.850183 
L 302.734644 206.255991 
L 303.750205 213.674321 
L 304.257985 218.911577 
L 304.765766 226.46698 
L 305.273546 241.048594 
L 305.781327 249.075503 
L 306.289107 230.405126 
L 306.796888 222.844756 
L 307.304668 218.168925 
L 307.812449 214.854518 
L 308.82801 210.346948 
L 309.843571 207.393641 
L 310.859132 205.333975 
L 311.874693 203.862163 
L 312.890254 202.812005 
L 313.905815 202.083655 
L 314.921376 201.612992 
L 315.936937 201.356946 
L 316.952498 201.285775 
L 317.968059 201.378692 
L 319.4914 201.795553 
L 321.014742 202.520923 
L 322.538084 203.54367 
L 324.061425 204.86846 
L 325.584767 206.516436 
L 327.108108 208.52932 
L 328.63145 210.978883 
L 330.154791 213.987133 
L 331.170352 216.404132 
L 332.185913 219.270901 
L 333.201474 222.769792 
L 334.217035 227.242319 
L 335.232596 233.450797 
L 335.740377 237.784134 
L 336.248157 243.789631 
L 336.755938 253.757316 
L 337.263718 295.744581 
L 337.771499 255.996041 
L 338.279279 245.496605 
L 338.78706 239.575994 
L 339.29484 235.481484 
L 340.310401 229.904894 
L 341.325962 226.142018 
L 342.341523 223.384731 
L 343.357084 221.276456 
L 344.372645 219.628568 
L 345.388206 218.329616 
L 346.403767 217.308742 
L 347.419328 216.518607 
L 348.434889 215.926551 
L 349.45045 215.50967 
L 350.973792 215.179134 
L 352.497133 215.174108 
L 354.020475 215.479896 
L 355.543817 216.097849 
L 357.067158 217.045586 
L 358.5905 218.360519 
L 360.113841 220.108308 
L 361.129402 221.566399 
L 362.144963 223.316633 
L 363.160524 225.436996 
L 364.176085 228.051764 
L 365.191646 231.375485 
L 366.207207 235.8267 
L 366.714988 238.739418 
L 367.222768 242.408823 
L 367.730549 247.344016 
L 368.238329 254.860774 
L 368.74611 271.058042 
L 369.25389 271.058042 
L 369.761671 254.860774 
L 370.269451 247.344016 
L 370.777232 242.408823 
L 371.792793 235.8267 
L 372.808354 231.375485 
L 373.823915 228.051764 
L 374.839476 225.436996 
L 375.855037 223.316633 
L 376.870598 221.566399 
L 378.393939 219.471959 
L 379.917281 217.878077 
L 381.440622 216.691194 
L 382.963964 215.85645 
L 384.487305 215.343669 
L 386.010647 215.140867 
L 387.533989 215.251919 
L 388.54955 215.50967 
L 389.565111 215.926551 
L 390.580672 216.518607 
L 391.596233 217.308742 
L 392.611794 218.329616 
L 393.627355 219.628568 
L 394.642916 221.276456 
L 395.658477 223.384731 
L 396.674038 226.142018 
L 397.689599 229.904894 
L 398.197379 232.37966 
L 398.70516 235.481484 
L 399.21294 239.575994 
L 399.720721 245.496605 
L 400.228501 255.996041 
L 400.736282 295.744581 
L 401.244062 253.757316 
L 401.751843 243.789631 
L 402.259623 237.784134 
L 403.275184 230.048495 
L 404.290745 224.852122 
L 405.306306 220.925349 
L 406.321867 217.772249 
L 407.845209 213.987133 
L 409.36855 210.978883 
L 410.891892 208.52932 
L 412.415233 206.516436 
L 413.938575 204.86846 
L 415.461916 203.54367 
L 416.985258 202.520923 
L 418.5086 201.795553 
L 420.031941 201.378692 
L 421.047502 201.285775 
L 422.063063 201.356946 
L 423.078624 201.612992 
L 424.094185 202.083655 
L 425.109746 202.812005 
L 426.125307 203.862163 
L 427.140868 205.333975 
L 428.156429 207.393641 
L 429.17199 210.346948 
L 429.679771 212.337772 
L 430.187551 214.854518 
L 430.695332 218.168925 
L 431.203112 222.844756 
L 431.710893 230.405126 
L 432.218673 249.075503 
L 432.726454 241.048594 
L 433.234234 226.46698 
L 433.742015 218.911577 
L 434.249795 213.674321 
L 435.265356 206.255991 
L 436.280917 200.850183 
L 437.296478 196.513737 
L 438.81982 191.192653 
L 440.343161 186.764865 
L 441.866503 182.924838 
L 443.897625 178.438307 
L 445.928747 174.472328 
L 448.467649 170.045638 
L 451.006552 166.061616 
L 454.053235 161.724826 
L 457.099918 157.766763 
L 460.654382 153.527637 
L 464.208845 149.618297 
L 468.271089 145.480238 
L 472.841114 141.171796 
L 477.411138 137.168989 
L 482.488943 133.022336 
L 488.074529 128.770739 
L 493.660115 124.795763 
L 499.753481 120.730214 
L 506.354627 116.601316 
L 513.463554 112.43211 
L 521.080262 108.241996 
L 528.69697 104.301796 
L 536.821458 100.340491 
L 545.453726 96.372376 
L 554.593776 92.409549 
L 564.241605 88.462201 
L 574.904996 84.348451 
L 586.076167 80.287148 
L 597.755119 76.281949 
L 609.941851 72.335683 
L 622.636364 68.450484 
L 622.636364 68.450484 
" clip-path="url(#pf1b4f842cf)" style="fill: none; stroke: #0000ff; stroke-width: 1.5; stroke-linecap: square"/>
   </g>
   <g id="line2d_30">
    <path d="M 115.363636 68.072241 
L 128.56593 72.152968 
L 141.260442 76.3108 
L 152.939394 80.364501 
L 164.110565 84.473288 
L 174.773956 88.633834 
L 184.929566 92.841831 
L 194.069615 96.861444 
L 202.701884 100.887226 
L 210.826372 104.907347 
L 218.443079 108.907742 
L 226.059787 113.164262 
L 233.168714 117.402599 
L 239.769861 121.603636 
L 245.863227 125.74452 
L 251.448812 129.79808 
L 257.034398 134.140151 
L 262.112203 138.382676 
L 266.682228 142.486595 
L 270.744472 146.405076 
L 274.806716 150.629451 
L 278.361179 154.629789 
L 281.915643 158.980439 
L 284.962326 163.057682 
L 288.009009 167.546282 
L 290.547912 171.69484 
L 292.579034 175.364162 
L 294.610156 179.446602 
L 296.641278 184.095662 
L 298.164619 188.109455 
L 299.687961 192.791768 
L 300.703522 196.460821 
L 301.719083 200.798019 
L 302.734644 206.204568 
L 303.750205 213.623627 
L 304.257985 218.861244 
L 304.765766 226.417004 
L 305.273546 240.998973 
L 305.781327 249.026234 
L 306.289107 230.356207 
L 306.796888 222.796183 
L 307.304668 218.120696 
L 307.812449 214.80663 
L 308.82801 210.299733 
L 309.843571 207.347088 
L 310.859132 205.288073 
L 311.874693 203.8169 
L 312.890254 202.76737 
L 313.905815 202.039637 
L 314.921376 201.56958 
L 315.936937 201.314129 
L 316.952498 201.243541 
L 317.968059 201.33703 
L 319.4914 201.754728 
L 321.014742 202.480909 
L 322.538084 203.504441 
L 324.061425 204.829993 
L 325.584767 206.478704 
L 327.108108 208.492298 
L 328.63145 210.942545 
L 330.154791 213.951455 
L 331.170352 216.368879 
L 332.185913 219.236063 
L 333.201474 222.735356 
L 334.217035 227.208275 
L 335.232596 233.417134 
L 335.740377 237.750656 
L 336.248157 243.756336 
L 336.755938 253.724202 
L 337.263718 295.711645 
L 337.771499 255.963279 
L 338.279279 245.464015 
L 338.78706 239.543573 
L 339.29484 235.44923 
L 340.310401 229.872964 
L 341.325962 226.1104 
L 342.341523 223.353414 
L 343.357084 221.24543 
L 344.372645 219.597821 
L 345.388206 218.299136 
L 346.403767 217.278518 
L 347.419328 216.488629 
L 348.434889 215.896807 
L 349.45045 215.480148 
L 350.973792 215.149925 
L 352.497133 215.145187 
L 354.020475 215.451237 
L 355.543817 216.069426 
L 357.067158 217.017375 
L 358.5905 218.332493 
L 360.113841 220.080443 
L 361.129402 221.538627 
L 362.144963 223.288943 
L 363.160524 225.409376 
L 364.176085 228.024204 
L 365.191646 231.347972 
L 366.207207 235.799224 
L 366.714988 238.711956 
L 367.222768 242.381372 
L 367.730549 247.316574 
L 368.238329 254.833338 
L 368.74611 271.030608 
L 369.25389 271.030608 
L 369.761671 254.833338 
L 370.269451 247.316574 
L 370.777232 242.381372 
L 371.792793 235.799224 
L 372.808354 231.347972 
L 373.823915 228.024204 
L 374.839476 225.409376 
L 375.855037 223.288943 
L 376.870598 221.538627 
L 378.393939 219.444043 
L 379.917281 217.849992 
L 381.440622 216.662915 
L 382.963964 215.827951 
L 384.487305 215.314924 
L 386.010647 215.111852 
L 387.533989 215.222609 
L 388.54955 215.480148 
L 389.565111 215.896807 
L 390.580672 216.488629 
L 391.596233 217.278518 
L 392.611794 218.299136 
L 393.627355 219.597821 
L 394.642916 221.24543 
L 395.658477 223.353414 
L 396.674038 226.1104 
L 397.689599 229.872964 
L 398.197379 232.347569 
L 398.70516 235.44923 
L 399.21294 239.543573 
L 399.720721 245.464015 
L 400.228501 255.963279 
L 400.736282 295.711645 
L 401.244062 253.724202 
L 401.751843 243.756336 
L 402.259623 237.750656 
L 403.275184 230.014643 
L 404.290745 224.817883 
L 405.306306 220.890713 
L 406.321867 217.737204 
L 407.845209 213.951455 
L 409.36855 210.942545 
L 410.891892 208.492298 
L 412.415233 206.478704 
L 413.938575 204.829993 
L 415.461916 203.504441 
L 416.985258 202.480909 
L 418.5086 201.754728 
L 420.031941 201.33703 
L 421.047502 201.243541 
L 422.063063 201.314129 
L 423.078624 201.56958 
L 424.094185 202.039637 
L 425.109746 202.76737 
L 426.125307 203.8169 
L 427.140868 205.288073 
L 428.156429 207.347088 
L 429.17199 210.299733 
L 429.679771 212.290222 
L 430.187551 214.80663 
L 430.695332 218.120696 
L 431.203112 222.796183 
L 431.710893 230.356207 
L 432.218673 249.026234 
L 432.726454 240.998973 
L 433.234234 226.417004 
L 433.742015 218.861244 
L 434.249795 213.623627 
L 435.265356 206.204568 
L 436.280917 200.798019 
L 437.296478 196.460821 
L 438.81982 191.138587 
L 440.343161 186.709624 
L 441.866503 182.868397 
L 443.897625 178.380227 
L 445.928747 174.412564 
L 448.467649 169.983705 
L 451.006552 165.997444 
L 454.053235 161.657874 
L 457.099918 157.69693 
L 460.654382 153.454315 
L 464.208845 149.541347 
L 468.271089 145.398974 
L 472.841114 141.085463 
L 477.411138 137.077359 
L 482.488943 132.924555 
L 488.074529 128.665865 
L 493.660115 124.683458 
L 499.753481 120.609414 
L 506.354627 116.470856 
L 513.463554 112.290716 
L 521.080262 108.088277 
L 528.69697 104.135122 
L 536.821458 100.159301 
L 545.453726 96.174977 
L 554.593776 92.194106 
L 564.241605 88.226727 
L 574.904996 84.089662 
L 586.076167 80.002612 
L 597.755119 75.969051 
L 609.941851 71.991615 
L 622.636364 68.072241 
L 622.636364 68.072241 
" clip-path="url(#pf1b4f842cf)" style="fill: none; stroke-dasharray: 5.55,2.4; stroke-dashoffset: 0; stroke: #0000ff; stroke-width: 1.5"/>
   </g>
   <g id="line2d_31">
    <path d="M 115.363636 67.535363 
L 129.07371 71.631738 
L 142.276003 75.812113 
L 154.462735 79.90096 
L 166.141687 84.051843 
L 177.312858 88.261084 
L 187.976249 92.523913 
L 197.624079 96.612468 
L 206.764128 100.713946 
L 215.396396 104.816267 
L 224.028665 109.168648 
L 232.153153 113.522887 
L 239.769861 117.862147 
L 246.878788 122.166454 
L 253.479934 126.412341 
L 260.081081 130.930574 
L 266.174447 135.376495 
L 271.760033 139.716858 
L 277.345618 144.347251 
L 282.423423 148.845435 
L 287.501229 153.661359 
L 292.071253 158.310505 
L 296.133497 162.733907 
L 300.195741 167.47611 
L 304.257985 172.59314 
L 307.812449 177.435739 
L 311.366912 182.688345 
L 314.413595 187.585174 
L 317.460278 192.929585 
L 319.999181 197.806055 
L 322.538084 203.167616 
L 324.569206 207.900553 
L 326.600328 213.146999 
L 328.63145 219.084901 
L 330.154791 224.171029 
L 331.678133 230.050246 
L 332.693694 234.616572 
L 333.709255 239.976318 
L 334.724816 246.630986 
L 335.232596 250.773812 
L 335.740377 255.85634 
L 336.248157 262.620572 
L 336.755938 273.357468 
L 337.263718 316.12542 
L 337.771499 277.170116 
L 338.279279 267.477632 
L 338.78706 262.378952 
L 339.29484 259.122736 
L 339.802621 256.877085 
L 340.310401 255.278046 
L 340.818182 254.134192 
L 341.325962 253.332934 
L 341.833743 252.802997 
L 342.341523 252.496962 
L 342.849304 252.382256 
L 343.357084 252.436149 
L 343.864865 252.642816 
L 344.372645 252.991556 
L 345.388206 254.092026 
L 346.403767 255.723611 
L 347.419328 257.923416 
L 348.434889 260.792457 
L 349.45045 264.539127 
L 350.466011 269.604187 
L 350.973792 272.921866 
L 351.481572 277.104082 
L 351.989353 282.76063 
L 352.497133 291.600962 
L 353.004914 314.335929 
L 354.020475 288.472167 
L 354.528256 282.181027 
L 355.036036 278.071143 
L 355.543817 275.106245 
L 356.559378 271.107784 
L 357.574939 268.64461 
L 358.5905 267.161575 
L 359.09828 266.702805 
L 359.606061 266.406635 
L 360.113841 266.260974 
L 360.621622 266.25799 
L 361.129402 266.393384 
L 361.637183 266.666026 
L 362.144963 267.077847 
L 363.160524 268.343293 
L 364.176085 270.280296 
L 365.191646 273.07981 
L 366.207207 277.143845 
L 366.714988 279.910648 
L 367.222768 283.464484 
L 367.730549 288.313669 
L 368.238329 295.773401 
L 368.74611 311.94225 
L 369.25389 311.94225 
L 369.761671 295.773401 
L 370.269451 288.313669 
L 370.777232 283.464484 
L 371.285012 279.910648 
L 372.300573 274.913969 
L 373.316134 271.554266 
L 374.331695 269.219022 
L 375.347256 267.633998 
L 376.362817 266.666026 
L 376.870598 266.393384 
L 377.378378 266.25799 
L 377.886159 266.260974 
L 378.393939 266.406635 
L 378.90172 266.702805 
L 379.4095 267.161575 
L 379.917281 267.800506 
L 380.425061 268.64461 
L 380.932842 269.729645 
L 381.440622 271.107784 
L 381.948403 272.857949 
L 382.456183 275.106245 
L 382.963964 278.071143 
L 383.471744 282.181027 
L 383.979525 288.472167 
L 384.995086 314.335929 
L 385.502867 291.600962 
L 386.010647 282.76063 
L 386.518428 277.104082 
L 387.533989 269.604187 
L 388.54955 264.539127 
L 389.565111 260.792457 
L 390.580672 257.923416 
L 391.596233 255.723611 
L 392.611794 254.092026 
L 393.627355 252.991556 
L 394.135135 252.642816 
L 394.642916 252.436149 
L 395.150696 252.382256 
L 395.658477 252.496962 
L 396.166257 252.802997 
L 396.674038 253.332934 
L 397.181818 254.134192 
L 397.689599 255.278046 
L 398.197379 256.877085 
L 398.70516 259.122736 
L 399.21294 262.378952 
L 399.720721 267.477632 
L 400.228501 277.170116 
L 400.736282 316.12542 
L 401.244062 273.357468 
L 401.751843 262.620572 
L 402.259623 255.85634 
L 403.275184 246.630986 
L 404.290745 239.976318 
L 405.306306 234.616572 
L 406.829648 227.981287 
L 408.352989 222.401892 
L 410.384111 216.014431 
L 412.415233 210.450518 
L 414.446355 205.478005 
L 416.985258 199.88578 
L 419.524161 194.828888 
L 422.570844 189.312149 
L 425.617527 184.276353 
L 428.66421 179.632019 
L 432.218673 174.623051 
L 435.773137 169.983648 
L 439.835381 165.062002 
L 443.897625 160.485321 
L 448.467649 155.68801 
L 453.037674 151.210696 
L 458.115479 146.559441 
L 463.193284 142.203976 
L 468.77887 137.710328 
L 474.364455 133.489569 
L 480.457821 129.158261 
L 487.058968 124.748952 
L 493.660115 120.59901 
L 500.769042 116.386085 
L 508.385749 112.133377 
L 516.510238 107.860752 
L 525.142506 103.585066 
L 534.282555 99.320494 
L 543.930385 95.078854 
L 554.085995 90.869911 
L 564.749386 86.701661 
L 575.920557 82.580581 
L 587.599509 78.511855 
L 599.786241 74.49957 
L 612.988534 70.393251 
L 622.636364 67.535363 
L 622.636364 67.535363 
" clip-path="url(#pf1b4f842cf)" style="fill: none; stroke: #008000; stroke-width: 1.5; stroke-linecap: square"/>
   </g>
   <g id="line2d_32">
    <path d="M 115.363636 67.177907 
L 129.07371 71.311093 
L 142.276003 75.524998 
L 154.462735 79.643122 
L 166.141687 83.820554 
L 177.312858 88.053805 
L 187.976249 92.338291 
L 197.624079 96.445376 
L 206.764128 100.563478 
L 215.904177 104.93032 
L 224.536446 109.312384 
L 232.660934 113.695771 
L 240.277641 118.063788 
L 247.386568 122.396572 
L 253.987715 126.670722 
L 260.588862 131.219461 
L 266.682228 135.696075 
L 272.267813 140.067286 
L 277.853399 144.731818 
L 282.931204 149.264663 
L 287.501229 153.618243 
L 292.071253 158.27134 
L 296.133497 162.698064 
L 300.195741 167.443409 
L 304.257985 172.563401 
L 307.812449 177.408443 
L 311.366912 182.663355 
L 314.413595 187.562051 
L 317.460278 192.908227 
L 319.999181 197.786091 
L 322.538084 203.148975 
L 324.569206 207.882921 
L 326.600328 213.130329 
L 328.63145 219.069149 
L 330.154791 224.155937 
L 331.678133 230.035787 
L 332.693694 234.602521 
L 333.709255 239.962664 
L 334.724816 246.617718 
L 335.232596 250.760732 
L 335.740377 255.843447 
L 336.248157 262.607862 
L 336.755938 273.344938 
L 337.263718 316.113067 
L 337.771499 277.157938 
L 338.279279 267.465625 
L 338.78706 262.367115 
L 339.29484 259.111065 
L 339.802621 256.865577 
L 340.310401 255.266699 
L 340.818182 254.123002 
L 341.325962 253.321899 
L 341.833743 252.792115 
L 342.341523 252.486228 
L 342.849304 252.371669 
L 343.357084 252.425705 
L 343.864865 252.632513 
L 344.372645 252.981391 
L 345.388206 254.082129 
L 346.403767 255.71397 
L 347.419328 257.91402 
L 348.434889 260.783295 
L 349.45045 264.530187 
L 350.466011 269.595458 
L 350.973792 272.913238 
L 351.481572 277.095554 
L 351.989353 282.752197 
L 352.497133 291.592622 
L 353.004914 314.327679 
L 354.020475 288.464089 
L 354.528256 282.17303 
L 355.036036 278.063225 
L 355.543817 275.098404 
L 356.559378 271.100086 
L 357.574939 268.637044 
L 358.5905 267.154131 
L 359.09828 266.695417 
L 359.606061 266.3993 
L 360.113841 266.25369 
L 360.621622 266.250753 
L 361.129402 266.386193 
L 361.637183 266.658878 
L 362.144963 267.070737 
L 363.160524 268.336254 
L 364.176085 270.273316 
L 365.191646 273.072879 
L 366.207207 277.136949 
L 366.714988 279.903766 
L 367.222768 283.457614 
L 367.730549 288.306807 
L 368.238329 295.766546 
L 368.74611 311.935397 
L 369.25389 311.935397 
L 369.761671 295.766546 
L 370.269451 288.306807 
L 370.777232 283.457614 
L 371.285012 279.903766 
L 372.300573 274.907057 
L 373.316134 271.547311 
L 374.331695 269.212014 
L 375.347256 267.626925 
L 376.362817 266.658878 
L 376.870598 266.386193 
L 377.378378 266.250753 
L 377.886159 266.25369 
L 378.393939 266.3993 
L 378.90172 266.695417 
L 379.4095 267.154131 
L 379.917281 267.793002 
L 380.425061 268.637044 
L 380.932842 269.722015 
L 381.440622 271.100086 
L 381.948403 272.85018 
L 382.456183 275.098404 
L 382.963964 278.063225 
L 383.471744 282.17303 
L 383.979525 288.464089 
L 384.995086 314.327679 
L 385.502867 291.592622 
L 386.010647 282.752197 
L 386.518428 277.095554 
L 387.533989 269.595458 
L 388.54955 264.530187 
L 389.565111 260.783295 
L 390.580672 257.91402 
L 391.596233 255.71397 
L 392.611794 254.082129 
L 393.627355 252.981391 
L 394.135135 252.632513 
L 394.642916 252.425705 
L 395.150696 252.371669 
L 395.658477 252.486228 
L 396.166257 252.792115 
L 396.674038 253.321899 
L 397.181818 254.123002 
L 397.689599 255.266699 
L 398.197379 256.865577 
L 398.70516 259.111065 
L 399.21294 262.367115 
L 399.720721 267.465625 
L 400.228501 277.157938 
L 400.736282 316.113067 
L 401.244062 273.344938 
L 401.751843 262.607862 
L 402.259623 255.843447 
L 403.275184 246.617718 
L 404.290745 239.962664 
L 405.306306 234.602521 
L 406.829648 227.96662 
L 408.352989 222.386583 
L 410.384111 215.998226 
L 412.415233 210.433373 
L 414.446355 205.459874 
L 416.985258 199.866354 
L 419.524161 194.808097 
L 422.570844 189.289626 
L 425.617527 184.251997 
L 428.66421 179.605729 
L 432.218673 174.594376 
L 435.773137 169.952451 
L 439.835381 165.027753 
L 443.897625 160.44784 
L 448.467649 155.646678 
L 453.037674 151.165285 
L 458.115479 146.509231 
L 463.193284 142.148685 
L 468.77887 137.649124 
L 474.364455 133.422113 
L 480.457821 129.083595 
L 487.058968 124.666019 
L 493.660115 120.507335 
L 500.769042 116.284466 
L 508.385749 112.020492 
L 516.510238 107.735154 
L 525.142506 103.445175 
L 534.282555 99.164586 
L 543.930385 94.905053 
L 554.085995 90.676184 
L 564.749386 86.485808 
L 575.920557 82.340225 
L 587.599509 78.244436 
L 599.786241 74.202338 
L 612.988534 70.06191 
L 622.636364 67.177907 
L 622.636364 67.177907 
" clip-path="url(#pf1b4f842cf)" style="fill: none; stroke-dasharray: 5.55,2.4; stroke-dashoffset: 0; stroke: #008000; stroke-width: 1.5"/>
   </g>
   <g id="line2d_33">
    <path d="M 115.363636 67.312261 
L 129.07371 71.382784 
L 142.276003 75.533641 
L 154.462735 79.590185 
L 166.141687 83.704393 
L 177.312858 87.871971 
L 187.976249 92.087461 
L 198.131859 96.34403 
L 207.779689 100.633241 
L 216.919738 104.944783 
L 225.552007 109.266189 
L 233.676495 113.582527 
L 241.293202 117.876085 
L 248.402129 122.126059 
L 255.511057 126.640181 
L 262.112203 131.099005 
L 268.205569 135.473106 
L 274.298935 140.1281 
L 279.884521 144.675075 
L 284.962326 149.072406 
L 290.040131 153.755036 
L 294.610156 158.246507 
L 299.18018 163.037506 
L 303.750205 168.171978 
L 307.812449 173.068241 
L 311.874693 178.326959 
L 315.429156 183.272793 
L 318.98362 188.593262 
L 322.538084 194.353335 
L 325.584767 199.703898 
L 328.63145 205.508939 
L 331.678133 211.860839 
L 334.217035 217.661879 
L 336.755938 224.031345 
L 339.29484 231.112748 
L 341.325962 237.431445 
L 343.357084 244.509037 
L 344.880426 250.470086 
L 346.403767 257.185627 
L 347.927109 264.96086 
L 348.94267 271.003827 
L 349.958231 278.106219 
L 350.973792 286.98471 
L 351.481572 292.605689 
L 351.989353 299.727791 
L 352.497133 310.066725 
L 353.004914 334.340364 
L 354.020475 311.707574 
L 354.528256 307.129198 
L 355.036036 304.81411 
L 355.543817 303.742743 
L 356.051597 303.507912 
L 356.559378 303.918798 
L 357.067158 304.8865 
L 357.574939 306.38408 
L 358.082719 308.435469 
L 358.5905 311.123231 
L 359.09828 314.62197 
L 359.606061 319.293331 
L 360.113841 325.998404 
L 360.621622 337.691224 
L 361.129402 369.36 
L 361.637183 336.058117 
L 362.144963 327.600214 
L 362.652744 323.050683 
L 363.160524 320.275072 
L 363.668305 318.578102 
L 364.176085 317.656286 
L 364.683866 317.363093 
L 365.191646 317.633669 
L 365.699427 318.45865 
L 366.207207 319.880594 
L 366.714988 322.009916 
L 367.222768 325.075125 
L 367.730549 329.56944 
L 368.238329 336.79784 
L 368.74611 352.852543 
L 369.25389 352.852543 
L 369.761671 336.79784 
L 370.269451 329.56944 
L 370.777232 325.075125 
L 371.285012 322.009916 
L 371.792793 319.880594 
L 372.300573 318.45865 
L 372.808354 317.633669 
L 373.316134 317.363093 
L 373.823915 317.656286 
L 374.331695 318.578102 
L 374.839476 320.275072 
L 375.347256 323.050683 
L 375.855037 327.600214 
L 376.362817 336.058117 
L 376.870598 369.36 
L 377.378378 337.691224 
L 377.886159 325.998404 
L 378.393939 319.293331 
L 378.90172 314.62197 
L 379.4095 311.123231 
L 379.917281 308.435469 
L 380.425061 306.38408 
L 380.932842 304.8865 
L 381.440622 303.918798 
L 381.948403 303.507912 
L 382.456183 303.742743 
L 382.963964 304.81411 
L 383.471744 307.129198 
L 383.979525 311.707574 
L 384.995086 334.340364 
L 385.502867 310.066725 
L 386.010647 299.727791 
L 387.026208 286.98471 
L 388.041769 278.106219 
L 389.05733 271.003827 
L 390.580672 262.223829 
L 392.104013 254.848079 
L 393.627355 248.409922 
L 395.658477 240.861803 
L 397.689599 234.189357 
L 399.720721 228.183092 
L 402.259623 221.407356 
L 404.798526 215.279668 
L 407.337428 209.675834 
L 410.384111 203.518293 
L 413.430794 197.873707 
L 416.477477 192.658252 
L 420.031941 187.03142 
L 423.586405 181.823926 
L 427.140868 176.975244 
L 431.203112 171.812254 
L 435.265356 166.998697 
L 439.835381 161.94485 
L 444.405405 157.223891 
L 449.48321 152.318049 
L 454.561016 147.724882 
L 460.146601 142.988392 
L 465.732187 138.542979 
L 471.825553 133.985575 
L 477.918919 129.697665 
L 484.520066 125.321554 
L 491.628993 120.886205 
L 498.73792 116.706104 
L 506.354627 112.479166 
L 514.479115 108.226015 
L 523.111384 103.964291 
L 532.251433 99.708934 
L 541.899263 95.472481 
L 552.054873 91.265356 
L 562.718264 87.096138 
L 573.889435 82.97182 
L 585.568387 78.898029 
L 597.755119 74.879234 
L 610.957412 70.764963 
L 622.636364 67.312261 
L 622.636364 67.312261 
" clip-path="url(#pf1b4f842cf)" style="fill: none; stroke: #ffa500; stroke-width: 1.5; stroke-linecap: square"/>
   </g>
   <g id="line2d_34">
    <path d="M 115.363636 66.96 
L 129.07371 71.067331 
L 142.276003 75.251712 
L 154.970516 79.512796 
L 166.649468 83.663712 
L 177.820639 87.866191 
L 188.484029 92.115003 
L 198.63964 96.403533 
L 208.287469 100.723548 
L 217.427518 105.064929 
L 226.059787 109.415379 
L 234.184275 113.760114 
L 241.800983 118.081542 
L 248.90991 122.358942 
L 256.018837 126.902236 
L 262.619984 131.390132 
L 268.71335 135.793201 
L 274.806716 140.479722 
L 280.392301 145.058397 
L 285.470106 149.487432 
L 290.547912 154.205165 
L 295.117936 158.731816 
L 299.687961 163.56221 
L 304.257985 168.741339 
L 308.320229 173.682845 
L 312.382473 178.993422 
L 315.936937 183.9915 
L 319.4914 189.372397 
L 323.045864 195.203479 
L 326.092547 200.625917 
L 329.13923 206.516314 
L 331.678133 211.851526 
L 334.217035 217.653566 
L 336.755938 224.023961 
L 339.29484 231.106223 
L 341.325962 237.425556 
L 343.357084 244.50374 
L 344.880426 250.465202 
L 346.403767 257.181131 
L 347.927109 264.956728 
L 348.94267 270.999923 
L 349.958231 278.102531 
L 350.973792 286.981228 
L 351.481572 292.602306 
L 351.989353 299.724503 
L 352.497133 310.063531 
L 353.004914 334.337259 
L 354.020475 311.704641 
L 354.528256 307.126347 
L 355.036036 304.811337 
L 355.543817 303.740047 
L 356.051597 303.505289 
L 356.559378 303.916245 
L 357.067158 304.884015 
L 357.574939 306.381659 
L 358.082719 308.433111 
L 358.5905 311.120932 
L 359.09828 314.619727 
L 359.606061 319.291142 
L 360.113841 325.996265 
L 360.621622 337.689133 
L 361.129402 369.357954 
L 361.637183 336.056113 
L 362.144963 327.598249 
L 362.652744 323.048755 
L 363.160524 320.273178 
L 363.668305 318.576239 
L 364.176085 317.654451 
L 364.683866 317.361284 
L 365.191646 317.631882 
L 365.699427 318.456883 
L 366.207207 319.878844 
L 366.714988 322.00818 
L 367.222768 325.0734 
L 367.730549 329.567724 
L 368.238329 336.796129 
L 368.74611 352.850835 
L 369.25389 352.850835 
L 369.761671 336.796129 
L 370.269451 329.567724 
L 370.777232 325.0734 
L 371.285012 322.00818 
L 371.792793 319.878844 
L 372.300573 318.456883 
L 372.808354 317.631882 
L 373.316134 317.361284 
L 373.823915 317.654451 
L 374.331695 318.576239 
L 374.839476 320.273178 
L 375.347256 323.048755 
L 375.855037 327.598249 
L 376.362817 336.056113 
L 376.870598 369.357954 
L 377.378378 337.689133 
L 377.886159 325.996265 
L 378.393939 319.291142 
L 378.90172 314.619727 
L 379.4095 311.120932 
L 379.917281 308.433111 
L 380.425061 306.381659 
L 380.932842 304.884015 
L 381.440622 303.916245 
L 381.948403 303.505289 
L 382.456183 303.740047 
L 382.963964 304.811337 
L 383.471744 307.126347 
L 383.979525 311.704641 
L 384.995086 334.337259 
L 385.502867 310.063531 
L 386.010647 299.724503 
L 387.026208 286.981228 
L 388.041769 278.102531 
L 389.05733 270.999923 
L 390.580672 262.219578 
L 392.104013 254.843457 
L 393.627355 248.404902 
L 395.658477 240.856215 
L 397.689599 234.183156 
L 399.720721 228.176231 
L 402.259623 221.399608 
L 404.798526 215.270964 
L 407.337428 209.666102 
L 410.384111 203.507234 
L 413.430794 197.861221 
L 416.477477 192.644237 
L 420.031941 187.015494 
L 423.586405 181.805951 
L 427.140868 176.955081 
L 431.203112 171.789422 
L 435.265356 166.973017 
L 439.835381 161.91575 
L 444.405405 157.191143 
L 449.48321 152.28098 
L 454.561016 147.683212 
L 460.146601 142.941336 
L 465.732187 138.490195 
L 471.825553 133.926156 
L 477.918919 129.631206 
L 484.520066 125.247013 
L 491.628993 120.802427 
L 498.73792 116.612541 
L 506.354627 112.374507 
L 514.479115 108.108825 
L 523.111384 103.832999 
L 532.251433 99.561829 
L 541.899263 95.3077 
L 552.054873 91.080875 
L 562.718264 86.889769 
L 573.889435 82.741198 
L 585.568387 78.640605 
L 597.755119 74.59227 
L 610.957412 70.444185 
L 622.636364 66.96 
L 622.636364 66.96 
" clip-path="url(#pf1b4f842cf)" style="fill: none; stroke-dasharray: 5.55,2.4; stroke-dashoffset: 0; stroke: #ffa500; stroke-width: 1.5"/>
   </g>
   <g id="patch_3">
    <path d="M 90 384.48 
L 90 51.84 
" style="fill: none; stroke: #000000; stroke-width: 0.8; stroke-linejoin: miter; stroke-linecap: square"/>
   </g>
   <g id="patch_4">
    <path d="M 648 384.48 
L 648 51.84 
" style="fill: none; stroke: #000000; stroke-width: 0.8; stroke-linejoin: miter; stroke-linecap: square"/>
   </g>
   <g id="patch_5">
    <path d="M 90 384.48 
L 648 384.48 
" style="fill: none; stroke: #000000; stroke-width: 0.8; stroke-linejoin: miter; stroke-linecap: square"/>
   </g>
   <g id="patch_6">
    <path d="M 90 51.84 
L 648 51.84 
" style="fill: none; stroke: #000000; stroke-width: 0.8; stroke-linejoin: miter; stroke-linecap: square"/>
   </g>
   <g id="text_17">
    <!-- Comparaison des erreurs d'approximation et des bornes théoriques de Lagrange pour n=4 -->
    <g transform="translate(96.137812 45.84) scale(0.12 -0.12)">
     <defs>
      <path id="DejaVuSans-43" d="M 4122 4306 
L 4122 3641 
Q 3803 3938 3442 4084 
Q 3081 4231 2675 4231 
Q 1875 4231 1450 3742 
Q 1025 3253 1025 2328 
Q 1025 1406 1450 917 
Q 1875 428 2675 428 
Q 3081 428 3442 575 
Q 3803 722 4122 1019 
L 4122 359 
Q 3791 134 3420 21 
Q 3050 -91 2638 -91 
Q 1578 -91 968 557 
Q 359 1206 359 2328 
Q 359 3453 968 4101 
Q 1578 4750 2638 4750 
Q 3056 4750 3426 4639 
Q 3797 4528 4122 4306 
z
" transform="scale(0.015625)"/>
      <path id="DejaVuSans-73" d="M 2834 3397 
L 2834 2853 
Q 2591 2978 2328 3040 
Q 2066 3103 1784 3103 
Q 1356 3103 1142 2972 
Q 928 2841 928 2578 
Q 928 2378 1081 2264 
Q 1234 2150 1697 2047 
L 1894 2003 
Q 2506 1872 2764 1633 
Q 3022 1394 3022 966 
Q 3022 478 2636 193 
Q 2250 -91 1575 -91 
Q 1294 -91 989 -36 
Q 684 19 347 128 
L 347 722 
Q 666 556 975 473 
Q 1284 391 1588 391 
Q 1994 391 2212 530 
Q 2431 669 2431 922 
Q 2431 1156 2273 1281 
Q 2116 1406 1581 1522 
L 1381 1569 
Q 847 1681 609 1914 
Q 372 2147 372 2553 
Q 372 3047 722 3315 
Q 1072 3584 1716 3584 
Q 2034 3584 2315 3537 
Q 2597 3491 2834 3397 
z
" transform="scale(0.015625)"/>
      <path id="DejaVuSans-6e" d="M 3513 2113 
L 3513 0 
L 2938 0 
L 2938 2094 
Q 2938 2591 2744 2837 
Q 2550 3084 2163 3084 
Q 1697 3084 1428 2787 
Q 1159 2491 1159 1978 
L 1159 0 
L 581 0 
L 581 3500 
L 1159 3500 
L 1159 2956 
Q 1366 3272 1645 3428 
Q 1925 3584 2291 3584 
Q 2894 3584 3203 3211 
Q 3513 2838 3513 2113 
z
" transform="scale(0.015625)"/>
      <path id="DejaVuSans-64" d="M 2906 2969 
L 2906 4863 
L 3481 4863 
L 3481 0 
L 2906 0 
L 2906 525 
Q 2725 213 2448 61 
Q 2172 -91 1784 -91 
Q 1150 -91 751 415 
Q 353 922 353 1747 
Q 353 2572 751 3078 
Q 1150 3584 1784 3584 
Q 2172 3584 2448 3432 
Q 2725 3281 2906 2969 
z
M 947 1747 
Q 947 1113 1208 752 
Q 1469 391 1925 391 
Q 2381 391 2643 752 
Q 2906 1113 2906 1747 
Q 2906 2381 2643 2742 
Q 2381 3103 1925 3103 
Q 1469 3103 1208 2742 
Q 947 2381 947 1747 
z
" transform="scale(0.015625)"/>
      <path id="DejaVuSans-27" d="M 1147 4666 
L 1147 2931 
L 616 2931 
L 616 4666 
L 1147 4666 
z
" transform="scale(0.015625)"/>
      <path id="DejaVuSans-62" d="M 3116 1747 
Q 3116 2381 2855 2742 
Q 2594 3103 2138 3103 
Q 1681 3103 1420 2742 
Q 1159 2381 1159 1747 
Q 1159 1113 1420 752 
Q 1681 391 2138 391 
Q 2594 391 2855 752 
Q 3116 1113 3116 1747 
z
M 1159 2969 
Q 1341 3281 1617 3432 
Q 1894 3584 2278 3584 
Q 2916 3584 3314 3078 
Q 3713 2572 3713 1747 
Q 3713 922 3314 415 
Q 2916 -91 2278 -91 
Q 1894 -91 1617 61 
Q 1341 213 1159 525 
L 1159 0 
L 581 0 
L 581 4863 
L 1159 4863 
L 1159 2969 
z
" transform="scale(0.015625)"/>
      <path id="DejaVuSans-4c" d="M 628 4666 
L 1259 4666 
L 1259 531 
L 3531 531 
L 3531 0 
L 628 0 
L 628 4666 
z
" transform="scale(0.015625)"/>
      <path id="DejaVuSans-3d" d="M 678 2906 
L 4684 2906 
L 4684 2381 
L 678 2381 
L 678 2906 
z
M 678 1631 
L 4684 1631 
L 4684 1100 
L 678 1100 
L 678 1631 
z
" transform="scale(0.015625)"/>
     </defs>
     <use xlink:href="#DejaVuSans-43"/>
     <use xlink:href="#DejaVuSans-6f" x="69.824219"/>
     <use xlink:href="#DejaVuSans-6d" x="131.005859"/>
     <use xlink:href="#DejaVuSans-70" x="228.417969"/>
     <use xlink:href="#DejaVuSans-61" x="291.894531"/>
     <use xlink:href="#DejaVuSans-72" x="353.173828"/>
     <use xlink:href="#DejaVuSans-61" x="394.287109"/>
     <use xlink:href="#DejaVuSans-69" x="455.566406"/>
     <use xlink:href="#DejaVuSans-73" x="483.349609"/>
     <use xlink:href="#DejaVuSans-6f" x="535.449219"/>
     <use xlink:href="#DejaVuSans-6e" x="596.630859"/>
     <use xlink:href="#DejaVuSans-20" x="660.009766"/>
     <use xlink:href="#DejaVuSans-64" x="691.796875"/>
     <use xlink:href="#DejaVuSans-65" x="755.273438"/>
     <use xlink:href="#DejaVuSans-73" x="816.796875"/>
     <use xlink:href="#DejaVuSans-20" x="868.896484"/>
     <use xlink:href="#DejaVuSans-65" x="900.683594"/>
     <use xlink:href="#DejaVuSans-72" x="962.207031"/>
     <use xlink:href="#DejaVuSans-72" x="1001.570312"/>
     <use xlink:href="#DejaVuSans-65" x="1040.433594"/>
     <use xlink:href="#DejaVuSans-75" x="1101.957031"/>
     <use xlink:href="#DejaVuSans-72" x="1165.335938"/>
     <use xlink:href="#DejaVuSans-73" x="1206.449219"/>
     <use xlink:href="#DejaVuSans-20" x="1258.548828"/>
     <use xlink:href="#DejaVuSans-64" x="1290.335938"/>
     <use xlink:href="#DejaVuSans-27" x="1353.8125"/>
     <use xlink:href="#DejaVuSans-61" x="1381.302734"/>
     <use xlink:href="#DejaVuSans-70" x="1442.582031"/>
     <use xlink:href="#DejaVuSans-70" x="1506.058594"/>
     <use xlink:href="#DejaVuSans-72" x="1569.535156"/>
     <use xlink:href="#DejaVuSans-6f" x="1608.398438"/>
     <use xlink:href="#DejaVuSans-78" x="1666.455078"/>
     <use xlink:href="#DejaVuSans-69" x="1725.634766"/>
     <use xlink:href="#DejaVuSans-6d" x="1753.417969"/>
     <use xlink:href="#DejaVuSans-61" x="1850.830078"/>
     <use xlink:href="#DejaVuSans-74" x="1912.109375"/>
     <use xlink:href="#DejaVuSans-69" x="1951.318359"/>
     <use xlink:href="#DejaVuSans-6f" x="1979.101562"/>
     <use xlink:href="#DejaVuSans-6e" x="2040.283203"/>
     <use xlink:href="#DejaVuSans-20" x="2103.662109"/>
     <use xlink:href="#DejaVuSans-65" x="2135.449219"/>
     <use xlink:href="#DejaVuSans-74" x="2196.972656"/>
     <use xlink:href="#DejaVuSans-20" x="2236.181641"/>
     <use xlink:href="#DejaVuSans-64" x="2267.96875"/>
     <use xlink:href="#DejaVuSans-65" x="2331.445312"/>
     <use xlink:href="#DejaVuSans-73" x="2392.96875"/>
     <use xlink:href="#DejaVuSans-20" x="2445.068359"/>
     <use xlink:href="#DejaVuSans-62" x="2476.855469"/>
     <use xlink:href="#DejaVuSans-6f" x="2540.332031"/>
     <use xlink:href="#DejaVuSans-72" x="2601.513672"/>
     <use xlink:href="#DejaVuSans-6e" x="2640.876953"/>
     <use xlink:href="#DejaVuSans-65" x="2704.255859"/>
     <use xlink:href="#DejaVuSans-73" x="2765.779297"/>
     <use xlink:href="#DejaVuSans-20" x="2817.878906"/>
     <use xlink:href="#DejaVuSans-74" x="2849.666016"/>
     <use xlink:href="#DejaVuSans-68" x="2888.875"/>
     <use xlink:href="#DejaVuSans-e9" x="2952.253906"/>
     <use xlink:href="#DejaVuSans-6f" x="3013.777344"/>
     <use xlink:href="#DejaVuSans-72" x="3074.958984"/>
     <use xlink:href="#DejaVuSans-69" x="3116.072266"/>
     <use xlink:href="#DejaVuSans-71" x="3143.855469"/>
     <use xlink:href="#DejaVuSans-75" x="3207.332031"/>
     <use xlink:href="#DejaVuSans-65" x="3270.710938"/>
     <use xlink:href="#DejaVuSans-73" x="3332.234375"/>
     <use xlink:href="#DejaVuSans-20" x="3384.333984"/>
     <use xlink:href="#DejaVuSans-64" x="3416.121094"/>
     <use xlink:href="#DejaVuSans-65" x="3479.597656"/>
     <use xlink:href="#DejaVuSans-20" x="3541.121094"/>
     <use xlink:href="#DejaVuSans-4c" x="3572.908203"/>
     <use xlink:href="#DejaVuSans-61" x="3628.621094"/>
     <use xlink:href="#DejaVuSans-67" x="3689.900391"/>
     <use xlink:href="#DejaVuSans-72" x="3753.376953"/>
     <use xlink:href="#DejaVuSans-61" x="3794.490234"/>
     <use xlink:href="#DejaVuSans-6e" x="3855.769531"/>
     <use xlink:href="#DejaVuSans-67" x="3919.148438"/>
     <use xlink:href="#DejaVuSans-65" x="3982.625"/>
     <use xlink:href="#DejaVuSans-20" x="4044.148438"/>
     <use xlink:href="#DejaVuSans-70" x="4075.935547"/>
     <use xlink:href="#DejaVuSans-6f" x="4139.412109"/>
     <use xlink:href="#DejaVuSans-75" x="4200.59375"/>
     <use xlink:href="#DejaVuSans-72" x="4263.972656"/>
     <use xlink:href="#DejaVuSans-20" x="4305.085938"/>
     <use xlink:href="#DejaVuSans-6e" x="4336.873047"/>
     <use xlink:href="#DejaVuSans-3d" x="4400.251953"/>
     <use xlink:href="#DejaVuSans-34" x="4484.041016"/>
    </g>
   </g>
   <g id="legend_1">
    <g id="patch_7">
     <path d="M 97 379.48 
L 297.901563 379.48 
Q 299.901563 379.48 299.901563 377.48 
L 299.901563 290.41125 
Q 299.901563 288.41125 297.901563 288.41125 
L 97 288.41125 
Q 95 288.41125 95 290.41125 
L 95 377.48 
Q 95 379.48 97 379.48 
z
" style="fill: #ffffff; opacity: 0.8; stroke: #cccccc; stroke-linejoin: miter"/>
    </g>
    <g id="line2d_35">
     <path d="M 99 296.509688 
L 109 296.509688 
L 119 296.509688 
" style="fill: none; stroke: #0000ff; stroke-width: 1.5; stroke-linecap: square"/>
    </g>
    <g id="text_18">
     <!-- Erreur d'approximation, t=0.25 -->
     <g transform="translate(127 300.009688) scale(0.1 -0.1)">
      <defs>
       <path id="DejaVuSans-45" d="M 628 4666 
L 3578 4666 
L 3578 4134 
L 1259 4134 
L 1259 2753 
L 3481 2753 
L 3481 2222 
L 1259 2222 
L 1259 531 
L 3634 531 
L 3634 0 
L 628 0 
L 628 4666 
z
" transform="scale(0.015625)"/>
       <path id="DejaVuSans-2c" d="M 750 794 
L 1409 794 
L 1409 256 
L 897 -744 
L 494 -744 
L 750 256 
L 750 794 
z
" transform="scale(0.015625)"/>
      </defs>
      <use xlink:href="#DejaVuSans-45"/>
      <use xlink:href="#DejaVuSans-72" x="63.183594"/>
      <use xlink:href="#DejaVuSans-72" x="102.546875"/>
      <use xlink:href="#DejaVuSans-65" x="141.410156"/>
      <use xlink:href="#DejaVuSans-75" x="202.933594"/>
      <use xlink:href="#DejaVuSans-72" x="266.3125"/>
      <use xlink:href="#DejaVuSans-20" x="307.425781"/>
      <use xlink:href="#DejaVuSans-64" x="339.212891"/>
      <use xlink:href="#DejaVuSans-27" x="402.689453"/>
      <use xlink:href="#DejaVuSans-61" x="430.179688"/>
      <use xlink:href="#DejaVuSans-70" x="491.458984"/>
      <use xlink:href="#DejaVuSans-70" x="554.935547"/>
      <use xlink:href="#DejaVuSans-72" x="618.412109"/>
      <use xlink:href="#DejaVuSans-6f" x="657.275391"/>
      <use xlink:href="#DejaVuSans-78" x="715.332031"/>
      <use xlink:href="#DejaVuSans-69" x="774.511719"/>
      <use xlink:href="#DejaVuSans-6d" x="802.294922"/>
      <use xlink:href="#DejaVuSans-61" x="899.707031"/>
      <use xlink:href="#DejaVuSans-74" x="960.986328"/>
      <use xlink:href="#DejaVuSans-69" x="1000.195312"/>
      <use xlink:href="#DejaVuSans-6f" x="1027.978516"/>
      <use xlink:href="#DejaVuSans-6e" x="1089.160156"/>
      <use xlink:href="#DejaVuSans-2c" x="1152.539062"/>
      <use xlink:href="#DejaVuSans-20" x="1184.326172"/>
      <use xlink:href="#DejaVuSans-74" x="1216.113281"/>
      <use xlink:href="#DejaVuSans-3d" x="1255.322266"/>
      <use xlink:href="#DejaVuSans-30" x="1339.111328"/>
      <use xlink:href="#DejaVuSans-2e" x="1402.734375"/>
      <use xlink:href="#DejaVuSans-32" x="1434.521484"/>
      <use xlink:href="#DejaVuSans-35" x="1498.144531"/>
     </g>
    </g>
    <g id="line2d_36">
     <path d="M 99 311.187813 
L 109 311.187813 
L 119 311.187813 
" style="fill: none; stroke-dasharray: 5.55,2.4; stroke-dashoffset: 0; stroke: #0000ff; stroke-width: 1.5"/>
    </g>
    <g id="text_19">
     <!-- Reste de Lagrange, t=0.25 -->
     <g transform="translate(127 314.687813) scale(0.1 -0.1)">
      <defs>
       <path id="DejaVuSans-52" d="M 2841 2188 
Q 3044 2119 3236 1894 
Q 3428 1669 3622 1275 
L 4263 0 
L 3584 0 
L 2988 1197 
Q 2756 1666 2539 1819 
Q 2322 1972 1947 1972 
L 1259 1972 
L 1259 0 
L 628 0 
L 628 4666 
L 2053 4666 
Q 2853 4666 3247 4331 
Q 3641 3997 3641 3322 
Q 3641 2881 3436 2590 
Q 3231 2300 2841 2188 
z
M 1259 4147 
L 1259 2491 
L 2053 2491 
Q 2509 2491 2742 2702 
Q 2975 2913 2975 3322 
Q 2975 3731 2742 3939 
Q 2509 4147 2053 4147 
L 1259 4147 
z
" transform="scale(0.015625)"/>
      </defs>
      <use xlink:href="#DejaVuSans-52"/>
      <use xlink:href="#DejaVuSans-65" x="64.982422"/>
      <use xlink:href="#DejaVuSans-73" x="126.505859"/>
      <use xlink:href="#DejaVuSans-74" x="178.605469"/>
      <use xlink:href="#DejaVuSans-65" x="217.814453"/>
      <use xlink:href="#DejaVuSans-20" x="279.337891"/>
      <use xlink:href="#DejaVuSans-64" x="311.125"/>
      <use xlink:href="#DejaVuSans-65" x="374.601562"/>
      <use xlink:href="#DejaVuSans-20" x="436.125"/>
      <use xlink:href="#DejaVuSans-4c" x="467.912109"/>
      <use xlink:href="#DejaVuSans-61" x="523.625"/>
      <use xlink:href="#DejaVuSans-67" x="584.904297"/>
      <use xlink:href="#DejaVuSans-72" x="648.380859"/>
      <use xlink:href="#DejaVuSans-61" x="689.494141"/>
      <use xlink:href="#DejaVuSans-6e" x="750.773438"/>
      <use xlink:href="#DejaVuSans-67" x="814.152344"/>
      <use xlink:href="#DejaVuSans-65" x="877.628906"/>
      <use xlink:href="#DejaVuSans-2c" x="939.152344"/>
      <use xlink:href="#DejaVuSans-20" x="970.939453"/>
      <use xlink:href="#DejaVuSans-74" x="1002.726562"/>
      <use xlink:href="#DejaVuSans-3d" x="1041.935547"/>
      <use xlink:href="#DejaVuSans-30" x="1125.724609"/>
      <use xlink:href="#DejaVuSans-2e" x="1189.347656"/>
      <use xlink:href="#DejaVuSans-32" x="1221.134766"/>
      <use xlink:href="#DejaVuSans-35" x="1284.757812"/>
     </g>
    </g>
    <g id="line2d_37">
     <path d="M 99 325.865938 
L 109 325.865938 
L 119 325.865938 
" style="fill: none; stroke: #008000; stroke-width: 1.5; stroke-linecap: square"/>
    </g>
    <g id="text_20">
     <!-- Erreur d'approximation, t=0.125 -->
     <g transform="translate(127 329.365938) scale(0.1 -0.1)">
      <use xlink:href="#DejaVuSans-45"/>
      <use xlink:href="#DejaVuSans-72" x="63.183594"/>
      <use xlink:href="#DejaVuSans-72" x="102.546875"/>
      <use xlink:href="#DejaVuSans-65" x="141.410156"/>
      <use xlink:href="#DejaVuSans-75" x="202.933594"/>
      <use xlink:href="#DejaVuSans-72" x="266.3125"/>
      <use xlink:href="#DejaVuSans-20" x="307.425781"/>
      <use xlink:href="#DejaVuSans-64" x="339.212891"/>
      <use xlink:href="#DejaVuSans-27" x="402.689453"/>
      <use xlink:href="#DejaVuSans-61" x="430.179688"/>
      <use xlink:href="#DejaVuSans-70" x="491.458984"/>
      <use xlink:href="#DejaVuSans-70" x="554.935547"/>
      <use xlink:href="#DejaVuSans-72" x="618.412109"/>
      <use xlink:href="#DejaVuSans-6f" x="657.275391"/>
      <use xlink:href="#DejaVuSans-78" x="715.332031"/>
      <use xlink:href="#DejaVuSans-69" x="774.511719"/>
      <use xlink:href="#DejaVuSans-6d" x="802.294922"/>
      <use xlink:href="#DejaVuSans-61" x="899.707031"/>
      <use xlink:href="#DejaVuSans-74" x="960.986328"/>
      <use xlink:href="#DejaVuSans-69" x="1000.195312"/>
      <use xlink:href="#DejaVuSans-6f" x="1027.978516"/>
      <use xlink:href="#DejaVuSans-6e" x="1089.160156"/>
      <use xlink:href="#DejaVuSans-2c" x="1152.539062"/>
      <use xlink:href="#DejaVuSans-20" x="1184.326172"/>
      <use xlink:href="#DejaVuSans-74" x="1216.113281"/>
      <use xlink:href="#DejaVuSans-3d" x="1255.322266"/>
      <use xlink:href="#DejaVuSans-30" x="1339.111328"/>
      <use xlink:href="#DejaVuSans-2e" x="1402.734375"/>
      <use xlink:href="#DejaVuSans-31" x="1434.521484"/>
      <use xlink:href="#DejaVuSans-32" x="1498.144531"/>
      <use xlink:href="#DejaVuSans-35" x="1561.767578"/>
     </g>
    </g>
    <g id="line2d_38">
     <path d="M 99 340.544062 
L 109 340.544062 
L 119 340.544062 
" style="fill: none; stroke-dasharray: 5.55,2.4; stroke-dashoffset: 0; stroke: #008000; stroke-width: 1.5"/>
    </g>
    <g id="text_21">
     <!-- Reste de Lagrange, t=0.125 -->
     <g transform="translate(127 344.044062) scale(0.1 -0.1)">
      <use xlink:href="#DejaVuSans-52"/>
      <use xlink:href="#DejaVuSans-65" x="64.982422"/>
      <use xlink:href="#DejaVuSans-73" x="126.505859"/>
      <use xlink:href="#DejaVuSans-74" x="178.605469"/>
      <use xlink:href="#DejaVuSans-65" x="217.814453"/>
      <use xlink:href="#DejaVuSans-20" x="279.337891"/>
      <use xlink:href="#DejaVuSans-64" x="311.125"/>
      <use xlink:href="#DejaVuSans-65" x="374.601562"/>
      <use xlink:href="#DejaVuSans-20" x="436.125"/>
      <use xlink:href="#DejaVuSans-4c" x="467.912109"/>
      <use xlink:href="#DejaVuSans-61" x="523.625"/>
      <use xlink:href="#DejaVuSans-67" x="584.904297"/>
      <use xlink:href="#DejaVuSans-72" x="648.380859"/>
      <use xlink:href="#DejaVuSans-61" x="689.494141"/>
      <use xlink:href="#DejaVuSans-6e" x="750.773438"/>
      <use xlink:href="#DejaVuSans-67" x="814.152344"/>
      <use xlink:href="#DejaVuSans-65" x="877.628906"/>
      <use xlink:href="#DejaVuSans-2c" x="939.152344"/>
      <use xlink:href="#DejaVuSans-20" x="970.939453"/>
      <use xlink:href="#DejaVuSans-74" x="1002.726562"/>
      <use xlink:href="#DejaVuSans-3d" x="1041.935547"/>
      <use xlink:href="#DejaVuSans-30" x="1125.724609"/>
      <use xlink:href="#DejaVuSans-2e" x="1189.347656"/>
      <use xlink:href="#DejaVuSans-31" x="1221.134766"/>
      <use xlink:href="#DejaVuSans-32" x="1284.757812"/>
      <use xlink:href="#DejaVuSans-35" x="1348.380859"/>
     </g>
    </g>
    <g id="line2d_39">
     <path d="M 99 355.222188 
L 109 355.222188 
L 119 355.222188 
" style="fill: none; stroke: #ffa500; stroke-width: 1.5; stroke-linecap: square"/>
    </g>
    <g id="text_22">
     <!-- Erreur d'approximation, t=0.0625 -->
     <g transform="translate(127 358.722188) scale(0.1 -0.1)">
      <use xlink:href="#DejaVuSans-45"/>
      <use xlink:href="#DejaVuSans-72" x="63.183594"/>
      <use xlink:href="#DejaVuSans-72" x="102.546875"/>
      <use xlink:href="#DejaVuSans-65" x="141.410156"/>
      <use xlink:href="#DejaVuSans-75" x="202.933594"/>
      <use xlink:href="#DejaVuSans-72" x="266.3125"/>
      <use xlink:href="#DejaVuSans-20" x="307.425781"/>
      <use xlink:href="#DejaVuSans-64" x="339.212891"/>
      <use xlink:href="#DejaVuSans-27" x="402.689453"/>
      <use xlink:href="#DejaVuSans-61" x="430.179688"/>
      <use xlink:href="#DejaVuSans-70" x="491.458984"/>
      <use xlink:href="#DejaVuSans-70" x="554.935547"/>
      <use xlink:href="#DejaVuSans-72" x="618.412109"/>
      <use xlink:href="#DejaVuSans-6f" x="657.275391"/>
      <use xlink:href="#DejaVuSans-78" x="715.332031"/>
      <use xlink:href="#DejaVuSans-69" x="774.511719"/>
      <use xlink:href="#DejaVuSans-6d" x="802.294922"/>
      <use xlink:href="#DejaVuSans-61" x="899.707031"/>
      <use xlink:href="#DejaVuSans-74" x="960.986328"/>
      <use xlink:href="#DejaVuSans-69" x="1000.195312"/>
      <use xlink:href="#DejaVuSans-6f" x="1027.978516"/>
      <use xlink:href="#DejaVuSans-6e" x="1089.160156"/>
      <use xlink:href="#DejaVuSans-2c" x="1152.539062"/>
      <use xlink:href="#DejaVuSans-20" x="1184.326172"/>
      <use xlink:href="#DejaVuSans-74" x="1216.113281"/>
      <use xlink:href="#DejaVuSans-3d" x="1255.322266"/>
      <use xlink:href="#DejaVuSans-30" x="1339.111328"/>
      <use xlink:href="#DejaVuSans-2e" x="1402.734375"/>
      <use xlink:href="#DejaVuSans-30" x="1434.521484"/>
      <use xlink:href="#DejaVuSans-36" x="1498.144531"/>
      <use xlink:href="#DejaVuSans-32" x="1561.767578"/>
      <use xlink:href="#DejaVuSans-35" x="1625.390625"/>
     </g>
    </g>
    <g id="line2d_40">
     <path d="M 99 369.900313 
L 109 369.900313 
L 119 369.900313 
" style="fill: none; stroke-dasharray: 5.55,2.4; stroke-dashoffset: 0; stroke: #ffa500; stroke-width: 1.5"/>
    </g>
    <g id="text_23">
     <!-- Reste de Lagrange, t=0.0625 -->
     <g transform="translate(127 373.400313) scale(0.1 -0.1)">
      <use xlink:href="#DejaVuSans-52"/>
      <use xlink:href="#DejaVuSans-65" x="64.982422"/>
      <use xlink:href="#DejaVuSans-73" x="126.505859"/>
      <use xlink:href="#DejaVuSans-74" x="178.605469"/>
      <use xlink:href="#DejaVuSans-65" x="217.814453"/>
      <use xlink:href="#DejaVuSans-20" x="279.337891"/>
      <use xlink:href="#DejaVuSans-64" x="311.125"/>
      <use xlink:href="#DejaVuSans-65" x="374.601562"/>
      <use xlink:href="#DejaVuSans-20" x="436.125"/>
      <use xlink:href="#DejaVuSans-4c" x="467.912109"/>
      <use xlink:href="#DejaVuSans-61" x="523.625"/>
      <use xlink:href="#DejaVuSans-67" x="584.904297"/>
      <use xlink:href="#DejaVuSans-72" x="648.380859"/>
      <use xlink:href="#DejaVuSans-61" x="689.494141"/>
      <use xlink:href="#DejaVuSans-6e" x="750.773438"/>
      <use xlink:href="#DejaVuSans-67" x="814.152344"/>
      <use xlink:href="#DejaVuSans-65" x="877.628906"/>
      <use xlink:href="#DejaVuSans-2c" x="939.152344"/>
      <use xlink:href="#DejaVuSans-20" x="970.939453"/>
      <use xlink:href="#DejaVuSans-74" x="1002.726562"/>
      <use xlink:href="#DejaVuSans-3d" x="1041.935547"/>
      <use xlink:href="#DejaVuSans-30" x="1125.724609"/>
      <use xlink:href="#DejaVuSans-2e" x="1189.347656"/>
      <use xlink:href="#DejaVuSans-30" x="1221.134766"/>
      <use xlink:href="#DejaVuSans-36" x="1284.757812"/>
      <use xlink:href="#DejaVuSans-32" x="1348.380859"/>
      <use xlink:href="#DejaVuSans-35" x="1412.003906"/>
     </g>
    </g>
   </g>
  </g>
 </g>
 <defs>
  <clipPath id="pf1b4f842cf">
   <rect x="90" y="51.84" width="558" height="332.64"/>
  </clipPath>
 </defs>
</svg>
