<?xml version="1.0" encoding="utf-8" standalone="no"?>
<!DOCTYPE svg PUBLIC "-//W3C//DTD SVG 1.1//EN"
  "http://www.w3.org/Graphics/SVG/1.1/DTD/svg11.dtd">
<svg xmlns:xlink="http://www.w3.org/1999/xlink" width="720pt" height="432pt" viewBox="0 0 720 432" xmlns="http://www.w3.org/2000/svg" version="1.1">
 <metadata>
  <rdf:RDF xmlns:dc="http://purl.org/dc/elements/1.1/" xmlns:cc="http://creativecommons.org/ns#" xmlns:rdf="http://www.w3.org/1999/02/22-rdf-syntax-ns#">
   <cc:Work>
    <dc:type rdf:resource="http://purl.org/dc/dcmitype/StillImage"/>
    <dc:date>2024-11-02T15:47:04.344355</dc:date>
    <dc:format>image/svg+xml</dc:format>
    <dc:creator>
     <cc:Agent>
      <dc:title>Matplotlib v3.9.2, https://matplotlib.org/</dc:title>
     </cc:Agent>
    </dc:creator>
   </cc:Work>
  </rdf:RDF>
 </metadata>
 <defs>
  <style type="text/css">*{stroke-linejoin: round; stroke-linecap: butt}</style>
 </defs>
 <g id="figure_1">
  <g id="patch_1">
   <path d="M 0 432 
L 720 432 
L 720 0 
L 0 0 
z
" style="fill: #ffffff"/>
  </g>
  <g id="axes_1">
   <g id="patch_2">
    <path d="M 90 384.48 
L 648 384.48 
L 648 51.84 
L 90 51.84 
z
" style="fill: #ffffff"/>
   </g>
   <g id="matplotlib.axis_1">
    <g id="xtick_1">
     <g id="line2d_1">
      <path d="M 115.363636 384.48 
L 115.363636 51.84 
" clip-path="url(#p97a8c47120)" style="fill: none; stroke: #b0b0b0; stroke-width: 0.8; stroke-linecap: square"/>
     </g>
     <g id="line2d_2">
      <defs>
       <path id="md5c88aaacb" d="M 0 0 
L 0 3.5 
" style="stroke: #000000; stroke-width: 0.8"/>
      </defs>
      <g>
       <use xlink:href="#md5c88aaacb" x="115.363636" y="384.48" style="stroke: #000000; stroke-width: 0.8"/>
      </g>
     </g>
     <g id="text_1">
      <!-- −1.00 -->
      <g transform="translate(100.04098 399.078438) scale(0.1 -0.1)">
       <defs>
        <path id="DejaVuSans-2212" d="M 678 2272 
L 4684 2272 
L 4684 1741 
L 678 1741 
L 678 2272 
z
" transform="scale(0.015625)"/>
        <path id="DejaVuSans-31" d="M 794 531 
L 1825 531 
L 1825 4091 
L 703 3866 
L 703 4441 
L 1819 4666 
L 2450 4666 
L 2450 531 
L 3481 531 
L 3481 0 
L 794 0 
L 794 531 
z
" transform="scale(0.015625)"/>
        <path id="DejaVuSans-2e" d="M 684 794 
L 1344 794 
L 1344 0 
L 684 0 
L 684 794 
z
" transform="scale(0.015625)"/>
        <path id="DejaVuSans-30" d="M 2034 4250 
Q 1547 4250 1301 3770 
Q 1056 3291 1056 2328 
Q 1056 1369 1301 889 
Q 1547 409 2034 409 
Q 2525 409 2770 889 
Q 3016 1369 3016 2328 
Q 3016 3291 2770 3770 
Q 2525 4250 2034 4250 
z
M 2034 4750 
Q 2819 4750 3233 4129 
Q 3647 3509 3647 2328 
Q 3647 1150 3233 529 
Q 2819 -91 2034 -91 
Q 1250 -91 836 529 
Q 422 1150 422 2328 
Q 422 3509 836 4129 
Q 1250 4750 2034 4750 
z
" transform="scale(0.015625)"/>
       </defs>
       <use xlink:href="#DejaVuSans-2212"/>
       <use xlink:href="#DejaVuSans-31" x="83.789062"/>
       <use xlink:href="#DejaVuSans-2e" x="147.412109"/>
       <use xlink:href="#DejaVuSans-30" x="179.199219"/>
       <use xlink:href="#DejaVuSans-30" x="242.822266"/>
      </g>
     </g>
    </g>
    <g id="xtick_2">
     <g id="line2d_3">
      <path d="M 178.772727 384.48 
L 178.772727 51.84 
" clip-path="url(#p97a8c47120)" style="fill: none; stroke: #b0b0b0; stroke-width: 0.8; stroke-linecap: square"/>
     </g>
     <g id="line2d_4">
      <g>
       <use xlink:href="#md5c88aaacb" x="178.772727" y="384.48" style="stroke: #000000; stroke-width: 0.8"/>
      </g>
     </g>
     <g id="text_2">
      <!-- −0.75 -->
      <g transform="translate(163.450071 399.078438) scale(0.1 -0.1)">
       <defs>
        <path id="DejaVuSans-37" d="M 525 4666 
L 3525 4666 
L 3525 4397 
L 1831 0 
L 1172 0 
L 2766 4134 
L 525 4134 
L 525 4666 
z
" transform="scale(0.015625)"/>
        <path id="DejaVuSans-35" d="M 691 4666 
L 3169 4666 
L 3169 4134 
L 1269 4134 
L 1269 2991 
Q 1406 3038 1543 3061 
Q 1681 3084 1819 3084 
Q 2600 3084 3056 2656 
Q 3513 2228 3513 1497 
Q 3513 744 3044 326 
Q 2575 -91 1722 -91 
Q 1428 -91 1123 -41 
Q 819 9 494 109 
L 494 744 
Q 775 591 1075 516 
Q 1375 441 1709 441 
Q 2250 441 2565 725 
Q 2881 1009 2881 1497 
Q 2881 1984 2565 2268 
Q 2250 2553 1709 2553 
Q 1456 2553 1204 2497 
Q 953 2441 691 2322 
L 691 4666 
z
" transform="scale(0.015625)"/>
       </defs>
       <use xlink:href="#DejaVuSans-2212"/>
       <use xlink:href="#DejaVuSans-30" x="83.789062"/>
       <use xlink:href="#DejaVuSans-2e" x="147.412109"/>
       <use xlink:href="#DejaVuSans-37" x="179.199219"/>
       <use xlink:href="#DejaVuSans-35" x="242.822266"/>
      </g>
     </g>
    </g>
    <g id="xtick_3">
     <g id="line2d_5">
      <path d="M 242.181818 384.48 
L 242.181818 51.84 
" clip-path="url(#p97a8c47120)" style="fill: none; stroke: #b0b0b0; stroke-width: 0.8; stroke-linecap: square"/>
     </g>
     <g id="line2d_6">
      <g>
       <use xlink:href="#md5c88aaacb" x="242.181818" y="384.48" style="stroke: #000000; stroke-width: 0.8"/>
      </g>
     </g>
     <g id="text_3">
      <!-- −0.50 -->
      <g transform="translate(226.859162 399.078438) scale(0.1 -0.1)">
       <use xlink:href="#DejaVuSans-2212"/>
       <use xlink:href="#DejaVuSans-30" x="83.789062"/>
       <use xlink:href="#DejaVuSans-2e" x="147.412109"/>
       <use xlink:href="#DejaVuSans-35" x="179.199219"/>
       <use xlink:href="#DejaVuSans-30" x="242.822266"/>
      </g>
     </g>
    </g>
    <g id="xtick_4">
     <g id="line2d_7">
      <path d="M 305.590909 384.48 
L 305.590909 51.84 
" clip-path="url(#p97a8c47120)" style="fill: none; stroke: #b0b0b0; stroke-width: 0.8; stroke-linecap: square"/>
     </g>
     <g id="line2d_8">
      <g>
       <use xlink:href="#md5c88aaacb" x="305.590909" y="384.48" style="stroke: #000000; stroke-width: 0.8"/>
      </g>
     </g>
     <g id="text_4">
      <!-- −0.25 -->
      <g transform="translate(290.268253 399.078438) scale(0.1 -0.1)">
       <defs>
        <path id="DejaVuSans-32" d="M 1228 531 
L 3431 531 
L 3431 0 
L 469 0 
L 469 531 
Q 828 903 1448 1529 
Q 2069 2156 2228 2338 
Q 2531 2678 2651 2914 
Q 2772 3150 2772 3378 
Q 2772 3750 2511 3984 
Q 2250 4219 1831 4219 
Q 1534 4219 1204 4116 
Q 875 4013 500 3803 
L 500 4441 
Q 881 4594 1212 4672 
Q 1544 4750 1819 4750 
Q 2544 4750 2975 4387 
Q 3406 4025 3406 3419 
Q 3406 3131 3298 2873 
Q 3191 2616 2906 2266 
Q 2828 2175 2409 1742 
Q 1991 1309 1228 531 
z
" transform="scale(0.015625)"/>
       </defs>
       <use xlink:href="#DejaVuSans-2212"/>
       <use xlink:href="#DejaVuSans-30" x="83.789062"/>
       <use xlink:href="#DejaVuSans-2e" x="147.412109"/>
       <use xlink:href="#DejaVuSans-32" x="179.199219"/>
       <use xlink:href="#DejaVuSans-35" x="242.822266"/>
      </g>
     </g>
    </g>
    <g id="xtick_5">
     <g id="line2d_9">
      <path d="M 369 384.48 
L 369 51.84 
" clip-path="url(#p97a8c47120)" style="fill: none; stroke: #b0b0b0; stroke-width: 0.8; stroke-linecap: square"/>
     </g>
     <g id="line2d_10">
      <g>
       <use xlink:href="#md5c88aaacb" x="369" y="384.48" style="stroke: #000000; stroke-width: 0.8"/>
      </g>
     </g>
     <g id="text_5">
      <!-- 0.00 -->
      <g transform="translate(357.867188 399.078438) scale(0.1 -0.1)">
       <use xlink:href="#DejaVuSans-30"/>
       <use xlink:href="#DejaVuSans-2e" x="63.623047"/>
       <use xlink:href="#DejaVuSans-30" x="95.410156"/>
       <use xlink:href="#DejaVuSans-30" x="159.033203"/>
      </g>
     </g>
    </g>
    <g id="xtick_6">
     <g id="line2d_11">
      <path d="M 432.409091 384.48 
L 432.409091 51.84 
" clip-path="url(#p97a8c47120)" style="fill: none; stroke: #b0b0b0; stroke-width: 0.8; stroke-linecap: square"/>
     </g>
     <g id="line2d_12">
      <g>
       <use xlink:href="#md5c88aaacb" x="432.409091" y="384.48" style="stroke: #000000; stroke-width: 0.8"/>
      </g>
     </g>
     <g id="text_6">
      <!-- 0.25 -->
      <g transform="translate(421.276278 399.078438) scale(0.1 -0.1)">
       <use xlink:href="#DejaVuSans-30"/>
       <use xlink:href="#DejaVuSans-2e" x="63.623047"/>
       <use xlink:href="#DejaVuSans-32" x="95.410156"/>
       <use xlink:href="#DejaVuSans-35" x="159.033203"/>
      </g>
     </g>
    </g>
    <g id="xtick_7">
     <g id="line2d_13">
      <path d="M 495.818182 384.48 
L 495.818182 51.84 
" clip-path="url(#p97a8c47120)" style="fill: none; stroke: #b0b0b0; stroke-width: 0.8; stroke-linecap: square"/>
     </g>
     <g id="line2d_14">
      <g>
       <use xlink:href="#md5c88aaacb" x="495.818182" y="384.48" style="stroke: #000000; stroke-width: 0.8"/>
      </g>
     </g>
     <g id="text_7">
      <!-- 0.50 -->
      <g transform="translate(484.685369 399.078438) scale(0.1 -0.1)">
       <use xlink:href="#DejaVuSans-30"/>
       <use xlink:href="#DejaVuSans-2e" x="63.623047"/>
       <use xlink:href="#DejaVuSans-35" x="95.410156"/>
       <use xlink:href="#DejaVuSans-30" x="159.033203"/>
      </g>
     </g>
    </g>
    <g id="xtick_8">
     <g id="line2d_15">
      <path d="M 559.227273 384.48 
L 559.227273 51.84 
" clip-path="url(#p97a8c47120)" style="fill: none; stroke: #b0b0b0; stroke-width: 0.8; stroke-linecap: square"/>
     </g>
     <g id="line2d_16">
      <g>
       <use xlink:href="#md5c88aaacb" x="559.227273" y="384.48" style="stroke: #000000; stroke-width: 0.8"/>
      </g>
     </g>
     <g id="text_8">
      <!-- 0.75 -->
      <g transform="translate(548.09446 399.078438) scale(0.1 -0.1)">
       <use xlink:href="#DejaVuSans-30"/>
       <use xlink:href="#DejaVuSans-2e" x="63.623047"/>
       <use xlink:href="#DejaVuSans-37" x="95.410156"/>
       <use xlink:href="#DejaVuSans-35" x="159.033203"/>
      </g>
     </g>
    </g>
    <g id="xtick_9">
     <g id="line2d_17">
      <path d="M 622.636364 384.48 
L 622.636364 51.84 
" clip-path="url(#p97a8c47120)" style="fill: none; stroke: #b0b0b0; stroke-width: 0.8; stroke-linecap: square"/>
     </g>
     <g id="line2d_18">
      <g>
       <use xlink:href="#md5c88aaacb" x="622.636364" y="384.48" style="stroke: #000000; stroke-width: 0.8"/>
      </g>
     </g>
     <g id="text_9">
      <!-- 1.00 -->
      <g transform="translate(611.503551 399.078438) scale(0.1 -0.1)">
       <use xlink:href="#DejaVuSans-31"/>
       <use xlink:href="#DejaVuSans-2e" x="63.623047"/>
       <use xlink:href="#DejaVuSans-30" x="95.410156"/>
       <use xlink:href="#DejaVuSans-30" x="159.033203"/>
      </g>
     </g>
    </g>
    <g id="text_10">
     <!-- x -->
     <g transform="translate(366.040625 412.756563) scale(0.1 -0.1)">
      <defs>
       <path id="DejaVuSans-78" d="M 3513 3500 
L 2247 1797 
L 3578 0 
L 2900 0 
L 1881 1375 
L 863 0 
L 184 0 
L 1544 1831 
L 300 3500 
L 978 3500 
L 1906 2253 
L 2834 3500 
L 3513 3500 
z
" transform="scale(0.015625)"/>
      </defs>
      <use xlink:href="#DejaVuSans-78"/>
     </g>
    </g>
   </g>
   <g id="matplotlib.axis_2">
    <g id="ytick_1">
     <g id="line2d_19">
      <path d="M 90 358.947585 
L 648 358.947585 
" clip-path="url(#p97a8c47120)" style="fill: none; stroke: #b0b0b0; stroke-width: 0.8; stroke-linecap: square"/>
     </g>
     <g id="line2d_20">
      <defs>
       <path id="md05b7b209a" d="M 0 0 
L -3.5 0 
" style="stroke: #000000; stroke-width: 0.8"/>
      </defs>
      <g>
       <use xlink:href="#md05b7b209a" x="90" y="358.947585" style="stroke: #000000; stroke-width: 0.8"/>
      </g>
     </g>
     <g id="text_11">
      <!-- $\mathdefault{10^{-6}}$ -->
      <g transform="translate(59.5 362.746804) scale(0.1 -0.1)">
       <defs>
        <path id="DejaVuSans-36" d="M 2113 2584 
Q 1688 2584 1439 2293 
Q 1191 2003 1191 1497 
Q 1191 994 1439 701 
Q 1688 409 2113 409 
Q 2538 409 2786 701 
Q 3034 994 3034 1497 
Q 3034 2003 2786 2293 
Q 2538 2584 2113 2584 
z
M 3366 4563 
L 3366 3988 
Q 3128 4100 2886 4159 
Q 2644 4219 2406 4219 
Q 1781 4219 1451 3797 
Q 1122 3375 1075 2522 
Q 1259 2794 1537 2939 
Q 1816 3084 2150 3084 
Q 2853 3084 3261 2657 
Q 3669 2231 3669 1497 
Q 3669 778 3244 343 
Q 2819 -91 2113 -91 
Q 1303 -91 875 529 
Q 447 1150 447 2328 
Q 447 3434 972 4092 
Q 1497 4750 2381 4750 
Q 2619 4750 2861 4703 
Q 3103 4656 3366 4563 
z
" transform="scale(0.015625)"/>
       </defs>
       <use xlink:href="#DejaVuSans-31" transform="translate(0 0.765625)"/>
       <use xlink:href="#DejaVuSans-30" transform="translate(63.623047 0.765625)"/>
       <use xlink:href="#DejaVuSans-2212" transform="translate(128.203125 39.046875) scale(0.7)"/>
       <use xlink:href="#DejaVuSans-36" transform="translate(186.855469 39.046875) scale(0.7)"/>
      </g>
     </g>
    </g>
    <g id="ytick_2">
     <g id="line2d_21">
      <path d="M 90 303.01286 
L 648 303.01286 
" clip-path="url(#p97a8c47120)" style="fill: none; stroke: #b0b0b0; stroke-width: 0.8; stroke-linecap: square"/>
     </g>
     <g id="line2d_22">
      <g>
       <use xlink:href="#md05b7b209a" x="90" y="303.01286" style="stroke: #000000; stroke-width: 0.8"/>
      </g>
     </g>
     <g id="text_12">
      <!-- $\mathdefault{10^{-5}}$ -->
      <g transform="translate(59.5 306.812079) scale(0.1 -0.1)">
       <use xlink:href="#DejaVuSans-31" transform="translate(0 0.684375)"/>
       <use xlink:href="#DejaVuSans-30" transform="translate(63.623047 0.684375)"/>
       <use xlink:href="#DejaVuSans-2212" transform="translate(128.203125 38.965625) scale(0.7)"/>
       <use xlink:href="#DejaVuSans-35" transform="translate(186.855469 38.965625) scale(0.7)"/>
      </g>
     </g>
    </g>
    <g id="ytick_3">
     <g id="line2d_23">
      <path d="M 90 247.078135 
L 648 247.078135 
" clip-path="url(#p97a8c47120)" style="fill: none; stroke: #b0b0b0; stroke-width: 0.8; stroke-linecap: square"/>
     </g>
     <g id="line2d_24">
      <g>
       <use xlink:href="#md05b7b209a" x="90" y="247.078135" style="stroke: #000000; stroke-width: 0.8"/>
      </g>
     </g>
     <g id="text_13">
      <!-- $\mathdefault{10^{-4}}$ -->
      <g transform="translate(59.5 250.877354) scale(0.1 -0.1)">
       <defs>
        <path id="DejaVuSans-34" d="M 2419 4116 
L 825 1625 
L 2419 1625 
L 2419 4116 
z
M 2253 4666 
L 3047 4666 
L 3047 1625 
L 3713 1625 
L 3713 1100 
L 3047 1100 
L 3047 0 
L 2419 0 
L 2419 1100 
L 313 1100 
L 313 1709 
L 2253 4666 
z
" transform="scale(0.015625)"/>
       </defs>
       <use xlink:href="#DejaVuSans-31" transform="translate(0 0.684375)"/>
       <use xlink:href="#DejaVuSans-30" transform="translate(63.623047 0.684375)"/>
       <use xlink:href="#DejaVuSans-2212" transform="translate(128.203125 38.965625) scale(0.7)"/>
       <use xlink:href="#DejaVuSans-34" transform="translate(186.855469 38.965625) scale(0.7)"/>
      </g>
     </g>
    </g>
    <g id="ytick_4">
     <g id="line2d_25">
      <path d="M 90 191.14341 
L 648 191.14341 
" clip-path="url(#p97a8c47120)" style="fill: none; stroke: #b0b0b0; stroke-width: 0.8; stroke-linecap: square"/>
     </g>
     <g id="line2d_26">
      <g>
       <use xlink:href="#md05b7b209a" x="90" y="191.14341" style="stroke: #000000; stroke-width: 0.8"/>
      </g>
     </g>
     <g id="text_14">
      <!-- $\mathdefault{10^{-3}}$ -->
      <g transform="translate(59.5 194.942629) scale(0.1 -0.1)">
       <defs>
        <path id="DejaVuSans-33" d="M 2597 2516 
Q 3050 2419 3304 2112 
Q 3559 1806 3559 1356 
Q 3559 666 3084 287 
Q 2609 -91 1734 -91 
Q 1441 -91 1130 -33 
Q 819 25 488 141 
L 488 750 
Q 750 597 1062 519 
Q 1375 441 1716 441 
Q 2309 441 2620 675 
Q 2931 909 2931 1356 
Q 2931 1769 2642 2001 
Q 2353 2234 1838 2234 
L 1294 2234 
L 1294 2753 
L 1863 2753 
Q 2328 2753 2575 2939 
Q 2822 3125 2822 3475 
Q 2822 3834 2567 4026 
Q 2313 4219 1838 4219 
Q 1578 4219 1281 4162 
Q 984 4106 628 3988 
L 628 4550 
Q 988 4650 1302 4700 
Q 1616 4750 1894 4750 
Q 2613 4750 3031 4423 
Q 3450 4097 3450 3541 
Q 3450 3153 3228 2886 
Q 3006 2619 2597 2516 
z
" transform="scale(0.015625)"/>
       </defs>
       <use xlink:href="#DejaVuSans-31" transform="translate(0 0.765625)"/>
       <use xlink:href="#DejaVuSans-30" transform="translate(63.623047 0.765625)"/>
       <use xlink:href="#DejaVuSans-2212" transform="translate(128.203125 39.046875) scale(0.7)"/>
       <use xlink:href="#DejaVuSans-33" transform="translate(186.855469 39.046875) scale(0.7)"/>
      </g>
     </g>
    </g>
    <g id="ytick_5">
     <g id="line2d_27">
      <path d="M 90 135.208685 
L 648 135.208685 
" clip-path="url(#p97a8c47120)" style="fill: none; stroke: #b0b0b0; stroke-width: 0.8; stroke-linecap: square"/>
     </g>
     <g id="line2d_28">
      <g>
       <use xlink:href="#md05b7b209a" x="90" y="135.208685" style="stroke: #000000; stroke-width: 0.8"/>
      </g>
     </g>
     <g id="text_15">
      <!-- $\mathdefault{10^{-2}}$ -->
      <g transform="translate(59.5 139.007903) scale(0.1 -0.1)">
       <use xlink:href="#DejaVuSans-31" transform="translate(0 0.765625)"/>
       <use xlink:href="#DejaVuSans-30" transform="translate(63.623047 0.765625)"/>
       <use xlink:href="#DejaVuSans-2212" transform="translate(128.203125 39.046875) scale(0.7)"/>
       <use xlink:href="#DejaVuSans-32" transform="translate(186.855469 39.046875) scale(0.7)"/>
      </g>
     </g>
    </g>
    <g id="ytick_6">
     <g id="line2d_29">
      <path d="M 90 79.27396 
L 648 79.27396 
" clip-path="url(#p97a8c47120)" style="fill: none; stroke: #b0b0b0; stroke-width: 0.8; stroke-linecap: square"/>
     </g>
     <g id="line2d_30">
      <g>
       <use xlink:href="#md05b7b209a" x="90" y="79.27396" style="stroke: #000000; stroke-width: 0.8"/>
      </g>
     </g>
     <g id="text_16">
      <!-- $\mathdefault{10^{-1}}$ -->
      <g transform="translate(59.5 83.073178) scale(0.1 -0.1)">
       <use xlink:href="#DejaVuSans-31" transform="translate(0 0.684375)"/>
       <use xlink:href="#DejaVuSans-30" transform="translate(63.623047 0.684375)"/>
       <use xlink:href="#DejaVuSans-2212" transform="translate(128.203125 38.965625) scale(0.7)"/>
       <use xlink:href="#DejaVuSans-31" transform="translate(186.855469 38.965625) scale(0.7)"/>
      </g>
     </g>
    </g>
    <g id="ytick_7">
     <g id="line2d_31">
      <defs>
       <path id="m3b9d334241" d="M 0 0 
L -2 0 
" style="stroke: #000000; stroke-width: 0.6"/>
      </defs>
      <g>
       <use xlink:href="#m3b9d334241" x="90" y="381.20625" style="stroke: #000000; stroke-width: 0.6"/>
      </g>
     </g>
    </g>
    <g id="ytick_8">
     <g id="line2d_32">
      <g>
       <use xlink:href="#m3b9d334241" x="90" y="375.785615" style="stroke: #000000; stroke-width: 0.6"/>
      </g>
     </g>
    </g>
    <g id="ytick_9">
     <g id="line2d_33">
      <g>
       <use xlink:href="#m3b9d334241" x="90" y="371.356634" style="stroke: #000000; stroke-width: 0.6"/>
      </g>
     </g>
    </g>
    <g id="ytick_10">
     <g id="line2d_34">
      <g>
       <use xlink:href="#m3b9d334241" x="90" y="367.611984" style="stroke: #000000; stroke-width: 0.6"/>
      </g>
     </g>
    </g>
    <g id="ytick_11">
     <g id="line2d_35">
      <g>
       <use xlink:href="#m3b9d334241" x="90" y="364.36822" style="stroke: #000000; stroke-width: 0.6"/>
      </g>
     </g>
    </g>
    <g id="ytick_12">
     <g id="line2d_36">
      <g>
       <use xlink:href="#m3b9d334241" x="90" y="361.507018" style="stroke: #000000; stroke-width: 0.6"/>
      </g>
     </g>
    </g>
    <g id="ytick_13">
     <g id="line2d_37">
      <g>
       <use xlink:href="#m3b9d334241" x="90" y="342.109555" style="stroke: #000000; stroke-width: 0.6"/>
      </g>
     </g>
    </g>
    <g id="ytick_14">
     <g id="line2d_38">
      <g>
       <use xlink:href="#m3b9d334241" x="90" y="332.259939" style="stroke: #000000; stroke-width: 0.6"/>
      </g>
     </g>
    </g>
    <g id="ytick_15">
     <g id="line2d_39">
      <g>
       <use xlink:href="#m3b9d334241" x="90" y="325.271525" style="stroke: #000000; stroke-width: 0.6"/>
      </g>
     </g>
    </g>
    <g id="ytick_16">
     <g id="line2d_40">
      <g>
       <use xlink:href="#m3b9d334241" x="90" y="319.85089" style="stroke: #000000; stroke-width: 0.6"/>
      </g>
     </g>
    </g>
    <g id="ytick_17">
     <g id="line2d_41">
      <g>
       <use xlink:href="#m3b9d334241" x="90" y="315.421909" style="stroke: #000000; stroke-width: 0.6"/>
      </g>
     </g>
    </g>
    <g id="ytick_18">
     <g id="line2d_42">
      <g>
       <use xlink:href="#m3b9d334241" x="90" y="311.677259" style="stroke: #000000; stroke-width: 0.6"/>
      </g>
     </g>
    </g>
    <g id="ytick_19">
     <g id="line2d_43">
      <g>
       <use xlink:href="#m3b9d334241" x="90" y="308.433495" style="stroke: #000000; stroke-width: 0.6"/>
      </g>
     </g>
    </g>
    <g id="ytick_20">
     <g id="line2d_44">
      <g>
       <use xlink:href="#m3b9d334241" x="90" y="305.572293" style="stroke: #000000; stroke-width: 0.6"/>
      </g>
     </g>
    </g>
    <g id="ytick_21">
     <g id="line2d_45">
      <g>
       <use xlink:href="#m3b9d334241" x="90" y="286.17483" style="stroke: #000000; stroke-width: 0.6"/>
      </g>
     </g>
    </g>
    <g id="ytick_22">
     <g id="line2d_46">
      <g>
       <use xlink:href="#m3b9d334241" x="90" y="276.325214" style="stroke: #000000; stroke-width: 0.6"/>
      </g>
     </g>
    </g>
    <g id="ytick_23">
     <g id="line2d_47">
      <g>
       <use xlink:href="#m3b9d334241" x="90" y="269.3368" style="stroke: #000000; stroke-width: 0.6"/>
      </g>
     </g>
    </g>
    <g id="ytick_24">
     <g id="line2d_48">
      <g>
       <use xlink:href="#m3b9d334241" x="90" y="263.916165" style="stroke: #000000; stroke-width: 0.6"/>
      </g>
     </g>
    </g>
    <g id="ytick_25">
     <g id="line2d_49">
      <g>
       <use xlink:href="#m3b9d334241" x="90" y="259.487184" style="stroke: #000000; stroke-width: 0.6"/>
      </g>
     </g>
    </g>
    <g id="ytick_26">
     <g id="line2d_50">
      <g>
       <use xlink:href="#m3b9d334241" x="90" y="255.742533" style="stroke: #000000; stroke-width: 0.6"/>
      </g>
     </g>
    </g>
    <g id="ytick_27">
     <g id="line2d_51">
      <g>
       <use xlink:href="#m3b9d334241" x="90" y="252.49877" style="stroke: #000000; stroke-width: 0.6"/>
      </g>
     </g>
    </g>
    <g id="ytick_28">
     <g id="line2d_52">
      <g>
       <use xlink:href="#m3b9d334241" x="90" y="249.637568" style="stroke: #000000; stroke-width: 0.6"/>
      </g>
     </g>
    </g>
    <g id="ytick_29">
     <g id="line2d_53">
      <g>
       <use xlink:href="#m3b9d334241" x="90" y="230.240105" style="stroke: #000000; stroke-width: 0.6"/>
      </g>
     </g>
    </g>
    <g id="ytick_30">
     <g id="line2d_54">
      <g>
       <use xlink:href="#m3b9d334241" x="90" y="220.390489" style="stroke: #000000; stroke-width: 0.6"/>
      </g>
     </g>
    </g>
    <g id="ytick_31">
     <g id="line2d_55">
      <g>
       <use xlink:href="#m3b9d334241" x="90" y="213.402075" style="stroke: #000000; stroke-width: 0.6"/>
      </g>
     </g>
    </g>
    <g id="ytick_32">
     <g id="line2d_56">
      <g>
       <use xlink:href="#m3b9d334241" x="90" y="207.98144" style="stroke: #000000; stroke-width: 0.6"/>
      </g>
     </g>
    </g>
    <g id="ytick_33">
     <g id="line2d_57">
      <g>
       <use xlink:href="#m3b9d334241" x="90" y="203.552459" style="stroke: #000000; stroke-width: 0.6"/>
      </g>
     </g>
    </g>
    <g id="ytick_34">
     <g id="line2d_58">
      <g>
       <use xlink:href="#m3b9d334241" x="90" y="199.807808" style="stroke: #000000; stroke-width: 0.6"/>
      </g>
     </g>
    </g>
    <g id="ytick_35">
     <g id="line2d_59">
      <g>
       <use xlink:href="#m3b9d334241" x="90" y="196.564045" style="stroke: #000000; stroke-width: 0.6"/>
      </g>
     </g>
    </g>
    <g id="ytick_36">
     <g id="line2d_60">
      <g>
       <use xlink:href="#m3b9d334241" x="90" y="193.702842" style="stroke: #000000; stroke-width: 0.6"/>
      </g>
     </g>
    </g>
    <g id="ytick_37">
     <g id="line2d_61">
      <g>
       <use xlink:href="#m3b9d334241" x="90" y="174.30538" style="stroke: #000000; stroke-width: 0.6"/>
      </g>
     </g>
    </g>
    <g id="ytick_38">
     <g id="line2d_62">
      <g>
       <use xlink:href="#m3b9d334241" x="90" y="164.455764" style="stroke: #000000; stroke-width: 0.6"/>
      </g>
     </g>
    </g>
    <g id="ytick_39">
     <g id="line2d_63">
      <g>
       <use xlink:href="#m3b9d334241" x="90" y="157.46735" style="stroke: #000000; stroke-width: 0.6"/>
      </g>
     </g>
    </g>
    <g id="ytick_40">
     <g id="line2d_64">
      <g>
       <use xlink:href="#m3b9d334241" x="90" y="152.046715" style="stroke: #000000; stroke-width: 0.6"/>
      </g>
     </g>
    </g>
    <g id="ytick_41">
     <g id="line2d_65">
      <g>
       <use xlink:href="#m3b9d334241" x="90" y="147.617734" style="stroke: #000000; stroke-width: 0.6"/>
      </g>
     </g>
    </g>
    <g id="ytick_42">
     <g id="line2d_66">
      <g>
       <use xlink:href="#m3b9d334241" x="90" y="143.873083" style="stroke: #000000; stroke-width: 0.6"/>
      </g>
     </g>
    </g>
    <g id="ytick_43">
     <g id="line2d_67">
      <g>
       <use xlink:href="#m3b9d334241" x="90" y="140.62932" style="stroke: #000000; stroke-width: 0.6"/>
      </g>
     </g>
    </g>
    <g id="ytick_44">
     <g id="line2d_68">
      <g>
       <use xlink:href="#m3b9d334241" x="90" y="137.768117" style="stroke: #000000; stroke-width: 0.6"/>
      </g>
     </g>
    </g>
    <g id="ytick_45">
     <g id="line2d_69">
      <g>
       <use xlink:href="#m3b9d334241" x="90" y="118.370655" style="stroke: #000000; stroke-width: 0.6"/>
      </g>
     </g>
    </g>
    <g id="ytick_46">
     <g id="line2d_70">
      <g>
       <use xlink:href="#m3b9d334241" x="90" y="108.521039" style="stroke: #000000; stroke-width: 0.6"/>
      </g>
     </g>
    </g>
    <g id="ytick_47">
     <g id="line2d_71">
      <g>
       <use xlink:href="#m3b9d334241" x="90" y="101.532625" style="stroke: #000000; stroke-width: 0.6"/>
      </g>
     </g>
    </g>
    <g id="ytick_48">
     <g id="line2d_72">
      <g>
       <use xlink:href="#m3b9d334241" x="90" y="96.11199" style="stroke: #000000; stroke-width: 0.6"/>
      </g>
     </g>
    </g>
    <g id="ytick_49">
     <g id="line2d_73">
      <g>
       <use xlink:href="#m3b9d334241" x="90" y="91.683008" style="stroke: #000000; stroke-width: 0.6"/>
      </g>
     </g>
    </g>
    <g id="ytick_50">
     <g id="line2d_74">
      <g>
       <use xlink:href="#m3b9d334241" x="90" y="87.938358" style="stroke: #000000; stroke-width: 0.6"/>
      </g>
     </g>
    </g>
    <g id="ytick_51">
     <g id="line2d_75">
      <g>
       <use xlink:href="#m3b9d334241" x="90" y="84.694595" style="stroke: #000000; stroke-width: 0.6"/>
      </g>
     </g>
    </g>
    <g id="ytick_52">
     <g id="line2d_76">
      <g>
       <use xlink:href="#m3b9d334241" x="90" y="81.833392" style="stroke: #000000; stroke-width: 0.6"/>
      </g>
     </g>
    </g>
    <g id="ytick_53">
     <g id="line2d_77">
      <g>
       <use xlink:href="#m3b9d334241" x="90" y="62.43593" style="stroke: #000000; stroke-width: 0.6"/>
      </g>
     </g>
    </g>
    <g id="ytick_54">
     <g id="line2d_78">
      <g>
       <use xlink:href="#m3b9d334241" x="90" y="52.586313" style="stroke: #000000; stroke-width: 0.6"/>
      </g>
     </g>
    </g>
    <g id="text_17">
     <!-- |f(x) - p(x)| (échelle logarithmique) -->
     <g transform="translate(53.142187 305.111562) rotate(-90) scale(0.1 -0.1)">
      <defs>
       <path id="DejaVuSans-7c" d="M 1344 4891 
L 1344 -1509 
L 813 -1509 
L 813 4891 
L 1344 4891 
z
" transform="scale(0.015625)"/>
       <path id="DejaVuSans-66" d="M 2375 4863 
L 2375 4384 
L 1825 4384 
Q 1516 4384 1395 4259 
Q 1275 4134 1275 3809 
L 1275 3500 
L 2222 3500 
L 2222 3053 
L 1275 3053 
L 1275 0 
L 697 0 
L 697 3053 
L 147 3053 
L 147 3500 
L 697 3500 
L 697 3744 
Q 697 4328 969 4595 
Q 1241 4863 1831 4863 
L 2375 4863 
z
" transform="scale(0.015625)"/>
       <path id="DejaVuSans-28" d="M 1984 4856 
Q 1566 4138 1362 3434 
Q 1159 2731 1159 2009 
Q 1159 1288 1364 580 
Q 1569 -128 1984 -844 
L 1484 -844 
Q 1016 -109 783 600 
Q 550 1309 550 2009 
Q 550 2706 781 3412 
Q 1013 4119 1484 4856 
L 1984 4856 
z
" transform="scale(0.015625)"/>
       <path id="DejaVuSans-29" d="M 513 4856 
L 1013 4856 
Q 1481 4119 1714 3412 
Q 1947 2706 1947 2009 
Q 1947 1309 1714 600 
Q 1481 -109 1013 -844 
L 513 -844 
Q 928 -128 1133 580 
Q 1338 1288 1338 2009 
Q 1338 2731 1133 3434 
Q 928 4138 513 4856 
z
" transform="scale(0.015625)"/>
       <path id="DejaVuSans-20" transform="scale(0.015625)"/>
       <path id="DejaVuSans-2d" d="M 313 2009 
L 1997 2009 
L 1997 1497 
L 313 1497 
L 313 2009 
z
" transform="scale(0.015625)"/>
       <path id="DejaVuSans-70" d="M 1159 525 
L 1159 -1331 
L 581 -1331 
L 581 3500 
L 1159 3500 
L 1159 2969 
Q 1341 3281 1617 3432 
Q 1894 3584 2278 3584 
Q 2916 3584 3314 3078 
Q 3713 2572 3713 1747 
Q 3713 922 3314 415 
Q 2916 -91 2278 -91 
Q 1894 -91 1617 61 
Q 1341 213 1159 525 
z
M 3116 1747 
Q 3116 2381 2855 2742 
Q 2594 3103 2138 3103 
Q 1681 3103 1420 2742 
Q 1159 2381 1159 1747 
Q 1159 1113 1420 752 
Q 1681 391 2138 391 
Q 2594 391 2855 752 
Q 3116 1113 3116 1747 
z
" transform="scale(0.015625)"/>
       <path id="DejaVuSans-e9" d="M 3597 1894 
L 3597 1613 
L 953 1613 
Q 991 1019 1311 708 
Q 1631 397 2203 397 
Q 2534 397 2845 478 
Q 3156 559 3463 722 
L 3463 178 
Q 3153 47 2828 -22 
Q 2503 -91 2169 -91 
Q 1331 -91 842 396 
Q 353 884 353 1716 
Q 353 2575 817 3079 
Q 1281 3584 2069 3584 
Q 2775 3584 3186 3129 
Q 3597 2675 3597 1894 
z
M 3022 2063 
Q 3016 2534 2758 2815 
Q 2500 3097 2075 3097 
Q 1594 3097 1305 2825 
Q 1016 2553 972 2059 
L 3022 2063 
z
M 2466 5119 
L 3088 5119 
L 2070 3944 
L 1591 3944 
L 2466 5119 
z
" transform="scale(0.015625)"/>
       <path id="DejaVuSans-63" d="M 3122 3366 
L 3122 2828 
Q 2878 2963 2633 3030 
Q 2388 3097 2138 3097 
Q 1578 3097 1268 2742 
Q 959 2388 959 1747 
Q 959 1106 1268 751 
Q 1578 397 2138 397 
Q 2388 397 2633 464 
Q 2878 531 3122 666 
L 3122 134 
Q 2881 22 2623 -34 
Q 2366 -91 2075 -91 
Q 1284 -91 818 406 
Q 353 903 353 1747 
Q 353 2603 823 3093 
Q 1294 3584 2113 3584 
Q 2378 3584 2631 3529 
Q 2884 3475 3122 3366 
z
" transform="scale(0.015625)"/>
       <path id="DejaVuSans-68" d="M 3513 2113 
L 3513 0 
L 2938 0 
L 2938 2094 
Q 2938 2591 2744 2837 
Q 2550 3084 2163 3084 
Q 1697 3084 1428 2787 
Q 1159 2491 1159 1978 
L 1159 0 
L 581 0 
L 581 4863 
L 1159 4863 
L 1159 2956 
Q 1366 3272 1645 3428 
Q 1925 3584 2291 3584 
Q 2894 3584 3203 3211 
Q 3513 2838 3513 2113 
z
" transform="scale(0.015625)"/>
       <path id="DejaVuSans-65" d="M 3597 1894 
L 3597 1613 
L 953 1613 
Q 991 1019 1311 708 
Q 1631 397 2203 397 
Q 2534 397 2845 478 
Q 3156 559 3463 722 
L 3463 178 
Q 3153 47 2828 -22 
Q 2503 -91 2169 -91 
Q 1331 -91 842 396 
Q 353 884 353 1716 
Q 353 2575 817 3079 
Q 1281 3584 2069 3584 
Q 2775 3584 3186 3129 
Q 3597 2675 3597 1894 
z
M 3022 2063 
Q 3016 2534 2758 2815 
Q 2500 3097 2075 3097 
Q 1594 3097 1305 2825 
Q 1016 2553 972 2059 
L 3022 2063 
z
" transform="scale(0.015625)"/>
       <path id="DejaVuSans-6c" d="M 603 4863 
L 1178 4863 
L 1178 0 
L 603 0 
L 603 4863 
z
" transform="scale(0.015625)"/>
       <path id="DejaVuSans-6f" d="M 1959 3097 
Q 1497 3097 1228 2736 
Q 959 2375 959 1747 
Q 959 1119 1226 758 
Q 1494 397 1959 397 
Q 2419 397 2687 759 
Q 2956 1122 2956 1747 
Q 2956 2369 2687 2733 
Q 2419 3097 1959 3097 
z
M 1959 3584 
Q 2709 3584 3137 3096 
Q 3566 2609 3566 1747 
Q 3566 888 3137 398 
Q 2709 -91 1959 -91 
Q 1206 -91 779 398 
Q 353 888 353 1747 
Q 353 2609 779 3096 
Q 1206 3584 1959 3584 
z
" transform="scale(0.015625)"/>
       <path id="DejaVuSans-67" d="M 2906 1791 
Q 2906 2416 2648 2759 
Q 2391 3103 1925 3103 
Q 1463 3103 1205 2759 
Q 947 2416 947 1791 
Q 947 1169 1205 825 
Q 1463 481 1925 481 
Q 2391 481 2648 825 
Q 2906 1169 2906 1791 
z
M 3481 434 
Q 3481 -459 3084 -895 
Q 2688 -1331 1869 -1331 
Q 1566 -1331 1297 -1286 
Q 1028 -1241 775 -1147 
L 775 -588 
Q 1028 -725 1275 -790 
Q 1522 -856 1778 -856 
Q 2344 -856 2625 -561 
Q 2906 -266 2906 331 
L 2906 616 
Q 2728 306 2450 153 
Q 2172 0 1784 0 
Q 1141 0 747 490 
Q 353 981 353 1791 
Q 353 2603 747 3093 
Q 1141 3584 1784 3584 
Q 2172 3584 2450 3431 
Q 2728 3278 2906 2969 
L 2906 3500 
L 3481 3500 
L 3481 434 
z
" transform="scale(0.015625)"/>
       <path id="DejaVuSans-61" d="M 2194 1759 
Q 1497 1759 1228 1600 
Q 959 1441 959 1056 
Q 959 750 1161 570 
Q 1363 391 1709 391 
Q 2188 391 2477 730 
Q 2766 1069 2766 1631 
L 2766 1759 
L 2194 1759 
z
M 3341 1997 
L 3341 0 
L 2766 0 
L 2766 531 
Q 2569 213 2275 61 
Q 1981 -91 1556 -91 
Q 1019 -91 701 211 
Q 384 513 384 1019 
Q 384 1609 779 1909 
Q 1175 2209 1959 2209 
L 2766 2209 
L 2766 2266 
Q 2766 2663 2505 2880 
Q 2244 3097 1772 3097 
Q 1472 3097 1187 3025 
Q 903 2953 641 2809 
L 641 3341 
Q 956 3463 1253 3523 
Q 1550 3584 1831 3584 
Q 2591 3584 2966 3190 
Q 3341 2797 3341 1997 
z
" transform="scale(0.015625)"/>
       <path id="DejaVuSans-72" d="M 2631 2963 
Q 2534 3019 2420 3045 
Q 2306 3072 2169 3072 
Q 1681 3072 1420 2755 
Q 1159 2438 1159 1844 
L 1159 0 
L 581 0 
L 581 3500 
L 1159 3500 
L 1159 2956 
Q 1341 3275 1631 3429 
Q 1922 3584 2338 3584 
Q 2397 3584 2469 3576 
Q 2541 3569 2628 3553 
L 2631 2963 
z
" transform="scale(0.015625)"/>
       <path id="DejaVuSans-69" d="M 603 3500 
L 1178 3500 
L 1178 0 
L 603 0 
L 603 3500 
z
M 603 4863 
L 1178 4863 
L 1178 4134 
L 603 4134 
L 603 4863 
z
" transform="scale(0.015625)"/>
       <path id="DejaVuSans-74" d="M 1172 4494 
L 1172 3500 
L 2356 3500 
L 2356 3053 
L 1172 3053 
L 1172 1153 
Q 1172 725 1289 603 
Q 1406 481 1766 481 
L 2356 481 
L 2356 0 
L 1766 0 
Q 1100 0 847 248 
Q 594 497 594 1153 
L 594 3053 
L 172 3053 
L 172 3500 
L 594 3500 
L 594 4494 
L 1172 4494 
z
" transform="scale(0.015625)"/>
       <path id="DejaVuSans-6d" d="M 3328 2828 
Q 3544 3216 3844 3400 
Q 4144 3584 4550 3584 
Q 5097 3584 5394 3201 
Q 5691 2819 5691 2113 
L 5691 0 
L 5113 0 
L 5113 2094 
Q 5113 2597 4934 2840 
Q 4756 3084 4391 3084 
Q 3944 3084 3684 2787 
Q 3425 2491 3425 1978 
L 3425 0 
L 2847 0 
L 2847 2094 
Q 2847 2600 2669 2842 
Q 2491 3084 2119 3084 
Q 1678 3084 1418 2786 
Q 1159 2488 1159 1978 
L 1159 0 
L 581 0 
L 581 3500 
L 1159 3500 
L 1159 2956 
Q 1356 3278 1631 3431 
Q 1906 3584 2284 3584 
Q 2666 3584 2933 3390 
Q 3200 3197 3328 2828 
z
" transform="scale(0.015625)"/>
       <path id="DejaVuSans-71" d="M 947 1747 
Q 947 1113 1208 752 
Q 1469 391 1925 391 
Q 2381 391 2643 752 
Q 2906 1113 2906 1747 
Q 2906 2381 2643 2742 
Q 2381 3103 1925 3103 
Q 1469 3103 1208 2742 
Q 947 2381 947 1747 
z
M 2906 525 
Q 2725 213 2448 61 
Q 2172 -91 1784 -91 
Q 1150 -91 751 415 
Q 353 922 353 1747 
Q 353 2572 751 3078 
Q 1150 3584 1784 3584 
Q 2172 3584 2448 3432 
Q 2725 3281 2906 2969 
L 2906 3500 
L 3481 3500 
L 3481 -1331 
L 2906 -1331 
L 2906 525 
z
" transform="scale(0.015625)"/>
       <path id="DejaVuSans-75" d="M 544 1381 
L 544 3500 
L 1119 3500 
L 1119 1403 
Q 1119 906 1312 657 
Q 1506 409 1894 409 
Q 2359 409 2629 706 
Q 2900 1003 2900 1516 
L 2900 3500 
L 3475 3500 
L 3475 0 
L 2900 0 
L 2900 538 
Q 2691 219 2414 64 
Q 2138 -91 1772 -91 
Q 1169 -91 856 284 
Q 544 659 544 1381 
z
M 1991 3584 
L 1991 3584 
z
" transform="scale(0.015625)"/>
      </defs>
      <use xlink:href="#DejaVuSans-7c"/>
      <use xlink:href="#DejaVuSans-66" x="33.691406"/>
      <use xlink:href="#DejaVuSans-28" x="68.896484"/>
      <use xlink:href="#DejaVuSans-78" x="107.910156"/>
      <use xlink:href="#DejaVuSans-29" x="167.089844"/>
      <use xlink:href="#DejaVuSans-20" x="206.103516"/>
      <use xlink:href="#DejaVuSans-2d" x="237.890625"/>
      <use xlink:href="#DejaVuSans-20" x="273.974609"/>
      <use xlink:href="#DejaVuSans-70" x="305.761719"/>
      <use xlink:href="#DejaVuSans-28" x="369.238281"/>
      <use xlink:href="#DejaVuSans-78" x="408.251953"/>
      <use xlink:href="#DejaVuSans-29" x="467.431641"/>
      <use xlink:href="#DejaVuSans-7c" x="506.445312"/>
      <use xlink:href="#DejaVuSans-20" x="540.136719"/>
      <use xlink:href="#DejaVuSans-28" x="571.923828"/>
      <use xlink:href="#DejaVuSans-e9" x="610.9375"/>
      <use xlink:href="#DejaVuSans-63" x="672.460938"/>
      <use xlink:href="#DejaVuSans-68" x="727.441406"/>
      <use xlink:href="#DejaVuSans-65" x="790.820312"/>
      <use xlink:href="#DejaVuSans-6c" x="852.34375"/>
      <use xlink:href="#DejaVuSans-6c" x="880.126953"/>
      <use xlink:href="#DejaVuSans-65" x="907.910156"/>
      <use xlink:href="#DejaVuSans-20" x="969.433594"/>
      <use xlink:href="#DejaVuSans-6c" x="1001.220703"/>
      <use xlink:href="#DejaVuSans-6f" x="1029.003906"/>
      <use xlink:href="#DejaVuSans-67" x="1090.185547"/>
      <use xlink:href="#DejaVuSans-61" x="1153.662109"/>
      <use xlink:href="#DejaVuSans-72" x="1214.941406"/>
      <use xlink:href="#DejaVuSans-69" x="1256.054688"/>
      <use xlink:href="#DejaVuSans-74" x="1283.837891"/>
      <use xlink:href="#DejaVuSans-68" x="1323.046875"/>
      <use xlink:href="#DejaVuSans-6d" x="1386.425781"/>
      <use xlink:href="#DejaVuSans-69" x="1483.837891"/>
      <use xlink:href="#DejaVuSans-71" x="1511.621094"/>
      <use xlink:href="#DejaVuSans-75" x="1575.097656"/>
      <use xlink:href="#DejaVuSans-65" x="1638.476562"/>
      <use xlink:href="#DejaVuSans-29" x="1700"/>
     </g>
    </g>
   </g>
   <g id="line2d_79">
    <path d="M 115.363636 69.726654 
L 128.058149 73.525346 
L 140.244881 77.397963 
L 151.923833 81.342756 
L 163.095004 85.35744 
L 173.250614 89.238708 
L 182.898444 93.157142 
L 192.038493 97.104854 
L 200.670762 101.072379 
L 208.79525 105.048388 
L 216.411957 109.019355 
L 223.520885 112.969169 
L 230.122031 116.878708 
L 236.215397 120.725358 
L 242.308763 124.836193 
L 247.894349 128.874512 
L 252.972154 132.808034 
L 258.049959 137.035847 
L 262.619984 141.13919 
L 266.682228 145.069574 
L 270.744472 149.319749 
L 274.298935 153.355485 
L 277.853399 157.7537 
L 280.900082 161.879371 
L 283.946765 166.417001 
L 286.485667 170.595141 
L 289.02457 175.236717 
L 291.055692 179.379508 
L 293.086814 184.023011 
L 295.117936 189.338801 
L 296.641278 193.930111 
L 298.164619 199.249534 
L 299.687961 205.627694 
L 300.703522 210.756419 
L 301.719083 216.964194 
L 302.734644 224.91055 
L 303.242424 229.946511 
L 303.750205 236.147353 
L 304.257985 244.272809 
L 304.765766 256.209151 
L 305.273546 279.708968 
L 305.781327 292.408353 
L 306.289107 261.138289 
L 306.796888 248.155872 
L 307.304668 239.91599 
L 308.320229 229.210169 
L 309.33579 222.132978 
L 310.351351 216.920115 
L 311.366912 212.847768 
L 312.382473 209.547537 
L 313.398034 206.80624 
L 314.921376 203.46082 
L 316.444717 200.795163 
L 317.968059 198.637495 
L 319.4914 196.876666 
L 321.014742 195.436864 
L 322.538084 194.264312 
L 324.061425 193.319718 
L 326.092547 192.365215 
L 328.123669 191.713838 
L 330.154791 191.330076 
L 332.185913 191.189223 
L 334.217035 191.274666 
L 336.248157 191.576242 
L 338.279279 192.089283 
L 340.310401 192.814184 
L 342.341523 193.7564 
L 344.372645 194.92687 
L 346.403767 196.342952 
L 348.434889 198.030055 
L 350.466011 200.024311 
L 352.497133 202.376978 
L 354.528256 205.161881 
L 356.051597 207.598216 
L 357.574939 210.405029 
L 359.09828 213.678613 
L 360.621622 217.564348 
L 362.144963 222.296354 
L 363.160524 226.112492 
L 364.176085 230.68753 
L 365.191646 236.376539 
L 366.207207 243.870124 
L 366.714988 248.729193 
L 367.222768 254.821644 
L 367.730549 262.985894 
L 368.238329 275.388691 
L 368.74611 302.073211 
L 369.25389 302.073211 
L 369.761671 275.388691 
L 370.269451 262.985894 
L 370.777232 254.821644 
L 371.792793 243.870124 
L 372.808354 236.376539 
L 373.823915 230.68753 
L 374.839476 226.112492 
L 375.855037 222.296354 
L 377.378378 217.564348 
L 378.90172 213.678613 
L 380.425061 210.405029 
L 381.948403 207.598216 
L 383.471744 205.161881 
L 385.502867 202.376978 
L 387.533989 200.024311 
L 389.565111 198.030055 
L 391.596233 196.342952 
L 393.627355 194.92687 
L 395.658477 193.7564 
L 397.689599 192.814184 
L 399.720721 192.089283 
L 401.751843 191.576242 
L 403.782965 191.274666 
L 405.814087 191.189223 
L 407.845209 191.330076 
L 409.876331 191.713838 
L 411.907453 192.365215 
L 413.430794 193.050214 
L 414.954136 193.92574 
L 416.477477 195.018505 
L 418.000819 196.364082 
L 419.524161 198.010768 
L 421.047502 200.025918 
L 422.570844 202.506875 
L 424.094185 205.60119 
L 425.109746 208.116748 
L 426.125307 211.116899 
L 427.140868 214.769431 
L 428.156429 219.351024 
L 429.17199 225.367895 
L 429.679771 229.210169 
L 430.187551 233.910289 
L 430.695332 239.91599 
L 431.203112 248.155872 
L 431.710893 261.138289 
L 432.218673 292.408353 
L 432.726454 279.708968 
L 433.234234 256.209151 
L 433.742015 244.272809 
L 434.249795 236.147353 
L 435.265356 224.91055 
L 436.280917 216.964194 
L 437.296478 210.756419 
L 438.312039 205.627694 
L 439.835381 199.249534 
L 441.358722 193.930111 
L 442.882064 189.338801 
L 444.913186 184.023011 
L 446.944308 179.379508 
L 448.97543 175.236717 
L 451.514333 170.595141 
L 454.053235 166.417001 
L 457.099918 161.879371 
L 460.146601 157.7537 
L 463.701065 153.355485 
L 467.255528 149.319749 
L 471.317772 145.069574 
L 475.380016 141.13919 
L 479.950041 137.035847 
L 484.520066 133.216757 
L 489.597871 129.25594 
L 495.183456 125.192004 
L 501.276822 121.057293 
L 507.370188 117.190079 
L 513.971335 113.261205 
L 521.080262 109.293289 
L 528.69697 105.305426 
L 536.821458 101.313677 
L 545.453726 97.331505 
L 554.593776 93.370173 
L 564.241605 89.439074 
L 574.397215 85.546029 
L 585.060606 81.697527 
L 596.231777 77.898943 
L 608.418509 73.996785 
L 621.113022 70.170703 
L 622.636364 69.726654 
L 622.636364 69.726654 
" clip-path="url(#p97a8c47120)" style="fill: none; stroke: #0000ff; stroke-width: 1.5; stroke-linecap: square"/>
   </g>
   <g id="line2d_80">
    <path d="M 115.363636 68.432702 
L 128.56593 72.511787 
L 140.752662 76.502436 
L 152.431613 80.556236 
L 163.602785 84.67166 
L 173.758395 88.641766 
L 183.406224 92.642443 
L 192.546274 96.666432 
L 201.178542 100.704868 
L 209.30303 104.746989 
L 216.919738 108.779802 
L 224.028665 112.787686 
L 230.629812 116.751959 
L 236.723178 120.650382 
L 242.816544 124.814895 
L 248.402129 128.904914 
L 253.479934 132.888416 
L 258.55774 137.170227 
L 263.127764 141.326977 
L 267.190008 145.31016 
L 271.252252 149.620111 
L 274.806716 153.716118 
L 278.361179 158.185139 
L 281.407862 162.383419 
L 284.454545 167.009655 
L 286.993448 171.279461 
L 289.532351 176.036982 
L 291.563473 180.298701 
L 293.594595 185.096915 
L 295.117936 189.159655 
L 296.641278 193.755179 
L 298.164619 199.078728 
L 299.687961 205.460926 
L 300.703522 210.592295 
L 301.719083 216.802674 
L 302.734644 224.751595 
L 303.242424 229.788824 
L 303.750205 235.990924 
L 304.257985 244.117629 
L 304.765766 256.055209 
L 305.273546 279.556255 
L 305.781327 292.256859 
L 306.289107 260.988005 
L 306.796888 248.006788 
L 307.304668 239.768096 
L 308.320229 229.064625 
L 309.33579 221.989746 
L 310.351351 216.779155 
L 311.366912 212.709042 
L 312.382473 209.411006 
L 313.398034 206.671864 
L 314.921376 203.329604 
L 316.444717 200.667019 
L 317.968059 198.512335 
L 319.4914 196.754403 
L 321.014742 195.317411 
L 322.538084 194.14758 
L 324.061425 193.205619 
L 326.092547 192.25449 
L 328.123669 191.606332 
L 330.154791 191.225633 
L 332.185913 191.087685 
L 334.217035 191.17588 
L 336.248157 191.48005 
L 338.279279 191.995529 
L 340.310401 192.722712 
L 342.341523 193.667054 
L 344.372645 194.839493 
L 346.403767 196.25739 
L 348.434889 197.946151 
L 350.466011 199.941908 
L 352.497133 202.295921 
L 354.528256 205.082014 
L 356.051597 207.519139 
L 357.574939 210.326654 
L 359.09828 213.600852 
L 360.621622 217.487114 
L 362.144963 222.219559 
L 363.160524 226.035941 
L 364.176085 230.611184 
L 365.191646 236.300358 
L 366.207207 243.79407 
L 366.714988 248.653188 
L 367.222768 254.745678 
L 367.730549 262.909957 
L 368.238329 275.312773 
L 368.74611 301.997304 
L 369.25389 301.997304 
L 369.761671 275.312773 
L 370.269451 262.909957 
L 370.777232 254.745678 
L 371.792793 243.79407 
L 372.808354 236.300358 
L 373.823915 230.611184 
L 374.839476 226.035941 
L 375.855037 222.219559 
L 377.378378 217.487114 
L 378.90172 213.600852 
L 380.425061 210.326654 
L 381.948403 207.519139 
L 383.471744 205.082014 
L 385.502867 202.295921 
L 387.533989 199.941908 
L 389.565111 197.946151 
L 391.596233 196.25739 
L 393.627355 194.839493 
L 395.658477 193.667054 
L 397.689599 192.722712 
L 399.720721 191.995529 
L 401.751843 191.48005 
L 403.782965 191.17588 
L 405.814087 191.087685 
L 407.845209 191.225633 
L 409.876331 191.606332 
L 411.907453 192.25449 
L 413.430794 192.936974 
L 414.954136 193.809895 
L 416.477477 194.899968 
L 418.000819 196.242765 
L 419.524161 197.886584 
L 421.047502 199.898779 
L 422.570844 202.376693 
L 424.094185 205.467877 
L 425.109746 207.981299 
L 426.125307 210.979275 
L 427.140868 214.629593 
L 428.156429 219.208933 
L 429.17199 225.223512 
L 429.679771 229.064625 
L 430.187551 233.763574 
L 430.695332 239.768096 
L 431.203112 248.006788 
L 431.710893 260.988005 
L 432.218673 292.256859 
L 432.726454 279.556255 
L 433.234234 256.055209 
L 433.742015 244.117629 
L 434.249795 235.990924 
L 435.265356 224.751595 
L 436.280917 216.802674 
L 437.296478 210.592295 
L 438.312039 205.460926 
L 439.835381 199.078728 
L 441.358722 193.755179 
L 442.882064 189.159655 
L 444.913186 183.83811 
L 446.944308 179.188696 
L 448.97543 175.039837 
L 451.514333 170.390457 
L 454.053235 166.20427 
L 457.099918 161.65666 
L 460.146601 157.520659 
L 463.701065 153.109947 
L 467.255528 149.061236 
L 471.317772 144.795646 
L 475.380016 140.849223 
L 479.950041 136.727089 
L 485.027846 132.477469 
L 490.105651 128.521164 
L 495.691237 124.456654 
L 501.784603 120.3159 
L 507.877969 116.437923 
L 514.479115 112.492859 
L 521.588043 108.502939 
L 529.20475 104.486876 
L 537.329238 100.460339 
L 545.961507 96.436383 
L 555.101556 92.425838 
L 564.749386 88.437639 
L 574.904996 84.479116 
L 585.568387 80.556236 
L 597.247338 76.502436 
L 609.43407 72.511787 
L 622.128583 68.585252 
L 622.636364 68.432702 
L 622.636364 68.432702 
" clip-path="url(#p97a8c47120)" style="fill: none; stroke-dasharray: 5.55,2.4; stroke-dashoffset: 0; stroke: #0000ff; stroke-width: 1.5"/>
   </g>
   <g id="line2d_81">
    <path d="M 115.363636 68.482977 
L 129.07371 72.449985 
L 141.768223 76.349036 
L 153.954955 80.320496 
L 165.633907 84.361309 
L 176.805078 88.467572 
L 186.960688 92.430026 
L 196.608518 96.421421 
L 205.748567 100.431548 
L 214.380835 104.448316 
L 223.013104 108.716049 
L 231.137592 112.991755 
L 238.7543 117.258822 
L 245.863227 121.497561 
L 252.464373 125.684822 
L 258.55774 129.793628 
L 264.651106 134.168498 
L 270.236691 138.445338 
L 275.822277 143.01487 
L 280.900082 147.461436 
L 285.470106 151.738238 
L 290.040131 156.316522 
L 294.102375 160.679755 
L 298.164619 165.366299 
L 301.719083 169.777959 
L 305.273546 174.533041 
L 308.82801 179.699185 
L 311.874693 184.523596 
L 314.921376 189.797611 
L 317.460278 194.616379 
L 319.999181 199.918318 
L 322.030303 204.596755 
L 324.061425 209.770932 
L 326.092547 215.591061 
L 327.615889 220.518311 
L 329.13923 226.098374 
L 330.662572 232.587559 
L 331.678133 237.630061 
L 332.693694 243.503118 
L 333.709255 250.61355 
L 334.724816 259.780375 
L 335.232596 265.675749 
L 335.740377 273.09647 
L 336.248157 283.263184 
L 336.755938 299.947099 
L 337.263718 369.350566 
L 337.771499 304.152654 
L 338.279279 287.112534 
L 338.78706 277.605806 
L 339.29484 271.099727 
L 340.310401 262.370918 
L 341.325962 256.605027 
L 342.341523 252.472414 
L 343.357084 249.386905 
L 344.372645 247.038804 
L 345.388206 245.245419 
L 346.403767 243.890834 
L 347.419328 242.897795 
L 348.434889 242.21316 
L 349.45045 241.7998 
L 350.466011 241.631833 
L 351.481572 241.691744 
L 352.497133 241.968627 
L 353.512695 242.457159 
L 354.528256 243.157112 
L 355.543817 244.073294 
L 356.559378 245.21592 
L 357.574939 246.601472 
L 358.5905 248.254234 
L 359.606061 250.2088 
L 360.621622 252.514211 
L 361.637183 255.240906 
L 362.652744 258.492993 
L 363.668305 262.431401 
L 364.683866 267.321902 
L 365.699427 273.648738 
L 366.714988 282.443258 
L 367.222768 288.498127 
L 367.730549 296.634253 
L 368.238329 309.01833 
L 368.74611 335.6935 
L 369.25389 335.6935 
L 369.761671 309.01833 
L 370.269451 296.634253 
L 370.777232 288.498127 
L 371.792793 277.631305 
L 372.808354 270.260934 
L 373.823915 264.734631 
L 374.839476 260.363097 
L 375.855037 256.792937 
L 376.870598 253.819378 
L 378.393939 250.2088 
L 379.917281 247.39257 
L 381.440622 245.21592 
L 382.456183 244.073294 
L 383.471744 243.157112 
L 384.487305 242.457159 
L 385.502867 241.968627 
L 386.518428 241.691744 
L 387.533989 241.631833 
L 388.54955 241.7998 
L 389.565111 242.21316 
L 390.580672 242.897795 
L 391.596233 243.890834 
L 392.611794 245.245419 
L 393.627355 247.038804 
L 394.642916 249.386905 
L 395.658477 252.472414 
L 396.674038 256.605027 
L 397.689599 262.370918 
L 398.197379 266.222072 
L 398.70516 271.099727 
L 399.21294 277.605806 
L 399.720721 287.112534 
L 400.228501 304.152654 
L 400.736282 369.350566 
L 401.244062 299.947099 
L 401.751843 283.263184 
L 402.259623 273.09647 
L 403.275184 259.780375 
L 404.290745 250.61355 
L 405.306306 243.503118 
L 406.321867 237.630061 
L 407.845209 230.301249 
L 409.36855 224.15275 
L 410.891892 218.812634 
L 412.923014 212.58809 
L 414.954136 207.113962 
L 416.985258 202.20275 
L 419.524161 196.672773 
L 422.063063 191.673817 
L 425.109746 186.226882 
L 428.156429 181.262843 
L 431.203112 176.69207 
L 434.757576 171.770304 
L 438.312039 167.218549 
L 442.374283 162.396509 
L 446.436527 157.917965 
L 451.006552 153.228594 
L 455.576577 148.85618 
L 460.654382 144.317679 
L 465.732187 140.07093 
L 471.317772 135.692336 
L 477.411138 131.220617 
L 483.504505 127.026927 
L 490.105651 122.758704 
L 497.214578 118.44324 
L 504.323505 114.384697 
L 511.940213 110.288264 
L 520.064701 106.17347 
L 528.69697 102.057002 
L 537.837019 97.953011 
L 547.484848 93.873426 
L 557.640459 89.828232 
L 568.303849 85.825743 
L 579.47502 81.872835 
L 591.153972 77.975161 
L 603.340704 74.137337 
L 616.542998 70.216547 
L 622.636364 68.482977 
L 622.636364 68.482977 
" clip-path="url(#p97a8c47120)" style="fill: none; stroke: #008000; stroke-width: 1.5; stroke-linecap: square"/>
   </g>
   <g id="line2d_82">
    <path d="M 115.363636 67.247484 
L 129.07371 71.342585 
L 142.276003 75.519069 
L 154.462735 79.602161 
L 166.141687 83.745801 
L 177.312858 87.946823 
L 187.976249 92.201008 
L 197.624079 96.281509 
L 206.764128 100.375673 
L 215.396396 104.47198 
L 224.028665 108.820025 
L 232.153153 113.172719 
L 239.769861 117.513956 
L 246.878788 121.824476 
L 253.479934 126.081465 
L 259.573301 130.258166 
L 265.666667 134.705405 
L 271.252252 139.053716 
L 276.330057 143.265098 
L 281.407862 147.759158 
L 285.977887 152.082056 
L 290.547912 156.710668 
L 294.610156 161.123334 
L 298.6724 165.865198 
L 302.226863 170.331671 
L 305.781327 175.149597 
L 308.82801 179.611826 
L 311.874693 184.442988 
L 314.921376 189.723403 
L 317.460278 194.547237 
L 319.999181 199.853998 
L 322.030303 204.536117 
L 324.061425 209.71382 
L 326.092547 215.537319 
L 327.615889 220.466995 
L 329.13923 226.049396 
L 330.662572 232.540831 
L 331.678133 237.584784 
L 332.693694 243.459253 
L 333.709255 250.571059 
L 334.724816 259.739219 
L 335.232596 265.635245 
L 335.740377 273.056609 
L 336.248157 283.223956 
L 336.755938 299.908495 
L 337.263718 369.312575 
L 337.771499 304.115268 
L 338.279279 287.075741 
L 338.78706 277.569598 
L 339.29484 271.064093 
L 340.310401 262.336405 
L 341.325962 256.571595 
L 342.341523 252.440024 
L 343.357084 249.355518 
L 344.372645 247.008382 
L 345.388206 245.215922 
L 346.403767 243.862223 
L 347.419328 242.870031 
L 348.434889 242.186205 
L 349.45045 241.773615 
L 350.466011 241.606378 
L 351.481572 241.666981 
L 352.497133 241.944516 
L 353.512695 242.433662 
L 354.528256 243.13419 
L 355.543817 244.050908 
L 356.559378 245.19403 
L 357.574939 246.580041 
L 358.5905 248.233221 
L 359.606061 250.188167 
L 360.621622 252.493918 
L 361.637183 255.220916 
L 362.652744 258.473265 
L 363.668305 262.411898 
L 364.683866 267.302584 
L 365.699427 273.629566 
L 366.714988 282.424193 
L 367.222768 288.479101 
L 367.730549 296.615256 
L 368.238329 308.999352 
L 368.74611 335.674532 
L 369.25389 335.674532 
L 369.761671 308.999352 
L 370.269451 296.615256 
L 370.777232 288.479101 
L 371.792793 277.612191 
L 372.808354 270.241694 
L 373.823915 264.715225 
L 374.839476 260.343487 
L 375.855037 256.773083 
L 376.870598 253.799242 
L 378.393939 250.188167 
L 379.917281 247.371352 
L 381.440622 245.19403 
L 382.456183 244.050908 
L 383.471744 243.13419 
L 384.487305 242.433662 
L 385.502867 241.944516 
L 386.518428 241.666981 
L 387.533989 241.606378 
L 388.54955 241.773615 
L 389.565111 242.186205 
L 390.580672 242.870031 
L 391.596233 243.862223 
L 392.611794 245.215922 
L 393.627355 247.008382 
L 394.642916 249.355518 
L 395.658477 252.440024 
L 396.674038 256.571595 
L 397.689599 262.336405 
L 398.197379 266.187003 
L 398.70516 271.064093 
L 399.21294 277.569598 
L 399.720721 287.075741 
L 400.228501 304.115268 
L 400.736282 369.312575 
L 401.244062 299.908495 
L 401.751843 283.223956 
L 402.259623 273.056609 
L 403.275184 259.739219 
L 404.290745 250.571059 
L 405.306306 243.459253 
L 406.321867 237.584784 
L 407.845209 230.25378 
L 409.36855 224.103003 
L 410.891892 218.760519 
L 412.923014 212.532683 
L 414.954136 207.055106 
L 416.985258 202.14029 
L 419.524161 196.605588 
L 422.063063 191.601664 
L 425.109746 186.148446 
L 428.156429 181.177773 
L 431.203112 176.600016 
L 434.757576 171.669657 
L 438.312039 167.108833 
L 442.374283 162.275843 
L 446.436527 157.785725 
L 451.006552 153.082588 
L 455.576577 148.695618 
L 460.654382 144.140018 
L 465.732187 139.875194 
L 471.317772 135.475592 
L 477.411138 130.97961 
L 483.504505 126.760252 
L 490.105651 122.462637 
L 497.214578 118.113676 
L 504.323505 114.019724 
L 511.940213 109.88323 
L 520.064701 105.723283 
L 528.69697 101.556101 
L 537.837019 97.395336 
L 547.484848 93.252388 
L 557.640459 89.136685 
L 568.303849 85.055952 
L 579.47502 81.016448 
L 591.661753 76.854491 
L 604.356265 72.761033 
L 617.558559 68.737195 
L 622.636364 67.247484 
L 622.636364 67.247484 
" clip-path="url(#p97a8c47120)" style="fill: none; stroke-dasharray: 5.55,2.4; stroke-dashoffset: 0; stroke: #008000; stroke-width: 1.5"/>
   </g>
   <g id="line2d_83">
    <path d="M 115.363636 68.180879 
L 129.07371 72.11376 
L 142.276003 76.134654 
L 154.462735 80.073301 
L 166.141687 84.076219 
L 177.312858 88.138741 
L 187.976249 92.255076 
L 198.131859 96.418109 
L 207.779689 100.619163 
L 216.919738 104.84774 
L 225.552007 109.091232 
L 233.676495 113.334617 
L 241.293202 117.560141 
L 248.402129 121.746999 
L 255.511057 126.198503 
L 262.112203 130.599825 
L 268.205569 134.921662 
L 274.298935 139.525552 
L 279.884521 144.027184 
L 284.962326 148.385107 
L 290.040131 153.030805 
L 294.610156 157.492033 
L 299.18018 162.256795 
L 303.750205 167.37069 
L 307.812449 172.255369 
L 311.874693 177.511441 
L 315.429156 182.46523 
L 318.98362 187.80713 
L 322.030303 192.747755 
L 325.076986 198.08235 
L 328.123669 203.885506 
L 330.662572 209.150541 
L 333.201474 214.887687 
L 335.740377 221.203143 
L 337.771499 226.771329 
L 339.802621 232.915522 
L 341.833743 239.796486 
L 343.864865 247.663789 
L 345.388206 254.45554 
L 346.911548 262.339691 
L 347.927109 268.459298 
L 348.94267 275.590905 
L 349.958231 284.264231 
L 350.973792 295.624185 
L 351.481572 303.147016 
L 351.989353 313.063906 
L 352.497133 328.191877 
L 353.004914 366.170349 
L 354.020475 324.579095 
L 354.528256 314.680195 
L 355.036036 308.349139 
L 355.543817 303.880627 
L 356.051597 300.570258 
L 356.559378 298.059217 
L 357.067158 296.140698 
L 357.574939 294.68552 
L 358.082719 293.608488 
L 358.5905 292.851372 
L 359.09828 292.373583 
L 359.606061 292.146755 
L 360.113841 292.151482 
L 360.621622 292.375324 
L 361.129402 292.811627 
L 361.637183 293.458912 
L 362.144963 294.320711 
L 363.160524 296.729058 
L 364.176085 300.188019 
L 365.191646 305.013816 
L 366.207207 311.86983 
L 366.714988 316.488621 
L 367.222768 322.390766 
L 367.730549 330.413385 
L 368.238329 342.722278 
L 368.74611 369.36 
L 369.25389 369.36 
L 369.761671 342.722278 
L 370.269451 330.413385 
L 370.777232 322.390766 
L 371.792793 311.86983 
L 372.808354 305.013816 
L 373.823915 300.188019 
L 374.839476 296.729058 
L 375.855037 294.320711 
L 376.870598 292.811627 
L 377.378378 292.375324 
L 377.886159 292.151482 
L 378.393939 292.146755 
L 378.90172 292.373583 
L 379.4095 292.851372 
L 379.917281 293.608488 
L 380.425061 294.68552 
L 380.932842 296.140698 
L 381.440622 298.059217 
L 381.948403 300.570258 
L 382.456183 303.880627 
L 382.963964 308.349139 
L 383.471744 314.680195 
L 383.979525 324.579095 
L 384.995086 366.170349 
L 385.502867 328.191877 
L 386.010647 313.063906 
L 386.518428 303.147016 
L 387.533989 289.488962 
L 388.54955 279.68558 
L 389.565111 271.873502 
L 391.088452 262.339691 
L 392.611794 254.45554 
L 394.135135 247.663789 
L 396.166257 239.796486 
L 398.197379 232.915522 
L 400.228501 226.771329 
L 402.767404 219.887368 
L 405.306306 213.697904 
L 407.845209 208.062591 
L 410.891892 201.893525 
L 413.938575 196.2562 
L 416.985258 191.060234 
L 420.539722 185.46612 
L 424.094185 180.298154 
L 427.648649 175.493165 
L 431.710893 170.383061 
L 435.773137 165.624016 
L 440.343161 160.632206 
L 444.913186 155.973213 
L 449.990991 151.135534 
L 455.068796 146.60945 
L 460.654382 141.945298 
L 466.239967 137.570632 
L 472.333333 133.088627 
L 478.426699 128.874363 
L 485.027846 124.576221 
L 492.136773 120.222952 
L 499.2457 116.123221 
L 506.862408 111.980772 
L 514.986896 107.816198 
L 523.619165 103.647175 
L 532.759214 99.488745 
L 542.407043 95.353609 
L 552.562654 91.252411 
L 563.226044 87.194008 
L 574.397215 83.185719 
L 586.076167 79.233547 
L 598.262899 75.342377 
L 611.465192 71.367588 
L 622.636364 68.180879 
L 622.636364 68.180879 
" clip-path="url(#p97a8c47120)" style="fill: none; stroke: #ffa500; stroke-width: 1.5; stroke-linecap: square"/>
   </g>
   <g id="line2d_84">
    <path d="M 115.363636 66.96 
L 129.07371 71.020933 
L 142.276003 75.158387 
L 154.970516 79.37208 
L 166.649468 83.477262 
L 177.820639 87.633924 
L 188.484029 91.83697 
L 198.63964 96.079946 
L 208.287469 100.354801 
L 217.427518 104.651627 
L 226.059787 108.958368 
L 234.184275 113.260508 
L 241.800983 117.540749 
L 248.90991 121.778686 
L 256.018837 126.281669 
L 262.619984 130.731576 
L 268.71335 135.099377 
L 274.806716 139.75083 
L 280.392301 144.298037 
L 285.470106 148.699612 
L 290.547912 153.391759 
L 295.117936 157.897898 
L 299.687961 162.711378 
L 303.750205 167.285559 
L 307.812449 172.179937 
L 311.874693 177.445086 
L 315.429156 182.406305 
L 318.98362 187.755159 
L 322.030303 192.701364 
L 325.076986 198.041187 
L 328.123669 203.849222 
L 330.662572 209.118056 
L 333.201474 214.858755 
L 335.740377 221.177522 
L 337.771499 226.748182 
L 339.802621 232.894692 
L 341.833743 239.777818 
L 343.864865 247.647127 
L 345.388206 254.44028 
L 346.911548 262.325746 
L 347.927109 268.44618 
L 348.94267 275.578577 
L 349.958231 284.252652 
L 350.973792 295.613317 
L 351.481572 303.136489 
L 351.989353 313.05371 
L 352.497133 328.182002 
L 353.004914 366.160785 
L 354.020475 324.570125 
L 354.528256 314.671508 
L 355.036036 308.340725 
L 355.543817 303.872475 
L 356.051597 300.56236 
L 356.559378 298.051563 
L 357.067158 296.133277 
L 357.574939 294.678323 
L 358.082719 293.601505 
L 358.5905 292.844594 
L 359.09828 292.367 
L 359.606061 292.140357 
L 360.113841 292.145259 
L 360.621622 292.369266 
L 361.129402 292.805725 
L 361.637183 293.453156 
L 362.144963 294.315091 
L 363.160524 296.723682 
L 364.176085 300.182847 
L 365.191646 305.00881 
L 366.207207 311.86495 
L 366.714988 316.48379 
L 367.222768 322.385974 
L 367.730549 330.408622 
L 368.238329 342.717534 
L 368.74611 369.355266 
L 369.25389 369.355266 
L 369.761671 342.717534 
L 370.269451 330.408622 
L 370.777232 322.385974 
L 371.792793 311.86495 
L 372.808354 305.00881 
L 373.823915 300.182847 
L 374.839476 296.723682 
L 375.855037 294.315091 
L 376.870598 292.805725 
L 377.378378 292.369266 
L 377.886159 292.145259 
L 378.393939 292.140357 
L 378.90172 292.367 
L 379.4095 292.844594 
L 379.917281 293.601505 
L 380.425061 294.678323 
L 380.932842 296.133277 
L 381.440622 298.051563 
L 381.948403 300.56236 
L 382.456183 303.872475 
L 382.963964 308.340725 
L 383.471744 314.671508 
L 383.979525 324.570125 
L 384.995086 366.160785 
L 385.502867 328.182002 
L 386.010647 313.05371 
L 386.518428 303.136489 
L 387.533989 289.477743 
L 388.54955 279.673631 
L 389.565111 271.860783 
L 391.088452 262.325746 
L 392.611794 254.44028 
L 394.135135 247.647127 
L 396.166257 239.777818 
L 398.197379 232.894692 
L 400.228501 226.748182 
L 402.767404 219.861105 
L 405.306306 213.668281 
L 407.845209 208.029365 
L 410.891892 201.855655 
L 413.938575 196.213334 
L 416.985258 191.012021 
L 420.539722 185.411227 
L 424.094185 180.236104 
L 427.648649 175.42348 
L 431.710893 170.304065 
L 435.773137 165.535086 
L 440.343161 160.531356 
L 444.913186 155.859653 
L 449.990991 151.006927 
L 455.068796 146.464821 
L 460.654382 141.781919 
L 466.239967 137.387324 
L 472.333333 132.882233 
L 478.426699 128.643479 
L 485.027846 124.317222 
L 492.136773 119.931832 
L 499.753481 115.511671 
L 507.370188 111.346722 
L 515.494676 107.153834 
L 524.126945 102.950195 
L 533.266994 98.75035 
L 542.914824 94.566487 
L 553.070434 90.408717 
L 563.733825 86.285343 
L 574.904996 82.203103 
L 586.583948 78.167394 
L 599.27846 74.021076 
L 612.480753 69.946115 
L 622.636364 66.96 
L 622.636364 66.96 
" clip-path="url(#p97a8c47120)" style="fill: none; stroke-dasharray: 5.55,2.4; stroke-dashoffset: 0; stroke: #ffa500; stroke-width: 1.5"/>
   </g>
   <g id="patch_3">
    <path d="M 90 384.48 
L 90 51.84 
" style="fill: none; stroke: #000000; stroke-width: 0.8; stroke-linejoin: miter; stroke-linecap: square"/>
   </g>
   <g id="patch_4">
    <path d="M 648 384.48 
L 648 51.84 
" style="fill: none; stroke: #000000; stroke-width: 0.8; stroke-linejoin: miter; stroke-linecap: square"/>
   </g>
   <g id="patch_5">
    <path d="M 90 384.48 
L 648 384.48 
" style="fill: none; stroke: #000000; stroke-width: 0.8; stroke-linejoin: miter; stroke-linecap: square"/>
   </g>
   <g id="patch_6">
    <path d="M 90 51.84 
L 648 51.84 
" style="fill: none; stroke: #000000; stroke-width: 0.8; stroke-linejoin: miter; stroke-linecap: square"/>
   </g>
   <g id="text_18">
    <!-- Comparaison des erreurs d'approximation et des bornes théoriques de Lagrange pour n=2 -->
    <g transform="translate(96.137812 45.84) scale(0.12 -0.12)">
     <defs>
      <path id="DejaVuSans-43" d="M 4122 4306 
L 4122 3641 
Q 3803 3938 3442 4084 
Q 3081 4231 2675 4231 
Q 1875 4231 1450 3742 
Q 1025 3253 1025 2328 
Q 1025 1406 1450 917 
Q 1875 428 2675 428 
Q 3081 428 3442 575 
Q 3803 722 4122 1019 
L 4122 359 
Q 3791 134 3420 21 
Q 3050 -91 2638 -91 
Q 1578 -91 968 557 
Q 359 1206 359 2328 
Q 359 3453 968 4101 
Q 1578 4750 2638 4750 
Q 3056 4750 3426 4639 
Q 3797 4528 4122 4306 
z
" transform="scale(0.015625)"/>
      <path id="DejaVuSans-73" d="M 2834 3397 
L 2834 2853 
Q 2591 2978 2328 3040 
Q 2066 3103 1784 3103 
Q 1356 3103 1142 2972 
Q 928 2841 928 2578 
Q 928 2378 1081 2264 
Q 1234 2150 1697 2047 
L 1894 2003 
Q 2506 1872 2764 1633 
Q 3022 1394 3022 966 
Q 3022 478 2636 193 
Q 2250 -91 1575 -91 
Q 1294 -91 989 -36 
Q 684 19 347 128 
L 347 722 
Q 666 556 975 473 
Q 1284 391 1588 391 
Q 1994 391 2212 530 
Q 2431 669 2431 922 
Q 2431 1156 2273 1281 
Q 2116 1406 1581 1522 
L 1381 1569 
Q 847 1681 609 1914 
Q 372 2147 372 2553 
Q 372 3047 722 3315 
Q 1072 3584 1716 3584 
Q 2034 3584 2315 3537 
Q 2597 3491 2834 3397 
z
" transform="scale(0.015625)"/>
      <path id="DejaVuSans-6e" d="M 3513 2113 
L 3513 0 
L 2938 0 
L 2938 2094 
Q 2938 2591 2744 2837 
Q 2550 3084 2163 3084 
Q 1697 3084 1428 2787 
Q 1159 2491 1159 1978 
L 1159 0 
L 581 0 
L 581 3500 
L 1159 3500 
L 1159 2956 
Q 1366 3272 1645 3428 
Q 1925 3584 2291 3584 
Q 2894 3584 3203 3211 
Q 3513 2838 3513 2113 
z
" transform="scale(0.015625)"/>
      <path id="DejaVuSans-64" d="M 2906 2969 
L 2906 4863 
L 3481 4863 
L 3481 0 
L 2906 0 
L 2906 525 
Q 2725 213 2448 61 
Q 2172 -91 1784 -91 
Q 1150 -91 751 415 
Q 353 922 353 1747 
Q 353 2572 751 3078 
Q 1150 3584 1784 3584 
Q 2172 3584 2448 3432 
Q 2725 3281 2906 2969 
z
M 947 1747 
Q 947 1113 1208 752 
Q 1469 391 1925 391 
Q 2381 391 2643 752 
Q 2906 1113 2906 1747 
Q 2906 2381 2643 2742 
Q 2381 3103 1925 3103 
Q 1469 3103 1208 2742 
Q 947 2381 947 1747 
z
" transform="scale(0.015625)"/>
      <path id="DejaVuSans-27" d="M 1147 4666 
L 1147 2931 
L 616 2931 
L 616 4666 
L 1147 4666 
z
" transform="scale(0.015625)"/>
      <path id="DejaVuSans-62" d="M 3116 1747 
Q 3116 2381 2855 2742 
Q 2594 3103 2138 3103 
Q 1681 3103 1420 2742 
Q 1159 2381 1159 1747 
Q 1159 1113 1420 752 
Q 1681 391 2138 391 
Q 2594 391 2855 752 
Q 3116 1113 3116 1747 
z
M 1159 2969 
Q 1341 3281 1617 3432 
Q 1894 3584 2278 3584 
Q 2916 3584 3314 3078 
Q 3713 2572 3713 1747 
Q 3713 922 3314 415 
Q 2916 -91 2278 -91 
Q 1894 -91 1617 61 
Q 1341 213 1159 525 
L 1159 0 
L 581 0 
L 581 4863 
L 1159 4863 
L 1159 2969 
z
" transform="scale(0.015625)"/>
      <path id="DejaVuSans-4c" d="M 628 4666 
L 1259 4666 
L 1259 531 
L 3531 531 
L 3531 0 
L 628 0 
L 628 4666 
z
" transform="scale(0.015625)"/>
      <path id="DejaVuSans-3d" d="M 678 2906 
L 4684 2906 
L 4684 2381 
L 678 2381 
L 678 2906 
z
M 678 1631 
L 4684 1631 
L 4684 1100 
L 678 1100 
L 678 1631 
z
" transform="scale(0.015625)"/>
     </defs>
     <use xlink:href="#DejaVuSans-43"/>
     <use xlink:href="#DejaVuSans-6f" x="69.824219"/>
     <use xlink:href="#DejaVuSans-6d" x="131.005859"/>
     <use xlink:href="#DejaVuSans-70" x="228.417969"/>
     <use xlink:href="#DejaVuSans-61" x="291.894531"/>
     <use xlink:href="#DejaVuSans-72" x="353.173828"/>
     <use xlink:href="#DejaVuSans-61" x="394.287109"/>
     <use xlink:href="#DejaVuSans-69" x="455.566406"/>
     <use xlink:href="#DejaVuSans-73" x="483.349609"/>
     <use xlink:href="#DejaVuSans-6f" x="535.449219"/>
     <use xlink:href="#DejaVuSans-6e" x="596.630859"/>
     <use xlink:href="#DejaVuSans-20" x="660.009766"/>
     <use xlink:href="#DejaVuSans-64" x="691.796875"/>
     <use xlink:href="#DejaVuSans-65" x="755.273438"/>
     <use xlink:href="#DejaVuSans-73" x="816.796875"/>
     <use xlink:href="#DejaVuSans-20" x="868.896484"/>
     <use xlink:href="#DejaVuSans-65" x="900.683594"/>
     <use xlink:href="#DejaVuSans-72" x="962.207031"/>
     <use xlink:href="#DejaVuSans-72" x="1001.570312"/>
     <use xlink:href="#DejaVuSans-65" x="1040.433594"/>
     <use xlink:href="#DejaVuSans-75" x="1101.957031"/>
     <use xlink:href="#DejaVuSans-72" x="1165.335938"/>
     <use xlink:href="#DejaVuSans-73" x="1206.449219"/>
     <use xlink:href="#DejaVuSans-20" x="1258.548828"/>
     <use xlink:href="#DejaVuSans-64" x="1290.335938"/>
     <use xlink:href="#DejaVuSans-27" x="1353.8125"/>
     <use xlink:href="#DejaVuSans-61" x="1381.302734"/>
     <use xlink:href="#DejaVuSans-70" x="1442.582031"/>
     <use xlink:href="#DejaVuSans-70" x="1506.058594"/>
     <use xlink:href="#DejaVuSans-72" x="1569.535156"/>
     <use xlink:href="#DejaVuSans-6f" x="1608.398438"/>
     <use xlink:href="#DejaVuSans-78" x="1666.455078"/>
     <use xlink:href="#DejaVuSans-69" x="1725.634766"/>
     <use xlink:href="#DejaVuSans-6d" x="1753.417969"/>
     <use xlink:href="#DejaVuSans-61" x="1850.830078"/>
     <use xlink:href="#DejaVuSans-74" x="1912.109375"/>
     <use xlink:href="#DejaVuSans-69" x="1951.318359"/>
     <use xlink:href="#DejaVuSans-6f" x="1979.101562"/>
     <use xlink:href="#DejaVuSans-6e" x="2040.283203"/>
     <use xlink:href="#DejaVuSans-20" x="2103.662109"/>
     <use xlink:href="#DejaVuSans-65" x="2135.449219"/>
     <use xlink:href="#DejaVuSans-74" x="2196.972656"/>
     <use xlink:href="#DejaVuSans-20" x="2236.181641"/>
     <use xlink:href="#DejaVuSans-64" x="2267.96875"/>
     <use xlink:href="#DejaVuSans-65" x="2331.445312"/>
     <use xlink:href="#DejaVuSans-73" x="2392.96875"/>
     <use xlink:href="#DejaVuSans-20" x="2445.068359"/>
     <use xlink:href="#DejaVuSans-62" x="2476.855469"/>
     <use xlink:href="#DejaVuSans-6f" x="2540.332031"/>
     <use xlink:href="#DejaVuSans-72" x="2601.513672"/>
     <use xlink:href="#DejaVuSans-6e" x="2640.876953"/>
     <use xlink:href="#DejaVuSans-65" x="2704.255859"/>
     <use xlink:href="#DejaVuSans-73" x="2765.779297"/>
     <use xlink:href="#DejaVuSans-20" x="2817.878906"/>
     <use xlink:href="#DejaVuSans-74" x="2849.666016"/>
     <use xlink:href="#DejaVuSans-68" x="2888.875"/>
     <use xlink:href="#DejaVuSans-e9" x="2952.253906"/>
     <use xlink:href="#DejaVuSans-6f" x="3013.777344"/>
     <use xlink:href="#DejaVuSans-72" x="3074.958984"/>
     <use xlink:href="#DejaVuSans-69" x="3116.072266"/>
     <use xlink:href="#DejaVuSans-71" x="3143.855469"/>
     <use xlink:href="#DejaVuSans-75" x="3207.332031"/>
     <use xlink:href="#DejaVuSans-65" x="3270.710938"/>
     <use xlink:href="#DejaVuSans-73" x="3332.234375"/>
     <use xlink:href="#DejaVuSans-20" x="3384.333984"/>
     <use xlink:href="#DejaVuSans-64" x="3416.121094"/>
     <use xlink:href="#DejaVuSans-65" x="3479.597656"/>
     <use xlink:href="#DejaVuSans-20" x="3541.121094"/>
     <use xlink:href="#DejaVuSans-4c" x="3572.908203"/>
     <use xlink:href="#DejaVuSans-61" x="3628.621094"/>
     <use xlink:href="#DejaVuSans-67" x="3689.900391"/>
     <use xlink:href="#DejaVuSans-72" x="3753.376953"/>
     <use xlink:href="#DejaVuSans-61" x="3794.490234"/>
     <use xlink:href="#DejaVuSans-6e" x="3855.769531"/>
     <use xlink:href="#DejaVuSans-67" x="3919.148438"/>
     <use xlink:href="#DejaVuSans-65" x="3982.625"/>
     <use xlink:href="#DejaVuSans-20" x="4044.148438"/>
     <use xlink:href="#DejaVuSans-70" x="4075.935547"/>
     <use xlink:href="#DejaVuSans-6f" x="4139.412109"/>
     <use xlink:href="#DejaVuSans-75" x="4200.59375"/>
     <use xlink:href="#DejaVuSans-72" x="4263.972656"/>
     <use xlink:href="#DejaVuSans-20" x="4305.085938"/>
     <use xlink:href="#DejaVuSans-6e" x="4336.873047"/>
     <use xlink:href="#DejaVuSans-3d" x="4400.251953"/>
     <use xlink:href="#DejaVuSans-32" x="4484.041016"/>
    </g>
   </g>
   <g id="legend_1">
    <g id="patch_7">
     <path d="M 97 379.48 
L 297.901563 379.48 
Q 299.901563 379.48 299.901563 377.48 
L 299.901563 290.41125 
Q 299.901563 288.41125 297.901563 288.41125 
L 97 288.41125 
Q 95 288.41125 95 290.41125 
L 95 377.48 
Q 95 379.48 97 379.48 
z
" style="fill: #ffffff; opacity: 0.8; stroke: #cccccc; stroke-linejoin: miter"/>
    </g>
    <g id="line2d_85">
     <path d="M 99 296.509688 
L 109 296.509688 
L 119 296.509688 
" style="fill: none; stroke: #0000ff; stroke-width: 1.5; stroke-linecap: square"/>
    </g>
    <g id="text_19">
     <!-- Erreur d'approximation, t=0.25 -->
     <g transform="translate(127 300.009688) scale(0.1 -0.1)">
      <defs>
       <path id="DejaVuSans-45" d="M 628 4666 
L 3578 4666 
L 3578 4134 
L 1259 4134 
L 1259 2753 
L 3481 2753 
L 3481 2222 
L 1259 2222 
L 1259 531 
L 3634 531 
L 3634 0 
L 628 0 
L 628 4666 
z
" transform="scale(0.015625)"/>
       <path id="DejaVuSans-2c" d="M 750 794 
L 1409 794 
L 1409 256 
L 897 -744 
L 494 -744 
L 750 256 
L 750 794 
z
" transform="scale(0.015625)"/>
      </defs>
      <use xlink:href="#DejaVuSans-45"/>
      <use xlink:href="#DejaVuSans-72" x="63.183594"/>
      <use xlink:href="#DejaVuSans-72" x="102.546875"/>
      <use xlink:href="#DejaVuSans-65" x="141.410156"/>
      <use xlink:href="#DejaVuSans-75" x="202.933594"/>
      <use xlink:href="#DejaVuSans-72" x="266.3125"/>
      <use xlink:href="#DejaVuSans-20" x="307.425781"/>
      <use xlink:href="#DejaVuSans-64" x="339.212891"/>
      <use xlink:href="#DejaVuSans-27" x="402.689453"/>
      <use xlink:href="#DejaVuSans-61" x="430.179688"/>
      <use xlink:href="#DejaVuSans-70" x="491.458984"/>
      <use xlink:href="#DejaVuSans-70" x="554.935547"/>
      <use xlink:href="#DejaVuSans-72" x="618.412109"/>
      <use xlink:href="#DejaVuSans-6f" x="657.275391"/>
      <use xlink:href="#DejaVuSans-78" x="715.332031"/>
      <use xlink:href="#DejaVuSans-69" x="774.511719"/>
      <use xlink:href="#DejaVuSans-6d" x="802.294922"/>
      <use xlink:href="#DejaVuSans-61" x="899.707031"/>
      <use xlink:href="#DejaVuSans-74" x="960.986328"/>
      <use xlink:href="#DejaVuSans-69" x="1000.195312"/>
      <use xlink:href="#DejaVuSans-6f" x="1027.978516"/>
      <use xlink:href="#DejaVuSans-6e" x="1089.160156"/>
      <use xlink:href="#DejaVuSans-2c" x="1152.539062"/>
      <use xlink:href="#DejaVuSans-20" x="1184.326172"/>
      <use xlink:href="#DejaVuSans-74" x="1216.113281"/>
      <use xlink:href="#DejaVuSans-3d" x="1255.322266"/>
      <use xlink:href="#DejaVuSans-30" x="1339.111328"/>
      <use xlink:href="#DejaVuSans-2e" x="1402.734375"/>
      <use xlink:href="#DejaVuSans-32" x="1434.521484"/>
      <use xlink:href="#DejaVuSans-35" x="1498.144531"/>
     </g>
    </g>
    <g id="line2d_86">
     <path d="M 99 311.187813 
L 109 311.187813 
L 119 311.187813 
" style="fill: none; stroke-dasharray: 5.55,2.4; stroke-dashoffset: 0; stroke: #0000ff; stroke-width: 1.5"/>
    </g>
    <g id="text_20">
     <!-- Reste de Lagrange, t=0.25 -->
     <g transform="translate(127 314.687813) scale(0.1 -0.1)">
      <defs>
       <path id="DejaVuSans-52" d="M 2841 2188 
Q 3044 2119 3236 1894 
Q 3428 1669 3622 1275 
L 4263 0 
L 3584 0 
L 2988 1197 
Q 2756 1666 2539 1819 
Q 2322 1972 1947 1972 
L 1259 1972 
L 1259 0 
L 628 0 
L 628 4666 
L 2053 4666 
Q 2853 4666 3247 4331 
Q 3641 3997 3641 3322 
Q 3641 2881 3436 2590 
Q 3231 2300 2841 2188 
z
M 1259 4147 
L 1259 2491 
L 2053 2491 
Q 2509 2491 2742 2702 
Q 2975 2913 2975 3322 
Q 2975 3731 2742 3939 
Q 2509 4147 2053 4147 
L 1259 4147 
z
" transform="scale(0.015625)"/>
      </defs>
      <use xlink:href="#DejaVuSans-52"/>
      <use xlink:href="#DejaVuSans-65" x="64.982422"/>
      <use xlink:href="#DejaVuSans-73" x="126.505859"/>
      <use xlink:href="#DejaVuSans-74" x="178.605469"/>
      <use xlink:href="#DejaVuSans-65" x="217.814453"/>
      <use xlink:href="#DejaVuSans-20" x="279.337891"/>
      <use xlink:href="#DejaVuSans-64" x="311.125"/>
      <use xlink:href="#DejaVuSans-65" x="374.601562"/>
      <use xlink:href="#DejaVuSans-20" x="436.125"/>
      <use xlink:href="#DejaVuSans-4c" x="467.912109"/>
      <use xlink:href="#DejaVuSans-61" x="523.625"/>
      <use xlink:href="#DejaVuSans-67" x="584.904297"/>
      <use xlink:href="#DejaVuSans-72" x="648.380859"/>
      <use xlink:href="#DejaVuSans-61" x="689.494141"/>
      <use xlink:href="#DejaVuSans-6e" x="750.773438"/>
      <use xlink:href="#DejaVuSans-67" x="814.152344"/>
      <use xlink:href="#DejaVuSans-65" x="877.628906"/>
      <use xlink:href="#DejaVuSans-2c" x="939.152344"/>
      <use xlink:href="#DejaVuSans-20" x="970.939453"/>
      <use xlink:href="#DejaVuSans-74" x="1002.726562"/>
      <use xlink:href="#DejaVuSans-3d" x="1041.935547"/>
      <use xlink:href="#DejaVuSans-30" x="1125.724609"/>
      <use xlink:href="#DejaVuSans-2e" x="1189.347656"/>
      <use xlink:href="#DejaVuSans-32" x="1221.134766"/>
      <use xlink:href="#DejaVuSans-35" x="1284.757812"/>
     </g>
    </g>
    <g id="line2d_87">
     <path d="M 99 325.865938 
L 109 325.865938 
L 119 325.865938 
" style="fill: none; stroke: #008000; stroke-width: 1.5; stroke-linecap: square"/>
    </g>
    <g id="text_21">
     <!-- Erreur d'approximation, t=0.125 -->
     <g transform="translate(127 329.365938) scale(0.1 -0.1)">
      <use xlink:href="#DejaVuSans-45"/>
      <use xlink:href="#DejaVuSans-72" x="63.183594"/>
      <use xlink:href="#DejaVuSans-72" x="102.546875"/>
      <use xlink:href="#DejaVuSans-65" x="141.410156"/>
      <use xlink:href="#DejaVuSans-75" x="202.933594"/>
      <use xlink:href="#DejaVuSans-72" x="266.3125"/>
      <use xlink:href="#DejaVuSans-20" x="307.425781"/>
      <use xlink:href="#DejaVuSans-64" x="339.212891"/>
      <use xlink:href="#DejaVuSans-27" x="402.689453"/>
      <use xlink:href="#DejaVuSans-61" x="430.179688"/>
      <use xlink:href="#DejaVuSans-70" x="491.458984"/>
      <use xlink:href="#DejaVuSans-70" x="554.935547"/>
      <use xlink:href="#DejaVuSans-72" x="618.412109"/>
      <use xlink:href="#DejaVuSans-6f" x="657.275391"/>
      <use xlink:href="#DejaVuSans-78" x="715.332031"/>
      <use xlink:href="#DejaVuSans-69" x="774.511719"/>
      <use xlink:href="#DejaVuSans-6d" x="802.294922"/>
      <use xlink:href="#DejaVuSans-61" x="899.707031"/>
      <use xlink:href="#DejaVuSans-74" x="960.986328"/>
      <use xlink:href="#DejaVuSans-69" x="1000.195312"/>
      <use xlink:href="#DejaVuSans-6f" x="1027.978516"/>
      <use xlink:href="#DejaVuSans-6e" x="1089.160156"/>
      <use xlink:href="#DejaVuSans-2c" x="1152.539062"/>
      <use xlink:href="#DejaVuSans-20" x="1184.326172"/>
      <use xlink:href="#DejaVuSans-74" x="1216.113281"/>
      <use xlink:href="#DejaVuSans-3d" x="1255.322266"/>
      <use xlink:href="#DejaVuSans-30" x="1339.111328"/>
      <use xlink:href="#DejaVuSans-2e" x="1402.734375"/>
      <use xlink:href="#DejaVuSans-31" x="1434.521484"/>
      <use xlink:href="#DejaVuSans-32" x="1498.144531"/>
      <use xlink:href="#DejaVuSans-35" x="1561.767578"/>
     </g>
    </g>
    <g id="line2d_88">
     <path d="M 99 340.544062 
L 109 340.544062 
L 119 340.544062 
" style="fill: none; stroke-dasharray: 5.55,2.4; stroke-dashoffset: 0; stroke: #008000; stroke-width: 1.5"/>
    </g>
    <g id="text_22">
     <!-- Reste de Lagrange, t=0.125 -->
     <g transform="translate(127 344.044062) scale(0.1 -0.1)">
      <use xlink:href="#DejaVuSans-52"/>
      <use xlink:href="#DejaVuSans-65" x="64.982422"/>
      <use xlink:href="#DejaVuSans-73" x="126.505859"/>
      <use xlink:href="#DejaVuSans-74" x="178.605469"/>
      <use xlink:href="#DejaVuSans-65" x="217.814453"/>
      <use xlink:href="#DejaVuSans-20" x="279.337891"/>
      <use xlink:href="#DejaVuSans-64" x="311.125"/>
      <use xlink:href="#DejaVuSans-65" x="374.601562"/>
      <use xlink:href="#DejaVuSans-20" x="436.125"/>
      <use xlink:href="#DejaVuSans-4c" x="467.912109"/>
      <use xlink:href="#DejaVuSans-61" x="523.625"/>
      <use xlink:href="#DejaVuSans-67" x="584.904297"/>
      <use xlink:href="#DejaVuSans-72" x="648.380859"/>
      <use xlink:href="#DejaVuSans-61" x="689.494141"/>
      <use xlink:href="#DejaVuSans-6e" x="750.773438"/>
      <use xlink:href="#DejaVuSans-67" x="814.152344"/>
      <use xlink:href="#DejaVuSans-65" x="877.628906"/>
      <use xlink:href="#DejaVuSans-2c" x="939.152344"/>
      <use xlink:href="#DejaVuSans-20" x="970.939453"/>
      <use xlink:href="#DejaVuSans-74" x="1002.726562"/>
      <use xlink:href="#DejaVuSans-3d" x="1041.935547"/>
      <use xlink:href="#DejaVuSans-30" x="1125.724609"/>
      <use xlink:href="#DejaVuSans-2e" x="1189.347656"/>
      <use xlink:href="#DejaVuSans-31" x="1221.134766"/>
      <use xlink:href="#DejaVuSans-32" x="1284.757812"/>
      <use xlink:href="#DejaVuSans-35" x="1348.380859"/>
     </g>
    </g>
    <g id="line2d_89">
     <path d="M 99 355.222188 
L 109 355.222188 
L 119 355.222188 
" style="fill: none; stroke: #ffa500; stroke-width: 1.5; stroke-linecap: square"/>
    </g>
    <g id="text_23">
     <!-- Erreur d'approximation, t=0.0625 -->
     <g transform="translate(127 358.722188) scale(0.1 -0.1)">
      <use xlink:href="#DejaVuSans-45"/>
      <use xlink:href="#DejaVuSans-72" x="63.183594"/>
      <use xlink:href="#DejaVuSans-72" x="102.546875"/>
      <use xlink:href="#DejaVuSans-65" x="141.410156"/>
      <use xlink:href="#DejaVuSans-75" x="202.933594"/>
      <use xlink:href="#DejaVuSans-72" x="266.3125"/>
      <use xlink:href="#DejaVuSans-20" x="307.425781"/>
      <use xlink:href="#DejaVuSans-64" x="339.212891"/>
      <use xlink:href="#DejaVuSans-27" x="402.689453"/>
      <use xlink:href="#DejaVuSans-61" x="430.179688"/>
      <use xlink:href="#DejaVuSans-70" x="491.458984"/>
      <use xlink:href="#DejaVuSans-70" x="554.935547"/>
      <use xlink:href="#DejaVuSans-72" x="618.412109"/>
      <use xlink:href="#DejaVuSans-6f" x="657.275391"/>
      <use xlink:href="#DejaVuSans-78" x="715.332031"/>
      <use xlink:href="#DejaVuSans-69" x="774.511719"/>
      <use xlink:href="#DejaVuSans-6d" x="802.294922"/>
      <use xlink:href="#DejaVuSans-61" x="899.707031"/>
      <use xlink:href="#DejaVuSans-74" x="960.986328"/>
      <use xlink:href="#DejaVuSans-69" x="1000.195312"/>
      <use xlink:href="#DejaVuSans-6f" x="1027.978516"/>
      <use xlink:href="#DejaVuSans-6e" x="1089.160156"/>
      <use xlink:href="#DejaVuSans-2c" x="1152.539062"/>
      <use xlink:href="#DejaVuSans-20" x="1184.326172"/>
      <use xlink:href="#DejaVuSans-74" x="1216.113281"/>
      <use xlink:href="#DejaVuSans-3d" x="1255.322266"/>
      <use xlink:href="#DejaVuSans-30" x="1339.111328"/>
      <use xlink:href="#DejaVuSans-2e" x="1402.734375"/>
      <use xlink:href="#DejaVuSans-30" x="1434.521484"/>
      <use xlink:href="#DejaVuSans-36" x="1498.144531"/>
      <use xlink:href="#DejaVuSans-32" x="1561.767578"/>
      <use xlink:href="#DejaVuSans-35" x="1625.390625"/>
     </g>
    </g>
    <g id="line2d_90">
     <path d="M 99 369.900313 
L 109 369.900313 
L 119 369.900313 
" style="fill: none; stroke-dasharray: 5.55,2.4; stroke-dashoffset: 0; stroke: #ffa500; stroke-width: 1.5"/>
    </g>
    <g id="text_24">
     <!-- Reste de Lagrange, t=0.0625 -->
     <g transform="translate(127 373.400313) scale(0.1 -0.1)">
      <use xlink:href="#DejaVuSans-52"/>
      <use xlink:href="#DejaVuSans-65" x="64.982422"/>
      <use xlink:href="#DejaVuSans-73" x="126.505859"/>
      <use xlink:href="#DejaVuSans-74" x="178.605469"/>
      <use xlink:href="#DejaVuSans-65" x="217.814453"/>
      <use xlink:href="#DejaVuSans-20" x="279.337891"/>
      <use xlink:href="#DejaVuSans-64" x="311.125"/>
      <use xlink:href="#DejaVuSans-65" x="374.601562"/>
      <use xlink:href="#DejaVuSans-20" x="436.125"/>
      <use xlink:href="#DejaVuSans-4c" x="467.912109"/>
      <use xlink:href="#DejaVuSans-61" x="523.625"/>
      <use xlink:href="#DejaVuSans-67" x="584.904297"/>
      <use xlink:href="#DejaVuSans-72" x="648.380859"/>
      <use xlink:href="#DejaVuSans-61" x="689.494141"/>
      <use xlink:href="#DejaVuSans-6e" x="750.773438"/>
      <use xlink:href="#DejaVuSans-67" x="814.152344"/>
      <use xlink:href="#DejaVuSans-65" x="877.628906"/>
      <use xlink:href="#DejaVuSans-2c" x="939.152344"/>
      <use xlink:href="#DejaVuSans-20" x="970.939453"/>
      <use xlink:href="#DejaVuSans-74" x="1002.726562"/>
      <use xlink:href="#DejaVuSans-3d" x="1041.935547"/>
      <use xlink:href="#DejaVuSans-30" x="1125.724609"/>
      <use xlink:href="#DejaVuSans-2e" x="1189.347656"/>
      <use xlink:href="#DejaVuSans-30" x="1221.134766"/>
      <use xlink:href="#DejaVuSans-36" x="1284.757812"/>
      <use xlink:href="#DejaVuSans-32" x="1348.380859"/>
      <use xlink:href="#DejaVuSans-35" x="1412.003906"/>
     </g>
    </g>
   </g>
  </g>
 </g>
 <defs>
  <clipPath id="p97a8c47120">
   <rect x="90" y="51.84" width="558" height="332.64"/>
  </clipPath>
 </defs>
</svg>
