<?xml version="1.0" encoding="utf-8" standalone="no"?>
<!DOCTYPE svg PUBLIC "-//W3C//DTD SVG 1.1//EN"
  "http://www.w3.org/Graphics/SVG/1.1/DTD/svg11.dtd">
<svg xmlns:xlink="http://www.w3.org/1999/xlink" width="720pt" height="432pt" viewBox="0 0 720 432" xmlns="http://www.w3.org/2000/svg" version="1.1">
 <metadata>
  <rdf:RDF xmlns:dc="http://purl.org/dc/elements/1.1/" xmlns:cc="http://creativecommons.org/ns#" xmlns:rdf="http://www.w3.org/1999/02/22-rdf-syntax-ns#">
   <cc:Work>
    <dc:type rdf:resource="http://purl.org/dc/dcmitype/StillImage"/>
    <dc:date>2024-11-02T15:47:03.398993</dc:date>
    <dc:format>image/svg+xml</dc:format>
    <dc:creator>
     <cc:Agent>
      <dc:title>Matplotlib v3.9.2, https://matplotlib.org/</dc:title>
     </cc:Agent>
    </dc:creator>
   </cc:Work>
  </rdf:RDF>
 </metadata>
 <defs>
  <style type="text/css">*{stroke-linejoin: round; stroke-linecap: butt}</style>
 </defs>
 <g id="figure_1">
  <g id="patch_1">
   <path d="M 0 432 
L 720 432 
L 720 0 
L 0 0 
z
" style="fill: #ffffff"/>
  </g>
  <g id="axes_1">
   <g id="patch_2">
    <path d="M 90 384.48 
L 648 384.48 
L 648 51.84 
L 90 51.84 
z
" style="fill: #ffffff"/>
   </g>
   <g id="matplotlib.axis_1">
    <g id="xtick_1">
     <g id="line2d_1">
      <path d="M 115.363636 384.48 
L 115.363636 51.84 
" clip-path="url(#pb982e9fb91)" style="fill: none; stroke: #b0b0b0; stroke-width: 0.8; stroke-linecap: square"/>
     </g>
     <g id="line2d_2">
      <defs>
       <path id="m802577972a" d="M 0 0 
L 0 3.5 
" style="stroke: #000000; stroke-width: 0.8"/>
      </defs>
      <g>
       <use xlink:href="#m802577972a" x="115.363636" y="384.48" style="stroke: #000000; stroke-width: 0.8"/>
      </g>
     </g>
     <g id="text_1">
      <!-- −1.00 -->
      <g transform="translate(100.04098 399.078438) scale(0.1 -0.1)">
       <defs>
        <path id="DejaVuSans-2212" d="M 678 2272 
L 4684 2272 
L 4684 1741 
L 678 1741 
L 678 2272 
z
" transform="scale(0.015625)"/>
        <path id="DejaVuSans-31" d="M 794 531 
L 1825 531 
L 1825 4091 
L 703 3866 
L 703 4441 
L 1819 4666 
L 2450 4666 
L 2450 531 
L 3481 531 
L 3481 0 
L 794 0 
L 794 531 
z
" transform="scale(0.015625)"/>
        <path id="DejaVuSans-2e" d="M 684 794 
L 1344 794 
L 1344 0 
L 684 0 
L 684 794 
z
" transform="scale(0.015625)"/>
        <path id="DejaVuSans-30" d="M 2034 4250 
Q 1547 4250 1301 3770 
Q 1056 3291 1056 2328 
Q 1056 1369 1301 889 
Q 1547 409 2034 409 
Q 2525 409 2770 889 
Q 3016 1369 3016 2328 
Q 3016 3291 2770 3770 
Q 2525 4250 2034 4250 
z
M 2034 4750 
Q 2819 4750 3233 4129 
Q 3647 3509 3647 2328 
Q 3647 1150 3233 529 
Q 2819 -91 2034 -91 
Q 1250 -91 836 529 
Q 422 1150 422 2328 
Q 422 3509 836 4129 
Q 1250 4750 2034 4750 
z
" transform="scale(0.015625)"/>
       </defs>
       <use xlink:href="#DejaVuSans-2212"/>
       <use xlink:href="#DejaVuSans-31" x="83.789062"/>
       <use xlink:href="#DejaVuSans-2e" x="147.412109"/>
       <use xlink:href="#DejaVuSans-30" x="179.199219"/>
       <use xlink:href="#DejaVuSans-30" x="242.822266"/>
      </g>
     </g>
    </g>
    <g id="xtick_2">
     <g id="line2d_3">
      <path d="M 178.772727 384.48 
L 178.772727 51.84 
" clip-path="url(#pb982e9fb91)" style="fill: none; stroke: #b0b0b0; stroke-width: 0.8; stroke-linecap: square"/>
     </g>
     <g id="line2d_4">
      <g>
       <use xlink:href="#m802577972a" x="178.772727" y="384.48" style="stroke: #000000; stroke-width: 0.8"/>
      </g>
     </g>
     <g id="text_2">
      <!-- −0.75 -->
      <g transform="translate(163.450071 399.078438) scale(0.1 -0.1)">
       <defs>
        <path id="DejaVuSans-37" d="M 525 4666 
L 3525 4666 
L 3525 4397 
L 1831 0 
L 1172 0 
L 2766 4134 
L 525 4134 
L 525 4666 
z
" transform="scale(0.015625)"/>
        <path id="DejaVuSans-35" d="M 691 4666 
L 3169 4666 
L 3169 4134 
L 1269 4134 
L 1269 2991 
Q 1406 3038 1543 3061 
Q 1681 3084 1819 3084 
Q 2600 3084 3056 2656 
Q 3513 2228 3513 1497 
Q 3513 744 3044 326 
Q 2575 -91 1722 -91 
Q 1428 -91 1123 -41 
Q 819 9 494 109 
L 494 744 
Q 775 591 1075 516 
Q 1375 441 1709 441 
Q 2250 441 2565 725 
Q 2881 1009 2881 1497 
Q 2881 1984 2565 2268 
Q 2250 2553 1709 2553 
Q 1456 2553 1204 2497 
Q 953 2441 691 2322 
L 691 4666 
z
" transform="scale(0.015625)"/>
       </defs>
       <use xlink:href="#DejaVuSans-2212"/>
       <use xlink:href="#DejaVuSans-30" x="83.789062"/>
       <use xlink:href="#DejaVuSans-2e" x="147.412109"/>
       <use xlink:href="#DejaVuSans-37" x="179.199219"/>
       <use xlink:href="#DejaVuSans-35" x="242.822266"/>
      </g>
     </g>
    </g>
    <g id="xtick_3">
     <g id="line2d_5">
      <path d="M 242.181818 384.48 
L 242.181818 51.84 
" clip-path="url(#pb982e9fb91)" style="fill: none; stroke: #b0b0b0; stroke-width: 0.8; stroke-linecap: square"/>
     </g>
     <g id="line2d_6">
      <g>
       <use xlink:href="#m802577972a" x="242.181818" y="384.48" style="stroke: #000000; stroke-width: 0.8"/>
      </g>
     </g>
     <g id="text_3">
      <!-- −0.50 -->
      <g transform="translate(226.859162 399.078438) scale(0.1 -0.1)">
       <use xlink:href="#DejaVuSans-2212"/>
       <use xlink:href="#DejaVuSans-30" x="83.789062"/>
       <use xlink:href="#DejaVuSans-2e" x="147.412109"/>
       <use xlink:href="#DejaVuSans-35" x="179.199219"/>
       <use xlink:href="#DejaVuSans-30" x="242.822266"/>
      </g>
     </g>
    </g>
    <g id="xtick_4">
     <g id="line2d_7">
      <path d="M 305.590909 384.48 
L 305.590909 51.84 
" clip-path="url(#pb982e9fb91)" style="fill: none; stroke: #b0b0b0; stroke-width: 0.8; stroke-linecap: square"/>
     </g>
     <g id="line2d_8">
      <g>
       <use xlink:href="#m802577972a" x="305.590909" y="384.48" style="stroke: #000000; stroke-width: 0.8"/>
      </g>
     </g>
     <g id="text_4">
      <!-- −0.25 -->
      <g transform="translate(290.268253 399.078438) scale(0.1 -0.1)">
       <defs>
        <path id="DejaVuSans-32" d="M 1228 531 
L 3431 531 
L 3431 0 
L 469 0 
L 469 531 
Q 828 903 1448 1529 
Q 2069 2156 2228 2338 
Q 2531 2678 2651 2914 
Q 2772 3150 2772 3378 
Q 2772 3750 2511 3984 
Q 2250 4219 1831 4219 
Q 1534 4219 1204 4116 
Q 875 4013 500 3803 
L 500 4441 
Q 881 4594 1212 4672 
Q 1544 4750 1819 4750 
Q 2544 4750 2975 4387 
Q 3406 4025 3406 3419 
Q 3406 3131 3298 2873 
Q 3191 2616 2906 2266 
Q 2828 2175 2409 1742 
Q 1991 1309 1228 531 
z
" transform="scale(0.015625)"/>
       </defs>
       <use xlink:href="#DejaVuSans-2212"/>
       <use xlink:href="#DejaVuSans-30" x="83.789062"/>
       <use xlink:href="#DejaVuSans-2e" x="147.412109"/>
       <use xlink:href="#DejaVuSans-32" x="179.199219"/>
       <use xlink:href="#DejaVuSans-35" x="242.822266"/>
      </g>
     </g>
    </g>
    <g id="xtick_5">
     <g id="line2d_9">
      <path d="M 369 384.48 
L 369 51.84 
" clip-path="url(#pb982e9fb91)" style="fill: none; stroke: #b0b0b0; stroke-width: 0.8; stroke-linecap: square"/>
     </g>
     <g id="line2d_10">
      <g>
       <use xlink:href="#m802577972a" x="369" y="384.48" style="stroke: #000000; stroke-width: 0.8"/>
      </g>
     </g>
     <g id="text_5">
      <!-- 0.00 -->
      <g transform="translate(357.867188 399.078438) scale(0.1 -0.1)">
       <use xlink:href="#DejaVuSans-30"/>
       <use xlink:href="#DejaVuSans-2e" x="63.623047"/>
       <use xlink:href="#DejaVuSans-30" x="95.410156"/>
       <use xlink:href="#DejaVuSans-30" x="159.033203"/>
      </g>
     </g>
    </g>
    <g id="xtick_6">
     <g id="line2d_11">
      <path d="M 432.409091 384.48 
L 432.409091 51.84 
" clip-path="url(#pb982e9fb91)" style="fill: none; stroke: #b0b0b0; stroke-width: 0.8; stroke-linecap: square"/>
     </g>
     <g id="line2d_12">
      <g>
       <use xlink:href="#m802577972a" x="432.409091" y="384.48" style="stroke: #000000; stroke-width: 0.8"/>
      </g>
     </g>
     <g id="text_6">
      <!-- 0.25 -->
      <g transform="translate(421.276278 399.078438) scale(0.1 -0.1)">
       <use xlink:href="#DejaVuSans-30"/>
       <use xlink:href="#DejaVuSans-2e" x="63.623047"/>
       <use xlink:href="#DejaVuSans-32" x="95.410156"/>
       <use xlink:href="#DejaVuSans-35" x="159.033203"/>
      </g>
     </g>
    </g>
    <g id="xtick_7">
     <g id="line2d_13">
      <path d="M 495.818182 384.48 
L 495.818182 51.84 
" clip-path="url(#pb982e9fb91)" style="fill: none; stroke: #b0b0b0; stroke-width: 0.8; stroke-linecap: square"/>
     </g>
     <g id="line2d_14">
      <g>
       <use xlink:href="#m802577972a" x="495.818182" y="384.48" style="stroke: #000000; stroke-width: 0.8"/>
      </g>
     </g>
     <g id="text_7">
      <!-- 0.50 -->
      <g transform="translate(484.685369 399.078438) scale(0.1 -0.1)">
       <use xlink:href="#DejaVuSans-30"/>
       <use xlink:href="#DejaVuSans-2e" x="63.623047"/>
       <use xlink:href="#DejaVuSans-35" x="95.410156"/>
       <use xlink:href="#DejaVuSans-30" x="159.033203"/>
      </g>
     </g>
    </g>
    <g id="xtick_8">
     <g id="line2d_15">
      <path d="M 559.227273 384.48 
L 559.227273 51.84 
" clip-path="url(#pb982e9fb91)" style="fill: none; stroke: #b0b0b0; stroke-width: 0.8; stroke-linecap: square"/>
     </g>
     <g id="line2d_16">
      <g>
       <use xlink:href="#m802577972a" x="559.227273" y="384.48" style="stroke: #000000; stroke-width: 0.8"/>
      </g>
     </g>
     <g id="text_8">
      <!-- 0.75 -->
      <g transform="translate(548.09446 399.078438) scale(0.1 -0.1)">
       <use xlink:href="#DejaVuSans-30"/>
       <use xlink:href="#DejaVuSans-2e" x="63.623047"/>
       <use xlink:href="#DejaVuSans-37" x="95.410156"/>
       <use xlink:href="#DejaVuSans-35" x="159.033203"/>
      </g>
     </g>
    </g>
    <g id="xtick_9">
     <g id="line2d_17">
      <path d="M 622.636364 384.48 
L 622.636364 51.84 
" clip-path="url(#pb982e9fb91)" style="fill: none; stroke: #b0b0b0; stroke-width: 0.8; stroke-linecap: square"/>
     </g>
     <g id="line2d_18">
      <g>
       <use xlink:href="#m802577972a" x="622.636364" y="384.48" style="stroke: #000000; stroke-width: 0.8"/>
      </g>
     </g>
     <g id="text_9">
      <!-- 1.00 -->
      <g transform="translate(611.503551 399.078438) scale(0.1 -0.1)">
       <use xlink:href="#DejaVuSans-31"/>
       <use xlink:href="#DejaVuSans-2e" x="63.623047"/>
       <use xlink:href="#DejaVuSans-30" x="95.410156"/>
       <use xlink:href="#DejaVuSans-30" x="159.033203"/>
      </g>
     </g>
    </g>
    <g id="text_10">
     <!-- x -->
     <g transform="translate(366.040625 412.756563) scale(0.1 -0.1)">
      <defs>
       <path id="DejaVuSans-78" d="M 3513 3500 
L 2247 1797 
L 3578 0 
L 2900 0 
L 1881 1375 
L 863 0 
L 184 0 
L 1544 1831 
L 300 3500 
L 978 3500 
L 1906 2253 
L 2834 3500 
L 3513 3500 
z
" transform="scale(0.015625)"/>
      </defs>
      <use xlink:href="#DejaVuSans-78"/>
     </g>
    </g>
   </g>
   <g id="matplotlib.axis_2">
    <g id="ytick_1">
     <g id="line2d_19">
      <path d="M 90 359.66851 
L 648 359.66851 
" clip-path="url(#pb982e9fb91)" style="fill: none; stroke: #b0b0b0; stroke-width: 0.8; stroke-linecap: square"/>
     </g>
     <g id="line2d_20">
      <defs>
       <path id="mace95c9f6f" d="M 0 0 
L -3.5 0 
" style="stroke: #000000; stroke-width: 0.8"/>
      </defs>
      <g>
       <use xlink:href="#mace95c9f6f" x="90" y="359.66851" style="stroke: #000000; stroke-width: 0.8"/>
      </g>
     </g>
     <g id="text_11">
      <!-- $\mathdefault{10^{-6}}$ -->
      <g transform="translate(59.5 363.467728) scale(0.1 -0.1)">
       <defs>
        <path id="DejaVuSans-36" d="M 2113 2584 
Q 1688 2584 1439 2293 
Q 1191 2003 1191 1497 
Q 1191 994 1439 701 
Q 1688 409 2113 409 
Q 2538 409 2786 701 
Q 3034 994 3034 1497 
Q 3034 2003 2786 2293 
Q 2538 2584 2113 2584 
z
M 3366 4563 
L 3366 3988 
Q 3128 4100 2886 4159 
Q 2644 4219 2406 4219 
Q 1781 4219 1451 3797 
Q 1122 3375 1075 2522 
Q 1259 2794 1537 2939 
Q 1816 3084 2150 3084 
Q 2853 3084 3261 2657 
Q 3669 2231 3669 1497 
Q 3669 778 3244 343 
Q 2819 -91 2113 -91 
Q 1303 -91 875 529 
Q 447 1150 447 2328 
Q 447 3434 972 4092 
Q 1497 4750 2381 4750 
Q 2619 4750 2861 4703 
Q 3103 4656 3366 4563 
z
" transform="scale(0.015625)"/>
       </defs>
       <use xlink:href="#DejaVuSans-31" transform="translate(0 0.765625)"/>
       <use xlink:href="#DejaVuSans-30" transform="translate(63.623047 0.765625)"/>
       <use xlink:href="#DejaVuSans-2212" transform="translate(128.203125 39.046875) scale(0.7)"/>
       <use xlink:href="#DejaVuSans-36" transform="translate(186.855469 39.046875) scale(0.7)"/>
      </g>
     </g>
    </g>
    <g id="ytick_2">
     <g id="line2d_21">
      <path d="M 90 307.606538 
L 648 307.606538 
" clip-path="url(#pb982e9fb91)" style="fill: none; stroke: #b0b0b0; stroke-width: 0.8; stroke-linecap: square"/>
     </g>
     <g id="line2d_22">
      <g>
       <use xlink:href="#mace95c9f6f" x="90" y="307.606538" style="stroke: #000000; stroke-width: 0.8"/>
      </g>
     </g>
     <g id="text_12">
      <!-- $\mathdefault{10^{-5}}$ -->
      <g transform="translate(59.5 311.405757) scale(0.1 -0.1)">
       <use xlink:href="#DejaVuSans-31" transform="translate(0 0.684375)"/>
       <use xlink:href="#DejaVuSans-30" transform="translate(63.623047 0.684375)"/>
       <use xlink:href="#DejaVuSans-2212" transform="translate(128.203125 38.965625) scale(0.7)"/>
       <use xlink:href="#DejaVuSans-35" transform="translate(186.855469 38.965625) scale(0.7)"/>
      </g>
     </g>
    </g>
    <g id="ytick_3">
     <g id="line2d_23">
      <path d="M 90 255.544567 
L 648 255.544567 
" clip-path="url(#pb982e9fb91)" style="fill: none; stroke: #b0b0b0; stroke-width: 0.8; stroke-linecap: square"/>
     </g>
     <g id="line2d_24">
      <g>
       <use xlink:href="#mace95c9f6f" x="90" y="255.544567" style="stroke: #000000; stroke-width: 0.8"/>
      </g>
     </g>
     <g id="text_13">
      <!-- $\mathdefault{10^{-4}}$ -->
      <g transform="translate(59.5 259.343785) scale(0.1 -0.1)">
       <defs>
        <path id="DejaVuSans-34" d="M 2419 4116 
L 825 1625 
L 2419 1625 
L 2419 4116 
z
M 2253 4666 
L 3047 4666 
L 3047 1625 
L 3713 1625 
L 3713 1100 
L 3047 1100 
L 3047 0 
L 2419 0 
L 2419 1100 
L 313 1100 
L 313 1709 
L 2253 4666 
z
" transform="scale(0.015625)"/>
       </defs>
       <use xlink:href="#DejaVuSans-31" transform="translate(0 0.684375)"/>
       <use xlink:href="#DejaVuSans-30" transform="translate(63.623047 0.684375)"/>
       <use xlink:href="#DejaVuSans-2212" transform="translate(128.203125 38.965625) scale(0.7)"/>
       <use xlink:href="#DejaVuSans-34" transform="translate(186.855469 38.965625) scale(0.7)"/>
      </g>
     </g>
    </g>
    <g id="ytick_4">
     <g id="line2d_25">
      <path d="M 90 203.482595 
L 648 203.482595 
" clip-path="url(#pb982e9fb91)" style="fill: none; stroke: #b0b0b0; stroke-width: 0.8; stroke-linecap: square"/>
     </g>
     <g id="line2d_26">
      <g>
       <use xlink:href="#mace95c9f6f" x="90" y="203.482595" style="stroke: #000000; stroke-width: 0.8"/>
      </g>
     </g>
     <g id="text_14">
      <!-- $\mathdefault{10^{-3}}$ -->
      <g transform="translate(59.5 207.281814) scale(0.1 -0.1)">
       <defs>
        <path id="DejaVuSans-33" d="M 2597 2516 
Q 3050 2419 3304 2112 
Q 3559 1806 3559 1356 
Q 3559 666 3084 287 
Q 2609 -91 1734 -91 
Q 1441 -91 1130 -33 
Q 819 25 488 141 
L 488 750 
Q 750 597 1062 519 
Q 1375 441 1716 441 
Q 2309 441 2620 675 
Q 2931 909 2931 1356 
Q 2931 1769 2642 2001 
Q 2353 2234 1838 2234 
L 1294 2234 
L 1294 2753 
L 1863 2753 
Q 2328 2753 2575 2939 
Q 2822 3125 2822 3475 
Q 2822 3834 2567 4026 
Q 2313 4219 1838 4219 
Q 1578 4219 1281 4162 
Q 984 4106 628 3988 
L 628 4550 
Q 988 4650 1302 4700 
Q 1616 4750 1894 4750 
Q 2613 4750 3031 4423 
Q 3450 4097 3450 3541 
Q 3450 3153 3228 2886 
Q 3006 2619 2597 2516 
z
" transform="scale(0.015625)"/>
       </defs>
       <use xlink:href="#DejaVuSans-31" transform="translate(0 0.765625)"/>
       <use xlink:href="#DejaVuSans-30" transform="translate(63.623047 0.765625)"/>
       <use xlink:href="#DejaVuSans-2212" transform="translate(128.203125 39.046875) scale(0.7)"/>
       <use xlink:href="#DejaVuSans-33" transform="translate(186.855469 39.046875) scale(0.7)"/>
      </g>
     </g>
    </g>
    <g id="ytick_5">
     <g id="line2d_27">
      <path d="M 90 151.420624 
L 648 151.420624 
" clip-path="url(#pb982e9fb91)" style="fill: none; stroke: #b0b0b0; stroke-width: 0.8; stroke-linecap: square"/>
     </g>
     <g id="line2d_28">
      <g>
       <use xlink:href="#mace95c9f6f" x="90" y="151.420624" style="stroke: #000000; stroke-width: 0.8"/>
      </g>
     </g>
     <g id="text_15">
      <!-- $\mathdefault{10^{-2}}$ -->
      <g transform="translate(59.5 155.219843) scale(0.1 -0.1)">
       <use xlink:href="#DejaVuSans-31" transform="translate(0 0.765625)"/>
       <use xlink:href="#DejaVuSans-30" transform="translate(63.623047 0.765625)"/>
       <use xlink:href="#DejaVuSans-2212" transform="translate(128.203125 39.046875) scale(0.7)"/>
       <use xlink:href="#DejaVuSans-32" transform="translate(186.855469 39.046875) scale(0.7)"/>
      </g>
     </g>
    </g>
    <g id="ytick_6">
     <g id="line2d_29">
      <path d="M 90 99.358652 
L 648 99.358652 
" clip-path="url(#pb982e9fb91)" style="fill: none; stroke: #b0b0b0; stroke-width: 0.8; stroke-linecap: square"/>
     </g>
     <g id="line2d_30">
      <g>
       <use xlink:href="#mace95c9f6f" x="90" y="99.358652" style="stroke: #000000; stroke-width: 0.8"/>
      </g>
     </g>
     <g id="text_16">
      <!-- $\mathdefault{10^{-1}}$ -->
      <g transform="translate(59.5 103.157871) scale(0.1 -0.1)">
       <use xlink:href="#DejaVuSans-31" transform="translate(0 0.684375)"/>
       <use xlink:href="#DejaVuSans-30" transform="translate(63.623047 0.684375)"/>
       <use xlink:href="#DejaVuSans-2212" transform="translate(128.203125 38.965625) scale(0.7)"/>
       <use xlink:href="#DejaVuSans-31" transform="translate(186.855469 38.965625) scale(0.7)"/>
      </g>
     </g>
    </g>
    <g id="ytick_7">
     <g id="line2d_31">
      <defs>
       <path id="m20f4b6ba22" d="M 0 0 
L -2 0 
" style="stroke: #000000; stroke-width: 0.6"/>
      </defs>
      <g>
       <use xlink:href="#m20f4b6ba22" x="90" y="380.386051" style="stroke: #000000; stroke-width: 0.6"/>
      </g>
     </g>
    </g>
    <g id="ytick_8">
     <g id="line2d_32">
      <g>
       <use xlink:href="#m20f4b6ba22" x="90" y="375.340725" style="stroke: #000000; stroke-width: 0.6"/>
      </g>
     </g>
    </g>
    <g id="ytick_9">
     <g id="line2d_33">
      <g>
       <use xlink:href="#m20f4b6ba22" x="90" y="371.218393" style="stroke: #000000; stroke-width: 0.6"/>
      </g>
     </g>
    </g>
    <g id="ytick_10">
     <g id="line2d_34">
      <g>
       <use xlink:href="#m20f4b6ba22" x="90" y="367.733011" style="stroke: #000000; stroke-width: 0.6"/>
      </g>
     </g>
    </g>
    <g id="ytick_11">
     <g id="line2d_35">
      <g>
       <use xlink:href="#m20f4b6ba22" x="90" y="364.713836" style="stroke: #000000; stroke-width: 0.6"/>
      </g>
     </g>
    </g>
    <g id="ytick_12">
     <g id="line2d_36">
      <g>
       <use xlink:href="#m20f4b6ba22" x="90" y="362.050735" style="stroke: #000000; stroke-width: 0.6"/>
      </g>
     </g>
    </g>
    <g id="ytick_13">
     <g id="line2d_37">
      <g>
       <use xlink:href="#m20f4b6ba22" x="90" y="343.996295" style="stroke: #000000; stroke-width: 0.6"/>
      </g>
     </g>
    </g>
    <g id="ytick_14">
     <g id="line2d_38">
      <g>
       <use xlink:href="#m20f4b6ba22" x="90" y="334.828636" style="stroke: #000000; stroke-width: 0.6"/>
      </g>
     </g>
    </g>
    <g id="ytick_15">
     <g id="line2d_39">
      <g>
       <use xlink:href="#m20f4b6ba22" x="90" y="328.32408" style="stroke: #000000; stroke-width: 0.6"/>
      </g>
     </g>
    </g>
    <g id="ytick_16">
     <g id="line2d_40">
      <g>
       <use xlink:href="#m20f4b6ba22" x="90" y="323.278753" style="stroke: #000000; stroke-width: 0.6"/>
      </g>
     </g>
    </g>
    <g id="ytick_17">
     <g id="line2d_41">
      <g>
       <use xlink:href="#m20f4b6ba22" x="90" y="319.156421" style="stroke: #000000; stroke-width: 0.6"/>
      </g>
     </g>
    </g>
    <g id="ytick_18">
     <g id="line2d_42">
      <g>
       <use xlink:href="#m20f4b6ba22" x="90" y="315.67104" style="stroke: #000000; stroke-width: 0.6"/>
      </g>
     </g>
    </g>
    <g id="ytick_19">
     <g id="line2d_43">
      <g>
       <use xlink:href="#m20f4b6ba22" x="90" y="312.651865" style="stroke: #000000; stroke-width: 0.6"/>
      </g>
     </g>
    </g>
    <g id="ytick_20">
     <g id="line2d_44">
      <g>
       <use xlink:href="#m20f4b6ba22" x="90" y="309.988763" style="stroke: #000000; stroke-width: 0.6"/>
      </g>
     </g>
    </g>
    <g id="ytick_21">
     <g id="line2d_45">
      <g>
       <use xlink:href="#m20f4b6ba22" x="90" y="291.934323" style="stroke: #000000; stroke-width: 0.6"/>
      </g>
     </g>
    </g>
    <g id="ytick_22">
     <g id="line2d_46">
      <g>
       <use xlink:href="#m20f4b6ba22" x="90" y="282.766665" style="stroke: #000000; stroke-width: 0.6"/>
      </g>
     </g>
    </g>
    <g id="ytick_23">
     <g id="line2d_47">
      <g>
       <use xlink:href="#m20f4b6ba22" x="90" y="276.262108" style="stroke: #000000; stroke-width: 0.6"/>
      </g>
     </g>
    </g>
    <g id="ytick_24">
     <g id="line2d_48">
      <g>
       <use xlink:href="#m20f4b6ba22" x="90" y="271.216782" style="stroke: #000000; stroke-width: 0.6"/>
      </g>
     </g>
    </g>
    <g id="ytick_25">
     <g id="line2d_49">
      <g>
       <use xlink:href="#m20f4b6ba22" x="90" y="267.09445" style="stroke: #000000; stroke-width: 0.6"/>
      </g>
     </g>
    </g>
    <g id="ytick_26">
     <g id="line2d_50">
      <g>
       <use xlink:href="#m20f4b6ba22" x="90" y="263.609068" style="stroke: #000000; stroke-width: 0.6"/>
      </g>
     </g>
    </g>
    <g id="ytick_27">
     <g id="line2d_51">
      <g>
       <use xlink:href="#m20f4b6ba22" x="90" y="260.589893" style="stroke: #000000; stroke-width: 0.6"/>
      </g>
     </g>
    </g>
    <g id="ytick_28">
     <g id="line2d_52">
      <g>
       <use xlink:href="#m20f4b6ba22" x="90" y="257.926792" style="stroke: #000000; stroke-width: 0.6"/>
      </g>
     </g>
    </g>
    <g id="ytick_29">
     <g id="line2d_53">
      <g>
       <use xlink:href="#m20f4b6ba22" x="90" y="239.872352" style="stroke: #000000; stroke-width: 0.6"/>
      </g>
     </g>
    </g>
    <g id="ytick_30">
     <g id="line2d_54">
      <g>
       <use xlink:href="#m20f4b6ba22" x="90" y="230.704694" style="stroke: #000000; stroke-width: 0.6"/>
      </g>
     </g>
    </g>
    <g id="ytick_31">
     <g id="line2d_55">
      <g>
       <use xlink:href="#m20f4b6ba22" x="90" y="224.200137" style="stroke: #000000; stroke-width: 0.6"/>
      </g>
     </g>
    </g>
    <g id="ytick_32">
     <g id="line2d_56">
      <g>
       <use xlink:href="#m20f4b6ba22" x="90" y="219.15481" style="stroke: #000000; stroke-width: 0.6"/>
      </g>
     </g>
    </g>
    <g id="ytick_33">
     <g id="line2d_57">
      <g>
       <use xlink:href="#m20f4b6ba22" x="90" y="215.032479" style="stroke: #000000; stroke-width: 0.6"/>
      </g>
     </g>
    </g>
    <g id="ytick_34">
     <g id="line2d_58">
      <g>
       <use xlink:href="#m20f4b6ba22" x="90" y="211.547097" style="stroke: #000000; stroke-width: 0.6"/>
      </g>
     </g>
    </g>
    <g id="ytick_35">
     <g id="line2d_59">
      <g>
       <use xlink:href="#m20f4b6ba22" x="90" y="208.527922" style="stroke: #000000; stroke-width: 0.6"/>
      </g>
     </g>
    </g>
    <g id="ytick_36">
     <g id="line2d_60">
      <g>
       <use xlink:href="#m20f4b6ba22" x="90" y="205.86482" style="stroke: #000000; stroke-width: 0.6"/>
      </g>
     </g>
    </g>
    <g id="ytick_37">
     <g id="line2d_61">
      <g>
       <use xlink:href="#m20f4b6ba22" x="90" y="187.81038" style="stroke: #000000; stroke-width: 0.6"/>
      </g>
     </g>
    </g>
    <g id="ytick_38">
     <g id="line2d_62">
      <g>
       <use xlink:href="#m20f4b6ba22" x="90" y="178.642722" style="stroke: #000000; stroke-width: 0.6"/>
      </g>
     </g>
    </g>
    <g id="ytick_39">
     <g id="line2d_63">
      <g>
       <use xlink:href="#m20f4b6ba22" x="90" y="172.138165" style="stroke: #000000; stroke-width: 0.6"/>
      </g>
     </g>
    </g>
    <g id="ytick_40">
     <g id="line2d_64">
      <g>
       <use xlink:href="#m20f4b6ba22" x="90" y="167.092839" style="stroke: #000000; stroke-width: 0.6"/>
      </g>
     </g>
    </g>
    <g id="ytick_41">
     <g id="line2d_65">
      <g>
       <use xlink:href="#m20f4b6ba22" x="90" y="162.970507" style="stroke: #000000; stroke-width: 0.6"/>
      </g>
     </g>
    </g>
    <g id="ytick_42">
     <g id="line2d_66">
      <g>
       <use xlink:href="#m20f4b6ba22" x="90" y="159.485125" style="stroke: #000000; stroke-width: 0.6"/>
      </g>
     </g>
    </g>
    <g id="ytick_43">
     <g id="line2d_67">
      <g>
       <use xlink:href="#m20f4b6ba22" x="90" y="156.46595" style="stroke: #000000; stroke-width: 0.6"/>
      </g>
     </g>
    </g>
    <g id="ytick_44">
     <g id="line2d_68">
      <g>
       <use xlink:href="#m20f4b6ba22" x="90" y="153.802849" style="stroke: #000000; stroke-width: 0.6"/>
      </g>
     </g>
    </g>
    <g id="ytick_45">
     <g id="line2d_69">
      <g>
       <use xlink:href="#m20f4b6ba22" x="90" y="135.748409" style="stroke: #000000; stroke-width: 0.6"/>
      </g>
     </g>
    </g>
    <g id="ytick_46">
     <g id="line2d_70">
      <g>
       <use xlink:href="#m20f4b6ba22" x="90" y="126.580751" style="stroke: #000000; stroke-width: 0.6"/>
      </g>
     </g>
    </g>
    <g id="ytick_47">
     <g id="line2d_71">
      <g>
       <use xlink:href="#m20f4b6ba22" x="90" y="120.076194" style="stroke: #000000; stroke-width: 0.6"/>
      </g>
     </g>
    </g>
    <g id="ytick_48">
     <g id="line2d_72">
      <g>
       <use xlink:href="#m20f4b6ba22" x="90" y="115.030867" style="stroke: #000000; stroke-width: 0.6"/>
      </g>
     </g>
    </g>
    <g id="ytick_49">
     <g id="line2d_73">
      <g>
       <use xlink:href="#m20f4b6ba22" x="90" y="110.908536" style="stroke: #000000; stroke-width: 0.6"/>
      </g>
     </g>
    </g>
    <g id="ytick_50">
     <g id="line2d_74">
      <g>
       <use xlink:href="#m20f4b6ba22" x="90" y="107.423154" style="stroke: #000000; stroke-width: 0.6"/>
      </g>
     </g>
    </g>
    <g id="ytick_51">
     <g id="line2d_75">
      <g>
       <use xlink:href="#m20f4b6ba22" x="90" y="104.403979" style="stroke: #000000; stroke-width: 0.6"/>
      </g>
     </g>
    </g>
    <g id="ytick_52">
     <g id="line2d_76">
      <g>
       <use xlink:href="#m20f4b6ba22" x="90" y="101.740878" style="stroke: #000000; stroke-width: 0.6"/>
      </g>
     </g>
    </g>
    <g id="ytick_53">
     <g id="line2d_77">
      <g>
       <use xlink:href="#m20f4b6ba22" x="90" y="83.686437" style="stroke: #000000; stroke-width: 0.6"/>
      </g>
     </g>
    </g>
    <g id="ytick_54">
     <g id="line2d_78">
      <g>
       <use xlink:href="#m20f4b6ba22" x="90" y="74.518779" style="stroke: #000000; stroke-width: 0.6"/>
      </g>
     </g>
    </g>
    <g id="ytick_55">
     <g id="line2d_79">
      <g>
       <use xlink:href="#m20f4b6ba22" x="90" y="68.014222" style="stroke: #000000; stroke-width: 0.6"/>
      </g>
     </g>
    </g>
    <g id="ytick_56">
     <g id="line2d_80">
      <g>
       <use xlink:href="#m20f4b6ba22" x="90" y="62.968896" style="stroke: #000000; stroke-width: 0.6"/>
      </g>
     </g>
    </g>
    <g id="ytick_57">
     <g id="line2d_81">
      <g>
       <use xlink:href="#m20f4b6ba22" x="90" y="58.846564" style="stroke: #000000; stroke-width: 0.6"/>
      </g>
     </g>
    </g>
    <g id="ytick_58">
     <g id="line2d_82">
      <g>
       <use xlink:href="#m20f4b6ba22" x="90" y="55.361182" style="stroke: #000000; stroke-width: 0.6"/>
      </g>
     </g>
    </g>
    <g id="ytick_59">
     <g id="line2d_83">
      <g>
       <use xlink:href="#m20f4b6ba22" x="90" y="52.342007" style="stroke: #000000; stroke-width: 0.6"/>
      </g>
     </g>
    </g>
    <g id="text_17">
     <!-- |f(x) - p(x)| (échelle logarithmique) -->
     <g transform="translate(53.142187 305.111562) rotate(-90) scale(0.1 -0.1)">
      <defs>
       <path id="DejaVuSans-7c" d="M 1344 4891 
L 1344 -1509 
L 813 -1509 
L 813 4891 
L 1344 4891 
z
" transform="scale(0.015625)"/>
       <path id="DejaVuSans-66" d="M 2375 4863 
L 2375 4384 
L 1825 4384 
Q 1516 4384 1395 4259 
Q 1275 4134 1275 3809 
L 1275 3500 
L 2222 3500 
L 2222 3053 
L 1275 3053 
L 1275 0 
L 697 0 
L 697 3053 
L 147 3053 
L 147 3500 
L 697 3500 
L 697 3744 
Q 697 4328 969 4595 
Q 1241 4863 1831 4863 
L 2375 4863 
z
" transform="scale(0.015625)"/>
       <path id="DejaVuSans-28" d="M 1984 4856 
Q 1566 4138 1362 3434 
Q 1159 2731 1159 2009 
Q 1159 1288 1364 580 
Q 1569 -128 1984 -844 
L 1484 -844 
Q 1016 -109 783 600 
Q 550 1309 550 2009 
Q 550 2706 781 3412 
Q 1013 4119 1484 4856 
L 1984 4856 
z
" transform="scale(0.015625)"/>
       <path id="DejaVuSans-29" d="M 513 4856 
L 1013 4856 
Q 1481 4119 1714 3412 
Q 1947 2706 1947 2009 
Q 1947 1309 1714 600 
Q 1481 -109 1013 -844 
L 513 -844 
Q 928 -128 1133 580 
Q 1338 1288 1338 2009 
Q 1338 2731 1133 3434 
Q 928 4138 513 4856 
z
" transform="scale(0.015625)"/>
       <path id="DejaVuSans-20" transform="scale(0.015625)"/>
       <path id="DejaVuSans-2d" d="M 313 2009 
L 1997 2009 
L 1997 1497 
L 313 1497 
L 313 2009 
z
" transform="scale(0.015625)"/>
       <path id="DejaVuSans-70" d="M 1159 525 
L 1159 -1331 
L 581 -1331 
L 581 3500 
L 1159 3500 
L 1159 2969 
Q 1341 3281 1617 3432 
Q 1894 3584 2278 3584 
Q 2916 3584 3314 3078 
Q 3713 2572 3713 1747 
Q 3713 922 3314 415 
Q 2916 -91 2278 -91 
Q 1894 -91 1617 61 
Q 1341 213 1159 525 
z
M 3116 1747 
Q 3116 2381 2855 2742 
Q 2594 3103 2138 3103 
Q 1681 3103 1420 2742 
Q 1159 2381 1159 1747 
Q 1159 1113 1420 752 
Q 1681 391 2138 391 
Q 2594 391 2855 752 
Q 3116 1113 3116 1747 
z
" transform="scale(0.015625)"/>
       <path id="DejaVuSans-e9" d="M 3597 1894 
L 3597 1613 
L 953 1613 
Q 991 1019 1311 708 
Q 1631 397 2203 397 
Q 2534 397 2845 478 
Q 3156 559 3463 722 
L 3463 178 
Q 3153 47 2828 -22 
Q 2503 -91 2169 -91 
Q 1331 -91 842 396 
Q 353 884 353 1716 
Q 353 2575 817 3079 
Q 1281 3584 2069 3584 
Q 2775 3584 3186 3129 
Q 3597 2675 3597 1894 
z
M 3022 2063 
Q 3016 2534 2758 2815 
Q 2500 3097 2075 3097 
Q 1594 3097 1305 2825 
Q 1016 2553 972 2059 
L 3022 2063 
z
M 2466 5119 
L 3088 5119 
L 2070 3944 
L 1591 3944 
L 2466 5119 
z
" transform="scale(0.015625)"/>
       <path id="DejaVuSans-63" d="M 3122 3366 
L 3122 2828 
Q 2878 2963 2633 3030 
Q 2388 3097 2138 3097 
Q 1578 3097 1268 2742 
Q 959 2388 959 1747 
Q 959 1106 1268 751 
Q 1578 397 2138 397 
Q 2388 397 2633 464 
Q 2878 531 3122 666 
L 3122 134 
Q 2881 22 2623 -34 
Q 2366 -91 2075 -91 
Q 1284 -91 818 406 
Q 353 903 353 1747 
Q 353 2603 823 3093 
Q 1294 3584 2113 3584 
Q 2378 3584 2631 3529 
Q 2884 3475 3122 3366 
z
" transform="scale(0.015625)"/>
       <path id="DejaVuSans-68" d="M 3513 2113 
L 3513 0 
L 2938 0 
L 2938 2094 
Q 2938 2591 2744 2837 
Q 2550 3084 2163 3084 
Q 1697 3084 1428 2787 
Q 1159 2491 1159 1978 
L 1159 0 
L 581 0 
L 581 4863 
L 1159 4863 
L 1159 2956 
Q 1366 3272 1645 3428 
Q 1925 3584 2291 3584 
Q 2894 3584 3203 3211 
Q 3513 2838 3513 2113 
z
" transform="scale(0.015625)"/>
       <path id="DejaVuSans-65" d="M 3597 1894 
L 3597 1613 
L 953 1613 
Q 991 1019 1311 708 
Q 1631 397 2203 397 
Q 2534 397 2845 478 
Q 3156 559 3463 722 
L 3463 178 
Q 3153 47 2828 -22 
Q 2503 -91 2169 -91 
Q 1331 -91 842 396 
Q 353 884 353 1716 
Q 353 2575 817 3079 
Q 1281 3584 2069 3584 
Q 2775 3584 3186 3129 
Q 3597 2675 3597 1894 
z
M 3022 2063 
Q 3016 2534 2758 2815 
Q 2500 3097 2075 3097 
Q 1594 3097 1305 2825 
Q 1016 2553 972 2059 
L 3022 2063 
z
" transform="scale(0.015625)"/>
       <path id="DejaVuSans-6c" d="M 603 4863 
L 1178 4863 
L 1178 0 
L 603 0 
L 603 4863 
z
" transform="scale(0.015625)"/>
       <path id="DejaVuSans-6f" d="M 1959 3097 
Q 1497 3097 1228 2736 
Q 959 2375 959 1747 
Q 959 1119 1226 758 
Q 1494 397 1959 397 
Q 2419 397 2687 759 
Q 2956 1122 2956 1747 
Q 2956 2369 2687 2733 
Q 2419 3097 1959 3097 
z
M 1959 3584 
Q 2709 3584 3137 3096 
Q 3566 2609 3566 1747 
Q 3566 888 3137 398 
Q 2709 -91 1959 -91 
Q 1206 -91 779 398 
Q 353 888 353 1747 
Q 353 2609 779 3096 
Q 1206 3584 1959 3584 
z
" transform="scale(0.015625)"/>
       <path id="DejaVuSans-67" d="M 2906 1791 
Q 2906 2416 2648 2759 
Q 2391 3103 1925 3103 
Q 1463 3103 1205 2759 
Q 947 2416 947 1791 
Q 947 1169 1205 825 
Q 1463 481 1925 481 
Q 2391 481 2648 825 
Q 2906 1169 2906 1791 
z
M 3481 434 
Q 3481 -459 3084 -895 
Q 2688 -1331 1869 -1331 
Q 1566 -1331 1297 -1286 
Q 1028 -1241 775 -1147 
L 775 -588 
Q 1028 -725 1275 -790 
Q 1522 -856 1778 -856 
Q 2344 -856 2625 -561 
Q 2906 -266 2906 331 
L 2906 616 
Q 2728 306 2450 153 
Q 2172 0 1784 0 
Q 1141 0 747 490 
Q 353 981 353 1791 
Q 353 2603 747 3093 
Q 1141 3584 1784 3584 
Q 2172 3584 2450 3431 
Q 2728 3278 2906 2969 
L 2906 3500 
L 3481 3500 
L 3481 434 
z
" transform="scale(0.015625)"/>
       <path id="DejaVuSans-61" d="M 2194 1759 
Q 1497 1759 1228 1600 
Q 959 1441 959 1056 
Q 959 750 1161 570 
Q 1363 391 1709 391 
Q 2188 391 2477 730 
Q 2766 1069 2766 1631 
L 2766 1759 
L 2194 1759 
z
M 3341 1997 
L 3341 0 
L 2766 0 
L 2766 531 
Q 2569 213 2275 61 
Q 1981 -91 1556 -91 
Q 1019 -91 701 211 
Q 384 513 384 1019 
Q 384 1609 779 1909 
Q 1175 2209 1959 2209 
L 2766 2209 
L 2766 2266 
Q 2766 2663 2505 2880 
Q 2244 3097 1772 3097 
Q 1472 3097 1187 3025 
Q 903 2953 641 2809 
L 641 3341 
Q 956 3463 1253 3523 
Q 1550 3584 1831 3584 
Q 2591 3584 2966 3190 
Q 3341 2797 3341 1997 
z
" transform="scale(0.015625)"/>
       <path id="DejaVuSans-72" d="M 2631 2963 
Q 2534 3019 2420 3045 
Q 2306 3072 2169 3072 
Q 1681 3072 1420 2755 
Q 1159 2438 1159 1844 
L 1159 0 
L 581 0 
L 581 3500 
L 1159 3500 
L 1159 2956 
Q 1341 3275 1631 3429 
Q 1922 3584 2338 3584 
Q 2397 3584 2469 3576 
Q 2541 3569 2628 3553 
L 2631 2963 
z
" transform="scale(0.015625)"/>
       <path id="DejaVuSans-69" d="M 603 3500 
L 1178 3500 
L 1178 0 
L 603 0 
L 603 3500 
z
M 603 4863 
L 1178 4863 
L 1178 4134 
L 603 4134 
L 603 4863 
z
" transform="scale(0.015625)"/>
       <path id="DejaVuSans-74" d="M 1172 4494 
L 1172 3500 
L 2356 3500 
L 2356 3053 
L 1172 3053 
L 1172 1153 
Q 1172 725 1289 603 
Q 1406 481 1766 481 
L 2356 481 
L 2356 0 
L 1766 0 
Q 1100 0 847 248 
Q 594 497 594 1153 
L 594 3053 
L 172 3053 
L 172 3500 
L 594 3500 
L 594 4494 
L 1172 4494 
z
" transform="scale(0.015625)"/>
       <path id="DejaVuSans-6d" d="M 3328 2828 
Q 3544 3216 3844 3400 
Q 4144 3584 4550 3584 
Q 5097 3584 5394 3201 
Q 5691 2819 5691 2113 
L 5691 0 
L 5113 0 
L 5113 2094 
Q 5113 2597 4934 2840 
Q 4756 3084 4391 3084 
Q 3944 3084 3684 2787 
Q 3425 2491 3425 1978 
L 3425 0 
L 2847 0 
L 2847 2094 
Q 2847 2600 2669 2842 
Q 2491 3084 2119 3084 
Q 1678 3084 1418 2786 
Q 1159 2488 1159 1978 
L 1159 0 
L 581 0 
L 581 3500 
L 1159 3500 
L 1159 2956 
Q 1356 3278 1631 3431 
Q 1906 3584 2284 3584 
Q 2666 3584 2933 3390 
Q 3200 3197 3328 2828 
z
" transform="scale(0.015625)"/>
       <path id="DejaVuSans-71" d="M 947 1747 
Q 947 1113 1208 752 
Q 1469 391 1925 391 
Q 2381 391 2643 752 
Q 2906 1113 2906 1747 
Q 2906 2381 2643 2742 
Q 2381 3103 1925 3103 
Q 1469 3103 1208 2742 
Q 947 2381 947 1747 
z
M 2906 525 
Q 2725 213 2448 61 
Q 2172 -91 1784 -91 
Q 1150 -91 751 415 
Q 353 922 353 1747 
Q 353 2572 751 3078 
Q 1150 3584 1784 3584 
Q 2172 3584 2448 3432 
Q 2725 3281 2906 2969 
L 2906 3500 
L 3481 3500 
L 3481 -1331 
L 2906 -1331 
L 2906 525 
z
" transform="scale(0.015625)"/>
       <path id="DejaVuSans-75" d="M 544 1381 
L 544 3500 
L 1119 3500 
L 1119 1403 
Q 1119 906 1312 657 
Q 1506 409 1894 409 
Q 2359 409 2629 706 
Q 2900 1003 2900 1516 
L 2900 3500 
L 3475 3500 
L 3475 0 
L 2900 0 
L 2900 538 
Q 2691 219 2414 64 
Q 2138 -91 1772 -91 
Q 1169 -91 856 284 
Q 544 659 544 1381 
z
M 1991 3584 
L 1991 3584 
z
" transform="scale(0.015625)"/>
      </defs>
      <use xlink:href="#DejaVuSans-7c"/>
      <use xlink:href="#DejaVuSans-66" x="33.691406"/>
      <use xlink:href="#DejaVuSans-28" x="68.896484"/>
      <use xlink:href="#DejaVuSans-78" x="107.910156"/>
      <use xlink:href="#DejaVuSans-29" x="167.089844"/>
      <use xlink:href="#DejaVuSans-20" x="206.103516"/>
      <use xlink:href="#DejaVuSans-2d" x="237.890625"/>
      <use xlink:href="#DejaVuSans-20" x="273.974609"/>
      <use xlink:href="#DejaVuSans-70" x="305.761719"/>
      <use xlink:href="#DejaVuSans-28" x="369.238281"/>
      <use xlink:href="#DejaVuSans-78" x="408.251953"/>
      <use xlink:href="#DejaVuSans-29" x="467.431641"/>
      <use xlink:href="#DejaVuSans-7c" x="506.445312"/>
      <use xlink:href="#DejaVuSans-20" x="540.136719"/>
      <use xlink:href="#DejaVuSans-28" x="571.923828"/>
      <use xlink:href="#DejaVuSans-e9" x="610.9375"/>
      <use xlink:href="#DejaVuSans-63" x="672.460938"/>
      <use xlink:href="#DejaVuSans-68" x="727.441406"/>
      <use xlink:href="#DejaVuSans-65" x="790.820312"/>
      <use xlink:href="#DejaVuSans-6c" x="852.34375"/>
      <use xlink:href="#DejaVuSans-6c" x="880.126953"/>
      <use xlink:href="#DejaVuSans-65" x="907.910156"/>
      <use xlink:href="#DejaVuSans-20" x="969.433594"/>
      <use xlink:href="#DejaVuSans-6c" x="1001.220703"/>
      <use xlink:href="#DejaVuSans-6f" x="1029.003906"/>
      <use xlink:href="#DejaVuSans-67" x="1090.185547"/>
      <use xlink:href="#DejaVuSans-61" x="1153.662109"/>
      <use xlink:href="#DejaVuSans-72" x="1214.941406"/>
      <use xlink:href="#DejaVuSans-69" x="1256.054688"/>
      <use xlink:href="#DejaVuSans-74" x="1283.837891"/>
      <use xlink:href="#DejaVuSans-68" x="1323.046875"/>
      <use xlink:href="#DejaVuSans-6d" x="1386.425781"/>
      <use xlink:href="#DejaVuSans-69" x="1483.837891"/>
      <use xlink:href="#DejaVuSans-71" x="1511.621094"/>
      <use xlink:href="#DejaVuSans-75" x="1575.097656"/>
      <use xlink:href="#DejaVuSans-65" x="1638.476562"/>
      <use xlink:href="#DejaVuSans-29" x="1700"/>
     </g>
    </g>
   </g>
   <g id="line2d_84">
    <path d="M 115.363636 90.472373 
L 128.56593 94.153962 
L 141.260442 97.923001 
L 152.939394 101.61442 
L 164.110565 105.372511 
L 174.773956 109.19471 
L 184.929566 113.077725 
L 194.069615 116.803368 
L 202.701884 120.551365 
L 210.826372 124.311438 
L 218.443079 128.071248 
L 225.552007 131.816007 
L 232.153153 135.528045 
L 238.7543 139.502302 
L 244.847666 143.442625 
L 250.433251 147.324121 
L 255.511057 151.116537 
L 260.081081 154.783335 
L 264.651106 158.735772 
L 268.71335 162.535929 
L 272.775594 166.663758 
L 276.330057 170.604243 
L 279.37674 174.282031 
L 282.423423 178.302749 
L 284.962326 181.978527 
L 287.501229 186.027003 
L 290.040131 190.554431 
L 292.071253 194.62764 
L 294.102375 199.237668 
L 295.625717 203.16505 
L 297.149058 207.639695 
L 298.6724 212.875957 
L 299.687961 216.96403 
L 300.703522 221.737658 
L 301.719083 227.515626 
L 302.734644 234.9118 
L 303.242424 239.599086 
L 303.750205 245.3706 
L 304.257985 252.933473 
L 304.765766 264.043378 
L 305.273546 285.916138 
L 305.781327 297.736255 
L 306.289107 268.631238 
L 306.796888 256.547684 
L 307.304668 248.878308 
L 308.320229 238.913725 
L 309.33579 232.326538 
L 310.351351 227.474598 
L 311.366912 223.684208 
L 312.382473 220.612476 
L 313.398034 218.060977 
L 314.921376 214.947185 
L 316.444717 212.466089 
L 317.968059 210.457812 
L 319.4914 208.818898 
L 321.014742 207.478784 
L 322.538084 206.387416 
L 324.569206 205.257378 
L 326.600328 204.443281 
L 328.63145 203.901926 
L 330.662572 203.603084 
L 332.693694 203.525835 
L 334.724816 203.656331 
L 336.755938 203.986452 
L 338.78706 204.513054 
L 340.818182 205.237667 
L 342.849304 206.16659 
L 344.880426 207.311396 
L 346.911548 208.689943 
L 348.94267 210.328091 
L 350.973792 212.262523 
L 353.004914 214.5454 
L 355.036036 217.252312 
L 356.559378 219.626896 
L 358.082719 222.37247 
L 359.606061 225.591237 
L 361.129402 229.440507 
L 362.144963 232.478602 
L 363.160524 236.030523 
L 364.176085 240.288799 
L 365.191646 245.583917 
L 366.207207 252.558669 
L 366.714988 257.081311 
L 367.222768 262.751939 
L 367.730549 270.35092 
L 368.238329 281.894984 
L 368.74611 306.731948 
L 369.25389 306.731948 
L 369.761671 281.894984 
L 370.269451 270.35092 
L 370.777232 262.751939 
L 371.792793 252.558669 
L 372.808354 245.583917 
L 373.823915 240.288799 
L 374.839476 236.030523 
L 375.855037 232.478602 
L 377.378378 228.074227 
L 378.90172 224.457528 
L 380.425061 221.410598 
L 381.948403 218.79812 
L 383.979525 215.839886 
L 386.010647 213.356357 
L 388.041769 211.255446 
L 390.072891 209.47457 
L 392.104013 207.970049 
L 394.135135 206.711055 
L 396.166257 205.675999 
L 398.197379 204.850331 
L 400.228501 204.225206 
L 402.259623 203.796746 
L 404.290745 203.565745 
L 406.321867 203.537773 
L 408.352989 203.723685 
L 410.384111 204.140652 
L 412.415233 204.813897 
L 414.446355 205.779554 
L 415.969697 206.726047 
L 417.493038 207.895708 
L 419.01638 209.329028 
L 420.539722 211.081926 
L 422.063063 213.234169 
L 423.586405 215.904571 
L 424.601966 218.060977 
L 425.617527 220.612476 
L 426.633088 223.684208 
L 427.648649 227.474598 
L 428.66421 232.326538 
L 429.679771 238.913725 
L 430.187551 243.288423 
L 430.695332 248.878308 
L 431.203112 256.547684 
L 431.710893 268.631238 
L 432.218673 297.736255 
L 432.726454 285.916138 
L 433.234234 264.043378 
L 433.742015 252.933473 
L 434.249795 245.3706 
L 435.265356 234.9118 
L 436.280917 227.515626 
L 437.296478 221.737658 
L 438.312039 216.96403 
L 439.835381 211.027476 
L 441.358722 206.076354 
L 442.882064 201.802932 
L 444.913186 196.855191 
L 446.944308 192.533191 
L 448.97543 188.677234 
L 451.514333 184.357027 
L 454.053235 180.468169 
L 457.099918 176.244711 
L 460.146601 172.404689 
L 463.701065 168.310994 
L 467.255528 164.55468 
L 471.317772 160.598774 
L 475.380016 156.940518 
L 479.950041 153.121279 
L 485.027846 149.186187 
L 490.105651 145.525011 
L 495.691237 141.766292 
L 501.784603 137.940079 
L 508.385749 134.071425 
L 515.494676 130.181112 
L 523.111384 126.286325 
L 531.235872 122.401238 
L 539.868141 118.537521 
L 549.00819 114.704763 
L 558.65602 110.910824 
L 568.81163 107.162132 
L 579.47502 103.463927 
L 590.646192 99.820458 
L 602.832924 96.084064 
L 615.527437 92.426314 
L 622.636364 90.472373 
L 622.636364 90.472373 
" clip-path="url(#pb982e9fb91)" style="fill: none; stroke: #0000ff; stroke-width: 1.5; stroke-linecap: square"/>
   </g>
   <g id="line2d_85">
    <path d="M 115.363636 68.330736 
L 131.104832 71.435101 
L 145.830467 74.561579 
L 159.540541 77.698672 
L 172.235053 80.831767 
L 183.914005 83.942474 
L 194.577396 87.007903 
L 204.225225 89.999888 
L 213.365274 93.06078 
L 221.997543 96.191853 
L 229.614251 99.18564 
L 236.723178 102.213655 
L 243.324324 105.267806 
L 249.41769 108.336942 
L 255.003276 111.40588 
L 260.081081 114.454168 
L 264.651106 117.454609 
L 268.71335 120.37161 
L 272.775594 123.578573 
L 276.330057 126.679856 
L 279.37674 129.61158 
L 282.423423 132.859762 
L 284.962326 135.870194 
L 287.501229 139.23245 
L 289.532351 142.244482 
L 291.563473 145.625722 
L 293.594595 149.49075 
L 295.117936 152.810749 
L 296.641278 156.617029 
L 298.164619 161.090905 
L 299.18018 164.587513 
L 300.195741 168.660093 
L 301.211302 173.549682 
L 302.226863 179.690289 
L 303.242424 187.992892 
L 303.750205 193.590303 
L 304.257985 200.977696 
L 304.765766 211.91072 
L 305.273546 233.605176 
L 305.781327 245.245545 
L 306.289107 215.959312 
L 306.796888 203.693051 
L 307.304668 195.839451 
L 308.320229 185.501775 
L 309.33579 178.535123 
L 310.351351 173.29713 
L 311.366912 169.11387 
L 312.382473 165.642211 
L 313.905815 161.355412 
L 315.429156 157.844279 
L 316.952498 154.885665 
L 318.475839 152.341148 
L 320.506962 149.438189 
L 322.538084 146.965862 
L 324.569206 144.828393 
L 327.108108 142.528217 
L 329.647011 140.558193 
L 332.185913 138.855241 
L 335.232596 137.100965 
L 338.279279 135.609061 
L 341.833743 134.14551 
L 345.388206 132.935334 
L 348.94267 131.943998 
L 353.004914 131.046895 
L 357.067158 130.375625 
L 361.129402 129.911429 
L 365.699427 129.62171 
L 370.269451 129.56943 
L 374.839476 129.75294 
L 379.4095 130.17807 
L 383.471744 130.769872 
L 387.533989 131.579606 
L 391.596233 132.631018 
L 395.150696 133.775608 
L 398.70516 135.162564 
L 401.751843 136.576821 
L 404.798526 138.238198 
L 407.337428 139.84783 
L 409.876331 141.704605 
L 412.415233 143.86368 
L 414.446355 145.85995 
L 416.477477 148.155046 
L 418.5086 150.82825 
L 420.031941 153.149679 
L 421.555283 155.820233 
L 423.078624 158.944519 
L 424.601966 162.683473 
L 425.617527 165.642211 
L 426.633088 169.11387 
L 427.648649 173.29713 
L 428.66421 178.535123 
L 429.679771 185.501775 
L 430.187551 190.063803 
L 430.695332 195.839451 
L 431.203112 203.693051 
L 431.710893 215.959312 
L 432.218673 245.245545 
L 432.726454 233.605176 
L 433.234234 211.91072 
L 433.742015 200.977696 
L 434.249795 193.590303 
L 435.265356 183.478352 
L 436.280917 176.423679 
L 437.296478 170.982024 
L 438.312039 166.539672 
L 439.835381 161.090905 
L 441.358722 156.617029 
L 442.882064 152.810749 
L 444.405405 149.49075 
L 446.436527 145.625722 
L 448.467649 142.244482 
L 451.006552 138.52743 
L 453.545455 135.242642 
L 456.084357 132.29313 
L 459.13104 129.102898 
L 462.177723 126.217414 
L 465.732187 123.159577 
L 469.794431 119.992378 
L 473.856675 117.107562 
L 478.426699 114.136764 
L 483.504505 111.115434 
L 489.09009 108.07082 
L 495.183456 105.023531 
L 501.784603 101.988961 
L 508.89353 98.978487 
L 516.510238 96.000426 
L 524.634726 93.06078 
L 533.774775 89.999888 
L 543.422604 87.007903 
L 554.085995 83.942474 
L 565.257166 80.962196 
L 577.443898 77.940749 
L 590.646192 74.898713 
L 604.864046 71.852776 
L 620.097461 68.816332 
L 622.636364 68.330736 
L 622.636364 68.330736 
" clip-path="url(#pb982e9fb91)" style="fill: none; stroke-dasharray: 5.55,2.4; stroke-dashoffset: 0; stroke: #0000ff; stroke-width: 1.5"/>
   </g>
   <g id="line2d_86">
    <path d="M 115.363636 89.314805 
L 129.581491 93.148277 
L 142.783784 96.936004 
L 155.478296 100.810639 
L 167.157248 104.601444 
L 178.328419 108.455377 
L 188.99181 112.368027 
L 199.14742 116.333843 
L 208.79525 120.345916 
L 217.935299 124.395721 
L 226.567568 128.472818 
L 234.692056 132.56452 
L 242.308763 136.655526 
L 249.41769 140.727516 
L 256.018837 144.758735 
L 262.112203 148.723579 
L 268.205569 152.956083 
L 273.791155 157.105726 
L 278.86896 161.135927 
L 283.946765 165.44965 
L 288.51679 169.612746 
L 293.086814 174.086485 
L 297.149058 178.368756 
L 301.211302 182.991503 
L 304.765766 187.368262 
L 308.320229 192.117443 
L 311.366912 196.545982 
L 314.413595 201.378786 
L 316.952498 205.785323 
L 319.4914 210.621695 
L 322.030303 216.004471 
L 324.061425 220.820403 
L 326.092547 226.237564 
L 327.615889 230.823666 
L 329.13923 236.017382 
L 330.662572 242.057275 
L 331.678133 246.750649 
L 332.693694 252.217073 
L 333.709255 258.8352 
L 334.724816 267.367342 
L 335.232596 272.854538 
L 335.740377 279.76147 
L 336.248157 289.224271 
L 336.755938 304.753042 
L 337.263718 369.351219 
L 337.771499 308.667417 
L 338.279279 292.807103 
L 338.78706 283.958593 
L 339.29484 277.902975 
L 340.310401 269.778523 
L 341.325962 264.411845 
L 342.341523 260.565362 
L 343.357084 257.693484 
L 344.372645 255.507959 
L 345.388206 253.838743 
L 346.403767 252.577945 
L 347.419328 251.653661 
L 348.434889 251.016428 
L 349.45045 250.631688 
L 350.466011 250.475351 
L 351.481572 250.531114 
L 352.497133 250.788826 
L 353.512695 251.243534 
L 354.528256 251.895024 
L 355.543817 252.747773 
L 356.559378 253.811286 
L 357.574939 255.100907 
L 358.5905 256.639236 
L 359.606061 258.458474 
L 360.621622 260.604265 
L 361.637183 263.142172 
L 362.652744 266.169094 
L 363.668305 269.834818 
L 364.683866 274.386716 
L 365.699427 280.275501 
L 366.714988 288.461115 
L 367.222768 294.096762 
L 367.730549 301.669567 
L 368.238329 313.196207 
L 368.74611 338.024468 
L 369.25389 338.024468 
L 369.761671 313.196207 
L 370.269451 301.669567 
L 370.777232 294.096762 
L 371.792793 283.982326 
L 372.808354 277.122258 
L 373.823915 271.978579 
L 374.839476 267.909718 
L 375.855037 264.586745 
L 376.870598 261.819066 
L 378.393939 258.458474 
L 379.917281 255.837231 
L 381.440622 253.811286 
L 382.963964 252.295772 
L 383.979525 251.544513 
L 384.995086 250.991677 
L 386.010647 250.63515 
L 387.026208 250.477484 
L 388.041769 250.526147 
L 389.05733 250.79421 
L 390.072891 251.301609 
L 391.088452 252.077248 
L 392.104013 253.162431 
L 393.119574 254.616619 
L 394.135135 256.527455 
L 395.150696 259.029386 
L 396.166257 262.341386 
L 397.181818 266.853329 
L 397.689599 269.778523 
L 398.197379 273.363034 
L 398.70516 277.902975 
L 399.21294 283.958593 
L 399.720721 292.807103 
L 400.228501 308.667417 
L 400.736282 369.351219 
L 401.244062 304.753042 
L 401.751843 289.224271 
L 402.259623 279.76147 
L 403.275184 267.367342 
L 404.290745 258.8352 
L 405.306306 252.217073 
L 406.321867 246.750649 
L 407.845209 239.929262 
L 409.36855 234.206468 
L 410.891892 229.236085 
L 412.923014 223.44251 
L 414.954136 218.347394 
L 416.985258 213.77622 
L 419.524161 208.629121 
L 422.063063 203.976279 
L 425.109746 198.906473 
L 428.156429 194.286129 
L 431.203112 190.031824 
L 434.757576 185.450825 
L 438.312039 181.214221 
L 442.374283 176.726044 
L 446.436527 172.557581 
L 451.006552 168.192889 
L 455.576577 164.123207 
L 460.654382 159.898939 
L 466.239967 155.564491 
L 471.825553 151.513177 
L 477.918919 147.373991 
L 484.520066 143.177666 
L 491.121212 139.243011 
L 498.230139 135.26237 
L 505.846847 131.25736 
L 513.971335 127.246316 
L 522.603604 123.244665 
L 531.743653 119.26529 
L 541.391482 115.318875 
L 551.547093 111.414218 
L 562.210483 107.558511 
L 573.381654 103.757591 
L 585.060606 100.016149 
L 597.755119 96.189305 
L 610.957412 92.445864 
L 622.636364 89.314805 
L 622.636364 89.314805 
" clip-path="url(#pb982e9fb91)" style="fill: none; stroke: #008000; stroke-width: 1.5; stroke-linecap: square"/>
   </g>
   <g id="line2d_87">
    <path d="M 115.363636 67.22758 
L 132.628174 70.469825 
L 148.369369 73.647544 
L 163.095004 76.841888 
L 176.805078 80.039071 
L 189.49959 83.221914 
L 201.178542 86.36931 
L 212.349713 89.608261 
L 222.505324 92.778203 
L 232.153153 96.021692 
L 240.785422 99.147334 
L 248.90991 102.314534 
L 256.526618 105.516088 
L 263.635545 108.742482 
L 270.236691 111.981329 
L 276.330057 115.216686 
L 281.915643 118.428252 
L 286.993448 121.590454 
L 291.563473 124.671477 
L 296.133497 128.019101 
L 300.195741 131.264271 
L 303.750205 134.355522 
L 307.304668 137.732476 
L 310.351351 140.904451 
L 313.398034 144.393103 
L 315.936937 147.599944 
L 318.475839 151.148844 
L 321.014742 155.134606 
L 323.045864 158.731243 
L 325.076986 162.807464 
L 326.600328 166.27833 
L 328.123669 170.222169 
L 329.647011 174.808458 
L 331.170352 180.320334 
L 332.185913 184.75191 
L 333.201474 190.099784 
L 334.217035 196.88874 
L 335.232596 206.288174 
L 335.740377 212.853119 
L 336.248157 221.968653 
L 336.755938 237.144712 
L 337.263718 301.38456 
L 337.771499 240.336631 
L 338.279279 224.106203 
L 338.78706 214.881391 
L 339.29484 208.443075 
L 340.310401 199.533143 
L 341.325962 193.3526 
L 342.341523 188.661747 
L 343.357084 184.912625 
L 344.372645 181.814329 
L 345.895987 178.026383 
L 347.419328 174.976605 
L 348.94267 172.463124 
L 350.466011 170.359352 
L 351.989353 168.580897 
L 354.020475 166.616395 
L 356.051597 165.030676 
L 358.082719 163.758503 
L 360.113841 162.754638 
L 362.144963 161.987317 
L 364.176085 161.434383 
L 366.207207 161.080925 
L 368.238329 160.917849 
L 370.269451 160.941074 
L 372.300573 161.151176 
L 374.331695 161.553441 
L 376.362817 162.158321 
L 378.393939 162.982375 
L 380.425061 164.049894 
L 382.456183 165.39557 
L 384.487305 167.068887 
L 386.010647 168.580897 
L 387.533989 170.359352 
L 389.05733 172.463124 
L 390.580672 174.976605 
L 392.104013 178.026383 
L 393.119574 180.452361 
L 394.135135 183.29483 
L 395.150696 186.691416 
L 396.166257 190.863911 
L 397.181818 196.204692 
L 398.197379 203.513819 
L 398.70516 208.443075 
L 399.21294 214.881391 
L 399.720721 224.106203 
L 400.228501 240.336631 
L 400.736282 301.38456 
L 401.244062 237.144712 
L 401.751843 221.968653 
L 402.259623 212.853119 
L 403.275184 201.137843 
L 404.290745 193.264659 
L 405.306306 187.286721 
L 406.321867 182.442753 
L 407.845209 176.523856 
L 409.36855 171.668671 
L 410.891892 167.533597 
L 412.923014 162.807464 
L 414.954136 158.731243 
L 416.985258 155.134606 
L 419.524161 151.148844 
L 422.063063 147.599944 
L 424.601966 144.393103 
L 427.648649 140.904451 
L 430.695332 137.732476 
L 434.249795 134.355522 
L 437.804259 131.264271 
L 441.866503 128.019101 
L 446.436527 124.671477 
L 451.006552 121.590454 
L 456.084357 118.428252 
L 461.669943 115.216686 
L 467.763309 111.981329 
L 474.364455 108.742482 
L 481.473382 105.516088 
L 489.09009 102.314534 
L 497.214578 99.147334 
L 505.846847 96.021692 
L 514.986896 92.942963 
L 525.142506 89.761373 
L 535.805897 86.654013 
L 547.484848 83.486796 
L 560.179361 80.285388 
L 573.381654 77.185902 
L 587.599509 74.074673 
L 602.832924 70.967218 
L 619.589681 67.782839 
L 622.636364 67.22758 
L 622.636364 67.22758 
" clip-path="url(#pb982e9fb91)" style="fill: none; stroke-dasharray: 5.55,2.4; stroke-dashoffset: 0; stroke: #008000; stroke-width: 1.5"/>
   </g>
   <g id="line2d_88">
    <path d="M 115.363636 89.033624 
L 129.581491 92.834047 
L 142.783784 96.585239 
L 155.478296 100.418035 
L 167.665029 104.33098 
L 178.8362 108.143135 
L 189.49959 112.00753 
L 199.655201 115.917665 
L 209.30303 119.865576 
L 218.443079 123.841588 
L 227.075348 127.834031 
L 235.199836 131.82895 
L 242.816544 135.809786 
L 250.433251 140.048325 
L 257.542179 144.267767 
L 264.143325 148.444554 
L 270.236691 152.551014 
L 276.330057 156.931459 
L 281.915643 161.221047 
L 286.993448 165.380243 
L 292.071253 169.821766 
L 296.641278 174.095 
L 301.211302 178.668487 
L 305.273546 183.023467 
L 309.33579 187.693466 
L 313.398034 192.729842 
L 316.952498 197.488471 
L 320.506962 202.634395 
L 323.553645 207.408754 
L 326.600328 212.582122 
L 329.647011 218.23457 
L 332.185913 223.388592 
L 334.724816 229.037395 
L 337.263718 235.302454 
L 339.29484 240.875434 
L 341.325962 247.090872 
L 343.357084 254.155358 
L 344.880426 260.208247 
L 346.403767 267.165451 
L 347.927109 275.445361 
L 348.94267 282.083198 
L 349.958231 290.156009 
L 350.973792 300.729433 
L 351.481572 307.731406 
L 351.989353 316.96168 
L 352.497133 331.042235 
L 353.004914 366.391191 
L 354.020475 327.679591 
L 354.528256 318.466062 
L 355.036036 312.573349 
L 355.543817 308.414223 
L 356.051597 305.333055 
L 356.559378 302.995871 
L 357.067158 301.210184 
L 357.574939 299.855759 
L 358.082719 298.853297 
L 358.5905 298.148602 
L 359.09828 297.703893 
L 359.606061 297.49277 
L 360.113841 297.49717 
L 360.621622 297.705513 
L 361.129402 298.111608 
L 361.637183 298.714077 
L 362.144963 299.516207 
L 363.160524 301.757808 
L 364.176085 304.97728 
L 365.191646 309.468954 
L 366.207207 315.850278 
L 366.714988 320.149278 
L 367.222768 325.642776 
L 367.730549 333.109932 
L 368.238329 344.566594 
L 368.74611 369.36 
L 369.25389 369.36 
L 369.761671 344.566594 
L 370.269451 333.109932 
L 370.777232 325.642776 
L 371.792793 315.850278 
L 372.808354 309.468954 
L 373.823915 304.97728 
L 374.839476 301.757808 
L 375.855037 299.516207 
L 376.870598 298.111608 
L 377.378378 297.705513 
L 377.886159 297.49717 
L 378.393939 297.49277 
L 378.90172 297.703893 
L 379.4095 298.148602 
L 379.917281 298.853297 
L 380.425061 299.855759 
L 380.932842 301.210184 
L 381.440622 302.995871 
L 381.948403 305.333055 
L 382.456183 308.414223 
L 382.963964 312.573349 
L 383.471744 318.466062 
L 383.979525 327.679591 
L 384.995086 366.391191 
L 385.502867 331.042235 
L 386.010647 316.96168 
L 386.518428 307.731406 
L 387.533989 295.018994 
L 388.54955 285.894369 
L 389.565111 278.623176 
L 391.088452 269.749459 
L 392.611794 262.411183 
L 394.135135 256.089672 
L 396.166257 248.767078 
L 398.197379 242.362531 
L 400.228501 236.643743 
L 402.767404 230.236408 
L 405.306306 224.475483 
L 407.845209 219.230343 
L 410.891892 213.488405 
L 413.938575 208.241392 
L 416.985258 203.405178 
L 420.539722 198.198384 
L 424.094185 193.388233 
L 428.156429 188.301786 
L 432.218673 183.58905 
L 436.280917 179.197115 
L 440.850942 174.58757 
L 445.420966 170.282981 
L 450.498771 165.811067 
L 455.576577 161.625287 
L 461.162162 157.310038 
L 467.255528 152.905095 
L 473.348894 148.777122 
L 479.950041 144.579794 
L 487.058968 140.34088 
L 494.167895 136.359335 
L 501.784603 132.345939 
L 509.909091 128.320228 
L 518.54136 124.298774 
L 527.681409 120.295511 
L 537.329238 116.322056 
L 547.484848 112.388017 
L 558.148239 108.501277 
L 569.31941 104.668247 
L 580.998362 100.894095 
L 593.692875 97.032981 
L 606.895168 93.255484 
L 620.605242 89.562359 
L 622.636364 89.033624 
L 622.636364 89.033624 
" clip-path="url(#pb982e9fb91)" style="fill: none; stroke: #ffa500; stroke-width: 1.5; stroke-linecap: square"/>
   </g>
   <g id="line2d_89">
    <path d="M 115.363636 66.96 
L 132.628174 70.161268 
L 148.87715 73.397526 
L 164.110565 76.658711 
L 178.328419 79.93195 
L 191.530713 83.201038 
L 203.717445 86.445894 
L 214.888616 89.642017 
L 225.552007 92.921777 
L 235.199836 96.112063 
L 244.339885 99.360687 
L 252.972154 102.663167 
L 261.096642 106.013214 
L 268.71335 109.402281 
L 275.822277 112.819037 
L 282.423423 116.248749 
L 288.51679 119.672565 
L 294.102375 123.066738 
L 299.18018 126.401818 
L 304.257985 130.017525 
L 308.82801 133.556323 
L 312.890254 136.971554 
L 316.952498 140.690351 
L 320.506962 144.243186 
L 324.061425 148.134846 
L 327.108108 151.799175 
L 330.154791 155.838193 
L 332.693694 159.558387 
L 335.232596 163.683299 
L 337.263718 167.349049 
L 339.29484 171.428787 
L 341.325962 176.04488 
L 342.849304 179.969491 
L 344.372645 184.424072 
L 345.895987 189.602566 
L 347.419328 195.836079 
L 348.434889 200.870264 
L 349.45045 206.997106 
L 350.466011 214.916246 
L 350.973792 219.998909 
L 351.481572 226.355149 
L 351.989353 234.920677 
L 352.497133 248.31632 
L 353.004914 282.958938 
L 354.020475 242.764722 
L 354.528256 232.771716 
L 355.036036 226.071663 
L 356.051597 217.124606 
L 357.067158 211.155421 
L 358.082719 206.787818 
L 359.09828 203.431158 
L 360.113841 200.778036 
L 361.129402 198.648777 
L 362.144963 196.930029 
L 363.160524 195.546472 
L 364.176085 194.446333 
L 365.191646 193.593357 
L 366.207207 192.962125 
L 367.222768 192.535218 
L 368.238329 192.301485 
L 369.25389 192.255027 
L 370.269451 192.394688 
L 371.285012 192.72396 
L 372.300573 193.251275 
L 373.316134 193.990752 
L 374.331695 194.963539 
L 375.347256 196.200024 
L 376.362817 197.743475 
L 377.378378 199.656137 
L 378.393939 202.029921 
L 379.4095 205.006432 
L 380.425061 208.817995 
L 381.440622 213.883119 
L 382.456183 221.07527 
L 382.963964 226.071663 
L 383.471744 232.771716 
L 383.979525 242.764722 
L 384.995086 282.958938 
L 385.502867 248.31632 
L 386.010647 234.920677 
L 386.518428 226.355149 
L 387.533989 214.916246 
L 388.54955 206.997106 
L 389.565111 200.870264 
L 390.580672 195.836079 
L 392.104013 189.602566 
L 393.627355 184.424072 
L 395.150696 179.969491 
L 397.181818 174.831736 
L 399.21294 170.364214 
L 401.244062 166.397579 
L 403.782965 161.978508 
L 406.321867 158.026745 
L 408.86077 154.44501 
L 411.907453 150.539928 
L 414.954136 146.984267 
L 418.5086 143.196359 
L 422.063063 139.729021 
L 426.125307 136.091394 
L 430.187551 132.744033 
L 434.757576 129.269537 
L 439.835381 125.713846 
L 444.913186 122.429536 
L 450.498771 119.08294 
L 456.592138 115.703316 
L 463.193284 112.314388 
L 470.302211 108.935099 
L 477.918919 105.580344 
L 486.043407 102.261657 
L 494.675676 98.987803 
L 503.815725 95.765299 
L 513.463554 92.598844 
L 524.126945 89.341847 
L 535.298116 86.166336 
L 547.484848 82.94094 
L 560.179361 79.810848 
L 573.889435 76.658711 
L 588.61507 73.502507 
L 604.356265 70.356858 
L 621.113022 67.233488 
L 622.636364 66.96 
L 622.636364 66.96 
" clip-path="url(#pb982e9fb91)" style="fill: none; stroke-dasharray: 5.55,2.4; stroke-dashoffset: 0; stroke: #ffa500; stroke-width: 1.5"/>
   </g>
   <g id="patch_3">
    <path d="M 90 384.48 
L 90 51.84 
" style="fill: none; stroke: #000000; stroke-width: 0.8; stroke-linejoin: miter; stroke-linecap: square"/>
   </g>
   <g id="patch_4">
    <path d="M 648 384.48 
L 648 51.84 
" style="fill: none; stroke: #000000; stroke-width: 0.8; stroke-linejoin: miter; stroke-linecap: square"/>
   </g>
   <g id="patch_5">
    <path d="M 90 384.48 
L 648 384.48 
" style="fill: none; stroke: #000000; stroke-width: 0.8; stroke-linejoin: miter; stroke-linecap: square"/>
   </g>
   <g id="patch_6">
    <path d="M 90 51.84 
L 648 51.84 
" style="fill: none; stroke: #000000; stroke-width: 0.8; stroke-linejoin: miter; stroke-linecap: square"/>
   </g>
   <g id="text_18">
    <!-- Comparaison des erreurs d'approximation et des bornes théoriques de Lagrange pour n=1 -->
    <g transform="translate(96.137812 45.84) scale(0.12 -0.12)">
     <defs>
      <path id="DejaVuSans-43" d="M 4122 4306 
L 4122 3641 
Q 3803 3938 3442 4084 
Q 3081 4231 2675 4231 
Q 1875 4231 1450 3742 
Q 1025 3253 1025 2328 
Q 1025 1406 1450 917 
Q 1875 428 2675 428 
Q 3081 428 3442 575 
Q 3803 722 4122 1019 
L 4122 359 
Q 3791 134 3420 21 
Q 3050 -91 2638 -91 
Q 1578 -91 968 557 
Q 359 1206 359 2328 
Q 359 3453 968 4101 
Q 1578 4750 2638 4750 
Q 3056 4750 3426 4639 
Q 3797 4528 4122 4306 
z
" transform="scale(0.015625)"/>
      <path id="DejaVuSans-73" d="M 2834 3397 
L 2834 2853 
Q 2591 2978 2328 3040 
Q 2066 3103 1784 3103 
Q 1356 3103 1142 2972 
Q 928 2841 928 2578 
Q 928 2378 1081 2264 
Q 1234 2150 1697 2047 
L 1894 2003 
Q 2506 1872 2764 1633 
Q 3022 1394 3022 966 
Q 3022 478 2636 193 
Q 2250 -91 1575 -91 
Q 1294 -91 989 -36 
Q 684 19 347 128 
L 347 722 
Q 666 556 975 473 
Q 1284 391 1588 391 
Q 1994 391 2212 530 
Q 2431 669 2431 922 
Q 2431 1156 2273 1281 
Q 2116 1406 1581 1522 
L 1381 1569 
Q 847 1681 609 1914 
Q 372 2147 372 2553 
Q 372 3047 722 3315 
Q 1072 3584 1716 3584 
Q 2034 3584 2315 3537 
Q 2597 3491 2834 3397 
z
" transform="scale(0.015625)"/>
      <path id="DejaVuSans-6e" d="M 3513 2113 
L 3513 0 
L 2938 0 
L 2938 2094 
Q 2938 2591 2744 2837 
Q 2550 3084 2163 3084 
Q 1697 3084 1428 2787 
Q 1159 2491 1159 1978 
L 1159 0 
L 581 0 
L 581 3500 
L 1159 3500 
L 1159 2956 
Q 1366 3272 1645 3428 
Q 1925 3584 2291 3584 
Q 2894 3584 3203 3211 
Q 3513 2838 3513 2113 
z
" transform="scale(0.015625)"/>
      <path id="DejaVuSans-64" d="M 2906 2969 
L 2906 4863 
L 3481 4863 
L 3481 0 
L 2906 0 
L 2906 525 
Q 2725 213 2448 61 
Q 2172 -91 1784 -91 
Q 1150 -91 751 415 
Q 353 922 353 1747 
Q 353 2572 751 3078 
Q 1150 3584 1784 3584 
Q 2172 3584 2448 3432 
Q 2725 3281 2906 2969 
z
M 947 1747 
Q 947 1113 1208 752 
Q 1469 391 1925 391 
Q 2381 391 2643 752 
Q 2906 1113 2906 1747 
Q 2906 2381 2643 2742 
Q 2381 3103 1925 3103 
Q 1469 3103 1208 2742 
Q 947 2381 947 1747 
z
" transform="scale(0.015625)"/>
      <path id="DejaVuSans-27" d="M 1147 4666 
L 1147 2931 
L 616 2931 
L 616 4666 
L 1147 4666 
z
" transform="scale(0.015625)"/>
      <path id="DejaVuSans-62" d="M 3116 1747 
Q 3116 2381 2855 2742 
Q 2594 3103 2138 3103 
Q 1681 3103 1420 2742 
Q 1159 2381 1159 1747 
Q 1159 1113 1420 752 
Q 1681 391 2138 391 
Q 2594 391 2855 752 
Q 3116 1113 3116 1747 
z
M 1159 2969 
Q 1341 3281 1617 3432 
Q 1894 3584 2278 3584 
Q 2916 3584 3314 3078 
Q 3713 2572 3713 1747 
Q 3713 922 3314 415 
Q 2916 -91 2278 -91 
Q 1894 -91 1617 61 
Q 1341 213 1159 525 
L 1159 0 
L 581 0 
L 581 4863 
L 1159 4863 
L 1159 2969 
z
" transform="scale(0.015625)"/>
      <path id="DejaVuSans-4c" d="M 628 4666 
L 1259 4666 
L 1259 531 
L 3531 531 
L 3531 0 
L 628 0 
L 628 4666 
z
" transform="scale(0.015625)"/>
      <path id="DejaVuSans-3d" d="M 678 2906 
L 4684 2906 
L 4684 2381 
L 678 2381 
L 678 2906 
z
M 678 1631 
L 4684 1631 
L 4684 1100 
L 678 1100 
L 678 1631 
z
" transform="scale(0.015625)"/>
     </defs>
     <use xlink:href="#DejaVuSans-43"/>
     <use xlink:href="#DejaVuSans-6f" x="69.824219"/>
     <use xlink:href="#DejaVuSans-6d" x="131.005859"/>
     <use xlink:href="#DejaVuSans-70" x="228.417969"/>
     <use xlink:href="#DejaVuSans-61" x="291.894531"/>
     <use xlink:href="#DejaVuSans-72" x="353.173828"/>
     <use xlink:href="#DejaVuSans-61" x="394.287109"/>
     <use xlink:href="#DejaVuSans-69" x="455.566406"/>
     <use xlink:href="#DejaVuSans-73" x="483.349609"/>
     <use xlink:href="#DejaVuSans-6f" x="535.449219"/>
     <use xlink:href="#DejaVuSans-6e" x="596.630859"/>
     <use xlink:href="#DejaVuSans-20" x="660.009766"/>
     <use xlink:href="#DejaVuSans-64" x="691.796875"/>
     <use xlink:href="#DejaVuSans-65" x="755.273438"/>
     <use xlink:href="#DejaVuSans-73" x="816.796875"/>
     <use xlink:href="#DejaVuSans-20" x="868.896484"/>
     <use xlink:href="#DejaVuSans-65" x="900.683594"/>
     <use xlink:href="#DejaVuSans-72" x="962.207031"/>
     <use xlink:href="#DejaVuSans-72" x="1001.570312"/>
     <use xlink:href="#DejaVuSans-65" x="1040.433594"/>
     <use xlink:href="#DejaVuSans-75" x="1101.957031"/>
     <use xlink:href="#DejaVuSans-72" x="1165.335938"/>
     <use xlink:href="#DejaVuSans-73" x="1206.449219"/>
     <use xlink:href="#DejaVuSans-20" x="1258.548828"/>
     <use xlink:href="#DejaVuSans-64" x="1290.335938"/>
     <use xlink:href="#DejaVuSans-27" x="1353.8125"/>
     <use xlink:href="#DejaVuSans-61" x="1381.302734"/>
     <use xlink:href="#DejaVuSans-70" x="1442.582031"/>
     <use xlink:href="#DejaVuSans-70" x="1506.058594"/>
     <use xlink:href="#DejaVuSans-72" x="1569.535156"/>
     <use xlink:href="#DejaVuSans-6f" x="1608.398438"/>
     <use xlink:href="#DejaVuSans-78" x="1666.455078"/>
     <use xlink:href="#DejaVuSans-69" x="1725.634766"/>
     <use xlink:href="#DejaVuSans-6d" x="1753.417969"/>
     <use xlink:href="#DejaVuSans-61" x="1850.830078"/>
     <use xlink:href="#DejaVuSans-74" x="1912.109375"/>
     <use xlink:href="#DejaVuSans-69" x="1951.318359"/>
     <use xlink:href="#DejaVuSans-6f" x="1979.101562"/>
     <use xlink:href="#DejaVuSans-6e" x="2040.283203"/>
     <use xlink:href="#DejaVuSans-20" x="2103.662109"/>
     <use xlink:href="#DejaVuSans-65" x="2135.449219"/>
     <use xlink:href="#DejaVuSans-74" x="2196.972656"/>
     <use xlink:href="#DejaVuSans-20" x="2236.181641"/>
     <use xlink:href="#DejaVuSans-64" x="2267.96875"/>
     <use xlink:href="#DejaVuSans-65" x="2331.445312"/>
     <use xlink:href="#DejaVuSans-73" x="2392.96875"/>
     <use xlink:href="#DejaVuSans-20" x="2445.068359"/>
     <use xlink:href="#DejaVuSans-62" x="2476.855469"/>
     <use xlink:href="#DejaVuSans-6f" x="2540.332031"/>
     <use xlink:href="#DejaVuSans-72" x="2601.513672"/>
     <use xlink:href="#DejaVuSans-6e" x="2640.876953"/>
     <use xlink:href="#DejaVuSans-65" x="2704.255859"/>
     <use xlink:href="#DejaVuSans-73" x="2765.779297"/>
     <use xlink:href="#DejaVuSans-20" x="2817.878906"/>
     <use xlink:href="#DejaVuSans-74" x="2849.666016"/>
     <use xlink:href="#DejaVuSans-68" x="2888.875"/>
     <use xlink:href="#DejaVuSans-e9" x="2952.253906"/>
     <use xlink:href="#DejaVuSans-6f" x="3013.777344"/>
     <use xlink:href="#DejaVuSans-72" x="3074.958984"/>
     <use xlink:href="#DejaVuSans-69" x="3116.072266"/>
     <use xlink:href="#DejaVuSans-71" x="3143.855469"/>
     <use xlink:href="#DejaVuSans-75" x="3207.332031"/>
     <use xlink:href="#DejaVuSans-65" x="3270.710938"/>
     <use xlink:href="#DejaVuSans-73" x="3332.234375"/>
     <use xlink:href="#DejaVuSans-20" x="3384.333984"/>
     <use xlink:href="#DejaVuSans-64" x="3416.121094"/>
     <use xlink:href="#DejaVuSans-65" x="3479.597656"/>
     <use xlink:href="#DejaVuSans-20" x="3541.121094"/>
     <use xlink:href="#DejaVuSans-4c" x="3572.908203"/>
     <use xlink:href="#DejaVuSans-61" x="3628.621094"/>
     <use xlink:href="#DejaVuSans-67" x="3689.900391"/>
     <use xlink:href="#DejaVuSans-72" x="3753.376953"/>
     <use xlink:href="#DejaVuSans-61" x="3794.490234"/>
     <use xlink:href="#DejaVuSans-6e" x="3855.769531"/>
     <use xlink:href="#DejaVuSans-67" x="3919.148438"/>
     <use xlink:href="#DejaVuSans-65" x="3982.625"/>
     <use xlink:href="#DejaVuSans-20" x="4044.148438"/>
     <use xlink:href="#DejaVuSans-70" x="4075.935547"/>
     <use xlink:href="#DejaVuSans-6f" x="4139.412109"/>
     <use xlink:href="#DejaVuSans-75" x="4200.59375"/>
     <use xlink:href="#DejaVuSans-72" x="4263.972656"/>
     <use xlink:href="#DejaVuSans-20" x="4305.085938"/>
     <use xlink:href="#DejaVuSans-6e" x="4336.873047"/>
     <use xlink:href="#DejaVuSans-3d" x="4400.251953"/>
     <use xlink:href="#DejaVuSans-31" x="4484.041016"/>
    </g>
   </g>
   <g id="legend_1">
    <g id="patch_7">
     <path d="M 97 379.48 
L 297.901563 379.48 
Q 299.901563 379.48 299.901563 377.48 
L 299.901563 290.41125 
Q 299.901563 288.41125 297.901563 288.41125 
L 97 288.41125 
Q 95 288.41125 95 290.41125 
L 95 377.48 
Q 95 379.48 97 379.48 
z
" style="fill: #ffffff; opacity: 0.8; stroke: #cccccc; stroke-linejoin: miter"/>
    </g>
    <g id="line2d_90">
     <path d="M 99 296.509688 
L 109 296.509688 
L 119 296.509688 
" style="fill: none; stroke: #0000ff; stroke-width: 1.5; stroke-linecap: square"/>
    </g>
    <g id="text_19">
     <!-- Erreur d'approximation, t=0.25 -->
     <g transform="translate(127 300.009688) scale(0.1 -0.1)">
      <defs>
       <path id="DejaVuSans-45" d="M 628 4666 
L 3578 4666 
L 3578 4134 
L 1259 4134 
L 1259 2753 
L 3481 2753 
L 3481 2222 
L 1259 2222 
L 1259 531 
L 3634 531 
L 3634 0 
L 628 0 
L 628 4666 
z
" transform="scale(0.015625)"/>
       <path id="DejaVuSans-2c" d="M 750 794 
L 1409 794 
L 1409 256 
L 897 -744 
L 494 -744 
L 750 256 
L 750 794 
z
" transform="scale(0.015625)"/>
      </defs>
      <use xlink:href="#DejaVuSans-45"/>
      <use xlink:href="#DejaVuSans-72" x="63.183594"/>
      <use xlink:href="#DejaVuSans-72" x="102.546875"/>
      <use xlink:href="#DejaVuSans-65" x="141.410156"/>
      <use xlink:href="#DejaVuSans-75" x="202.933594"/>
      <use xlink:href="#DejaVuSans-72" x="266.3125"/>
      <use xlink:href="#DejaVuSans-20" x="307.425781"/>
      <use xlink:href="#DejaVuSans-64" x="339.212891"/>
      <use xlink:href="#DejaVuSans-27" x="402.689453"/>
      <use xlink:href="#DejaVuSans-61" x="430.179688"/>
      <use xlink:href="#DejaVuSans-70" x="491.458984"/>
      <use xlink:href="#DejaVuSans-70" x="554.935547"/>
      <use xlink:href="#DejaVuSans-72" x="618.412109"/>
      <use xlink:href="#DejaVuSans-6f" x="657.275391"/>
      <use xlink:href="#DejaVuSans-78" x="715.332031"/>
      <use xlink:href="#DejaVuSans-69" x="774.511719"/>
      <use xlink:href="#DejaVuSans-6d" x="802.294922"/>
      <use xlink:href="#DejaVuSans-61" x="899.707031"/>
      <use xlink:href="#DejaVuSans-74" x="960.986328"/>
      <use xlink:href="#DejaVuSans-69" x="1000.195312"/>
      <use xlink:href="#DejaVuSans-6f" x="1027.978516"/>
      <use xlink:href="#DejaVuSans-6e" x="1089.160156"/>
      <use xlink:href="#DejaVuSans-2c" x="1152.539062"/>
      <use xlink:href="#DejaVuSans-20" x="1184.326172"/>
      <use xlink:href="#DejaVuSans-74" x="1216.113281"/>
      <use xlink:href="#DejaVuSans-3d" x="1255.322266"/>
      <use xlink:href="#DejaVuSans-30" x="1339.111328"/>
      <use xlink:href="#DejaVuSans-2e" x="1402.734375"/>
      <use xlink:href="#DejaVuSans-32" x="1434.521484"/>
      <use xlink:href="#DejaVuSans-35" x="1498.144531"/>
     </g>
    </g>
    <g id="line2d_91">
     <path d="M 99 311.187813 
L 109 311.187813 
L 119 311.187813 
" style="fill: none; stroke-dasharray: 5.55,2.4; stroke-dashoffset: 0; stroke: #0000ff; stroke-width: 1.5"/>
    </g>
    <g id="text_20">
     <!-- Reste de Lagrange, t=0.25 -->
     <g transform="translate(127 314.687813) scale(0.1 -0.1)">
      <defs>
       <path id="DejaVuSans-52" d="M 2841 2188 
Q 3044 2119 3236 1894 
Q 3428 1669 3622 1275 
L 4263 0 
L 3584 0 
L 2988 1197 
Q 2756 1666 2539 1819 
Q 2322 1972 1947 1972 
L 1259 1972 
L 1259 0 
L 628 0 
L 628 4666 
L 2053 4666 
Q 2853 4666 3247 4331 
Q 3641 3997 3641 3322 
Q 3641 2881 3436 2590 
Q 3231 2300 2841 2188 
z
M 1259 4147 
L 1259 2491 
L 2053 2491 
Q 2509 2491 2742 2702 
Q 2975 2913 2975 3322 
Q 2975 3731 2742 3939 
Q 2509 4147 2053 4147 
L 1259 4147 
z
" transform="scale(0.015625)"/>
      </defs>
      <use xlink:href="#DejaVuSans-52"/>
      <use xlink:href="#DejaVuSans-65" x="64.982422"/>
      <use xlink:href="#DejaVuSans-73" x="126.505859"/>
      <use xlink:href="#DejaVuSans-74" x="178.605469"/>
      <use xlink:href="#DejaVuSans-65" x="217.814453"/>
      <use xlink:href="#DejaVuSans-20" x="279.337891"/>
      <use xlink:href="#DejaVuSans-64" x="311.125"/>
      <use xlink:href="#DejaVuSans-65" x="374.601562"/>
      <use xlink:href="#DejaVuSans-20" x="436.125"/>
      <use xlink:href="#DejaVuSans-4c" x="467.912109"/>
      <use xlink:href="#DejaVuSans-61" x="523.625"/>
      <use xlink:href="#DejaVuSans-67" x="584.904297"/>
      <use xlink:href="#DejaVuSans-72" x="648.380859"/>
      <use xlink:href="#DejaVuSans-61" x="689.494141"/>
      <use xlink:href="#DejaVuSans-6e" x="750.773438"/>
      <use xlink:href="#DejaVuSans-67" x="814.152344"/>
      <use xlink:href="#DejaVuSans-65" x="877.628906"/>
      <use xlink:href="#DejaVuSans-2c" x="939.152344"/>
      <use xlink:href="#DejaVuSans-20" x="970.939453"/>
      <use xlink:href="#DejaVuSans-74" x="1002.726562"/>
      <use xlink:href="#DejaVuSans-3d" x="1041.935547"/>
      <use xlink:href="#DejaVuSans-30" x="1125.724609"/>
      <use xlink:href="#DejaVuSans-2e" x="1189.347656"/>
      <use xlink:href="#DejaVuSans-32" x="1221.134766"/>
      <use xlink:href="#DejaVuSans-35" x="1284.757812"/>
     </g>
    </g>
    <g id="line2d_92">
     <path d="M 99 325.865938 
L 109 325.865938 
L 119 325.865938 
" style="fill: none; stroke: #008000; stroke-width: 1.5; stroke-linecap: square"/>
    </g>
    <g id="text_21">
     <!-- Erreur d'approximation, t=0.125 -->
     <g transform="translate(127 329.365938) scale(0.1 -0.1)">
      <use xlink:href="#DejaVuSans-45"/>
      <use xlink:href="#DejaVuSans-72" x="63.183594"/>
      <use xlink:href="#DejaVuSans-72" x="102.546875"/>
      <use xlink:href="#DejaVuSans-65" x="141.410156"/>
      <use xlink:href="#DejaVuSans-75" x="202.933594"/>
      <use xlink:href="#DejaVuSans-72" x="266.3125"/>
      <use xlink:href="#DejaVuSans-20" x="307.425781"/>
      <use xlink:href="#DejaVuSans-64" x="339.212891"/>
      <use xlink:href="#DejaVuSans-27" x="402.689453"/>
      <use xlink:href="#DejaVuSans-61" x="430.179688"/>
      <use xlink:href="#DejaVuSans-70" x="491.458984"/>
      <use xlink:href="#DejaVuSans-70" x="554.935547"/>
      <use xlink:href="#DejaVuSans-72" x="618.412109"/>
      <use xlink:href="#DejaVuSans-6f" x="657.275391"/>
      <use xlink:href="#DejaVuSans-78" x="715.332031"/>
      <use xlink:href="#DejaVuSans-69" x="774.511719"/>
      <use xlink:href="#DejaVuSans-6d" x="802.294922"/>
      <use xlink:href="#DejaVuSans-61" x="899.707031"/>
      <use xlink:href="#DejaVuSans-74" x="960.986328"/>
      <use xlink:href="#DejaVuSans-69" x="1000.195312"/>
      <use xlink:href="#DejaVuSans-6f" x="1027.978516"/>
      <use xlink:href="#DejaVuSans-6e" x="1089.160156"/>
      <use xlink:href="#DejaVuSans-2c" x="1152.539062"/>
      <use xlink:href="#DejaVuSans-20" x="1184.326172"/>
      <use xlink:href="#DejaVuSans-74" x="1216.113281"/>
      <use xlink:href="#DejaVuSans-3d" x="1255.322266"/>
      <use xlink:href="#DejaVuSans-30" x="1339.111328"/>
      <use xlink:href="#DejaVuSans-2e" x="1402.734375"/>
      <use xlink:href="#DejaVuSans-31" x="1434.521484"/>
      <use xlink:href="#DejaVuSans-32" x="1498.144531"/>
      <use xlink:href="#DejaVuSans-35" x="1561.767578"/>
     </g>
    </g>
    <g id="line2d_93">
     <path d="M 99 340.544062 
L 109 340.544062 
L 119 340.544062 
" style="fill: none; stroke-dasharray: 5.55,2.4; stroke-dashoffset: 0; stroke: #008000; stroke-width: 1.5"/>
    </g>
    <g id="text_22">
     <!-- Reste de Lagrange, t=0.125 -->
     <g transform="translate(127 344.044062) scale(0.1 -0.1)">
      <use xlink:href="#DejaVuSans-52"/>
      <use xlink:href="#DejaVuSans-65" x="64.982422"/>
      <use xlink:href="#DejaVuSans-73" x="126.505859"/>
      <use xlink:href="#DejaVuSans-74" x="178.605469"/>
      <use xlink:href="#DejaVuSans-65" x="217.814453"/>
      <use xlink:href="#DejaVuSans-20" x="279.337891"/>
      <use xlink:href="#DejaVuSans-64" x="311.125"/>
      <use xlink:href="#DejaVuSans-65" x="374.601562"/>
      <use xlink:href="#DejaVuSans-20" x="436.125"/>
      <use xlink:href="#DejaVuSans-4c" x="467.912109"/>
      <use xlink:href="#DejaVuSans-61" x="523.625"/>
      <use xlink:href="#DejaVuSans-67" x="584.904297"/>
      <use xlink:href="#DejaVuSans-72" x="648.380859"/>
      <use xlink:href="#DejaVuSans-61" x="689.494141"/>
      <use xlink:href="#DejaVuSans-6e" x="750.773438"/>
      <use xlink:href="#DejaVuSans-67" x="814.152344"/>
      <use xlink:href="#DejaVuSans-65" x="877.628906"/>
      <use xlink:href="#DejaVuSans-2c" x="939.152344"/>
      <use xlink:href="#DejaVuSans-20" x="970.939453"/>
      <use xlink:href="#DejaVuSans-74" x="1002.726562"/>
      <use xlink:href="#DejaVuSans-3d" x="1041.935547"/>
      <use xlink:href="#DejaVuSans-30" x="1125.724609"/>
      <use xlink:href="#DejaVuSans-2e" x="1189.347656"/>
      <use xlink:href="#DejaVuSans-31" x="1221.134766"/>
      <use xlink:href="#DejaVuSans-32" x="1284.757812"/>
      <use xlink:href="#DejaVuSans-35" x="1348.380859"/>
     </g>
    </g>
    <g id="line2d_94">
     <path d="M 99 355.222188 
L 109 355.222188 
L 119 355.222188 
" style="fill: none; stroke: #ffa500; stroke-width: 1.5; stroke-linecap: square"/>
    </g>
    <g id="text_23">
     <!-- Erreur d'approximation, t=0.0625 -->
     <g transform="translate(127 358.722188) scale(0.1 -0.1)">
      <use xlink:href="#DejaVuSans-45"/>
      <use xlink:href="#DejaVuSans-72" x="63.183594"/>
      <use xlink:href="#DejaVuSans-72" x="102.546875"/>
      <use xlink:href="#DejaVuSans-65" x="141.410156"/>
      <use xlink:href="#DejaVuSans-75" x="202.933594"/>
      <use xlink:href="#DejaVuSans-72" x="266.3125"/>
      <use xlink:href="#DejaVuSans-20" x="307.425781"/>
      <use xlink:href="#DejaVuSans-64" x="339.212891"/>
      <use xlink:href="#DejaVuSans-27" x="402.689453"/>
      <use xlink:href="#DejaVuSans-61" x="430.179688"/>
      <use xlink:href="#DejaVuSans-70" x="491.458984"/>
      <use xlink:href="#DejaVuSans-70" x="554.935547"/>
      <use xlink:href="#DejaVuSans-72" x="618.412109"/>
      <use xlink:href="#DejaVuSans-6f" x="657.275391"/>
      <use xlink:href="#DejaVuSans-78" x="715.332031"/>
      <use xlink:href="#DejaVuSans-69" x="774.511719"/>
      <use xlink:href="#DejaVuSans-6d" x="802.294922"/>
      <use xlink:href="#DejaVuSans-61" x="899.707031"/>
      <use xlink:href="#DejaVuSans-74" x="960.986328"/>
      <use xlink:href="#DejaVuSans-69" x="1000.195312"/>
      <use xlink:href="#DejaVuSans-6f" x="1027.978516"/>
      <use xlink:href="#DejaVuSans-6e" x="1089.160156"/>
      <use xlink:href="#DejaVuSans-2c" x="1152.539062"/>
      <use xlink:href="#DejaVuSans-20" x="1184.326172"/>
      <use xlink:href="#DejaVuSans-74" x="1216.113281"/>
      <use xlink:href="#DejaVuSans-3d" x="1255.322266"/>
      <use xlink:href="#DejaVuSans-30" x="1339.111328"/>
      <use xlink:href="#DejaVuSans-2e" x="1402.734375"/>
      <use xlink:href="#DejaVuSans-30" x="1434.521484"/>
      <use xlink:href="#DejaVuSans-36" x="1498.144531"/>
      <use xlink:href="#DejaVuSans-32" x="1561.767578"/>
      <use xlink:href="#DejaVuSans-35" x="1625.390625"/>
     </g>
    </g>
    <g id="line2d_95">
     <path d="M 99 369.900313 
L 109 369.900313 
L 119 369.900313 
" style="fill: none; stroke-dasharray: 5.55,2.4; stroke-dashoffset: 0; stroke: #ffa500; stroke-width: 1.5"/>
    </g>
    <g id="text_24">
     <!-- Reste de Lagrange, t=0.0625 -->
     <g transform="translate(127 373.400313) scale(0.1 -0.1)">
      <use xlink:href="#DejaVuSans-52"/>
      <use xlink:href="#DejaVuSans-65" x="64.982422"/>
      <use xlink:href="#DejaVuSans-73" x="126.505859"/>
      <use xlink:href="#DejaVuSans-74" x="178.605469"/>
      <use xlink:href="#DejaVuSans-65" x="217.814453"/>
      <use xlink:href="#DejaVuSans-20" x="279.337891"/>
      <use xlink:href="#DejaVuSans-64" x="311.125"/>
      <use xlink:href="#DejaVuSans-65" x="374.601562"/>
      <use xlink:href="#DejaVuSans-20" x="436.125"/>
      <use xlink:href="#DejaVuSans-4c" x="467.912109"/>
      <use xlink:href="#DejaVuSans-61" x="523.625"/>
      <use xlink:href="#DejaVuSans-67" x="584.904297"/>
      <use xlink:href="#DejaVuSans-72" x="648.380859"/>
      <use xlink:href="#DejaVuSans-61" x="689.494141"/>
      <use xlink:href="#DejaVuSans-6e" x="750.773438"/>
      <use xlink:href="#DejaVuSans-67" x="814.152344"/>
      <use xlink:href="#DejaVuSans-65" x="877.628906"/>
      <use xlink:href="#DejaVuSans-2c" x="939.152344"/>
      <use xlink:href="#DejaVuSans-20" x="970.939453"/>
      <use xlink:href="#DejaVuSans-74" x="1002.726562"/>
      <use xlink:href="#DejaVuSans-3d" x="1041.935547"/>
      <use xlink:href="#DejaVuSans-30" x="1125.724609"/>
      <use xlink:href="#DejaVuSans-2e" x="1189.347656"/>
      <use xlink:href="#DejaVuSans-30" x="1221.134766"/>
      <use xlink:href="#DejaVuSans-36" x="1284.757812"/>
      <use xlink:href="#DejaVuSans-32" x="1348.380859"/>
      <use xlink:href="#DejaVuSans-35" x="1412.003906"/>
     </g>
    </g>
   </g>
  </g>
 </g>
 <defs>
  <clipPath id="pb982e9fb91">
   <rect x="90" y="51.84" width="558" height="332.64"/>
  </clipPath>
 </defs>
</svg>
