<?xml version="1.0" encoding="utf-8" standalone="no"?>
<!DOCTYPE svg PUBLIC "-//W3C//DTD SVG 1.1//EN"
  "http://www.w3.org/Graphics/SVG/1.1/DTD/svg11.dtd">
<svg xmlns:xlink="http://www.w3.org/1999/xlink" width="864pt" height="432pt" viewBox="0 0 864 432" xmlns="http://www.w3.org/2000/svg" version="1.1">
 <metadata>
  <rdf:RDF xmlns:dc="http://purl.org/dc/elements/1.1/" xmlns:cc="http://creativecommons.org/ns#" xmlns:rdf="http://www.w3.org/1999/02/22-rdf-syntax-ns#">
   <cc:Work>
    <dc:type rdf:resource="http://purl.org/dc/dcmitype/StillImage"/>
    <dc:date>2024-11-02T15:46:37.165808</dc:date>
    <dc:format>image/svg+xml</dc:format>
    <dc:creator>
     <cc:Agent>
      <dc:title>Matplotlib v3.9.2, https://matplotlib.org/</dc:title>
     </cc:Agent>
    </dc:creator>
   </cc:Work>
  </rdf:RDF>
 </metadata>
 <defs>
  <style type="text/css">*{stroke-linejoin: round; stroke-linecap: butt}</style>
 </defs>
 <g id="figure_1">
  <g id="patch_1">
   <path d="M 0 432 
L 864 432 
L 864 0 
L 0 0 
z
" style="fill: #ffffff"/>
  </g>
  <g id="axes_1">
   <g id="patch_2">
    <path d="M 108 384.48 
L 777.6 384.48 
L 777.6 51.84 
L 108 51.84 
z
" style="fill: #ffffff"/>
   </g>
   <g id="matplotlib.axis_1">
    <g id="xtick_1">
     <g id="line2d_1">
      <path d="M 138.436364 384.48 
L 138.436364 51.84 
" clip-path="url(#pb0ddd91a60)" style="fill: none; stroke: #b0b0b0; stroke-width: 0.8; stroke-linecap: square"/>
     </g>
     <g id="line2d_2">
      <defs>
       <path id="m19b7bdb2a5" d="M 0 0 
L 0 3.5 
" style="stroke: #000000; stroke-width: 0.8"/>
      </defs>
      <g>
       <use xlink:href="#m19b7bdb2a5" x="138.436364" y="384.48" style="stroke: #000000; stroke-width: 0.8"/>
      </g>
     </g>
     <g id="text_1">
      <!-- −1.00 -->
      <g transform="translate(123.113707 399.078438) scale(0.1 -0.1)">
       <defs>
        <path id="DejaVuSans-2212" d="M 678 2272 
L 4684 2272 
L 4684 1741 
L 678 1741 
L 678 2272 
z
" transform="scale(0.015625)"/>
        <path id="DejaVuSans-31" d="M 794 531 
L 1825 531 
L 1825 4091 
L 703 3866 
L 703 4441 
L 1819 4666 
L 2450 4666 
L 2450 531 
L 3481 531 
L 3481 0 
L 794 0 
L 794 531 
z
" transform="scale(0.015625)"/>
        <path id="DejaVuSans-2e" d="M 684 794 
L 1344 794 
L 1344 0 
L 684 0 
L 684 794 
z
" transform="scale(0.015625)"/>
        <path id="DejaVuSans-30" d="M 2034 4250 
Q 1547 4250 1301 3770 
Q 1056 3291 1056 2328 
Q 1056 1369 1301 889 
Q 1547 409 2034 409 
Q 2525 409 2770 889 
Q 3016 1369 3016 2328 
Q 3016 3291 2770 3770 
Q 2525 4250 2034 4250 
z
M 2034 4750 
Q 2819 4750 3233 4129 
Q 3647 3509 3647 2328 
Q 3647 1150 3233 529 
Q 2819 -91 2034 -91 
Q 1250 -91 836 529 
Q 422 1150 422 2328 
Q 422 3509 836 4129 
Q 1250 4750 2034 4750 
z
" transform="scale(0.015625)"/>
       </defs>
       <use xlink:href="#DejaVuSans-2212"/>
       <use xlink:href="#DejaVuSans-31" x="83.789062"/>
       <use xlink:href="#DejaVuSans-2e" x="147.412109"/>
       <use xlink:href="#DejaVuSans-30" x="179.199219"/>
       <use xlink:href="#DejaVuSans-30" x="242.822266"/>
      </g>
     </g>
    </g>
    <g id="xtick_2">
     <g id="line2d_3">
      <path d="M 214.527273 384.48 
L 214.527273 51.84 
" clip-path="url(#pb0ddd91a60)" style="fill: none; stroke: #b0b0b0; stroke-width: 0.8; stroke-linecap: square"/>
     </g>
     <g id="line2d_4">
      <g>
       <use xlink:href="#m19b7bdb2a5" x="214.527273" y="384.48" style="stroke: #000000; stroke-width: 0.8"/>
      </g>
     </g>
     <g id="text_2">
      <!-- −0.75 -->
      <g transform="translate(199.204616 399.078438) scale(0.1 -0.1)">
       <defs>
        <path id="DejaVuSans-37" d="M 525 4666 
L 3525 4666 
L 3525 4397 
L 1831 0 
L 1172 0 
L 2766 4134 
L 525 4134 
L 525 4666 
z
" transform="scale(0.015625)"/>
        <path id="DejaVuSans-35" d="M 691 4666 
L 3169 4666 
L 3169 4134 
L 1269 4134 
L 1269 2991 
Q 1406 3038 1543 3061 
Q 1681 3084 1819 3084 
Q 2600 3084 3056 2656 
Q 3513 2228 3513 1497 
Q 3513 744 3044 326 
Q 2575 -91 1722 -91 
Q 1428 -91 1123 -41 
Q 819 9 494 109 
L 494 744 
Q 775 591 1075 516 
Q 1375 441 1709 441 
Q 2250 441 2565 725 
Q 2881 1009 2881 1497 
Q 2881 1984 2565 2268 
Q 2250 2553 1709 2553 
Q 1456 2553 1204 2497 
Q 953 2441 691 2322 
L 691 4666 
z
" transform="scale(0.015625)"/>
       </defs>
       <use xlink:href="#DejaVuSans-2212"/>
       <use xlink:href="#DejaVuSans-30" x="83.789062"/>
       <use xlink:href="#DejaVuSans-2e" x="147.412109"/>
       <use xlink:href="#DejaVuSans-37" x="179.199219"/>
       <use xlink:href="#DejaVuSans-35" x="242.822266"/>
      </g>
     </g>
    </g>
    <g id="xtick_3">
     <g id="line2d_5">
      <path d="M 290.618182 384.48 
L 290.618182 51.84 
" clip-path="url(#pb0ddd91a60)" style="fill: none; stroke: #b0b0b0; stroke-width: 0.8; stroke-linecap: square"/>
     </g>
     <g id="line2d_6">
      <g>
       <use xlink:href="#m19b7bdb2a5" x="290.618182" y="384.48" style="stroke: #000000; stroke-width: 0.8"/>
      </g>
     </g>
     <g id="text_3">
      <!-- −0.50 -->
      <g transform="translate(275.295526 399.078438) scale(0.1 -0.1)">
       <use xlink:href="#DejaVuSans-2212"/>
       <use xlink:href="#DejaVuSans-30" x="83.789062"/>
       <use xlink:href="#DejaVuSans-2e" x="147.412109"/>
       <use xlink:href="#DejaVuSans-35" x="179.199219"/>
       <use xlink:href="#DejaVuSans-30" x="242.822266"/>
      </g>
     </g>
    </g>
    <g id="xtick_4">
     <g id="line2d_7">
      <path d="M 366.709091 384.48 
L 366.709091 51.84 
" clip-path="url(#pb0ddd91a60)" style="fill: none; stroke: #b0b0b0; stroke-width: 0.8; stroke-linecap: square"/>
     </g>
     <g id="line2d_8">
      <g>
       <use xlink:href="#m19b7bdb2a5" x="366.709091" y="384.48" style="stroke: #000000; stroke-width: 0.8"/>
      </g>
     </g>
     <g id="text_4">
      <!-- −0.25 -->
      <g transform="translate(351.386435 399.078438) scale(0.1 -0.1)">
       <defs>
        <path id="DejaVuSans-32" d="M 1228 531 
L 3431 531 
L 3431 0 
L 469 0 
L 469 531 
Q 828 903 1448 1529 
Q 2069 2156 2228 2338 
Q 2531 2678 2651 2914 
Q 2772 3150 2772 3378 
Q 2772 3750 2511 3984 
Q 2250 4219 1831 4219 
Q 1534 4219 1204 4116 
Q 875 4013 500 3803 
L 500 4441 
Q 881 4594 1212 4672 
Q 1544 4750 1819 4750 
Q 2544 4750 2975 4387 
Q 3406 4025 3406 3419 
Q 3406 3131 3298 2873 
Q 3191 2616 2906 2266 
Q 2828 2175 2409 1742 
Q 1991 1309 1228 531 
z
" transform="scale(0.015625)"/>
       </defs>
       <use xlink:href="#DejaVuSans-2212"/>
       <use xlink:href="#DejaVuSans-30" x="83.789062"/>
       <use xlink:href="#DejaVuSans-2e" x="147.412109"/>
       <use xlink:href="#DejaVuSans-32" x="179.199219"/>
       <use xlink:href="#DejaVuSans-35" x="242.822266"/>
      </g>
     </g>
    </g>
    <g id="xtick_5">
     <g id="line2d_9">
      <path d="M 442.8 384.48 
L 442.8 51.84 
" clip-path="url(#pb0ddd91a60)" style="fill: none; stroke: #b0b0b0; stroke-width: 0.8; stroke-linecap: square"/>
     </g>
     <g id="line2d_10">
      <g>
       <use xlink:href="#m19b7bdb2a5" x="442.8" y="384.48" style="stroke: #000000; stroke-width: 0.8"/>
      </g>
     </g>
     <g id="text_5">
      <!-- 0.00 -->
      <g transform="translate(431.667188 399.078438) scale(0.1 -0.1)">
       <use xlink:href="#DejaVuSans-30"/>
       <use xlink:href="#DejaVuSans-2e" x="63.623047"/>
       <use xlink:href="#DejaVuSans-30" x="95.410156"/>
       <use xlink:href="#DejaVuSans-30" x="159.033203"/>
      </g>
     </g>
    </g>
    <g id="xtick_6">
     <g id="line2d_11">
      <path d="M 518.890909 384.48 
L 518.890909 51.84 
" clip-path="url(#pb0ddd91a60)" style="fill: none; stroke: #b0b0b0; stroke-width: 0.8; stroke-linecap: square"/>
     </g>
     <g id="line2d_12">
      <g>
       <use xlink:href="#m19b7bdb2a5" x="518.890909" y="384.48" style="stroke: #000000; stroke-width: 0.8"/>
      </g>
     </g>
     <g id="text_6">
      <!-- 0.25 -->
      <g transform="translate(507.758097 399.078438) scale(0.1 -0.1)">
       <use xlink:href="#DejaVuSans-30"/>
       <use xlink:href="#DejaVuSans-2e" x="63.623047"/>
       <use xlink:href="#DejaVuSans-32" x="95.410156"/>
       <use xlink:href="#DejaVuSans-35" x="159.033203"/>
      </g>
     </g>
    </g>
    <g id="xtick_7">
     <g id="line2d_13">
      <path d="M 594.981818 384.48 
L 594.981818 51.84 
" clip-path="url(#pb0ddd91a60)" style="fill: none; stroke: #b0b0b0; stroke-width: 0.8; stroke-linecap: square"/>
     </g>
     <g id="line2d_14">
      <g>
       <use xlink:href="#m19b7bdb2a5" x="594.981818" y="384.48" style="stroke: #000000; stroke-width: 0.8"/>
      </g>
     </g>
     <g id="text_7">
      <!-- 0.50 -->
      <g transform="translate(583.849006 399.078438) scale(0.1 -0.1)">
       <use xlink:href="#DejaVuSans-30"/>
       <use xlink:href="#DejaVuSans-2e" x="63.623047"/>
       <use xlink:href="#DejaVuSans-35" x="95.410156"/>
       <use xlink:href="#DejaVuSans-30" x="159.033203"/>
      </g>
     </g>
    </g>
    <g id="xtick_8">
     <g id="line2d_15">
      <path d="M 671.072727 384.48 
L 671.072727 51.84 
" clip-path="url(#pb0ddd91a60)" style="fill: none; stroke: #b0b0b0; stroke-width: 0.8; stroke-linecap: square"/>
     </g>
     <g id="line2d_16">
      <g>
       <use xlink:href="#m19b7bdb2a5" x="671.072727" y="384.48" style="stroke: #000000; stroke-width: 0.8"/>
      </g>
     </g>
     <g id="text_8">
      <!-- 0.75 -->
      <g transform="translate(659.939915 399.078438) scale(0.1 -0.1)">
       <use xlink:href="#DejaVuSans-30"/>
       <use xlink:href="#DejaVuSans-2e" x="63.623047"/>
       <use xlink:href="#DejaVuSans-37" x="95.410156"/>
       <use xlink:href="#DejaVuSans-35" x="159.033203"/>
      </g>
     </g>
    </g>
    <g id="xtick_9">
     <g id="line2d_17">
      <path d="M 747.163636 384.48 
L 747.163636 51.84 
" clip-path="url(#pb0ddd91a60)" style="fill: none; stroke: #b0b0b0; stroke-width: 0.8; stroke-linecap: square"/>
     </g>
     <g id="line2d_18">
      <g>
       <use xlink:href="#m19b7bdb2a5" x="747.163636" y="384.48" style="stroke: #000000; stroke-width: 0.8"/>
      </g>
     </g>
     <g id="text_9">
      <!-- 1.00 -->
      <g transform="translate(736.030824 399.078438) scale(0.1 -0.1)">
       <use xlink:href="#DejaVuSans-31"/>
       <use xlink:href="#DejaVuSans-2e" x="63.623047"/>
       <use xlink:href="#DejaVuSans-30" x="95.410156"/>
       <use xlink:href="#DejaVuSans-30" x="159.033203"/>
      </g>
     </g>
    </g>
    <g id="text_10">
     <!-- x -->
     <g transform="translate(439.840625 412.756563) scale(0.1 -0.1)">
      <defs>
       <path id="DejaVuSans-78" d="M 3513 3500 
L 2247 1797 
L 3578 0 
L 2900 0 
L 1881 1375 
L 863 0 
L 184 0 
L 1544 1831 
L 300 3500 
L 978 3500 
L 1906 2253 
L 2834 3500 
L 3513 3500 
z
" transform="scale(0.015625)"/>
      </defs>
      <use xlink:href="#DejaVuSans-78"/>
     </g>
    </g>
   </g>
   <g id="matplotlib.axis_2">
    <g id="ytick_1">
     <g id="line2d_19">
      <path d="M 108 317.952 
L 777.6 317.952 
" clip-path="url(#pb0ddd91a60)" style="fill: none; stroke: #b0b0b0; stroke-width: 0.8; stroke-linecap: square"/>
     </g>
     <g id="line2d_20">
      <defs>
       <path id="mb01898f3a1" d="M 0 0 
L -3.5 0 
" style="stroke: #000000; stroke-width: 0.8"/>
      </defs>
      <g>
       <use xlink:href="#mb01898f3a1" x="108" y="317.952" style="stroke: #000000; stroke-width: 0.8"/>
      </g>
     </g>
     <g id="text_11">
      <!-- 20000 -->
      <g transform="translate(69.1875 321.751219) scale(0.1 -0.1)">
       <use xlink:href="#DejaVuSans-32"/>
       <use xlink:href="#DejaVuSans-30" x="63.623047"/>
       <use xlink:href="#DejaVuSans-30" x="127.246094"/>
       <use xlink:href="#DejaVuSans-30" x="190.869141"/>
       <use xlink:href="#DejaVuSans-30" x="254.492188"/>
      </g>
     </g>
    </g>
    <g id="ytick_2">
     <g id="line2d_21">
      <path d="M 108 251.424 
L 777.6 251.424 
" clip-path="url(#pb0ddd91a60)" style="fill: none; stroke: #b0b0b0; stroke-width: 0.8; stroke-linecap: square"/>
     </g>
     <g id="line2d_22">
      <g>
       <use xlink:href="#mb01898f3a1" x="108" y="251.424" style="stroke: #000000; stroke-width: 0.8"/>
      </g>
     </g>
     <g id="text_12">
      <!-- 40000 -->
      <g transform="translate(69.1875 255.223219) scale(0.1 -0.1)">
       <defs>
        <path id="DejaVuSans-34" d="M 2419 4116 
L 825 1625 
L 2419 1625 
L 2419 4116 
z
M 2253 4666 
L 3047 4666 
L 3047 1625 
L 3713 1625 
L 3713 1100 
L 3047 1100 
L 3047 0 
L 2419 0 
L 2419 1100 
L 313 1100 
L 313 1709 
L 2253 4666 
z
" transform="scale(0.015625)"/>
       </defs>
       <use xlink:href="#DejaVuSans-34"/>
       <use xlink:href="#DejaVuSans-30" x="63.623047"/>
       <use xlink:href="#DejaVuSans-30" x="127.246094"/>
       <use xlink:href="#DejaVuSans-30" x="190.869141"/>
       <use xlink:href="#DejaVuSans-30" x="254.492188"/>
      </g>
     </g>
    </g>
    <g id="ytick_3">
     <g id="line2d_23">
      <path d="M 108 184.896 
L 777.6 184.896 
" clip-path="url(#pb0ddd91a60)" style="fill: none; stroke: #b0b0b0; stroke-width: 0.8; stroke-linecap: square"/>
     </g>
     <g id="line2d_24">
      <g>
       <use xlink:href="#mb01898f3a1" x="108" y="184.896" style="stroke: #000000; stroke-width: 0.8"/>
      </g>
     </g>
     <g id="text_13">
      <!-- 60000 -->
      <g transform="translate(69.1875 188.695219) scale(0.1 -0.1)">
       <defs>
        <path id="DejaVuSans-36" d="M 2113 2584 
Q 1688 2584 1439 2293 
Q 1191 2003 1191 1497 
Q 1191 994 1439 701 
Q 1688 409 2113 409 
Q 2538 409 2786 701 
Q 3034 994 3034 1497 
Q 3034 2003 2786 2293 
Q 2538 2584 2113 2584 
z
M 3366 4563 
L 3366 3988 
Q 3128 4100 2886 4159 
Q 2644 4219 2406 4219 
Q 1781 4219 1451 3797 
Q 1122 3375 1075 2522 
Q 1259 2794 1537 2939 
Q 1816 3084 2150 3084 
Q 2853 3084 3261 2657 
Q 3669 2231 3669 1497 
Q 3669 778 3244 343 
Q 2819 -91 2113 -91 
Q 1303 -91 875 529 
Q 447 1150 447 2328 
Q 447 3434 972 4092 
Q 1497 4750 2381 4750 
Q 2619 4750 2861 4703 
Q 3103 4656 3366 4563 
z
" transform="scale(0.015625)"/>
       </defs>
       <use xlink:href="#DejaVuSans-36"/>
       <use xlink:href="#DejaVuSans-30" x="63.623047"/>
       <use xlink:href="#DejaVuSans-30" x="127.246094"/>
       <use xlink:href="#DejaVuSans-30" x="190.869141"/>
       <use xlink:href="#DejaVuSans-30" x="254.492188"/>
      </g>
     </g>
    </g>
    <g id="ytick_4">
     <g id="line2d_25">
      <path d="M 108 118.368 
L 777.6 118.368 
" clip-path="url(#pb0ddd91a60)" style="fill: none; stroke: #b0b0b0; stroke-width: 0.8; stroke-linecap: square"/>
     </g>
     <g id="line2d_26">
      <g>
       <use xlink:href="#mb01898f3a1" x="108" y="118.368" style="stroke: #000000; stroke-width: 0.8"/>
      </g>
     </g>
     <g id="text_14">
      <!-- 80000 -->
      <g transform="translate(69.1875 122.167219) scale(0.1 -0.1)">
       <defs>
        <path id="DejaVuSans-38" d="M 2034 2216 
Q 1584 2216 1326 1975 
Q 1069 1734 1069 1313 
Q 1069 891 1326 650 
Q 1584 409 2034 409 
Q 2484 409 2743 651 
Q 3003 894 3003 1313 
Q 3003 1734 2745 1975 
Q 2488 2216 2034 2216 
z
M 1403 2484 
Q 997 2584 770 2862 
Q 544 3141 544 3541 
Q 544 4100 942 4425 
Q 1341 4750 2034 4750 
Q 2731 4750 3128 4425 
Q 3525 4100 3525 3541 
Q 3525 3141 3298 2862 
Q 3072 2584 2669 2484 
Q 3125 2378 3379 2068 
Q 3634 1759 3634 1313 
Q 3634 634 3220 271 
Q 2806 -91 2034 -91 
Q 1263 -91 848 271 
Q 434 634 434 1313 
Q 434 1759 690 2068 
Q 947 2378 1403 2484 
z
M 1172 3481 
Q 1172 3119 1398 2916 
Q 1625 2713 2034 2713 
Q 2441 2713 2670 2916 
Q 2900 3119 2900 3481 
Q 2900 3844 2670 4047 
Q 2441 4250 2034 4250 
Q 1625 4250 1398 4047 
Q 1172 3844 1172 3481 
z
" transform="scale(0.015625)"/>
       </defs>
       <use xlink:href="#DejaVuSans-38"/>
       <use xlink:href="#DejaVuSans-30" x="63.623047"/>
       <use xlink:href="#DejaVuSans-30" x="127.246094"/>
       <use xlink:href="#DejaVuSans-30" x="190.869141"/>
       <use xlink:href="#DejaVuSans-30" x="254.492188"/>
      </g>
     </g>
    </g>
    <g id="ytick_5">
     <g id="line2d_27">
      <path d="M 108 51.84 
L 777.6 51.84 
" clip-path="url(#pb0ddd91a60)" style="fill: none; stroke: #b0b0b0; stroke-width: 0.8; stroke-linecap: square"/>
     </g>
     <g id="line2d_28">
      <g>
       <use xlink:href="#mb01898f3a1" x="108" y="51.84" style="stroke: #000000; stroke-width: 0.8"/>
      </g>
     </g>
     <g id="text_15">
      <!-- 100000 -->
      <g transform="translate(62.825 55.639219) scale(0.1 -0.1)">
       <use xlink:href="#DejaVuSans-31"/>
       <use xlink:href="#DejaVuSans-30" x="63.623047"/>
       <use xlink:href="#DejaVuSans-30" x="127.246094"/>
       <use xlink:href="#DejaVuSans-30" x="190.869141"/>
       <use xlink:href="#DejaVuSans-30" x="254.492188"/>
       <use xlink:href="#DejaVuSans-30" x="318.115234"/>
      </g>
     </g>
    </g>
    <g id="text_16">
     <!-- |f(x) - p(x)| (échelle logarithmique) -->
     <g transform="translate(56.467187 305.111562) rotate(-90) scale(0.1 -0.1)">
      <defs>
       <path id="DejaVuSans-7c" d="M 1344 4891 
L 1344 -1509 
L 813 -1509 
L 813 4891 
L 1344 4891 
z
" transform="scale(0.015625)"/>
       <path id="DejaVuSans-66" d="M 2375 4863 
L 2375 4384 
L 1825 4384 
Q 1516 4384 1395 4259 
Q 1275 4134 1275 3809 
L 1275 3500 
L 2222 3500 
L 2222 3053 
L 1275 3053 
L 1275 0 
L 697 0 
L 697 3053 
L 147 3053 
L 147 3500 
L 697 3500 
L 697 3744 
Q 697 4328 969 4595 
Q 1241 4863 1831 4863 
L 2375 4863 
z
" transform="scale(0.015625)"/>
       <path id="DejaVuSans-28" d="M 1984 4856 
Q 1566 4138 1362 3434 
Q 1159 2731 1159 2009 
Q 1159 1288 1364 580 
Q 1569 -128 1984 -844 
L 1484 -844 
Q 1016 -109 783 600 
Q 550 1309 550 2009 
Q 550 2706 781 3412 
Q 1013 4119 1484 4856 
L 1984 4856 
z
" transform="scale(0.015625)"/>
       <path id="DejaVuSans-29" d="M 513 4856 
L 1013 4856 
Q 1481 4119 1714 3412 
Q 1947 2706 1947 2009 
Q 1947 1309 1714 600 
Q 1481 -109 1013 -844 
L 513 -844 
Q 928 -128 1133 580 
Q 1338 1288 1338 2009 
Q 1338 2731 1133 3434 
Q 928 4138 513 4856 
z
" transform="scale(0.015625)"/>
       <path id="DejaVuSans-20" transform="scale(0.015625)"/>
       <path id="DejaVuSans-2d" d="M 313 2009 
L 1997 2009 
L 1997 1497 
L 313 1497 
L 313 2009 
z
" transform="scale(0.015625)"/>
       <path id="DejaVuSans-70" d="M 1159 525 
L 1159 -1331 
L 581 -1331 
L 581 3500 
L 1159 3500 
L 1159 2969 
Q 1341 3281 1617 3432 
Q 1894 3584 2278 3584 
Q 2916 3584 3314 3078 
Q 3713 2572 3713 1747 
Q 3713 922 3314 415 
Q 2916 -91 2278 -91 
Q 1894 -91 1617 61 
Q 1341 213 1159 525 
z
M 3116 1747 
Q 3116 2381 2855 2742 
Q 2594 3103 2138 3103 
Q 1681 3103 1420 2742 
Q 1159 2381 1159 1747 
Q 1159 1113 1420 752 
Q 1681 391 2138 391 
Q 2594 391 2855 752 
Q 3116 1113 3116 1747 
z
" transform="scale(0.015625)"/>
       <path id="DejaVuSans-e9" d="M 3597 1894 
L 3597 1613 
L 953 1613 
Q 991 1019 1311 708 
Q 1631 397 2203 397 
Q 2534 397 2845 478 
Q 3156 559 3463 722 
L 3463 178 
Q 3153 47 2828 -22 
Q 2503 -91 2169 -91 
Q 1331 -91 842 396 
Q 353 884 353 1716 
Q 353 2575 817 3079 
Q 1281 3584 2069 3584 
Q 2775 3584 3186 3129 
Q 3597 2675 3597 1894 
z
M 3022 2063 
Q 3016 2534 2758 2815 
Q 2500 3097 2075 3097 
Q 1594 3097 1305 2825 
Q 1016 2553 972 2059 
L 3022 2063 
z
M 2466 5119 
L 3088 5119 
L 2070 3944 
L 1591 3944 
L 2466 5119 
z
" transform="scale(0.015625)"/>
       <path id="DejaVuSans-63" d="M 3122 3366 
L 3122 2828 
Q 2878 2963 2633 3030 
Q 2388 3097 2138 3097 
Q 1578 3097 1268 2742 
Q 959 2388 959 1747 
Q 959 1106 1268 751 
Q 1578 397 2138 397 
Q 2388 397 2633 464 
Q 2878 531 3122 666 
L 3122 134 
Q 2881 22 2623 -34 
Q 2366 -91 2075 -91 
Q 1284 -91 818 406 
Q 353 903 353 1747 
Q 353 2603 823 3093 
Q 1294 3584 2113 3584 
Q 2378 3584 2631 3529 
Q 2884 3475 3122 3366 
z
" transform="scale(0.015625)"/>
       <path id="DejaVuSans-68" d="M 3513 2113 
L 3513 0 
L 2938 0 
L 2938 2094 
Q 2938 2591 2744 2837 
Q 2550 3084 2163 3084 
Q 1697 3084 1428 2787 
Q 1159 2491 1159 1978 
L 1159 0 
L 581 0 
L 581 4863 
L 1159 4863 
L 1159 2956 
Q 1366 3272 1645 3428 
Q 1925 3584 2291 3584 
Q 2894 3584 3203 3211 
Q 3513 2838 3513 2113 
z
" transform="scale(0.015625)"/>
       <path id="DejaVuSans-65" d="M 3597 1894 
L 3597 1613 
L 953 1613 
Q 991 1019 1311 708 
Q 1631 397 2203 397 
Q 2534 397 2845 478 
Q 3156 559 3463 722 
L 3463 178 
Q 3153 47 2828 -22 
Q 2503 -91 2169 -91 
Q 1331 -91 842 396 
Q 353 884 353 1716 
Q 353 2575 817 3079 
Q 1281 3584 2069 3584 
Q 2775 3584 3186 3129 
Q 3597 2675 3597 1894 
z
M 3022 2063 
Q 3016 2534 2758 2815 
Q 2500 3097 2075 3097 
Q 1594 3097 1305 2825 
Q 1016 2553 972 2059 
L 3022 2063 
z
" transform="scale(0.015625)"/>
       <path id="DejaVuSans-6c" d="M 603 4863 
L 1178 4863 
L 1178 0 
L 603 0 
L 603 4863 
z
" transform="scale(0.015625)"/>
       <path id="DejaVuSans-6f" d="M 1959 3097 
Q 1497 3097 1228 2736 
Q 959 2375 959 1747 
Q 959 1119 1226 758 
Q 1494 397 1959 397 
Q 2419 397 2687 759 
Q 2956 1122 2956 1747 
Q 2956 2369 2687 2733 
Q 2419 3097 1959 3097 
z
M 1959 3584 
Q 2709 3584 3137 3096 
Q 3566 2609 3566 1747 
Q 3566 888 3137 398 
Q 2709 -91 1959 -91 
Q 1206 -91 779 398 
Q 353 888 353 1747 
Q 353 2609 779 3096 
Q 1206 3584 1959 3584 
z
" transform="scale(0.015625)"/>
       <path id="DejaVuSans-67" d="M 2906 1791 
Q 2906 2416 2648 2759 
Q 2391 3103 1925 3103 
Q 1463 3103 1205 2759 
Q 947 2416 947 1791 
Q 947 1169 1205 825 
Q 1463 481 1925 481 
Q 2391 481 2648 825 
Q 2906 1169 2906 1791 
z
M 3481 434 
Q 3481 -459 3084 -895 
Q 2688 -1331 1869 -1331 
Q 1566 -1331 1297 -1286 
Q 1028 -1241 775 -1147 
L 775 -588 
Q 1028 -725 1275 -790 
Q 1522 -856 1778 -856 
Q 2344 -856 2625 -561 
Q 2906 -266 2906 331 
L 2906 616 
Q 2728 306 2450 153 
Q 2172 0 1784 0 
Q 1141 0 747 490 
Q 353 981 353 1791 
Q 353 2603 747 3093 
Q 1141 3584 1784 3584 
Q 2172 3584 2450 3431 
Q 2728 3278 2906 2969 
L 2906 3500 
L 3481 3500 
L 3481 434 
z
" transform="scale(0.015625)"/>
       <path id="DejaVuSans-61" d="M 2194 1759 
Q 1497 1759 1228 1600 
Q 959 1441 959 1056 
Q 959 750 1161 570 
Q 1363 391 1709 391 
Q 2188 391 2477 730 
Q 2766 1069 2766 1631 
L 2766 1759 
L 2194 1759 
z
M 3341 1997 
L 3341 0 
L 2766 0 
L 2766 531 
Q 2569 213 2275 61 
Q 1981 -91 1556 -91 
Q 1019 -91 701 211 
Q 384 513 384 1019 
Q 384 1609 779 1909 
Q 1175 2209 1959 2209 
L 2766 2209 
L 2766 2266 
Q 2766 2663 2505 2880 
Q 2244 3097 1772 3097 
Q 1472 3097 1187 3025 
Q 903 2953 641 2809 
L 641 3341 
Q 956 3463 1253 3523 
Q 1550 3584 1831 3584 
Q 2591 3584 2966 3190 
Q 3341 2797 3341 1997 
z
" transform="scale(0.015625)"/>
       <path id="DejaVuSans-72" d="M 2631 2963 
Q 2534 3019 2420 3045 
Q 2306 3072 2169 3072 
Q 1681 3072 1420 2755 
Q 1159 2438 1159 1844 
L 1159 0 
L 581 0 
L 581 3500 
L 1159 3500 
L 1159 2956 
Q 1341 3275 1631 3429 
Q 1922 3584 2338 3584 
Q 2397 3584 2469 3576 
Q 2541 3569 2628 3553 
L 2631 2963 
z
" transform="scale(0.015625)"/>
       <path id="DejaVuSans-69" d="M 603 3500 
L 1178 3500 
L 1178 0 
L 603 0 
L 603 3500 
z
M 603 4863 
L 1178 4863 
L 1178 4134 
L 603 4134 
L 603 4863 
z
" transform="scale(0.015625)"/>
       <path id="DejaVuSans-74" d="M 1172 4494 
L 1172 3500 
L 2356 3500 
L 2356 3053 
L 1172 3053 
L 1172 1153 
Q 1172 725 1289 603 
Q 1406 481 1766 481 
L 2356 481 
L 2356 0 
L 1766 0 
Q 1100 0 847 248 
Q 594 497 594 1153 
L 594 3053 
L 172 3053 
L 172 3500 
L 594 3500 
L 594 4494 
L 1172 4494 
z
" transform="scale(0.015625)"/>
       <path id="DejaVuSans-6d" d="M 3328 2828 
Q 3544 3216 3844 3400 
Q 4144 3584 4550 3584 
Q 5097 3584 5394 3201 
Q 5691 2819 5691 2113 
L 5691 0 
L 5113 0 
L 5113 2094 
Q 5113 2597 4934 2840 
Q 4756 3084 4391 3084 
Q 3944 3084 3684 2787 
Q 3425 2491 3425 1978 
L 3425 0 
L 2847 0 
L 2847 2094 
Q 2847 2600 2669 2842 
Q 2491 3084 2119 3084 
Q 1678 3084 1418 2786 
Q 1159 2488 1159 1978 
L 1159 0 
L 581 0 
L 581 3500 
L 1159 3500 
L 1159 2956 
Q 1356 3278 1631 3431 
Q 1906 3584 2284 3584 
Q 2666 3584 2933 3390 
Q 3200 3197 3328 2828 
z
" transform="scale(0.015625)"/>
       <path id="DejaVuSans-71" d="M 947 1747 
Q 947 1113 1208 752 
Q 1469 391 1925 391 
Q 2381 391 2643 752 
Q 2906 1113 2906 1747 
Q 2906 2381 2643 2742 
Q 2381 3103 1925 3103 
Q 1469 3103 1208 2742 
Q 947 2381 947 1747 
z
M 2906 525 
Q 2725 213 2448 61 
Q 2172 -91 1784 -91 
Q 1150 -91 751 415 
Q 353 922 353 1747 
Q 353 2572 751 3078 
Q 1150 3584 1784 3584 
Q 2172 3584 2448 3432 
Q 2725 3281 2906 2969 
L 2906 3500 
L 3481 3500 
L 3481 -1331 
L 2906 -1331 
L 2906 525 
z
" transform="scale(0.015625)"/>
       <path id="DejaVuSans-75" d="M 544 1381 
L 544 3500 
L 1119 3500 
L 1119 1403 
Q 1119 906 1312 657 
Q 1506 409 1894 409 
Q 2359 409 2629 706 
Q 2900 1003 2900 1516 
L 2900 3500 
L 3475 3500 
L 3475 0 
L 2900 0 
L 2900 538 
Q 2691 219 2414 64 
Q 2138 -91 1772 -91 
Q 1169 -91 856 284 
Q 544 659 544 1381 
z
M 1991 3584 
L 1991 3584 
z
" transform="scale(0.015625)"/>
      </defs>
      <use xlink:href="#DejaVuSans-7c"/>
      <use xlink:href="#DejaVuSans-66" x="33.691406"/>
      <use xlink:href="#DejaVuSans-28" x="68.896484"/>
      <use xlink:href="#DejaVuSans-78" x="107.910156"/>
      <use xlink:href="#DejaVuSans-29" x="167.089844"/>
      <use xlink:href="#DejaVuSans-20" x="206.103516"/>
      <use xlink:href="#DejaVuSans-2d" x="237.890625"/>
      <use xlink:href="#DejaVuSans-20" x="273.974609"/>
      <use xlink:href="#DejaVuSans-70" x="305.761719"/>
      <use xlink:href="#DejaVuSans-28" x="369.238281"/>
      <use xlink:href="#DejaVuSans-78" x="408.251953"/>
      <use xlink:href="#DejaVuSans-29" x="467.431641"/>
      <use xlink:href="#DejaVuSans-7c" x="506.445312"/>
      <use xlink:href="#DejaVuSans-20" x="540.136719"/>
      <use xlink:href="#DejaVuSans-28" x="571.923828"/>
      <use xlink:href="#DejaVuSans-e9" x="610.9375"/>
      <use xlink:href="#DejaVuSans-63" x="672.460938"/>
      <use xlink:href="#DejaVuSans-68" x="727.441406"/>
      <use xlink:href="#DejaVuSans-65" x="790.820312"/>
      <use xlink:href="#DejaVuSans-6c" x="852.34375"/>
      <use xlink:href="#DejaVuSans-6c" x="880.126953"/>
      <use xlink:href="#DejaVuSans-65" x="907.910156"/>
      <use xlink:href="#DejaVuSans-20" x="969.433594"/>
      <use xlink:href="#DejaVuSans-6c" x="1001.220703"/>
      <use xlink:href="#DejaVuSans-6f" x="1029.003906"/>
      <use xlink:href="#DejaVuSans-67" x="1090.185547"/>
      <use xlink:href="#DejaVuSans-61" x="1153.662109"/>
      <use xlink:href="#DejaVuSans-72" x="1214.941406"/>
      <use xlink:href="#DejaVuSans-69" x="1256.054688"/>
      <use xlink:href="#DejaVuSans-74" x="1283.837891"/>
      <use xlink:href="#DejaVuSans-68" x="1323.046875"/>
      <use xlink:href="#DejaVuSans-6d" x="1386.425781"/>
      <use xlink:href="#DejaVuSans-69" x="1483.837891"/>
      <use xlink:href="#DejaVuSans-71" x="1511.621094"/>
      <use xlink:href="#DejaVuSans-75" x="1575.097656"/>
      <use xlink:href="#DejaVuSans-65" x="1638.476562"/>
      <use xlink:href="#DejaVuSans-29" x="1700"/>
     </g>
    </g>
   </g>
   <g id="line2d_29">
    <path d="M 138.436364 384.48 
L 747.163636 384.48 
L 747.163636 384.48 
" clip-path="url(#pb0ddd91a60)" style="fill: none; stroke: #0000ff; stroke-width: 1.5; stroke-linecap: square"/>
   </g>
   <g id="line2d_30">
    <path d="M 138.436364 384.48 
L 151.841769 384.117231 
L 167.684521 383.914667 
L 187.792629 383.892997 
L 218.259459 384.111575 
L 265.178378 384.446492 
L 304.785258 384.30328 
L 351.704177 384.373796 
L 400.451106 384.420011 
L 458.338084 384.364025 
L 540.598526 384.353298 
L 590.564128 384.318235 
L 644.185749 384.328621 
L 706.338084 383.877692 
L 725.836855 383.990162 
L 741.07027 384.289433 
L 747.163636 384.48 
L 747.163636 384.48 
" clip-path="url(#pb0ddd91a60)" style="fill: none; stroke-dasharray: 5.55,2.4; stroke-dashoffset: 0; stroke: #0000ff; stroke-width: 1.5"/>
   </g>
   <g id="line2d_31">
    <path d="M 138.436364 384.48 
L 270.662408 384.479745 
L 747.163636 384.48 
L 747.163636 384.48 
" clip-path="url(#pb0ddd91a60)" style="fill: none; stroke: #008000; stroke-width: 1.5; stroke-linecap: square"/>
   </g>
   <g id="line2d_32">
    <path d="M 138.436364 384.48 
L 140.264373 318.243495 
L 141.483047 280.506476 
L 142.70172 247.475377 
L 143.920393 218.803068 
L 145.139066 194.161057 
L 146.35774 173.238718 
L 147.576413 155.742551 
L 148.795086 141.395454 
L 150.013759 129.936032 
L 151.232432 121.117918 
L 152.451106 114.709121 
L 153.060442 112.339496 
L 153.669779 110.4914 
L 154.279115 109.1396 
L 154.888452 108.25965 
L 155.497789 107.827866 
L 156.107125 107.821316 
L 156.716462 108.217799 
L 157.325799 108.995827 
L 157.935135 110.134612 
L 158.544472 111.614044 
L 159.763145 115.517733 
L 160.981818 120.559052 
L 162.200491 126.600062 
L 164.028501 137.257343 
L 165.856511 149.480521 
L 168.293857 167.607313 
L 171.340541 192.194791 
L 182.917936 287.775868 
L 185.964619 310.295213 
L 188.401966 326.95179 
L 190.839312 342.278075 
L 193.276658 356.203606 
L 195.714005 368.692026 
L 197.542015 377.109864 
L 198.760688 382.272822 
L 199.370025 384.239183 
L 201.198034 377.422271 
L 203.026044 371.380758 
L 204.854054 366.091043 
L 206.682064 361.525347 
L 208.510074 357.65243 
L 210.338084 354.438241 
L 212.166093 351.846517 
L 213.384767 350.445835 
L 214.60344 349.293417 
L 215.822113 348.37754 
L 217.040786 347.686363 
L 218.259459 347.207977 
L 219.478133 346.930456 
L 220.696806 346.8419 
L 221.915479 346.930473 
L 223.134152 347.184444 
L 224.962162 347.850208 
L 226.790172 348.823693 
L 228.618182 350.067588 
L 230.446192 351.545833 
L 232.883538 353.821696 
L 235.930221 357.047924 
L 239.586241 361.295288 
L 252.991646 377.315542 
L 256.647666 381.158204 
L 259.694349 384.04693 
L 260.303686 384.373035 
L 263.350369 381.873207 
L 265.787715 380.122765 
L 268.225061 378.600581 
L 270.662408 377.308703 
L 273.099754 376.245782 
L 275.537101 375.407421 
L 277.974447 374.786524 
L 280.411794 374.373639 
L 282.84914 374.157299 
L 285.895823 374.143081 
L 288.942506 374.386661 
L 291.989189 374.85695 
L 295.645209 375.67446 
L 299.910565 376.904043 
L 304.785258 378.561027 
L 321.237346 384.419823 
L 326.112039 382.928846 
L 330.377396 381.833357 
L 334.642752 380.962454 
L 338.908108 380.332228 
L 343.173464 379.947807 
L 347.438821 379.804238 
L 351.704177 379.887605 
L 356.57887 380.232766 
L 361.453563 380.803845 
L 367.546929 381.758949 
L 376.077641 383.352869 
L 382.171007 384.434114 
L 390.092383 383.05262 
L 396.185749 382.206492 
L 401.669779 381.663309 
L 407.153808 381.356357 
L 412.637838 381.297159 
L 418.121867 381.480931 
L 423.605897 381.887488 
L 429.699263 382.558847 
L 437.620639 383.674829 
L 443.104668 384.432133 
L 454.682064 382.71579 
L 461.384767 381.945059 
L 467.478133 381.480931 
L 472.962162 381.297159 
L 478.446192 381.356357 
L 483.930221 381.663309 
L 489.414251 382.206492 
L 495.507617 383.05262 
L 502.819656 384.320031 
L 503.428993 384.434114 
L 504.647666 384.29517 
L 521.099754 381.253579 
L 526.583784 380.493034 
L 531.458477 380.029099 
L 535.723833 379.825314 
L 539.989189 379.836977 
L 544.254545 380.082559 
L 548.519902 380.572284 
L 552.785258 381.306906 
L 557.050614 382.276695 
L 561.315971 383.460658 
L 564.362654 384.419823 
L 564.97199 384.338525 
L 571.065356 382.184729 
L 585.080098 377.098936 
L 589.345455 375.833814 
L 593.001474 374.975355 
L 596.048157 374.463611 
L 599.09484 374.172138 
L 602.141523 374.132414 
L 604.57887 374.301615 
L 607.016216 374.664217 
L 609.453563 375.232141 
L 611.890909 376.015373 
L 614.328256 377.02163 
L 616.765602 378.256017 
L 619.202948 379.720679 
L 621.640295 381.414447 
L 624.686978 383.846113 
L 625.296314 384.373035 
L 625.905651 384.04693 
L 628.952334 381.158204 
L 631.999017 377.981603 
L 635.655037 373.85501 
L 640.52973 367.994919 
L 648.451106 358.427969 
L 651.497789 355.068297 
L 653.935135 352.64435 
L 656.372482 350.536039 
L 658.200491 349.210087 
L 660.028501 348.142378 
L 661.856511 347.369824 
L 663.075184 347.037512 
L 664.293857 346.864781 
L 665.512531 346.863299 
L 666.731204 347.044854 
L 667.949877 347.421316 
L 669.16855 348.004607 
L 670.387224 348.806649 
L 671.605897 349.839322 
L 672.82457 351.114416 
L 674.043243 352.643575 
L 675.261916 354.438241 
L 677.089926 357.65243 
L 678.917936 361.525347 
L 680.745946 366.091043 
L 682.573956 371.380758 
L 684.401966 377.422271 
L 686.229975 384.239183 
L 686.839312 382.272822 
L 688.667322 374.394021 
L 690.495332 365.705503 
L 692.932678 352.856066 
L 695.370025 338.575696 
L 697.807371 322.908781 
L 700.244717 305.935163 
L 703.2914 283.069391 
L 706.94742 253.681401 
L 718.524816 158.322672 
L 720.962162 141.176076 
L 722.790172 129.954936 
L 724.008845 123.462843 
L 725.227518 117.905036 
L 726.446192 113.414682 
L 727.664865 110.134612 
L 728.274201 108.995827 
L 728.883538 108.217799 
L 729.492875 107.821316 
L 730.102211 107.827866 
L 730.711548 108.25965 
L 731.320885 109.1396 
L 731.930221 110.4914 
L 732.539558 112.339496 
L 733.148894 114.709121 
L 733.758231 117.62631 
L 734.976904 125.21164 
L 736.195577 135.320526 
L 737.414251 148.192066 
L 738.632924 164.080058 
L 739.851597 183.253665 
L 741.07027 205.998099 
L 742.288943 232.615332 
L 743.507617 263.424828 
L 744.72629 298.7643 
L 745.944963 338.990495 
L 747.163636 384.48 
L 747.163636 384.48 
" clip-path="url(#pb0ddd91a60)" style="fill: none; stroke-dasharray: 5.55,2.4; stroke-dashoffset: 0; stroke: #008000; stroke-width: 1.5"/>
   </g>
   <g id="line2d_33">
    <path d="M 138.436364 384.48 
L 142.70172 384.309294 
L 149.404423 384.29854 
L 178.043243 384.465802 
L 728.274201 384.391879 
L 743.507617 384.322319 
L 747.163636 384.48 
L 747.163636 384.48 
" clip-path="url(#pb0ddd91a60)" style="fill: none; stroke: #ffa500; stroke-width: 1.5; stroke-linecap: square"/>
   </g>
   <g id="line2d_34">
    <path d="M 138.436364 384.48 
L 138.43638 -1 
M 290.603745 -1 
L 290.770516 138.059739 
L 290.858844 -1 
M 320.472228 -1 
L 320.62801 103.995962 
L 321.237346 266.157073 
L 321.65935 -1 
M 350.33019 -1 
L 351.09484 254.716833 
L 351.704177 315.411426 
L 352.709504 -1 
M 380.035765 -1 
L 381.561671 310.987378 
L 382.171007 335.855424 
L 383.916556 -1 
M 409.807976 -1 
L 412.028501 334.07955 
L 412.637838 343.398024 
L 415.006139 -1 
M 439.934966 -1 
L 442.495332 342.912852 
L 443.104668 342.912852 
L 445.665034 -1 
M 470.593861 -1 
L 472.962162 343.398024 
L 473.571499 334.07955 
L 475.792024 -1 
M 501.683444 -1 
L 503.428993 335.855424 
L 504.038329 310.987378 
L 505.564235 -1 
M 532.890496 -1 
L 533.895823 315.411426 
L 534.50516 254.716833 
L 535.26981 -1 
M 563.94065 -1 
L 564.362654 266.157073 
L 564.97199 103.995962 
L 565.127772 -1 
M 594.741156 -1 
L 594.829484 138.059739 
L 594.996255 -1 
M 747.16362 -1 
L 747.163636 384.48 
L 747.163636 384.48 
" clip-path="url(#pb0ddd91a60)" style="fill: none; stroke-dasharray: 5.55,2.4; stroke-dashoffset: 0; stroke: #ffa500; stroke-width: 1.5"/>
   </g>
   <g id="line2d_35">
    <path d="M 138.436364 384.48 
L 139.0457 242.854511 
L 139.655037 146.357445 
L 140.264373 85.085953 
L 140.87371 50.926103 
L 141.483047 37.270609 
L 142.092383 38.776565 
L 142.70172 51.158016 
L 143.311057 71.008809 
L 144.52973 123.010252 
L 146.967076 233.479534 
L 148.185749 279.55601 
L 149.404423 316.729543 
L 150.623096 345.112661 
L 151.841769 365.644459 
L 152.451106 373.366979 
L 153.060442 379.624717 
L 153.669779 384.370283 
L 154.279115 380.532146 
L 154.888452 377.664129 
L 155.497789 375.620579 
L 156.107125 374.268111 
L 156.716462 373.486171 
L 157.325799 373.16713 
L 157.935135 373.21601 
L 158.544472 373.549968 
L 159.153808 374.09758 
L 160.372482 375.60015 
L 164.028501 380.675224 
L 165.247174 382.021497 
L 166.465848 383.099891 
L 167.684521 383.914925 
L 168.903194 384.468205 
L 170.121867 384.093482 
L 171.949877 383.823412 
L 173.777887 383.790841 
L 176.82457 383.9898 
L 182.917936 384.435036 
L 185.355283 384.446599 
L 192.057985 384.431548 
L 212.166093 384.478367 
L 352.92285 384.48 
L 703.900737 384.372708 
L 709.994103 383.889939 
L 712.43145 383.782409 
L 714.259459 383.881066 
L 716.087469 384.25804 
L 716.696806 384.468205 
L 717.915479 383.914925 
L 719.134152 383.099891 
L 720.352826 382.021497 
L 721.571499 380.675224 
L 723.399509 378.231352 
L 725.836855 374.798018 
L 727.055528 373.549968 
L 727.664865 373.21601 
L 728.274201 373.16713 
L 728.883538 373.486171 
L 729.492875 374.268111 
L 730.102211 375.620579 
L 730.711548 377.664129 
L 731.320885 380.532146 
L 731.930221 384.370283 
L 732.539558 379.624717 
L 733.148894 373.366979 
L 733.758231 365.644459 
L 734.367568 356.283121 
L 735.586241 331.97408 
L 736.804914 299.274984 
L 738.023587 257.587772 
L 739.24226 207.464851 
L 742.288943 71.008809 
L 742.89828 51.158016 
L 743.507617 38.776565 
L 744.116953 37.270609 
L 744.72629 50.926103 
L 745.335627 85.085953 
L 745.944963 146.357445 
L 746.5543 242.854511 
L 747.163636 384.48 
L 747.163636 384.48 
" clip-path="url(#pb0ddd91a60)" style="fill: none; stroke: #800080; stroke-width: 1.5; stroke-linecap: square"/>
   </g>
   <g id="line2d_36">
    <path d="M 138.436364 384.48 
L 138.436364 -1 
M 747.163636 -1 
L 747.163636 384.48 
L 747.163636 384.48 
" clip-path="url(#pb0ddd91a60)" style="fill: none; stroke-dasharray: 5.55,2.4; stroke-dashoffset: 0; stroke: #800080; stroke-width: 1.5"/>
   </g>
   <g id="patch_3">
    <path d="M 108 384.48 
L 108 51.84 
" style="fill: none; stroke: #000000; stroke-width: 0.8; stroke-linejoin: miter; stroke-linecap: square"/>
   </g>
   <g id="patch_4">
    <path d="M 777.6 384.48 
L 777.6 51.84 
" style="fill: none; stroke: #000000; stroke-width: 0.8; stroke-linejoin: miter; stroke-linecap: square"/>
   </g>
   <g id="patch_5">
    <path d="M 108 384.48 
L 777.6 384.48 
" style="fill: none; stroke: #000000; stroke-width: 0.8; stroke-linejoin: miter; stroke-linecap: square"/>
   </g>
   <g id="patch_6">
    <path d="M 108 51.84 
L 777.6 51.84 
" style="fill: none; stroke: #000000; stroke-width: 0.8; stroke-linejoin: miter; stroke-linecap: square"/>
   </g>
   <g id="text_17">
    <!-- Comparaison des erreurs d'approximation et des bornes théoriques de Lagrange pour les nœuds uniformément distribués -->
    <g transform="translate(75.542813 45.84) scale(0.12 -0.12)">
     <defs>
      <path id="DejaVuSans-43" d="M 4122 4306 
L 4122 3641 
Q 3803 3938 3442 4084 
Q 3081 4231 2675 4231 
Q 1875 4231 1450 3742 
Q 1025 3253 1025 2328 
Q 1025 1406 1450 917 
Q 1875 428 2675 428 
Q 3081 428 3442 575 
Q 3803 722 4122 1019 
L 4122 359 
Q 3791 134 3420 21 
Q 3050 -91 2638 -91 
Q 1578 -91 968 557 
Q 359 1206 359 2328 
Q 359 3453 968 4101 
Q 1578 4750 2638 4750 
Q 3056 4750 3426 4639 
Q 3797 4528 4122 4306 
z
" transform="scale(0.015625)"/>
      <path id="DejaVuSans-73" d="M 2834 3397 
L 2834 2853 
Q 2591 2978 2328 3040 
Q 2066 3103 1784 3103 
Q 1356 3103 1142 2972 
Q 928 2841 928 2578 
Q 928 2378 1081 2264 
Q 1234 2150 1697 2047 
L 1894 2003 
Q 2506 1872 2764 1633 
Q 3022 1394 3022 966 
Q 3022 478 2636 193 
Q 2250 -91 1575 -91 
Q 1294 -91 989 -36 
Q 684 19 347 128 
L 347 722 
Q 666 556 975 473 
Q 1284 391 1588 391 
Q 1994 391 2212 530 
Q 2431 669 2431 922 
Q 2431 1156 2273 1281 
Q 2116 1406 1581 1522 
L 1381 1569 
Q 847 1681 609 1914 
Q 372 2147 372 2553 
Q 372 3047 722 3315 
Q 1072 3584 1716 3584 
Q 2034 3584 2315 3537 
Q 2597 3491 2834 3397 
z
" transform="scale(0.015625)"/>
      <path id="DejaVuSans-6e" d="M 3513 2113 
L 3513 0 
L 2938 0 
L 2938 2094 
Q 2938 2591 2744 2837 
Q 2550 3084 2163 3084 
Q 1697 3084 1428 2787 
Q 1159 2491 1159 1978 
L 1159 0 
L 581 0 
L 581 3500 
L 1159 3500 
L 1159 2956 
Q 1366 3272 1645 3428 
Q 1925 3584 2291 3584 
Q 2894 3584 3203 3211 
Q 3513 2838 3513 2113 
z
" transform="scale(0.015625)"/>
      <path id="DejaVuSans-64" d="M 2906 2969 
L 2906 4863 
L 3481 4863 
L 3481 0 
L 2906 0 
L 2906 525 
Q 2725 213 2448 61 
Q 2172 -91 1784 -91 
Q 1150 -91 751 415 
Q 353 922 353 1747 
Q 353 2572 751 3078 
Q 1150 3584 1784 3584 
Q 2172 3584 2448 3432 
Q 2725 3281 2906 2969 
z
M 947 1747 
Q 947 1113 1208 752 
Q 1469 391 1925 391 
Q 2381 391 2643 752 
Q 2906 1113 2906 1747 
Q 2906 2381 2643 2742 
Q 2381 3103 1925 3103 
Q 1469 3103 1208 2742 
Q 947 2381 947 1747 
z
" transform="scale(0.015625)"/>
      <path id="DejaVuSans-27" d="M 1147 4666 
L 1147 2931 
L 616 2931 
L 616 4666 
L 1147 4666 
z
" transform="scale(0.015625)"/>
      <path id="DejaVuSans-62" d="M 3116 1747 
Q 3116 2381 2855 2742 
Q 2594 3103 2138 3103 
Q 1681 3103 1420 2742 
Q 1159 2381 1159 1747 
Q 1159 1113 1420 752 
Q 1681 391 2138 391 
Q 2594 391 2855 752 
Q 3116 1113 3116 1747 
z
M 1159 2969 
Q 1341 3281 1617 3432 
Q 1894 3584 2278 3584 
Q 2916 3584 3314 3078 
Q 3713 2572 3713 1747 
Q 3713 922 3314 415 
Q 2916 -91 2278 -91 
Q 1894 -91 1617 61 
Q 1341 213 1159 525 
L 1159 0 
L 581 0 
L 581 4863 
L 1159 4863 
L 1159 2969 
z
" transform="scale(0.015625)"/>
      <path id="DejaVuSans-4c" d="M 628 4666 
L 1259 4666 
L 1259 531 
L 3531 531 
L 3531 0 
L 628 0 
L 628 4666 
z
" transform="scale(0.015625)"/>
      <path id="DejaVuSans-153" d="M 5631 2063 
Q 5625 2538 5369 2817 
Q 5113 3097 4684 3097 
Q 4206 3097 3917 2825 
Q 3628 2553 3584 2059 
L 5631 2063 
z
M 6209 1894 
L 6209 1613 
L 3566 1613 
Q 3603 1019 3922 708 
Q 4241 397 4813 397 
Q 5144 397 5456 478 
Q 5769 559 6075 722 
L 6075 178 
Q 5763 47 5438 -22 
Q 5113 -91 4781 -91 
Q 4281 -91 3903 81 
Q 3525 253 3272 594 
Q 3050 250 2723 79 
Q 2397 -91 1959 -91 
Q 1206 -91 779 398 
Q 353 888 353 1747 
Q 353 2609 779 3096 
Q 1206 3584 1959 3584 
Q 2397 3584 2726 3411 
Q 3056 3238 3263 2900 
Q 3506 3234 3868 3409 
Q 4231 3584 4678 3584 
Q 5384 3584 5796 3129 
Q 6209 2675 6209 1894 
z
M 1959 3097 
Q 1497 3097 1228 2736 
Q 959 2375 959 1747 
Q 959 1119 1226 758 
Q 1494 397 1959 397 
Q 2419 397 2687 759 
Q 2956 1122 2956 1747 
Q 2956 2369 2687 2733 
Q 2419 3097 1959 3097 
z
" transform="scale(0.015625)"/>
     </defs>
     <use xlink:href="#DejaVuSans-43"/>
     <use xlink:href="#DejaVuSans-6f" x="69.824219"/>
     <use xlink:href="#DejaVuSans-6d" x="131.005859"/>
     <use xlink:href="#DejaVuSans-70" x="228.417969"/>
     <use xlink:href="#DejaVuSans-61" x="291.894531"/>
     <use xlink:href="#DejaVuSans-72" x="353.173828"/>
     <use xlink:href="#DejaVuSans-61" x="394.287109"/>
     <use xlink:href="#DejaVuSans-69" x="455.566406"/>
     <use xlink:href="#DejaVuSans-73" x="483.349609"/>
     <use xlink:href="#DejaVuSans-6f" x="535.449219"/>
     <use xlink:href="#DejaVuSans-6e" x="596.630859"/>
     <use xlink:href="#DejaVuSans-20" x="660.009766"/>
     <use xlink:href="#DejaVuSans-64" x="691.796875"/>
     <use xlink:href="#DejaVuSans-65" x="755.273438"/>
     <use xlink:href="#DejaVuSans-73" x="816.796875"/>
     <use xlink:href="#DejaVuSans-20" x="868.896484"/>
     <use xlink:href="#DejaVuSans-65" x="900.683594"/>
     <use xlink:href="#DejaVuSans-72" x="962.207031"/>
     <use xlink:href="#DejaVuSans-72" x="1001.570312"/>
     <use xlink:href="#DejaVuSans-65" x="1040.433594"/>
     <use xlink:href="#DejaVuSans-75" x="1101.957031"/>
     <use xlink:href="#DejaVuSans-72" x="1165.335938"/>
     <use xlink:href="#DejaVuSans-73" x="1206.449219"/>
     <use xlink:href="#DejaVuSans-20" x="1258.548828"/>
     <use xlink:href="#DejaVuSans-64" x="1290.335938"/>
     <use xlink:href="#DejaVuSans-27" x="1353.8125"/>
     <use xlink:href="#DejaVuSans-61" x="1381.302734"/>
     <use xlink:href="#DejaVuSans-70" x="1442.582031"/>
     <use xlink:href="#DejaVuSans-70" x="1506.058594"/>
     <use xlink:href="#DejaVuSans-72" x="1569.535156"/>
     <use xlink:href="#DejaVuSans-6f" x="1608.398438"/>
     <use xlink:href="#DejaVuSans-78" x="1666.455078"/>
     <use xlink:href="#DejaVuSans-69" x="1725.634766"/>
     <use xlink:href="#DejaVuSans-6d" x="1753.417969"/>
     <use xlink:href="#DejaVuSans-61" x="1850.830078"/>
     <use xlink:href="#DejaVuSans-74" x="1912.109375"/>
     <use xlink:href="#DejaVuSans-69" x="1951.318359"/>
     <use xlink:href="#DejaVuSans-6f" x="1979.101562"/>
     <use xlink:href="#DejaVuSans-6e" x="2040.283203"/>
     <use xlink:href="#DejaVuSans-20" x="2103.662109"/>
     <use xlink:href="#DejaVuSans-65" x="2135.449219"/>
     <use xlink:href="#DejaVuSans-74" x="2196.972656"/>
     <use xlink:href="#DejaVuSans-20" x="2236.181641"/>
     <use xlink:href="#DejaVuSans-64" x="2267.96875"/>
     <use xlink:href="#DejaVuSans-65" x="2331.445312"/>
     <use xlink:href="#DejaVuSans-73" x="2392.96875"/>
     <use xlink:href="#DejaVuSans-20" x="2445.068359"/>
     <use xlink:href="#DejaVuSans-62" x="2476.855469"/>
     <use xlink:href="#DejaVuSans-6f" x="2540.332031"/>
     <use xlink:href="#DejaVuSans-72" x="2601.513672"/>
     <use xlink:href="#DejaVuSans-6e" x="2640.876953"/>
     <use xlink:href="#DejaVuSans-65" x="2704.255859"/>
     <use xlink:href="#DejaVuSans-73" x="2765.779297"/>
     <use xlink:href="#DejaVuSans-20" x="2817.878906"/>
     <use xlink:href="#DejaVuSans-74" x="2849.666016"/>
     <use xlink:href="#DejaVuSans-68" x="2888.875"/>
     <use xlink:href="#DejaVuSans-e9" x="2952.253906"/>
     <use xlink:href="#DejaVuSans-6f" x="3013.777344"/>
     <use xlink:href="#DejaVuSans-72" x="3074.958984"/>
     <use xlink:href="#DejaVuSans-69" x="3116.072266"/>
     <use xlink:href="#DejaVuSans-71" x="3143.855469"/>
     <use xlink:href="#DejaVuSans-75" x="3207.332031"/>
     <use xlink:href="#DejaVuSans-65" x="3270.710938"/>
     <use xlink:href="#DejaVuSans-73" x="3332.234375"/>
     <use xlink:href="#DejaVuSans-20" x="3384.333984"/>
     <use xlink:href="#DejaVuSans-64" x="3416.121094"/>
     <use xlink:href="#DejaVuSans-65" x="3479.597656"/>
     <use xlink:href="#DejaVuSans-20" x="3541.121094"/>
     <use xlink:href="#DejaVuSans-4c" x="3572.908203"/>
     <use xlink:href="#DejaVuSans-61" x="3628.621094"/>
     <use xlink:href="#DejaVuSans-67" x="3689.900391"/>
     <use xlink:href="#DejaVuSans-72" x="3753.376953"/>
     <use xlink:href="#DejaVuSans-61" x="3794.490234"/>
     <use xlink:href="#DejaVuSans-6e" x="3855.769531"/>
     <use xlink:href="#DejaVuSans-67" x="3919.148438"/>
     <use xlink:href="#DejaVuSans-65" x="3982.625"/>
     <use xlink:href="#DejaVuSans-20" x="4044.148438"/>
     <use xlink:href="#DejaVuSans-70" x="4075.935547"/>
     <use xlink:href="#DejaVuSans-6f" x="4139.412109"/>
     <use xlink:href="#DejaVuSans-75" x="4200.59375"/>
     <use xlink:href="#DejaVuSans-72" x="4263.972656"/>
     <use xlink:href="#DejaVuSans-20" x="4305.085938"/>
     <use xlink:href="#DejaVuSans-6c" x="4336.873047"/>
     <use xlink:href="#DejaVuSans-65" x="4364.65625"/>
     <use xlink:href="#DejaVuSans-73" x="4426.179688"/>
     <use xlink:href="#DejaVuSans-20" x="4478.279297"/>
     <use xlink:href="#DejaVuSans-6e" x="4510.066406"/>
     <use xlink:href="#DejaVuSans-153" x="4573.445312"/>
     <use xlink:href="#DejaVuSans-75" x="4675.740234"/>
     <use xlink:href="#DejaVuSans-64" x="4739.119141"/>
     <use xlink:href="#DejaVuSans-73" x="4802.595703"/>
     <use xlink:href="#DejaVuSans-20" x="4854.695312"/>
     <use xlink:href="#DejaVuSans-75" x="4886.482422"/>
     <use xlink:href="#DejaVuSans-6e" x="4949.861328"/>
     <use xlink:href="#DejaVuSans-69" x="5013.240234"/>
     <use xlink:href="#DejaVuSans-66" x="5041.023438"/>
     <use xlink:href="#DejaVuSans-6f" x="5076.228516"/>
     <use xlink:href="#DejaVuSans-72" x="5137.410156"/>
     <use xlink:href="#DejaVuSans-6d" x="5176.773438"/>
     <use xlink:href="#DejaVuSans-e9" x="5274.185547"/>
     <use xlink:href="#DejaVuSans-6d" x="5335.708984"/>
     <use xlink:href="#DejaVuSans-65" x="5433.121094"/>
     <use xlink:href="#DejaVuSans-6e" x="5494.644531"/>
     <use xlink:href="#DejaVuSans-74" x="5558.023438"/>
     <use xlink:href="#DejaVuSans-20" x="5597.232422"/>
     <use xlink:href="#DejaVuSans-64" x="5629.019531"/>
     <use xlink:href="#DejaVuSans-69" x="5692.496094"/>
     <use xlink:href="#DejaVuSans-73" x="5720.279297"/>
     <use xlink:href="#DejaVuSans-74" x="5772.378906"/>
     <use xlink:href="#DejaVuSans-72" x="5811.587891"/>
     <use xlink:href="#DejaVuSans-69" x="5852.701172"/>
     <use xlink:href="#DejaVuSans-62" x="5880.484375"/>
     <use xlink:href="#DejaVuSans-75" x="5943.960938"/>
     <use xlink:href="#DejaVuSans-e9" x="6007.339844"/>
     <use xlink:href="#DejaVuSans-73" x="6068.863281"/>
    </g>
   </g>
   <g id="legend_1">
    <g id="patch_7">
     <path d="M 352.273438 379.48 
L 533.326563 379.48 
Q 535.326563 379.48 535.326563 377.48 
L 535.326563 261.055 
Q 535.326563 259.055 533.326563 259.055 
L 352.273438 259.055 
Q 350.273438 259.055 350.273438 261.055 
L 350.273438 377.48 
Q 350.273438 379.48 352.273438 379.48 
z
" style="fill: #ffffff; opacity: 0.8; stroke: #cccccc; stroke-linejoin: miter"/>
    </g>
    <g id="line2d_37">
     <path d="M 354.273438 267.153437 
L 364.273438 267.153437 
L 374.273438 267.153437 
" style="fill: none; stroke: #0000ff; stroke-width: 1.5; stroke-linecap: square"/>
    </g>
    <g id="text_18">
     <!-- Erreur d'approximation, n=5 -->
     <g transform="translate(382.273438 270.653437) scale(0.1 -0.1)">
      <defs>
       <path id="DejaVuSans-45" d="M 628 4666 
L 3578 4666 
L 3578 4134 
L 1259 4134 
L 1259 2753 
L 3481 2753 
L 3481 2222 
L 1259 2222 
L 1259 531 
L 3634 531 
L 3634 0 
L 628 0 
L 628 4666 
z
" transform="scale(0.015625)"/>
       <path id="DejaVuSans-2c" d="M 750 794 
L 1409 794 
L 1409 256 
L 897 -744 
L 494 -744 
L 750 256 
L 750 794 
z
" transform="scale(0.015625)"/>
       <path id="DejaVuSans-3d" d="M 678 2906 
L 4684 2906 
L 4684 2381 
L 678 2381 
L 678 2906 
z
M 678 1631 
L 4684 1631 
L 4684 1100 
L 678 1100 
L 678 1631 
z
" transform="scale(0.015625)"/>
      </defs>
      <use xlink:href="#DejaVuSans-45"/>
      <use xlink:href="#DejaVuSans-72" x="63.183594"/>
      <use xlink:href="#DejaVuSans-72" x="102.546875"/>
      <use xlink:href="#DejaVuSans-65" x="141.410156"/>
      <use xlink:href="#DejaVuSans-75" x="202.933594"/>
      <use xlink:href="#DejaVuSans-72" x="266.3125"/>
      <use xlink:href="#DejaVuSans-20" x="307.425781"/>
      <use xlink:href="#DejaVuSans-64" x="339.212891"/>
      <use xlink:href="#DejaVuSans-27" x="402.689453"/>
      <use xlink:href="#DejaVuSans-61" x="430.179688"/>
      <use xlink:href="#DejaVuSans-70" x="491.458984"/>
      <use xlink:href="#DejaVuSans-70" x="554.935547"/>
      <use xlink:href="#DejaVuSans-72" x="618.412109"/>
      <use xlink:href="#DejaVuSans-6f" x="657.275391"/>
      <use xlink:href="#DejaVuSans-78" x="715.332031"/>
      <use xlink:href="#DejaVuSans-69" x="774.511719"/>
      <use xlink:href="#DejaVuSans-6d" x="802.294922"/>
      <use xlink:href="#DejaVuSans-61" x="899.707031"/>
      <use xlink:href="#DejaVuSans-74" x="960.986328"/>
      <use xlink:href="#DejaVuSans-69" x="1000.195312"/>
      <use xlink:href="#DejaVuSans-6f" x="1027.978516"/>
      <use xlink:href="#DejaVuSans-6e" x="1089.160156"/>
      <use xlink:href="#DejaVuSans-2c" x="1152.539062"/>
      <use xlink:href="#DejaVuSans-20" x="1184.326172"/>
      <use xlink:href="#DejaVuSans-6e" x="1216.113281"/>
      <use xlink:href="#DejaVuSans-3d" x="1279.492188"/>
      <use xlink:href="#DejaVuSans-35" x="1363.28125"/>
     </g>
    </g>
    <g id="line2d_38">
     <path d="M 354.273438 281.831563 
L 364.273438 281.831563 
L 374.273438 281.831563 
" style="fill: none; stroke-dasharray: 5.55,2.4; stroke-dashoffset: 0; stroke: #0000ff; stroke-width: 1.5"/>
    </g>
    <g id="text_19">
     <!-- Reste de Lagrange, n=5 -->
     <g transform="translate(382.273438 285.331563) scale(0.1 -0.1)">
      <defs>
       <path id="DejaVuSans-52" d="M 2841 2188 
Q 3044 2119 3236 1894 
Q 3428 1669 3622 1275 
L 4263 0 
L 3584 0 
L 2988 1197 
Q 2756 1666 2539 1819 
Q 2322 1972 1947 1972 
L 1259 1972 
L 1259 0 
L 628 0 
L 628 4666 
L 2053 4666 
Q 2853 4666 3247 4331 
Q 3641 3997 3641 3322 
Q 3641 2881 3436 2590 
Q 3231 2300 2841 2188 
z
M 1259 4147 
L 1259 2491 
L 2053 2491 
Q 2509 2491 2742 2702 
Q 2975 2913 2975 3322 
Q 2975 3731 2742 3939 
Q 2509 4147 2053 4147 
L 1259 4147 
z
" transform="scale(0.015625)"/>
      </defs>
      <use xlink:href="#DejaVuSans-52"/>
      <use xlink:href="#DejaVuSans-65" x="64.982422"/>
      <use xlink:href="#DejaVuSans-73" x="126.505859"/>
      <use xlink:href="#DejaVuSans-74" x="178.605469"/>
      <use xlink:href="#DejaVuSans-65" x="217.814453"/>
      <use xlink:href="#DejaVuSans-20" x="279.337891"/>
      <use xlink:href="#DejaVuSans-64" x="311.125"/>
      <use xlink:href="#DejaVuSans-65" x="374.601562"/>
      <use xlink:href="#DejaVuSans-20" x="436.125"/>
      <use xlink:href="#DejaVuSans-4c" x="467.912109"/>
      <use xlink:href="#DejaVuSans-61" x="523.625"/>
      <use xlink:href="#DejaVuSans-67" x="584.904297"/>
      <use xlink:href="#DejaVuSans-72" x="648.380859"/>
      <use xlink:href="#DejaVuSans-61" x="689.494141"/>
      <use xlink:href="#DejaVuSans-6e" x="750.773438"/>
      <use xlink:href="#DejaVuSans-67" x="814.152344"/>
      <use xlink:href="#DejaVuSans-65" x="877.628906"/>
      <use xlink:href="#DejaVuSans-2c" x="939.152344"/>
      <use xlink:href="#DejaVuSans-20" x="970.939453"/>
      <use xlink:href="#DejaVuSans-6e" x="1002.726562"/>
      <use xlink:href="#DejaVuSans-3d" x="1066.105469"/>
      <use xlink:href="#DejaVuSans-35" x="1149.894531"/>
     </g>
    </g>
    <g id="line2d_39">
     <path d="M 354.273438 296.509688 
L 364.273438 296.509688 
L 374.273438 296.509688 
" style="fill: none; stroke: #008000; stroke-width: 1.5; stroke-linecap: square"/>
    </g>
    <g id="text_20">
     <!-- Erreur d'approximation, n=10 -->
     <g transform="translate(382.273438 300.009688) scale(0.1 -0.1)">
      <use xlink:href="#DejaVuSans-45"/>
      <use xlink:href="#DejaVuSans-72" x="63.183594"/>
      <use xlink:href="#DejaVuSans-72" x="102.546875"/>
      <use xlink:href="#DejaVuSans-65" x="141.410156"/>
      <use xlink:href="#DejaVuSans-75" x="202.933594"/>
      <use xlink:href="#DejaVuSans-72" x="266.3125"/>
      <use xlink:href="#DejaVuSans-20" x="307.425781"/>
      <use xlink:href="#DejaVuSans-64" x="339.212891"/>
      <use xlink:href="#DejaVuSans-27" x="402.689453"/>
      <use xlink:href="#DejaVuSans-61" x="430.179688"/>
      <use xlink:href="#DejaVuSans-70" x="491.458984"/>
      <use xlink:href="#DejaVuSans-70" x="554.935547"/>
      <use xlink:href="#DejaVuSans-72" x="618.412109"/>
      <use xlink:href="#DejaVuSans-6f" x="657.275391"/>
      <use xlink:href="#DejaVuSans-78" x="715.332031"/>
      <use xlink:href="#DejaVuSans-69" x="774.511719"/>
      <use xlink:href="#DejaVuSans-6d" x="802.294922"/>
      <use xlink:href="#DejaVuSans-61" x="899.707031"/>
      <use xlink:href="#DejaVuSans-74" x="960.986328"/>
      <use xlink:href="#DejaVuSans-69" x="1000.195312"/>
      <use xlink:href="#DejaVuSans-6f" x="1027.978516"/>
      <use xlink:href="#DejaVuSans-6e" x="1089.160156"/>
      <use xlink:href="#DejaVuSans-2c" x="1152.539062"/>
      <use xlink:href="#DejaVuSans-20" x="1184.326172"/>
      <use xlink:href="#DejaVuSans-6e" x="1216.113281"/>
      <use xlink:href="#DejaVuSans-3d" x="1279.492188"/>
      <use xlink:href="#DejaVuSans-31" x="1363.28125"/>
      <use xlink:href="#DejaVuSans-30" x="1426.904297"/>
     </g>
    </g>
    <g id="line2d_40">
     <path d="M 354.273438 311.187813 
L 364.273438 311.187813 
L 374.273438 311.187813 
" style="fill: none; stroke-dasharray: 5.55,2.4; stroke-dashoffset: 0; stroke: #008000; stroke-width: 1.5"/>
    </g>
    <g id="text_21">
     <!-- Reste de Lagrange, n=10 -->
     <g transform="translate(382.273438 314.687813) scale(0.1 -0.1)">
      <use xlink:href="#DejaVuSans-52"/>
      <use xlink:href="#DejaVuSans-65" x="64.982422"/>
      <use xlink:href="#DejaVuSans-73" x="126.505859"/>
      <use xlink:href="#DejaVuSans-74" x="178.605469"/>
      <use xlink:href="#DejaVuSans-65" x="217.814453"/>
      <use xlink:href="#DejaVuSans-20" x="279.337891"/>
      <use xlink:href="#DejaVuSans-64" x="311.125"/>
      <use xlink:href="#DejaVuSans-65" x="374.601562"/>
      <use xlink:href="#DejaVuSans-20" x="436.125"/>
      <use xlink:href="#DejaVuSans-4c" x="467.912109"/>
      <use xlink:href="#DejaVuSans-61" x="523.625"/>
      <use xlink:href="#DejaVuSans-67" x="584.904297"/>
      <use xlink:href="#DejaVuSans-72" x="648.380859"/>
      <use xlink:href="#DejaVuSans-61" x="689.494141"/>
      <use xlink:href="#DejaVuSans-6e" x="750.773438"/>
      <use xlink:href="#DejaVuSans-67" x="814.152344"/>
      <use xlink:href="#DejaVuSans-65" x="877.628906"/>
      <use xlink:href="#DejaVuSans-2c" x="939.152344"/>
      <use xlink:href="#DejaVuSans-20" x="970.939453"/>
      <use xlink:href="#DejaVuSans-6e" x="1002.726562"/>
      <use xlink:href="#DejaVuSans-3d" x="1066.105469"/>
      <use xlink:href="#DejaVuSans-31" x="1149.894531"/>
      <use xlink:href="#DejaVuSans-30" x="1213.517578"/>
     </g>
    </g>
    <g id="line2d_41">
     <path d="M 354.273438 325.865938 
L 364.273438 325.865938 
L 374.273438 325.865938 
" style="fill: none; stroke: #ffa500; stroke-width: 1.5; stroke-linecap: square"/>
    </g>
    <g id="text_22">
     <!-- Erreur d'approximation, n=20 -->
     <g transform="translate(382.273438 329.365938) scale(0.1 -0.1)">
      <use xlink:href="#DejaVuSans-45"/>
      <use xlink:href="#DejaVuSans-72" x="63.183594"/>
      <use xlink:href="#DejaVuSans-72" x="102.546875"/>
      <use xlink:href="#DejaVuSans-65" x="141.410156"/>
      <use xlink:href="#DejaVuSans-75" x="202.933594"/>
      <use xlink:href="#DejaVuSans-72" x="266.3125"/>
      <use xlink:href="#DejaVuSans-20" x="307.425781"/>
      <use xlink:href="#DejaVuSans-64" x="339.212891"/>
      <use xlink:href="#DejaVuSans-27" x="402.689453"/>
      <use xlink:href="#DejaVuSans-61" x="430.179688"/>
      <use xlink:href="#DejaVuSans-70" x="491.458984"/>
      <use xlink:href="#DejaVuSans-70" x="554.935547"/>
      <use xlink:href="#DejaVuSans-72" x="618.412109"/>
      <use xlink:href="#DejaVuSans-6f" x="657.275391"/>
      <use xlink:href="#DejaVuSans-78" x="715.332031"/>
      <use xlink:href="#DejaVuSans-69" x="774.511719"/>
      <use xlink:href="#DejaVuSans-6d" x="802.294922"/>
      <use xlink:href="#DejaVuSans-61" x="899.707031"/>
      <use xlink:href="#DejaVuSans-74" x="960.986328"/>
      <use xlink:href="#DejaVuSans-69" x="1000.195312"/>
      <use xlink:href="#DejaVuSans-6f" x="1027.978516"/>
      <use xlink:href="#DejaVuSans-6e" x="1089.160156"/>
      <use xlink:href="#DejaVuSans-2c" x="1152.539062"/>
      <use xlink:href="#DejaVuSans-20" x="1184.326172"/>
      <use xlink:href="#DejaVuSans-6e" x="1216.113281"/>
      <use xlink:href="#DejaVuSans-3d" x="1279.492188"/>
      <use xlink:href="#DejaVuSans-32" x="1363.28125"/>
      <use xlink:href="#DejaVuSans-30" x="1426.904297"/>
     </g>
    </g>
    <g id="line2d_42">
     <path d="M 354.273438 340.544062 
L 364.273438 340.544062 
L 374.273438 340.544062 
" style="fill: none; stroke-dasharray: 5.55,2.4; stroke-dashoffset: 0; stroke: #ffa500; stroke-width: 1.5"/>
    </g>
    <g id="text_23">
     <!-- Reste de Lagrange, n=20 -->
     <g transform="translate(382.273438 344.044062) scale(0.1 -0.1)">
      <use xlink:href="#DejaVuSans-52"/>
      <use xlink:href="#DejaVuSans-65" x="64.982422"/>
      <use xlink:href="#DejaVuSans-73" x="126.505859"/>
      <use xlink:href="#DejaVuSans-74" x="178.605469"/>
      <use xlink:href="#DejaVuSans-65" x="217.814453"/>
      <use xlink:href="#DejaVuSans-20" x="279.337891"/>
      <use xlink:href="#DejaVuSans-64" x="311.125"/>
      <use xlink:href="#DejaVuSans-65" x="374.601562"/>
      <use xlink:href="#DejaVuSans-20" x="436.125"/>
      <use xlink:href="#DejaVuSans-4c" x="467.912109"/>
      <use xlink:href="#DejaVuSans-61" x="523.625"/>
      <use xlink:href="#DejaVuSans-67" x="584.904297"/>
      <use xlink:href="#DejaVuSans-72" x="648.380859"/>
      <use xlink:href="#DejaVuSans-61" x="689.494141"/>
      <use xlink:href="#DejaVuSans-6e" x="750.773438"/>
      <use xlink:href="#DejaVuSans-67" x="814.152344"/>
      <use xlink:href="#DejaVuSans-65" x="877.628906"/>
      <use xlink:href="#DejaVuSans-2c" x="939.152344"/>
      <use xlink:href="#DejaVuSans-20" x="970.939453"/>
      <use xlink:href="#DejaVuSans-6e" x="1002.726562"/>
      <use xlink:href="#DejaVuSans-3d" x="1066.105469"/>
      <use xlink:href="#DejaVuSans-32" x="1149.894531"/>
      <use xlink:href="#DejaVuSans-30" x="1213.517578"/>
     </g>
    </g>
    <g id="line2d_43">
     <path d="M 354.273438 355.222188 
L 364.273438 355.222188 
L 374.273438 355.222188 
" style="fill: none; stroke: #800080; stroke-width: 1.5; stroke-linecap: square"/>
    </g>
    <g id="text_24">
     <!-- Erreur d'approximation, n=40 -->
     <g transform="translate(382.273438 358.722188) scale(0.1 -0.1)">
      <use xlink:href="#DejaVuSans-45"/>
      <use xlink:href="#DejaVuSans-72" x="63.183594"/>
      <use xlink:href="#DejaVuSans-72" x="102.546875"/>
      <use xlink:href="#DejaVuSans-65" x="141.410156"/>
      <use xlink:href="#DejaVuSans-75" x="202.933594"/>
      <use xlink:href="#DejaVuSans-72" x="266.3125"/>
      <use xlink:href="#DejaVuSans-20" x="307.425781"/>
      <use xlink:href="#DejaVuSans-64" x="339.212891"/>
      <use xlink:href="#DejaVuSans-27" x="402.689453"/>
      <use xlink:href="#DejaVuSans-61" x="430.179688"/>
      <use xlink:href="#DejaVuSans-70" x="491.458984"/>
      <use xlink:href="#DejaVuSans-70" x="554.935547"/>
      <use xlink:href="#DejaVuSans-72" x="618.412109"/>
      <use xlink:href="#DejaVuSans-6f" x="657.275391"/>
      <use xlink:href="#DejaVuSans-78" x="715.332031"/>
      <use xlink:href="#DejaVuSans-69" x="774.511719"/>
      <use xlink:href="#DejaVuSans-6d" x="802.294922"/>
      <use xlink:href="#DejaVuSans-61" x="899.707031"/>
      <use xlink:href="#DejaVuSans-74" x="960.986328"/>
      <use xlink:href="#DejaVuSans-69" x="1000.195312"/>
      <use xlink:href="#DejaVuSans-6f" x="1027.978516"/>
      <use xlink:href="#DejaVuSans-6e" x="1089.160156"/>
      <use xlink:href="#DejaVuSans-2c" x="1152.539062"/>
      <use xlink:href="#DejaVuSans-20" x="1184.326172"/>
      <use xlink:href="#DejaVuSans-6e" x="1216.113281"/>
      <use xlink:href="#DejaVuSans-3d" x="1279.492188"/>
      <use xlink:href="#DejaVuSans-34" x="1363.28125"/>
      <use xlink:href="#DejaVuSans-30" x="1426.904297"/>
     </g>
    </g>
    <g id="line2d_44">
     <path d="M 354.273438 369.900313 
L 364.273438 369.900313 
L 374.273438 369.900313 
" style="fill: none; stroke-dasharray: 5.55,2.4; stroke-dashoffset: 0; stroke: #800080; stroke-width: 1.5"/>
    </g>
    <g id="text_25">
     <!-- Reste de Lagrange, n=40 -->
     <g transform="translate(382.273438 373.400313) scale(0.1 -0.1)">
      <use xlink:href="#DejaVuSans-52"/>
      <use xlink:href="#DejaVuSans-65" x="64.982422"/>
      <use xlink:href="#DejaVuSans-73" x="126.505859"/>
      <use xlink:href="#DejaVuSans-74" x="178.605469"/>
      <use xlink:href="#DejaVuSans-65" x="217.814453"/>
      <use xlink:href="#DejaVuSans-20" x="279.337891"/>
      <use xlink:href="#DejaVuSans-64" x="311.125"/>
      <use xlink:href="#DejaVuSans-65" x="374.601562"/>
      <use xlink:href="#DejaVuSans-20" x="436.125"/>
      <use xlink:href="#DejaVuSans-4c" x="467.912109"/>
      <use xlink:href="#DejaVuSans-61" x="523.625"/>
      <use xlink:href="#DejaVuSans-67" x="584.904297"/>
      <use xlink:href="#DejaVuSans-72" x="648.380859"/>
      <use xlink:href="#DejaVuSans-61" x="689.494141"/>
      <use xlink:href="#DejaVuSans-6e" x="750.773438"/>
      <use xlink:href="#DejaVuSans-67" x="814.152344"/>
      <use xlink:href="#DejaVuSans-65" x="877.628906"/>
      <use xlink:href="#DejaVuSans-2c" x="939.152344"/>
      <use xlink:href="#DejaVuSans-20" x="970.939453"/>
      <use xlink:href="#DejaVuSans-6e" x="1002.726562"/>
      <use xlink:href="#DejaVuSans-3d" x="1066.105469"/>
      <use xlink:href="#DejaVuSans-34" x="1149.894531"/>
      <use xlink:href="#DejaVuSans-30" x="1213.517578"/>
     </g>
    </g>
   </g>
  </g>
 </g>
 <defs>
  <clipPath id="pb0ddd91a60">
   <rect x="108" y="51.84" width="669.6" height="332.64"/>
  </clipPath>
 </defs>
</svg>
