<?xml version="1.0" encoding="utf-8" standalone="no"?>
<!DOCTYPE svg PUBLIC "-//W3C//DTD SVG 1.1//EN"
  "http://www.w3.org/Graphics/SVG/1.1/DTD/svg11.dtd">
<svg xmlns:xlink="http://www.w3.org/1999/xlink" width="460.8pt" height="345.6pt" viewBox="0 0 460.8 345.6" xmlns="http://www.w3.org/2000/svg" version="1.1">
 <metadata>
  <rdf:RDF xmlns:dc="http://purl.org/dc/elements/1.1/" xmlns:cc="http://creativecommons.org/ns#" xmlns:rdf="http://www.w3.org/1999/02/22-rdf-syntax-ns#">
   <cc:Work>
    <dc:type rdf:resource="http://purl.org/dc/dcmitype/StillImage"/>
    <dc:date>2024-11-07T20:06:38.694277</dc:date>
    <dc:format>image/svg+xml</dc:format>
    <dc:creator>
     <cc:Agent>
      <dc:title>Matplotlib v3.9.2, https://matplotlib.org/</dc:title>
     </cc:Agent>
    </dc:creator>
   </cc:Work>
  </rdf:RDF>
 </metadata>
 <defs>
  <style type="text/css">*{stroke-linejoin: round; stroke-linecap: butt}</style>
 </defs>
 <g id="figure_1">
  <g id="patch_1">
   <path d="M 0 345.6 
L 460.8 345.6 
L 460.8 0 
L 0 0 
z
" style="fill: #ffffff"/>
  </g>
  <g id="axes_1">
   <g id="patch_2">
    <path d="M 103.104 307.584 
L 369.216 307.584 
L 369.216 41.472 
L 103.104 41.472 
z
" style="fill: #ffffff"/>
   </g>
   <g id="PolyCollection_1">
    <defs>
     <path id="me1cd12ad88" d="M 236.1596 -171.311421 
L 236.1604 -171.311421 
L 236.161597 -171.550201 
L 236.163589 -171.788342 
L 236.166374 -172.025843 
L 236.169949 -172.262703 
L 236.174312 -172.498924 
L 236.179461 -172.734505 
L 236.185393 -172.969446 
L 236.192106 -173.203747 
L 236.199596 -173.437408 
L 236.207863 -173.670429 
L 236.216903 -173.90281 
L 236.226715 -174.134551 
L 236.237295 -174.365653 
L 236.248641 -174.596114 
L 236.260752 -174.825935 
L 236.273624 -175.055117 
L 236.287255 -175.283658 
L 236.301642 -175.51156 
L 236.316784 -175.738821 
L 236.332678 -175.965443 
L 236.349321 -176.191424 
L 236.366712 -176.416766 
L 236.384847 -176.641468 
L 236.403724 -176.86553 
L 236.423341 -177.088952 
L 236.443696 -177.311734 
L 236.464786 -177.533875 
L 236.486608 -177.755378 
L 236.509161 -177.97624 
L 236.532441 -178.196462 
L 236.556448 -178.416044 
L 236.581177 -178.634986 
L 236.606626 -178.853288 
L 236.632794 -179.070951 
L 236.659678 -179.287973 
L 236.687276 -179.504356 
L 236.715584 -179.720098 
L 236.744601 -179.935201 
L 236.774325 -180.149663 
L 236.804752 -180.363486 
L 236.83588 -180.576669 
L 236.867708 -180.789211 
L 236.900232 -181.001114 
L 236.933451 -181.212377 
L 236.967361 -181.423 
L 237.001961 -181.632983 
L 237.037248 -181.842326 
L 237.073219 -182.051029 
L 237.109873 -182.259092 
L 237.147206 -182.466515 
L 237.185217 -182.673298 
L 237.223903 -182.879442 
L 237.263262 -183.084945 
L 237.303291 -183.289808 
L 237.343987 -183.494032 
L 237.385349 -183.697615 
L 237.427374 -183.900559 
L 237.47006 -184.102862 
L 237.513404 -184.304526 
L 237.557403 -184.50555 
L 237.602056 -184.705933 
L 237.64736 -184.905677 
L 237.693313 -185.104781 
L 237.739912 -185.303245 
L 237.787154 -185.501069 
L 237.835038 -185.698253 
L 237.883561 -185.894797 
L 237.932721 -186.090701 
L 237.982515 -186.285965 
L 238.03294 -186.480589 
L 238.083995 -186.674574 
L 238.135677 -186.867918 
L 238.187984 -187.060622 
L 238.240912 -187.252687 
L 238.294461 -187.444111 
L 238.348626 -187.634896 
L 238.403407 -187.82504 
L 238.4588 -188.014545 
L 238.514804 -188.203409 
L 238.571415 -188.391634 
L 238.628632 -188.579219 
L 238.686451 -188.766164 
L 238.744871 -188.952469 
L 238.80389 -189.138134 
L 238.863503 -189.323159 
L 238.923711 -189.507544 
L 238.984509 -189.691289 
L 239.045896 -189.874394 
L 239.107869 -190.056859 
L 239.170426 -190.238684 
L 239.233564 -190.41987 
L 239.29728 -190.600415 
L 239.361574 -190.78032 
L 239.426442 -190.959586 
L 239.491881 -191.138211 
L 239.55789 -191.316197 
L 239.624465 -191.493542 
L 239.691605 -191.670248 
L 239.759307 -191.846314 
L 239.827569 -192.02174 
L 239.896389 -192.196525 
L 239.965763 -192.370671 
L 240.035689 -192.544177 
L 240.106166 -192.717043 
L 240.177191 -192.889269 
L 240.24876 -193.060855 
L 240.320873 -193.231801 
L 240.393526 -193.402107 
L 240.466717 -193.571774 
L 240.540444 -193.7408 
L 240.614705 -193.909186 
L 240.689496 -194.076933 
L 240.764815 -194.244039 
L 240.840661 -194.410506 
L 240.91703 -194.576332 
L 240.993921 -194.741519 
L 241.071331 -194.906065 
L 241.149257 -195.069972 
L 241.227697 -195.233239 
L 241.306649 -195.395866 
L 241.38611 -195.557853 
L 241.466077 -195.719199 
L 241.54655 -195.879906 
L 241.627524 -196.039973 
L 241.708998 -196.1994 
L 241.79097 -196.358188 
L 241.873436 -196.516335 
L 241.956394 -196.673842 
L 242.039843 -196.830709 
L 242.123779 -196.986937 
L 242.208201 -197.142524 
L 242.293105 -197.297471 
L 242.37849 -197.451779 
L 242.464353 -197.605446 
L 242.550692 -197.758474 
L 242.637503 -197.910862 
L 242.724786 -198.062609 
L 242.812537 -198.213717 
L 242.900754 -198.364185 
L 242.989435 -198.514013 
L 243.078577 -198.6632 
L 243.168178 -198.811748 
L 243.258235 -198.959656 
L 243.348746 -199.106924 
L 243.439709 -199.253553 
L 243.531121 -199.399541 
L 243.622979 -199.544889 
L 243.715283 -199.689597 
L 243.808028 -199.833665 
L 243.901213 -199.977094 
L 243.994835 -200.119882 
L 244.088892 -200.262031 
L 244.183381 -200.403539 
L 244.2783 -200.544408 
L 244.373647 -200.684636 
L 244.469419 -200.824225 
L 244.565614 -200.963174 
L 244.662229 -201.101483 
L 244.759262 -201.239151 
L 244.856711 -201.37618 
L 244.954573 -201.512569 
L 245.052845 -201.648318 
L 245.151526 -201.783427 
L 245.250613 -201.917896 
L 245.350104 -202.051725 
L 245.449996 -202.184915 
L 245.550286 -202.317464 
L 245.650973 -202.449373 
L 245.752054 -202.580642 
L 245.853527 -202.711272 
L 245.955388 -202.841261 
L 246.057637 -202.970611 
L 246.160269 -203.09932 
L 246.263284 -203.22739 
L 246.366678 -203.35482 
L 246.47045 -203.481609 
L 246.574596 -203.607759 
L 246.679114 -203.733269 
L 246.784003 -203.858139 
L 246.889258 -203.982369 
L 246.99488 -204.105959 
L 247.100863 -204.228909 
L 247.207207 -204.351219 
L 247.313909 -204.472889 
L 247.420967 -204.593919 
L 247.528378 -204.714309 
L 247.636139 -204.83406 
L 247.744249 -204.95317 
L 247.852705 -205.07164 
L 247.961504 -205.189471 
L 248.070644 -205.306661 
L 248.180123 -205.423212 
L 248.289938 -205.539122 
L 248.400088 -205.654393 
L 248.510568 -205.769024 
L 248.621378 -205.883014 
L 248.732515 -205.996365 
L 248.843975 -206.109076 
L 248.955758 -206.221147 
L 249.06786 -206.332578 
L 249.18028 -206.443369 
L 249.293014 -206.55352 
L 249.40606 -206.663031 
L 249.519416 -206.771902 
L 249.63308 -206.880133 
L 249.747049 -206.987725 
L 249.86132 -207.094676 
L 249.975892 -207.200987 
L 250.090761 -207.306659 
L 250.205926 -207.41169 
L 250.321384 -207.516082 
L 250.437133 -207.619833 
L 250.55317 -207.722945 
L 250.669493 -207.825417 
L 250.786099 -207.927249 
L 250.902987 -208.02844 
L 251.020153 -208.128992 
L 251.137595 -208.228904 
L 251.255311 -208.328176 
L 251.373299 -208.426808 
L 251.491556 -208.5248 
L 251.610079 -208.622152 
L 251.728866 -208.718864 
L 251.847916 -208.814936 
L 251.967225 -208.910369 
L 252.086791 -209.005161 
L 252.206611 -209.099313 
L 252.326684 -209.192826 
L 252.447006 -209.285698 
L 252.567576 -209.377931 
L 252.688391 -209.469523 
L 252.809449 -209.560476 
L 252.930747 -209.650789 
L 253.052283 -209.740461 
L 253.174054 -209.829494 
L 253.296058 -209.917887 
L 253.418292 -210.00564 
L 253.540755 -210.092753 
L 253.663444 -210.179226 
L 253.786356 -210.265059 
L 253.909489 -210.350252 
L 254.032841 -210.434805 
L 254.156409 -210.518718 
L 254.280191 -210.601991 
L 254.404184 -210.684625 
L 254.528386 -210.766618 
L 254.652795 -210.847971 
L 254.777408 -210.928685 
L 254.902222 -211.008758 
L 255.027237 -211.088192 
L 255.152448 -211.166986 
L 255.277853 -211.245139 
L 255.403451 -211.322653 
L 255.529239 -211.399527 
L 255.655214 -211.47576 
L 255.781374 -211.551354 
L 255.907716 -211.626308 
L 256.034239 -211.700622 
L 256.160939 -211.774296 
L 256.287815 -211.84733 
L 256.414864 -211.919724 
L 256.542083 -211.991479 
L 256.66947 -212.062593 
L 256.797024 -212.133067 
L 256.92474 -212.202901 
L 257.052618 -212.272096 
L 257.180654 -212.34065 
L 257.308846 -212.408565 
L 257.437192 -212.475839 
L 257.565689 -212.542474 
L 257.694335 -212.608469 
L 257.823128 -212.673823 
L 257.952065 -212.738538 
L 258.081144 -212.802613 
L 258.210362 -212.866048 
L 258.339716 -212.928843 
L 258.469206 -212.990997 
L 258.598827 -213.052512 
L 258.728579 -213.113388 
L 258.858457 -213.173623 
L 258.988461 -213.233218 
L 259.118587 -213.292173 
L 259.248833 -213.350488 
L 259.379196 -213.408164 
L 259.509676 -213.465199 
L 259.640268 -213.521594 
L 259.77097 -213.57735 
L 259.901781 -213.632465 
L 260.032697 -213.686941 
L 260.163717 -213.740777 
L 260.294837 -213.793972 
L 260.426056 -213.846528 
L 260.557371 -213.898444 
L 260.68878 -213.94972 
L 260.82028 -214.000356 
L 260.951869 -214.050351 
L 261.083544 -214.099707 
L 261.215304 -214.148424 
L 261.347145 -214.1965 
L 261.479065 -214.243936 
L 261.611062 -214.290732 
L 261.743134 -214.336888 
L 261.875278 -214.382405 
L 262.007492 -214.427281 
L 262.139772 -214.471517 
L 262.272118 -214.515114 
L 262.404526 -214.55807 
L 262.536994 -214.600387 
L 262.66952 -214.642063 
L 262.802101 -214.6831 
L 262.934735 -214.723497 
L 263.067419 -214.763254 
L 263.200152 -214.80237 
L 263.33293 -214.840847 
L 263.465751 -214.878684 
L 263.598613 -214.915881 
L 263.731513 -214.952438 
L 263.86445 -214.988355 
L 263.99742 -215.023632 
L 264.130422 -215.05827 
L 264.263452 -215.092267 
L 264.396508 -215.125624 
L 264.529589 -215.158342 
L 264.662691 -215.190419 
L 264.795813 -215.221856 
L 264.928951 -215.252654 
L 265.062104 -215.282811 
L 265.195269 -215.312329 
L 265.328443 -215.341207 
L 265.461625 -215.369444 
L 265.594811 -215.397042 
L 265.728 -215.424 
L 265.861189 -215.450318 
L 265.994375 -215.475996 
L 266.127557 -215.501034 
L 266.260731 -215.525432 
L 266.393896 -215.54919 
L 266.527049 -215.572308 
L 266.660187 -215.594786 
L 266.793309 -215.616624 
L 266.926411 -215.637823 
L 267.059492 -215.658381 
L 267.192548 -215.678299 
L 267.325578 -215.697578 
L 267.45858 -215.716216 
L 267.59155 -215.734215 
L 267.724487 -215.751573 
L 267.857387 -215.768292 
L 267.990249 -215.784371 
L 268.12307 -215.799809 
L 268.255848 -215.814608 
L 268.388581 -215.828767 
L 268.521265 -215.842286 
L 268.653899 -215.855165 
L 268.78648 -215.867404 
L 268.919006 -215.879003 
L 269.051474 -215.889962 
L 269.183882 -215.900281 
L 269.316228 -215.909961 
L 269.448508 -215.919 
L 269.580722 -215.927399 
L 269.712866 -215.935159 
L 269.844938 -215.942278 
L 269.976935 -215.948757 
L 270.108855 -215.954597 
L 270.240696 -215.959797 
L 270.372456 -215.964356 
L 270.504131 -215.968276 
L 270.63572 -215.971556 
L 270.76722 -215.974195 
L 270.898629 -215.976195 
L 271.029944 -215.977555 
L 271.161163 -215.978275 
L 271.292283 -215.978355 
L 271.423303 -215.977795 
L 271.554219 -215.976595 
L 271.68503 -215.974755 
L 271.815732 -215.972275 
L 271.946324 -215.969156 
L 272.076804 -215.965396 
L 272.207167 -215.960996 
L 272.337413 -215.955957 
L 272.467539 -215.950277 
L 272.597543 -215.943958 
L 272.727421 -215.936998 
L 272.857173 -215.929399 
L 272.986794 -215.92116 
L 273.116284 -215.91228 
L 273.245638 -215.902761 
L 273.374856 -215.892602 
L 273.503935 -215.881803 
L 273.632872 -215.870364 
L 273.761665 -215.858285 
L 273.890311 -215.845566 
L 274.018808 -215.832207 
L 274.147154 -215.818208 
L 274.275346 -215.803569 
L 274.403382 -215.78829 
L 274.53126 -215.772372 
L 274.658976 -215.755813 
L 274.78653 -215.738614 
L 274.913917 -215.720776 
L 275.041136 -215.702297 
L 275.168185 -215.683179 
L 275.295061 -215.663421 
L 275.421761 -215.643022 
L 275.548284 -215.621984 
L 275.674626 -215.600306 
L 275.800786 -215.577988 
L 275.926761 -215.555029 
L 276.052549 -215.531431 
L 276.178147 -215.507193 
L 276.303552 -215.482315 
L 276.428763 -215.456797 
L 276.553778 -215.430639 
L 276.678592 -215.403842 
L 276.803205 -215.376404 
L 276.927614 -215.348326 
L 277.051816 -215.319608 
L 277.175809 -215.290251 
L 277.299591 -215.260253 
L 277.423159 -215.229616 
L 277.546511 -215.198338 
L 277.669644 -215.166421 
L 277.792556 -215.133864 
L 277.915245 -215.100666 
L 278.037708 -215.066829 
L 278.159942 -215.032352 
L 278.281946 -214.997235 
L 278.403717 -214.961478 
L 278.525253 -214.92508 
L 278.646551 -214.888044 
L 278.767609 -214.850367 
L 278.888424 -214.81205 
L 279.008994 -214.773093 
L 279.129316 -214.733496 
L 279.249389 -214.693259 
L 279.369209 -214.652383 
L 279.488775 -214.610866 
L 279.608084 -214.568709 
L 279.727134 -214.525913 
L 279.845921 -214.482476 
L 279.964444 -214.4384 
L 280.082701 -214.393684 
L 280.200689 -214.348327 
L 280.318405 -214.302331 
L 280.435847 -214.255695 
L 280.553013 -214.208419 
L 280.669901 -214.160503 
L 280.786507 -214.111946 
L 280.90283 -214.06275 
L 281.018867 -214.012915 
L 281.134616 -213.962439 
L 281.250074 -213.911323 
L 281.365239 -213.859567 
L 281.480108 -213.807171 
L 281.59468 -213.754136 
L 281.708951 -213.70046 
L 281.82292 -213.646144 
L 281.936584 -213.591189 
L 282.04994 -213.535593 
L 282.162986 -213.479358 
L 282.27572 -213.422482 
L 282.38814 -213.364967 
L 282.500242 -213.306812 
L 282.612025 -213.248017 
L 282.723485 -213.188581 
L 282.834622 -213.128506 
L 282.945432 -213.067791 
L 283.055912 -213.006436 
L 283.166062 -212.944441 
L 283.275877 -212.881806 
L 283.385356 -212.818531 
L 283.494496 -212.754617 
L 283.603295 -212.690062 
L 283.711751 -212.624867 
L 283.819861 -212.559033 
L 283.927622 -212.492558 
L 284.035033 -212.425443 
L 284.142091 -212.357689 
L 284.248793 -212.289294 
L 284.355137 -212.22026 
L 284.46112 -212.150586 
L 284.566742 -212.080271 
L 284.671997 -212.009317 
L 284.776886 -211.937723 
L 284.881404 -211.865489 
L 284.98555 -211.792615 
L 285.089322 -211.719101 
L 285.192716 -211.644947 
L 285.295731 -211.570153 
L 285.398363 -211.494719 
L 285.500612 -211.418645 
L 285.602473 -211.341931 
L 285.703946 -211.264578 
L 285.805027 -211.186584 
L 285.905714 -211.10795 
L 286.006004 -211.028677 
L 286.105896 -210.948763 
L 286.205387 -210.86821 
L 286.304474 -210.787016 
L 286.403155 -210.705183 
L 286.501427 -210.62271 
L 286.599289 -210.539596 
L 286.696738 -210.455843 
L 286.793771 -210.37145 
L 286.890386 -210.286417 
L 286.986581 -210.200744 
L 287.082353 -210.114431 
L 287.1777 -210.027478 
L 287.272619 -209.939885 
L 287.367108 -209.851652 
L 287.461165 -209.76278 
L 287.554787 -209.673267 
L 287.647972 -209.583114 
L 287.740717 -209.492321 
L 287.833021 -209.400889 
L 287.924879 -209.308816 
L 288.016291 -209.216104 
L 288.107254 -209.122751 
L 288.197765 -209.028759 
L 288.287822 -208.934127 
L 288.377423 -208.838855 
L 288.466565 -208.742942 
L 288.555246 -208.64639 
L 288.643463 -208.549198 
L 288.731214 -208.451366 
L 288.818497 -208.352894 
L 288.905308 -208.253782 
L 288.991647 -208.15403 
L 289.07751 -208.053638 
L 289.162895 -207.952606 
L 289.247799 -207.850935 
L 289.332221 -207.748623 
L 289.416157 -207.645671 
L 289.499606 -207.54208 
L 289.582564 -207.437848 
L 289.66503 -207.332977 
L 289.747002 -207.227465 
L 289.828476 -207.121314 
L 289.90945 -207.014523 
L 289.989923 -206.907091 
L 290.06989 -206.79902 
L 290.149351 -206.690309 
L 290.228303 -206.580958 
L 290.306743 -206.470967 
L 290.384669 -206.360336 
L 290.462079 -206.249065 
L 290.53897 -206.137154 
L 290.615339 -206.024603 
L 290.691185 -205.911412 
L 290.766504 -205.797581 
L 290.841295 -205.683111 
L 290.915556 -205.568 
L 290.989283 -205.452249 
L 291.062474 -205.335859 
L 291.135127 -205.218828 
L 291.20724 -205.101158 
L 291.278809 -204.982847 
L 291.349834 -204.863897 
L 291.420311 -204.744307 
L 291.490237 -204.624077 
L 291.559611 -204.503206 
L 291.628431 -204.381696 
L 291.696693 -204.259546 
L 291.764395 -204.136756 
L 291.831535 -204.013326 
L 291.89811 -203.889256 
L 291.964119 -203.764546 
L 292.029558 -203.639197 
L 292.094426 -203.513207 
L 292.15872 -203.386577 
L 292.222436 -203.259307 
L 292.285574 -203.131398 
L 292.348131 -203.002848 
L 292.410104 -202.873659 
L 292.471491 -202.743829 
L 292.532289 -202.61336 
L 292.592497 -202.48225 
L 292.65211 -202.350501 
L 292.711129 -202.218112 
L 292.769549 -202.085083 
L 292.827368 -201.951414 
L 292.884585 -201.817104 
L 292.941196 -201.682155 
L 292.9972 -201.546566 
L 293.052593 -201.410337 
L 293.107374 -201.273469 
L 293.161539 -201.13596 
L 293.215088 -200.997811 
L 293.268016 -200.859022 
L 293.320323 -200.719594 
L 293.372005 -200.579525 
L 293.42306 -200.438816 
L 293.473485 -200.297468 
L 293.523279 -200.155479 
L 293.572439 -200.012851 
L 293.620962 -199.869583 
L 293.668846 -199.725674 
L 293.716088 -199.581126 
L 293.762687 -199.435938 
L 293.80864 -199.29011 
L 293.853944 -199.143641 
L 293.898597 -198.996533 
L 293.942596 -198.848785 
L 293.98594 -198.700397 
L 294.028626 -198.55137 
L 294.070651 -198.401702 
L 294.112013 -198.251394 
L 294.152709 -198.100446 
L 294.192738 -197.948858 
L 294.232097 -197.796631 
L 294.270783 -197.643763 
L 294.308794 -197.490256 
L 294.346127 -197.336108 
L 294.382781 -197.181321 
L 294.418752 -197.025893 
L 294.454039 -196.869826 
L 294.488639 -196.713119 
L 294.522549 -196.555772 
L 294.555768 -196.397784 
L 294.588292 -196.239157 
L 294.62012 -196.07989 
L 294.651248 -195.919983 
L 294.681675 -195.759436 
L 294.711399 -195.598249 
L 294.740416 -195.436422 
L 294.768724 -195.273956 
L 294.796322 -195.110849 
L 294.823206 -194.947102 
L 294.849374 -194.782715 
L 294.874823 -194.617689 
L 294.899552 -194.452022 
L 294.923559 -194.285716 
L 294.946839 -194.118769 
L 294.969392 -193.951183 
L 294.991214 -193.782957 
L 295.012304 -193.61409 
L 295.032659 -193.444584 
L 295.052276 -193.274438 
L 295.071153 -193.103652 
L 295.089288 -192.932226 
L 295.106679 -192.76016 
L 295.123322 -192.587454 
L 295.139216 -192.414108 
L 295.154358 -192.240122 
L 295.168745 -192.065496 
L 295.182376 -191.89023 
L 295.195248 -191.714324 
L 295.207359 -191.537779 
L 295.218705 -191.360593 
L 295.229285 -191.182768 
L 295.239097 -191.004302 
L 295.248137 -190.825197 
L 295.256404 -190.645451 
L 295.263894 -190.465066 
L 295.270607 -190.284041 
L 295.276539 -190.102375 
L 295.281688 -189.92007 
L 295.286051 -189.737125 
L 295.289626 -189.55354 
L 295.292411 -189.369315 
L 295.294403 -189.18445 
L 295.2956 -188.998945 
L 295.296 -188.8128 
L 295.2956 -188.626015 
L 295.294397 -188.43859 
L 295.292389 -188.250526 
L 295.289575 -188.061821 
L 295.285951 -187.872476 
L 295.281515 -187.682492 
L 295.276264 -187.491867 
L 295.270197 -187.300603 
L 295.263311 -187.108698 
L 295.255603 -186.916154 
L 295.247071 -186.72297 
L 295.237713 -186.529145 
L 295.227526 -186.334681 
L 295.216508 -186.139577 
L 295.204656 -185.943833 
L 295.191968 -185.747449 
L 295.178442 -185.550425 
L 295.164076 -185.352761 
L 295.148866 -185.154457 
L 295.13281 -184.955513 
L 295.115907 -184.755929 
L 295.098153 -184.555706 
L 295.079546 -184.354842 
L 295.060084 -184.153338 
L 295.039765 -183.951195 
L 295.018585 -183.748411 
L 294.996543 -183.544988 
L 294.973637 -183.340924 
L 294.949863 -183.136221 
L 294.925219 -182.930877 
L 294.899704 -182.724894 
L 294.873314 -182.518271 
L 294.846047 -182.311008 
L 294.817901 -182.103105 
L 294.788874 -181.894562 
L 294.758963 -181.685379 
L 294.728165 -181.475556 
L 294.696478 -181.265093 
L 294.6639 -181.05399 
L 294.630428 -180.842247 
L 294.596061 -180.629864 
L 294.560795 -180.416841 
L 294.524628 -180.203179 
L 294.487558 -179.988876 
L 294.449582 -179.773934 
L 294.410698 -179.558351 
L 294.370904 -179.342129 
L 294.330197 -179.125266 
L 294.288575 -178.907764 
L 294.246035 -178.689622 
L 294.202575 -178.470839 
L 294.158193 -178.251417 
L 294.112886 -178.031355 
L 294.066651 -177.810653 
L 294.019487 -177.589311 
L 293.971391 -177.367329 
L 293.92236 -177.144707 
L 293.872393 -176.921445 
L 293.821486 -176.697543 
L 293.769637 -176.473002 
L 293.716845 -176.24782 
L 293.663106 -176.021998 
L 293.608418 -175.795537 
L 293.552779 -175.568435 
L 293.496186 -175.340694 
L 293.438637 -175.112312 
L 293.38013 -174.883291 
L 293.320662 -174.653629 
L 293.26023 -174.423328 
L 293.198833 -174.192387 
L 293.136468 -173.960806 
L 293.073132 -173.728584 
L 293.008823 -173.495723 
L 292.943539 -173.262222 
L 292.877277 -173.028081 
L 292.810036 -172.7933 
L 292.741811 -172.557879 
L 292.672602 -172.321819 
L 292.602406 -172.085118 
L 292.531219 -171.847777 
L 292.459041 -171.609796 
L 292.385868 -171.371176 
L 292.311698 -171.131915 
L 292.236529 -170.892015 
L 292.160359 -170.651474 
L 292.083184 -170.410294 
L 292.005002 -170.168473 
L 291.925812 -169.926013 
L 291.84561 -169.682913 
L 291.764395 -169.439173 
L 291.682163 -169.194792 
L 291.598913 -168.949772 
L 291.514642 -168.704112 
L 291.429348 -168.457812 
L 291.343028 -168.210872 
L 291.255679 -167.963292 
L 291.1673 -167.715072 
L 291.077889 -167.466213 
L 290.987442 -167.216713 
L 290.895957 -166.966573 
L 290.803432 -166.715794 
L 290.709864 -166.464374 
L 290.615252 -166.212314 
L 290.519592 -165.959615 
L 290.422882 -165.706276 
L 290.32512 -165.452296 
L 290.226304 -165.197677 
L 290.12643 -164.942418 
L 290.025498 -164.686518 
L 289.923503 -164.429979 
L 289.820444 -164.1728 
L 289.716319 -163.914981 
L 289.611125 -163.656522 
L 289.504859 -163.397423 
L 289.39752 -163.137684 
L 289.289104 -162.877305 
L 289.17961 -162.616286 
L 289.069035 -162.354628 
L 288.957376 -162.092329 
L 288.844632 -161.82939 
L 288.730799 -161.565812 
L 288.615876 -161.301593 
L 288.49986 -161.036735 
L 288.382748 -160.771236 
L 288.264539 -160.505098 
L 288.145229 -160.238319 
L 288.024817 -159.970901 
L 287.9033 -159.702843 
L 287.780675 -159.434145 
L 287.65694 -159.164806 
L 287.532094 -158.894828 
L 287.406132 -158.62421 
L 287.279054 -158.352952 
L 287.150856 -158.081054 
L 287.021536 -157.808517 
L 286.891093 -157.535339 
L 286.759522 -157.261521 
L 286.626823 -156.987063 
L 286.492992 -156.711966 
L 286.358027 -156.436228 
L 286.221926 -156.15985 
L 286.084686 -155.882833 
L 285.946305 -155.605175 
L 285.806781 -155.326878 
L 285.666111 -155.047941 
L 285.524293 -154.768363 
L 285.381324 -154.488146 
L 285.237202 -154.207289 
L 285.091924 -153.925792 
L 284.945489 -153.643655 
L 284.797893 -153.360878 
L 284.649135 -153.077461 
L 284.499211 -152.793404 
L 284.348121 -152.508707 
L 284.19586 -152.22337 
L 284.042427 -151.937393 
L 283.887819 -151.650776 
L 283.732035 -151.36352 
L 283.57507 -151.075623 
L 283.416924 -150.787087 
L 283.257594 -150.49791 
L 283.097077 -150.208093 
L 282.93537 -149.917637 
L 282.772473 -149.626541 
L 282.608381 -149.334804 
L 282.443093 -149.042428 
L 282.276607 -148.749412 
L 282.108919 -148.455756 
L 281.940028 -148.16146 
L 281.769931 -147.866524 
L 281.598625 -147.570948 
L 281.426109 -147.274732 
L 281.25238 -146.977876 
L 281.077435 -146.68038 
L 280.901273 -146.382244 
L 280.72389 -146.083468 
L 280.545284 -145.784053 
L 280.365453 -145.483997 
L 280.184395 -145.183301 
L 280.002106 -144.881966 
L 279.818586 -144.57999 
L 279.63383 -144.277375 
L 279.447838 -143.97412 
L 279.260606 -143.670224 
L 279.072132 -143.365689 
L 278.882413 -143.060514 
L 278.691448 -142.754698 
L 278.499234 -142.448243 
L 278.305768 -142.141148 
L 278.111049 -141.833413 
L 277.915072 -141.525038 
L 277.717838 -141.216023 
L 277.519342 -140.906369 
L 277.319582 -140.596074 
L 277.118557 -140.285139 
L 276.916263 -139.973564 
L 276.712698 -139.66135 
L 276.50786 -139.348495 
L 276.301747 -139.035 
L 276.094355 -138.720866 
L 275.885684 -138.406091 
L 275.675729 -138.090677 
L 275.464489 -137.774623 
L 275.251962 -137.457928 
L 275.038145 -137.140594 
L 274.823035 -136.82262 
L 274.606631 -136.504006 
L 274.388929 -136.184752 
L 274.169928 -135.864858 
L 273.949625 -135.544324 
L 273.728017 -135.22315 
L 273.505102 -134.901336 
L 273.280879 -134.578882 
L 273.055344 -134.255788 
L 272.828494 -133.932055 
L 272.600329 -133.607681 
L 272.370844 -133.282667 
L 272.140039 -132.957014 
L 271.907909 -132.63072 
L 271.674454 -132.303787 
L 271.43967 -131.976213 
L 271.203556 -131.648 
L 270.966108 -131.319147 
L 270.727324 -130.989653 
L 270.487203 -130.65952 
L 270.245741 -130.328747 
L 270.002936 -129.997334 
L 269.758786 -129.665281 
L 269.513289 -129.332588 
L 269.266441 -128.999255 
L 269.018241 -128.665282 
L 268.768686 -128.330669 
L 268.517774 -127.995416 
L 268.265502 -127.659524 
L 268.011868 -127.322991 
L 267.75687 -126.985818 
L 267.500505 -126.648006 
L 267.24277 -126.309553 
L 266.983664 -125.970461 
L 266.723184 -125.630728 
L 266.461327 -125.290356 
L 266.198092 -124.949344 
L 265.933475 -124.607691 
L 265.667475 -124.265399 
L 265.400088 -123.922467 
L 265.131313 -123.578895 
L 264.861147 -123.234683 
L 264.589588 -122.889831 
L 264.316633 -122.544339 
L 264.042281 -122.198207 
L 263.766527 -121.851435 
L 263.489371 -121.504023 
L 263.210809 -121.155972 
L 262.93084 -120.80728 
L 262.649461 -120.457948 
L 262.366669 -120.107977 
L 262.082462 -119.757365 
L 261.796838 -119.406114 
L 261.509794 -119.054222 
L 261.221328 -118.701691 
L 260.931438 -118.34852 
L 260.640121 -117.994708 
L 260.347374 -117.640257 
L 260.053196 -117.285166 
L 259.757583 -116.929435 
L 259.460534 -116.573064 
L 259.162046 -116.216053 
L 258.862117 -115.858402 
L 258.560744 -115.500111 
L 258.257925 -115.14118 
L 257.953658 -114.781609 
L 257.647939 -114.421398 
L 257.340767 -114.060548 
L 257.03214 -113.699057 
L 256.722054 -113.336926 
L 256.410508 -112.974156 
L 256.097498 -112.610745 
L 255.783024 -112.246695 
L 255.467082 -111.882004 
L 255.149669 -111.516674 
L 254.830784 -111.150704 
L 254.510424 -110.784093 
L 254.188587 -110.416843 
L 253.86527 -110.048953 
L 253.54047 -109.680423 
L 253.214187 -109.311253 
L 252.886416 -108.941443 
L 252.557156 -108.570993 
L 252.226404 -108.199903 
L 251.894158 -107.828173 
L 251.560415 -107.455804 
L 251.225173 -107.082794 
L 250.88843 -106.709144 
L 250.550183 -106.334855 
L 250.21043 -105.959925 
L 249.869169 -105.584356 
L 249.526396 -105.208146 
L 249.18211 -104.831297 
L 248.836308 -104.453807 
L 248.488988 -104.075678 
L 248.140148 -103.696909 
L 247.789784 -103.3175 
L 247.437895 -102.93745 
L 247.084479 -102.556761 
L 246.729532 -102.175432 
L 246.373052 -101.793463 
L 246.015038 -101.410854 
L 245.655486 -101.027605 
L 245.294394 -100.643717 
L 244.93176 -100.259188 
L 244.567581 -99.874019 
L 244.201855 -99.48821 
L 243.83458 -99.101762 
L 243.465753 -98.714673 
L 243.095372 -98.326945 
L 242.723434 -97.938576 
L 242.349938 -97.549568 
L 241.974879 -97.159919 
L 241.598257 -96.769631 
L 241.220069 -96.378703 
L 240.840312 -95.987135 
L 240.458984 -95.594926 
L 240.076083 -95.202078 
L 239.691605 -94.80859 
L 239.30555 -94.414462 
L 238.917913 -94.019694 
L 238.528694 -93.624286 
L 238.13789 -93.228238 
L 237.745497 -92.831551 
L 237.351514 -92.434223 
L 236.955939 -92.036255 
L 236.558768 -91.637648 
L 235.761232 -91.637648 
L 235.761232 -91.637648 
L 235.364061 -92.036255 
L 234.968486 -92.434223 
L 234.574503 -92.831551 
L 234.18211 -93.228238 
L 233.791306 -93.624286 
L 233.402087 -94.019694 
L 233.01445 -94.414462 
L 232.628395 -94.80859 
L 232.243917 -95.202078 
L 231.861016 -95.594926 
L 231.479688 -95.987135 
L 231.099931 -96.378703 
L 230.721743 -96.769631 
L 230.345121 -97.159919 
L 229.970062 -97.549568 
L 229.596566 -97.938576 
L 229.224628 -98.326945 
L 228.854247 -98.714673 
L 228.48542 -99.101762 
L 228.118145 -99.48821 
L 227.752419 -99.874019 
L 227.38824 -100.259188 
L 227.025606 -100.643717 
L 226.664514 -101.027605 
L 226.304962 -101.410854 
L 225.946948 -101.793463 
L 225.590468 -102.175432 
L 225.235521 -102.556761 
L 224.882105 -102.93745 
L 224.530216 -103.3175 
L 224.179852 -103.696909 
L 223.831012 -104.075678 
L 223.483692 -104.453807 
L 223.13789 -104.831297 
L 222.793604 -105.208146 
L 222.450831 -105.584356 
L 222.10957 -105.959925 
L 221.769817 -106.334855 
L 221.43157 -106.709144 
L 221.094827 -107.082794 
L 220.759585 -107.455804 
L 220.425842 -107.828173 
L 220.093596 -108.199903 
L 219.762844 -108.570993 
L 219.433584 -108.941443 
L 219.105813 -109.311253 
L 218.77953 -109.680423 
L 218.45473 -110.048953 
L 218.131413 -110.416843 
L 217.809576 -110.784093 
L 217.489216 -111.150704 
L 217.170331 -111.516674 
L 216.852918 -111.882004 
L 216.536976 -112.246695 
L 216.222502 -112.610745 
L 215.909492 -112.974156 
L 215.597946 -113.336926 
L 215.28786 -113.699057 
L 214.979233 -114.060548 
L 214.672061 -114.421398 
L 214.366342 -114.781609 
L 214.062075 -115.14118 
L 213.759256 -115.500111 
L 213.457883 -115.858402 
L 213.157954 -116.216053 
L 212.859466 -116.573064 
L 212.562417 -116.929435 
L 212.266804 -117.285166 
L 211.972626 -117.640257 
L 211.679879 -117.994708 
L 211.388562 -118.34852 
L 211.098672 -118.701691 
L 210.810206 -119.054222 
L 210.523162 -119.406114 
L 210.237538 -119.757365 
L 209.953331 -120.107977 
L 209.670539 -120.457948 
L 209.38916 -120.80728 
L 209.109191 -121.155972 
L 208.830629 -121.504023 
L 208.553473 -121.851435 
L 208.277719 -122.198207 
L 208.003367 -122.544339 
L 207.730412 -122.889831 
L 207.458853 -123.234683 
L 207.188687 -123.578895 
L 206.919912 -123.922467 
L 206.652525 -124.265399 
L 206.386525 -124.607691 
L 206.121908 -124.949344 
L 205.858673 -125.290356 
L 205.596816 -125.630728 
L 205.336336 -125.970461 
L 205.07723 -126.309553 
L 204.819495 -126.648006 
L 204.56313 -126.985818 
L 204.308132 -127.322991 
L 204.054498 -127.659524 
L 203.802226 -127.995416 
L 203.551314 -128.330669 
L 203.301759 -128.665282 
L 203.053559 -128.999255 
L 202.806711 -129.332588 
L 202.561214 -129.665281 
L 202.317064 -129.997334 
L 202.074259 -130.328747 
L 201.832797 -130.65952 
L 201.592676 -130.989653 
L 201.353892 -131.319147 
L 201.116444 -131.648 
L 200.88033 -131.976213 
L 200.645546 -132.303787 
L 200.412091 -132.63072 
L 200.179961 -132.957014 
L 199.949156 -133.282667 
L 199.719671 -133.607681 
L 199.491506 -133.932055 
L 199.264656 -134.255788 
L 199.039121 -134.578882 
L 198.814898 -134.901336 
L 198.591983 -135.22315 
L 198.370375 -135.544324 
L 198.150072 -135.864858 
L 197.931071 -136.184752 
L 197.713369 -136.504006 
L 197.496965 -136.82262 
L 197.281855 -137.140594 
L 197.068038 -137.457928 
L 196.855511 -137.774623 
L 196.644271 -138.090677 
L 196.434316 -138.406091 
L 196.225645 -138.720866 
L 196.018253 -139.035 
L 195.81214 -139.348495 
L 195.607302 -139.66135 
L 195.403737 -139.973564 
L 195.201443 -140.285139 
L 195.000418 -140.596074 
L 194.800658 -140.906369 
L 194.602162 -141.216023 
L 194.404928 -141.525038 
L 194.208951 -141.833413 
L 194.014232 -142.141148 
L 193.820766 -142.448243 
L 193.628552 -142.754698 
L 193.437587 -143.060514 
L 193.247868 -143.365689 
L 193.059394 -143.670224 
L 192.872162 -143.97412 
L 192.68617 -144.277375 
L 192.501414 -144.57999 
L 192.317894 -144.881966 
L 192.135605 -145.183301 
L 191.954547 -145.483997 
L 191.774716 -145.784053 
L 191.59611 -146.083468 
L 191.418727 -146.382244 
L 191.242565 -146.68038 
L 191.06762 -146.977876 
L 190.893891 -147.274732 
L 190.721375 -147.570948 
L 190.550069 -147.866524 
L 190.379972 -148.16146 
L 190.211081 -148.455756 
L 190.043393 -148.749412 
L 189.876907 -149.042428 
L 189.711619 -149.334804 
L 189.547527 -149.626541 
L 189.38463 -149.917637 
L 189.222923 -150.208093 
L 189.062406 -150.49791 
L 188.903076 -150.787087 
L 188.74493 -151.075623 
L 188.587965 -151.36352 
L 188.432181 -151.650776 
L 188.277573 -151.937393 
L 188.12414 -152.22337 
L 187.971879 -152.508707 
L 187.820789 -152.793404 
L 187.670865 -153.077461 
L 187.522107 -153.360878 
L 187.374511 -153.643655 
L 187.228076 -153.925792 
L 187.082798 -154.207289 
L 186.938676 -154.488146 
L 186.795707 -154.768363 
L 186.653889 -155.047941 
L 186.513219 -155.326878 
L 186.373695 -155.605175 
L 186.235314 -155.882833 
L 186.098074 -156.15985 
L 185.961973 -156.436228 
L 185.827008 -156.711966 
L 185.693177 -156.987063 
L 185.560478 -157.261521 
L 185.428907 -157.535339 
L 185.298464 -157.808517 
L 185.169144 -158.081054 
L 185.040946 -158.352952 
L 184.913868 -158.62421 
L 184.787906 -158.894828 
L 184.66306 -159.164806 
L 184.539325 -159.434145 
L 184.4167 -159.702843 
L 184.295183 -159.970901 
L 184.174771 -160.238319 
L 184.055461 -160.505098 
L 183.937252 -160.771236 
L 183.82014 -161.036735 
L 183.704124 -161.301593 
L 183.589201 -161.565812 
L 183.475368 -161.82939 
L 183.362624 -162.092329 
L 183.250965 -162.354628 
L 183.14039 -162.616286 
L 183.030896 -162.877305 
L 182.92248 -163.137684 
L 182.815141 -163.397423 
L 182.708875 -163.656522 
L 182.603681 -163.914981 
L 182.499556 -164.1728 
L 182.396497 -164.429979 
L 182.294502 -164.686518 
L 182.19357 -164.942418 
L 182.093696 -165.197677 
L 181.99488 -165.452296 
L 181.897118 -165.706276 
L 181.800408 -165.959615 
L 181.704748 -166.212314 
L 181.610136 -166.464374 
L 181.516568 -166.715794 
L 181.424043 -166.966573 
L 181.332558 -167.216713 
L 181.242111 -167.466213 
L 181.1527 -167.715072 
L 181.064321 -167.963292 
L 180.976972 -168.210872 
L 180.890652 -168.457812 
L 180.805358 -168.704112 
L 180.721087 -168.949772 
L 180.637837 -169.194792 
L 180.555605 -169.439173 
L 180.47439 -169.682913 
L 180.394188 -169.926013 
L 180.314998 -170.168473 
L 180.236816 -170.410294 
L 180.159641 -170.651474 
L 180.083471 -170.892015 
L 180.008302 -171.131915 
L 179.934132 -171.371176 
L 179.860959 -171.609796 
L 179.788781 -171.847777 
L 179.717594 -172.085118 
L 179.647398 -172.321819 
L 179.578189 -172.557879 
L 179.509964 -172.7933 
L 179.442723 -173.028081 
L 179.376461 -173.262222 
L 179.311177 -173.495723 
L 179.246868 -173.728584 
L 179.183532 -173.960806 
L 179.121167 -174.192387 
L 179.05977 -174.423328 
L 178.999338 -174.653629 
L 178.93987 -174.883291 
L 178.881363 -175.112312 
L 178.823814 -175.340694 
L 178.767221 -175.568435 
L 178.711582 -175.795537 
L 178.656894 -176.021998 
L 178.603155 -176.24782 
L 178.550363 -176.473002 
L 178.498514 -176.697543 
L 178.447607 -176.921445 
L 178.39764 -177.144707 
L 178.348609 -177.367329 
L 178.300513 -177.589311 
L 178.253349 -177.810653 
L 178.207114 -178.031355 
L 178.161807 -178.251417 
L 178.117425 -178.470839 
L 178.073965 -178.689622 
L 178.031425 -178.907764 
L 177.989803 -179.125266 
L 177.949096 -179.342129 
L 177.909302 -179.558351 
L 177.870418 -179.773934 
L 177.832442 -179.988876 
L 177.795372 -180.203179 
L 177.759205 -180.416841 
L 177.723939 -180.629864 
L 177.689572 -180.842247 
L 177.6561 -181.05399 
L 177.623522 -181.265093 
L 177.591835 -181.475556 
L 177.561037 -181.685379 
L 177.531126 -181.894562 
L 177.502099 -182.103105 
L 177.473953 -182.311008 
L 177.446686 -182.518271 
L 177.420296 -182.724894 
L 177.394781 -182.930877 
L 177.370137 -183.136221 
L 177.346363 -183.340924 
L 177.323457 -183.544988 
L 177.301415 -183.748411 
L 177.280235 -183.951195 
L 177.259916 -184.153338 
L 177.240454 -184.354842 
L 177.221847 -184.555706 
L 177.204093 -184.755929 
L 177.18719 -184.955513 
L 177.171134 -185.154457 
L 177.155924 -185.352761 
L 177.141558 -185.550425 
L 177.128032 -185.747449 
L 177.115344 -185.943833 
L 177.103492 -186.139577 
L 177.092474 -186.334681 
L 177.082287 -186.529145 
L 177.072929 -186.72297 
L 177.064397 -186.916154 
L 177.056689 -187.108698 
L 177.049803 -187.300603 
L 177.043736 -187.491867 
L 177.038485 -187.682492 
L 177.034049 -187.872476 
L 177.030425 -188.061821 
L 177.027611 -188.250526 
L 177.025603 -188.43859 
L 177.0244 -188.626015 
L 177.024 -188.8128 
L 177.0244 -188.998945 
L 177.025597 -189.18445 
L 177.027589 -189.369315 
L 177.030374 -189.55354 
L 177.033949 -189.737125 
L 177.038312 -189.92007 
L 177.043461 -190.102375 
L 177.049393 -190.284041 
L 177.056106 -190.465066 
L 177.063596 -190.645451 
L 177.071863 -190.825197 
L 177.080903 -191.004302 
L 177.090715 -191.182768 
L 177.101295 -191.360593 
L 177.112641 -191.537779 
L 177.124752 -191.714324 
L 177.137624 -191.89023 
L 177.151255 -192.065496 
L 177.165642 -192.240122 
L 177.180784 -192.414108 
L 177.196678 -192.587454 
L 177.213321 -192.76016 
L 177.230712 -192.932226 
L 177.248847 -193.103652 
L 177.267724 -193.274438 
L 177.287341 -193.444584 
L 177.307696 -193.61409 
L 177.328786 -193.782957 
L 177.350608 -193.951183 
L 177.373161 -194.118769 
L 177.396441 -194.285716 
L 177.420448 -194.452022 
L 177.445177 -194.617689 
L 177.470626 -194.782715 
L 177.496794 -194.947102 
L 177.523678 -195.110849 
L 177.551276 -195.273956 
L 177.579584 -195.436422 
L 177.608601 -195.598249 
L 177.638325 -195.759436 
L 177.668752 -195.919983 
L 177.69988 -196.07989 
L 177.731708 -196.239157 
L 177.764232 -196.397784 
L 177.797451 -196.555772 
L 177.831361 -196.713119 
L 177.865961 -196.869826 
L 177.901248 -197.025893 
L 177.937219 -197.181321 
L 177.973873 -197.336108 
L 178.011206 -197.490256 
L 178.049217 -197.643763 
L 178.087903 -197.796631 
L 178.127262 -197.948858 
L 178.167291 -198.100446 
L 178.207987 -198.251394 
L 178.249349 -198.401702 
L 178.291374 -198.55137 
L 178.33406 -198.700397 
L 178.377404 -198.848785 
L 178.421403 -198.996533 
L 178.466056 -199.143641 
L 178.51136 -199.29011 
L 178.557313 -199.435938 
L 178.603912 -199.581126 
L 178.651154 -199.725674 
L 178.699038 -199.869583 
L 178.747561 -200.012851 
L 178.796721 -200.155479 
L 178.846515 -200.297468 
L 178.89694 -200.438816 
L 178.947995 -200.579525 
L 178.999677 -200.719594 
L 179.051984 -200.859022 
L 179.104912 -200.997811 
L 179.158461 -201.13596 
L 179.212626 -201.273469 
L 179.267407 -201.410337 
L 179.3228 -201.546566 
L 179.378804 -201.682155 
L 179.435415 -201.817104 
L 179.492632 -201.951414 
L 179.550451 -202.085083 
L 179.608871 -202.218112 
L 179.66789 -202.350501 
L 179.727503 -202.48225 
L 179.787711 -202.61336 
L 179.848509 -202.743829 
L 179.909896 -202.873659 
L 179.971869 -203.002848 
L 180.034426 -203.131398 
L 180.097564 -203.259307 
L 180.16128 -203.386577 
L 180.225574 -203.513207 
L 180.290442 -203.639197 
L 180.355881 -203.764546 
L 180.42189 -203.889256 
L 180.488465 -204.013326 
L 180.555605 -204.136756 
L 180.623307 -204.259546 
L 180.691569 -204.381696 
L 180.760389 -204.503206 
L 180.829763 -204.624077 
L 180.899689 -204.744307 
L 180.970166 -204.863897 
L 181.041191 -204.982847 
L 181.11276 -205.101158 
L 181.184873 -205.218828 
L 181.257526 -205.335859 
L 181.330717 -205.452249 
L 181.404444 -205.568 
L 181.478705 -205.683111 
L 181.553496 -205.797581 
L 181.628815 -205.911412 
L 181.704661 -206.024603 
L 181.78103 -206.137154 
L 181.857921 -206.249065 
L 181.935331 -206.360336 
L 182.013257 -206.470967 
L 182.091697 -206.580958 
L 182.170649 -206.690309 
L 182.25011 -206.79902 
L 182.330077 -206.907091 
L 182.41055 -207.014523 
L 182.491524 -207.121314 
L 182.572998 -207.227465 
L 182.65497 -207.332977 
L 182.737436 -207.437848 
L 182.820394 -207.54208 
L 182.903843 -207.645671 
L 182.987779 -207.748623 
L 183.072201 -207.850935 
L 183.157105 -207.952606 
L 183.24249 -208.053638 
L 183.328353 -208.15403 
L 183.414692 -208.253782 
L 183.501503 -208.352894 
L 183.588786 -208.451366 
L 183.676537 -208.549198 
L 183.764754 -208.64639 
L 183.853435 -208.742942 
L 183.942577 -208.838855 
L 184.032178 -208.934127 
L 184.122235 -209.028759 
L 184.212746 -209.122751 
L 184.303709 -209.216104 
L 184.395121 -209.308816 
L 184.486979 -209.400889 
L 184.579283 -209.492321 
L 184.672028 -209.583114 
L 184.765213 -209.673267 
L 184.858835 -209.76278 
L 184.952892 -209.851652 
L 185.047381 -209.939885 
L 185.1423 -210.027478 
L 185.237647 -210.114431 
L 185.333419 -210.200744 
L 185.429614 -210.286417 
L 185.526229 -210.37145 
L 185.623262 -210.455843 
L 185.720711 -210.539596 
L 185.818573 -210.62271 
L 185.916845 -210.705183 
L 186.015526 -210.787016 
L 186.114613 -210.86821 
L 186.214104 -210.948763 
L 186.313996 -211.028677 
L 186.414286 -211.10795 
L 186.514973 -211.186584 
L 186.616054 -211.264578 
L 186.717527 -211.341931 
L 186.819388 -211.418645 
L 186.921637 -211.494719 
L 187.024269 -211.570153 
L 187.127284 -211.644947 
L 187.230678 -211.719101 
L 187.33445 -211.792615 
L 187.438596 -211.865489 
L 187.543114 -211.937723 
L 187.648003 -212.009317 
L 187.753258 -212.080271 
L 187.85888 -212.150586 
L 187.964863 -212.22026 
L 188.071207 -212.289294 
L 188.177909 -212.357689 
L 188.284967 -212.425443 
L 188.392378 -212.492558 
L 188.500139 -212.559033 
L 188.608249 -212.624867 
L 188.716705 -212.690062 
L 188.825504 -212.754617 
L 188.934644 -212.818531 
L 189.044123 -212.881806 
L 189.153938 -212.944441 
L 189.264088 -213.006436 
L 189.374568 -213.067791 
L 189.485378 -213.128506 
L 189.596515 -213.188581 
L 189.707975 -213.248017 
L 189.819758 -213.306812 
L 189.93186 -213.364967 
L 190.04428 -213.422482 
L 190.157014 -213.479358 
L 190.27006 -213.535593 
L 190.383416 -213.591189 
L 190.49708 -213.646144 
L 190.611049 -213.70046 
L 190.72532 -213.754136 
L 190.839892 -213.807171 
L 190.954761 -213.859567 
L 191.069926 -213.911323 
L 191.185384 -213.962439 
L 191.301133 -214.012915 
L 191.41717 -214.06275 
L 191.533493 -214.111946 
L 191.650099 -214.160503 
L 191.766987 -214.208419 
L 191.884153 -214.255695 
L 192.001595 -214.302331 
L 192.119311 -214.348327 
L 192.237299 -214.393684 
L 192.355556 -214.4384 
L 192.474079 -214.482476 
L 192.592866 -214.525913 
L 192.711916 -214.568709 
L 192.831225 -214.610866 
L 192.950791 -214.652383 
L 193.070611 -214.693259 
L 193.190684 -214.733496 
L 193.311006 -214.773093 
L 193.431576 -214.81205 
L 193.552391 -214.850367 
L 193.673449 -214.888044 
L 193.794747 -214.92508 
L 193.916283 -214.961478 
L 194.038054 -214.997235 
L 194.160058 -215.032352 
L 194.282292 -215.066829 
L 194.404755 -215.100666 
L 194.527444 -215.133864 
L 194.650356 -215.166421 
L 194.773489 -215.198338 
L 194.896841 -215.229616 
L 195.020409 -215.260253 
L 195.144191 -215.290251 
L 195.268184 -215.319608 
L 195.392386 -215.348326 
L 195.516795 -215.376404 
L 195.641408 -215.403842 
L 195.766222 -215.430639 
L 195.891237 -215.456797 
L 196.016448 -215.482315 
L 196.141853 -215.507193 
L 196.267451 -215.531431 
L 196.393239 -215.555029 
L 196.519214 -215.577988 
L 196.645374 -215.600306 
L 196.771716 -215.621984 
L 196.898239 -215.643022 
L 197.024939 -215.663421 
L 197.151815 -215.683179 
L 197.278864 -215.702297 
L 197.406083 -215.720776 
L 197.53347 -215.738614 
L 197.661024 -215.755813 
L 197.78874 -215.772372 
L 197.916618 -215.78829 
L 198.044654 -215.803569 
L 198.172846 -215.818208 
L 198.301192 -215.832207 
L 198.429689 -215.845566 
L 198.558335 -215.858285 
L 198.687128 -215.870364 
L 198.816065 -215.881803 
L 198.945144 -215.892602 
L 199.074362 -215.902761 
L 199.203716 -215.91228 
L 199.333206 -215.92116 
L 199.462827 -215.929399 
L 199.592579 -215.936998 
L 199.722457 -215.943958 
L 199.852461 -215.950277 
L 199.982587 -215.955957 
L 200.112833 -215.960996 
L 200.243196 -215.965396 
L 200.373676 -215.969156 
L 200.504268 -215.972275 
L 200.63497 -215.974755 
L 200.765781 -215.976595 
L 200.896697 -215.977795 
L 201.027717 -215.978355 
L 201.158837 -215.978275 
L 201.290056 -215.977555 
L 201.421371 -215.976195 
L 201.55278 -215.974195 
L 201.68428 -215.971556 
L 201.815869 -215.968276 
L 201.947544 -215.964356 
L 202.079304 -215.959797 
L 202.211145 -215.954597 
L 202.343065 -215.948757 
L 202.475062 -215.942278 
L 202.607134 -215.935159 
L 202.739278 -215.927399 
L 202.871492 -215.919 
L 203.003772 -215.909961 
L 203.136118 -215.900281 
L 203.268526 -215.889962 
L 203.400994 -215.879003 
L 203.53352 -215.867404 
L 203.666101 -215.855165 
L 203.798735 -215.842286 
L 203.931419 -215.828767 
L 204.064152 -215.814608 
L 204.19693 -215.799809 
L 204.329751 -215.784371 
L 204.462613 -215.768292 
L 204.595513 -215.751573 
L 204.72845 -215.734215 
L 204.86142 -215.716216 
L 204.994422 -215.697578 
L 205.127452 -215.678299 
L 205.260508 -215.658381 
L 205.393589 -215.637823 
L 205.526691 -215.616624 
L 205.659813 -215.594786 
L 205.792951 -215.572308 
L 205.926104 -215.54919 
L 206.059269 -215.525432 
L 206.192443 -215.501034 
L 206.325625 -215.475996 
L 206.458811 -215.450318 
L 206.592 -215.424 
L 206.725189 -215.397042 
L 206.858375 -215.369444 
L 206.991557 -215.341207 
L 207.124731 -215.312329 
L 207.257896 -215.282811 
L 207.391049 -215.252654 
L 207.524187 -215.221856 
L 207.657309 -215.190419 
L 207.790411 -215.158342 
L 207.923492 -215.125624 
L 208.056548 -215.092267 
L 208.189578 -215.05827 
L 208.32258 -215.023632 
L 208.45555 -214.988355 
L 208.588487 -214.952438 
L 208.721387 -214.915881 
L 208.854249 -214.878684 
L 208.98707 -214.840847 
L 209.119848 -214.80237 
L 209.252581 -214.763254 
L 209.385265 -214.723497 
L 209.517899 -214.6831 
L 209.65048 -214.642063 
L 209.783006 -214.600387 
L 209.915474 -214.55807 
L 210.047882 -214.515114 
L 210.180228 -214.471517 
L 210.312508 -214.427281 
L 210.444722 -214.382405 
L 210.576866 -214.336888 
L 210.708938 -214.290732 
L 210.840935 -214.243936 
L 210.972855 -214.1965 
L 211.104696 -214.148424 
L 211.236456 -214.099707 
L 211.368131 -214.050351 
L 211.49972 -214.000356 
L 211.63122 -213.94972 
L 211.762629 -213.898444 
L 211.893944 -213.846528 
L 212.025163 -213.793972 
L 212.156283 -213.740777 
L 212.287303 -213.686941 
L 212.418219 -213.632465 
L 212.54903 -213.57735 
L 212.679732 -213.521594 
L 212.810324 -213.465199 
L 212.940804 -213.408164 
L 213.071167 -213.350488 
L 213.201413 -213.292173 
L 213.331539 -213.233218 
L 213.461543 -213.173623 
L 213.591421 -213.113388 
L 213.721173 -213.052512 
L 213.850794 -212.990997 
L 213.980284 -212.928843 
L 214.109638 -212.866048 
L 214.238856 -212.802613 
L 214.367935 -212.738538 
L 214.496872 -212.673823 
L 214.625665 -212.608469 
L 214.754311 -212.542474 
L 214.882808 -212.475839 
L 215.011154 -212.408565 
L 215.139346 -212.34065 
L 215.267382 -212.272096 
L 215.39526 -212.202901 
L 215.522976 -212.133067 
L 215.65053 -212.062593 
L 215.777917 -211.991479 
L 215.905136 -211.919724 
L 216.032185 -211.84733 
L 216.159061 -211.774296 
L 216.285761 -211.700622 
L 216.412284 -211.626308 
L 216.538626 -211.551354 
L 216.664786 -211.47576 
L 216.790761 -211.399527 
L 216.916549 -211.322653 
L 217.042147 -211.245139 
L 217.167552 -211.166986 
L 217.292763 -211.088192 
L 217.417778 -211.008758 
L 217.542592 -210.928685 
L 217.667205 -210.847971 
L 217.791614 -210.766618 
L 217.915816 -210.684625 
L 218.039809 -210.601991 
L 218.163591 -210.518718 
L 218.287159 -210.434805 
L 218.410511 -210.350252 
L 218.533644 -210.265059 
L 218.656556 -210.179226 
L 218.779245 -210.092753 
L 218.901708 -210.00564 
L 219.023942 -209.917887 
L 219.145946 -209.829494 
L 219.267717 -209.740461 
L 219.389253 -209.650789 
L 219.510551 -209.560476 
L 219.631609 -209.469523 
L 219.752424 -209.377931 
L 219.872994 -209.285698 
L 219.993316 -209.192826 
L 220.113389 -209.099313 
L 220.233209 -209.005161 
L 220.352775 -208.910369 
L 220.472084 -208.814936 
L 220.591134 -208.718864 
L 220.709921 -208.622152 
L 220.828444 -208.5248 
L 220.946701 -208.426808 
L 221.064689 -208.328176 
L 221.182405 -208.228904 
L 221.299847 -208.128992 
L 221.417013 -208.02844 
L 221.533901 -207.927249 
L 221.650507 -207.825417 
L 221.76683 -207.722945 
L 221.882867 -207.619833 
L 221.998616 -207.516082 
L 222.114074 -207.41169 
L 222.229239 -207.306659 
L 222.344108 -207.200987 
L 222.45868 -207.094676 
L 222.572951 -206.987725 
L 222.68692 -206.880133 
L 222.800584 -206.771902 
L 222.91394 -206.663031 
L 223.026986 -206.55352 
L 223.13972 -206.443369 
L 223.25214 -206.332578 
L 223.364242 -206.221147 
L 223.476025 -206.109076 
L 223.587485 -205.996365 
L 223.698622 -205.883014 
L 223.809432 -205.769024 
L 223.919912 -205.654393 
L 224.030062 -205.539122 
L 224.139877 -205.423212 
L 224.249356 -205.306661 
L 224.358496 -205.189471 
L 224.467295 -205.07164 
L 224.575751 -204.95317 
L 224.683861 -204.83406 
L 224.791622 -204.714309 
L 224.899033 -204.593919 
L 225.006091 -204.472889 
L 225.112793 -204.351219 
L 225.219137 -204.228909 
L 225.32512 -204.105959 
L 225.430742 -203.982369 
L 225.535997 -203.858139 
L 225.640886 -203.733269 
L 225.745404 -203.607759 
L 225.84955 -203.481609 
L 225.953322 -203.35482 
L 226.056716 -203.22739 
L 226.159731 -203.09932 
L 226.262363 -202.970611 
L 226.364612 -202.841261 
L 226.466473 -202.711272 
L 226.567946 -202.580642 
L 226.669027 -202.449373 
L 226.769714 -202.317464 
L 226.870004 -202.184915 
L 226.969896 -202.051725 
L 227.069387 -201.917896 
L 227.168474 -201.783427 
L 227.267155 -201.648318 
L 227.365427 -201.512569 
L 227.463289 -201.37618 
L 227.560738 -201.239151 
L 227.657771 -201.101483 
L 227.754386 -200.963174 
L 227.850581 -200.824225 
L 227.946353 -200.684636 
L 228.0417 -200.544408 
L 228.136619 -200.403539 
L 228.231108 -200.262031 
L 228.325165 -200.119882 
L 228.418787 -199.977094 
L 228.511972 -199.833665 
L 228.604717 -199.689597 
L 228.697021 -199.544889 
L 228.788879 -199.399541 
L 228.880291 -199.253553 
L 228.971254 -199.106924 
L 229.061765 -198.959656 
L 229.151822 -198.811748 
L 229.241423 -198.6632 
L 229.330565 -198.514013 
L 229.419246 -198.364185 
L 229.507463 -198.213717 
L 229.595214 -198.062609 
L 229.682497 -197.910862 
L 229.769308 -197.758474 
L 229.855647 -197.605446 
L 229.94151 -197.451779 
L 230.026895 -197.297471 
L 230.111799 -197.142524 
L 230.196221 -196.986937 
L 230.280157 -196.830709 
L 230.363606 -196.673842 
L 230.446564 -196.516335 
L 230.52903 -196.358188 
L 230.611002 -196.1994 
L 230.692476 -196.039973 
L 230.77345 -195.879906 
L 230.853923 -195.719199 
L 230.93389 -195.557853 
L 231.013351 -195.395866 
L 231.092303 -195.233239 
L 231.170743 -195.069972 
L 231.248669 -194.906065 
L 231.326079 -194.741519 
L 231.40297 -194.576332 
L 231.479339 -194.410506 
L 231.555185 -194.244039 
L 231.630504 -194.076933 
L 231.705295 -193.909186 
L 231.779556 -193.7408 
L 231.853283 -193.571774 
L 231.926474 -193.402107 
L 231.999127 -193.231801 
L 232.07124 -193.060855 
L 232.142809 -192.889269 
L 232.213834 -192.717043 
L 232.284311 -192.544177 
L 232.354237 -192.370671 
L 232.423611 -192.196525 
L 232.492431 -192.02174 
L 232.560693 -191.846314 
L 232.628395 -191.670248 
L 232.695535 -191.493542 
L 232.76211 -191.316197 
L 232.828119 -191.138211 
L 232.893558 -190.959586 
L 232.958426 -190.78032 
L 233.02272 -190.600415 
L 233.086436 -190.41987 
L 233.149574 -190.238684 
L 233.212131 -190.056859 
L 233.274104 -189.874394 
L 233.335491 -189.691289 
L 233.396289 -189.507544 
L 233.456497 -189.323159 
L 233.51611 -189.138134 
L 233.575129 -188.952469 
L 233.633549 -188.766164 
L 233.691368 -188.579219 
L 233.748585 -188.391634 
L 233.805196 -188.203409 
L 233.8612 -188.014545 
L 233.916593 -187.82504 
L 233.971374 -187.634896 
L 234.025539 -187.444111 
L 234.079088 -187.252687 
L 234.132016 -187.060622 
L 234.184323 -186.867918 
L 234.236005 -186.674574 
L 234.28706 -186.480589 
L 234.337485 -186.285965 
L 234.387279 -186.090701 
L 234.436439 -185.894797 
L 234.484962 -185.698253 
L 234.532846 -185.501069 
L 234.580088 -185.303245 
L 234.626687 -185.104781 
L 234.67264 -184.905677 
L 234.717944 -184.705933 
L 234.762597 -184.50555 
L 234.806596 -184.304526 
L 234.84994 -184.102862 
L 234.892626 -183.900559 
L 234.934651 -183.697615 
L 234.976013 -183.494032 
L 235.016709 -183.289808 
L 235.056738 -183.084945 
L 235.096097 -182.879442 
L 235.134783 -182.673298 
L 235.172794 -182.466515 
L 235.210127 -182.259092 
L 235.246781 -182.051029 
L 235.282752 -181.842326 
L 235.318039 -181.632983 
L 235.352639 -181.423 
L 235.386549 -181.212377 
L 235.419768 -181.001114 
L 235.452292 -180.789211 
L 235.48412 -180.576669 
L 235.515248 -180.363486 
L 235.545675 -180.149663 
L 235.575399 -179.935201 
L 235.604416 -179.720098 
L 235.632724 -179.504356 
L 235.660322 -179.287973 
L 235.687206 -179.070951 
L 235.713374 -178.853288 
L 235.738823 -178.634986 
L 235.763552 -178.416044 
L 235.787559 -178.196462 
L 235.810839 -177.97624 
L 235.833392 -177.755378 
L 235.855214 -177.533875 
L 235.876304 -177.311734 
L 235.896659 -177.088952 
L 235.916276 -176.86553 
L 235.935153 -176.641468 
L 235.953288 -176.416766 
L 235.970679 -176.191424 
L 235.987322 -175.965443 
L 236.003216 -175.738821 
L 236.018358 -175.51156 
L 236.032745 -175.283658 
L 236.046376 -175.055117 
L 236.059248 -174.825935 
L 236.071359 -174.596114 
L 236.082705 -174.365653 
L 236.093285 -174.134551 
L 236.103097 -173.90281 
L 236.112137 -173.670429 
L 236.120404 -173.437408 
L 236.127894 -173.203747 
L 236.134607 -172.969446 
L 236.140539 -172.734505 
L 236.145688 -172.498924 
L 236.150051 -172.262703 
L 236.153626 -172.025843 
L 236.156411 -171.788342 
L 236.158403 -171.550201 
L 236.1596 -171.311421 
z
" style="stroke: #ff0000; stroke-opacity: 0.9"/>
    </defs>
    <g clip-path="url(#p127625276f)">
     <use xlink:href="#me1cd12ad88" x="0" y="345.6" style="fill: #ff0000; fill-opacity: 0.9; stroke: #ff0000; stroke-opacity: 0.9"/>
    </g>
   </g>
   <g id="matplotlib.axis_1">
    <g id="xtick_1">
     <g id="line2d_1">
      <defs>
       <path id="m0e09c6b600" d="M 0 0 
L 0 3.5 
" style="stroke: #000000; stroke-width: 0.8"/>
      </defs>
      <g>
       <use xlink:href="#m0e09c6b600" x="129.7152" y="307.584" style="stroke: #000000; stroke-width: 0.8"/>
      </g>
     </g>
     <g id="text_1">
      <!-- 4 -->
      <g transform="translate(122.344106 322.182437) scale(0.1 -0.1)">
       <defs>
        <path id="DejaVuSans-2212" d="M 678 2272 
L 4684 2272 
L 4684 1741 
L 678 1741 
L 678 2272 
z
" transform="scale(0.015625)"/>
        <path id="DejaVuSans-34" d="M 2419 4116 
L 825 1625 
L 2419 1625 
L 2419 4116 
z
M 2253 4666 
L 3047 4666 
L 3047 1625 
L 3713 1625 
L 3713 1100 
L 3047 1100 
L 3047 0 
L 2419 0 
L 2419 1100 
L 313 1100 
L 313 1709 
L 2253 4666 
z
" transform="scale(0.015625)"/>
       </defs>
       <use xlink:href="#DejaVuSans-2212"/>
       <use xlink:href="#DejaVuSans-34" x="83.789062"/>
      </g>
     </g>
    </g>
    <g id="xtick_2">
     <g id="line2d_2">
      <g>
       <use xlink:href="#m0e09c6b600" x="182.9376" y="307.584" style="stroke: #000000; stroke-width: 0.8"/>
      </g>
     </g>
     <g id="text_2">
      <!-- 2 -->
      <g transform="translate(175.566506 322.182437) scale(0.1 -0.1)">
       <defs>
        <path id="DejaVuSans-32" d="M 1228 531 
L 3431 531 
L 3431 0 
L 469 0 
L 469 531 
Q 828 903 1448 1529 
Q 2069 2156 2228 2338 
Q 2531 2678 2651 2914 
Q 2772 3150 2772 3378 
Q 2772 3750 2511 3984 
Q 2250 4219 1831 4219 
Q 1534 4219 1204 4116 
Q 875 4013 500 3803 
L 500 4441 
Q 881 4594 1212 4672 
Q 1544 4750 1819 4750 
Q 2544 4750 2975 4387 
Q 3406 4025 3406 3419 
Q 3406 3131 3298 2873 
Q 3191 2616 2906 2266 
Q 2828 2175 2409 1742 
Q 1991 1309 1228 531 
z
" transform="scale(0.015625)"/>
       </defs>
       <use xlink:href="#DejaVuSans-2212"/>
       <use xlink:href="#DejaVuSans-32" x="83.789062"/>
      </g>
     </g>
    </g>
    <g id="xtick_3">
     <g id="line2d_3">
      <g>
       <use xlink:href="#m0e09c6b600" x="236.16" y="307.584" style="stroke: #000000; stroke-width: 0.8"/>
      </g>
     </g>
     <g id="text_3">
      <!-- 0 -->
      <g transform="translate(232.97875 322.182437) scale(0.1 -0.1)">
       <defs>
        <path id="DejaVuSans-30" d="M 2034 4250 
Q 1547 4250 1301 3770 
Q 1056 3291 1056 2328 
Q 1056 1369 1301 889 
Q 1547 409 2034 409 
Q 2525 409 2770 889 
Q 3016 1369 3016 2328 
Q 3016 3291 2770 3770 
Q 2525 4250 2034 4250 
z
M 2034 4750 
Q 2819 4750 3233 4129 
Q 3647 3509 3647 2328 
Q 3647 1150 3233 529 
Q 2819 -91 2034 -91 
Q 1250 -91 836 529 
Q 422 1150 422 2328 
Q 422 3509 836 4129 
Q 1250 4750 2034 4750 
z
" transform="scale(0.015625)"/>
       </defs>
       <use xlink:href="#DejaVuSans-30"/>
      </g>
     </g>
    </g>
    <g id="xtick_4">
     <g id="line2d_4">
      <g>
       <use xlink:href="#m0e09c6b600" x="289.3824" y="307.584" style="stroke: #000000; stroke-width: 0.8"/>
      </g>
     </g>
     <g id="text_4">
      <!-- 2 -->
      <g transform="translate(286.20115 322.182437) scale(0.1 -0.1)">
       <use xlink:href="#DejaVuSans-32"/>
      </g>
     </g>
    </g>
    <g id="xtick_5">
     <g id="line2d_5">
      <g>
       <use xlink:href="#m0e09c6b600" x="342.6048" y="307.584" style="stroke: #000000; stroke-width: 0.8"/>
      </g>
     </g>
     <g id="text_5">
      <!-- 4 -->
      <g transform="translate(339.42355 322.182437) scale(0.1 -0.1)">
       <use xlink:href="#DejaVuSans-34"/>
      </g>
     </g>
    </g>
    <g id="text_6">
     <!-- x -->
     <g transform="translate(233.200625 335.860562) scale(0.1 -0.1)">
      <defs>
       <path id="DejaVuSans-78" d="M 3513 3500 
L 2247 1797 
L 3578 0 
L 2900 0 
L 1881 1375 
L 863 0 
L 184 0 
L 1544 1831 
L 300 3500 
L 978 3500 
L 1906 2253 
L 2834 3500 
L 3513 3500 
z
" transform="scale(0.015625)"/>
      </defs>
      <use xlink:href="#DejaVuSans-78"/>
     </g>
    </g>
   </g>
   <g id="matplotlib.axis_2">
    <g id="ytick_1">
     <g id="line2d_6">
      <defs>
       <path id="md5c11df5be" d="M 0 0 
L -3.5 0 
" style="stroke: #000000; stroke-width: 0.8"/>
      </defs>
      <g>
       <use xlink:href="#md5c11df5be" x="103.104" y="280.9728" style="stroke: #000000; stroke-width: 0.8"/>
      </g>
     </g>
     <g id="text_7">
      <!-- 4 -->
      <g transform="translate(81.361813 284.772019) scale(0.1 -0.1)">
       <use xlink:href="#DejaVuSans-2212"/>
       <use xlink:href="#DejaVuSans-34" x="83.789062"/>
      </g>
     </g>
    </g>
    <g id="ytick_2">
     <g id="line2d_7">
      <g>
       <use xlink:href="#md5c11df5be" x="103.104" y="227.7504" style="stroke: #000000; stroke-width: 0.8"/>
      </g>
     </g>
     <g id="text_8">
      <!-- 2 -->
      <g transform="translate(81.361813 231.549619) scale(0.1 -0.1)">
       <use xlink:href="#DejaVuSans-2212"/>
       <use xlink:href="#DejaVuSans-32" x="83.789062"/>
      </g>
     </g>
    </g>
    <g id="ytick_3">
     <g id="line2d_8">
      <g>
       <use xlink:href="#md5c11df5be" x="103.104" y="174.528" style="stroke: #000000; stroke-width: 0.8"/>
      </g>
     </g>
     <g id="text_9">
      <!-- 0 -->
      <g transform="translate(89.7415 178.327219) scale(0.1 -0.1)">
       <use xlink:href="#DejaVuSans-30"/>
      </g>
     </g>
    </g>
    <g id="ytick_4">
     <g id="line2d_9">
      <g>
       <use xlink:href="#md5c11df5be" x="103.104" y="121.3056" style="stroke: #000000; stroke-width: 0.8"/>
      </g>
     </g>
     <g id="text_10">
      <!-- 2 -->
      <g transform="translate(89.7415 125.104819) scale(0.1 -0.1)">
       <use xlink:href="#DejaVuSans-32"/>
      </g>
     </g>
    </g>
    <g id="ytick_5">
     <g id="line2d_10">
      <g>
       <use xlink:href="#md5c11df5be" x="103.104" y="68.0832" style="stroke: #000000; stroke-width: 0.8"/>
      </g>
     </g>
     <g id="text_11">
      <!-- 4 -->
      <g transform="translate(89.7415 71.882419) scale(0.1 -0.1)">
       <use xlink:href="#DejaVuSans-34"/>
      </g>
     </g>
    </g>
    <g id="text_12">
     <!-- y -->
     <g transform="translate(75.282125 177.487375) rotate(-90) scale(0.1 -0.1)">
      <defs>
       <path id="DejaVuSans-79" d="M 2059 -325 
Q 1816 -950 1584 -1140 
Q 1353 -1331 966 -1331 
L 506 -1331 
L 506 -850 
L 844 -850 
Q 1081 -850 1212 -737 
Q 1344 -625 1503 -206 
L 1606 56 
L 191 3500 
L 800 3500 
L 1894 763 
L 2988 3500 
L 3597 3500 
L 2059 -325 
z
" transform="scale(0.015625)"/>
      </defs>
      <use xlink:href="#DejaVuSans-79"/>
     </g>
    </g>
   </g>
   <g id="line2d_11">
    <path d="M 236.16 174.528 
L 236.273624 170.544883 
L 236.606626 166.746712 
L 237.147206 163.133485 
L 237.883561 159.705203 
L 238.80389 156.461866 
L 239.896389 153.403475 
L 241.149257 150.530028 
L 242.550692 147.841526 
L 244.183381 145.196461 
L 245.955388 142.758739 
L 247.852705 140.52836 
L 249.86132 138.505324 
L 251.967225 136.689631 
L 254.156409 135.081282 
L 256.542083 133.608521 
L 258.988461 132.366782 
L 261.479065 131.356064 
L 263.99742 130.576368 
L 266.527049 130.027692 
L 269.051474 129.710038 
L 271.554219 129.623405 
L 274.018808 129.767793 
L 276.303552 130.117685 
L 278.525253 130.67492 
L 280.669901 131.439497 
L 282.723485 132.411419 
L 284.671997 133.590683 
L 286.403155 134.894817 
L 288.016291 136.383896 
L 289.499606 138.05792 
L 290.841295 139.916889 
L 292.029558 141.960803 
L 293.052593 144.189663 
L 293.853944 146.456359 
L 294.488639 148.886881 
L 294.946839 151.481231 
L 295.218705 154.239407 
L 295.294397 157.16141 
L 295.148866 160.445543 
L 294.758963 163.914621 
L 294.112886 167.568645 
L 293.198833 171.407613 
L 292.005002 175.431527 
L 290.519592 179.640385 
L 288.730799 184.034188 
L 286.626823 188.612937 
L 284.19586 193.37663 
L 281.426109 198.325268 
L 278.305768 203.458852 
L 274.823035 208.77738 
L 270.727324 214.610347 
L 266.198092 220.650656 
L 261.221328 226.898309 
L 255.783024 233.353305 
L 249.869169 240.015644 
L 243.465753 246.885327 
L 236.558768 253.962352 
L 236.16 254.3616 
L 236.16 254.3616 
" clip-path="url(#p127625276f)" style="fill: none; stroke: #ff0000; stroke-width: 1.5; stroke-linecap: square"/>
   </g>
   <g id="line2d_12">
    <path d="M 236.16 174.528 
L 236.046376 170.544883 
L 235.713374 166.746712 
L 235.172794 163.133485 
L 234.436439 159.705203 
L 233.51611 156.461866 
L 232.423611 153.403475 
L 231.170743 150.530028 
L 229.769308 147.841526 
L 228.136619 145.196461 
L 226.364612 142.758739 
L 224.467295 140.52836 
L 222.45868 138.505324 
L 220.352775 136.689631 
L 218.163591 135.081282 
L 215.777917 133.608521 
L 213.331539 132.366782 
L 210.840935 131.356064 
L 208.32258 130.576368 
L 205.792951 130.027692 
L 203.268526 129.710038 
L 200.765781 129.623405 
L 198.301192 129.767793 
L 196.016448 130.117685 
L 193.794747 130.67492 
L 191.650099 131.439497 
L 189.596515 132.411419 
L 187.648003 133.590683 
L 185.916845 134.894817 
L 184.303709 136.383896 
L 182.820394 138.05792 
L 181.478705 139.916889 
L 180.290442 141.960803 
L 179.267407 144.189663 
L 178.466056 146.456359 
L 177.831361 148.886881 
L 177.373161 151.481231 
L 177.101295 154.239407 
L 177.025603 157.16141 
L 177.171134 160.445543 
L 177.561037 163.914621 
L 178.207114 167.568645 
L 179.121167 171.407613 
L 180.314998 175.431527 
L 181.800408 179.640385 
L 183.589201 184.034188 
L 185.693177 188.612937 
L 188.12414 193.37663 
L 190.893891 198.325268 
L 194.014232 203.458852 
L 197.496965 208.77738 
L 201.592676 214.610347 
L 206.121908 220.650656 
L 211.098672 226.898309 
L 216.536976 233.353305 
L 222.450831 240.015644 
L 228.854247 246.885327 
L 235.761232 253.962352 
L 236.16 254.3616 
L 236.16 254.3616 
" clip-path="url(#p127625276f)" style="fill: none; stroke: #ff0000; stroke-width: 1.5; stroke-linecap: square"/>
   </g>
   <g id="patch_3">
    <path d="M 103.104 307.584 
L 103.104 41.472 
" style="fill: none; stroke: #000000; stroke-width: 0.8; stroke-linejoin: miter; stroke-linecap: square"/>
   </g>
   <g id="patch_4">
    <path d="M 369.216 307.584 
L 369.216 41.472 
" style="fill: none; stroke: #000000; stroke-width: 0.8; stroke-linejoin: miter; stroke-linecap: square"/>
   </g>
   <g id="patch_5">
    <path d="M 103.104 307.584 
L 369.216 307.584 
" style="fill: none; stroke: #000000; stroke-width: 0.8; stroke-linejoin: miter; stroke-linecap: square"/>
   </g>
   <g id="patch_6">
    <path d="M 103.104 41.472 
L 369.216 41.472 
" style="fill: none; stroke: #000000; stroke-width: 0.8; stroke-linejoin: miter; stroke-linecap: square"/>
   </g>
  </g>
 </g>
 <defs>
  <clipPath id="p127625276f">
   <rect x="103.104" y="41.472" width="266.112" height="266.112"/>
  </clipPath>
 </defs>
</svg>
